<?xml version="1.0" encoding="utf-8" standalone="no"?>
<!DOCTYPE svg PUBLIC "-//W3C//DTD SVG 1.1//EN"
  "http://www.w3.org/Graphics/SVG/1.1/DTD/svg11.dtd">
<svg xmlns:xlink="http://www.w3.org/1999/xlink" width="244.602827pt" height="149.033016pt" viewBox="0 0 244.602827 149.033016" xmlns="http://www.w3.org/2000/svg" version="1.1">
 <metadata>
  <rdf:RDF xmlns:dc="http://purl.org/dc/elements/1.1/" xmlns:cc="http://creativecommons.org/ns#" xmlns:rdf="http://www.w3.org/1999/02/22-rdf-syntax-ns#">
   <cc:Work>
    <dc:type rdf:resource="http://purl.org/dc/dcmitype/StillImage"/>
    <dc:date>2023-01-24T07:49:52.099843</dc:date>
    <dc:format>image/svg+xml</dc:format>
    <dc:creator>
     <cc:Agent>
      <dc:title>Matplotlib v3.5.3, https://matplotlib.org/</dc:title>
     </cc:Agent>
    </dc:creator>
   </cc:Work>
  </rdf:RDF>
 </metadata>
 <defs>
  <style type="text/css">*{stroke-linejoin: round; stroke-linecap: butt}</style>
 </defs>
 <g id="figure_1">
  <g id="patch_1">
   <path d="M 0 149.033016 
L 244.602827 149.033016 
L 244.602827 0 
L 0 0 
L 0 149.033016 
z
" style="fill: none"/>
  </g>
  <g id="axes_1">
   <g id="patch_2">
    <path d="M 35.851918 79.539766 
L 103.922372 79.539766 
L 103.922372 10.421016 
L 35.851918 10.421016 
L 35.851918 79.539766 
z
" style="fill: none"/>
   </g>
   <g id="matplotlib.axis_1">
    <g id="xtick_1">
     <g id="line2d_1">
      <defs>
       <path id="m995e495608" d="M 0 0 
L 0 3.5 
" style="stroke: #000000; stroke-width: 1.5"/>
      </defs>
      <g>
       <use xlink:href="#m995e495608" x="35.851918" y="79.539766" style="stroke: #000000; stroke-width: 1.5"/>
      </g>
     </g>
     <g id="text_1">
      <text style="font: 9px 'Arial'; text-anchor: middle" x="35.851918" y="92.981797" transform="rotate(-0, 35.851918, 92.981797)">0.0</text>
     </g>
    </g>
    <g id="xtick_2">
     <g id="line2d_2">
      <g>
       <use xlink:href="#m995e495608" x="69.887145" y="79.539766" style="stroke: #000000; stroke-width: 1.5"/>
      </g>
     </g>
     <g id="text_2">
      <text style="font: 9px 'Arial'; text-anchor: middle" x="69.887145" y="92.981797" transform="rotate(-0, 69.887145, 92.981797)">0.5</text>
     </g>
    </g>
    <g id="xtick_3">
     <g id="line2d_3">
      <g>
       <use xlink:href="#m995e495608" x="103.922372" y="79.539766" style="stroke: #000000; stroke-width: 1.5"/>
      </g>
     </g>
     <g id="text_3">
      <text style="font: 9px 'Arial'; text-anchor: middle" x="103.922372" y="92.981797" transform="rotate(-0, 103.922372, 92.981797)">1.0</text>
     </g>
    </g>
   </g>
   <g id="matplotlib.axis_2">
    <g id="ytick_1">
     <g id="line2d_4">
      <defs>
       <path id="m3e19cd2920" d="M 0 0 
L -3.5 0 
" style="stroke: #000000; stroke-width: 1.5"/>
      </defs>
      <g>
       <use xlink:href="#m3e19cd2920" x="35.851918" y="79.539766" style="stroke: #000000; stroke-width: 1.5"/>
      </g>
     </g>
     <g id="text_4">
      <text style="font: 9px 'Arial'; text-anchor: end" x="28.851918" y="82.760781" transform="rotate(-0, 28.851918, 82.760781)">0.0</text>
     </g>
    </g>
    <g id="ytick_2">
     <g id="line2d_5">
      <g>
       <use xlink:href="#m3e19cd2920" x="35.851918" y="44.980391" style="stroke: #000000; stroke-width: 1.5"/>
      </g>
     </g>
     <g id="text_5">
      <text style="font: 9px 'Arial'; text-anchor: end" x="28.851918" y="48.201406" transform="rotate(-0, 28.851918, 48.201406)">0.5</text>
     </g>
    </g>
    <g id="ytick_3">
     <g id="line2d_6">
      <g>
       <use xlink:href="#m3e19cd2920" x="35.851918" y="10.421016" style="stroke: #000000; stroke-width: 1.5"/>
      </g>
     </g>
     <g id="text_6">
      <text style="font: 9px 'Arial'; text-anchor: end" x="28.851918" y="13.642031" transform="rotate(-0, 28.851918, 13.642031)">1.0</text>
     </g>
    </g>
    <g id="text_7">
     <text style="font: 9px 'Arial'; text-anchor: middle" x="13.642031" y="44.980391" transform="rotate(-90, 13.642031, 44.980391)">L2PGD</text>
    </g>
   </g>
   <g id="line2d_7">
    <path d="M 35.851918 79.539766 
L 36.539498 78.841596 
L 37.227078 78.143427 
L 37.914659 77.445258 
L 38.602239 76.747089 
L 39.289819 76.04892 
L 39.9774 75.35075 
L 40.66498 74.652581 
L 41.35256 73.954412 
L 42.040141 73.256243 
L 42.727721 72.558074 
L 43.415302 71.859904 
L 44.102882 71.161735 
L 44.790462 70.463566 
L 45.478042 69.765397 
L 46.165623 69.067227 
L 46.853203 68.369059 
L 47.540783 67.67089 
L 48.228364 66.97272 
L 48.915944 66.274551 
L 49.603524 65.576382 
L 50.291105 64.878212 
L 50.978685 64.180043 
L 51.666265 63.481874 
L 52.353846 62.783705 
L 53.041428 62.085535 
L 53.729007 61.387367 
L 54.416588 60.689197 
L 55.104169 59.991027 
L 55.791748 59.292859 
L 56.479329 58.594689 
L 57.16691 57.896519 
L 57.854489 57.198352 
L 58.54207 56.500182 
L 59.229649 55.802014 
L 59.91723 55.103844 
L 60.604811 54.405674 
L 61.29239 53.707506 
L 61.979971 53.009336 
L 62.66755 52.311168 
L 63.355131 51.612998 
L 64.042712 50.914829 
L 64.730291 50.216661 
L 65.417872 49.518491 
L 66.105453 48.820321 
L 66.793032 48.122153 
L 67.480613 47.423983 
L 68.168194 46.725813 
L 68.855775 46.027643 
L 69.543356 45.329474 
L 70.230937 44.631304 
L 70.918514 43.933138 
L 71.606095 43.234968 
L 72.293677 42.536798 
L 72.981258 41.838628 
L 73.668839 41.140458 
L 74.356416 40.442292 
L 75.043997 39.744123 
L 75.731578 39.045953 
L 76.419155 38.347787 
L 77.106736 37.649617 
L 77.794317 36.951447 
L 78.481898 36.253277 
L 79.169479 35.555107 
L 79.85706 34.856937 
L 80.544641 34.158767 
L 81.232222 33.460598 
L 81.919803 32.762428 
L 82.60738 32.064262 
L 83.294961 31.366092 
L 83.982542 30.667922 
L 84.670123 29.969752 
L 85.357704 29.271582 
L 86.045285 28.573412 
L 86.732866 27.875243 
L 87.420443 27.177077 
L 88.108024 26.478907 
L 88.795605 25.780737 
L 89.483186 25.082567 
L 90.170767 24.384397 
L 90.858344 23.686231 
L 91.545926 22.988061 
L 92.233507 22.289892 
L 92.921084 21.591726 
L 93.608665 20.893556 
L 94.296246 20.195386 
L 94.983827 19.497216 
L 95.671408 18.799046 
L 96.358989 18.100876 
L 97.04657 17.402706 
L 97.734151 16.704536 
L 98.421732 16.006367 
L 99.109309 15.308201 
L 99.79689 14.610031 
L 100.484471 13.911861 
L 101.172052 13.213691 
L 101.859633 12.515521 
L 102.54721 11.817355 
L 103.234791 11.119186 
L 103.922372 10.421016 
" clip-path="url(#pe44a12c581)" style="fill: none; stroke-dasharray: 4.8,1.2,0.75,1.2; stroke-dashoffset: 0; stroke: #1a1a1a; stroke-opacity: 0.8; stroke-width: 0.75"/>
   </g>
   <g id="line2d_8">
    <path d="M 35.851918 79.539766 
L 36.539498 79.353145 
L 37.227078 78.945344 
L 37.914659 78.530632 
L 38.602239 77.977682 
L 39.289819 77.403997 
L 39.9774 76.851046 
L 40.66498 76.249713 
L 41.35256 75.689851 
L 42.040141 75.143813 
L 42.727721 74.535568 
L 43.415302 73.961883 
L 44.102882 73.24996 
L 44.790462 72.62098 
L 45.478042 72.040383 
L 46.165623 71.404489 
L 46.853203 70.678743 
L 47.540783 70.022114 
L 48.228364 69.358574 
L 48.915944 68.743416 
L 49.603524 68.052229 
L 50.291105 67.347219 
L 50.978685 66.635297 
L 51.666265 65.95102 
L 52.353846 65.294392 
L 53.041428 64.506437 
L 53.729007 63.815252 
L 54.416588 63.137887 
L 55.104169 62.425965 
L 55.791748 61.734775 
L 56.479329 61.036677 
L 57.16691 60.338577 
L 57.854489 59.709595 
L 58.54207 58.907819 
L 59.229649 58.050746 
L 59.91723 57.283528 
L 60.604811 56.495572 
L 61.29239 55.721445 
L 61.979971 55.009521 
L 62.66755 54.311425 
L 63.355131 53.551117 
L 64.042712 52.846106 
L 64.730291 52.182567 
L 65.417872 51.449906 
L 66.105453 50.661953 
L 66.793032 49.922384 
L 67.480613 49.189729 
L 68.168194 48.401772 
L 68.855775 47.703672 
L 69.543356 47.171454 
L 70.230937 46.348944 
L 70.918514 45.692314 
L 71.606095 45.11172 
L 72.293677 44.337591 
L 72.981258 43.618752 
L 73.668839 42.816977 
L 74.356416 42.091229 
L 75.043997 41.317099 
L 75.731578 40.639734 
L 76.419155 39.962373 
L 77.106736 39.215886 
L 77.794317 38.448668 
L 78.481898 37.674538 
L 79.169479 37.08703 
L 79.85706 36.464961 
L 80.544641 35.683921 
L 81.232222 34.902881 
L 81.919803 34.128751 
L 82.60738 33.403003 
L 83.294961 32.725642 
L 83.982542 32.117391 
L 84.670123 31.370908 
L 85.357704 30.65899 
L 86.045285 30.04383 
L 86.732866 29.297348 
L 87.420443 28.606165 
L 88.108024 27.79056 
L 88.795605 27.106282 
L 89.483186 26.39436 
L 90.170767 25.703173 
L 90.858344 25.053457 
L 91.545926 24.403748 
L 92.233507 23.691822 
L 92.921084 23.000631 
L 93.608665 22.399297 
L 94.296246 21.742671 
L 94.983827 21.134424 
L 95.671408 20.305001 
L 96.358989 19.641454 
L 97.04657 19.047037 
L 97.734151 18.252172 
L 98.421732 17.512602 
L 99.109309 16.738471 
L 99.79689 15.950519 
L 100.484471 15.342267 
L 101.172052 14.575054 
L 101.859633 13.766366 
L 102.54721 12.950778 
L 103.234791 12.038407 
L 103.922372 10.421016 
" clip-path="url(#pe44a12c581)" style="fill: none; stroke: #000000; stroke-width: 1.5; stroke-linecap: square"/>
   </g>
   <g id="line2d_9">
    <path d="M 35.851918 79.539766 
L 36.539498 79.463735 
L 37.227078 79.339321 
L 37.914659 79.180348 
L 38.602239 78.993728 
L 39.289819 78.820931 
L 39.9774 78.675781 
L 40.66498 78.420042 
L 41.35256 78.205774 
L 42.040141 77.963858 
L 42.727721 77.645912 
L 43.415302 77.383261 
L 44.102882 77.099874 
L 44.790462 76.830311 
L 45.478042 76.498541 
L 46.165623 76.23589 
L 46.853203 75.952503 
L 47.540783 75.565438 
L 48.228364 75.247491 
L 48.915944 74.805131 
L 49.603524 74.397331 
L 50.291105 74.017178 
L 50.978685 73.69232 
L 51.666265 73.194665 
L 52.353846 72.828335 
L 53.041428 72.468917 
L 53.729007 72.07494 
L 54.416588 71.632581 
L 55.104169 71.148749 
L 55.791748 70.644182 
L 56.479329 70.08432 
L 57.16691 69.683433 
L 57.854489 69.213425 
L 58.54207 68.847095 
L 59.229649 68.356352 
L 59.91723 67.879434 
L 60.604811 67.374866 
L 61.29239 66.953242 
L 61.979971 66.517793 
L 62.66755 66.020139 
L 63.355131 65.453364 
L 64.042712 64.921151 
L 64.730291 64.382024 
L 65.417872 63.842899 
L 66.105453 63.359066 
L 66.793032 62.819941 
L 67.480613 62.280814 
L 68.168194 61.720953 
L 68.855775 61.119619 
L 69.543356 60.359314 
L 70.230937 59.771804 
L 70.918514 59.211942 
L 71.606095 58.631347 
L 72.293677 58.030011 
L 72.981258 57.387209 
L 73.668839 56.716757 
L 74.356416 56.184543 
L 75.043997 55.569385 
L 75.731578 54.961138 
L 76.419155 54.387454 
L 77.106736 53.730824 
L 77.794317 52.963606 
L 78.481898 52.320805 
L 79.169479 51.754027 
L 79.85706 50.979901 
L 80.544641 50.088269 
L 81.232222 49.424726 
L 81.919803 48.602215 
L 82.60738 47.821173 
L 83.294961 47.074688 
L 83.982542 46.355853 
L 84.670123 45.63011 
L 85.357704 45.035685 
L 86.045285 44.379061 
L 86.732866 43.694787 
L 87.420443 42.98977 
L 88.108024 42.222552 
L 88.795605 41.476074 
L 89.483186 40.605177 
L 90.170767 39.713545 
L 90.858344 38.73897 
L 91.545926 37.978661 
L 92.233507 37.107773 
L 92.921084 36.022606 
L 93.608665 35.234649 
L 94.296246 34.09419 
L 94.983827 33.174914 
L 95.671408 32.048281 
L 96.358989 31.004592 
L 97.04657 29.898682 
L 97.734151 28.723666 
L 98.421732 27.486437 
L 99.109309 26.028028 
L 99.79689 24.804629 
L 100.484471 23.52593 
L 101.172052 21.811789 
L 101.859633 20.415589 
L 102.54721 18.459529 
L 103.234791 16.178615 
L 103.922372 10.421016 
" clip-path="url(#pe44a12c581)" style="fill: none; stroke: #feb24c; stroke-opacity: 0.5; stroke-width: 1.5; stroke-linecap: square"/>
   </g>
   <g id="line2d_10">
    <path d="M 35.851918 79.539766 
L 36.539498 79.505206 
L 37.227078 79.491383 
L 37.914659 79.463735 
L 38.602239 79.429176 
L 39.289819 79.401528 
L 39.9774 79.346233 
L 40.66498 79.270203 
L 41.35256 79.207996 
L 42.040141 79.159613 
L 42.727721 79.07667 
L 43.415302 79.000639 
L 44.102882 78.952256 
L 44.790462 78.883138 
L 45.478042 78.800195 
L 46.165623 78.731076 
L 46.853203 78.627398 
L 47.540783 78.516808 
L 48.228364 78.420042 
L 48.915944 78.364747 
L 49.603524 78.247245 
L 50.291105 78.102096 
L 50.978685 78.032977 
L 51.666265 77.956946 
L 52.353846 77.846356 
L 53.041428 77.639 
L 53.729007 77.493851 
L 54.416588 77.314142 
L 55.104169 77.19664 
L 55.791748 77.08605 
L 56.479329 76.97546 
L 57.16691 76.802663 
L 57.854489 76.64369 
L 58.54207 76.470893 
L 59.229649 76.298097 
L 59.91723 76.111476 
L 60.604811 75.959415 
L 61.29239 75.79353 
L 61.979971 75.655292 
L 62.66755 75.406464 
L 63.355131 75.233667 
L 64.042712 75.0194 
L 64.730291 74.805131 
L 65.417872 74.57704 
L 66.105453 74.342036 
L 66.793032 74.072473 
L 67.480613 73.851293 
L 68.168194 73.637025 
L 68.855775 73.415844 
L 69.543356 73.104811 
L 70.230937 72.821424 
L 70.918514 72.524213 
L 71.606095 72.240826 
L 72.293677 71.991999 
L 72.981258 71.791554 
L 73.668839 71.466695 
L 74.356416 71.072719 
L 75.043997 70.823892 
L 75.731578 70.505947 
L 76.419155 70.188 
L 77.106736 69.863142 
L 77.794317 69.503723 
L 78.481898 69.144307 
L 79.169479 68.75724 
L 79.85706 68.404736 
L 80.544641 67.955465 
L 81.232222 67.602957 
L 81.919803 67.174423 
L 82.60738 66.690592 
L 83.294961 66.24132 
L 83.982542 65.805871 
L 84.670123 65.308215 
L 85.357704 64.817473 
L 86.045285 64.28526 
L 86.732866 63.780693 
L 87.420443 63.11024 
L 88.108024 62.522731 
L 88.795605 61.838456 
L 89.483186 61.188739 
L 90.170767 60.449167 
L 90.858344 59.668125 
L 91.545926 58.976939 
L 92.233507 58.168249 
L 92.921084 57.345735 
L 93.608665 56.550872 
L 94.296246 55.666149 
L 94.983827 54.809078 
L 95.671408 53.896712 
L 96.358989 52.977433 
L 97.04657 51.850797 
L 97.734151 50.65504 
L 98.421732 49.307223 
L 99.109309 47.931765 
L 99.79689 46.162324 
L 100.484471 44.372148 
L 101.172052 42.298587 
L 101.859633 40.128257 
L 102.54721 36.87968 
L 103.234791 32.062095 
L 103.922372 10.421016 
" clip-path="url(#pe44a12c581)" style="fill: none; stroke: #fd8d3c; stroke-opacity: 0.5; stroke-width: 1.5; stroke-linecap: square"/>
   </g>
   <g id="line2d_11">
    <path d="M 35.851918 79.539766 
L 36.539498 79.539766 
L 37.227078 79.539766 
L 37.914659 79.539766 
L 38.602239 79.539766 
L 39.289819 79.532854 
L 39.9774 79.525942 
L 40.66498 79.525942 
L 41.35256 79.51903 
L 42.040141 79.505206 
L 42.727721 79.470647 
L 43.415302 79.470647 
L 44.102882 79.44286 
L 44.790462 79.422124 
L 45.478042 79.415212 
L 46.165623 79.415212 
L 46.853203 79.4083 
L 47.540783 79.394477 
L 48.228364 79.387565 
L 48.915944 79.366759 
L 49.603524 79.359847 
L 50.291105 79.325288 
L 50.978685 79.269923 
L 51.666265 79.249118 
L 52.353846 79.228382 
L 53.041428 79.186911 
L 53.729007 79.138528 
L 54.416588 79.103968 
L 55.104169 79.048604 
L 55.791748 79.020956 
L 56.479329 78.931032 
L 57.16691 78.896473 
L 57.854489 78.841178 
L 58.54207 78.81353 
L 59.229649 78.751323 
L 59.91723 78.696028 
L 60.604811 78.626909 
L 61.29239 78.571614 
L 61.979971 78.537055 
L 62.66755 78.460955 
L 63.355131 78.433307 
L 64.042712 78.378012 
L 64.730291 78.308893 
L 65.417872 78.246547 
L 66.105453 78.122063 
L 66.793032 78.025227 
L 67.480613 77.942285 
L 68.168194 77.852361 
L 68.855775 77.727877 
L 69.543356 77.637813 
L 70.230937 77.533996 
L 70.918514 77.423336 
L 71.606095 77.305764 
L 72.293677 77.222752 
L 72.981258 77.10525 
L 73.668839 76.99452 
L 74.356416 76.897684 
L 75.043997 76.794006 
L 75.731578 76.641945 
L 76.419155 76.51048 
L 77.106736 76.344595 
L 77.794317 76.240917 
L 78.481898 76.06812 
L 79.169479 75.881499 
L 79.85706 75.729298 
L 80.544641 75.577237 
L 81.232222 75.321358 
L 81.919803 75.127825 
L 82.60738 74.920469 
L 83.294961 74.588629 
L 83.982542 74.415833 
L 84.670123 74.166865 
L 85.357704 73.959439 
L 86.045285 73.765837 
L 86.732866 73.454594 
L 87.420443 73.198784 
L 88.108024 72.825472 
L 88.795605 72.514369 
L 89.483186 72.175617 
L 90.170767 71.78136 
L 90.858344 71.359528 
L 91.545926 70.944745 
L 92.233507 70.474667 
L 92.921084 70.032168 
L 93.608665 69.499884 
L 94.296246 68.863991 
L 94.983827 68.255608 
L 95.671408 67.612803 
L 96.358989 67.066624 
L 97.04657 66.244042 
L 97.734151 65.407496 
L 98.421732 64.446675 
L 99.109309 63.354389 
L 99.79689 62.165477 
L 100.484471 60.817592 
L 101.172052 58.868236 
L 101.859633 56.718572 
L 102.54721 53.580443 
L 103.234791 48.313102 
L 103.922372 10.421016 
" clip-path="url(#pe44a12c581)" style="fill: none; stroke: #fc4e2a; stroke-opacity: 0.5; stroke-width: 1.5; stroke-linecap: square"/>
   </g>
   <g id="line2d_12">
    <path d="M 35.851918 79.539766 
L 36.539498 79.539766 
L 37.227078 79.539766 
L 37.914659 79.539766 
L 38.602239 79.539766 
L 39.289819 79.539766 
L 39.9774 79.539766 
L 40.66498 79.539766 
L 41.35256 79.539766 
L 42.040141 79.539766 
L 42.727721 79.532854 
L 43.415302 79.532854 
L 44.102882 79.532854 
L 44.790462 79.532854 
L 45.478042 79.532854 
L 46.165623 79.532854 
L 46.853203 79.532854 
L 47.540783 79.532854 
L 48.228364 79.532854 
L 48.915944 79.532854 
L 49.603524 79.525942 
L 50.291105 79.525942 
L 50.978685 79.51903 
L 51.666265 79.512118 
L 52.353846 79.512118 
L 53.041428 79.512118 
L 53.729007 79.512118 
L 54.416588 79.512118 
L 55.104169 79.512118 
L 55.791748 79.512118 
L 56.479329 79.498294 
L 57.16691 79.491383 
L 57.854489 79.491383 
L 58.54207 79.491383 
L 59.229649 79.484471 
L 59.91723 79.477559 
L 60.604811 79.477559 
L 61.29239 79.477559 
L 61.979971 79.477559 
L 62.66755 79.470647 
L 63.355131 79.463735 
L 64.042712 79.463735 
L 64.730291 79.463735 
L 65.417872 79.463735 
L 66.105453 79.463735 
L 66.793032 79.456823 
L 67.480613 79.449911 
L 68.168194 79.449911 
L 68.855775 79.436088 
L 69.543356 79.429176 
L 70.230937 79.415352 
L 70.918514 79.401528 
L 71.606095 79.387704 
L 72.293677 79.380793 
L 72.981258 79.373881 
L 73.668839 79.353145 
L 74.356416 79.339321 
L 75.043997 79.332409 
L 75.731578 79.29785 
L 76.419155 79.270203 
L 77.106736 79.263291 
L 77.794317 79.235643 
L 78.481898 79.221819 
L 79.169479 79.201084 
L 79.85706 79.173436 
L 80.544641 79.166524 
L 81.232222 79.152701 
L 81.919803 79.131965 
L 82.60738 79.090494 
L 83.294961 79.069758 
L 83.982542 79.021375 
L 84.670123 78.96608 
L 85.357704 78.938432 
L 86.045285 78.869314 
L 86.732866 78.807107 
L 87.420443 78.724164 
L 88.108024 78.675781 
L 88.795605 78.585927 
L 89.483186 78.509896 
L 90.170767 78.426954 
L 90.858344 78.350923 
L 91.545926 78.19195 
L 92.233507 78.115919 
L 92.921084 78.026065 
L 93.608665 77.867092 
L 94.296246 77.770326 
L 94.983827 77.659736 
L 95.671408 77.549146 
L 96.358989 77.369437 
L 97.04657 77.099874 
L 97.734151 76.851046 
L 98.421732 76.560748 
L 99.109309 76.173683 
L 99.79689 75.717499 
L 100.484471 75.116166 
L 101.172052 74.300565 
L 101.859633 73.125546 
L 102.54721 71.363018 
L 103.234791 67.996934 
L 103.922372 10.421016 
" clip-path="url(#pe44a12c581)" style="fill: none; stroke: #e31a1c; stroke-opacity: 0.5; stroke-width: 1.5; stroke-linecap: square"/>
   </g>
   <g id="line2d_13">
    <path d="M 35.851918 79.539766 
L 36.539498 79.539766 
L 37.227078 79.539766 
L 37.914659 79.539766 
L 38.602239 79.539766 
L 39.289819 79.539766 
L 39.9774 79.539766 
L 40.66498 79.539766 
L 41.35256 79.539766 
L 42.040141 79.539766 
L 42.727721 79.539766 
L 43.415302 79.539766 
L 44.102882 79.539766 
L 44.790462 79.539766 
L 45.478042 79.539766 
L 46.165623 79.539766 
L 46.853203 79.532854 
L 47.540783 79.532854 
L 48.228364 79.532854 
L 48.915944 79.532854 
L 49.603524 79.532854 
L 50.291105 79.532854 
L 50.978685 79.532854 
L 51.666265 79.532854 
L 52.353846 79.532854 
L 53.041428 79.532854 
L 53.729007 79.532854 
L 54.416588 79.532854 
L 55.104169 79.532854 
L 55.791748 79.532854 
L 56.479329 79.532854 
L 57.16691 79.532854 
L 57.854489 79.532854 
L 58.54207 79.532854 
L 59.229649 79.532854 
L 59.91723 79.532854 
L 60.604811 79.532854 
L 61.29239 79.532854 
L 61.979971 79.532854 
L 62.66755 79.532854 
L 63.355131 79.532854 
L 64.042712 79.532854 
L 64.730291 79.532854 
L 65.417872 79.532854 
L 66.105453 79.525942 
L 66.793032 79.525942 
L 67.480613 79.51903 
L 68.168194 79.51903 
L 68.855775 79.51903 
L 69.543356 79.51903 
L 70.230937 79.512118 
L 70.918514 79.498294 
L 71.606095 79.498294 
L 72.293677 79.498294 
L 72.981258 79.484471 
L 73.668839 79.477559 
L 74.356416 79.470647 
L 75.043997 79.449911 
L 75.731578 79.422264 
L 76.419155 79.415352 
L 77.106736 79.401528 
L 77.794317 79.394616 
L 78.481898 79.380793 
L 79.169479 79.380793 
L 79.85706 79.366969 
L 80.544641 79.325498 
L 81.232222 79.29785 
L 81.919803 79.284026 
L 82.60738 79.277114 
L 83.294961 79.256379 
L 83.982542 79.242555 
L 84.670123 79.18726 
L 85.357704 79.166524 
L 86.045285 79.138877 
L 86.732866 79.104317 
L 87.420443 79.055934 
L 88.108024 79.035199 
L 88.795605 78.98624 
L 89.483186 78.944768 
L 90.170767 78.896385 
L 90.858344 78.827267 
L 91.545926 78.744324 
L 92.233507 78.689029 
L 92.921084 78.61991 
L 93.608665 78.557703 
L 94.296246 78.453737 
L 94.983827 78.384619 
L 95.671408 78.218734 
L 96.358989 78.05976 
L 97.04657 77.969906 
L 97.734151 77.734902 
L 98.421732 77.527258 
L 99.109309 77.285055 
L 99.79689 76.952997 
L 100.484471 76.55182 
L 101.172052 75.866968 
L 101.859633 74.947113 
L 102.54721 73.619457 
L 103.234791 70.543673 
L 103.922372 10.421016 
" clip-path="url(#pe44a12c581)" style="fill: none; stroke: #bd0026; stroke-opacity: 0.5; stroke-width: 1.5; stroke-linecap: square"/>
   </g>
   <g id="line2d_14">
    <path d="M 35.851918 79.539766 
L 36.539498 79.486365 
L 37.227078 79.444047 
L 37.914659 79.429941 
L 38.602239 79.421545 
L 39.289819 79.413149 
L 39.9774 79.406096 
L 40.66498 79.397699 
L 41.35256 79.376541 
L 42.040141 79.355382 
L 42.727721 79.346985 
L 43.415302 79.318774 
L 44.102882 79.297615 
L 44.790462 79.297615 
L 45.478042 79.297615 
L 46.165623 79.275113 
L 46.853203 79.253954 
L 47.540783 79.246901 
L 48.228364 79.239848 
L 48.915944 79.20324 
L 49.603524 79.189134 
L 50.291105 79.158235 
L 50.978685 79.14413 
L 51.666265 79.137077 
L 52.353846 79.108865 
L 53.041428 79.086363 
L 53.729007 79.07931 
L 54.416588 79.065204 
L 55.104169 79.058151 
L 55.791748 79.044045 
L 56.479329 79.029939 
L 57.16691 79.022886 
L 57.854489 79.015833 
L 58.54207 79.00878 
L 59.229649 78.994675 
L 59.91723 78.987622 
L 60.604811 78.980569 
L 61.29239 78.952357 
L 61.979971 78.936908 
L 62.66755 78.901643 
L 63.355131 78.887537 
L 64.042712 78.879141 
L 64.730291 78.850929 
L 65.417872 78.822717 
L 66.105453 78.76495 
L 66.793032 78.729686 
L 67.480613 78.686025 
L 68.168194 78.670576 
L 68.855775 78.642364 
L 69.543356 78.607099 
L 70.230937 78.570491 
L 70.918514 78.535226 
L 71.606095 78.521121 
L 72.293677 78.483169 
L 72.981258 78.469063 
L 73.668839 78.454957 
L 74.356416 78.404243 
L 75.043997 78.374688 
L 75.731578 78.275947 
L 76.419155 78.189969 
L 77.106736 78.132202 
L 77.794317 78.082831 
L 78.481898 78.032117 
L 79.169479 77.968641 
L 79.85706 77.905164 
L 80.544641 77.833292 
L 81.232222 77.761419 
L 81.919803 77.640176 
L 82.60738 77.576699 
L 83.294961 77.533038 
L 83.982542 77.480981 
L 84.670123 77.354028 
L 85.357704 77.253944 
L 86.045285 77.176362 
L 86.732866 77.02825 
L 87.420443 76.83379 
L 88.108024 76.70986 
L 88.795605 76.564771 
L 89.483186 76.442185 
L 90.170767 76.305492 
L 90.858344 76.119429 
L 91.545926 75.906498 
L 92.233507 75.727487 
L 92.921084 75.549821 
L 93.608665 75.358048 
L 94.296246 75.088694 
L 94.983827 74.877105 
L 95.671408 74.587935 
L 96.358989 74.270553 
L 97.04657 73.943431 
L 97.734151 73.534697 
L 98.421732 73.124284 
L 99.109309 72.65879 
L 99.79689 72.17516 
L 100.484471 71.430573 
L 101.172052 70.451895 
L 101.859633 69.144415 
L 102.54721 67.271357 
L 103.234791 63.317682 
L 103.922372 10.421016 
" clip-path="url(#pe44a12c581)" style="fill: none; stroke: #800026; stroke-opacity: 0.5; stroke-width: 1.5; stroke-linecap: square"/>
   </g>
   <g id="patch_3">
    <path d="M 35.851918 79.539766 
L 35.851918 10.421016 
" style="fill: none; stroke: #000000; stroke-width: 1.5; stroke-linejoin: miter; stroke-linecap: square"/>
   </g>
   <g id="patch_4">
    <path d="M 35.851918 79.539766 
L 103.922372 79.539766 
" style="fill: none; stroke: #000000; stroke-width: 1.5; stroke-linejoin: miter; stroke-linecap: square"/>
   </g>
  </g>
  <g id="axes_2">
   <g id="patch_5">
    <path d="M 139.497372 79.539766 
L 207.567827 79.539766 
L 207.567827 10.421016 
L 139.497372 10.421016 
L 139.497372 79.539766 
z
" style="fill: none"/>
   </g>
   <g id="matplotlib.axis_3">
    <g id="xtick_4">
     <g id="line2d_15">
      <g>
       <use xlink:href="#m995e495608" x="139.497372" y="79.539766" style="stroke: #000000; stroke-width: 1.5"/>
      </g>
     </g>
     <g id="text_8">
      <text style="font: 9px 'Arial'; text-anchor: middle" x="139.497372" y="92.981797" transform="rotate(-0, 139.497372, 92.981797)">0.0</text>
     </g>
    </g>
    <g id="xtick_5">
     <g id="line2d_16">
      <g>
       <use xlink:href="#m995e495608" x="173.532599" y="79.539766" style="stroke: #000000; stroke-width: 1.5"/>
      </g>
     </g>
     <g id="text_9">
      <text style="font: 9px 'Arial'; text-anchor: middle" x="173.532599" y="92.981797" transform="rotate(-0, 173.532599, 92.981797)">0.5</text>
     </g>
    </g>
    <g id="xtick_6">
     <g id="line2d_17">
      <g>
       <use xlink:href="#m995e495608" x="207.567827" y="79.539766" style="stroke: #000000; stroke-width: 1.5"/>
      </g>
     </g>
     <g id="text_10">
      <text style="font: 9px 'Arial'; text-anchor: middle" x="207.567827" y="92.981797" transform="rotate(-0, 207.567827, 92.981797)">1.0</text>
     </g>
    </g>
   </g>
   <g id="matplotlib.axis_4">
    <g id="ytick_4">
     <g id="line2d_18">
      <g>
       <use xlink:href="#m3e19cd2920" x="139.497372" y="79.539766" style="stroke: #000000; stroke-width: 1.5"/>
      </g>
     </g>
     <g id="text_11">
      <text style="font: 9px 'Arial'; text-anchor: end" x="132.497372" y="82.760781" transform="rotate(-0, 132.497372, 82.760781)">0.0</text>
     </g>
    </g>
    <g id="ytick_5">
     <g id="line2d_19">
      <g>
       <use xlink:href="#m3e19cd2920" x="139.497372" y="44.980391" style="stroke: #000000; stroke-width: 1.5"/>
      </g>
     </g>
     <g id="text_12">
      <text style="font: 9px 'Arial'; text-anchor: end" x="132.497372" y="48.201406" transform="rotate(-0, 132.497372, 48.201406)">0.5</text>
     </g>
    </g>
    <g id="ytick_6">
     <g id="line2d_20">
      <g>
       <use xlink:href="#m3e19cd2920" x="139.497372" y="10.421016" style="stroke: #000000; stroke-width: 1.5"/>
      </g>
     </g>
     <g id="text_13">
      <text style="font: 9px 'Arial'; text-anchor: end" x="132.497372" y="13.642031" transform="rotate(-0, 132.497372, 13.642031)">1.0</text>
     </g>
    </g>
   </g>
   <g id="line2d_21">
    <path d="M 139.497372 79.539766 
L 140.184953 78.841596 
L 140.872533 78.143427 
L 141.560113 77.445258 
L 142.247694 76.747089 
L 142.935274 76.04892 
L 143.622854 75.35075 
L 144.310434 74.652581 
L 144.998015 73.954412 
L 145.685595 73.256243 
L 146.373176 72.558074 
L 147.060756 71.859904 
L 147.748337 71.161735 
L 148.435917 70.463566 
L 149.123497 69.765397 
L 149.811078 69.067227 
L 150.498658 68.369059 
L 151.186238 67.67089 
L 151.873819 66.97272 
L 152.561399 66.274551 
L 153.248979 65.576382 
L 153.93656 64.878212 
L 154.62414 64.180043 
L 155.31172 63.481874 
L 155.999301 62.783705 
L 156.686882 62.085535 
L 157.374461 61.387367 
L 158.062042 60.689197 
L 158.749623 59.991027 
L 159.437202 59.292859 
L 160.124783 58.594689 
L 160.812364 57.896519 
L 161.499943 57.198352 
L 162.187524 56.500182 
L 162.875103 55.802014 
L 163.562684 55.103844 
L 164.250265 54.405674 
L 164.937844 53.707506 
L 165.625426 53.009336 
L 166.313005 52.311168 
L 167.000586 51.612998 
L 167.688167 50.914829 
L 168.375746 50.216661 
L 169.063327 49.518491 
L 169.750908 48.820321 
L 170.438487 48.122153 
L 171.126068 47.423983 
L 171.813649 46.725813 
L 172.50123 46.027643 
L 173.188811 45.329474 
L 173.876392 44.631304 
L 174.563969 43.933138 
L 175.25155 43.234968 
L 175.939131 42.536798 
L 176.626712 41.838628 
L 177.314293 41.140458 
L 178.00187 40.442292 
L 178.689451 39.744123 
L 179.377032 39.045953 
L 180.064609 38.347787 
L 180.75219 37.649617 
L 181.439771 36.951447 
L 182.127352 36.253277 
L 182.814933 35.555107 
L 183.502514 34.856937 
L 184.190095 34.158767 
L 184.877677 33.460598 
L 185.565258 32.762428 
L 186.252835 32.064262 
L 186.940416 31.366092 
L 187.627997 30.667922 
L 188.315578 29.969752 
L 189.003159 29.271582 
L 189.69074 28.573412 
L 190.378321 27.875243 
L 191.065898 27.177077 
L 191.753479 26.478907 
L 192.44106 25.780737 
L 193.128641 25.082567 
L 193.816222 24.384397 
L 194.503799 23.686231 
L 195.19138 22.988061 
L 195.878961 22.289892 
L 196.566538 21.591726 
L 197.254119 20.893556 
L 197.9417 20.195386 
L 198.629281 19.497216 
L 199.316862 18.799046 
L 200.004443 18.100876 
L 200.692024 17.402706 
L 201.379605 16.704536 
L 202.067186 16.006367 
L 202.754763 15.308201 
L 203.442344 14.610031 
L 204.129926 13.911861 
L 204.817507 13.213691 
L 205.505088 12.515521 
L 206.192665 11.817355 
L 206.880246 11.119186 
L 207.567827 10.421016 
" clip-path="url(#pb2d8805db9)" style="fill: none; stroke-dasharray: 4.8,1.2,0.75,1.2; stroke-dashoffset: 0; stroke: #1a1a1a; stroke-opacity: 0.8; stroke-width: 0.75"/>
   </g>
   <g id="line2d_22">
    <path d="M 139.497372 79.539766 
L 140.184953 77.74959 
L 140.872533 75.620733 
L 141.560113 73.809821 
L 142.247694 71.694787 
L 142.935274 69.717991 
L 143.622854 67.789578 
L 144.310434 65.861163 
L 144.998015 63.925838 
L 145.685595 62.294637 
L 146.373176 60.601229 
L 147.060756 59.17047 
L 147.748337 57.746625 
L 148.435917 56.41263 
L 149.123497 55.147759 
L 149.811078 53.772296 
L 150.498658 52.355359 
L 151.186238 51.277109 
L 151.873819 50.053706 
L 152.561399 48.933984 
L 153.248979 47.828082 
L 153.93656 46.611594 
L 154.62414 45.457309 
L 155.31172 44.358326 
L 155.999301 43.445955 
L 156.686882 42.443732 
L 157.374461 41.524456 
L 158.062042 40.681204 
L 158.749623 39.706632 
L 159.437202 38.725144 
L 160.124783 37.833512 
L 160.812364 36.941881 
L 161.499943 36.285251 
L 162.187524 35.338328 
L 162.875103 34.536549 
L 163.562684 33.727857 
L 164.250265 33.029757 
L 164.937844 32.33857 
L 165.625426 31.60591 
L 166.313005 30.990758 
L 167.000586 30.278836 
L 167.688167 29.677498 
L 168.375746 29.03469 
L 169.063327 28.543952 
L 169.750908 28.025562 
L 170.438487 27.541728 
L 171.126068 26.940403 
L 171.813649 26.442743 
L 172.50123 25.931266 
L 173.188811 25.309193 
L 173.876392 24.853004 
L 174.563969 24.369174 
L 175.25155 23.802406 
L 175.939131 23.436077 
L 176.626712 22.938426 
L 177.314293 22.475328 
L 178.00187 21.963847 
L 178.689451 21.521491 
L 179.377032 21.065298 
L 180.064609 20.719704 
L 180.75219 20.291171 
L 181.439771 19.945578 
L 182.127352 19.572336 
L 182.814933 19.164538 
L 183.502514 18.853502 
L 184.190095 18.48026 
L 184.877677 18.176141 
L 185.565258 17.754517 
L 186.252835 17.374366 
L 186.940416 17.049512 
L 187.627997 16.634797 
L 188.315578 16.372139 
L 189.003159 16.033467 
L 189.69074 15.763904 
L 190.378321 15.521977 
L 191.065898 15.231684 
L 191.753479 14.948295 
L 192.44106 14.720207 
L 193.128641 14.499035 
L 193.816222 14.277843 
L 194.503799 14.042838 
L 195.19138 13.787101 
L 195.878961 13.552095 
L 196.566538 13.317098 
L 197.254119 13.006057 
L 197.9417 12.826352 
L 198.629281 12.639725 
L 199.316862 12.480758 
L 200.004443 12.321779 
L 200.692024 12.183548 
L 201.379605 12.010747 
L 202.067186 11.858685 
L 202.754763 11.665149 
L 203.442344 11.533827 
L 204.129926 11.388686 
L 204.817507 11.312647 
L 205.505088 11.13985 
L 206.192665 10.939406 
L 206.880246 10.7597 
L 207.567827 10.421016 
" clip-path="url(#pb2d8805db9)" style="fill: none; stroke: #000000; stroke-width: 1.5; stroke-linecap: square"/>
   </g>
   <g id="line2d_23">
    <path d="M 139.497372 79.539766 
L 140.184953 77.791061 
L 140.872533 75.586173 
L 141.560113 73.692319 
L 142.247694 71.549639 
L 142.935274 69.683433 
L 143.622854 67.623693 
L 144.310434 65.674547 
L 144.998015 63.84981 
L 145.685595 62.052722 
L 146.373176 60.580492 
L 147.060756 59.011498 
L 147.748337 57.587652 
L 148.435917 56.336603 
L 149.123497 54.954227 
L 149.811078 53.613323 
L 150.498658 52.327718 
L 151.186238 50.986812 
L 151.873819 49.901649 
L 152.561399 48.719718 
L 153.248979 47.586169 
L 153.93656 46.383501 
L 154.62414 45.097896 
L 155.31172 44.261556 
L 155.999301 43.197128 
L 156.686882 42.243291 
L 157.374461 41.393134 
L 158.062042 40.529146 
L 158.749623 39.506188 
L 159.437202 38.573086 
L 160.124783 37.619246 
L 160.812364 36.741436 
L 161.499943 35.96731 
L 162.187524 35.186266 
L 162.875103 34.377578 
L 163.562684 33.624182 
L 164.250265 32.891517 
L 164.937844 32.172687 
L 165.625426 31.509148 
L 166.313005 30.935466 
L 167.000586 30.306484 
L 167.688167 29.615297 
L 168.375746 28.931019 
L 169.063327 28.288211 
L 169.750908 27.838939 
L 170.438487 27.444967 
L 171.126068 26.857455 
L 171.813649 26.332155 
L 172.50123 25.799939 
L 173.188811 25.27464 
L 173.876392 24.811546 
L 174.563969 24.389922 
L 175.25155 23.906089 
L 175.939131 23.422251 
L 176.626712 22.8693 
L 177.314293 22.309444 
L 178.00187 21.867081 
L 178.689451 21.480017 
L 179.377032 21.037658 
L 180.064609 20.664421 
L 180.75219 20.305001 
L 181.439771 19.911017 
L 182.127352 19.468658 
L 182.814933 19.129977 
L 183.502514 18.736001 
L 184.190095 18.397321 
L 184.877677 18.051723 
L 185.565258 17.650838 
L 186.252835 17.36054 
L 186.940416 16.911268 
L 187.627997 16.600236 
L 188.315578 16.309938 
L 189.003159 16.06111 
L 189.69074 15.770813 
L 190.378321 15.487424 
L 191.065898 15.162562 
L 191.753479 14.858438 
L 192.44106 14.685642 
L 193.128641 14.505932 
L 193.816222 14.236373 
L 194.503799 14.01519 
L 195.19138 13.724892 
L 195.878961 13.510626 
L 196.566538 13.324007 
L 197.254119 13.040622 
L 197.9417 12.826348 
L 198.629281 12.653555 
L 199.316862 12.501489 
L 200.004443 12.321784 
L 200.692024 12.169722 
L 201.379605 12.038395 
L 202.067186 11.837954 
L 202.754763 11.665158 
L 203.442344 11.540744 
L 204.129926 11.381769 
L 204.817507 11.319564 
L 205.505088 11.112207 
L 206.192665 10.953236 
L 206.880246 10.738969 
L 207.567827 10.421016 
" clip-path="url(#pb2d8805db9)" style="fill: none; stroke: #feb24c; stroke-opacity: 0.5; stroke-width: 1.5; stroke-linecap: square"/>
   </g>
   <g id="line2d_24">
    <path d="M 139.497372 79.539766 
L 140.184953 77.680471 
L 140.872533 75.551614 
L 141.560113 73.533348 
L 142.247694 71.473607 
L 142.935274 69.60049 
L 143.622854 67.450897 
L 144.310434 65.522485 
L 144.998015 63.870545 
L 145.685595 62.025075 
L 146.373176 60.393871 
L 147.060756 58.859438 
L 147.748337 57.331913 
L 148.435917 56.032479 
L 149.123497 54.850548 
L 149.811078 53.433616 
L 150.498658 52.078888 
L 151.186238 50.87622 
L 151.873819 49.694289 
L 152.561399 48.657509 
L 153.248979 47.482488 
L 153.93656 46.355855 
L 154.62414 45.132454 
L 155.31172 44.213173 
L 155.999301 43.155658 
L 156.686882 42.146525 
L 157.374461 41.275629 
L 158.062042 40.328701 
L 158.749623 39.333391 
L 159.437202 38.344994 
L 160.124783 37.439536 
L 160.812364 36.651583 
L 161.499943 35.82907 
L 162.187524 35.103322 
L 162.875103 34.225516 
L 163.562684 33.403007 
L 164.250265 32.780938 
L 164.937844 32.179596 
L 165.625426 31.626649 
L 166.313005 30.935462 
L 167.000586 30.168248 
L 167.688167 29.532353 
L 168.375746 28.931019 
L 169.063327 28.350424 
L 169.750908 27.797469 
L 170.438487 27.237609 
L 171.126068 26.698484 
L 171.813649 26.242299 
L 172.50123 25.654791 
L 173.188811 25.21934 
L 173.876392 24.721689 
L 174.563969 24.258587 
L 175.25155 23.629609 
L 175.939131 23.159602 
L 176.626712 22.765625 
L 177.314293 22.330175 
L 178.00187 21.860172 
L 178.689451 21.383252 
L 179.377032 21.01001 
L 180.064609 20.636769 
L 180.75219 20.263532 
L 181.439771 19.890282 
L 182.127352 19.482484 
L 182.814933 19.171451 
L 183.502514 18.832767 
L 184.190095 18.507908 
L 184.877677 18.037905 
L 185.565258 17.706138 
L 186.252835 17.277596 
L 186.940416 16.959651 
L 187.627997 16.62097 
L 188.315578 16.399791 
L 189.003159 16.081845 
L 189.69074 15.736252 
L 190.378321 15.487424 
L 191.065898 15.190214 
L 191.753479 14.941382 
L 192.44106 14.734033 
L 193.128641 14.485197 
L 193.816222 14.284756 
L 194.503799 13.994455 
L 195.19138 13.773279 
L 195.878961 13.538274 
L 196.566538 13.268711 
L 197.254119 13.006061 
L 197.9417 12.826352 
L 198.629281 12.667377 
L 199.316862 12.49458 
L 200.004443 12.328697 
L 200.692024 12.211192 
L 201.379605 12.003842 
L 202.067186 11.831041 
L 202.754763 11.665158 
L 203.442344 11.533831 
L 204.129926 11.37486 
L 204.817507 11.278086 
L 205.505088 11.119111 
L 206.192665 10.946315 
L 206.880246 10.759696 
L 207.567827 10.421016 
" clip-path="url(#pb2d8805db9)" style="fill: none; stroke: #fd8d3c; stroke-opacity: 0.5; stroke-width: 1.5; stroke-linecap: square"/>
   </g>
   <g id="line2d_25">
    <path d="M 139.497372 79.539766 
L 140.184953 77.687383 
L 140.872533 75.634557 
L 141.560113 73.554082 
L 142.247694 71.501256 
L 142.935274 69.476076 
L 143.622854 67.520015 
L 144.310434 65.605426 
L 144.998015 63.739221 
L 145.685595 61.879926 
L 146.373176 60.407697 
L 147.060756 58.735022 
L 147.748337 57.463236 
L 148.435917 56.025571 
L 149.123497 54.615547 
L 149.811078 53.475086 
L 150.498658 52.12036 
L 151.186238 50.917692 
L 151.873819 49.597523 
L 152.561399 48.374122 
L 153.248979 47.295872 
L 153.93656 46.25909 
L 154.62414 45.077156 
L 155.31172 44.095672 
L 155.999301 43.065805 
L 156.686882 42.056668 
L 157.374461 41.019888 
L 158.062042 40.142083 
L 158.749623 39.236625 
L 159.437202 38.358816 
L 160.124783 37.453362 
L 160.812364 36.547905 
L 161.499943 35.905101 
L 162.187524 35.117148 
L 162.875103 34.363752 
L 163.562684 33.596534 
L 164.250265 32.843143 
L 164.937844 32.075921 
L 165.625426 31.377821 
L 166.313005 30.714282 
L 167.000586 30.112948 
L 167.688167 29.539266 
L 168.375746 28.986315 
L 169.063327 28.419538 
L 169.750908 27.825117 
L 170.438487 27.348201 
L 171.126068 26.802159 
L 171.813649 26.249216 
L 172.50123 25.67553 
L 173.188811 25.219344 
L 173.876392 24.624923 
L 174.563969 24.189469 
L 175.25155 23.76094 
L 175.939131 23.235628 
L 176.626712 22.737977 
L 177.314293 22.26797 
L 178.00187 21.756493 
L 178.689451 21.383252 
L 179.377032 20.933983 
L 180.064609 20.62986 
L 180.75219 20.180588 
L 181.439771 19.821164 
L 182.127352 19.510132 
L 182.814933 19.088507 
L 183.502514 18.818945 
L 184.190095 18.404234 
L 184.877677 18.037901 
L 185.565258 17.671573 
L 186.252835 17.339801 
L 186.940416 17.008034 
L 187.627997 16.648614 
L 188.315578 16.36523 
L 189.003159 16.081845 
L 189.69074 15.777722 
L 190.378321 15.515064 
L 191.065898 15.217862 
L 191.753479 14.98286 
L 192.44106 14.727111 
L 193.128641 14.471375 
L 193.816222 14.222547 
L 194.503799 13.987546 
L 195.19138 13.731805 
L 195.878961 13.503717 
L 196.566538 13.282533 
L 197.254119 13.109736 
L 197.9417 12.840174 
L 198.629281 12.67429 
L 199.316862 12.529141 
L 200.004443 12.370166 
L 200.692024 12.190457 
L 201.379605 12.038395 
L 202.067186 11.851776 
L 202.754763 11.651332 
L 203.442344 11.513096 
L 204.129926 11.395595 
L 204.817507 11.285003 
L 205.505088 11.153681 
L 206.192665 10.960141 
L 206.880246 10.74587 
L 207.567827 10.421016 
" clip-path="url(#pb2d8805db9)" style="fill: none; stroke: #fc4e2a; stroke-opacity: 0.5; stroke-width: 1.5; stroke-linecap: square"/>
   </g>
   <g id="line2d_26">
    <path d="M 139.497372 79.539766 
L 140.184953 77.680471 
L 140.872533 75.703675 
L 141.560113 73.478052 
L 142.247694 71.549639 
L 142.935274 69.614314 
L 143.622854 67.533839 
L 144.310434 65.826607 
L 144.998015 63.849811 
L 145.685595 62.142577 
L 146.373176 60.532111 
L 147.060756 58.990763 
L 147.748337 57.594563 
L 148.435917 56.170719 
L 149.123497 54.926579 
L 149.811078 53.495821 
L 150.498658 52.175656 
L 151.186238 51.17343 
L 151.873819 49.874001 
L 152.561399 48.705891 
L 153.248979 47.503228 
L 153.93656 46.411149 
L 154.62414 45.208485 
L 155.31172 44.185529 
L 155.999301 43.079627 
L 156.686882 42.194908 
L 157.374461 41.296364 
L 158.062042 40.439289 
L 158.749623 39.568397 
L 159.437202 38.78044 
L 160.124783 37.888808 
L 160.812364 36.817467 
L 161.499943 36.029514 
L 162.187524 35.234653 
L 162.875103 34.4467 
L 163.562684 33.638008 
L 164.250265 32.877704 
L 164.937844 32.234892 
L 165.625426 31.516061 
L 166.313005 30.914727 
L 167.000586 30.320306 
L 167.688167 29.746624 
L 168.375746 29.193673 
L 169.063327 28.578517 
L 169.750908 28.025562 
L 170.438487 27.458789 
L 171.126068 26.961129 
L 171.813649 26.43583 
L 172.50123 25.896705 
L 173.188811 25.454346 
L 173.876392 24.935956 
L 174.563969 24.438296 
L 175.25155 24.016672 
L 175.939131 23.422251 
L 176.626712 22.972983 
L 177.314293 22.523711 
L 178.00187 22.067525 
L 178.689451 21.652814 
L 179.377032 21.224281 
L 180.064609 20.795744 
L 180.75219 20.360297 
L 181.439771 19.931752 
L 182.127352 19.627632 
L 182.814933 19.212921 
L 183.502514 18.83968 
L 184.190095 18.507908 
L 184.877677 18.259081 
L 185.565258 17.899665 
L 186.252835 17.484954 
L 186.940416 17.167004 
L 187.627997 16.849063 
L 188.315578 16.551849 
L 189.003159 16.240816 
L 189.69074 15.94361 
L 190.378321 15.618751 
L 191.065898 15.328454 
L 191.753479 15.045065 
L 192.44106 14.830799 
L 193.128641 14.554319 
L 193.816222 14.27093 
L 194.503799 14.07049 
L 195.19138 13.814749 
L 195.878961 13.572835 
L 196.566538 13.317094 
L 197.254119 13.068266 
L 197.9417 12.874735 
L 198.629281 12.667377 
L 199.316862 12.53605 
L 200.004443 12.363253 
L 200.692024 12.19737 
L 201.379605 12.045312 
L 202.067186 11.900159 
L 202.754763 11.706628 
L 203.442344 11.49927 
L 204.129926 11.395595 
L 204.817507 11.319564 
L 205.505088 11.146759 
L 206.192665 10.96705 
L 206.880246 10.759696 
L 207.567827 10.421016 
" clip-path="url(#pb2d8805db9)" style="fill: none; stroke: #e31a1c; stroke-opacity: 0.5; stroke-width: 1.5; stroke-linecap: square"/>
   </g>
   <g id="line2d_27">
    <path d="M 139.497372 79.539766 
L 140.184953 78.026065 
L 140.872533 76.208242 
L 141.560113 74.369683 
L 142.247694 72.690098 
L 142.935274 71.045072 
L 143.622854 69.234161 
L 144.310434 67.672076 
L 144.998015 65.944106 
L 145.685595 64.478792 
L 146.373176 62.895971 
L 147.060756 61.347712 
L 147.748337 59.834011 
L 148.435917 58.417076 
L 149.123497 57.152204 
L 149.811078 55.942625 
L 150.498658 54.684665 
L 151.186238 53.634062 
L 151.873819 52.486688 
L 152.561399 51.277109 
L 153.248979 50.171211 
L 153.93656 49.086046 
L 154.62414 48.111473 
L 155.31172 47.012483 
L 155.999301 45.934231 
L 156.686882 44.786859 
L 157.374461 43.736257 
L 158.062042 42.86536 
L 158.749623 41.918429 
L 159.437202 41.095919 
L 160.124783 40.301053 
L 160.812364 39.457805 
L 161.499943 38.573086 
L 162.187524 37.78513 
L 162.875103 36.934968 
L 163.562684 36.070984 
L 164.250265 35.476567 
L 164.937844 34.605671 
L 165.625426 33.900658 
L 166.313005 33.27168 
L 167.000586 32.628876 
L 167.688167 31.951507 
L 168.375746 31.274142 
L 169.063327 30.74193 
L 169.750908 30.112952 
L 170.438487 29.48397 
L 171.126068 28.875727 
L 171.813649 28.426455 
L 172.50123 27.908061 
L 173.188811 27.327466 
L 173.876392 26.809072 
L 174.563969 26.297594 
L 175.25155 25.737734 
L 175.939131 25.31611 
L 176.626712 24.887577 
L 177.314293 24.403735 
L 178.00187 23.913002 
L 178.689451 23.373868 
L 179.377032 22.855478 
L 180.064609 22.426945 
L 180.75219 21.977673 
L 181.439771 21.556048 
L 182.127352 21.086037 
L 182.814933 20.657504 
L 183.502514 20.249706 
L 184.190095 19.862634 
L 184.877677 19.44101 
L 185.565258 19.026298 
L 186.252835 18.694531 
L 186.940416 18.362764 
L 187.627997 17.906578 
L 188.315578 17.58172 
L 189.003159 17.291418 
L 189.69074 17.021856 
L 190.378321 16.669349 
L 191.065898 16.337582 
L 191.753479 16.040371 
L 192.44106 15.708596 
L 193.128641 15.28698 
L 193.816222 15.017409 
L 194.503799 14.664907 
L 195.19138 14.485197 
L 195.878961 14.236369 
L 196.566538 13.959894 
L 197.254119 13.738718 
L 197.9417 13.517539 
L 198.629281 13.282533 
L 199.316862 13.089001 
L 200.004443 12.89547 
L 200.692024 12.625907 
L 201.379605 12.390906 
L 202.067186 12.162813 
L 202.754763 11.907064 
L 203.442344 11.755011 
L 204.129926 11.575293 
L 204.817507 11.409417 
L 205.505088 11.250438 
L 206.192665 11.063824 
L 206.880246 10.84264 
L 207.567827 10.421016 
" clip-path="url(#pb2d8805db9)" style="fill: none; stroke: #bd0026; stroke-opacity: 0.5; stroke-width: 1.5; stroke-linecap: square"/>
   </g>
   <g id="line2d_28">
    <path d="M 139.497372 79.539766 
L 140.184953 79.062846 
L 140.872533 78.392395 
L 141.560113 77.721942 
L 142.247694 76.885606 
L 142.935274 76.035445 
L 143.622854 75.247491 
L 144.310434 74.300565 
L 144.998015 73.422757 
L 145.685595 72.468918 
L 146.373176 71.563462 
L 147.060756 70.713301 
L 147.748337 69.835494 
L 148.435917 68.90239 
L 149.123497 67.810314 
L 149.811078 66.918683 
L 150.498658 65.868078 
L 151.186238 64.893504 
L 151.873819 63.953488 
L 152.561399 63.013473 
L 153.248979 62.184049 
L 153.93656 61.271681 
L 154.62414 60.131222 
L 155.31172 59.211942 
L 155.999301 58.389431 
L 156.686882 57.477062 
L 157.374461 56.599255 
L 158.062042 55.659238 
L 158.749623 54.739961 
L 159.437202 53.841414 
L 160.124783 53.018902 
L 160.812364 52.148006 
L 161.499943 51.284022 
L 162.187524 50.551363 
L 162.875103 49.79797 
L 163.562684 48.975456 
L 164.250265 48.11147 
L 164.937844 47.323516 
L 165.625426 46.369679 
L 166.313005 45.547166 
L 167.000586 44.68318 
L 167.688167 44.047289 
L 168.375746 43.293893 
L 169.063327 42.512854 
L 169.750908 41.807841 
L 170.438487 41.102828 
L 171.126068 40.197375 
L 171.813649 39.520014 
L 172.50123 38.870297 
L 173.188811 38.075431 
L 173.876392 37.453362 
L 174.563969 36.727614 
L 175.25155 36.029514 
L 175.939131 35.352154 
L 176.626712 34.654054 
L 177.314293 33.983602 
L 178.00187 33.285502 
L 178.689451 32.532102 
L 179.377032 31.792532 
L 180.064609 31.128993 
L 180.75219 30.423985 
L 181.439771 29.781177 
L 182.127352 29.131468 
L 182.814933 28.488656 
L 183.502514 27.949531 
L 184.190095 27.341288 
L 184.877677 26.781428 
L 185.565258 26.187003 
L 186.252835 25.585673 
L 186.940416 25.074196 
L 187.627997 24.528158 
L 188.315578 23.947554 
L 189.003159 23.436077 
L 189.69074 22.876217 
L 190.378321 22.344001 
L 191.065898 21.936203 
L 191.753479 21.348691 
L 192.44106 20.892505 
L 193.128641 20.401767 
L 193.816222 19.911017 
L 194.503799 19.489393 
L 195.19138 18.936446 
L 195.878961 18.466438 
L 196.566538 18.010253 
L 197.254119 17.588633 
L 197.9417 17.153183 
L 198.629281 16.66244 
L 199.316862 16.268464 
L 200.004443 15.756987 
L 200.692024 15.252415 
L 201.379605 14.782407 
L 202.067186 14.27093 
L 202.754763 13.759453 
L 203.442344 13.337829 
L 204.129926 12.867822 
L 204.817507 12.45311 
L 205.505088 12.031486 
L 206.192665 11.59604 
L 206.880246 11.160589 
L 207.567827 10.421016 
" clip-path="url(#pb2d8805db9)" style="fill: none; stroke: #800026; stroke-opacity: 0.5; stroke-width: 1.5; stroke-linecap: square"/>
   </g>
   <g id="patch_6">
    <path d="M 139.497372 79.539766 
L 139.497372 10.421016 
" style="fill: none; stroke: #000000; stroke-width: 1.5; stroke-linejoin: miter; stroke-linecap: square"/>
   </g>
   <g id="patch_7">
    <path d="M 139.497372 79.539766 
L 207.567827 79.539766 
" style="fill: none; stroke: #000000; stroke-width: 1.5; stroke-linejoin: miter; stroke-linecap: square"/>
   </g>
  </g>
  <g id="legend_1">
   <g id="text_14">
    <!-- Tolerance $\epsilon$ -->
    <g transform="translate(108.072827 110.982703)">
     <text>
      <tspan style="font: 9px 'Arial'" x="0 5.497559 10.50293 12.502441 17.507812 20.504883 25.510254 30.515625 35.015625 40.020996 42.521484" y="-0.5625">Tolerance ε</tspan>
     </text>
    </g>
   </g>
   <g id="line2d_29">
    <path d="M 28.962827 120.563484 
L 37.962827 120.563484 
L 46.962827 120.563484 
" style="fill: none; stroke: #000000; stroke-width: 1.5; stroke-linecap: square"/>
   </g>
   <g id="text_15">
    <text style="font: 9px 'Arial'; text-anchor: start" x="54.162827" y="123.713484" transform="rotate(-0, 54.162827, 123.713484)">0</text>
   </g>
   <g id="line2d_30">
    <path d="M 28.962827 133.294266 
L 37.962827 133.294266 
L 46.962827 133.294266 
" style="fill: none; stroke: #feb24c; stroke-opacity: 0.5; stroke-width: 1.5; stroke-linecap: square"/>
   </g>
   <g id="text_16">
    <text style="font: 9px 'Arial'; text-anchor: start" x="54.162827" y="136.444266" transform="rotate(-0, 54.162827, 136.444266)">0.1</text>
   </g>
   <g id="line2d_31">
    <path d="M 84.672827 120.563484 
L 93.672827 120.563484 
L 102.672827 120.563484 
" style="fill: none; stroke: #fd8d3c; stroke-opacity: 0.5; stroke-width: 1.5; stroke-linecap: square"/>
   </g>
   <g id="text_17">
    <text style="font: 9px 'Arial'; text-anchor: start" x="109.872827" y="123.713484" transform="rotate(-0, 109.872827, 123.713484)">0.2</text>
   </g>
   <g id="line2d_32">
    <path d="M 84.672827 133.294266 
L 93.672827 133.294266 
L 102.672827 133.294266 
" style="fill: none; stroke: #fc4e2a; stroke-opacity: 0.5; stroke-width: 1.5; stroke-linecap: square"/>
   </g>
   <g id="text_18">
    <text style="font: 9px 'Arial'; text-anchor: start" x="109.872827" y="136.444266" transform="rotate(-0, 109.872827, 136.444266)">0.3</text>
   </g>
   <g id="line2d_33">
    <path d="M 140.382827 120.563484 
L 149.382827 120.563484 
L 158.382827 120.563484 
" style="fill: none; stroke: #e31a1c; stroke-opacity: 0.5; stroke-width: 1.5; stroke-linecap: square"/>
   </g>
   <g id="text_19">
    <text style="font: 9px 'Arial'; text-anchor: start" x="165.582827" y="123.713484" transform="rotate(-0, 165.582827, 123.713484)">0.5</text>
   </g>
   <g id="line2d_34">
    <path d="M 140.382827 133.294266 
L 149.382827 133.294266 
L 158.382827 133.294266 
" style="fill: none; stroke: #bd0026; stroke-opacity: 0.5; stroke-width: 1.5; stroke-linecap: square"/>
   </g>
   <g id="text_20">
    <text style="font: 9px 'Arial'; text-anchor: start" x="165.582827" y="136.444266" transform="rotate(-0, 165.582827, 136.444266)">1.0</text>
   </g>
   <g id="line2d_35">
    <path d="M 196.092827 120.563484 
L 205.092827 120.563484 
L 214.092827 120.563484 
" style="fill: none; stroke: #800026; stroke-opacity: 0.5; stroke-width: 1.5; stroke-linecap: square"/>
   </g>
   <g id="text_21">
    <text style="font: 9px 'Arial'; text-anchor: start" x="221.292827" y="123.713484" transform="rotate(-0, 221.292827, 123.713484)">2.0</text>
   </g>
  </g>
 </g>
 <defs>
  <clipPath id="pe44a12c581">
   <rect x="35.851918" y="10.421016" width="68.070455" height="69.11875"/>
  </clipPath>
  <clipPath id="pb2d8805db9">
   <rect x="139.497372" y="10.421016" width="68.070455" height="69.11875"/>
  </clipPath>
 </defs>
</svg>
