<?xml version="1.0" encoding="utf-8" standalone="no"?>
<!DOCTYPE svg PUBLIC "-//W3C//DTD SVG 1.1//EN"
  "http://www.w3.org/Graphics/SVG/1.1/DTD/svg11.dtd">
<svg xmlns:xlink="http://www.w3.org/1999/xlink" width="245.086928pt" height="149.070984pt" viewBox="0 0 245.086928 149.070984" xmlns="http://www.w3.org/2000/svg" version="1.1">
 <metadata>
  <rdf:RDF xmlns:dc="http://purl.org/dc/elements/1.1/" xmlns:cc="http://creativecommons.org/ns#" xmlns:rdf="http://www.w3.org/1999/02/22-rdf-syntax-ns#">
   <cc:Work>
    <dc:type rdf:resource="http://purl.org/dc/dcmitype/StillImage"/>
    <dc:date>2023-05-12T11:38:29.137606</dc:date>
    <dc:format>image/svg+xml</dc:format>
    <dc:creator>
     <cc:Agent>
      <dc:title>Matplotlib v3.5.0, https://matplotlib.org/</dc:title>
     </cc:Agent>
    </dc:creator>
   </cc:Work>
  </rdf:RDF>
 </metadata>
 <defs>
  <style type="text/css">*{stroke-linejoin: round; stroke-linecap: butt}</style>
 </defs>
 <g id="figure_1">
  <g id="patch_1">
   <path d="M 0 149.070984 
L 245.086928 149.070984 
L 245.086928 0 
L 0 0 
L 0 149.070984 
z
" style="fill: none"/>
  </g>
  <g id="axes_1">
   <g id="patch_2">
    <path d="M 35.9268 80.571953 
L 104.246864 80.571953 
L 104.246864 10.421016 
L 35.9268 10.421016 
L 35.9268 80.571953 
z
" style="fill: none"/>
   </g>
   <g id="matplotlib.axis_1">
    <g id="xtick_1">
     <g id="line2d_1">
      <defs>
       <path id="mcef21a8e8f" d="M 0 0 
L 0 3.5 
" style="stroke: #000000; stroke-width: 1.5"/>
      </defs>
      <g>
       <use xlink:href="#mcef21a8e8f" x="35.9268" y="80.571953" style="stroke: #000000; stroke-width: 1.5"/>
      </g>
     </g>
     <g id="text_1">
      <text style="font: 9px 'Arial'; text-anchor: middle" x="35.9268" y="94.013984" transform="rotate(-0, 35.9268, 94.013984)">0.0</text>
     </g>
    </g>
    <g id="xtick_2">
     <g id="line2d_2">
      <g>
       <use xlink:href="#mcef21a8e8f" x="70.086832" y="80.571953" style="stroke: #000000; stroke-width: 1.5"/>
      </g>
     </g>
     <g id="text_2">
      <text style="font: 9px 'Arial'; text-anchor: middle" x="70.086832" y="94.013984" transform="rotate(-0, 70.086832, 94.013984)">0.5</text>
     </g>
    </g>
    <g id="xtick_3">
     <g id="line2d_3">
      <g>
       <use xlink:href="#mcef21a8e8f" x="104.246864" y="80.571953" style="stroke: #000000; stroke-width: 1.5"/>
      </g>
     </g>
     <g id="text_3">
      <text style="font: 9px 'Arial'; text-anchor: middle" x="104.246864" y="94.013984" transform="rotate(-0, 104.246864, 94.013984)">1.0</text>
     </g>
    </g>
   </g>
   <g id="matplotlib.axis_2">
    <g id="ytick_1">
     <g id="line2d_4">
      <defs>
       <path id="m33c7a0b5c7" d="M 0 0 
L -3.5 0 
" style="stroke: #000000; stroke-width: 1.5"/>
      </defs>
      <g>
       <use xlink:href="#m33c7a0b5c7" x="35.9268" y="80.571953" style="stroke: #000000; stroke-width: 1.5"/>
      </g>
     </g>
     <g id="text_4">
      <text style="font: 9px 'Arial'; text-anchor: end" x="28.9268" y="83.792969" transform="rotate(-0, 28.9268, 83.792969)">0.0</text>
     </g>
    </g>
    <g id="ytick_2">
     <g id="line2d_5">
      <g>
       <use xlink:href="#m33c7a0b5c7" x="35.9268" y="45.496484" style="stroke: #000000; stroke-width: 1.5"/>
      </g>
     </g>
     <g id="text_5">
      <text style="font: 9px 'Arial'; text-anchor: end" x="28.9268" y="48.7175" transform="rotate(-0, 28.9268, 48.7175)">0.5</text>
     </g>
    </g>
    <g id="ytick_3">
     <g id="line2d_6">
      <g>
       <use xlink:href="#m33c7a0b5c7" x="35.9268" y="10.421016" style="stroke: #000000; stroke-width: 1.5"/>
      </g>
     </g>
     <g id="text_6">
      <text style="font: 9px 'Arial'; text-anchor: end" x="28.9268" y="13.642031" transform="rotate(-0, 28.9268, 13.642031)">1.0</text>
     </g>
    </g>
    <g id="text_7">
     <text style="font: 9px 'Arial'; text-anchor: middle" x="13.642031" y="45.496484" transform="rotate(-90, 13.642031, 45.496484)">L2PGD</text>
    </g>
   </g>
   <g id="line2d_7">
    <path d="M 35.9268 80.571953 
L 36.616902 79.863358 
L 37.307004 79.154762 
L 37.997105 78.446167 
L 38.687207 77.737572 
L 39.377309 77.028977 
L 40.06741 76.320381 
L 40.757512 75.611786 
L 41.447614 74.903191 
L 42.137716 74.194595 
L 42.827817 73.486 
L 43.517919 72.777404 
L 44.208021 72.068809 
L 44.898122 71.360214 
L 45.588223 70.651619 
L 46.278326 69.943023 
L 46.968427 69.234428 
L 47.658528 68.525833 
L 48.348631 67.817237 
L 49.038732 67.108642 
L 49.728833 66.400047 
L 50.418936 65.691451 
L 51.109037 64.982856 
L 51.799138 64.274261 
L 52.489241 63.565665 
L 53.179343 62.857069 
L 53.869443 62.148475 
L 54.559546 61.439879 
L 55.249648 60.731283 
L 55.939748 60.022689 
L 56.629851 59.314093 
L 57.319953 58.605497 
L 58.010053 57.896903 
L 58.700156 57.188307 
L 59.390256 56.479713 
L 60.080358 55.771117 
L 60.770461 55.062521 
L 61.460561 54.353927 
L 62.150663 53.645331 
L 62.840764 52.936737 
L 63.530866 52.228141 
L 64.220968 51.519544 
L 64.911069 50.810951 
L 65.601171 50.102354 
L 66.291274 49.393758 
L 66.981374 48.685164 
L 67.671476 47.976568 
L 68.361579 47.267972 
L 69.051681 46.559376 
L 69.741783 45.85078 
L 70.431886 45.142184 
L 71.121984 44.433592 
L 71.812086 43.724996 
L 72.502189 43.0164 
L 73.192291 42.307804 
L 73.882393 41.599208 
L 74.572492 40.890616 
L 75.262594 40.18202 
L 75.952696 39.473424 
L 76.642795 38.764832 
L 77.332897 38.056236 
L 78.022999 37.34764 
L 78.713102 36.639044 
L 79.403204 35.930448 
L 80.093306 35.221852 
L 80.783409 34.513256 
L 81.473511 33.80466 
L 82.163613 33.096064 
L 82.853712 32.387472 
L 83.543814 31.678876 
L 84.233916 30.97028 
L 84.924019 30.261684 
L 85.614121 29.553088 
L 86.304223 28.844492 
L 86.994326 28.135896 
L 87.684424 27.427304 
L 88.374526 26.718708 
L 89.064629 26.010112 
L 89.754731 25.301516 
L 90.444834 24.59292 
L 91.134932 23.884328 
L 91.825034 23.175732 
L 92.515137 22.467136 
L 93.205235 21.758544 
L 93.895337 21.049948 
L 94.58544 20.341352 
L 95.275542 19.632756 
L 95.965644 18.92416 
L 96.655747 18.215564 
L 97.345849 17.506968 
L 98.035951 16.798372 
L 98.726054 16.089776 
L 99.416152 15.381184 
L 100.106254 14.672588 
L 100.796357 13.963992 
L 101.486459 13.255396 
L 102.176561 12.5468 
L 102.86666 11.838208 
L 103.556762 11.129612 
L 104.246864 10.421016 
" clip-path="url(#p8fe792ccb8)" style="fill: none; stroke-dasharray: 4.8,1.2,0.75,1.2; stroke-dashoffset: 0; stroke: #1a1a1a; stroke-opacity: 0.8; stroke-width: 0.75"/>
   </g>
   <g id="line2d_8">
    <path d="M 35.9268 80.571953 
L 36.616902 80.340455 
L 37.307004 79.982685 
L 37.997105 79.568795 
L 38.687207 79.154904 
L 39.377309 78.691908 
L 40.06741 78.046519 
L 40.757512 77.394116 
L 41.447614 76.853954 
L 42.137716 76.327822 
L 42.827817 75.640342 
L 43.517919 75.205407 
L 44.208021 74.609123 
L 44.898122 73.977765 
L 45.588223 73.255211 
L 46.278326 72.553701 
L 46.968427 71.817117 
L 47.658528 71.234864 
L 48.348631 70.5544 
L 49.038732 69.803785 
L 49.728833 69.032125 
L 50.418936 68.534052 
L 51.109037 67.818513 
L 51.799138 67.067898 
L 52.489241 66.275192 
L 53.179343 65.629805 
L 53.869443 64.872174 
L 54.559546 64.142606 
L 55.249648 63.427065 
L 55.939748 62.648389 
L 56.629851 61.897775 
L 57.319953 61.133129 
L 58.010053 60.403559 
L 58.700156 59.666975 
L 59.390256 58.930389 
L 60.080358 58.193806 
L 60.770461 57.359011 
L 61.460561 56.657502 
L 62.150663 55.9139 
L 62.840764 55.205377 
L 63.530866 54.489838 
L 64.220968 53.795342 
L 64.911069 53.100849 
L 65.601171 52.343219 
L 66.291274 51.627678 
L 66.981374 51.052439 
L 67.671476 50.336902 
L 68.361579 49.600314 
L 69.051681 48.856716 
L 69.741783 48.028935 
L 70.431886 47.404591 
L 71.121984 46.583827 
L 71.812086 45.805152 
L 72.502189 45.152746 
L 73.192291 44.367055 
L 73.882393 43.644502 
L 74.572492 42.879859 
L 75.262594 42.108201 
L 75.952696 41.245339 
L 76.642795 40.599952 
L 77.332897 39.814261 
L 78.022999 39.007525 
L 78.713102 38.256911 
L 79.403204 37.54839 
L 80.093306 36.853889 
L 80.783409 36.194474 
L 81.473511 35.331616 
L 82.163613 34.784436 
L 82.853712 34.005765 
L 83.543814 33.332317 
L 84.233916 32.658861 
L 84.924019 31.90123 
L 85.614121 31.297937 
L 86.304223 30.631501 
L 86.994326 29.845814 
L 87.684424 29.16535 
L 88.374526 28.583092 
L 89.064629 27.944717 
L 89.754731 27.34142 
L 90.444834 26.576777 
L 91.134932 25.896313 
L 91.825034 25.293019 
L 92.515137 24.612555 
L 93.205235 23.904026 
L 93.895337 23.16744 
L 94.58544 22.402798 
L 95.275542 21.7995 
L 95.965644 21.119036 
L 96.655747 20.354385 
L 97.345849 19.708994 
L 98.035951 19.098688 
L 98.726054 18.439269 
L 99.416152 17.744776 
L 100.106254 17.043268 
L 100.796357 16.215487 
L 101.486459 15.317548 
L 102.176561 14.447683 
L 102.86666 13.472586 
L 103.556762 12.483457 
L 104.246864 10.421016 
" clip-path="url(#p8fe792ccb8)" style="fill: none; stroke: #000000; stroke-width: 1.5; stroke-linecap: square"/>
   </g>
   <g id="line2d_9">
    <path d="M 35.9268 80.571953 
L 36.616902 80.508817 
L 37.307004 80.354485 
L 37.997105 80.158063 
L 38.687207 79.96164 
L 39.377309 79.645961 
L 40.06741 79.351327 
L 40.757512 79.056693 
L 41.447614 78.755044 
L 42.137716 78.376229 
L 42.827817 78.014159 
L 43.517919 77.617015 
L 44.208021 77.287306 
L 44.898122 76.950581 
L 45.588223 76.445494 
L 46.278326 75.968468 
L 46.968427 75.533532 
L 47.658528 75.143403 
L 48.348631 74.697152 
L 49.038732 74.346397 
L 49.728833 73.974597 
L 50.418936 73.574737 
L 51.109037 73.048605 
L 51.799138 72.599639 
L 52.489241 72.020101 
L 53.179343 71.56412 
L 53.869443 71.080079 
L 54.559546 70.582007 
L 55.249648 70.076921 
L 55.939748 69.557804 
L 56.629851 69.150928 
L 57.319953 68.723008 
L 58.010053 68.154786 
L 58.700156 67.663729 
L 59.390256 67.193717 
L 60.080358 66.646541 
L 60.770461 66.085331 
L 61.460561 65.459406 
L 62.150663 64.891182 
L 62.840764 64.252809 
L 63.530866 63.61715 
L 64.220968 63.140125 
L 64.911069 62.522795 
L 65.601171 61.989649 
L 66.291274 61.344262 
L 66.981374 60.804098 
L 67.671476 60.14038 
L 68.361579 59.600218 
L 69.051681 58.96886 
L 69.741783 58.29541 
L 70.431886 57.762264 
L 71.121984 57.144936 
L 71.812086 56.481218 
L 72.502189 55.779711 
L 73.192291 55.176409 
L 73.882393 54.566097 
L 74.572492 54.053992 
L 75.262594 53.450694 
L 75.952696 52.875459 
L 76.642795 52.265147 
L 77.332897 51.451393 
L 78.022999 50.65869 
L 78.713102 50.090469 
L 79.403204 49.557321 
L 80.093306 48.996111 
L 80.783409 48.217438 
L 81.473511 47.500314 
L 82.163613 46.805821 
L 82.853712 46.020128 
L 83.543814 45.370443 
L 84.233916 44.711023 
L 84.924019 43.98847 
L 85.614121 43.195762 
L 86.304223 42.424099 
L 86.994326 41.722591 
L 87.684424 40.964964 
L 88.374526 40.109119 
L 89.064629 39.260294 
L 89.754731 38.250124 
L 90.444834 37.450396 
L 91.134932 36.573515 
L 91.825034 35.710657 
L 92.515137 34.798694 
L 93.205235 33.851654 
L 93.895337 33.022289 
L 94.58544 32.155137 
L 95.275542 31.137947 
L 95.965644 30.17258 
L 96.655747 29.09226 
L 97.345849 28.00492 
L 98.035951 26.955367 
L 98.726054 25.814618 
L 99.416152 24.693338 
L 100.106254 23.440355 
L 100.796357 22.105895 
L 101.486459 20.864226 
L 102.176561 19.412103 
L 102.86666 17.586597 
L 103.556762 15.446994 
L 104.246864 10.421016 
" clip-path="url(#p8fe792ccb8)" style="fill: none; stroke: #feb24c; stroke-opacity: 0.5; stroke-width: 1.5; stroke-linecap: square"/>
   </g>
   <g id="line2d_10">
    <path d="M 35.9268 80.571953 
L 36.616902 80.536878 
L 37.307004 80.515832 
L 37.997105 80.473742 
L 38.687207 80.403591 
L 39.377309 80.326425 
L 40.06741 80.242244 
L 40.757512 80.169628 
L 41.447614 80.050371 
L 42.137716 79.91007 
L 42.827817 79.839919 
L 43.517919 79.727677 
L 44.208021 79.59439 
L 44.898122 79.461104 
L 45.588223 79.362892 
L 46.278326 79.243636 
L 46.968427 79.131394 
L 47.658528 79.023703 
L 48.348631 78.841311 
L 49.038732 78.722054 
L 49.728833 78.595782 
L 50.418936 78.406375 
L 51.109037 78.259058 
L 51.799138 78.090696 
L 52.489241 77.922333 
L 53.179343 77.711881 
L 53.869443 77.522473 
L 54.559546 77.333066 
L 55.249648 77.101567 
L 55.939748 76.870069 
L 56.629851 76.715738 
L 57.319953 76.5123 
L 58.010053 76.266772 
L 58.700156 76.091394 
L 59.390256 75.901986 
L 60.080358 75.635413 
L 60.770461 75.333764 
L 61.460561 75.151371 
L 62.150663 75.004054 
L 62.840764 74.770092 
L 63.530866 74.522099 
L 64.220968 74.27657 
L 64.911069 74.014547 
L 65.601171 73.769018 
L 66.291274 73.45334 
L 66.981374 73.144676 
L 67.671476 72.913178 
L 68.361579 72.653619 
L 69.051681 72.394061 
L 69.741783 72.190623 
L 70.431886 71.931065 
L 71.121984 71.65046 
L 71.812086 71.215525 
L 72.502189 70.934921 
L 73.192291 70.612227 
L 73.882393 70.254457 
L 74.572492 69.978404 
L 75.262594 69.641679 
L 75.952696 69.389136 
L 76.642795 69.094502 
L 77.332897 68.799868 
L 78.022999 68.467695 
L 78.713102 68.152015 
L 79.403204 67.80126 
L 80.093306 67.4014 
L 80.783409 66.980495 
L 81.473511 66.578169 
L 82.163613 66.157264 
L 82.853712 65.778448 
L 83.543814 65.418215 
L 84.233916 64.990293 
L 84.924019 64.429086 
L 85.614121 63.945043 
L 86.304223 63.573244 
L 86.994326 63.140394 
L 87.684424 62.726503 
L 88.374526 62.221418 
L 89.064629 61.590059 
L 89.754731 60.958698 
L 90.444834 60.460628 
L 91.134932 59.791729 
L 91.825034 59.174401 
L 92.515137 58.564089 
L 93.205235 57.946759 
L 93.895337 57.252266 
L 94.58544 56.522697 
L 95.275542 55.741555 
L 95.965644 54.878701 
L 96.655747 53.896588 
L 97.345849 52.879398 
L 98.035951 52.058632 
L 98.726054 51.027411 
L 99.416152 49.937608 
L 100.106254 48.759076 
L 100.796357 47.342026 
L 101.486459 45.868856 
L 102.176561 43.827464 
L 102.86666 41.112243 
L 103.556762 37.185873 
L 104.246864 10.421016 
" clip-path="url(#p8fe792ccb8)" style="fill: none; stroke: #fd8d3c; stroke-opacity: 0.5; stroke-width: 1.5; stroke-linecap: square"/>
   </g>
   <g id="line2d_11">
    <path d="M 35.9268 80.571953 
L 36.616902 80.557923 
L 37.307004 80.550908 
L 37.997105 80.550908 
L 38.687207 80.529863 
L 39.377309 80.529863 
L 40.06741 80.494787 
L 40.757512 80.494787 
L 41.447614 80.494787 
L 42.137716 80.459712 
L 42.827817 80.417621 
L 43.517919 80.389561 
L 44.208021 80.3615 
L 44.898122 80.340455 
L 45.588223 80.298364 
L 46.278326 80.256274 
L 46.968427 80.193138 
L 47.658528 80.130002 
L 48.348631 80.094927 
L 49.038732 80.038806 
L 49.728833 80.010746 
L 50.418936 79.968655 
L 51.109037 79.919549 
L 51.799138 79.849399 
L 52.489241 79.800293 
L 53.179343 79.744172 
L 53.869443 79.716112 
L 54.559546 79.667006 
L 55.249648 79.610885 
L 55.939748 79.526704 
L 56.629851 79.428493 
L 57.319953 79.379387 
L 58.010053 79.330282 
L 58.700156 79.316251 
L 59.390256 79.253116 
L 60.080358 79.157243 
L 60.770461 79.066046 
L 61.460561 78.925745 
L 62.150663 78.855593 
L 62.840764 78.785443 
L 63.530866 78.729322 
L 64.220968 78.624096 
L 64.911069 78.57499 
L 65.601171 78.441703 
L 66.291274 78.301401 
L 66.981374 78.168114 
L 67.671476 78.076918 
L 68.361579 77.950647 
L 69.051681 77.85945 
L 69.741783 77.733179 
L 70.431886 77.663028 
L 71.121984 77.557801 
L 71.812086 77.466605 
L 72.502189 77.340333 
L 73.192291 77.209385 
L 73.882393 77.069083 
L 74.572492 76.942812 
L 75.262594 76.823555 
L 75.952696 76.599072 
L 76.642795 76.402649 
L 77.332897 76.297423 
L 78.022999 76.164137 
L 78.713102 76.023834 
L 79.403204 75.857811 
L 80.093306 75.689448 
L 80.783409 75.493026 
L 81.473511 75.245159 
L 82.163613 75.055752 
L 82.853712 74.852313 
L 83.543814 74.560018 
L 84.233916 74.32852 
L 84.924019 74.040902 
L 85.614121 73.739252 
L 86.304223 73.444618 
L 86.994326 73.156999 
L 87.684424 72.939531 
L 88.374526 72.708033 
L 89.064629 72.42743 
L 89.754731 72.09772 
L 90.444834 71.833485 
L 91.134932 71.475716 
L 91.825034 71.188097 
L 92.515137 70.675995 
L 93.205235 70.262104 
L 93.895337 69.850552 
L 94.58544 69.359495 
L 95.275542 68.672016 
L 95.965644 68.082749 
L 96.655747 67.549602 
L 97.345849 66.939289 
L 98.035951 66.244794 
L 98.726054 65.571344 
L 99.416152 64.750579 
L 100.106254 63.978919 
L 100.796357 62.898595 
L 101.486459 61.614831 
L 102.176561 59.980315 
L 102.86666 57.878126 
L 103.556762 54.452422 
L 104.246864 10.421016 
" clip-path="url(#p8fe792ccb8)" style="fill: none; stroke: #fc4e2a; stroke-opacity: 0.5; stroke-width: 1.5; stroke-linecap: square"/>
   </g>
   <g id="line2d_12">
    <path d="M 35.9268 80.571953 
L 36.616902 80.571953 
L 37.307004 80.571953 
L 37.997105 80.571953 
L 38.687207 80.571953 
L 39.377309 80.571953 
L 40.06741 80.571953 
L 40.757512 80.564903 
L 41.447614 80.564903 
L 42.137716 80.564903 
L 42.827817 80.564903 
L 43.517919 80.564903 
L 44.208021 80.557852 
L 44.898122 80.557852 
L 45.588223 80.557852 
L 46.278326 80.557852 
L 46.968427 80.557852 
L 47.658528 80.557852 
L 48.348631 80.557852 
L 49.038732 80.557852 
L 49.728833 80.550802 
L 50.418936 80.536701 
L 51.109037 80.529651 
L 51.799138 80.522601 
L 52.489241 80.522601 
L 53.179343 80.522601 
L 53.869443 80.522601 
L 54.559546 80.5085 
L 55.249648 80.50145 
L 55.939748 80.50145 
L 56.629851 80.494399 
L 57.319953 80.494399 
L 58.010053 80.487349 
L 58.700156 80.487349 
L 59.390256 80.466198 
L 60.080358 80.459148 
L 60.770461 80.459148 
L 61.460561 80.437997 
L 62.150663 80.437997 
L 62.840764 80.418356 
L 63.530866 80.418356 
L 64.220968 80.411306 
L 64.911069 80.411306 
L 65.601171 80.411306 
L 66.291274 80.404256 
L 66.981374 80.376054 
L 67.671476 80.369004 
L 68.361579 80.361954 
L 69.051681 80.354903 
L 69.741783 80.333752 
L 70.431886 80.314112 
L 71.121984 80.300011 
L 71.812086 80.292961 
L 72.502189 80.27886 
L 73.192291 80.27886 
L 73.882393 80.250659 
L 74.572492 80.222457 
L 75.262594 80.194256 
L 75.952696 80.160515 
L 76.642795 80.139364 
L 77.332897 80.090012 
L 78.022999 80.04771 
L 78.713102 80.012458 
L 79.403204 79.970156 
L 80.093306 79.941954 
L 80.783409 79.920803 
L 81.473511 79.878501 
L 82.163613 79.8503 
L 82.853712 79.786847 
L 83.543814 79.737494 
L 84.233916 79.666991 
L 84.924019 79.63879 
L 85.614121 79.582387 
L 86.304223 79.490732 
L 86.994326 79.377927 
L 87.684424 79.286272 
L 88.374526 79.251021 
L 89.064629 79.182028 
L 89.754731 79.083323 
L 90.444834 79.01282 
L 91.134932 78.871813 
L 91.825034 78.794259 
L 92.515137 78.660302 
L 93.205235 78.519296 
L 93.895337 78.323397 
L 94.58544 78.252893 
L 95.275542 78.118937 
L 95.965644 77.937138 
L 96.655747 77.746779 
L 97.345849 77.485916 
L 98.035951 77.106708 
L 98.726054 76.70635 
L 99.416152 76.10002 
L 100.106254 75.557143 
L 100.796357 75.024339 
L 101.486459 74.202469 
L 102.176561 73.17312 
L 102.86666 71.568662 
L 103.556762 68.356728 
L 104.246864 10.421016 
" clip-path="url(#p8fe792ccb8)" style="fill: none; stroke: #e31a1c; stroke-opacity: 0.5; stroke-width: 1.5; stroke-linecap: square"/>
   </g>
   <g id="line2d_13">
    <path d="M 35.9268 80.571953 
L 36.616902 80.571953 
L 37.307004 80.548038 
L 37.997105 80.548038 
L 38.687207 80.532095 
L 39.377309 80.532095 
L 40.06741 80.532095 
L 40.757512 80.524123 
L 41.447614 80.516151 
L 42.137716 80.516151 
L 42.827817 80.516151 
L 43.517919 80.50818 
L 44.208021 80.50818 
L 44.898122 80.50818 
L 45.588223 80.500208 
L 46.278326 80.500208 
L 46.968427 80.500208 
L 47.658528 80.476293 
L 48.348631 80.476293 
L 49.038732 80.460349 
L 49.728833 80.460349 
L 50.418936 80.436434 
L 51.109037 80.428463 
L 51.799138 80.420491 
L 52.489241 80.404547 
L 53.179343 80.396576 
L 53.869443 80.396576 
L 54.559546 80.372661 
L 55.249648 80.372661 
L 55.939748 80.356717 
L 56.629851 80.323502 
L 57.319953 80.31553 
L 58.010053 80.299587 
L 58.700156 80.299587 
L 59.390256 80.291615 
L 60.080358 80.283643 
L 60.770461 80.2677 
L 61.460561 80.243785 
L 62.150663 80.243785 
L 62.840764 80.21987 
L 63.530866 80.211898 
L 64.220968 80.187983 
L 64.911069 80.180011 
L 65.601171 80.156096 
L 66.291274 80.140153 
L 66.981374 80.132181 
L 67.671476 80.100294 
L 68.361579 80.084351 
L 69.051681 80.068408 
L 69.741783 80.044492 
L 70.431886 79.988691 
L 71.121984 79.964775 
L 71.812086 79.948832 
L 72.502189 79.901002 
L 73.192291 79.869115 
L 73.882393 79.8452 
L 74.572492 79.821285 
L 75.262594 79.79737 
L 75.952696 79.773455 
L 76.642795 79.741568 
L 77.332897 79.70171 
L 78.022999 79.677794 
L 78.713102 79.645908 
L 79.403204 79.606049 
L 80.093306 79.542276 
L 80.783409 79.446615 
L 81.473511 79.398785 
L 82.163613 79.319068 
L 82.853712 79.255294 
L 83.543814 79.094532 
L 84.233916 78.9909 
L 84.924019 78.919155 
L 85.614121 78.782307 
L 86.304223 78.678675 
L 86.994326 78.598958 
L 87.684424 78.479382 
L 88.374526 78.32792 
L 89.064629 78.175129 
L 89.754731 77.99178 
L 90.444834 77.751301 
L 91.134932 77.504178 
L 91.825034 77.257056 
L 92.515137 76.8877 
L 93.205235 76.600719 
L 93.895337 76.321709 
L 94.58544 75.978927 
L 95.275542 75.555098 
L 95.965644 75.203015 
L 96.655747 74.683526 
L 97.345849 74.245082 
L 98.035951 73.639233 
L 98.726054 72.881922 
L 99.416152 72.028951 
L 100.106254 71.199895 
L 100.796357 70.137001 
L 101.486459 68.925304 
L 102.176561 67.346906 
L 102.86666 65.704737 
L 103.556762 62.779125 
L 104.246864 10.421016 
" clip-path="url(#p8fe792ccb8)" style="fill: none; stroke: #bd0026; stroke-opacity: 0.5; stroke-width: 1.5; stroke-linecap: square"/>
   </g>
   <g id="line2d_14">
    <path d="M 35.9268 80.571953 
L 36.616902 79.566456 
L 37.307004 79.484614 
L 37.997105 79.426154 
L 38.687207 79.402771 
L 39.377309 79.391079 
L 40.06741 79.391079 
L 40.757512 79.379387 
L 41.447614 79.367695 
L 42.137716 79.33262 
L 42.827817 79.297544 
L 43.517919 79.274161 
L 44.208021 79.227394 
L 44.898122 79.215702 
L 45.588223 79.215702 
L 46.278326 79.215702 
L 46.968427 79.20401 
L 47.658528 79.192318 
L 48.348631 79.168934 
L 49.038732 79.145551 
L 49.728833 79.133859 
L 50.418936 79.098783 
L 51.109037 79.052016 
L 51.799138 79.040324 
L 52.489241 79.040324 
L 53.179343 79.040324 
L 53.869443 78.981865 
L 54.559546 78.970173 
L 55.249648 78.958481 
L 55.939748 78.923406 
L 56.629851 78.923406 
L 57.319953 78.923406 
L 58.010053 78.923406 
L 58.700156 78.911714 
L 59.390256 78.900022 
L 60.080358 78.900022 
L 60.770461 78.864947 
L 61.460561 78.81818 
L 62.150663 78.806488 
L 62.840764 78.771412 
L 63.530866 78.771412 
L 64.220968 78.75972 
L 64.911069 78.724645 
L 65.601171 78.68957 
L 66.291274 78.677878 
L 66.981374 78.654494 
L 67.671476 78.631111 
L 68.361579 78.607727 
L 69.051681 78.572652 
L 69.741783 78.56096 
L 70.431886 78.514192 
L 71.121984 78.479117 
L 71.812086 78.444041 
L 72.502189 78.43235 
L 73.192291 78.420658 
L 73.882393 78.350507 
L 74.572492 78.350507 
L 75.262594 78.338815 
L 75.952696 78.303739 
L 76.642795 78.268664 
L 77.332897 78.233589 
L 78.022999 78.186821 
L 78.713102 78.17513 
L 79.403204 78.128362 
L 80.093306 78.093287 
L 80.783409 78.069903 
L 81.473511 78.034828 
L 82.163613 77.988061 
L 82.853712 77.882834 
L 83.543814 77.812683 
L 84.233916 77.742532 
L 84.924019 77.73084 
L 85.614121 77.648998 
L 86.304223 77.543771 
L 86.994326 77.438545 
L 87.684424 77.333318 
L 88.374526 77.251476 
L 89.064629 77.157941 
L 89.754731 76.900721 
L 90.444834 76.807186 
L 91.134932 76.549966 
L 91.825034 76.316129 
L 92.515137 76.129061 
L 93.205235 75.80169 
L 93.895337 75.638004 
L 94.58544 75.450935 
L 95.275542 75.275558 
L 95.965644 75.006646 
L 96.655747 74.714351 
L 97.345849 74.363596 
L 98.035951 73.895923 
L 98.726054 73.498401 
L 99.416152 73.019036 
L 100.106254 72.574747 
L 100.796357 72.107074 
L 101.486459 71.195112 
L 102.176561 69.955779 
L 102.86666 68.412459 
L 103.556762 65.571345 
L 104.246864 10.421016 
" clip-path="url(#p8fe792ccb8)" style="fill: none; stroke: #800026; stroke-opacity: 0.5; stroke-width: 1.5; stroke-linecap: square"/>
   </g>
   <g id="patch_3">
    <path d="M 35.9268 80.571953 
L 35.9268 10.421016 
" style="fill: none; stroke: #000000; stroke-width: 1.5; stroke-linejoin: miter; stroke-linecap: square"/>
   </g>
   <g id="patch_4">
    <path d="M 35.9268 80.571953 
L 104.246864 80.571953 
" style="fill: none; stroke: #000000; stroke-width: 1.5; stroke-linejoin: miter; stroke-linecap: square"/>
   </g>
  </g>
  <g id="axes_2">
   <g id="patch_5">
    <path d="M 139.731864 80.571953 
L 208.051928 80.571953 
L 208.051928 10.421016 
L 139.731864 10.421016 
L 139.731864 80.571953 
z
" style="fill: none"/>
   </g>
   <g id="matplotlib.axis_3">
    <g id="xtick_4">
     <g id="line2d_15">
      <g>
       <use xlink:href="#mcef21a8e8f" x="139.731864" y="80.571953" style="stroke: #000000; stroke-width: 1.5"/>
      </g>
     </g>
     <g id="text_8">
      <text style="font: 9px 'Arial'; text-anchor: middle" x="139.731864" y="94.013984" transform="rotate(-0, 139.731864, 94.013984)">0.0</text>
     </g>
    </g>
    <g id="xtick_5">
     <g id="line2d_16">
      <g>
       <use xlink:href="#mcef21a8e8f" x="173.891896" y="80.571953" style="stroke: #000000; stroke-width: 1.5"/>
      </g>
     </g>
     <g id="text_9">
      <text style="font: 9px 'Arial'; text-anchor: middle" x="173.891896" y="94.013984" transform="rotate(-0, 173.891896, 94.013984)">0.5</text>
     </g>
    </g>
    <g id="xtick_6">
     <g id="line2d_17">
      <g>
       <use xlink:href="#mcef21a8e8f" x="208.051928" y="80.571953" style="stroke: #000000; stroke-width: 1.5"/>
      </g>
     </g>
     <g id="text_10">
      <text style="font: 9px 'Arial'; text-anchor: middle" x="208.051928" y="94.013984" transform="rotate(-0, 208.051928, 94.013984)">1.0</text>
     </g>
    </g>
   </g>
   <g id="matplotlib.axis_4">
    <g id="ytick_4">
     <g id="line2d_18">
      <g>
       <use xlink:href="#m33c7a0b5c7" x="139.731864" y="80.571953" style="stroke: #000000; stroke-width: 1.5"/>
      </g>
     </g>
     <g id="text_11">
      <text style="font: 9px 'Arial'; text-anchor: end" x="132.731864" y="83.792969" transform="rotate(-0, 132.731864, 83.792969)">0.0</text>
     </g>
    </g>
    <g id="ytick_5">
     <g id="line2d_19">
      <g>
       <use xlink:href="#m33c7a0b5c7" x="139.731864" y="45.496484" style="stroke: #000000; stroke-width: 1.5"/>
      </g>
     </g>
     <g id="text_12">
      <text style="font: 9px 'Arial'; text-anchor: end" x="132.731864" y="48.7175" transform="rotate(-0, 132.731864, 48.7175)">0.5</text>
     </g>
    </g>
    <g id="ytick_6">
     <g id="line2d_20">
      <g>
       <use xlink:href="#m33c7a0b5c7" x="139.731864" y="10.421016" style="stroke: #000000; stroke-width: 1.5"/>
      </g>
     </g>
     <g id="text_13">
      <text style="font: 9px 'Arial'; text-anchor: end" x="132.731864" y="13.642031" transform="rotate(-0, 132.731864, 13.642031)">1.0</text>
     </g>
    </g>
   </g>
   <g id="line2d_21">
    <path d="M 139.731864 80.571953 
L 140.421966 79.863358 
L 141.112068 79.154762 
L 141.802169 78.446167 
L 142.492271 77.737572 
L 143.182373 77.028977 
L 143.872474 76.320381 
L 144.562576 75.611786 
L 145.252678 74.903191 
L 145.942779 74.194595 
L 146.632881 73.486 
L 147.322983 72.777404 
L 148.013084 72.068809 
L 148.703186 71.360214 
L 149.393287 70.651619 
L 150.083389 69.943023 
L 150.773491 69.234428 
L 151.463592 68.525833 
L 152.153695 67.817237 
L 152.843796 67.108642 
L 153.533897 66.400047 
L 154.224 65.691451 
L 154.914101 64.982856 
L 155.604202 64.274261 
L 156.294305 63.565665 
L 156.984407 62.857069 
L 157.674507 62.148475 
L 158.36461 61.439879 
L 159.054712 60.731283 
L 159.744812 60.022689 
L 160.434915 59.314093 
L 161.125017 58.605497 
L 161.815117 57.896903 
L 162.50522 57.188307 
L 163.19532 56.479713 
L 163.885422 55.771117 
L 164.575525 55.062521 
L 165.265625 54.353927 
L 165.955727 53.645331 
L 166.645828 52.936737 
L 167.33593 52.228141 
L 168.026032 51.519544 
L 168.716133 50.810951 
L 169.406235 50.102354 
L 170.096337 49.393758 
L 170.786438 48.685164 
L 171.47654 47.976568 
L 172.166642 47.267972 
L 172.856745 46.559376 
L 173.546847 45.85078 
L 174.23695 45.142184 
L 174.927048 44.433592 
L 175.61715 43.724996 
L 176.307253 43.0164 
L 176.997355 42.307804 
L 177.687457 41.599208 
L 178.377556 40.890616 
L 179.067658 40.18202 
L 179.75776 39.473424 
L 180.447858 38.764832 
L 181.137961 38.056236 
L 181.828063 37.34764 
L 182.518166 36.639044 
L 183.208268 35.930448 
L 183.89837 35.221852 
L 184.588473 34.513256 
L 185.278575 33.80466 
L 185.968677 33.096064 
L 186.658776 32.387472 
L 187.348878 31.678876 
L 188.03898 30.97028 
L 188.729083 30.261684 
L 189.419185 29.553088 
L 190.109287 28.844492 
L 190.79939 28.135896 
L 191.489488 27.427304 
L 192.17959 26.718708 
L 192.869693 26.010112 
L 193.559795 25.301516 
L 194.249897 24.59292 
L 194.939996 23.884328 
L 195.630098 23.175732 
L 196.3202 22.467136 
L 197.010299 21.758544 
L 197.700401 21.049948 
L 198.390503 20.341352 
L 199.080606 19.632756 
L 199.770708 18.92416 
L 200.460811 18.215564 
L 201.150913 17.506968 
L 201.841015 16.798372 
L 202.531118 16.089776 
L 203.221216 15.381184 
L 203.911318 14.672588 
L 204.601421 13.963992 
L 205.291523 13.255396 
L 205.981625 12.5468 
L 206.671724 11.838208 
L 207.361826 11.129612 
L 208.051928 10.421016 
" clip-path="url(#pf3d89636de)" style="fill: none; stroke-dasharray: 4.8,1.2,0.75,1.2; stroke-dashoffset: 0; stroke: #1a1a1a; stroke-opacity: 0.8; stroke-width: 0.75"/>
   </g>
   <g id="line2d_22">
    <path d="M 139.731864 80.571953 
L 140.421966 77.681735 
L 141.112068 74.861667 
L 141.802169 72.160856 
L 142.492271 69.677512 
L 143.182373 67.467758 
L 143.872474 65.601744 
L 144.562576 63.777819 
L 145.252678 61.890759 
L 145.942779 60.10191 
L 146.632881 58.684862 
L 147.322983 57.078403 
L 148.013084 55.661357 
L 148.703186 54.174157 
L 149.393287 52.757105 
L 150.083389 51.35409 
L 150.773491 50.161524 
L 151.463592 48.990002 
L 152.153695 47.797439 
L 152.843796 46.6189 
L 153.533897 45.608726 
L 154.224 44.472282 
L 154.914101 43.483153 
L 155.604202 42.381789 
L 156.294305 41.224294 
L 156.984407 40.235165 
L 157.674507 39.358279 
L 158.36461 38.537515 
L 159.054712 37.597495 
L 159.744812 36.818816 
L 160.434915 36.026108 
L 161.125017 35.3246 
L 161.815117 34.475766 
L 162.50522 33.774266 
L 163.19532 33.058729 
L 163.885422 32.455427 
L 164.575525 31.76093 
L 165.265625 31.171665 
L 165.955727 30.505233 
L 166.645828 29.803721 
L 167.33593 29.123261 
L 168.026032 28.611162 
L 168.716133 28.000843 
L 169.406235 27.355452 
L 170.096337 26.850365 
L 170.786438 26.352295 
L 171.47654 25.854224 
L 172.166642 25.328092 
L 172.856745 24.731802 
L 173.546847 24.170606 
L 174.23695 23.735665 
L 174.927048 23.195505 
L 175.61715 22.823698 
L 176.307253 22.437875 
L 176.997355 22.101145 
L 177.687457 21.687257 
L 178.377556 21.266352 
L 179.067658 20.85948 
L 179.75776 20.459621 
L 180.447858 20.073789 
L 181.137961 19.680937 
L 181.828063 19.351232 
L 182.518166 18.958384 
L 183.208268 18.628674 
L 183.89837 18.270908 
L 184.588473 18.004336 
L 185.278575 17.702687 
L 185.968677 17.302823 
L 186.658776 17.057296 
L 187.348878 16.804757 
L 188.03898 16.461014 
L 188.729083 16.22952 
L 189.419185 15.998017 
L 190.109287 15.745469 
L 190.79939 15.471881 
L 191.489488 15.254414 
L 192.17959 14.987843 
L 192.869693 14.756344 
L 193.559795 14.524853 
L 194.249897 14.328423 
L 194.939996 14.117973 
L 195.630098 13.942596 
L 196.3202 13.711097 
L 197.010299 13.48661 
L 197.700401 13.198998 
L 198.390503 13.002572 
L 199.080606 12.813167 
L 199.770708 12.630769 
L 200.460811 12.427335 
L 201.150913 12.280019 
L 201.841015 12.167779 
L 202.531118 12.027467 
L 203.221216 11.859114 
L 203.911318 11.690749 
L 204.601421 11.529405 
L 205.291523 11.424169 
L 205.981625 11.234772 
L 206.671724 11.024318 
L 207.361826 10.841928 
L 208.051928 10.421016 
" clip-path="url(#pf3d89636de)" style="fill: none; stroke: #000000; stroke-width: 1.5; stroke-linecap: square"/>
   </g>
   <g id="line2d_23">
    <path d="M 139.731864 80.571953 
L 140.421966 77.667704 
L 141.112068 74.665244 
L 141.802169 72.146826 
L 142.492271 69.649452 
L 143.182373 67.474773 
L 143.872474 65.629805 
L 144.562576 63.714684 
L 145.252678 61.967925 
L 145.942779 60.326393 
L 146.632881 58.656801 
L 147.322983 57.162587 
L 148.013084 55.710464 
L 148.703186 54.188187 
L 149.393287 52.743079 
L 150.083389 51.347075 
L 150.773491 50.154506 
L 151.463592 48.919852 
L 152.153695 47.811469 
L 152.843796 46.569796 
L 153.533897 45.54559 
L 154.224 44.465266 
L 154.914101 43.363897 
L 155.604202 42.332679 
L 156.294305 41.294444 
L 156.984407 40.375469 
L 157.674507 39.470522 
L 158.36461 38.607665 
L 159.054712 37.632564 
L 159.744812 36.853893 
L 160.434915 36.040141 
L 161.125017 35.310571 
L 161.815117 34.426669 
L 162.50522 33.725161 
L 163.19532 33.044692 
L 163.885422 32.336172 
L 164.575525 31.725857 
L 165.265625 31.024353 
L 165.955727 30.491201 
L 166.645828 29.810741 
L 167.33593 29.186394 
L 168.026032 28.533987 
L 168.716133 27.972783 
L 169.406235 27.390529 
L 170.096337 26.927532 
L 170.786438 26.366327 
L 171.47654 25.79109 
L 172.166642 25.257942 
L 172.856745 24.76688 
L 173.546847 24.226728 
L 174.23695 23.777754 
L 174.927048 23.335805 
L 175.61715 22.879824 
L 176.307253 22.493992 
L 176.997355 22.087121 
L 177.687457 21.582034 
L 178.377556 21.18919 
L 179.067658 20.796342 
L 179.75776 20.431551 
L 180.447858 20.11587 
L 181.137961 19.77214 
L 181.828063 19.358252 
L 182.518166 18.986441 
L 183.208268 18.670763 
L 183.89837 18.334042 
L 184.588473 17.983287 
L 185.278575 17.681638 
L 185.968677 17.408046 
L 186.658776 17.071328 
L 187.348878 16.818781 
L 188.03898 16.489071 
L 188.729083 16.229515 
L 189.419185 16.012049 
L 190.109287 15.745477 
L 190.79939 15.485918 
L 191.489488 15.268451 
L 192.17959 14.931717 
L 192.869693 14.749328 
L 193.559795 14.524845 
L 194.249897 14.314395 
L 194.939996 14.110957 
L 195.630098 13.928568 
L 196.3202 13.746174 
L 197.010299 13.479598 
L 197.700401 13.227055 
L 198.390503 13.009588 
L 199.080606 12.834211 
L 199.770708 12.623757 
L 200.460811 12.462408 
L 201.150913 12.329124 
L 201.841015 12.18882 
L 202.531118 12.034487 
L 203.221216 11.873143 
L 203.911318 11.697757 
L 204.601421 11.571494 
L 205.291523 11.396117 
L 205.981625 11.234772 
L 206.671724 11.03835 
L 207.361826 10.855957 
L 208.051928 10.421016 
" clip-path="url(#pf3d89636de)" style="fill: none; stroke: #feb24c; stroke-opacity: 0.5; stroke-width: 1.5; stroke-linecap: square"/>
   </g>
   <g id="line2d_24">
    <path d="M 139.731864 80.571953 
L 140.421966 77.618599 
L 141.112068 74.658229 
L 141.802169 72.118765 
L 142.492271 69.691544 
L 143.182373 67.608061 
L 143.872474 65.650849 
L 144.562576 63.784834 
L 145.252678 61.995986 
L 145.942779 60.242212 
L 146.632881 58.621726 
L 147.322983 57.211693 
L 148.013084 55.717477 
L 148.703186 54.279382 
L 149.393287 52.679943 
L 150.083389 51.396179 
L 150.773491 50.105401 
L 151.463592 49.018063 
L 152.153695 47.748329 
L 152.843796 46.611887 
L 153.533897 45.636791 
L 154.224 44.60557 
L 154.914101 43.413003 
L 155.604202 42.297606 
L 156.294305 41.224294 
L 156.984407 40.326364 
L 157.674507 39.512612 
L 158.36461 38.677815 
L 159.054712 37.702714 
L 159.744812 36.860905 
L 160.434915 36.180441 
L 161.125017 35.394754 
L 161.815117 34.552937 
L 162.50522 33.851432 
L 163.19532 33.009615 
L 163.885422 32.364228 
L 164.575525 31.718841 
L 165.265625 31.073454 
L 165.955727 30.435079 
L 166.645828 29.866859 
L 167.33593 29.256549 
L 168.026032 28.632206 
L 168.716133 27.965762 
L 169.406235 27.41859 
L 170.096337 26.808276 
L 170.786438 26.380355 
L 171.47654 25.819147 
L 172.166642 25.349137 
L 172.856745 24.70375 
L 173.546847 24.22672 
L 174.23695 23.784771 
L 174.927048 23.363862 
L 175.61715 22.95699 
L 176.307253 22.648325 
L 176.997355 22.122189 
L 177.687457 21.680245 
L 178.377556 21.245308 
L 179.067658 20.810371 
L 179.75776 20.459616 
L 180.447858 20.164984 
L 181.137961 19.765116 
L 181.828063 19.421378 
L 182.518166 19.03555 
L 183.208268 18.698828 
L 183.89837 18.369119 
L 184.588473 18.025376 
L 185.278575 17.744776 
L 185.968677 17.492233 
L 186.658776 17.204612 
L 187.348878 16.811769 
L 188.03898 16.468026 
L 188.729083 16.278621 
L 189.419185 15.990996 
L 190.109287 15.78055 
L 190.79939 15.478905 
L 191.489488 15.275467 
L 192.17959 15.008896 
L 192.869693 14.833518 
L 193.559795 14.587983 
L 194.249897 14.384545 
L 194.939996 14.160062 
L 195.630098 13.956628 
L 196.3202 13.711097 
L 197.010299 13.486614 
L 197.700401 13.248099 
L 198.390503 13.0166 
L 199.080606 12.813167 
L 199.770708 12.651818 
L 200.460811 12.462412 
L 201.150913 12.343152 
L 201.841015 12.181804 
L 202.531118 12.041504 
L 203.221216 11.873143 
L 203.911318 11.704782 
L 204.601421 11.529396 
L 205.291523 11.431185 
L 205.981625 11.255808 
L 206.671724 11.052378 
L 207.361826 10.869981 
L 208.051928 10.421016 
" clip-path="url(#pf3d89636de)" style="fill: none; stroke: #fd8d3c; stroke-opacity: 0.5; stroke-width: 1.5; stroke-linecap: square"/>
   </g>
   <g id="line2d_25">
    <path d="M 139.731864 80.571953 
L 140.421966 77.632629 
L 141.112068 74.658229 
L 141.802169 72.195932 
L 142.492271 69.705573 
L 143.182373 67.565969 
L 143.872474 65.615774 
L 144.562576 63.833939 
L 145.252678 61.967925 
L 145.942779 60.242212 
L 146.632881 58.628741 
L 147.322983 57.204679 
L 148.013084 55.745537 
L 148.703186 54.314457 
L 149.393287 52.820245 
L 150.083389 51.599617 
L 150.773491 50.273766 
L 151.463592 49.081198 
L 152.153695 47.986842 
L 152.843796 46.815323 
L 153.533897 45.770072 
L 154.224 44.661692 
L 154.914101 43.413003 
L 155.604202 42.472983 
L 156.294305 41.448777 
L 156.984407 40.333376 
L 157.674507 39.610827 
L 158.36461 38.691847 
L 159.054712 37.878091 
L 159.744812 37.015238 
L 160.434915 36.236563 
L 161.125017 35.485949 
L 161.815117 34.749363 
L 162.50522 33.879493 
L 163.19532 33.107834 
L 163.885422 32.483484 
L 164.575525 31.753918 
L 165.265625 31.227787 
L 165.955727 30.638517 
L 166.645828 29.99313 
L 167.33593 29.354755 
L 168.026032 28.793551 
L 168.716133 28.106066 
L 169.406235 27.411574 
L 170.096337 26.843353 
L 170.786438 26.478566 
L 171.47654 25.973479 
L 172.166642 25.356157 
L 172.856745 24.858083 
L 173.546847 24.352996 
L 174.23695 23.939107 
L 174.927048 23.455061 
L 175.61715 23.034157 
L 176.307253 22.634297 
L 176.997355 22.122194 
L 177.687457 21.687257 
L 178.377556 21.294413 
L 179.067658 20.97172 
L 179.75776 20.529771 
L 180.447858 20.171992 
L 181.137961 19.807217 
L 181.828063 19.484515 
L 182.518166 19.077644 
L 183.208268 18.70584 
L 183.89837 18.446285 
L 184.588473 18.179709 
L 185.278575 17.80791 
L 185.968677 17.429095 
L 186.658776 17.1976 
L 187.348878 16.86789 
L 188.03898 16.615347 
L 188.729083 16.292649 
L 189.419185 16.04011 
L 190.109287 15.759506 
L 190.79939 15.535023 
L 191.489488 15.296504 
L 192.17959 15.001871 
L 192.869693 14.826494 
L 193.559795 14.630072 
L 194.249897 14.419618 
L 194.939996 14.223196 
L 195.630098 14.012746 
L 196.3202 13.718113 
L 197.010299 13.479598 
L 197.700401 13.304221 
L 198.390503 13.072722 
L 199.080606 12.883317 
L 199.770708 12.637789 
L 200.460811 12.511518 
L 201.150913 12.329124 
L 201.841015 12.216881 
L 202.531118 12.055536 
L 203.221216 11.880159 
L 203.911318 11.690749 
L 204.601421 11.592538 
L 205.291523 11.403133 
L 205.981625 11.24178 
L 206.671724 11.066403 
L 207.361826 10.855957 
L 208.051928 10.421016 
" clip-path="url(#pf3d89636de)" style="fill: none; stroke: #fc4e2a; stroke-opacity: 0.5; stroke-width: 1.5; stroke-linecap: square"/>
   </g>
   <g id="line2d_26">
    <path d="M 139.731864 80.571953 
L 140.421966 77.667705 
L 141.112068 74.742411 
L 141.802169 72.252052 
L 142.492271 69.958117 
L 143.182373 67.888664 
L 143.872474 65.931453 
L 144.562576 64.065438 
L 145.252678 62.283605 
L 145.942779 60.606997 
L 146.632881 59.056663 
L 147.322983 57.646628 
L 148.013084 56.173458 
L 148.703186 54.826562 
L 149.393287 53.241149 
L 150.083389 52.041568 
L 150.773491 50.645567 
L 151.463592 49.495089 
L 152.153695 48.46387 
L 152.843796 47.411607 
L 153.533897 46.085754 
L 154.224 44.93528 
L 154.914101 43.868984 
L 155.604202 42.78866 
L 156.294305 41.820576 
L 156.984407 40.915629 
L 157.674507 40.024715 
L 158.36461 39.17589 
L 159.054712 38.291988 
L 159.744812 37.506292 
L 160.434915 36.797771 
L 161.125017 35.934914 
L 161.815117 35.205344 
L 162.50522 34.503836 
L 163.19532 33.669043 
L 163.885422 32.960518 
L 164.575525 32.202884 
L 165.265625 31.634659 
L 165.955727 31.01032 
L 166.645828 30.407018 
L 167.33593 29.705514 
L 168.026032 29.032058 
L 168.716133 28.463837 
L 169.406235 27.804417 
L 170.096337 27.194108 
L 170.786438 26.625887 
L 171.47654 26.099755 
L 172.166642 25.650786 
L 172.856745 25.17376 
L 173.546847 24.675693 
L 174.23695 24.226728 
L 174.927048 23.798807 
L 175.61715 23.441033 
L 176.307253 22.942962 
L 176.997355 22.472948 
L 177.687457 22.115177 
L 178.377556 21.687257 
L 179.067658 21.210235 
L 179.75776 20.810371 
L 180.447858 20.382454 
L 181.137961 19.96155 
L 181.828063 19.603771 
L 182.518166 19.29511 
L 183.208268 18.930327 
L 183.89837 18.628674 
L 184.588473 18.334042 
L 185.278575 18.067466 
L 185.968677 17.765821 
L 186.658776 17.415066 
L 187.348878 17.14849 
L 188.03898 16.818781 
L 188.729083 16.510111 
L 189.419185 16.264593 
L 190.109287 15.885777 
L 190.79939 15.633234 
L 191.489488 15.387707 
L 192.17959 15.121126 
L 192.869693 14.924705 
L 193.559795 14.70023 
L 194.249897 14.559922 
L 194.939996 14.356484 
L 195.630098 14.153046 
L 196.3202 13.900507 
L 197.010299 13.633931 
L 197.700401 13.360343 
L 198.390503 13.149893 
L 199.080606 12.890333 
L 199.770708 12.672862 
L 200.460811 12.553611 
L 201.150913 12.392258 
L 201.841015 12.244942 
L 202.531118 12.097625 
L 203.221216 11.901204 
L 203.911318 11.774932 
L 204.601421 11.585526 
L 205.291523 11.459246 
L 205.981625 11.255817 
L 206.671724 11.087447 
L 207.361826 10.855957 
L 208.051928 10.421016 
" clip-path="url(#pf3d89636de)" style="fill: none; stroke: #e31a1c; stroke-opacity: 0.5; stroke-width: 1.5; stroke-linecap: square"/>
   </g>
   <g id="line2d_27">
    <path d="M 139.731864 80.571953 
L 140.421966 78.46041 
L 141.112068 76.040203 
L 141.802169 73.886569 
L 142.492271 71.845176 
L 143.182373 69.789755 
L 143.872474 68.000906 
L 144.562576 66.099815 
L 145.252678 64.479328 
L 145.942779 63.00616 
L 146.632881 61.490897 
L 147.322983 60.284301 
L 148.013084 58.825162 
L 148.703186 57.576478 
L 149.393287 56.334805 
L 150.083389 55.029998 
L 150.773491 53.837431 
L 151.463592 52.616807 
L 152.153695 51.42424 
L 152.843796 50.224656 
L 153.533897 49.172393 
L 154.224 48.253418 
L 154.914101 47.215183 
L 155.604202 46.127845 
L 156.294305 45.047519 
L 156.984407 44.184662 
L 157.674507 43.139415 
L 158.36461 42.115213 
L 159.054712 41.076978 
L 159.744812 40.249197 
L 160.434915 39.393356 
L 161.125017 38.58662 
L 161.815117 37.709734 
L 162.50522 37.071355 
L 163.19532 36.34179 
L 163.885422 35.689387 
L 164.575525 34.945789 
L 165.265625 34.24428 
L 165.955727 33.5568 
L 166.645828 32.841254 
L 167.33593 32.034518 
L 168.026032 31.417196 
L 168.716133 30.827923 
L 169.406235 30.259702 
L 170.096337 29.551181 
L 170.786438 28.919823 
L 171.47654 28.232346 
L 172.166642 27.699194 
L 172.856745 27.137986 
L 173.546847 26.569765 
L 174.23695 26.1208 
L 174.927048 25.60168 
L 175.61715 25.033464 
L 176.307253 24.549413 
L 176.997355 24.100448 
L 177.687457 23.616414 
L 178.377556 23.265655 
L 179.067658 22.900873 
L 179.75776 22.465932 
L 180.447858 21.974877 
L 181.137961 21.575017 
L 181.828063 21.090979 
L 182.518166 20.768282 
L 183.208268 20.452604 
L 183.89837 20.094834 
L 184.588473 19.786164 
L 185.278575 19.393317 
L 185.968677 19.028534 
L 186.658776 18.670768 
L 187.348878 18.298964 
L 188.03898 17.927165 
L 188.729083 17.646561 
L 189.419185 17.358945 
L 190.109287 17.00819 
L 190.79939 16.65042 
L 191.489488 16.376832 
L 192.17959 16.082199 
L 192.869693 15.794583 
L 193.559795 15.49995 
L 194.249897 15.226354 
L 194.939996 14.952774 
L 195.630098 14.686194 
L 196.3202 14.475739 
L 197.010299 14.244241 
L 197.700401 14.012742 
L 198.390503 13.788259 
L 199.080606 13.472586 
L 199.770708 13.170933 
L 200.460811 12.918389 
L 201.150913 12.728988 
L 201.841015 12.525546 
L 202.531118 12.39927 
L 203.221216 12.216881 
L 203.911318 12.041504 
L 204.601421 11.78194 
L 205.291523 11.641644 
L 205.981625 11.445214 
L 206.671724 11.234772 
L 207.361826 10.933123 
L 208.051928 10.421016 
" clip-path="url(#pf3d89636de)" style="fill: none; stroke: #bd0026; stroke-opacity: 0.5; stroke-width: 1.5; stroke-linecap: square"/>
   </g>
   <g id="line2d_28">
    <path d="M 139.731864 80.571953 
L 140.421966 79.94761 
L 141.112068 79.182965 
L 141.802169 78.278018 
L 142.492271 77.380086 
L 143.182373 76.369912 
L 143.872474 75.47198 
L 144.562576 74.384641 
L 145.252678 73.402528 
L 145.942779 72.259067 
L 146.632881 71.101577 
L 147.322983 70.063344 
L 148.013084 68.976004 
L 148.703186 68.064041 
L 149.393287 67.131034 
L 150.083389 66.162951 
L 150.773491 65.194868 
L 151.463592 64.226786 
L 152.153695 63.265719 
L 152.843796 62.416893 
L 153.533897 61.617171 
L 154.224 60.726255 
L 154.914101 59.709064 
L 155.604202 58.930389 
L 156.294305 58.088579 
L 156.984407 57.302889 
L 157.674507 56.433016 
L 158.36461 55.612251 
L 159.054712 54.700291 
L 159.744812 53.837431 
L 160.434915 52.988606 
L 161.125017 52.181872 
L 161.815117 51.361104 
L 162.50522 50.617504 
L 163.19532 49.775691 
L 163.885422 48.961943 
L 164.575525 48.204312 
L 165.265625 47.37653 
L 165.955727 46.57681 
L 166.645828 45.706941 
L 167.33593 44.830053 
L 168.026032 43.974211 
L 168.716133 43.286731 
L 169.406235 42.501044 
L 170.096337 41.687288 
L 170.786438 40.838463 
L 171.47654 40.031731 
L 172.166642 39.161857 
L 172.856745 38.397215 
L 173.546847 37.646596 
L 174.23695 36.9521 
L 174.927048 36.327757 
L 175.61715 35.570131 
L 176.307253 34.770412 
L 176.997355 34.153081 
L 177.687457 33.388439 
L 178.377556 32.771104 
L 179.067658 32.125717 
L 179.75776 31.557492 
L 180.447858 31.003304 
L 181.137961 30.32284 
L 181.828063 29.740591 
L 182.518166 29.16535 
L 183.208268 28.484882 
L 183.89837 27.832487 
L 184.588473 27.278286 
L 185.278575 26.583793 
L 185.968677 25.903329 
L 186.658776 25.335109 
L 187.348878 24.70375 
L 188.03898 24.09344 
L 188.729083 23.658495 
L 189.419185 23.055201 
L 190.109287 22.662353 
L 190.79939 22.150254 
L 191.489488 21.65218 
L 192.17959 21.238291 
L 192.869693 20.747237 
L 193.559795 20.221105 
L 194.249897 19.77214 
L 194.939996 19.238988 
L 195.630098 18.818084 
L 196.3202 18.284936 
L 197.010299 17.828955 
L 197.700401 17.415066 
L 198.390503 16.931024 
L 199.080606 16.43997 
L 199.770708 15.991004 
L 200.460811 15.556059 
L 201.150913 15.17024 
L 201.841015 14.76336 
L 202.531118 14.328431 
L 203.221216 13.86543 
L 203.911318 13.437509 
L 204.601421 13.037645 
L 205.291523 12.66585 
L 205.981625 12.301059 
L 206.671724 11.845082 
L 207.361826 11.361035 
L 208.051928 10.421016 
" clip-path="url(#pf3d89636de)" style="fill: none; stroke: #800026; stroke-opacity: 0.5; stroke-width: 1.5; stroke-linecap: square"/>
   </g>
   <g id="patch_6">
    <path d="M 139.731864 80.571953 
L 139.731864 10.421016 
" style="fill: none; stroke: #000000; stroke-width: 1.5; stroke-linejoin: miter; stroke-linecap: square"/>
   </g>
   <g id="patch_7">
    <path d="M 139.731864 80.571953 
L 208.051928 80.571953 
" style="fill: none; stroke: #000000; stroke-width: 1.5; stroke-linejoin: miter; stroke-linecap: square"/>
   </g>
  </g>
  <g id="legend_1">
   <g id="text_14">
    <!-- Tolerance $\epsilon$ -->
    <g transform="translate(108.556928 111.020672)">
     <text>
      <tspan style="font: 9px 'Arial'" x="0 5.497559 10.50293 12.502441 17.507812 20.504883 25.510254 30.515625 35.015625 40.020996 42.521484" y="-0.5625">Tolerance ε</tspan>
     </text>
    </g>
   </g>
   <g id="line2d_29">
    <path d="M 29.446928 120.601453 
L 38.446928 120.601453 
L 47.446928 120.601453 
" style="fill: none; stroke: #000000; stroke-width: 1.5; stroke-linecap: square"/>
   </g>
   <g id="text_15">
    <text style="font: 9px 'Arial'; text-anchor: start" x="54.646928" y="123.751453" transform="rotate(-0, 54.646928, 123.751453)">0</text>
   </g>
   <g id="line2d_30">
    <path d="M 29.446928 133.332234 
L 38.446928 133.332234 
L 47.446928 133.332234 
" style="fill: none; stroke: #feb24c; stroke-opacity: 0.5; stroke-width: 1.5; stroke-linecap: square"/>
   </g>
   <g id="text_16">
    <text style="font: 9px 'Arial'; text-anchor: start" x="54.646928" y="136.482234" transform="rotate(-0, 54.646928, 136.482234)">0.1</text>
   </g>
   <g id="line2d_31">
    <path d="M 85.156928 120.601453 
L 94.156928 120.601453 
L 103.156928 120.601453 
" style="fill: none; stroke: #fd8d3c; stroke-opacity: 0.5; stroke-width: 1.5; stroke-linecap: square"/>
   </g>
   <g id="text_17">
    <text style="font: 9px 'Arial'; text-anchor: start" x="110.356928" y="123.751453" transform="rotate(-0, 110.356928, 123.751453)">0.2</text>
   </g>
   <g id="line2d_32">
    <path d="M 85.156928 133.332234 
L 94.156928 133.332234 
L 103.156928 133.332234 
" style="fill: none; stroke: #fc4e2a; stroke-opacity: 0.5; stroke-width: 1.5; stroke-linecap: square"/>
   </g>
   <g id="text_18">
    <text style="font: 9px 'Arial'; text-anchor: start" x="110.356928" y="136.482234" transform="rotate(-0, 110.356928, 136.482234)">0.3</text>
   </g>
   <g id="line2d_33">
    <path d="M 140.866928 120.601453 
L 149.866928 120.601453 
L 158.866928 120.601453 
" style="fill: none; stroke: #e31a1c; stroke-opacity: 0.5; stroke-width: 1.5; stroke-linecap: square"/>
   </g>
   <g id="text_19">
    <text style="font: 9px 'Arial'; text-anchor: start" x="166.066928" y="123.751453" transform="rotate(-0, 166.066928, 123.751453)">0.5</text>
   </g>
   <g id="line2d_34">
    <path d="M 140.866928 133.332234 
L 149.866928 133.332234 
L 158.866928 133.332234 
" style="fill: none; stroke: #bd0026; stroke-opacity: 0.5; stroke-width: 1.5; stroke-linecap: square"/>
   </g>
   <g id="text_20">
    <text style="font: 9px 'Arial'; text-anchor: start" x="166.066928" y="136.482234" transform="rotate(-0, 166.066928, 136.482234)">1.0</text>
   </g>
   <g id="line2d_35">
    <path d="M 196.576928 120.601453 
L 205.576928 120.601453 
L 214.576928 120.601453 
" style="fill: none; stroke: #800026; stroke-opacity: 0.5; stroke-width: 1.5; stroke-linecap: square"/>
   </g>
   <g id="text_21">
    <text style="font: 9px 'Arial'; text-anchor: start" x="221.776928" y="123.751453" transform="rotate(-0, 221.776928, 123.751453)">2.0</text>
   </g>
  </g>
 </g>
 <defs>
  <clipPath id="p8fe792ccb8">
   <rect x="35.9268" y="10.421016" width="68.320064" height="70.150937"/>
  </clipPath>
  <clipPath id="pf3d89636de">
   <rect x="139.731864" y="10.421016" width="68.320064" height="70.150937"/>
  </clipPath>
 </defs>
</svg>
