<?xml version="1.0" encoding="utf-8" standalone="no"?>
<!DOCTYPE svg PUBLIC "-//W3C//DTD SVG 1.1//EN"
  "http://www.w3.org/Graphics/SVG/1.1/DTD/svg11.dtd">
<svg xmlns:xlink="http://www.w3.org/1999/xlink" width="142.581406pt" height="139.920781pt" viewBox="0 0 142.581406 139.920781" xmlns="http://www.w3.org/2000/svg" version="1.1">
 <metadata>
  <rdf:RDF xmlns:dc="http://purl.org/dc/elements/1.1/" xmlns:cc="http://creativecommons.org/ns#" xmlns:rdf="http://www.w3.org/1999/02/22-rdf-syntax-ns#">
   <cc:Work>
    <dc:type rdf:resource="http://purl.org/dc/dcmitype/StillImage"/>
    <dc:date>2023-05-16T17:04:08.284575</dc:date>
    <dc:format>image/svg+xml</dc:format>
    <dc:creator>
     <cc:Agent>
      <dc:title>Matplotlib v3.5.0, https://matplotlib.org/</dc:title>
     </cc:Agent>
    </dc:creator>
   </cc:Work>
  </rdf:RDF>
 </metadata>
 <defs>
  <style type="text/css">*{stroke-linejoin: round; stroke-linecap: butt}</style>
 </defs>
 <g id="figure_1">
  <g id="patch_1">
   <path d="M 0 139.920781 
L 142.581406 139.920781 
L 142.581406 0 
L 0 0 
L 0 139.920781 
z
" style="fill: none"/>
  </g>
  <g id="axes_1">
   <g id="patch_2">
    <path d="M 37.731406 104.22 
L 118.641406 104.22 
L 118.641406 23.832 
L 37.731406 23.832 
L 37.731406 104.22 
z
" style="fill: none"/>
   </g>
   <g id="PathCollection_1">
    <defs>
     <path id="m1bfaecd352" d="M 0 1.5 
C 0.397805 1.5 0.77937 1.341951 1.06066 1.06066 
C 1.341951 0.77937 1.5 0.397805 1.5 0 
C 1.5 -0.397805 1.341951 -0.77937 1.06066 -1.06066 
C 0.77937 -1.341951 0.397805 -1.5 0 -1.5 
C -0.397805 -1.5 -0.77937 -1.341951 -1.06066 -1.06066 
C -1.341951 -0.77937 -1.5 -0.397805 -1.5 0 
C -1.5 0.397805 -1.341951 0.77937 -1.06066 1.06066 
C -0.77937 1.341951 -0.397805 1.5 0 1.5 
z
" style="stroke: #08519c"/>
    </defs>
    <g clip-path="url(#pc2d5f2c9bb)">
     <use xlink:href="#m1bfaecd352" x="75.230088" y="74.627172" style="fill: #08519c; stroke: #08519c"/>
    </g>
   </g>
   <g id="matplotlib.axis_1">
    <g id="xtick_1">
     <g id="line2d_1">
      <defs>
       <path id="mc2f41f574e" d="M 0 0 
L 0 3.5 
" style="stroke: #000000; stroke-width: 1.5"/>
      </defs>
      <g>
       <use xlink:href="#mc2f41f574e" x="43.955252" y="104.22" style="stroke: #000000; stroke-width: 1.5"/>
      </g>
     </g>
     <g id="text_1">
      <text style="font: 9px 'Arial'; text-anchor: middle" x="43.955252" y="117.662031" transform="rotate(-0, 43.955252, 117.662031)">−2.5</text>
     </g>
    </g>
    <g id="xtick_2">
     <g id="line2d_2">
      <g>
       <use xlink:href="#mc2f41f574e" x="75.074483" y="104.22" style="stroke: #000000; stroke-width: 1.5"/>
      </g>
     </g>
     <g id="text_2">
      <text style="font: 9px 'Arial'; text-anchor: middle" x="75.074483" y="117.662031" transform="rotate(-0, 75.074483, 117.662031)">0.0</text>
     </g>
    </g>
    <g id="xtick_3">
     <g id="line2d_3">
      <g>
       <use xlink:href="#mc2f41f574e" x="106.193714" y="104.22" style="stroke: #000000; stroke-width: 1.5"/>
      </g>
     </g>
     <g id="text_3">
      <text style="font: 9px 'Arial'; text-anchor: middle" x="106.193714" y="117.662031" transform="rotate(-0, 106.193714, 117.662031)">2.5</text>
     </g>
    </g>
    <g id="text_4">
     <!-- $\theta_1$ -->
     <g transform="translate(73.596406 130.020781)">
      <text>
       <tspan style="font: 9px 'Arial'" x="0" y="-0.453125">θ</tspan>
       <tspan style="font: 6.3px 'Arial'" x="5.162182" y="2.2350624999999997">1</tspan>
      </text>
     </g>
    </g>
   </g>
   <g id="matplotlib.axis_2">
    <g id="ytick_1">
     <g id="line2d_4">
      <defs>
       <path id="m58df2a671d" d="M 0 0 
L -3.5 0 
" style="stroke: #000000; stroke-width: 1.5"/>
      </defs>
      <g>
       <use xlink:href="#m58df2a671d" x="37.731406" y="99.396721" style="stroke: #000000; stroke-width: 1.5"/>
      </g>
     </g>
     <g id="text_5">
      <text style="font: 9px 'Arial'; text-anchor: end" x="30.731406" y="102.617736" transform="rotate(-0, 30.731406, 102.617736)">−2</text>
     </g>
    </g>
    <g id="ytick_2">
     <g id="line2d_5">
      <g>
       <use xlink:href="#m58df2a671d" x="37.731406" y="67.241521" style="stroke: #000000; stroke-width: 1.5"/>
      </g>
     </g>
     <g id="text_6">
      <text style="font: 9px 'Arial'; text-anchor: end" x="30.731406" y="70.462536" transform="rotate(-0, 30.731406, 70.462536)">0</text>
     </g>
    </g>
    <g id="ytick_3">
     <g id="line2d_6">
      <g>
       <use xlink:href="#m58df2a671d" x="37.731406" y="35.086321" style="stroke: #000000; stroke-width: 1.5"/>
      </g>
     </g>
     <g id="text_7">
      <text style="font: 9px 'Arial'; text-anchor: end" x="30.731406" y="38.307336" transform="rotate(-0, 30.731406, 38.307336)">2</text>
     </g>
    </g>
    <g id="text_8">
     <!-- $\theta_2$ -->
     <g transform="translate(13.77 68.616)rotate(-90)">
      <text>
       <tspan style="font: 9px 'Arial'" x="0" y="-0.453125">θ</tspan>
       <tspan style="font: 6.3px 'Arial'" x="5.162182" y="2.2350624999999997">2</tspan>
      </text>
     </g>
    </g>
   </g>
   <g id="PathCollection_2"/>
   <g id="PathCollection_3">
    <path d="M 67.355482 82.002211 
L 67.299597 81.598251 
L 67.403082 81.194292 
L 67.411958 81.176343 
L 67.581504 80.790332 
L 67.793521 80.386372 
L 67.818541 80.34758 
L 68.032062 79.982412 
L 68.225123 79.689152 
L 68.291436 79.578452 
L 68.563838 79.174492 
L 68.631707 79.083183 
L 68.846301 78.770532 
L 69.03829 78.515109 
L 69.141673 78.366573 
L 69.444873 77.967521 
L 69.448334 77.962613 
L 69.751583 77.558653 
L 69.851455 77.434832 
L 70.063381 77.154694 
L 70.258038 76.915052 
L 70.383467 76.750734 
L 70.664621 76.407204 
L 70.711195 76.346774 
L 71.040563 75.942814 
L 71.071204 75.906665 
L 71.36732 75.538854 
L 71.477787 75.409234 
L 71.700444 75.134894 
L 71.88437 74.920172 
L 72.039242 74.730934 
L 72.290953 74.438548 
L 72.383098 74.326975 
L 72.697536 73.963804 
L 72.731585 73.923015 
L 73.079792 73.519055 
L 73.104119 73.49135 
L 73.425719 73.115095 
L 73.510702 73.019181 
L 73.778249 72.711135 
L 73.917284 72.556177 
L 74.138014 72.307175 
L 74.323867 72.103315 
L 74.505633 71.903216 
L 74.73045 71.661175 
L 74.881629 71.499256 
L 75.137033 71.229837 
L 75.266374 71.095296 
L 75.543616 70.808952 
L 75.660092 70.691336 
L 75.950199 70.397923 
L 76.062902 70.287376 
L 76.356782 69.996121 
L 76.474917 69.883417 
L 76.763365 69.603068 
L 76.896374 69.479457 
L 77.169948 69.218576 
L 77.327802 69.075497 
L 77.576531 68.842815 
L 77.770195 68.671537 
L 77.983114 68.476351 
L 78.22522 68.267578 
L 78.389696 68.120136 
L 78.695428 67.863618 
L 78.796279 67.775491 
L 79.184505 67.459658 
L 79.202862 67.444083 
L 79.609445 67.114261 
L 79.687736 67.055698 
L 80.016031 66.796789 
L 80.218337 66.651738 
L 80.422614 66.496969 
L 80.786972 66.247779 
L 80.829196 66.217163 
L 81.235779 65.940054 
L 81.392807 65.843819 
L 81.642363 65.679519 
L 82.048945 65.442615 
L 82.053998 65.439859 
L 82.455528 65.201521 
L 82.773865 65.035899 
L 82.862111 64.985688 
L 83.268694 64.771955 
L 83.568353 64.631939 
L 83.675277 64.57671 
L 84.08186 64.383858 
L 84.452336 64.22798 
L 84.488443 64.211043 
L 84.895026 64.036756 
L 85.301609 63.883699 
L 85.482495 63.82402 
L 85.708192 63.740012 
L 86.114774 63.61195 
L 86.521357 63.507055 
L 86.927941 63.426524 
L 86.982156 63.42006 
L 87.334523 63.371961 
L 87.741106 63.35551 
L 88.147689 63.387418 
L 88.299225 63.42006 
L 88.554272 63.482433 
L 88.960854 63.659224 
L 89.219818 63.82402 
L 89.367437 63.920705 
L 89.768087 64.22798 
L 89.774021 64.232096 
L 90.180604 64.52136 
L 90.333237 64.631939 
L 90.587187 64.798213 
L 90.930356 65.035899 
L 90.993769 65.082953 
L 91.400352 65.428692 
L 91.411853 65.439859 
L 91.681501 65.843819 
L 91.758126 66.247779 
L 91.685706 66.651738 
L 91.497569 67.055698 
L 91.400352 67.188621 
L 91.222851 67.459658 
L 90.993769 67.720808 
L 90.87971 67.863618 
L 90.587187 68.157636 
L 90.485969 68.267578 
L 90.180604 68.547969 
L 90.054064 68.671537 
L 89.774021 68.912074 
L 89.592235 69.075497 
L 89.367437 69.259055 
L 89.105388 69.479457 
L 88.960854 69.592915 
L 88.59581 69.883417 
L 88.554272 69.915014 
L 88.147689 70.22967 
L 88.074307 70.287376 
L 87.741106 70.539706 
L 87.539172 70.691336 
L 87.334523 70.842467 
L 86.984361 71.095296 
L 86.927941 71.136145 
L 86.521357 71.429448 
L 86.423589 71.499256 
L 86.114774 71.721675 
L 85.853089 71.903216 
L 85.708192 72.006301 
L 85.301609 72.285289 
L 85.269966 72.307175 
L 84.895026 72.573921 
L 84.693181 72.711135 
L 84.488443 72.856146 
L 84.102987 73.115095 
L 84.08186 73.130046 
L 83.675277 73.41813 
L 83.526742 73.519055 
L 83.268694 73.703486 
L 82.943816 73.923015 
L 82.862111 73.981588 
L 82.455528 74.266145 
L 82.366365 74.326975 
L 82.048945 74.556264 
L 81.790934 74.730934 
L 81.642363 74.838253 
L 81.235779 75.114698 
L 81.205723 75.134894 
L 80.829196 75.404737 
L 80.626293 75.538854 
L 80.422614 75.683638 
L 80.023118 75.942814 
L 80.016031 75.9478 
L 79.609445 76.22873 
L 79.421455 76.346774 
L 79.202862 76.496047 
L 78.796279 76.746028 
L 78.788494 76.750734 
L 78.389696 77.013805 
L 78.150693 77.154694 
L 77.983114 77.263483 
L 77.576531 77.50639 
L 77.484516 77.558653 
L 77.169948 77.756016 
L 76.798228 77.962613 
L 76.763365 77.984191 
L 76.356782 78.228209 
L 76.100108 78.366573 
L 75.950199 78.456694 
L 75.543616 78.684759 
L 75.380085 78.770532 
L 75.137033 78.91271 
L 74.73045 79.129123 
L 74.641738 79.174492 
L 74.323867 79.355524 
L 73.917284 79.563811 
L 73.887945 79.578452 
L 73.510702 79.787463 
L 73.121096 79.982412 
L 73.104119 79.991891 
L 72.697536 80.209793 
L 72.338725 80.386372 
L 72.290953 80.412479 
L 71.88437 80.622394 
L 71.536311 80.790332 
L 71.477787 80.821503 
L 71.071204 81.022906 
L 70.705578 81.194292 
L 70.664621 81.21534 
L 70.258038 81.404739 
L 69.851455 81.585115 
L 69.81767 81.598251 
L 69.444873 81.754033 
L 69.03829 81.908354 
L 68.754862 82.002211 
L 68.631707 82.045595 
L 68.225123 82.141306 
L 67.818541 82.179064 
L 67.411958 82.060032 
L 67.355482 82.002211 
z
" clip-path="url(#pc2d5f2c9bb)" style="fill: none; stroke: #08519c; stroke-opacity: 0.111111; stroke-width: 1.5"/>
   </g>
   <g id="PathCollection_4">
    <path d="M 70.935108 78.770532 
L 70.99394 78.366573 
L 71.071204 78.173005 
L 71.145826 77.962613 
L 71.344394 77.558653 
L 71.477787 77.334529 
L 71.57513 77.154694 
L 71.828118 76.750734 
L 71.88437 76.671404 
L 72.097525 76.346774 
L 72.290953 76.080472 
L 72.384046 75.942814 
L 72.684291 75.538854 
L 72.697536 75.522204 
L 72.988962 75.134894 
L 73.104119 74.992689 
L 73.305922 74.730934 
L 73.510702 74.482796 
L 73.634006 74.326975 
L 73.917284 73.990698 
L 73.972377 73.923015 
L 74.320078 73.519055 
L 74.323867 73.514771 
L 74.670796 73.115095 
L 74.73045 73.049167 
L 75.033124 72.711135 
L 75.137033 72.599188 
L 75.407614 72.307175 
L 75.543616 72.164673 
L 75.794988 71.903216 
L 75.950199 71.745298 
L 76.196079 71.499256 
L 76.356782 71.340587 
L 76.611784 71.095296 
L 76.763365 70.950028 
L 77.04308 70.691336 
L 77.169948 70.573212 
L 77.491081 70.287376 
L 77.576531 70.209976 
L 77.957143 69.883417 
L 77.983114 69.860499 
L 78.389696 69.517561 
L 78.437663 69.479457 
L 78.796279 69.182785 
L 78.936539 69.075497 
L 79.202862 68.861303 
L 79.46034 68.671537 
L 79.609445 68.555041 
L 80.014503 68.267578 
L 80.016031 68.26642 
L 80.422614 67.975985 
L 80.598814 67.863618 
L 80.829196 67.705231 
L 81.233189 67.459658 
L 81.235779 67.457952 
L 81.642363 67.210621 
L 81.935292 67.055698 
L 82.048945 66.989933 
L 82.455528 66.780379 
L 82.74248 66.651738 
L 82.862111 66.592526 
L 83.268694 66.417155 
L 83.675277 66.26747 
L 83.739486 66.247779 
L 84.08186 66.130536 
L 84.488443 66.019578 
L 84.895026 65.937232 
L 85.301609 65.887425 
L 85.708192 65.877265 
L 86.114774 65.915782 
L 86.521357 66.01114 
L 86.927941 66.167 
L 87.090528 66.247779 
L 87.334523 66.384024 
L 87.724069 66.651738 
L 87.741106 66.667253 
L 88.098803 67.055698 
L 88.147689 67.173254 
L 88.248064 67.459658 
L 88.222003 67.863618 
L 88.147689 68.046679 
L 88.069369 68.267578 
L 87.825056 68.671537 
L 87.741106 68.7728 
L 87.51233 69.075497 
L 87.334523 69.263619 
L 87.145309 69.479457 
L 86.927941 69.687597 
L 86.735118 69.883417 
L 86.521357 70.072851 
L 86.289576 70.287376 
L 86.114774 70.433221 
L 85.814354 70.691336 
L 85.708192 70.775888 
L 85.313707 71.095296 
L 85.301609 71.1046 
L 84.895026 71.424101 
L 84.801064 71.499256 
L 84.488443 71.738412 
L 84.274087 71.903216 
L 84.08186 72.047338 
L 83.733543 72.307175 
L 83.675277 72.350276 
L 83.268694 72.652531 
L 83.190406 72.711135 
L 82.862111 72.95551 
L 82.644292 73.115095 
L 82.455528 73.254453 
L 82.087755 73.519055 
L 82.048945 73.547519 
L 81.642363 73.8445 
L 81.532615 73.923015 
L 81.235779 74.139705 
L 80.968335 74.326975 
L 80.829196 74.427401 
L 80.422614 74.708496 
L 80.389781 74.730934 
L 80.016031 74.994636 
L 79.805113 75.134894 
L 79.609445 75.270575 
L 79.202862 75.534081 
L 79.195392 75.538854 
L 78.796279 75.805477 
L 78.574831 75.942814 
L 78.389696 76.064115 
L 77.983114 76.312645 
L 77.925385 76.346774 
L 77.576531 76.565397 
L 77.254534 76.750734 
L 77.169948 76.802868 
L 76.763365 77.040957 
L 76.555489 77.154694 
L 76.356782 77.271437 
L 75.950199 77.493149 
L 75.823313 77.558653 
L 75.543616 77.713968 
L 75.137033 77.921822 
L 75.05232 77.962613 
L 74.73045 78.129321 
L 74.323867 78.323259 
L 74.225722 78.366573 
L 73.917284 78.512645 
L 73.510702 78.688263 
L 73.301454 78.770532 
L 73.104119 78.853377 
L 72.697536 78.998394 
L 72.290953 79.125544 
L 72.071844 79.174492 
L 71.88437 79.218135 
L 71.477787 79.245635 
L 71.167098 79.174492 
L 71.071204 79.104976 
L 70.935108 78.770532 
z
" clip-path="url(#pc2d5f2c9bb)" style="fill: none; stroke: #08519c; stroke-opacity: 0.333333; stroke-width: 1.5"/>
   </g>
   <g id="PathCollection_5">
    <path d="M 73.03637 77.154694 
L 73.074235 76.750734 
L 73.104119 76.676875 
L 73.2249 76.346774 
L 73.424542 75.942814 
L 73.510702 75.803844 
L 73.663189 75.538854 
L 73.917284 75.151691 
L 73.927609 75.134894 
L 74.212862 74.730934 
L 74.323867 74.587598 
L 74.51689 74.326975 
L 74.73045 74.061517 
L 74.837974 73.923015 
L 75.137033 73.56557 
L 75.174938 73.519055 
L 75.526119 73.115095 
L 75.543616 73.095873 
L 75.891115 72.711135 
L 75.950199 72.648529 
L 76.272934 72.307175 
L 76.356782 72.221611 
L 76.672498 71.903216 
L 76.763365 71.813997 
L 77.091104 71.499256 
L 77.169948 71.424787 
L 77.530416 71.095296 
L 77.576531 71.053375 
L 77.983114 70.698827 
L 77.992032 70.691336 
L 78.389696 70.355903 
L 78.475812 70.287376 
L 78.796279 70.02794 
L 78.98759 69.883417 
L 79.202862 69.715857 
L 79.531845 69.479457 
L 79.609445 69.421307 
L 80.016031 69.139299 
L 80.116139 69.075497 
L 80.422614 68.869757 
L 80.751387 68.671537 
L 80.829196 68.621596 
L 81.235779 68.386831 
L 81.468735 68.267578 
L 81.642363 68.172158 
L 82.048945 67.977996 
L 82.326341 67.863618 
L 82.455528 67.806001 
L 82.862111 67.657063 
L 83.268694 67.536761 
L 83.617133 67.459658 
L 83.675277 67.44571 
L 84.08186 67.391299 
L 84.488443 67.381659 
L 84.895026 67.427636 
L 85.017409 67.459658 
L 85.301609 67.558819 
L 85.708192 67.820059 
L 85.755985 67.863618 
L 85.977986 68.267578 
L 85.987816 68.671537 
L 85.857376 69.075497 
L 85.708192 69.326184 
L 85.626425 69.479457 
L 85.320977 69.883417 
L 85.301609 69.903626 
L 84.960006 70.287376 
L 84.895026 70.348954 
L 84.55503 70.691336 
L 84.488443 70.750106 
L 84.115738 71.095296 
L 84.08186 71.123668 
L 83.675277 71.477008 
L 83.650832 71.499256 
L 83.268694 71.816757 
L 83.167954 71.903216 
L 82.862111 72.148669 
L 82.668557 72.307175 
L 82.455528 72.473671 
L 82.154195 72.711135 
L 82.048945 72.791688 
L 81.642363 73.102443 
L 81.626047 73.115095 
L 81.235779 73.410087 
L 81.090155 73.519055 
L 80.829196 73.712115 
L 80.537839 73.923015 
L 80.422614 74.006526 
L 80.016031 74.293505 
L 79.967993 74.326975 
L 79.609445 74.577685 
L 79.381451 74.730934 
L 79.202862 74.852811 
L 78.796279 75.117584 
L 78.769023 75.134894 
L 78.389696 75.38017 
L 78.130748 75.538854 
L 77.983114 75.632016 
L 77.576531 75.874697 
L 77.456938 75.942814 
L 77.169948 76.111658 
L 76.763365 76.336055 
L 76.742657 76.346774 
L 76.356782 76.553624 
L 75.965884 76.750734 
L 75.950199 76.759014 
L 75.543616 76.950687 
L 75.137033 77.129577 
L 75.069746 77.154694 
L 74.73045 77.285848 
L 74.323867 77.41601 
L 73.917284 77.514938 
L 73.510702 77.546011 
L 73.104119 77.306592 
L 73.03637 77.154694 
z
" clip-path="url(#pc2d5f2c9bb)" style="fill: none; stroke: #08519c; stroke-opacity: 0.555556; stroke-width: 1.5"/>
   </g>
   <g id="PathCollection_6">
    <path d="M 74.709915 75.942814 
L 74.710492 75.538854 
L 74.73045 75.489931 
L 74.864604 75.134894 
L 75.074046 74.730934 
L 75.137033 74.63639 
L 75.333254 74.326975 
L 75.543616 74.034556 
L 75.620809 73.923015 
L 75.934755 73.519055 
L 75.950199 73.501023 
L 76.275208 73.115095 
L 76.356782 73.024787 
L 76.638308 72.711135 
L 76.763365 72.579949 
L 77.024575 72.307175 
L 77.169948 72.162739 
L 77.435299 71.903216 
L 77.576531 71.770307 
L 77.872503 71.499256 
L 77.983114 71.400595 
L 78.338929 71.095296 
L 78.389696 71.052314 
L 78.796279 70.725055 
L 78.840445 70.691336 
L 79.202862 70.416554 
L 79.384558 70.287376 
L 79.609445 70.126228 
L 79.975105 69.883417 
L 80.016031 69.855627 
L 80.422614 69.606102 
L 80.649283 69.479457 
L 80.829196 69.375996 
L 81.235779 69.171001 
L 81.453429 69.075497 
L 81.642363 68.989799 
L 82.048945 68.841263 
L 82.455528 68.723596 
L 82.736798 68.671537 
L 82.862111 68.647939 
L 83.268694 68.632198 
L 83.541261 68.671537 
L 83.675277 68.704315 
L 84.08186 69.01889 
L 84.12026 69.075497 
L 84.153405 69.479457 
L 84.08186 69.674455 
L 84.013828 69.883417 
L 83.769785 70.287376 
L 83.675277 70.400491 
L 83.452666 70.691336 
L 83.268694 70.884811 
L 83.082871 71.095296 
L 82.862111 71.306559 
L 82.672579 71.499256 
L 82.455528 71.692783 
L 82.230305 71.903216 
L 82.048945 72.056345 
L 81.761582 72.307175 
L 81.642363 72.403577 
L 81.269525 72.711135 
L 81.235779 72.737466 
L 80.829196 73.056259 
L 80.754991 73.115095 
L 80.422614 73.365375 
L 80.218418 73.519055 
L 80.016031 73.666192 
L 79.658307 73.923015 
L 79.609445 73.957411 
L 79.202862 74.235523 
L 79.066371 74.326975 
L 78.796279 74.504854 
L 78.442835 74.730934 
L 78.389696 74.764798 
L 77.983114 75.008999 
L 77.765366 75.134894 
L 77.576531 75.243901 
L 77.169948 75.462846 
L 77.017324 75.538854 
L 76.763365 75.66525 
L 76.356782 75.846977 
L 76.111228 75.942814 
L 75.950199 76.00553 
L 75.543616 76.114146 
L 75.137033 76.154289 
L 74.73045 75.973715 
L 74.709915 75.942814 
z
" clip-path="url(#pc2d5f2c9bb)" style="fill: none; stroke: #08519c; stroke-opacity: 0.666667; stroke-width: 1.5"/>
   </g>
   <g id="PathCollection_7">
    <path d="M 76.356004 74.326975 
L 76.356782 74.325334 
L 76.538811 73.923015 
L 76.763365 73.541767 
L 76.776301 73.519055 
L 77.086038 73.115095 
L 77.169948 73.018606 
L 77.435656 72.711135 
L 77.576531 72.563626 
L 77.822835 72.307175 
L 77.983114 72.153745 
L 78.249478 71.903216 
L 78.389696 71.780014 
L 78.718819 71.499256 
L 78.796279 71.436516 
L 79.202862 71.124481 
L 79.243683 71.095296 
L 79.609445 70.848498 
L 79.854619 70.691336 
L 80.016031 70.591698 
L 80.422614 70.369198 
L 80.595359 70.287376 
L 80.829196 70.181477 
L 81.235779 70.041069 
L 81.642363 69.949945 
L 82.048945 69.980253 
L 82.328751 70.287376 
L 82.236295 70.691336 
L 82.048945 71.001984 
L 81.997893 71.095296 
L 81.670335 71.499256 
L 81.642363 71.526651 
L 81.280195 71.903216 
L 81.235779 71.942841 
L 80.845447 72.307175 
L 80.829196 72.320648 
L 80.422614 72.661664 
L 80.365417 72.711135 
L 80.016031 72.979984 
L 79.844427 73.115095 
L 79.609445 73.284341 
L 79.286754 73.519055 
L 79.202862 73.576165 
L 78.796279 73.840579 
L 78.665432 73.923015 
L 78.389696 74.08543 
L 77.983114 74.322632 
L 77.974138 74.326975 
L 77.576531 74.505715 
L 77.169948 74.671263 
L 76.925954 74.730934 
L 76.763365 74.767252 
L 76.539139 74.730934 
L 76.356782 74.33656 
L 76.356004 74.326975 
z
" clip-path="url(#pc2d5f2c9bb)" style="fill: none; stroke: #08519c; stroke-opacity: 0.888889; stroke-width: 1.5"/>
   </g>
   <g id="PathCollection_8"/>
   <g id="PathCollection_9"/>
   <g id="PathCollection_10">
    <path d="M 67.726854 82.406172 
L 67.457882 82.002211 
L 67.552138 81.598251 
L 67.723068 81.194292 
L 67.818541 81.028049 
L 67.941208 80.790332 
L 68.184319 80.386372 
L 68.225123 80.327699 
L 68.443699 79.982412 
L 68.631707 79.712541 
L 68.716692 79.578452 
L 68.996905 79.174492 
L 69.03829 79.119224 
L 69.277644 78.770532 
L 69.444873 78.545614 
L 69.567067 78.366573 
L 69.851455 77.982745 
L 69.86519 77.962613 
L 70.157145 77.558653 
L 70.258038 77.429176 
L 70.457146 77.154694 
L 70.664621 76.890805 
L 70.767773 76.750734 
L 71.071204 76.370281 
L 71.088883 76.346774 
L 71.407498 75.942814 
L 71.477787 75.858885 
L 71.733767 75.538854 
L 71.88437 75.362068 
L 72.070395 75.134894 
L 72.290953 74.880321 
L 72.416124 74.730934 
L 72.697536 74.411252 
L 72.769725 74.326975 
L 73.104119 73.952748 
L 73.130141 73.923015 
L 73.493263 73.519055 
L 73.510702 73.499912 
L 73.857593 73.115095 
L 73.917284 73.050404 
L 74.229638 72.711135 
L 74.323867 72.61052 
L 74.609997 72.307175 
L 74.73045 72.180787 
L 74.999602 71.903216 
L 75.137033 71.761895 
L 75.399623 71.499256 
L 75.543616 71.354483 
L 75.811362 71.095296 
L 75.950199 70.959033 
L 76.236164 70.691336 
L 76.356782 70.575867 
L 76.67536 70.287376 
L 76.763365 70.205202 
L 77.130241 69.883417 
L 77.169948 69.847238 
L 77.576531 69.497547 
L 77.598815 69.479457 
L 77.983114 69.151129 
L 78.078978 69.075497 
L 78.389696 68.816152 
L 78.578057 68.671537 
L 78.796279 68.493576 
L 79.098678 68.267578 
L 79.202862 68.184617 
L 79.609445 67.885725 
L 79.641487 67.863618 
L 80.016031 67.58576 
L 80.204593 67.459658 
L 80.422614 67.302514 
L 80.804544 67.055698 
L 80.829196 67.038484 
L 81.235779 66.772771 
L 81.444876 66.651738 
L 81.642363 66.526959 
L 82.048945 66.298984 
L 82.151605 66.247779 
L 82.455528 66.080269 
L 82.862111 65.888429 
L 82.972895 65.843819 
L 83.268694 65.71036 
L 83.675277 65.560135 
L 84.08186 65.441 
L 84.087417 65.439859 
L 84.488443 65.345633 
L 84.895026 65.289418 
L 85.301609 65.278065 
L 85.708192 65.323987 
L 86.091189 65.439859 
L 86.114774 65.44768 
L 86.521357 65.652915 
L 86.814576 65.843819 
L 86.927941 65.907237 
L 87.334523 66.124422 
L 87.593691 66.247779 
L 87.741106 66.30741 
L 88.147689 66.472961 
L 88.516812 66.651738 
L 88.554272 66.674744 
L 88.960854 67.024758 
L 88.987527 67.055698 
L 89.131603 67.459658 
L 89.089036 67.863618 
L 88.960854 68.15879 
L 88.920354 68.267578 
L 88.668005 68.671537 
L 88.554272 68.80658 
L 88.349929 69.075497 
L 88.147689 69.289207 
L 87.981553 69.479457 
L 87.741106 69.712204 
L 87.574478 69.883417 
L 87.334523 70.100373 
L 87.136032 70.287376 
L 86.927941 70.465708 
L 86.671118 70.691336 
L 86.521357 70.814463 
L 86.183435 71.095296 
L 86.114774 71.150034 
L 85.708192 71.476276 
L 85.68033 71.499256 
L 85.301609 71.800874 
L 85.173116 71.903216 
L 84.895026 72.121355 
L 84.655619 72.307175 
L 84.488443 72.437181 
L 84.128575 72.711135 
L 84.08186 72.747298 
L 83.675277 73.060422 
L 83.603659 73.115095 
L 83.268694 73.375027 
L 83.076375 73.519055 
L 82.862111 73.684117 
L 82.537314 73.923015 
L 82.455528 73.985542 
L 82.048945 74.286519 
L 81.993362 74.326975 
L 81.642363 74.592175 
L 81.448236 74.730934 
L 81.235779 74.890053 
L 80.887667 75.134894 
L 80.829196 75.178354 
L 80.422614 75.47258 
L 80.327312 75.538854 
L 80.016031 75.767663 
L 79.760435 75.942814 
L 79.609445 76.053092 
L 79.202862 76.330869 
L 79.179282 76.346774 
L 78.796279 76.622424 
L 78.603165 76.750734 
L 78.389696 76.90322 
L 78.005606 77.154694 
L 77.983114 77.170634 
L 77.576531 77.452462 
L 77.410181 77.558653 
L 77.169948 77.724913 
L 76.790723 77.962613 
L 76.763365 77.981328 
L 76.356782 78.251012 
L 76.16506 78.366573 
L 75.950199 78.508377 
L 75.543616 78.750646 
L 75.508902 78.770532 
L 75.137033 79.004661 
L 74.833041 79.174492 
L 74.73045 79.237952 
L 74.323867 79.472927 
L 74.124467 79.578452 
L 73.917284 79.700046 
L 73.510702 79.917851 
L 73.383099 79.982412 
L 73.104119 80.138619 
L 72.697536 80.346407 
L 72.616335 80.386372 
L 72.290953 80.562536 
L 71.88437 80.766333 
L 71.83489 80.790332 
L 71.477787 80.979214 
L 71.071204 81.182029 
L 71.045391 81.194292 
L 70.664621 81.389651 
L 70.258038 81.589521 
L 70.238634 81.598251 
L 69.851455 81.784447 
L 69.444873 81.971296 
L 69.366912 82.002211 
L 69.03829 82.139821 
L 68.631707 82.285588 
L 68.225687 82.406172 
L 68.225123 82.406346 
L 67.818541 82.432653 
L 67.726854 82.406172 
z
" clip-path="url(#pc2d5f2c9bb)" style="fill: none; stroke: #d94801; stroke-opacity: 0.222222; stroke-width: 1.5"/>
   </g>
   <g id="PathCollection_11">
    <path d="M 71.065554 79.174492 
L 71.052543 78.770532 
L 71.071204 78.715384 
L 71.176694 78.366573 
L 71.352955 77.962613 
L 71.477787 77.73639 
L 71.567596 77.558653 
L 71.80774 77.154694 
L 71.88437 77.04229 
L 72.069801 76.750734 
L 72.290953 76.438671 
L 72.352119 76.346774 
L 72.649079 75.942814 
L 72.697536 75.88196 
L 72.958319 75.538854 
L 73.104119 75.36122 
L 73.282701 75.134894 
L 73.510702 74.865151 
L 73.620608 74.730934 
L 73.917284 74.389908 
L 73.970785 74.326975 
L 74.323867 73.932753 
L 74.332473 73.923015 
L 74.702369 73.519055 
L 74.73045 73.489249 
L 75.084654 73.115095 
L 75.137033 73.061032 
L 75.481508 72.711135 
L 75.543616 72.64895 
L 75.894492 72.307175 
L 75.950199 72.253179 
L 76.325558 71.903216 
L 76.356782 71.873949 
L 76.763365 71.509812 
L 76.775691 71.499256 
L 77.169948 71.155748 
L 77.244003 71.095296 
L 77.576531 70.815858 
L 77.736158 70.691336 
L 77.983114 70.490741 
L 78.255042 70.287376 
L 78.389696 70.181401 
L 78.796279 69.888375 
L 78.803601 69.883417 
L 79.202862 69.595334 
L 79.38083 69.479457 
L 79.609445 69.319503 
L 79.998511 69.075497 
L 80.016031 69.063608 
L 80.422614 68.809383 
L 80.672269 68.671537 
L 80.829196 68.576857 
L 81.235779 68.360607 
L 81.438027 68.267578 
L 81.642363 68.163794 
L 82.048945 67.991481 
L 82.423365 67.863618 
L 82.455528 67.851342 
L 82.862111 67.741166 
L 83.268694 67.676188 
L 83.675277 67.661827 
L 84.08186 67.703938 
L 84.488443 67.804173 
L 84.654852 67.863618 
L 84.895026 67.958753 
L 85.301609 68.165753 
L 85.467536 68.267578 
L 85.708192 68.502322 
L 85.837914 68.671537 
L 85.900967 69.075497 
L 85.783668 69.479457 
L 85.708192 69.60108 
L 85.55361 69.883417 
L 85.301609 70.210565 
L 85.248571 70.287376 
L 84.895026 70.685062 
L 84.889945 70.691336 
L 84.492941 71.095296 
L 84.488443 71.099349 
L 84.08186 71.484285 
L 84.066988 71.499256 
L 83.675277 71.850585 
L 83.619226 71.903216 
L 83.268694 72.204734 
L 83.153231 72.307175 
L 82.862111 72.54938 
L 82.670959 72.711135 
L 82.455528 72.885553 
L 82.17314 73.115095 
L 82.048945 73.213394 
L 81.659698 73.519055 
L 81.642363 73.532517 
L 81.235779 73.849333 
L 81.140699 73.923015 
L 80.829196 74.161955 
L 80.609706 74.326975 
L 80.422614 74.468148 
L 80.063569 74.730934 
L 80.016031 74.7663 
L 79.609445 75.064594 
L 79.511505 75.134894 
L 79.202862 75.360503 
L 78.947897 75.538854 
L 78.796279 75.64816 
L 78.389696 75.927554 
L 78.367212 75.942814 
L 77.983114 76.212362 
L 77.779953 76.346774 
L 77.576531 76.48748 
L 77.169948 76.750158 
L 77.169034 76.750734 
L 76.763365 77.019335 
L 76.542918 77.154694 
L 76.356782 77.275814 
L 75.950199 77.521116 
L 75.884502 77.558653 
L 75.543616 77.765661 
L 75.189155 77.962613 
L 75.137033 77.993648 
L 74.73045 78.217438 
L 74.436131 78.366573 
L 74.323867 78.427559 
L 73.917284 78.627079 
L 73.601461 78.770532 
L 73.510702 78.814636 
L 73.104119 78.986552 
L 72.697536 79.14462 
L 72.601856 79.174492 
L 72.290953 79.276594 
L 71.88437 79.370139 
L 71.477787 79.395336 
L 71.071204 79.183587 
L 71.065554 79.174492 
z
" clip-path="url(#pc2d5f2c9bb)" style="fill: none; stroke: #d94801; stroke-opacity: 0.444444; stroke-width: 1.5"/>
   </g>
   <g id="PathCollection_12">
    <path d="M 73.096444 77.154694 
L 73.104119 77.130365 
L 73.213269 76.750734 
L 73.399023 76.346774 
L 73.510702 76.161844 
L 73.634552 75.942814 
L 73.900615 75.538854 
L 73.917284 75.516973 
L 74.195957 75.134894 
L 74.323867 74.975136 
L 74.51287 74.730934 
L 74.73045 74.472164 
L 74.849729 74.326975 
L 75.137033 74.001686 
L 75.205721 73.923015 
L 75.543616 73.559175 
L 75.580908 73.519055 
L 75.950199 73.141353 
L 75.976226 73.115095 
L 76.356782 72.745773 
L 76.393434 72.711135 
L 76.763365 72.370607 
L 76.835027 72.307175 
L 77.169948 72.014585 
L 77.30414 71.903216 
L 77.576531 71.677027 
L 77.80448 71.499256 
L 77.983114 71.357915 
L 78.340311 71.095296 
L 78.389696 71.057947 
L 78.796279 70.772878 
L 78.922596 70.691336 
L 79.202862 70.50333 
L 79.557165 70.287376 
L 79.609445 70.253819 
L 80.016031 70.020375 
L 80.282812 69.883417 
L 80.422614 69.807193 
L 80.829196 69.617903 
L 81.176597 69.479457 
L 81.235779 69.454238 
L 81.642363 69.326056 
L 82.048945 69.240558 
L 82.455528 69.20989 
L 82.862111 69.257202 
L 83.268694 69.42182 
L 83.350528 69.479457 
L 83.58948 69.883417 
L 83.559261 70.287376 
L 83.386062 70.691336 
L 83.268694 70.859117 
L 83.12055 71.095296 
L 82.862111 71.406762 
L 82.792178 71.499256 
L 82.455528 71.858729 
L 82.416976 71.903216 
L 82.048945 72.262409 
L 82.005876 72.307175 
L 81.642363 72.63834 
L 81.566272 72.711135 
L 81.235779 72.996387 
L 81.103022 73.115095 
L 80.829196 73.341445 
L 80.61904 73.519055 
L 80.422614 73.6758 
L 80.115655 73.923015 
L 80.016031 74.000207 
L 79.609445 74.314468 
L 79.593416 74.326975 
L 79.202862 74.62106 
L 79.055572 74.730934 
L 78.796279 74.92086 
L 78.497586 75.134894 
L 78.389696 75.212022 
L 77.983114 75.493827 
L 77.916493 75.538854 
L 77.576531 75.769228 
L 77.309419 75.942814 
L 77.169948 76.035024 
L 76.763365 76.289149 
L 76.665989 76.346774 
L 76.356782 76.533701 
L 75.975931 76.750734 
L 75.950199 76.765897 
L 75.543616 76.980247 
L 75.19114 77.154694 
L 75.137033 77.1824 
L 74.73045 77.355453 
L 74.323867 77.508438 
L 74.13601 77.558653 
L 73.917284 77.617841 
L 73.510702 77.646335 
L 73.250406 77.558653 
L 73.104119 77.210261 
L 73.096444 77.154694 
z
" clip-path="url(#pc2d5f2c9bb)" style="fill: none; stroke: #d94801; stroke-opacity: 0.666667; stroke-width: 1.5"/>
   </g>
   <g id="PathCollection_13">
    <path d="M 74.976177 75.942814 
L 74.982603 75.538854 
L 75.137033 75.175345 
L 75.153228 75.134894 
L 75.41441 74.730934 
L 75.543616 74.560545 
L 75.716176 74.326975 
L 75.950199 74.047309 
L 76.052952 73.923015 
L 76.356782 73.592508 
L 76.424438 73.519055 
L 76.763365 73.182172 
L 76.831926 73.115095 
L 77.169948 72.806915 
L 77.278121 72.711135 
L 77.576531 72.460513 
L 77.766938 72.307175 
L 77.983114 72.139105 
L 78.303359 71.903216 
L 78.389696 71.840735 
L 78.796279 71.572563 
L 78.917762 71.499256 
L 79.202862 71.330145 
L 79.609445 71.108002 
L 79.638126 71.095296 
L 80.016031 70.931469 
L 80.422614 70.787481 
L 80.818508 70.691336 
L 80.829196 70.688825 
L 80.989862 70.691336 
L 81.235779 70.700412 
L 81.566761 71.095296 
L 81.460263 71.499256 
L 81.235779 71.888307 
L 81.228049 71.903216 
L 80.904985 72.307175 
L 80.829196 72.384102 
L 80.528384 72.711135 
L 80.422614 72.809123 
L 80.109708 73.115095 
L 80.016031 73.195885 
L 79.655713 73.519055 
L 79.609445 73.556713 
L 79.202862 73.892766 
L 79.16692 73.923015 
L 78.796279 74.206579 
L 78.641278 74.326975 
L 78.389696 74.509256 
L 78.083835 74.730934 
L 77.983114 74.800591 
L 77.576531 75.070435 
L 77.47507 75.134894 
L 77.169948 75.320351 
L 76.802589 75.538854 
L 76.763365 75.56164 
L 76.356782 75.759888 
L 75.964745 75.942814 
L 75.950199 75.949433 
L 75.543616 76.059472 
L 75.137033 76.062605 
L 74.976177 75.942814 
z
" clip-path="url(#pc2d5f2c9bb)" style="fill: none; stroke: #d94801; stroke-opacity: 0.888889; stroke-width: 1.5"/>
   </g>
   <g id="PathCollection_14"/>
   <g id="patch_3">
    <path d="M 37.731406 104.22 
L 37.731406 23.832 
" style="fill: none; stroke: #000000; stroke-width: 1.5; stroke-linejoin: miter; stroke-linecap: square"/>
   </g>
   <g id="patch_4">
    <path d="M 37.731406 104.22 
L 118.641406 104.22 
" style="fill: none; stroke: #000000; stroke-width: 1.5; stroke-linejoin: miter; stroke-linecap: square"/>
   </g>
  </g>
  <g id="axes_2">
   <g id="patch_5">
    <path d="M 37.731406 21.06 
L 118.641406 21.06 
L 118.641406 7.2 
L 37.731406 7.2 
L 37.731406 21.06 
z
" style="fill: none"/>
   </g>
   <g id="PolyCollection_1">
    <defs>
     <path id="m55f5d1de2a" d="M 37.731406 -118.936176 
L 37.731406 -118.860781 
L 38.13799 -118.860781 
L 38.544573 -118.860781 
L 38.951156 -118.860781 
L 39.357739 -118.860781 
L 39.76432 -118.860781 
L 40.170903 -118.860781 
L 40.577486 -118.860781 
L 40.984069 -118.860781 
L 41.390653 -118.860781 
L 41.797236 -118.860781 
L 42.203819 -118.860781 
L 42.6104 -118.860781 
L 43.016983 -118.860781 
L 43.423566 -118.860781 
L 43.830149 -118.860781 
L 44.236733 -118.860781 
L 44.643316 -118.860781 
L 45.049899 -118.860781 
L 45.456482 -118.860781 
L 45.863066 -118.860781 
L 46.269646 -118.860781 
L 46.676229 -118.860781 
L 47.082813 -118.860781 
L 47.489396 -118.860781 
L 47.895979 -118.860781 
L 48.302562 -118.860781 
L 48.709146 -118.860781 
L 49.115726 -118.860781 
L 49.522309 -118.860781 
L 49.928893 -118.860781 
L 50.335476 -118.860781 
L 50.742059 -118.860781 
L 51.148642 -118.860781 
L 51.555226 -118.860781 
L 51.961807 -118.860781 
L 52.368391 -118.860781 
L 52.774974 -118.860781 
L 53.181556 -118.860781 
L 53.588139 -118.860781 
L 53.994722 -118.860781 
L 54.401306 -118.860781 
L 54.807889 -118.860781 
L 55.214471 -118.860781 
L 55.621054 -118.860781 
L 56.027637 -118.860781 
L 56.434219 -118.860781 
L 56.840802 -118.860781 
L 57.247386 -118.860781 
L 57.653969 -118.860781 
L 58.060552 -118.860781 
L 58.467134 -118.860781 
L 58.873717 -118.860781 
L 59.2803 -118.860781 
L 59.686882 -118.860781 
L 60.093465 -118.860781 
L 60.500049 -118.860781 
L 60.906632 -118.860781 
L 61.313215 -118.860781 
L 61.719797 -118.860781 
L 62.12638 -118.860781 
L 62.532964 -118.860781 
L 62.939546 -118.860781 
L 63.346129 -118.860781 
L 63.752712 -118.860781 
L 64.159295 -118.860781 
L 64.565878 -118.860781 
L 64.97246 -118.860781 
L 65.379044 -118.860781 
L 65.785627 -118.860781 
L 66.192209 -118.860781 
L 66.598792 -118.860781 
L 67.005375 -118.860781 
L 67.411958 -118.860781 
L 67.818541 -118.860781 
L 68.225123 -118.860781 
L 68.631707 -118.860781 
L 69.03829 -118.860781 
L 69.444873 -118.860781 
L 69.851455 -118.860781 
L 70.258038 -118.860781 
L 70.664621 -118.860781 
L 71.071204 -118.860781 
L 71.477787 -118.860781 
L 71.88437 -118.860781 
L 72.290953 -118.860781 
L 72.697536 -118.860781 
L 73.104119 -118.860781 
L 73.510702 -118.860781 
L 73.917284 -118.860781 
L 74.323867 -118.860781 
L 74.73045 -118.860781 
L 75.137033 -118.860781 
L 75.543616 -118.860781 
L 75.950199 -118.860781 
L 76.356782 -118.860781 
L 76.763365 -118.860781 
L 77.169948 -118.860781 
L 77.576531 -118.860781 
L 77.983114 -118.860781 
L 78.389696 -118.860781 
L 78.796279 -118.860781 
L 79.202862 -118.860781 
L 79.609445 -118.860781 
L 80.016031 -118.860781 
L 80.422614 -118.860781 
L 80.829196 -118.860781 
L 81.235779 -118.860781 
L 81.642363 -118.860781 
L 82.048945 -118.860781 
L 82.455528 -118.860781 
L 82.862111 -118.860781 
L 83.268694 -118.860781 
L 83.675277 -118.860781 
L 84.08186 -118.860781 
L 84.488443 -118.860781 
L 84.895026 -118.860781 
L 85.301609 -118.860781 
L 85.708192 -118.860781 
L 86.114774 -118.860781 
L 86.521357 -118.860781 
L 86.927941 -118.860781 
L 87.334523 -118.860781 
L 87.741106 -118.860781 
L 88.147689 -118.860781 
L 88.554272 -118.860781 
L 88.960854 -118.860781 
L 89.367437 -118.860781 
L 89.774021 -118.860781 
L 90.180604 -118.860781 
L 90.587187 -118.860781 
L 90.993769 -118.860781 
L 91.400352 -118.860781 
L 91.806935 -118.860781 
L 92.213517 -118.860781 
L 92.620101 -118.860781 
L 93.026684 -118.860781 
L 93.433267 -118.860781 
L 93.83985 -118.860781 
L 94.246432 -118.860781 
L 94.653015 -118.860781 
L 95.059599 -118.860781 
L 95.46618 -118.860781 
L 95.872764 -118.860781 
L 96.279347 -118.860781 
L 96.68593 -118.860781 
L 97.092514 -118.860781 
L 97.499095 -118.860781 
L 97.905679 -118.860781 
L 98.312262 -118.860781 
L 98.718844 -118.860781 
L 99.125427 -118.860781 
L 99.53201 -118.860781 
L 99.938594 -118.860781 
L 100.345177 -118.860781 
L 100.75176 -118.860781 
L 101.158343 -118.860781 
L 101.564924 -118.860781 
L 101.971507 -118.860781 
L 102.37809 -118.860781 
L 102.784673 -118.860781 
L 103.191257 -118.860781 
L 103.59784 -118.860781 
L 104.004423 -118.860781 
L 104.411004 -118.860781 
L 104.817587 -118.860781 
L 105.22417 -118.860781 
L 105.630753 -118.860781 
L 106.037337 -118.860781 
L 106.44392 -118.860781 
L 106.850503 -118.860781 
L 107.257086 -118.860781 
L 107.66367 -118.860781 
L 108.07025 -118.860781 
L 108.476833 -118.860781 
L 108.883417 -118.860781 
L 109.29 -118.860781 
L 109.696583 -118.860781 
L 110.103166 -118.860781 
L 110.50975 -118.860781 
L 110.91633 -118.860781 
L 111.322913 -118.860781 
L 111.729497 -118.860781 
L 112.13608 -118.860781 
L 112.542663 -118.860781 
L 112.949246 -118.860781 
L 113.35583 -118.860781 
L 113.762413 -118.860781 
L 114.168996 -118.860781 
L 114.575576 -118.860781 
L 114.98216 -118.860781 
L 115.388743 -118.860781 
L 115.795326 -118.860781 
L 116.20191 -118.860781 
L 116.608493 -118.860781 
L 117.015073 -118.860781 
L 117.421656 -118.860781 
L 117.82824 -118.860781 
L 118.234823 -118.860781 
L 118.641406 -118.860781 
L 118.641406 -118.989745 
L 118.641406 -118.989745 
L 118.234823 -118.996107 
L 117.82824 -119.002559 
L 117.421656 -119.009042 
L 117.015073 -119.015446 
L 116.608493 -119.02173 
L 116.20191 -119.027999 
L 115.795326 -119.034484 
L 115.388743 -119.041441 
L 114.98216 -119.049051 
L 114.575576 -119.057369 
L 114.168996 -119.06634 
L 113.762413 -119.075856 
L 113.35583 -119.085804 
L 112.949246 -119.096085 
L 112.542663 -119.106599 
L 112.13608 -119.117253 
L 111.729497 -119.128022 
L 111.322913 -119.139036 
L 110.91633 -119.150647 
L 110.50975 -119.163365 
L 110.103166 -119.17769 
L 109.696583 -119.193908 
L 109.29 -119.211989 
L 108.883417 -119.231655 
L 108.476833 -119.252526 
L 108.07025 -119.274237 
L 107.66367 -119.296424 
L 107.257086 -119.318654 
L 106.850503 -119.340399 
L 106.44392 -119.361148 
L 106.037337 -119.38058 
L 105.630753 -119.398684 
L 105.22417 -119.415737 
L 104.817587 -119.432188 
L 104.411004 -119.448552 
L 104.004423 -119.465366 
L 103.59784 -119.483137 
L 103.191257 -119.502255 
L 102.784673 -119.522874 
L 102.37809 -119.54488 
L 101.971507 -119.568033 
L 101.564924 -119.592182 
L 101.158343 -119.617393 
L 100.75176 -119.643863 
L 100.345177 -119.671697 
L 99.938594 -119.700793 
L 99.53201 -119.731007 
L 99.125427 -119.762551 
L 98.718844 -119.796326 
L 98.312262 -119.833915 
L 97.905679 -119.877143 
L 97.499095 -119.927381 
L 97.092514 -119.984925 
L 96.68593 -120.048717 
L 96.279347 -120.116533 
L 95.872764 -120.185619 
L 95.46618 -120.253613 
L 95.059599 -120.319475 
L 94.653015 -120.384072 
L 94.246432 -120.450165 
L 93.83985 -120.52177 
L 93.433267 -120.603139 
L 93.026684 -120.697774 
L 92.620101 -120.807763 
L 92.213517 -120.933571 
L 91.806935 -121.074206 
L 91.400352 -121.227667 
L 90.993769 -121.391581 
L 90.587187 -121.563924 
L 90.180604 -121.743674 
L 89.774021 -121.931191 
L 89.367437 -122.12818 
L 88.960854 -122.337202 
L 88.554272 -122.560889 
L 88.147689 -122.801101 
L 87.741106 -123.058284 
L 87.334523 -123.331222 
L 86.927941 -123.617204 
L 86.521357 -123.912498 
L 86.114774 -124.213026 
L 85.708192 -124.515183 
L 85.301609 -124.816773 
L 84.895026 -125.117747 
L 84.488443 -125.420239 
L 84.08186 -125.727449 
L 83.675277 -126.041509 
L 83.268694 -126.361227 
L 82.862111 -126.680949 
L 82.455528 -126.991216 
L 82.048945 -127.280885 
L 81.642363 -127.539606 
L 81.235779 -127.759459 
L 80.829196 -127.935247 
L 80.422614 -128.063678 
L 80.016031 -128.142116 
L 79.609445 -128.167674 
L 79.202862 -128.137161 
L 78.796279 -128.047987 
L 78.389696 -127.899619 
L 77.983114 -127.694719 
L 77.576531 -127.439215 
L 77.169948 -127.141102 
L 76.763365 -126.80858 
L 76.356782 -126.448604 
L 75.950199 -126.066641 
L 75.543616 -125.667616 
L 75.137033 -125.25721 
L 74.73045 -124.842448 
L 74.323867 -124.431076 
L 73.917284 -124.030183 
L 73.510702 -123.645023 
L 73.104119 -123.278829 
L 72.697536 -122.933544 
L 72.290953 -122.610766 
L 71.88437 -122.312106 
L 71.477787 -122.038769 
L 71.071204 -121.790809 
L 70.664621 -121.566699 
L 70.258038 -121.363621 
L 69.851455 -121.178292 
L 69.444873 -121.007915 
L 69.03829 -120.850819 
L 68.631707 -120.706574 
L 68.225123 -120.57562 
L 67.818541 -120.458557 
L 67.411958 -120.355381 
L 67.005375 -120.264966 
L 66.598792 -120.185017 
L 66.192209 -120.112543 
L 65.785627 -120.044666 
L 65.379044 -119.979414 
L 64.97246 -119.916167 
L 64.565878 -119.855555 
L 64.159295 -119.798875 
L 63.752712 -119.747295 
L 63.346129 -119.70123 
L 62.939546 -119.660144 
L 62.532964 -119.622827 
L 62.12638 -119.587955 
L 61.719797 -119.554583 
L 61.313215 -119.522364 
L 60.906632 -119.491423 
L 60.500049 -119.46206 
L 60.093465 -119.434463 
L 59.686882 -119.408575 
L 59.2803 -119.384099 
L 58.873717 -119.360588 
L 58.467134 -119.337619 
L 58.060552 -119.315013 
L 57.653969 -119.293051 
L 57.247386 -119.272508 
L 56.840802 -119.254377 
L 56.434219 -119.239351 
L 56.027637 -119.227351 
L 55.621054 -119.217414 
L 55.214471 -119.208057 
L 54.807889 -119.197894 
L 54.401306 -119.186147 
L 53.994722 -119.1728 
L 53.588139 -119.158392 
L 53.181556 -119.143654 
L 52.774974 -119.129211 
L 52.368391 -119.115451 
L 51.961807 -119.102553 
L 51.555226 -119.090578 
L 51.148642 -119.079567 
L 50.742059 -119.069565 
L 50.335476 -119.060604 
L 49.928893 -119.052661 
L 49.522309 -119.04566 
L 49.115726 -119.039523 
L 48.709146 -119.03424 
L 48.302562 -119.029872 
L 47.895979 -119.026469 
L 47.489396 -119.023927 
L 47.082813 -119.021894 
L 46.676229 -119.019814 
L 46.269646 -119.017119 
L 45.863066 -119.013457 
L 45.456482 -119.008848 
L 45.049899 -119.003661 
L 44.643316 -118.998441 
L 44.236733 -118.993685 
L 43.830149 -118.989685 
L 43.423566 -118.986485 
L 43.016983 -118.983929 
L 42.6104 -118.981733 
L 42.203819 -118.979545 
L 41.797236 -118.977001 
L 41.390653 -118.973784 
L 40.984069 -118.969712 
L 40.577486 -118.9648 
L 40.170903 -118.959284 
L 39.76432 -118.953581 
L 39.357739 -118.948189 
L 38.951156 -118.943565 
L 38.544573 -118.940011 
L 38.13799 -118.937599 
L 37.731406 -118.936176 
z
" style="stroke: #08519c; stroke-opacity: 0.1"/>
    </defs>
    <g clip-path="url(#pbb984b6f16)">
     <use xlink:href="#m55f5d1de2a" x="0" y="139.920781" style="fill: #08519c; fill-opacity: 0.1; stroke: #08519c; stroke-opacity: 0.1"/>
    </g>
   </g>
   <g id="PolyCollection_2">
    <defs>
     <path id="m202fbc23d2" d="M 37.731406 -118.949263 
L 37.731406 -118.860781 
L 38.13799 -118.860781 
L 38.544573 -118.860781 
L 38.951156 -118.860781 
L 39.357739 -118.860781 
L 39.76432 -118.860781 
L 40.170903 -118.860781 
L 40.577486 -118.860781 
L 40.984069 -118.860781 
L 41.390653 -118.860781 
L 41.797236 -118.860781 
L 42.203819 -118.860781 
L 42.6104 -118.860781 
L 43.016983 -118.860781 
L 43.423566 -118.860781 
L 43.830149 -118.860781 
L 44.236733 -118.860781 
L 44.643316 -118.860781 
L 45.049899 -118.860781 
L 45.456482 -118.860781 
L 45.863066 -118.860781 
L 46.269646 -118.860781 
L 46.676229 -118.860781 
L 47.082813 -118.860781 
L 47.489396 -118.860781 
L 47.895979 -118.860781 
L 48.302562 -118.860781 
L 48.709146 -118.860781 
L 49.115726 -118.860781 
L 49.522309 -118.860781 
L 49.928893 -118.860781 
L 50.335476 -118.860781 
L 50.742059 -118.860781 
L 51.148642 -118.860781 
L 51.555226 -118.860781 
L 51.961807 -118.860781 
L 52.368391 -118.860781 
L 52.774974 -118.860781 
L 53.181556 -118.860781 
L 53.588139 -118.860781 
L 53.994722 -118.860781 
L 54.401306 -118.860781 
L 54.807889 -118.860781 
L 55.214471 -118.860781 
L 55.621054 -118.860781 
L 56.027637 -118.860781 
L 56.434219 -118.860781 
L 56.840802 -118.860781 
L 57.247386 -118.860781 
L 57.653969 -118.860781 
L 58.060552 -118.860781 
L 58.467134 -118.860781 
L 58.873717 -118.860781 
L 59.2803 -118.860781 
L 59.686882 -118.860781 
L 60.093465 -118.860781 
L 60.500049 -118.860781 
L 60.906632 -118.860781 
L 61.313215 -118.860781 
L 61.719797 -118.860781 
L 62.12638 -118.860781 
L 62.532964 -118.860781 
L 62.939546 -118.860781 
L 63.346129 -118.860781 
L 63.752712 -118.860781 
L 64.159295 -118.860781 
L 64.565878 -118.860781 
L 64.97246 -118.860781 
L 65.379044 -118.860781 
L 65.785627 -118.860781 
L 66.192209 -118.860781 
L 66.598792 -118.860781 
L 67.005375 -118.860781 
L 67.411958 -118.860781 
L 67.818541 -118.860781 
L 68.225123 -118.860781 
L 68.631707 -118.860781 
L 69.03829 -118.860781 
L 69.444873 -118.860781 
L 69.851455 -118.860781 
L 70.258038 -118.860781 
L 70.664621 -118.860781 
L 71.071204 -118.860781 
L 71.477787 -118.860781 
L 71.88437 -118.860781 
L 72.290953 -118.860781 
L 72.697536 -118.860781 
L 73.104119 -118.860781 
L 73.510702 -118.860781 
L 73.917284 -118.860781 
L 74.323867 -118.860781 
L 74.73045 -118.860781 
L 75.137033 -118.860781 
L 75.543616 -118.860781 
L 75.950199 -118.860781 
L 76.356782 -118.860781 
L 76.763365 -118.860781 
L 77.169948 -118.860781 
L 77.576531 -118.860781 
L 77.983114 -118.860781 
L 78.389696 -118.860781 
L 78.796279 -118.860781 
L 79.202862 -118.860781 
L 79.609445 -118.860781 
L 80.016031 -118.860781 
L 80.422614 -118.860781 
L 80.829196 -118.860781 
L 81.235779 -118.860781 
L 81.642363 -118.860781 
L 82.048945 -118.860781 
L 82.455528 -118.860781 
L 82.862111 -118.860781 
L 83.268694 -118.860781 
L 83.675277 -118.860781 
L 84.08186 -118.860781 
L 84.488443 -118.860781 
L 84.895026 -118.860781 
L 85.301609 -118.860781 
L 85.708192 -118.860781 
L 86.114774 -118.860781 
L 86.521357 -118.860781 
L 86.927941 -118.860781 
L 87.334523 -118.860781 
L 87.741106 -118.860781 
L 88.147689 -118.860781 
L 88.554272 -118.860781 
L 88.960854 -118.860781 
L 89.367437 -118.860781 
L 89.774021 -118.860781 
L 90.180604 -118.860781 
L 90.587187 -118.860781 
L 90.993769 -118.860781 
L 91.400352 -118.860781 
L 91.806935 -118.860781 
L 92.213517 -118.860781 
L 92.620101 -118.860781 
L 93.026684 -118.860781 
L 93.433267 -118.860781 
L 93.83985 -118.860781 
L 94.246432 -118.860781 
L 94.653015 -118.860781 
L 95.059599 -118.860781 
L 95.46618 -118.860781 
L 95.872764 -118.860781 
L 96.279347 -118.860781 
L 96.68593 -118.860781 
L 97.092514 -118.860781 
L 97.499095 -118.860781 
L 97.905679 -118.860781 
L 98.312262 -118.860781 
L 98.718844 -118.860781 
L 99.125427 -118.860781 
L 99.53201 -118.860781 
L 99.938594 -118.860781 
L 100.345177 -118.860781 
L 100.75176 -118.860781 
L 101.158343 -118.860781 
L 101.564924 -118.860781 
L 101.971507 -118.860781 
L 102.37809 -118.860781 
L 102.784673 -118.860781 
L 103.191257 -118.860781 
L 103.59784 -118.860781 
L 104.004423 -118.860781 
L 104.411004 -118.860781 
L 104.817587 -118.860781 
L 105.22417 -118.860781 
L 105.630753 -118.860781 
L 106.037337 -118.860781 
L 106.44392 -118.860781 
L 106.850503 -118.860781 
L 107.257086 -118.860781 
L 107.66367 -118.860781 
L 108.07025 -118.860781 
L 108.476833 -118.860781 
L 108.883417 -118.860781 
L 109.29 -118.860781 
L 109.696583 -118.860781 
L 110.103166 -118.860781 
L 110.50975 -118.860781 
L 110.91633 -118.860781 
L 111.322913 -118.860781 
L 111.729497 -118.860781 
L 112.13608 -118.860781 
L 112.542663 -118.860781 
L 112.949246 -118.860781 
L 113.35583 -118.860781 
L 113.762413 -118.860781 
L 114.168996 -118.860781 
L 114.575576 -118.860781 
L 114.98216 -118.860781 
L 115.388743 -118.860781 
L 115.795326 -118.860781 
L 116.20191 -118.860781 
L 116.608493 -118.860781 
L 117.015073 -118.860781 
L 117.421656 -118.860781 
L 117.82824 -118.860781 
L 118.234823 -118.860781 
L 118.641406 -118.860781 
L 118.641406 -118.950851 
L 118.641406 -118.950851 
L 118.234823 -118.954003 
L 117.82824 -118.957992 
L 117.421656 -118.963062 
L 117.015073 -118.96912 
L 116.608493 -118.975725 
L 116.20191 -118.982278 
L 115.795326 -118.988322 
L 115.388743 -118.993819 
L 114.98216 -118.999222 
L 114.575576 -119.005312 
L 114.168996 -119.012881 
L 113.762413 -119.022431 
L 113.35583 -119.034034 
L 112.949246 -119.047407 
L 112.542663 -119.062139 
L 112.13608 -119.077905 
L 111.729497 -119.094515 
L 111.322913 -119.11175 
L 110.91633 -119.1291 
L 110.50975 -119.145599 
L 110.103166 -119.159954 
L 109.696583 -119.170952 
L 109.29 -119.177993 
L 108.883417 -119.181465 
L 108.476833 -119.182758 
L 108.07025 -119.183887 
L 107.66367 -119.186872 
L 107.257086 -119.193114 
L 106.850503 -119.20304 
L 106.44392 -119.216131 
L 106.037337 -119.231313 
L 105.630753 -119.247508 
L 105.22417 -119.264051 
L 104.817587 -119.280788 
L 104.411004 -119.297861 
L 104.004423 -119.315392 
L 103.59784 -119.333297 
L 103.191257 -119.351286 
L 102.784673 -119.368985 
L 102.37809 -119.386035 
L 101.971507 -119.402167 
L 101.564924 -119.417316 
L 101.158343 -119.431831 
L 100.75176 -119.44666 
L 100.345177 -119.463306 
L 99.938594 -119.48349 
L 99.53201 -119.508599 
L 99.125427 -119.539216 
L 98.718844 -119.574951 
L 98.312262 -119.614614 
L 97.905679 -119.656613 
L 97.499095 -119.69942 
L 97.092514 -119.741995 
L 96.68593 -119.784122 
L 96.279347 -119.826584 
L 95.872764 -119.871084 
L 95.46618 -119.919825 
L 95.059599 -119.974789 
L 94.653015 -120.036947 
L 94.246432 -120.105765 
L 93.83985 -120.179324 
L 93.433267 -120.255101 
L 93.026684 -120.331082 
L 92.620101 -120.406718 
L 92.213517 -120.483335 
L 91.806935 -120.563913 
L 91.400352 -120.652453 
L 90.993769 -120.753184 
L 90.587187 -120.869824 
L 90.180604 -121.004977 
L 89.774021 -121.159769 
L 89.367437 -121.333884 
L 88.960854 -121.526038 
L 88.554272 -121.734674 
L 88.147689 -121.958483 
L 87.741106 -122.196471 
L 87.334523 -122.447797 
L 86.927941 -122.71189 
L 86.521357 -122.989096 
L 86.114774 -123.281438 
L 85.708192 -123.59259 
L 85.301609 -123.926607 
L 84.895026 -124.285779 
L 84.488443 -124.668716 
L 84.08186 -125.069588 
L 83.675277 -125.478753 
L 83.268694 -125.88445 
L 82.862111 -126.275063 
L 82.455528 -126.641424 
L 82.048945 -126.978503 
L 81.642363 -127.285795 
L 81.235779 -127.566116 
L 80.829196 -127.823202 
L 80.422614 -128.059018 
L 80.016031 -128.271754 
L 79.609445 -128.455184 
L 79.202862 -128.599626 
L 78.796279 -128.694175 
L 78.389696 -128.729266 
L 77.983114 -128.698444 
L 77.576531 -128.598709 
L 77.169948 -128.429777 
L 76.763365 -128.193324 
L 76.356782 -127.893033 
L 75.950199 -127.53537 
L 75.543616 -127.130151 
L 75.137033 -126.689975 
L 74.73045 -126.228458 
L 74.323867 -125.758138 
L 73.917284 -125.289123 
L 73.510702 -124.82892 
L 73.104119 -124.38302 
L 72.697536 -123.955491 
L 72.290953 -123.549224 
L 71.88437 -123.166055 
L 71.477787 -122.807122 
L 71.071204 -122.473482 
L 70.664621 -122.166551 
L 70.258038 -121.887929 
L 69.851455 -121.638623 
L 69.444873 -121.418174 
L 69.03829 -121.224256 
L 68.631707 -121.053007 
L 68.225123 -120.89986 
L 67.818541 -120.760446 
L 67.411958 -120.631241 
L 67.005375 -120.509833 
L 66.598792 -120.394901 
L 66.192209 -120.286014 
L 65.785627 -120.183405 
L 65.379044 -120.087754 
L 64.97246 -120 
L 64.565878 -119.921091 
L 64.159295 -119.851653 
L 63.752712 -119.791628 
L 63.346129 -119.740055 
L 62.939546 -119.695199 
L 62.532964 -119.655006 
L 62.12638 -119.617678 
L 61.719797 -119.582029 
L 61.313215 -119.547508 
L 60.906632 -119.513982 
L 60.500049 -119.481532 
L 60.093465 -119.450396 
L 59.686882 -119.420968 
L 59.2803 -119.393728 
L 58.873717 -119.369035 
L 58.467134 -119.346916 
L 58.060552 -119.326982 
L 57.653969 -119.308566 
L 57.247386 -119.290992 
L 56.840802 -119.27381 
L 56.434219 -119.256857 
L 56.027637 -119.240139 
L 55.621054 -119.223649 
L 55.214471 -119.207274 
L 54.807889 -119.190856 
L 54.401306 -119.174371 
L 53.994722 -119.158094 
L 53.588139 -119.14262 
L 53.181556 -119.12869 
L 52.774974 -119.116889 
L 52.368391 -119.10735 
L 51.961807 -119.099643 
L 51.555226 -119.092923 
L 51.148642 -119.086265 
L 50.742059 -119.079053 
L 50.335476 -119.071231 
L 49.928893 -119.063326 
L 49.522309 -119.056197 
L 49.115726 -119.050634 
L 48.709146 -119.046986 
L 48.302562 -119.045009 
L 47.895979 -119.043997 
L 47.489396 -119.043096 
L 47.082813 -119.041594 
L 46.676229 -119.03905 
L 46.269646 -119.035261 
L 45.863066 -119.030179 
L 45.456482 -119.023891 
L 45.049899 -119.016654 
L 44.643316 -119.008905 
L 44.236733 -119.001184 
L 43.830149 -118.993975 
L 43.423566 -118.987573 
L 43.016983 -118.982056 
L 42.6104 -118.977375 
L 42.203819 -118.973499 
L 41.797236 -118.970479 
L 41.390653 -118.968397 
L 40.984069 -118.967202 
L 40.577486 -118.966586 
L 40.170903 -118.965995 
L 39.76432 -118.964827 
L 39.357739 -118.962695 
L 38.951156 -118.959615 
L 38.544573 -118.95599 
L 38.13799 -118.952388 
L 37.731406 -118.949263 
z
" style="stroke: #d94801; stroke-opacity: 0.1"/>
    </defs>
    <g clip-path="url(#pbb984b6f16)">
     <use xlink:href="#m202fbc23d2" x="0" y="139.920781" style="fill: #d94801; fill-opacity: 0.1; stroke: #d94801; stroke-opacity: 0.1"/>
    </g>
   </g>
   <g id="matplotlib.axis_3">
    <g id="xtick_4">
     <g id="line2d_7">
      <g>
       <use xlink:href="#mc2f41f574e" x="43.955252" y="21.06" style="stroke: #000000; stroke-width: 1.5"/>
      </g>
     </g>
    </g>
    <g id="xtick_5">
     <g id="line2d_8">
      <g>
       <use xlink:href="#mc2f41f574e" x="75.074483" y="21.06" style="stroke: #000000; stroke-width: 1.5"/>
      </g>
     </g>
    </g>
    <g id="xtick_6">
     <g id="line2d_9">
      <g>
       <use xlink:href="#mc2f41f574e" x="106.193714" y="21.06" style="stroke: #000000; stroke-width: 1.5"/>
      </g>
     </g>
    </g>
   </g>
   <g id="matplotlib.axis_4">
    <g id="ytick_4">
     <g id="line2d_10">
      <g>
       <use xlink:href="#m58df2a671d" x="37.731406" y="21.06" style="stroke: #000000; stroke-width: 1.5"/>
      </g>
     </g>
    </g>
    <g id="ytick_5">
     <g id="line2d_11">
      <g>
       <use xlink:href="#m58df2a671d" x="37.731406" y="7.75495" style="stroke: #000000; stroke-width: 1.5"/>
      </g>
     </g>
    </g>
   </g>
   <g id="line2d_12">
    <path d="M 37.731406 20.984605 
L 51.555226 20.830203 
L 60.500049 20.458721 
L 64.565878 20.065226 
L 67.411958 19.565401 
L 69.03829 19.069963 
L 70.664621 18.354082 
L 71.88437 17.608676 
L 73.104119 16.641952 
L 75.137033 14.663571 
L 76.763365 13.112201 
L 77.983114 12.226063 
L 78.796279 11.872794 
L 79.609445 11.753107 
L 80.422614 11.857104 
L 81.235779 12.161322 
L 82.455528 12.929566 
L 87.741106 16.862497 
L 89.367437 17.792601 
L 91.400352 18.693114 
L 93.026684 19.223007 
L 95.059599 19.601306 
L 99.125427 20.15823 
L 104.817587 20.488594 
L 118.234823 20.924675 
L 118.641406 20.931036 
L 118.641406 20.931036 
" clip-path="url(#pbb984b6f16)" style="fill: none; stroke: #08519c; stroke-width: 1.5; stroke-linecap: square"/>
   </g>
   <g id="line2d_13">
    <path d="M 37.731406 20.971519 
L 54.807889 20.729925 
L 61.313215 20.373273 
L 64.565878 19.999691 
L 66.598792 19.52588 
L 68.631707 18.867774 
L 69.851455 18.282158 
L 71.071204 17.447299 
L 72.290953 16.371557 
L 73.917284 14.631658 
L 75.950199 12.385412 
L 76.763365 11.727457 
L 77.576531 11.322073 
L 78.389696 11.191515 
L 79.202862 11.321155 
L 80.422614 11.861763 
L 81.642363 12.634986 
L 82.862111 13.645719 
L 86.114774 16.639344 
L 87.741106 17.72431 
L 89.367437 18.586897 
L 90.993769 19.167597 
L 93.433267 19.66568 
L 96.279347 20.094197 
L 100.75176 20.474122 
L 116.608493 20.945056 
L 118.641406 20.96993 
L 118.641406 20.96993 
" clip-path="url(#pbb984b6f16)" style="fill: none; stroke: #d94801; stroke-width: 1.5; stroke-linecap: square"/>
   </g>
   <g id="patch_6">
    <path d="M 37.731406 21.06 
L 37.731406 7.2 
" style="fill: none; stroke: #000000; stroke-width: 1.5; stroke-linejoin: miter; stroke-linecap: square"/>
   </g>
   <g id="patch_7">
    <path d="M 37.731406 21.06 
L 118.641406 21.06 
" style="fill: none; stroke: #000000; stroke-width: 1.5; stroke-linejoin: miter; stroke-linecap: square"/>
   </g>
  </g>
  <g id="axes_3">
   <g id="patch_8">
    <path d="M 121.431406 104.22 
L 135.381406 104.22 
L 135.381406 23.832 
L 121.431406 23.832 
L 121.431406 104.22 
z
" style="fill: none"/>
   </g>
   <g id="PolyCollection_3">
    <defs>
     <path id="me2f425f2d6" d="M 121.507541 -35.700781 
L 121.507541 -72.804805 
L 121.510816 -72.810206 
L 121.514029 -72.815504 
L 121.517362 -72.821 
L 121.520869 -72.826782 
L 121.524497 -72.832765 
L 121.528204 -72.838877 
L 121.532059 -72.845235 
L 121.536259 -72.852159 
L 121.541026 -72.860022 
L 121.546494 -72.869038 
L 121.552626 -72.879149 
L 121.559236 -72.890049 
L 121.566081 -72.901336 
L 121.572987 -72.912723 
L 121.579951 -72.924207 
L 121.587163 -72.936099 
L 121.594926 -72.9489 
L 121.603526 -72.963082 
L 121.613137 -72.97893 
L 121.623813 -72.996534 
L 121.635565 -73.015913 
L 121.648434 -73.037133 
L 121.662478 -73.060292 
L 121.677685 -73.085368 
L 121.693865 -73.112049 
L 121.710658 -73.13974 
L 121.72767 -73.167792 
L 121.744701 -73.195875 
L 121.761906 -73.224246 
L 121.779779 -73.253718 
L 121.798944 -73.285321 
L 121.819872 -73.319831 
L 121.842687 -73.357453 
L 121.867185 -73.397848 
L 121.893038 -73.440479 
L 121.920086 -73.485081 
L 121.948521 -73.531971 
L 121.978869 -73.582013 
L 122.01175 -73.636233 
L 122.047573 -73.695304 
L 122.086319 -73.759196 
L 122.127554 -73.827192 
L 122.17065 -73.898256 
L 122.215103 -73.971558 
L 122.260797 -74.046905 
L 122.308116 -74.124933 
L 122.357898 -74.207022 
L 122.411265 -74.295023 
L 122.469454 -74.390975 
L 122.533764 -74.497021 
L 122.605656 -74.61557 
L 122.686933 -74.749593 
L 122.779861 -74.902828 
L 122.88717 -75.079779 
L 123.011936 -75.285514 
L 123.15733 -75.525267 
L 123.326229 -75.803777 
L 123.520703 -76.124459 
L 123.741608 -76.488726 
L 123.988581 -76.895979 
L 124.260599 -77.344529 
L 124.556941 -77.83319 
L 124.878154 -78.362863 
L 125.226507 -78.937289 
L 125.605546 -79.562314 
L 126.018652 -80.243516 
L 126.466968 -80.982778 
L 126.947565 -81.77527 
L 127.452896 -82.608549 
L 127.972034 -83.464595 
L 128.493161 -84.32392 
L 129.00598 -85.169547 
L 129.502855 -85.988881 
L 129.978315 -86.772904 
L 130.427587 -87.513742 
L 130.845014 -88.202068 
L 131.222949 -88.825274 
L 131.55128 -89.366683 
L 131.817682 -89.805973 
L 132.008837 -90.121183 
L 132.112667 -90.292397 
L 132.121035 -90.306195 
L 132.031799 -90.159048 
L 131.849184 -89.857921 
L 131.582298 -89.417831 
L 131.242724 -88.857883 
L 130.84258 -88.198055 
L 130.393812 -87.458048 
L 129.908399 -86.657613 
L 129.398432 -85.81669 
L 128.875373 -84.954178 
L 128.348761 -84.085809 
L 127.825375 -83.222758 
L 127.309656 -82.37235 
L 126.805336 -81.540739 
L 126.317301 -80.735981 
L 125.852531 -79.969586 
L 125.419516 -79.255555 
L 125.026415 -78.607342 
L 124.678876 -78.034258 
L 124.378508 -77.538959 
L 124.122616 -77.117 
L 123.905172 -76.758439 
L 123.718539 -76.450685 
L 123.555261 -76.181444 
L 123.409389 -75.940905 
L 123.277108 -75.722778 
L 123.156716 -75.524254 
L 123.048091 -75.345134 
L 122.951857 -75.186447 
L 122.868497 -75.048988 
L 122.797687 -74.932224 
L 122.738055 -74.833892 
L 122.687382 -74.750334 
L 122.643123 -74.677352 
L 122.603008 -74.611203 
L 122.565477 -74.549316 
L 122.529742 -74.490389 
L 122.495454 -74.433849 
L 122.462228 -74.379059 
L 122.429412 -74.324947 
L 122.396329 -74.270395 
L 122.362818 -74.215136 
L 122.329607 -74.160372 
L 122.298147 -74.108495 
L 122.269933 -74.06197 
L 122.245737 -74.022071 
L 122.225232 -73.98826 
L 122.207201 -73.958527 
L 122.190139 -73.930393 
L 122.172875 -73.901924 
L 122.154866 -73.872227 
L 122.136102 -73.841286 
L 122.116806 -73.809467 
L 122.097211 -73.777156 
L 122.077558 -73.744749 
L 122.058198 -73.712825 
L 122.039612 -73.682177 
L 122.022247 -73.653543 
L 122.00631 -73.627263 
L 121.991678 -73.603135 
L 121.978021 -73.580615 
L 121.965029 -73.559192 
L 121.952583 -73.538668 
L 121.940716 -73.519101 
L 121.929394 -73.50043 
L 121.918252 -73.482056 
L 121.906547 -73.462756 
L 121.893422 -73.441113 
L 121.878334 -73.416234 
L 121.861372 -73.388264 
L 121.84323 -73.358348 
L 121.824908 -73.328136 
L 121.807373 -73.29922 
L 121.791379 -73.272846 
L 121.777439 -73.249859 
L 121.765792 -73.230655 
L 121.75631 -73.215019 
L 121.748435 -73.202033 
L 121.741301 -73.19027 
L 121.734038 -73.178293 
L 121.726079 -73.165169 
L 121.717307 -73.150704 
L 121.707986 -73.135334 
L 121.698579 -73.119822 
L 121.689563 -73.104955 
L 121.681274 -73.091286 
L 121.673778 -73.078925 
L 121.666806 -73.067429 
L 121.659832 -73.055929 
L 121.652307 -73.043521 
L 121.64397 -73.029773 
L 121.635027 -73.015027 
L 121.626081 -73.000275 
L 121.617828 -72.986665 
L 121.610708 -72.974924 
L 121.60472 -72.96505 
L 121.599486 -72.956419 
L 121.594501 -72.948199 
L 121.58942 -72.939821 
L 121.584224 -72.931253 
L 121.579211 -72.922986 
L 121.574836 -72.915772 
L 121.5715 -72.910271 
L 121.569391 -72.906794 
L 121.56845 -72.905242 
L 121.568413 -72.905182 
L 121.568875 -72.905942 
L 121.569296 -72.906637 
L 121.569014 -72.906173 
L 121.567327 -72.90339 
L 121.563673 -72.897365 
L 121.557851 -72.887765 
L 121.550146 -72.875059 
L 121.541283 -72.860444 
L 121.532236 -72.845527 
L 121.523954 -72.831869 
L 121.517107 -72.820579 
L 121.511942 -72.812061 
L 121.511942 -116.088781 
L 121.511942 -116.088781 
L 121.517107 -115.68482 
L 121.523954 -115.280862 
L 121.532236 -114.8769 
L 121.541283 -114.472942 
L 121.550146 -114.068981 
L 121.557851 -113.665023 
L 121.563673 -113.261061 
L 121.567327 -112.857104 
L 121.569014 -112.453142 
L 121.569296 -112.049184 
L 121.568875 -111.645222 
L 121.568413 -111.241265 
L 121.56845 -110.837303 
L 121.569391 -110.433345 
L 121.5715 -110.029384 
L 121.574836 -109.625426 
L 121.579211 -109.221464 
L 121.584224 -108.817506 
L 121.58942 -108.413545 
L 121.594501 -108.009587 
L 121.599486 -107.605625 
L 121.60472 -107.201668 
L 121.610708 -106.797706 
L 121.617828 -106.393748 
L 121.626081 -105.989787 
L 121.635027 -105.585829 
L 121.64397 -105.181867 
L 121.652307 -104.777907 
L 121.659832 -104.373948 
L 121.666806 -103.969988 
L 121.673778 -103.566028 
L 121.681274 -103.162067 
L 121.689563 -102.758107 
L 121.698579 -102.354147 
L 121.707986 -101.950187 
L 121.717307 -101.546228 
L 121.726079 -101.142268 
L 121.734038 -100.738308 
L 121.741301 -100.334349 
L 121.748435 -99.930389 
L 121.75631 -99.526429 
L 121.765792 -99.122469 
L 121.777439 -98.71851 
L 121.791379 -98.31455 
L 121.807373 -97.91059 
L 121.824908 -97.506631 
L 121.84323 -97.102671 
L 121.861372 -96.698709 
L 121.878334 -96.29475 
L 121.893422 -95.89079 
L 121.906547 -95.48683 
L 121.918252 -95.08287 
L 121.929394 -94.678911 
L 121.940716 -94.274951 
L 121.952583 -93.870991 
L 121.965029 -93.467032 
L 121.978021 -93.063072 
L 121.991678 -92.659112 
L 122.00631 -92.255152 
L 122.022247 -91.851193 
L 122.039612 -91.447233 
L 122.058198 -91.043273 
L 122.077558 -90.639314 
L 122.097211 -90.235354 
L 122.116806 -89.831394 
L 122.136102 -89.427434 
L 122.154866 -89.023475 
L 122.172875 -88.619514 
L 122.190139 -88.215554 
L 122.207201 -87.811595 
L 122.225232 -87.407635 
L 122.245737 -87.003676 
L 122.269933 -86.599717 
L 122.298147 -86.195757 
L 122.329607 -85.791796 
L 122.362818 -85.387836 
L 122.396329 -84.983877 
L 122.429412 -84.579917 
L 122.462228 -84.175957 
L 122.495454 -83.771998 
L 122.529742 -83.368037 
L 122.565477 -82.964077 
L 122.603008 -82.560117 
L 122.643123 -82.156158 
L 122.687382 -81.752198 
L 122.738055 -81.348238 
L 122.797687 -80.944279 
L 122.868497 -80.540319 
L 122.951857 -80.136359 
L 123.048091 -79.732399 
L 123.156716 -79.328439 
L 123.277108 -78.924479 
L 123.409389 -78.520519 
L 123.555261 -78.11656 
L 123.718539 -77.7126 
L 123.905172 -77.308641 
L 124.122616 -76.904681 
L 124.378508 -76.500721 
L 124.678876 -76.096762 
L 125.026415 -75.692802 
L 125.419516 -75.288842 
L 125.852531 -74.884882 
L 126.317301 -74.480922 
L 126.805336 -74.076963 
L 127.309656 -73.673003 
L 127.825375 -73.269043 
L 128.348761 -72.865083 
L 128.875373 -72.461123 
L 129.398432 -72.057163 
L 129.908399 -71.653204 
L 130.393812 -71.249244 
L 130.84258 -70.845284 
L 131.242724 -70.441324 
L 131.582298 -70.037364 
L 131.849184 -69.633405 
L 132.031799 -69.229445 
L 132.121035 -68.825485 
L 132.112667 -68.421525 
L 132.008837 -68.017565 
L 131.817682 -67.613606 
L 131.55128 -67.209646 
L 131.222949 -66.805686 
L 130.845014 -66.401727 
L 130.427587 -65.997766 
L 129.978315 -65.593807 
L 129.502855 -65.189847 
L 129.00598 -64.785887 
L 128.493161 -64.381928 
L 127.972034 -63.977967 
L 127.452896 -63.574007 
L 126.947565 -63.170047 
L 126.466968 -62.766088 
L 126.018652 -62.362128 
L 125.605546 -61.958168 
L 125.226507 -61.554209 
L 124.878154 -61.150249 
L 124.556941 -60.746289 
L 124.260599 -60.342329 
L 123.988581 -59.938369 
L 123.741608 -59.534409 
L 123.520703 -59.130449 
L 123.326229 -58.72649 
L 123.15733 -58.32253 
L 123.011936 -57.91857 
L 122.88717 -57.51461 
L 122.779861 -57.11065 
L 122.686933 -56.70669 
L 122.605656 -56.30273 
L 122.533764 -55.898771 
L 122.469454 -55.494811 
L 122.411265 -55.090851 
L 122.357898 -54.686892 
L 122.308116 -54.282932 
L 122.260797 -53.878972 
L 122.215103 -53.475012 
L 122.17065 -53.071053 
L 122.127554 -52.667093 
L 122.086319 -52.263133 
L 122.047573 -51.859174 
L 122.01175 -51.455214 
L 121.978869 -51.051254 
L 121.948521 -50.647294 
L 121.920086 -50.243335 
L 121.893038 -49.839375 
L 121.867185 -49.435415 
L 121.842687 -49.031456 
L 121.819872 -48.627496 
L 121.798944 -48.223534 
L 121.779779 -47.819575 
L 121.761906 -47.415615 
L 121.744701 -47.011655 
L 121.72767 -46.607695 
L 121.710658 -46.203736 
L 121.693865 -45.799776 
L 121.677685 -45.395816 
L 121.662478 -44.991857 
L 121.648434 -44.587897 
L 121.635565 -44.183937 
L 121.623813 -43.779977 
L 121.613137 -43.376018 
L 121.603526 -42.972058 
L 121.594926 -42.568098 
L 121.587163 -42.164139 
L 121.579951 -41.760177 
L 121.572987 -41.356217 
L 121.566081 -40.952258 
L 121.559236 -40.548298 
L 121.552626 -40.14434 
L 121.546494 -39.740378 
L 121.541026 -39.336421 
L 121.536259 -38.932459 
L 121.532059 -38.528501 
L 121.528204 -38.12454 
L 121.524497 -37.720582 
L 121.520869 -37.31662 
L 121.517362 -36.912662 
L 121.514029 -36.508701 
L 121.510816 -36.104743 
L 121.507541 -35.700781 
z
" style="stroke: #08519c; stroke-opacity: 0.1"/>
    </defs>
    <g clip-path="url(#p315cd8bc41)">
     <use xlink:href="#me2f425f2d6" x="0" y="139.920781" style="fill: #08519c; fill-opacity: 0.1; stroke: #08519c; stroke-opacity: 0.1"/>
    </g>
   </g>
   <g id="PolyCollection_4">
    <defs>
     <path id="m0da916e135" d="M 121.512837 -35.700781 
L 121.512837 -72.813538 
L 121.518989 -72.823683 
L 121.524784 -72.833238 
L 121.530274 -72.842291 
L 121.53564 -72.85114 
L 121.541097 -72.860137 
L 121.546863 -72.869647 
L 121.553166 -72.880039 
L 121.560179 -72.891604 
L 121.567922 -72.904371 
L 121.576203 -72.918027 
L 121.584716 -72.932064 
L 121.59323 -72.946103 
L 121.601739 -72.960134 
L 121.610432 -72.97447 
L 121.61951 -72.989438 
L 121.628953 -73.00501 
L 121.638402 -73.020591 
L 121.647206 -73.035109 
L 121.654688 -73.047447 
L 121.660522 -73.057067 
L 121.665067 -73.064562 
L 121.669463 -73.071811 
L 121.675372 -73.081555 
L 121.684444 -73.096514 
L 121.697719 -73.118404 
L 121.715253 -73.147317 
L 121.73616 -73.181792 
L 121.759064 -73.21956 
L 121.782717 -73.258564 
L 121.806455 -73.297707 
L 121.830295 -73.337018 
L 121.854746 -73.377338 
L 121.880529 -73.419853 
L 121.908318 -73.465676 
L 121.938509 -73.515461 
L 121.970999 -73.569035 
L 122.005098 -73.625265 
L 122.039803 -73.682491 
L 122.074402 -73.739545 
L 122.109135 -73.796818 
L 122.145414 -73.856642 
L 122.185413 -73.922599 
L 122.231225 -73.998142 
L 122.284158 -74.085427 
L 122.344616 -74.185121 
L 122.412617 -74.297253 
L 122.488512 -74.422402 
L 122.573331 -74.562266 
L 122.668505 -74.719206 
L 122.775283 -74.89528 
L 122.894408 -75.091714 
L 123.026413 -75.309388 
L 123.172256 -75.549879 
L 123.333635 -75.815989 
L 123.5126 -76.111098 
L 123.710808 -76.437938 
L 123.929284 -76.7982 
L 124.169229 -77.193863 
L 124.433437 -77.629536 
L 124.727076 -78.113739 
L 125.056809 -78.657461 
L 125.4284 -79.270205 
L 125.844157 -79.955779 
L 126.301753 -80.710342 
L 126.795013 -81.523717 
L 127.31598 -82.382779 
L 127.856848 -83.274656 
L 128.410726 -84.187987 
L 128.971033 -85.11192 
L 129.530063 -86.033747 
L 130.07761 -86.936638 
L 130.600485 -87.798847 
L 131.083423 -88.595199 
L 131.511109 -89.300442 
L 131.870318 -89.89277 
L 132.150969 -90.355555 
L 132.345697 -90.676657 
L 132.448858 -90.846767 
L 132.45639 -90.859188 
L 132.367182 -90.712086 
L 132.185003 -90.411677 
L 131.919136 -89.973269 
L 131.582552 -89.41825 
L 131.188342 -88.768209 
L 130.746662 -88.039888 
L 130.264163 -87.24426 
L 129.746087 -86.389965 
L 129.199206 -85.488171 
L 128.633437 -84.555233 
L 128.061211 -83.611646 
L 127.495363 -82.678577 
L 126.947071 -81.774456 
L 126.424858 -80.91334 
L 125.934721 -80.105115 
L 125.48085 -79.356693 
L 125.066443 -78.673346 
L 124.694249 -78.059608 
L 124.3666 -77.519323 
L 124.084783 -77.054614 
L 123.848025 -76.664205 
L 123.652753 -76.342206 
L 123.492741 -76.07835 
L 123.360177 -75.859756 
L 123.247119 -75.673326 
L 123.14669 -75.507721 
L 123.053721 -75.354417 
L 122.964907 -75.207966 
L 122.878713 -75.065834 
L 122.795156 -74.92805 
L 122.715486 -74.796676 
L 122.641694 -74.674995 
L 122.575839 -74.566402 
L 122.519369 -74.473284 
L 122.472686 -74.396305 
L 122.435126 -74.33437 
L 122.405246 -74.285099 
L 122.381163 -74.245386 
L 122.360764 -74.211749 
L 122.341794 -74.180467 
L 122.321956 -74.147755 
L 122.299159 -74.110163 
L 122.271923 -74.065252 
L 122.239865 -74.012389 
L 122.204067 -73.953359 
L 122.167105 -73.892409 
L 122.13255 -73.835429 
L 122.103972 -73.788305 
L 122.08375 -73.75496 
L 122.072192 -73.7359 
L 122.06739 -73.727982 
L 122.065899 -73.725524 
L 122.063903 -73.722233 
L 122.058326 -73.713036 
L 122.047474 -73.695141 
L 122.031086 -73.668117 
L 122.009988 -73.633327 
L 121.985632 -73.593165 
L 121.959712 -73.550424 
L 121.933908 -73.507873 
L 121.909652 -73.467876 
L 121.887882 -73.431978 
L 121.868832 -73.400564 
L 121.852078 -73.372938 
L 121.83695 -73.347992 
L 121.823082 -73.325124 
L 121.810714 -73.30473 
L 121.800455 -73.287813 
L 121.792705 -73.275033 
L 121.787223 -73.265993 
L 121.783172 -73.259313 
L 121.779535 -73.253316 
L 121.775493 -73.246651 
L 121.770494 -73.238408 
L 121.764111 -73.227882 
L 121.755968 -73.214455 
L 121.745874 -73.19781 
L 121.734005 -73.178238 
L 121.720895 -73.15662 
L 121.707217 -73.134066 
L 121.69354 -73.111512 
L 121.680272 -73.089633 
L 121.667799 -73.069066 
L 121.656614 -73.050623 
L 121.647268 -73.035211 
L 121.640136 -73.023451 
L 121.63516 -73.015245 
L 121.631736 -73.0096 
L 121.628853 -73.004846 
L 121.625406 -72.999161 
L 121.620556 -72.991164 
L 121.61398 -72.980319 
L 121.605909 -72.967011 
L 121.596989 -72.952303 
L 121.588022 -72.937516 
L 121.579714 -72.923817 
L 121.572511 -72.911938 
L 121.566547 -72.902104 
L 121.56168 -72.894078 
L 121.557549 -72.887267 
L 121.553662 -72.880857 
L 121.549516 -72.874021 
L 121.544796 -72.866237 
L 121.539548 -72.857583 
L 121.534224 -72.848804 
L 121.52951 -72.841032 
L 121.526001 -72.835245 
L 121.523879 -72.831747 
L 121.522794 -72.829956 
L 121.522005 -72.828655 
L 121.520728 -72.82655 
L 121.51848 -72.822843 
L 121.515248 -72.817514 
L 121.511414 -72.811191 
L 121.507505 -72.804745 
L 121.503936 -72.79886 
L 121.500864 -72.793794 
L 121.498207 -72.789414 
L 121.495789 -72.785427 
L 121.493501 -72.781654 
L 121.493501 -116.088781 
L 121.493501 -116.088781 
L 121.495789 -115.68482 
L 121.498207 -115.280862 
L 121.500864 -114.8769 
L 121.503936 -114.472942 
L 121.507505 -114.068981 
L 121.511414 -113.665023 
L 121.515248 -113.261061 
L 121.51848 -112.857104 
L 121.520728 -112.453142 
L 121.522005 -112.049184 
L 121.522794 -111.645222 
L 121.523879 -111.241265 
L 121.526001 -110.837303 
L 121.52951 -110.433345 
L 121.534224 -110.029384 
L 121.539548 -109.625426 
L 121.544796 -109.221464 
L 121.549516 -108.817506 
L 121.553662 -108.413545 
L 121.557549 -108.009587 
L 121.56168 -107.605625 
L 121.566547 -107.201668 
L 121.572511 -106.797706 
L 121.579714 -106.393748 
L 121.588022 -105.989787 
L 121.596989 -105.585829 
L 121.605909 -105.181867 
L 121.61398 -104.777907 
L 121.620556 -104.373948 
L 121.625406 -103.969988 
L 121.628853 -103.566028 
L 121.631736 -103.162067 
L 121.63516 -102.758107 
L 121.640136 -102.354147 
L 121.647268 -101.950187 
L 121.656614 -101.546228 
L 121.667799 -101.142268 
L 121.680272 -100.738308 
L 121.69354 -100.334349 
L 121.707217 -99.930389 
L 121.720895 -99.526429 
L 121.734005 -99.122469 
L 121.745874 -98.71851 
L 121.755968 -98.31455 
L 121.764111 -97.91059 
L 121.770494 -97.506631 
L 121.775493 -97.102671 
L 121.779535 -96.698709 
L 121.783172 -96.29475 
L 121.787223 -95.89079 
L 121.792705 -95.48683 
L 121.800455 -95.08287 
L 121.810714 -94.678911 
L 121.823082 -94.274951 
L 121.83695 -93.870991 
L 121.852078 -93.467032 
L 121.868832 -93.063072 
L 121.887882 -92.659112 
L 121.909652 -92.255152 
L 121.933908 -91.851193 
L 121.959712 -91.447233 
L 121.985632 -91.043273 
L 122.009988 -90.639314 
L 122.031086 -90.235354 
L 122.047474 -89.831394 
L 122.058326 -89.427434 
L 122.063903 -89.023475 
L 122.065899 -88.619514 
L 122.06739 -88.215554 
L 122.072192 -87.811595 
L 122.08375 -87.407635 
L 122.103972 -87.003676 
L 122.13255 -86.599717 
L 122.167105 -86.195757 
L 122.204067 -85.791796 
L 122.239865 -85.387836 
L 122.271923 -84.983877 
L 122.299159 -84.579917 
L 122.321956 -84.175957 
L 122.341794 -83.771998 
L 122.360764 -83.368037 
L 122.381163 -82.964077 
L 122.405246 -82.560117 
L 122.435126 -82.156158 
L 122.472686 -81.752198 
L 122.519369 -81.348238 
L 122.575839 -80.944279 
L 122.641694 -80.540319 
L 122.715486 -80.136359 
L 122.795156 -79.732399 
L 122.878713 -79.328439 
L 122.964907 -78.924479 
L 123.053721 -78.520519 
L 123.14669 -78.11656 
L 123.247119 -77.7126 
L 123.360177 -77.308641 
L 123.492741 -76.904681 
L 123.652753 -76.500721 
L 123.848025 -76.096762 
L 124.084783 -75.692802 
L 124.3666 -75.288842 
L 124.694249 -74.884882 
L 125.066443 -74.480922 
L 125.48085 -74.076963 
L 125.934721 -73.673003 
L 126.424858 -73.269043 
L 126.947071 -72.865083 
L 127.495363 -72.461123 
L 128.061211 -72.057163 
L 128.633437 -71.653204 
L 129.199206 -71.249244 
L 129.746087 -70.845284 
L 130.264163 -70.441324 
L 130.746662 -70.037364 
L 131.188342 -69.633405 
L 131.582552 -69.229445 
L 131.919136 -68.825485 
L 132.185003 -68.421525 
L 132.367182 -68.017565 
L 132.45639 -67.613606 
L 132.448858 -67.209646 
L 132.345697 -66.805686 
L 132.150969 -66.401727 
L 131.870318 -65.997766 
L 131.511109 -65.593807 
L 131.083423 -65.189847 
L 130.600485 -64.785887 
L 130.07761 -64.381928 
L 129.530063 -63.977967 
L 128.971033 -63.574007 
L 128.410726 -63.170047 
L 127.856848 -62.766088 
L 127.31598 -62.362128 
L 126.795013 -61.958168 
L 126.301753 -61.554209 
L 125.844157 -61.150249 
L 125.4284 -60.746289 
L 125.056809 -60.342329 
L 124.727076 -59.938369 
L 124.433437 -59.534409 
L 124.169229 -59.130449 
L 123.929284 -58.72649 
L 123.710808 -58.32253 
L 123.5126 -57.91857 
L 123.333635 -57.51461 
L 123.172256 -57.11065 
L 123.026413 -56.70669 
L 122.894408 -56.30273 
L 122.775283 -55.898771 
L 122.668505 -55.494811 
L 122.573331 -55.090851 
L 122.488512 -54.686892 
L 122.412617 -54.282932 
L 122.344616 -53.878972 
L 122.284158 -53.475012 
L 122.231225 -53.071053 
L 122.185413 -52.667093 
L 122.145414 -52.263133 
L 122.109135 -51.859174 
L 122.074402 -51.455214 
L 122.039803 -51.051254 
L 122.005098 -50.647294 
L 121.970999 -50.243335 
L 121.938509 -49.839375 
L 121.908318 -49.435415 
L 121.880529 -49.031456 
L 121.854746 -48.627496 
L 121.830295 -48.223534 
L 121.806455 -47.819575 
L 121.782717 -47.415615 
L 121.759064 -47.011655 
L 121.73616 -46.607695 
L 121.715253 -46.203736 
L 121.697719 -45.799776 
L 121.684444 -45.395816 
L 121.675372 -44.991857 
L 121.669463 -44.587897 
L 121.665067 -44.183937 
L 121.660522 -43.779977 
L 121.654688 -43.376018 
L 121.647206 -42.972058 
L 121.638402 -42.568098 
L 121.628953 -42.164139 
L 121.61951 -41.760177 
L 121.610432 -41.356217 
L 121.601739 -40.952258 
L 121.59323 -40.548298 
L 121.584716 -40.14434 
L 121.576203 -39.740378 
L 121.567922 -39.336421 
L 121.560179 -38.932459 
L 121.553166 -38.528501 
L 121.546863 -38.12454 
L 121.541097 -37.720582 
L 121.53564 -37.31662 
L 121.530274 -36.912662 
L 121.524784 -36.508701 
L 121.518989 -36.104743 
L 121.512837 -35.700781 
z
" style="stroke: #d94801; stroke-opacity: 0.1"/>
    </defs>
    <g clip-path="url(#p315cd8bc41)">
     <use xlink:href="#m0da916e135" x="0" y="139.920781" style="fill: #d94801; fill-opacity: 0.1; stroke: #d94801; stroke-opacity: 0.1"/>
    </g>
   </g>
   <g id="matplotlib.axis_5">
    <g id="xtick_7">
     <g id="line2d_14">
      <g>
       <use xlink:href="#mc2f41f574e" x="121.431406" y="104.22" style="stroke: #000000; stroke-width: 1.5"/>
      </g>
     </g>
    </g>
    <g id="xtick_8">
     <g id="line2d_15">
      <g>
       <use xlink:href="#mc2f41f574e" x="131.181461" y="104.22" style="stroke: #000000; stroke-width: 1.5"/>
      </g>
     </g>
    </g>
   </g>
   <g id="matplotlib.axis_6">
    <g id="ytick_6">
     <g id="line2d_16">
      <g>
       <use xlink:href="#m58df2a671d" x="121.431406" y="99.396721" style="stroke: #000000; stroke-width: 1.5"/>
      </g>
     </g>
    </g>
    <g id="ytick_7">
     <g id="line2d_17">
      <g>
       <use xlink:href="#m58df2a671d" x="121.431406" y="67.241521" style="stroke: #000000; stroke-width: 1.5"/>
      </g>
     </g>
    </g>
    <g id="ytick_8">
     <g id="line2d_18">
      <g>
       <use xlink:href="#m58df2a671d" x="121.431406" y="35.086321" style="stroke: #000000; stroke-width: 1.5"/>
      </g>
     </g>
    </g>
   </g>
   <g id="line2d_19">
    <path d="M 121.507541 104.22 
L 121.693865 94.121005 
L 122.047573 88.061608 
L 122.533764 84.022011 
L 122.88717 82.406172 
L 123.326229 81.194292 
L 123.988581 79.982412 
L 124.878154 78.770532 
L 126.018652 77.558653 
L 127.972034 75.942814 
L 130.427587 73.923015 
L 131.55128 72.711135 
L 132.008837 71.903216 
L 132.121035 71.095296 
L 131.849184 70.287376 
L 131.242724 69.479457 
L 129.908399 68.267578 
L 125.419516 64.631939 
L 124.378508 63.42006 
L 123.718539 62.208181 
L 123.156716 60.592342 
L 122.797687 58.976503 
L 122.529742 56.552744 
L 122.154866 50.897306 
L 121.748435 39.990392 
L 121.511942 23.832 
L 121.511942 23.832 
" clip-path="url(#p315cd8bc41)" style="fill: none; stroke: #08519c; stroke-width: 1.5; stroke-linecap: square"/>
   </g>
   <g id="line2d_20">
    <path d="M 121.512837 104.22 
L 121.806455 92.101207 
L 122.185413 87.253688 
L 122.488512 85.23389 
L 122.894408 83.618051 
L 123.5126 82.002211 
L 124.169229 80.790332 
L 125.056809 79.578452 
L 126.301753 78.366573 
L 128.410726 76.750734 
L 131.083423 74.730934 
L 131.870318 73.923015 
L 132.345697 73.115095 
L 132.45639 72.307175 
L 132.185003 71.499256 
L 131.582552 70.691336 
L 130.264163 69.479457 
L 127.495363 67.459658 
L 125.48085 65.843819 
L 124.3666 64.631939 
L 123.652753 63.42006 
L 123.247119 62.208181 
L 122.641694 59.380462 
L 122.405246 57.360664 
L 121.83695 46.04979 
L 121.63516 37.162674 
L 121.493501 23.832 
L 121.493501 23.832 
" clip-path="url(#p315cd8bc41)" style="fill: none; stroke: #d94801; stroke-width: 1.5; stroke-linecap: square"/>
   </g>
   <g id="patch_9">
    <path d="M 121.431406 104.22 
L 121.431406 23.832 
" style="fill: none; stroke: #000000; stroke-width: 1.5; stroke-linejoin: miter; stroke-linecap: square"/>
   </g>
   <g id="patch_10">
    <path d="M 121.431406 104.22 
L 135.381406 104.22 
" style="fill: none; stroke: #000000; stroke-width: 1.5; stroke-linejoin: miter; stroke-linecap: square"/>
   </g>
  </g>
 </g>
 <defs>
  <clipPath id="pc2d5f2c9bb">
   <rect x="37.731406" y="23.832" width="80.91" height="80.388"/>
  </clipPath>
  <clipPath id="pbb984b6f16">
   <rect x="37.731406" y="7.2" width="80.91" height="13.86"/>
  </clipPath>
  <clipPath id="p315cd8bc41">
   <rect x="121.431406" y="23.832" width="13.95" height="80.388"/>
  </clipPath>
 </defs>
</svg>
