<?xml version="1.0" encoding="utf-8" standalone="no"?>
<!DOCTYPE svg PUBLIC "-//W3C//DTD SVG 1.1//EN"
  "http://www.w3.org/Graphics/SVG/1.1/DTD/svg11.dtd">
<svg xmlns:xlink="http://www.w3.org/1999/xlink" width="117.794844pt" height="139.920781pt" viewBox="0 0 117.794844 139.920781" xmlns="http://www.w3.org/2000/svg" version="1.1">
 <metadata>
  <rdf:RDF xmlns:dc="http://purl.org/dc/elements/1.1/" xmlns:cc="http://creativecommons.org/ns#" xmlns:rdf="http://www.w3.org/1999/02/22-rdf-syntax-ns#">
   <cc:Work>
    <dc:type rdf:resource="http://purl.org/dc/dcmitype/StillImage"/>
    <dc:date>2023-05-16T16:28:40.824028</dc:date>
    <dc:format>image/svg+xml</dc:format>
    <dc:creator>
     <cc:Agent>
      <dc:title>Matplotlib v3.5.0, https://matplotlib.org/</dc:title>
     </cc:Agent>
    </dc:creator>
   </cc:Work>
  </rdf:RDF>
 </metadata>
 <defs>
  <style type="text/css">*{stroke-linejoin: round; stroke-linecap: butt}</style>
 </defs>
 <g id="figure_1">
  <g id="patch_1">
   <path d="M 0 139.920781 
L 117.794844 139.920781 
L 117.794844 0 
L 0 0 
L 0 139.920781 
z
" style="fill: none"/>
  </g>
  <g id="axes_1">
   <g id="patch_2">
    <path d="M 32.474844 104.22 
L 97.202844 104.22 
L 97.202844 23.832 
L 32.474844 23.832 
L 32.474844 104.22 
z
" style="fill: none"/>
   </g>
   <g id="PathCollection_1">
    <defs>
     <path id="m5993a7db6b" d="M 0 1.5 
C 0.397805 1.5 0.77937 1.341951 1.06066 1.06066 
C 1.341951 0.77937 1.5 0.397805 1.5 0 
C 1.5 -0.397805 1.341951 -0.77937 1.06066 -1.06066 
C 0.77937 -1.341951 0.397805 -1.5 0 -1.5 
C -0.397805 -1.5 -0.77937 -1.341951 -1.06066 -1.06066 
C -1.341951 -0.77937 -1.5 -0.397805 -1.5 0 
C -1.5 0.397805 -1.341951 0.77937 -1.06066 1.06066 
C -0.77937 1.341951 -0.397805 1.5 0 1.5 
z
" style="stroke: #08519c"/>
    </defs>
    <g clip-path="url(#p81aade0eaf)">
     <use xlink:href="#m5993a7db6b" x="43.370205" y="90.558482" style="fill: #08519c; stroke: #08519c"/>
    </g>
   </g>
   <g id="matplotlib.axis_1">
    <g id="xtick_1">
     <g id="line2d_1">
      <defs>
       <path id="mbbd40fe68f" d="M 0 0 
L 0 3.5 
" style="stroke: #000000; stroke-width: 1.5"/>
      </defs>
      <g>
       <use xlink:href="#mbbd40fe68f" x="52.17467" y="104.22" style="stroke: #000000; stroke-width: 1.5"/>
      </g>
     </g>
     <g id="text_1">
      <text style="font: 9px 'Arial'; text-anchor: middle" x="52.17467" y="117.662031" transform="rotate(-0, 52.17467, 117.662031)">1</text>
     </g>
    </g>
    <g id="xtick_2">
     <g id="line2d_2">
      <g>
       <use xlink:href="#mbbd40fe68f" x="80.31728" y="104.22" style="stroke: #000000; stroke-width: 1.5"/>
      </g>
     </g>
     <g id="text_2">
      <text style="font: 9px 'Arial'; text-anchor: middle" x="80.31728" y="117.662031" transform="rotate(-0, 80.31728, 117.662031)">2</text>
     </g>
    </g>
    <g id="text_3">
     <!-- $\theta_1$ -->
     <g transform="translate(60.248844 130.020781)">
      <text>
       <tspan style="font: 9px 'Arial'" x="0" y="-0.453125">θ</tspan>
       <tspan style="font: 6.3px 'Arial'" x="5.162182" y="2.2350624999999997">1</tspan>
      </text>
     </g>
    </g>
   </g>
   <g id="matplotlib.axis_2">
    <g id="ytick_1">
     <g id="line2d_3">
      <defs>
       <path id="m5f931d57bd" d="M 0 0 
L -3.5 0 
" style="stroke: #000000; stroke-width: 1.5"/>
      </defs>
      <g>
       <use xlink:href="#m5f931d57bd" x="32.474844" y="96.440516" style="stroke: #000000; stroke-width: 1.5"/>
      </g>
     </g>
     <g id="text_4">
      <text style="font: 9px 'Arial'; text-anchor: end" x="25.474844" y="99.661531" transform="rotate(-0, 25.474844, 99.661531)">0</text>
     </g>
    </g>
    <g id="ytick_2">
     <g id="line2d_4">
      <g>
       <use xlink:href="#m5f931d57bd" x="32.474844" y="70.508903" style="stroke: #000000; stroke-width: 1.5"/>
      </g>
     </g>
     <g id="text_5">
      <text style="font: 9px 'Arial'; text-anchor: end" x="25.474844" y="73.729918" transform="rotate(-0, 25.474844, 73.729918)">1</text>
     </g>
    </g>
    <g id="ytick_3">
     <g id="line2d_5">
      <g>
       <use xlink:href="#m5f931d57bd" x="32.474844" y="44.577289" style="stroke: #000000; stroke-width: 1.5"/>
      </g>
     </g>
     <g id="text_6">
      <text style="font: 9px 'Arial'; text-anchor: end" x="25.474844" y="47.798305" transform="rotate(-0, 25.474844, 47.798305)">2</text>
     </g>
    </g>
    <g id="text_7">
     <!-- $\theta_2$ -->
     <g transform="translate(13.77 68.616)rotate(-90)">
      <text>
       <tspan style="font: 9px 'Arial'" x="0" y="-0.453125">θ</tspan>
       <tspan style="font: 6.3px 'Arial'" x="5.162182" y="2.2350624999999997">2</tspan>
      </text>
     </g>
    </g>
   </g>
   <g id="PathCollection_2"/>
   <g id="PathCollection_3">
    <path d="M 45.124911 88.061608 
L 45.099281 87.657648 
L 45.088341 87.253689 
L 45.089454 86.849728 
L 45.100261 86.445769 
L 45.118701 86.041809 
L 45.143142 85.63785 
L 45.160232 85.402853 
L 45.171529 85.233889 
L 45.202579 84.82993 
L 45.237556 84.425971 
L 45.276541 84.022011 
L 45.319535 83.618051 
L 45.366297 83.214092 
L 45.416328 82.810131 
L 45.468981 82.406171 
L 45.485498 82.283291 
L 45.520575 82.002212 
L 45.572468 81.598252 
L 45.626288 81.194291 
L 45.682864 80.790333 
L 45.743476 80.386372 
L 45.809661 79.982413 
L 45.810765 79.976092 
L 45.878932 79.578453 
L 45.956051 79.174492 
L 46.041364 78.770534 
L 46.134388 78.366573 
L 46.13603 78.359701 
L 46.229837 77.962613 
L 46.329906 77.558654 
L 46.433356 77.154694 
L 46.461298 77.046611 
L 46.53682 76.750735 
L 46.641659 76.346774 
L 46.749056 75.942814 
L 46.786563 75.803798 
L 46.858411 75.538855 
L 46.970613 75.134895 
L 47.086414 74.730934 
L 47.11183 74.643379 
L 47.206904 74.326975 
L 47.331184 73.923015 
L 47.437096 73.58718 
L 47.460267 73.519056 
L 47.599364 73.115096 
L 47.744522 72.711135 
L 47.762363 72.662584 
L 47.912668 72.307177 
L 48.087628 71.920225 
L 48.097069 71.903216 
L 48.331976 71.499256 
L 48.412895 71.368146 
L 48.633327 71.095297 
L 48.738161 70.969896 
L 49.051475 70.691337 
L 49.063428 70.680655 
L 49.388694 70.453501 
L 49.664681 70.287378 
L 49.713961 70.256036 
L 50.039226 70.040043 
L 50.240055 69.883417 
L 50.364493 69.783028 
L 50.6867 69.479457 
L 50.689759 69.47662 
L 51.015026 69.142425 
L 51.07893 69.075496 
L 51.340291 68.823912 
L 51.510812 68.671539 
L 51.665559 68.543159 
L 51.990824 68.304887 
L 52.050938 68.267579 
L 52.316091 68.102252 
L 52.641358 67.944089 
L 52.892523 67.863618 
L 52.966622 67.837528 
L 53.291889 67.796607 
L 53.617156 67.84149 
L 53.673103 67.863618 
L 53.942424 67.970975 
L 54.267687 68.177092 
L 54.386048 68.267579 
L 54.592955 68.425913 
L 54.901088 68.671539 
L 54.918222 68.685076 
L 55.243489 68.911746 
L 55.528785 69.075496 
L 55.568753 69.097998 
L 55.89402 69.227422 
L 56.219287 69.314494 
L 56.544554 69.378757 
L 56.869818 69.452782 
L 56.941897 69.479457 
L 57.195085 69.578558 
L 57.520352 69.792855 
L 57.613925 69.883417 
L 57.845619 70.125926 
L 57.966882 70.287378 
L 58.170883 70.571242 
L 58.248279 70.691337 
L 58.49615 71.07062 
L 58.512072 71.095297 
L 58.784565 71.499256 
L 58.821417 71.550451 
L 59.078879 71.903216 
L 59.146685 71.993316 
L 59.385966 72.307177 
L 59.471948 72.423214 
L 59.687657 72.711135 
L 59.797216 72.870182 
L 59.970157 73.115096 
L 60.122483 73.357782 
L 60.228373 73.519056 
L 60.44775 73.896849 
L 60.463717 73.923015 
L 60.694291 74.326975 
L 60.773014 74.473922 
L 60.91534 74.730934 
L 61.098281 75.072847 
L 61.131568 75.134895 
L 61.353283 75.538855 
L 61.423548 75.665676 
L 61.575808 75.942814 
L 61.748815 76.258694 
L 61.795798 76.346774 
L 62.010957 76.750735 
L 62.074079 76.87321 
L 62.210992 77.154694 
L 62.392809 77.558654 
L 62.399346 77.57387 
L 62.55155 77.962613 
L 62.694742 78.366573 
L 62.724613 78.4555 
L 62.820871 78.770534 
L 62.937323 79.174492 
L 63.047035 79.578453 
L 63.04988 79.589294 
L 63.148262 79.982413 
L 63.245367 80.386372 
L 63.338568 80.790333 
L 63.375144 80.955025 
L 63.428467 81.194291 
L 63.516408 81.598252 
L 63.603504 82.002212 
L 63.690881 82.406171 
L 63.700411 82.450223 
L 63.779589 82.810131 
L 63.867651 83.214092 
L 63.952863 83.618051 
L 64.025678 83.990665 
L 64.031593 84.022011 
L 64.096949 84.425971 
L 64.14668 84.82993 
L 64.177549 85.233889 
L 64.186982 85.63785 
L 64.173022 86.041809 
L 64.134034 86.445769 
L 64.068239 86.849728 
L 64.025678 87.031581 
L 63.971004 87.253689 
L 63.838665 87.657648 
L 63.700411 87.986537 
L 63.665945 88.061608 
L 63.43547 88.465568 
L 63.375144 88.553032 
L 63.121365 88.869528 
L 63.04988 88.944931 
L 62.724613 89.229615 
L 62.664916 89.273488 
L 62.399346 89.445379 
L 62.074079 89.629178 
L 61.990386 89.677447 
L 61.748815 89.805594 
L 61.423548 89.998863 
L 61.307795 90.081407 
L 61.098281 90.221848 
L 60.773014 90.47239 
L 60.758257 90.485367 
L 60.44775 90.741685 
L 60.273002 90.889327 
L 60.122483 91.009602 
L 59.797216 91.260462 
L 59.752494 91.293287 
L 59.471948 91.491255 
L 59.146685 91.691385 
L 59.136428 91.697246 
L 58.821417 91.876137 
L 58.49615 92.038369 
L 58.361566 92.101206 
L 58.170883 92.192443 
L 57.845619 92.33995 
L 57.520352 92.477701 
L 57.453755 92.505166 
L 57.195085 92.61696 
L 56.869818 92.745854 
L 56.544554 92.859044 
L 56.379818 92.909126 
L 56.219287 92.96204 
L 55.89402 93.054013 
L 55.568753 93.131131 
L 55.243489 93.197523 
L 54.918222 93.25694 
L 54.592955 93.311529 
L 54.582969 93.313086 
L 54.267687 93.368535 
L 53.942424 93.417691 
L 53.617156 93.455583 
L 53.291889 93.479285 
L 52.966622 93.487029 
L 52.641358 93.478531 
L 52.316091 93.454841 
L 51.990824 93.418032 
L 51.665559 93.370995 
L 51.340291 93.317307 
L 51.31538 93.313086 
L 51.015026 93.267461 
L 50.689759 93.218637 
L 50.364493 93.171074 
L 50.039226 93.122313 
L 49.713961 93.066381 
L 49.388694 92.994646 
L 49.10059 92.909126 
L 49.063428 92.898549 
L 48.738161 92.778843 
L 48.412895 92.621587 
L 48.212655 92.505166 
L 48.087628 92.430259 
L 47.762363 92.212347 
L 47.606877 92.101206 
L 47.437096 91.972611 
L 47.11183 91.718174 
L 47.084483 91.697246 
L 46.786563 91.451143 
L 46.60047 91.293287 
L 46.461298 91.161912 
L 46.187303 90.889327 
L 46.13603 90.830022 
L 45.862572 90.485367 
L 45.810765 90.404897 
L 45.622817 90.081407 
L 45.485498 89.769459 
L 45.448463 89.677447 
L 45.321937 89.273488 
L 45.23112 88.869528 
L 45.167973 88.465568 
L 45.160232 88.391932 
L 45.124911 88.061608 
z
" clip-path="url(#p81aade0eaf)" style="fill: none; stroke: #08519c; stroke-opacity: 0.111111; stroke-width: 1.5"/>
   </g>
   <g id="PathCollection_4">
    <path d="M 47.074028 88.061608 
L 46.986238 87.657648 
L 46.926575 87.253689 
L 46.889206 86.849728 
L 46.86922 86.445769 
L 46.862581 86.041809 
L 46.86612 85.63785 
L 46.877538 85.233889 
L 46.895372 84.82993 
L 46.918919 84.425971 
L 46.948105 84.022011 
L 46.983319 83.618051 
L 47.025245 83.214092 
L 47.074732 82.810131 
L 47.11183 82.549426 
L 47.131972 82.406171 
L 47.197437 82.002212 
L 47.273547 81.598252 
L 47.361083 81.194291 
L 47.437096 80.882967 
L 47.460426 80.790333 
L 47.571269 80.386372 
L 47.693462 79.982413 
L 47.762363 79.768337 
L 47.826539 79.578453 
L 47.968641 79.174492 
L 48.087628 78.848832 
L 48.118029 78.770534 
L 48.275558 78.366573 
L 48.412895 78.022487 
L 48.438364 77.962613 
L 48.610606 77.558654 
L 48.738161 77.26888 
L 48.79161 77.154694 
L 48.987131 76.750735 
L 49.063428 76.601081 
L 49.202676 76.346774 
L 49.388694 76.032246 
L 49.446674 75.942814 
L 49.713961 75.563805 
L 49.733884 75.538855 
L 50.039226 75.184926 
L 50.089452 75.134895 
L 50.364493 74.875502 
L 50.541835 74.730934 
L 50.689759 74.612702 
L 51.015026 74.374065 
L 51.081788 74.326975 
L 51.340291 74.136611 
L 51.628491 73.923015 
L 51.665559 73.893477 
L 51.990824 73.639907 
L 52.161443 73.519056 
L 52.316091 73.400979 
L 52.641358 73.210134 
L 52.925422 73.115096 
L 52.966622 73.100849 
L 53.291889 73.084389 
L 53.429235 73.115096 
L 53.617156 73.15442 
L 53.942424 73.288848 
L 54.267687 73.469107 
L 54.342416 73.519056 
L 54.592955 73.675946 
L 54.918222 73.908435 
L 54.936371 73.923015 
L 55.243489 74.159719 
L 55.43821 74.326975 
L 55.568753 74.436337 
L 55.891777 74.730934 
L 55.89402 74.73296 
L 56.219287 75.035136 
L 56.328341 75.134895 
L 56.544554 75.334329 
L 56.777209 75.538855 
L 56.869818 75.622125 
L 57.195085 75.902162 
L 57.242342 75.942814 
L 57.520352 76.195678 
L 57.669839 76.346774 
L 57.845619 76.538604 
L 58.013549 76.750735 
L 58.170883 76.967443 
L 58.290709 77.154694 
L 58.49615 77.503088 
L 58.52657 77.558654 
L 58.737164 77.962613 
L 58.821417 78.134443 
L 58.934353 78.366573 
L 59.122242 78.770534 
L 59.146685 78.824377 
L 59.309999 79.174492 
L 59.471948 79.531846 
L 59.493671 79.578453 
L 59.680468 79.982413 
L 59.797216 80.241867 
L 59.86239 80.386372 
L 60.038292 80.790333 
L 60.122483 80.995216 
L 60.202245 81.194291 
L 60.35129 81.598252 
L 60.44775 81.892043 
L 60.483029 82.002212 
L 60.59935 82.406171 
L 60.697866 82.810131 
L 60.773014 83.179613 
L 60.780127 83.214092 
L 60.850608 83.618051 
L 60.905221 84.022011 
L 60.943617 84.425971 
L 60.964637 84.82993 
L 60.966238 85.233889 
L 60.945445 85.63785 
L 60.898313 86.041809 
L 60.819916 86.445769 
L 60.773014 86.613636 
L 60.712263 86.849728 
L 60.573727 87.253689 
L 60.44775 87.54105 
L 60.399664 87.657648 
L 60.198806 88.061608 
L 60.122483 88.191992 
L 59.966532 88.465568 
L 59.797216 88.722432 
L 59.698552 88.869528 
L 59.471948 89.166639 
L 59.385521 89.273488 
L 59.146685 89.536772 
L 59.007365 89.677447 
L 58.821417 89.847492 
L 58.539851 90.081407 
L 58.49615 90.114889 
L 58.170883 90.35066 
L 57.976336 90.485367 
L 57.845619 90.570289 
L 57.520352 90.777587 
L 57.339638 90.889327 
L 57.195085 90.974388 
L 56.869818 91.155897 
L 56.594141 91.293287 
L 56.544554 91.31739 
L 56.219287 91.458135 
L 55.89402 91.574919 
L 55.568753 91.671149 
L 55.465257 91.697246 
L 55.243489 91.754523 
L 54.918222 91.827821 
L 54.592955 91.893102 
L 54.267687 91.951145 
L 53.942424 92.000286 
L 53.617156 92.037404 
L 53.291889 92.05919 
L 52.966622 92.063212 
L 52.641358 92.048539 
L 52.316091 92.015981 
L 51.990824 91.968093 
L 51.665559 91.908911 
L 51.340291 91.843231 
L 51.015026 91.775237 
L 50.689759 91.706698 
L 50.645665 91.697246 
L 50.364493 91.637891 
L 50.039226 91.559701 
L 49.713961 91.460519 
L 49.388694 91.326404 
L 49.326325 91.293287 
L 49.063428 91.143559 
L 48.738161 90.898654 
L 48.727531 90.889327 
L 48.412895 90.578956 
L 48.328307 90.485367 
L 48.087628 90.17912 
L 48.0137 90.081407 
L 47.762363 89.692069 
L 47.752822 89.677447 
L 47.526801 89.273488 
L 47.437096 89.07628 
L 47.340054 88.869528 
L 47.189602 88.465568 
L 47.11183 88.191283 
L 47.074028 88.061608 
z
" clip-path="url(#p81aade0eaf)" style="fill: none; stroke: #08519c; stroke-opacity: 0.333333; stroke-width: 1.5"/>
   </g>
   <g id="PathCollection_5">
    <path d="M 48.331122 87.657648 
L 48.246094 87.253689 
L 48.18519 86.849728 
L 48.145248 86.445769 
L 48.123663 86.041809 
L 48.118303 85.63785 
L 48.127513 85.233889 
L 48.150143 84.82993 
L 48.185576 84.425971 
L 48.233708 84.022011 
L 48.294896 83.618051 
L 48.369857 83.214092 
L 48.412895 83.016703 
L 48.46155 82.810131 
L 48.571465 82.406171 
L 48.698693 82.002212 
L 48.738161 81.888985 
L 48.84897 81.598252 
L 49.019754 81.194291 
L 49.063428 81.097551 
L 49.213848 80.790333 
L 49.388694 80.453333 
L 49.425734 80.386372 
L 49.652923 79.982413 
L 49.713961 79.874322 
L 49.888888 79.578453 
L 50.039226 79.322739 
L 50.131121 79.174492 
L 50.364493 78.797634 
L 50.382721 78.770534 
L 50.658581 78.366573 
L 50.689759 78.322421 
L 50.983101 77.962613 
L 51.015026 77.925636 
L 51.340291 77.610043 
L 51.405048 77.558654 
L 51.665559 77.361677 
L 51.990824 77.165811 
L 52.013796 77.154694 
L 52.316091 77.009928 
L 52.641358 76.892367 
L 52.966622 76.812316 
L 53.291889 76.768424 
L 53.617156 76.7591 
L 53.942424 76.784438 
L 54.267687 76.848223 
L 54.592955 76.958105 
L 54.918222 77.122966 
L 54.964816 77.154694 
L 55.243489 77.344449 
L 55.493562 77.558654 
L 55.568753 77.623874 
L 55.89402 77.950318 
L 55.90535 77.962613 
L 56.219287 78.312908 
L 56.26504 78.366573 
L 56.544554 78.709504 
L 56.591967 78.770534 
L 56.869818 79.15188 
L 56.885299 79.174492 
L 57.14401 79.578453 
L 57.195085 79.664017 
L 57.37383 79.982413 
L 57.520352 80.259212 
L 57.584712 80.386372 
L 57.783936 80.790333 
L 57.845619 80.916897 
L 57.978973 81.194291 
L 58.170883 81.595537 
L 58.172183 81.598252 
L 58.363897 82.002212 
L 58.49615 82.290637 
L 58.548737 82.406171 
L 58.720393 82.810131 
L 58.821417 83.075647 
L 58.872687 83.214092 
L 59.000411 83.618051 
L 59.101948 84.022011 
L 59.146685 84.265179 
L 59.175248 84.425971 
L 59.218996 84.82993 
L 59.233005 85.233889 
L 59.216101 85.63785 
L 59.167067 86.041809 
L 59.146685 86.142145 
L 59.08251 86.445769 
L 58.961353 86.849728 
L 58.821417 87.207092 
L 58.802332 87.253689 
L 58.597734 87.657648 
L 58.49615 87.824443 
L 58.347265 88.061608 
L 58.170883 88.300266 
L 58.04869 88.465568 
L 57.845619 88.702451 
L 57.705394 88.869528 
L 57.520352 89.061499 
L 57.319046 89.273488 
L 57.195085 89.388079 
L 56.874783 89.677447 
L 56.869818 89.681431 
L 56.544554 89.928145 
L 56.313627 90.081407 
L 56.219287 90.138133 
L 55.89402 90.305197 
L 55.568753 90.441344 
L 55.442371 90.485367 
L 55.243489 90.550811 
L 54.918222 90.641941 
L 54.592955 90.721093 
L 54.267687 90.789888 
L 53.942424 90.846736 
L 53.617156 90.887985 
L 53.596863 90.889327 
L 53.291889 90.909357 
L 52.966622 90.908019 
L 52.723813 90.889327 
L 52.641358 90.882863 
L 52.316091 90.835137 
L 51.990824 90.76916 
L 51.665559 90.690832 
L 51.340291 90.605895 
L 51.015026 90.517488 
L 50.901506 90.485367 
L 50.689759 90.422391 
L 50.364493 90.313368 
L 50.039226 90.177581 
L 49.861358 90.081407 
L 49.713961 89.991654 
L 49.388694 89.729889 
L 49.336595 89.677447 
L 49.063428 89.351381 
L 49.008072 89.273488 
L 48.770205 88.869528 
L 48.738161 88.802667 
L 48.58718 88.465568 
L 48.443728 88.061608 
L 48.412895 87.951782 
L 48.331122 87.657648 
z
" clip-path="url(#p81aade0eaf)" style="fill: none; stroke: #08519c; stroke-opacity: 0.555556; stroke-width: 1.5"/>
   </g>
   <g id="PathCollection_6">
    <path d="M 49.379044 86.445769 
L 49.36832 86.041809 
L 49.381771 85.63785 
L 49.388694 85.557399 
L 49.419388 85.233889 
L 49.479291 84.82993 
L 49.559562 84.425971 
L 49.659336 84.022011 
L 49.713961 83.83447 
L 49.782693 83.618051 
L 49.929637 83.214092 
L 50.039226 82.947759 
L 50.1003 82.810131 
L 50.29844 82.406171 
L 50.364493 82.28282 
L 50.525289 82.002212 
L 50.689759 81.734451 
L 50.779176 81.598252 
L 51.015026 81.256697 
L 51.061264 81.194291 
L 51.340291 80.831843 
L 51.375045 80.790333 
L 51.665559 80.455094 
L 51.73211 80.386372 
L 51.990824 80.129 
L 52.163132 79.982413 
L 52.316091 79.857636 
L 52.641358 79.644237 
L 52.776658 79.578453 
L 52.966622 79.489882 
L 53.291889 79.395031 
L 53.617156 79.359414 
L 53.942424 79.385399 
L 54.267687 79.477818 
L 54.467929 79.578453 
L 54.592955 79.645522 
L 54.918222 79.898155 
L 55.002957 79.982413 
L 55.243489 80.246094 
L 55.353056 80.386372 
L 55.568753 80.694657 
L 55.630638 80.790333 
L 55.866056 81.194291 
L 55.89402 81.247513 
L 56.07648 81.598252 
L 56.219287 81.893089 
L 56.272784 82.002212 
L 56.46194 82.406171 
L 56.544554 82.587885 
L 56.646567 82.810131 
L 56.826383 83.214092 
L 56.869818 83.317948 
L 56.990999 83.618051 
L 57.135007 84.022011 
L 57.195085 84.231465 
L 57.246748 84.425971 
L 57.31978 84.82993 
L 57.353852 85.233889 
L 57.347815 85.63785 
L 57.302901 86.041809 
L 57.221256 86.445769 
L 57.195085 86.534191 
L 57.103413 86.849728 
L 56.952241 87.253689 
L 56.869818 87.429712 
L 56.762936 87.657648 
L 56.544554 88.036683 
L 56.529479 88.061608 
L 56.226935 88.465568 
L 56.219287 88.473989 
L 55.89402 88.790975 
L 55.799694 88.869528 
L 55.568753 89.029086 
L 55.243489 89.216302 
L 55.126592 89.273488 
L 54.918222 89.361088 
L 54.592955 89.478886 
L 54.267687 89.579009 
L 53.942424 89.659246 
L 53.835906 89.677447 
L 53.617156 89.711397 
L 53.291889 89.734345 
L 52.966622 89.726221 
L 52.641358 89.686685 
L 52.596458 89.677447 
L 52.316091 89.614207 
L 51.990824 89.518119 
L 51.665559 89.407401 
L 51.340291 89.287457 
L 51.304661 89.273488 
L 51.015026 89.144791 
L 50.689759 88.979829 
L 50.510093 88.869528 
L 50.364493 88.761322 
L 50.053691 88.465568 
L 50.039226 88.447852 
L 49.786259 88.061608 
L 49.713961 87.910796 
L 49.61092 87.657648 
L 49.4947 87.253689 
L 49.419335 86.849728 
L 49.388694 86.548082 
L 49.379044 86.445769 
z
" clip-path="url(#p81aade0eaf)" style="fill: none; stroke: #08519c; stroke-opacity: 0.666667; stroke-width: 1.5"/>
   </g>
   <g id="PathCollection_7">
    <path d="M 51.308942 86.849728 
L 51.198878 86.445769 
L 51.169547 86.041809 
L 51.202253 85.63785 
L 51.281989 85.233889 
L 51.340291 85.031313 
L 51.404076 84.82993 
L 51.562647 84.425971 
L 51.665559 84.199194 
L 51.755197 84.022011 
L 51.98261 83.618051 
L 51.990824 83.604783 
L 52.269446 83.214092 
L 52.316091 83.153518 
L 52.641084 82.810131 
L 52.641358 82.80986 
L 52.966622 82.581977 
L 53.291889 82.462827 
L 53.617156 82.484089 
L 53.942424 82.687882 
L 54.041265 82.810131 
L 54.267687 83.167938 
L 54.288414 83.214092 
L 54.438256 83.618051 
L 54.561214 84.022011 
L 54.592955 84.143249 
L 54.660483 84.425971 
L 54.746913 84.82993 
L 54.821821 85.233889 
L 54.879014 85.63785 
L 54.907215 86.041809 
L 54.890039 86.445769 
L 54.806389 86.849728 
L 54.631181 87.253689 
L 54.592955 87.307747 
L 54.307011 87.657648 
L 54.267687 87.690674 
L 53.942424 87.909984 
L 53.617156 88.056685 
L 53.593842 88.061608 
L 53.291889 88.11095 
L 52.966622 88.100959 
L 52.781934 88.061608 
L 52.641358 88.024486 
L 52.316091 87.877255 
L 51.990824 87.68349 
L 51.954155 87.657648 
L 51.665559 87.38571 
L 51.545245 87.253689 
L 51.340291 86.911434 
L 51.308942 86.849728 
z
" clip-path="url(#p81aade0eaf)" style="fill: none; stroke: #08519c; stroke-opacity: 0.888889; stroke-width: 1.5"/>
   </g>
   <g id="PathCollection_8"/>
   <g id="PathCollection_9"/>
   <g id="PathCollection_10">
    <path d="M 47.066209 85.233889 
L 46.997799 84.82993 
L 46.944994 84.425971 
L 46.9051 84.022011 
L 46.875977 83.618051 
L 46.85601 83.214092 
L 46.844085 82.810131 
L 46.839556 82.406171 
L 46.842197 82.002212 
L 46.852151 81.598252 
L 46.869856 81.194291 
L 46.895962 80.790333 
L 46.931227 80.386372 
L 46.976407 79.982413 
L 47.032117 79.578453 
L 47.098696 79.174492 
L 47.11183 79.103925 
L 47.170823 78.770534 
L 47.250877 78.366573 
L 47.338704 77.962613 
L 47.432597 77.558654 
L 47.437096 77.53959 
L 47.521972 77.154694 
L 47.612234 76.750735 
L 47.701981 76.346774 
L 47.762363 76.067256 
L 47.787217 75.942814 
L 47.864335 75.538855 
L 47.938696 75.134895 
L 48.010606 74.730934 
L 48.080851 74.326975 
L 48.087628 74.287209 
L 48.145902 73.923015 
L 48.211946 73.519056 
L 48.28121 73.115096 
L 48.355513 72.711135 
L 48.412895 72.423568 
L 48.435354 72.307177 
L 48.520396 71.903216 
L 48.61542 71.499256 
L 48.721448 71.095297 
L 48.738161 71.036327 
L 48.834655 70.691337 
L 48.958229 70.287378 
L 49.063428 69.968125 
L 49.091153 69.883417 
L 49.228923 69.479457 
L 49.37389 69.075496 
L 49.388694 69.034805 
L 49.519992 68.671539 
L 49.669491 68.267579 
L 49.713961 68.147742 
L 49.819085 67.863618 
L 49.970067 67.459661 
L 50.039226 67.27575 
L 50.122395 67.055701 
L 50.277298 66.65174 
L 50.364493 66.429136 
L 50.436839 66.24778 
L 50.602636 65.843819 
L 50.689759 65.638987 
L 50.77758 65.439859 
L 50.964011 65.035899 
L 51.015026 64.929209 
L 51.165713 64.631938 
L 51.340291 64.306374 
L 51.385621 64.227981 
L 51.62925 63.824021 
L 51.665559 63.76566 
L 51.903337 63.42006 
L 51.990824 63.296867 
L 52.214773 63.0161 
L 52.316091 62.891093 
L 52.573256 62.612139 
L 52.641358 62.538059 
L 52.966622 62.2283 
L 52.990527 62.208179 
L 53.291889 61.947143 
L 53.482306 61.804219 
L 53.617156 61.697982 
L 53.942424 61.472344 
L 54.059372 61.400258 
L 54.267687 61.262849 
L 54.592955 61.073185 
L 54.739171 60.996301 
L 54.918222 60.894125 
L 55.243489 60.725322 
L 55.522852 60.59234 
L 55.568753 60.568303 
L 55.89402 60.404508 
L 56.219287 60.246702 
L 56.338967 60.18838 
L 56.544554 60.075641 
L 56.869818 59.892733 
L 57.054706 59.78442 
L 57.195085 59.690049 
L 57.520352 59.461419 
L 57.631669 59.380459 
L 57.845619 59.200501 
L 58.110738 58.976502 
L 58.170883 58.91801 
L 58.49615 58.614153 
L 58.544645 58.572542 
L 58.821417 58.308022 
L 58.993395 58.168581 
L 59.146685 58.034443 
L 59.471948 57.814494 
L 59.577843 57.764624 
L 59.797216 57.657141 
L 60.122483 57.56775 
L 60.44775 57.540822 
L 60.773014 57.564795 
L 61.098281 57.627676 
L 61.423548 57.718231 
L 61.560467 57.764624 
L 61.748815 57.825122 
L 62.074079 57.943623 
L 62.399346 58.072383 
L 62.625663 58.168581 
L 62.724613 58.210572 
L 63.04988 58.360657 
L 63.375144 58.524248 
L 63.463888 58.572542 
L 63.700411 58.70421 
L 64.025678 58.898427 
L 64.149926 58.976502 
L 64.350946 59.10551 
L 64.676209 59.321121 
L 64.763452 59.380459 
L 65.001476 59.545119 
L 65.326744 59.776409 
L 65.337408 59.78442 
L 65.652011 60.024954 
L 65.848942 60.18838 
L 65.977275 60.296104 
L 66.292175 60.59234 
L 66.302542 60.602083 
L 66.627809 60.950052 
L 66.665874 60.996301 
L 66.953076 61.337299 
L 67.000626 61.400258 
L 67.27834 61.752351 
L 67.31604 61.804219 
L 67.603607 62.177691 
L 67.625904 62.208179 
L 67.928874 62.596946 
L 67.940445 62.612139 
L 68.254141 62.999205 
L 68.267833 63.0161 
L 68.579405 63.37963 
L 68.614535 63.42006 
L 68.904672 63.738773 
L 68.983371 63.824021 
L 69.229939 64.082044 
L 69.369114 64.227981 
L 69.555207 64.419426 
L 69.755109 64.631938 
L 69.88047 64.765278 
L 70.117761 65.035899 
L 70.205737 65.138732 
L 70.438825 65.439859 
L 70.531005 65.565323 
L 70.71354 65.843819 
L 70.856272 66.079928 
L 70.947214 66.24778 
L 71.146018 66.65174 
L 71.181536 66.731129 
L 71.315529 67.055701 
L 71.463495 67.459661 
L 71.506803 67.590311 
L 71.594269 67.863618 
L 71.712401 68.267579 
L 71.821226 68.671539 
L 71.83207 68.713383 
L 71.928468 69.075496 
L 72.035273 69.479457 
L 72.144713 69.883417 
L 72.157337 69.9276 
L 72.268061 70.287378 
L 72.402368 70.691337 
L 72.482601 70.91383 
L 72.55412 71.095297 
L 72.725657 71.499256 
L 72.807868 71.681286 
L 72.916083 71.903216 
L 73.119555 72.307177 
L 73.133135 72.333618 
L 73.335806 72.711135 
L 73.458402 72.944371 
L 73.549691 73.115096 
L 73.755724 73.519056 
L 73.783666 73.576907 
L 73.949551 73.923015 
L 74.108933 74.287972 
L 74.125708 74.326975 
L 74.286399 74.730934 
L 74.42914 75.134895 
L 74.4342 75.150734 
L 74.558639 75.538855 
L 74.672806 75.942814 
L 74.759467 76.293961 
L 74.772905 76.346774 
L 74.863635 76.750735 
L 74.941777 77.154694 
L 75.008076 77.558654 
L 75.063362 77.962613 
L 75.084731 78.152557 
L 75.110769 78.366573 
L 75.150146 78.770534 
L 75.179883 79.174492 
L 75.200089 79.578453 
L 75.210589 79.982413 
L 75.210905 80.386372 
L 75.200281 80.790333 
L 75.177713 81.194291 
L 75.141992 81.598252 
L 75.091738 82.002212 
L 75.084731 82.044531 
L 75.030056 82.406171 
L 74.952173 82.810131 
L 74.855782 83.214092 
L 74.759467 83.547868 
L 74.740265 83.618051 
L 74.609251 84.022011 
L 74.454939 84.425971 
L 74.4342 84.473661 
L 74.282092 84.82993 
L 74.108933 85.183307 
L 74.084111 85.233889 
L 73.862479 85.63785 
L 73.783666 85.766905 
L 73.611226 86.041809 
L 73.458402 86.261808 
L 73.324516 86.445769 
L 73.133135 86.685029 
L 72.992219 86.849728 
L 72.807868 87.047046 
L 72.596858 87.253689 
L 72.482601 87.356843 
L 72.157337 87.621853 
L 72.109021 87.657648 
L 71.83207 87.848811 
L 71.506803 88.046641 
L 71.48016 88.061608 
L 71.181536 88.22028 
L 70.856272 88.376561 
L 70.658041 88.465568 
L 70.531005 88.520497 
L 70.205737 88.656131 
L 69.88047 88.78613 
L 69.668489 88.869528 
L 69.555207 88.913289 
L 69.229939 89.039607 
L 68.904672 89.16411 
L 68.616129 89.273488 
L 68.579405 89.28737 
L 68.254141 89.412518 
L 67.928874 89.535569 
L 67.603607 89.656152 
L 67.546494 89.677447 
L 67.27834 89.77851 
L 66.953076 89.898172 
L 66.627809 90.013328 
L 66.428984 90.081407 
L 66.302542 90.125812 
L 65.977275 90.236207 
L 65.652011 90.339767 
L 65.326744 90.436485 
L 65.153236 90.485367 
L 65.001476 90.53003 
L 64.676209 90.621459 
L 64.350946 90.708365 
L 64.025678 90.792242 
L 63.700411 90.874469 
L 63.642385 90.889327 
L 63.375144 90.961857 
L 63.04988 91.050164 
L 62.724613 91.137887 
L 62.399346 91.224192 
L 62.131702 91.293287 
L 62.074079 91.309138 
L 61.748815 91.39578 
L 61.423548 91.475825 
L 61.098281 91.547864 
L 60.773014 91.610909 
L 60.44775 91.664467 
L 60.207108 91.697246 
L 60.122483 91.709717 
L 59.797216 91.748403 
L 59.471948 91.778075 
L 59.146685 91.79994 
L 58.821417 91.815353 
L 58.49615 91.825713 
L 58.170883 91.832359 
L 57.845619 91.836499 
L 57.520352 91.839128 
L 57.195085 91.840968 
L 56.869818 91.842388 
L 56.544554 91.843345 
L 56.219287 91.843335 
L 55.89402 91.841383 
L 55.568753 91.836072 
L 55.243489 91.825624 
L 54.918222 91.808022 
L 54.592955 91.781152 
L 54.267687 91.742943 
L 53.978094 91.697246 
L 53.942424 91.692006 
L 53.617156 91.631536 
L 53.291889 91.556201 
L 52.966622 91.465069 
L 52.641358 91.357451 
L 52.470362 91.293287 
L 52.316091 91.237256 
L 51.990824 91.105515 
L 51.665559 90.956884 
L 51.529247 90.889327 
L 51.340291 90.796353 
L 51.015026 90.621811 
L 50.782782 90.485367 
L 50.689759 90.42995 
L 50.364493 90.222841 
L 50.160877 90.081407 
L 50.039226 89.993904 
L 49.713961 89.74191 
L 49.635742 89.677447 
L 49.388694 89.462152 
L 49.187469 89.273488 
L 49.063428 89.148356 
L 48.802549 88.869528 
L 48.738161 88.794161 
L 48.469163 88.465568 
L 48.412895 88.388865 
L 48.179593 88.061608 
L 48.087628 87.914619 
L 47.929406 87.657648 
L 47.762363 87.341048 
L 47.716498 87.253689 
L 47.533589 86.849728 
L 47.437096 86.592685 
L 47.381338 86.445769 
L 47.25317 86.041809 
L 47.15063 85.63785 
L 47.11183 85.448804 
L 47.066209 85.233889 
z
" clip-path="url(#p81aade0eaf)" style="fill: none; stroke: #d94801; stroke-opacity: 0.111111; stroke-width: 1.5"/>
   </g>
   <g id="PathCollection_11">
    <path d="M 49.351601 84.425971 
L 49.280346 84.022011 
L 49.226755 83.618051 
L 49.189099 83.214092 
L 49.166068 82.810131 
L 49.156685 82.406171 
L 49.160215 82.002212 
L 49.176062 81.598252 
L 49.203674 81.194291 
L 49.242454 80.790333 
L 49.291703 80.386372 
L 49.35059 79.982413 
L 49.388694 79.754293 
L 49.416998 79.578453 
L 49.488903 79.174492 
L 49.566612 78.770534 
L 49.649129 78.366573 
L 49.713961 78.062963 
L 49.734723 77.962613 
L 49.820774 77.558654 
L 49.909357 77.154694 
L 50.000257 76.750735 
L 50.039226 76.579759 
L 50.09208 76.346774 
L 50.185586 75.942814 
L 50.282271 75.538855 
L 50.364493 75.206559 
L 50.382688 75.134895 
L 50.487595 74.730934 
L 50.598638 74.326975 
L 50.689759 74.013185 
L 50.717348 73.923015 
L 50.846183 73.519056 
L 50.98496 73.115096 
L 51.015026 73.031351 
L 51.137857 72.711135 
L 51.302756 72.307177 
L 51.340291 72.218526 
L 51.483044 71.903216 
L 51.665559 71.515986 
L 51.67396 71.499256 
L 51.87805 71.095297 
L 51.990824 70.874184 
L 52.088685 70.691337 
L 52.303489 70.287378 
L 52.316091 70.263327 
L 52.522487 69.883417 
L 52.641358 69.661956 
L 52.742738 69.479457 
L 52.965915 69.075496 
L 52.966622 69.074214 
L 53.198595 68.671539 
L 53.291889 68.512872 
L 53.444817 68.267579 
L 53.617156 68.001635 
L 53.71386 67.863618 
L 53.942424 67.554228 
L 54.019734 67.459661 
L 54.267687 67.174113 
L 54.384417 67.055701 
L 54.592955 66.856515 
L 54.84295 66.65174 
L 54.918222 66.593308 
L 55.243489 66.378676 
L 55.486426 66.24778 
L 55.568753 66.204933 
L 55.89402 66.068429 
L 56.219287 65.964439 
L 56.544554 65.89014 
L 56.86159 65.843819 
L 56.869818 65.842609 
L 57.195085 65.818289 
L 57.520352 65.813469 
L 57.845619 65.823445 
L 58.170883 65.842701 
L 58.187036 65.843819 
L 58.49615 65.864724 
L 58.821417 65.884566 
L 59.146685 65.898618 
L 59.471948 65.905659 
L 59.797216 65.907096 
L 60.122483 65.90654 
L 60.44775 65.908984 
L 60.773014 65.919974 
L 61.098281 65.945018 
L 61.423548 65.989313 
L 61.748815 66.05767 
L 62.074079 66.154488 
L 62.310791 66.24778 
L 62.399346 66.28244 
L 62.724613 66.441525 
L 63.04988 66.636386 
L 63.072583 66.65174 
L 63.375144 66.8608 
L 63.62701 67.055701 
L 63.700411 67.114033 
L 64.025678 67.386248 
L 64.111521 67.459661 
L 64.350946 67.668908 
L 64.574355 67.863618 
L 64.676209 67.954073 
L 65.001476 68.234448 
L 65.041589 68.267579 
L 65.326744 68.506553 
L 65.530116 68.671539 
L 65.652011 68.77244 
L 65.977275 69.034697 
L 66.028698 69.075496 
L 66.302542 69.299665 
L 66.519044 69.479457 
L 66.627809 69.573968 
L 66.953076 69.866366 
L 66.971205 69.883417 
L 67.27834 70.191478 
L 67.366988 70.287378 
L 67.603607 70.563773 
L 67.703341 70.691337 
L 67.928874 71.004683 
L 67.987985 71.095297 
L 68.232321 71.499256 
L 68.254141 71.537524 
L 68.444842 71.903216 
L 68.579405 72.173054 
L 68.641183 72.307177 
L 68.825036 72.711135 
L 68.904672 72.885651 
L 69.003385 73.115096 
L 69.180328 73.519056 
L 69.229939 73.629857 
L 69.355798 73.923015 
L 69.53252 74.326975 
L 69.555207 74.378332 
L 69.706143 74.730934 
L 69.877489 75.134895 
L 69.88047 75.142092 
L 70.04078 75.538855 
L 70.195358 75.942814 
L 70.205737 75.971869 
L 70.337349 76.346774 
L 70.465324 76.750735 
L 70.531005 76.985304 
L 70.578226 77.154694 
L 70.675643 77.558654 
L 70.757288 77.962613 
L 70.823664 78.366573 
L 70.856272 78.620736 
L 70.875956 78.770534 
L 70.91508 79.174492 
L 70.94091 79.578453 
L 70.953656 79.982413 
L 70.953033 80.386372 
L 70.938151 80.790333 
L 70.907445 81.194291 
L 70.85867 81.598252 
L 70.856272 81.612509 
L 70.79097 82.002212 
L 70.699411 82.406171 
L 70.57993 82.810131 
L 70.531005 82.943168 
L 70.431642 83.214092 
L 70.24851 83.618051 
L 70.205737 83.697125 
L 70.030495 84.022011 
L 69.88047 84.255967 
L 69.772041 84.425971 
L 69.555207 84.717322 
L 69.471902 84.82993 
L 69.229939 85.114619 
L 69.12901 85.233889 
L 68.904672 85.46777 
L 68.741589 85.63785 
L 68.579405 85.788921 
L 68.306371 86.041809 
L 68.254141 86.085532 
L 67.928874 86.358293 
L 67.823541 86.445769 
L 67.603607 86.613076 
L 67.284208 86.849728 
L 67.27834 86.853759 
L 66.953076 87.076541 
L 66.682779 87.253689 
L 66.627809 87.287561 
L 66.302542 87.483364 
L 65.994125 87.657648 
L 65.977275 87.666732 
L 65.652011 87.835707 
L 65.326744 87.991892 
L 65.171718 88.061608 
L 65.001476 88.135954 
L 64.676209 88.269121 
L 64.350946 88.393044 
L 64.150947 88.465568 
L 64.025678 88.510492 
L 63.700411 88.624001 
L 63.375144 88.734623 
L 63.04988 88.843851 
L 62.974054 88.869528 
L 62.724613 88.954185 
L 62.399346 89.064018 
L 62.074079 89.171837 
L 61.757252 89.273488 
L 61.748815 89.276219 
L 61.423548 89.377788 
L 61.098281 89.471732 
L 60.773014 89.556568 
L 60.44775 89.631285 
L 60.214604 89.677447 
L 60.122483 89.695991 
L 59.797216 89.751233 
L 59.471948 89.796151 
L 59.146685 89.831775 
L 58.821417 89.859368 
L 58.49615 89.880284 
L 58.170883 89.895841 
L 57.845619 89.907208 
L 57.520352 89.915306 
L 57.195085 89.92072 
L 56.869818 89.923629 
L 56.544554 89.92375 
L 56.219287 89.9203 
L 55.89402 89.911995 
L 55.568753 89.897094 
L 55.243489 89.873474 
L 54.918222 89.838758 
L 54.592955 89.79045 
L 54.267687 89.726091 
L 54.074301 89.677447 
L 53.942424 89.644121 
L 53.617156 89.54315 
L 53.291889 89.42037 
L 52.966622 89.274391 
L 52.964822 89.273488 
L 52.641358 89.104885 
L 52.316091 88.91001 
L 52.254139 88.869528 
L 51.990824 88.686912 
L 51.702773 88.465568 
L 51.665559 88.434692 
L 51.340291 88.146573 
L 51.25053 88.061608 
L 51.015026 87.816384 
L 50.87116 87.657648 
L 50.689759 87.433952 
L 50.550188 87.253689 
L 50.364493 86.981299 
L 50.278025 86.849728 
L 50.047782 86.445769 
L 50.039226 86.428464 
L 49.852327 86.041809 
L 49.713961 85.699588 
L 49.689377 85.63785 
L 49.55286 85.233889 
L 49.441603 84.82993 
L 49.388694 84.592499 
L 49.351601 84.425971 
z
" clip-path="url(#p81aade0eaf)" style="fill: none; stroke: #d94801; stroke-opacity: 0.333333; stroke-width: 1.5"/>
   </g>
   <g id="PathCollection_12">
    <path d="M 51.261124 84.022011 
L 51.186338 83.618051 
L 51.131099 83.214092 
L 51.093055 82.810131 
L 51.070237 82.406171 
L 51.061023 82.002212 
L 51.064113 81.598252 
L 51.078498 81.194291 
L 51.103438 80.790333 
L 51.138433 80.386372 
L 51.183195 79.982413 
L 51.237621 79.578453 
L 51.301769 79.174492 
L 51.340291 78.964036 
L 51.37634 78.770534 
L 51.462122 78.366573 
L 51.559126 77.962613 
L 51.665559 77.567116 
L 51.667957 77.558654 
L 51.793487 77.154694 
L 51.932846 76.750735 
L 51.990824 76.595341 
L 52.091635 76.346774 
L 52.269312 75.942814 
L 52.316091 75.842407 
L 52.472228 75.538855 
L 52.641358 75.228939 
L 52.698189 75.134895 
L 52.951154 74.730934 
L 52.966622 74.706711 
L 53.232023 74.326975 
L 53.291889 74.242037 
L 53.534055 73.923015 
L 53.617156 73.812568 
L 53.850884 73.519056 
L 53.942424 73.40154 
L 54.17567 73.115096 
L 54.267687 72.998659 
L 54.504654 72.711135 
L 54.592955 72.600562 
L 54.839641 72.307177 
L 54.918222 72.211188 
L 55.189376 71.903216 
L 55.243489 71.840735 
L 55.568753 71.50239 
L 55.57218 71.499256 
L 55.89402 71.205792 
L 56.039562 71.095297 
L 56.219287 70.960826 
L 56.544554 70.76749 
L 56.712328 70.691337 
L 56.869818 70.621451 
L 57.195085 70.514967 
L 57.520352 70.439566 
L 57.845619 70.385263 
L 58.170883 70.342716 
L 58.49615 70.304016 
L 58.628032 70.287378 
L 58.821417 70.262927 
L 59.146685 70.21628 
L 59.471948 70.164 
L 59.797216 70.108887 
L 60.122483 70.056945 
L 60.44775 70.017129 
L 60.773014 70.000649 
L 61.098281 70.019761 
L 61.423548 70.086096 
L 61.748815 70.208807 
L 61.88934 70.287378 
L 62.074079 70.396867 
L 62.399346 70.65228 
L 62.440516 70.691337 
L 62.724613 70.978375 
L 62.826369 71.095297 
L 63.04988 71.369175 
L 63.148269 71.499256 
L 63.375144 71.818879 
L 63.432848 71.903216 
L 63.693274 72.307177 
L 63.700411 72.318793 
L 63.939596 72.711135 
L 64.025678 72.857967 
L 64.178086 73.115096 
L 64.350946 73.413549 
L 64.413449 73.519056 
L 64.651637 73.923015 
L 64.676209 73.964119 
L 64.898744 74.326975 
L 65.001476 74.491629 
L 65.154486 74.730934 
L 65.326744 74.995624 
L 65.41913 75.134895 
L 65.652011 75.482098 
L 65.690502 75.538855 
L 65.964589 75.942814 
L 65.977275 75.961655 
L 66.236039 76.346774 
L 66.302542 76.44892 
L 66.496837 76.750735 
L 66.627809 76.965546 
L 66.740753 77.154694 
L 66.953076 77.540929 
L 66.962525 77.558654 
L 67.159105 77.962613 
L 67.27834 78.247481 
L 67.326211 78.366573 
L 67.463343 78.770534 
L 67.569929 79.174492 
L 67.603607 79.347404 
L 67.646914 79.578453 
L 67.695448 79.982413 
L 67.716609 80.386372 
L 67.711357 80.790333 
L 67.680227 81.194291 
L 67.623164 81.598252 
L 67.603607 81.692229 
L 67.540631 82.002212 
L 67.431337 82.406171 
L 67.29284 82.810131 
L 67.27834 82.84491 
L 67.125349 83.214092 
L 66.953076 83.55998 
L 66.924018 83.618051 
L 66.687116 84.022011 
L 66.627809 84.109583 
L 66.408932 84.425971 
L 66.302542 84.560766 
L 66.082652 84.82993 
L 65.977275 84.944584 
L 65.698118 85.233889 
L 65.652011 85.276919 
L 65.326744 85.564245 
L 65.237666 85.63785 
L 65.001476 85.816101 
L 64.676875 86.041809 
L 64.676209 86.042237 
L 64.350946 86.23922 
L 64.025678 86.421323 
L 63.979852 86.445769 
L 63.700411 86.586048 
L 63.375144 86.74202 
L 63.144275 86.849728 
L 63.04988 86.89173 
L 62.724613 87.034939 
L 62.399346 87.176067 
L 62.218346 87.253689 
L 62.074079 87.313285 
L 61.748815 87.444704 
L 61.423548 87.570697 
L 61.185605 87.657648 
L 61.098281 87.688556 
L 60.773014 87.794934 
L 60.44775 87.890469 
L 60.122483 87.97443 
L 59.797216 88.046708 
L 59.718164 88.061608 
L 59.471948 88.106661 
L 59.146685 88.156048 
L 58.821417 88.196414 
L 58.49615 88.229018 
L 58.170883 88.255001 
L 57.845619 88.275258 
L 57.520352 88.29034 
L 57.195085 88.300389 
L 56.869818 88.305088 
L 56.544554 88.30362 
L 56.219287 88.294638 
L 55.89402 88.276267 
L 55.568753 88.246127 
L 55.243489 88.201413 
L 54.918222 88.139007 
L 54.615829 88.061608 
L 54.592955 88.055419 
L 54.267687 87.943996 
L 53.942424 87.804057 
L 53.663267 87.657648 
L 53.617156 87.631323 
L 53.291889 87.415057 
L 53.082532 87.253689 
L 52.966622 87.154135 
L 52.651679 86.849728 
L 52.641358 86.838405 
L 52.316091 86.448687 
L 52.31382 86.445769 
L 52.040256 86.041809 
L 51.990824 85.955935 
L 51.815485 85.63785 
L 51.665559 85.311682 
L 51.630777 85.233889 
L 51.479777 84.82993 
L 51.358085 84.425971 
L 51.340291 84.352338 
L 51.261124 84.022011 
z
" clip-path="url(#p81aade0eaf)" style="fill: none; stroke: #d94801; stroke-opacity: 0.555556; stroke-width: 1.5"/>
   </g>
   <g id="PathCollection_13">
    <path d="M 52.957778 82.810131 
L 52.925028 82.406171 
L 52.910269 82.002212 
L 52.911841 81.598252 
L 52.928716 81.194291 
L 52.960486 80.790333 
L 52.966622 80.736855 
L 53.010211 80.386372 
L 53.077618 79.982413 
L 53.163615 79.578453 
L 53.269766 79.174492 
L 53.291889 79.103478 
L 53.407513 78.770534 
L 53.572906 78.366573 
L 53.617156 78.271912 
L 53.778851 77.962613 
L 53.942424 77.683972 
L 54.023891 77.558654 
L 54.267687 77.214844 
L 54.314043 77.154694 
L 54.592955 76.814564 
L 54.648662 76.750735 
L 54.918222 76.454662 
L 55.021201 76.346774 
L 55.243489 76.120246 
L 55.425297 75.942814 
L 55.568753 75.805264 
L 55.861231 75.538855 
L 55.89402 75.509324 
L 56.219287 75.235422 
L 56.349508 75.134895 
L 56.544554 74.985986 
L 56.869818 74.764571 
L 56.926361 74.730934 
L 57.195085 74.572802 
L 57.520352 74.411503 
L 57.728667 74.326975 
L 57.845619 74.279909 
L 58.170883 74.177366 
L 58.49615 74.102567 
L 58.821417 74.054862 
L 59.146685 74.034629 
L 59.471948 74.04354 
L 59.797216 74.084767 
L 60.122483 74.163076 
L 60.44775 74.284702 
L 60.530431 74.326975 
L 60.773014 74.456223 
L 61.098281 74.682895 
L 61.154673 74.730934 
L 61.423548 74.96446 
L 61.590439 75.134895 
L 61.748815 75.29705 
L 61.958843 75.538855 
L 62.074079 75.670345 
L 62.293386 75.942814 
L 62.399346 76.072868 
L 62.60915 76.346774 
L 62.724613 76.496492 
L 62.912101 76.750735 
L 63.04988 76.938607 
L 63.203275 77.154694 
L 63.375144 77.40235 
L 63.481053 77.558654 
L 63.700411 77.896504 
L 63.742567 77.962613 
L 63.984336 78.366573 
L 64.025678 78.441832 
L 64.203472 78.770534 
L 64.350946 79.076854 
L 64.397279 79.174492 
L 64.56213 79.578453 
L 64.676209 79.92159 
L 64.696064 79.982413 
L 64.79492 80.386372 
L 64.857152 80.790333 
L 64.880138 81.194291 
L 64.861278 81.598252 
L 64.79814 82.002212 
L 64.688503 82.406171 
L 64.676209 82.437695 
L 64.523469 82.810131 
L 64.350946 83.128359 
L 64.301584 83.214092 
L 64.025678 83.598244 
L 64.010514 83.618051 
L 63.700411 83.956654 
L 63.636817 84.022011 
L 63.375144 84.254134 
L 63.171313 84.425971 
L 63.04988 84.516558 
L 62.724613 84.750293 
L 62.610392 84.82993 
L 62.399346 84.963005 
L 62.074079 85.16288 
L 61.954989 85.233889 
L 61.748815 85.346716 
L 61.423548 85.517845 
L 61.183099 85.63785 
L 61.098281 85.677045 
L 60.773014 85.81653 
L 60.44775 85.944079 
L 60.170316 86.041809 
L 60.122483 86.057458 
L 59.797216 86.15123 
L 59.471948 86.233079 
L 59.146685 86.303931 
L 58.821417 86.364835 
L 58.49615 86.416695 
L 58.27827 86.445769 
L 58.170883 86.459048 
L 57.845619 86.49146 
L 57.520352 86.51558 
L 57.195085 86.530523 
L 56.869818 86.534903 
L 56.544554 86.526797 
L 56.219287 86.503701 
L 55.89402 86.462486 
L 55.806868 86.445769 
L 55.568753 86.395 
L 55.243489 86.296972 
L 54.918222 86.164648 
L 54.684386 86.041809 
L 54.592955 85.986619 
L 54.267687 85.742936 
L 54.151496 85.63785 
L 53.942424 85.41459 
L 53.797554 85.233889 
L 53.617156 84.961884 
L 53.539604 84.82993 
L 53.346728 84.425971 
L 53.291889 84.281122 
L 53.201786 84.022011 
L 53.093376 83.618051 
L 53.01316 83.214092 
L 52.966622 82.877662 
L 52.957778 82.810131 
z
" clip-path="url(#p81aade0eaf)" style="fill: none; stroke: #d94801; stroke-opacity: 0.666667; stroke-width: 1.5"/>
   </g>
   <g id="PathCollection_14">
    <path d="M 55.837282 82.406171 
L 55.792088 82.002212 
L 55.809185 81.598252 
L 55.877986 81.194291 
L 55.89402 81.137966 
L 56.001788 80.790333 
L 56.168152 80.386372 
L 56.219287 80.285885 
L 56.386928 79.982413 
L 56.544554 79.737901 
L 56.6578 79.578453 
L 56.869818 79.316044 
L 56.999481 79.174492 
L 57.195085 78.983556 
L 57.453535 78.770534 
L 57.520352 78.720633 
L 57.845619 78.530228 
L 58.170883 78.394815 
L 58.29124 78.366573 
L 58.49615 78.322807 
L 58.821417 78.308165 
L 59.146685 78.347863 
L 59.212691 78.366573 
L 59.471948 78.449122 
L 59.797216 78.608869 
L 60.044936 78.770534 
L 60.122483 78.829359 
L 60.44775 79.132898 
L 60.485609 79.174492 
L 60.773014 79.560453 
L 60.784765 79.578453 
L 60.982694 79.982413 
L 61.098281 80.349553 
L 61.108716 80.386372 
L 61.154227 80.790333 
L 61.127544 81.194291 
L 61.098281 81.310835 
L 61.017673 81.598252 
L 60.820486 82.002212 
L 60.773014 82.070601 
L 60.514367 82.406171 
L 60.44775 82.473301 
L 60.122483 82.768072 
L 60.070522 82.810131 
L 59.797216 82.991752 
L 59.471948 83.184655 
L 59.41524 83.214092 
L 59.146685 83.33213 
L 58.821417 83.455097 
L 58.49615 83.557011 
L 58.240528 83.618051 
L 58.170883 83.632385 
L 57.845619 83.673688 
L 57.520352 83.685488 
L 57.195085 83.661511 
L 56.982958 83.618051 
L 56.869818 83.587775 
L 56.544554 83.433471 
L 56.249227 83.214092 
L 56.219287 83.181245 
L 55.972613 82.810131 
L 55.89402 82.598408 
L 55.837282 82.406171 
z
" clip-path="url(#p81aade0eaf)" style="fill: none; stroke: #d94801; stroke-opacity: 0.888889; stroke-width: 1.5"/>
   </g>
   <g id="PathCollection_15"/>
   <g id="patch_3">
    <path d="M 32.474844 104.22 
L 32.474844 23.832 
" style="fill: none; stroke: #000000; stroke-width: 1.5; stroke-linejoin: miter; stroke-linecap: square"/>
   </g>
   <g id="patch_4">
    <path d="M 32.474844 104.22 
L 97.202844 104.22 
" style="fill: none; stroke: #000000; stroke-width: 1.5; stroke-linejoin: miter; stroke-linecap: square"/>
   </g>
  </g>
  <g id="axes_2">
   <g id="patch_5">
    <path d="M 32.474844 21.06 
L 97.202844 21.06 
L 97.202844 7.2 
L 32.474844 7.2 
L 32.474844 21.06 
z
" style="fill: none"/>
   </g>
   <g id="PolyCollection_1">
    <defs>
     <path id="m1f21f1bee6" d="M 32.474844 -118.860781 
L 32.474844 -118.860781 
L 32.80011 -118.860781 
L 33.125376 -118.860781 
L 33.450643 -118.860781 
L 33.775909 -118.860781 
L 34.101175 -118.860781 
L 34.426442 -118.860781 
L 34.751708 -118.860781 
L 35.076974 -118.860781 
L 35.402241 -118.860781 
L 35.727507 -118.860781 
L 36.052773 -118.860781 
L 36.378039 -118.860781 
L 36.703306 -118.860781 
L 37.028572 -118.860781 
L 37.353838 -118.860781 
L 37.679105 -118.860781 
L 38.004371 -118.860781 
L 38.329637 -118.860781 
L 38.654904 -118.860781 
L 38.98017 -118.860781 
L 39.305437 -118.860781 
L 39.630703 -118.860781 
L 39.95597 -118.860781 
L 40.281235 -118.860781 
L 40.606502 -118.860781 
L 40.931768 -118.860781 
L 41.257035 -118.860781 
L 41.5823 -118.860781 
L 41.907568 -118.860781 
L 42.232833 -118.860781 
L 42.5581 -118.860781 
L 42.883367 -118.860781 
L 43.208635 -118.860781 
L 43.5339 -118.860781 
L 43.859167 -118.860781 
L 44.184433 -118.860781 
L 44.5097 -118.860781 
L 44.834965 -118.860781 
L 45.160232 -118.860781 
L 45.485498 -118.860781 
L 45.810765 -118.860781 
L 46.13603 -118.860781 
L 46.461298 -118.860781 
L 46.786563 -118.860781 
L 47.11183 -118.860781 
L 47.437096 -118.860781 
L 47.762363 -118.860781 
L 48.087628 -118.860781 
L 48.412895 -118.860781 
L 48.738161 -118.860781 
L 49.063428 -118.860781 
L 49.388694 -118.860781 
L 49.713961 -118.860781 
L 50.039226 -118.860781 
L 50.364493 -118.860781 
L 50.689759 -118.860781 
L 51.015026 -118.860781 
L 51.340291 -118.860781 
L 51.665559 -118.860781 
L 51.990824 -118.860781 
L 52.316091 -118.860781 
L 52.641358 -118.860781 
L 52.966622 -118.860781 
L 53.291889 -118.860781 
L 53.617156 -118.860781 
L 53.942424 -118.860781 
L 54.267687 -118.860781 
L 54.592955 -118.860781 
L 54.918222 -118.860781 
L 55.243489 -118.860781 
L 55.568753 -118.860781 
L 55.89402 -118.860781 
L 56.219287 -118.860781 
L 56.544554 -118.860781 
L 56.869818 -118.860781 
L 57.195085 -118.860781 
L 57.520352 -118.860781 
L 57.845619 -118.860781 
L 58.170883 -118.860781 
L 58.49615 -118.860781 
L 58.821417 -118.860781 
L 59.146685 -118.860781 
L 59.471948 -118.860781 
L 59.797216 -118.860781 
L 60.122483 -118.860781 
L 60.44775 -118.860781 
L 60.773014 -118.860781 
L 61.098281 -118.860781 
L 61.423548 -118.860781 
L 61.748815 -118.860781 
L 62.074079 -118.860781 
L 62.399346 -118.860781 
L 62.724613 -118.860781 
L 63.04988 -118.860781 
L 63.375144 -118.860781 
L 63.700411 -118.860781 
L 64.025678 -118.860781 
L 64.350946 -118.860781 
L 64.676209 -118.860781 
L 65.001476 -118.860781 
L 65.326744 -118.860781 
L 65.652011 -118.860781 
L 65.977275 -118.860781 
L 66.302542 -118.860781 
L 66.627809 -118.860781 
L 66.953076 -118.860781 
L 67.27834 -118.860781 
L 67.603607 -118.860781 
L 67.928874 -118.860781 
L 68.254141 -118.860781 
L 68.579405 -118.860781 
L 68.904672 -118.860781 
L 69.229939 -118.860781 
L 69.555207 -118.860781 
L 69.88047 -118.860781 
L 70.205737 -118.860781 
L 70.531005 -118.860781 
L 70.856272 -118.860781 
L 71.181536 -118.860781 
L 71.506803 -118.860781 
L 71.83207 -118.860781 
L 72.157337 -118.860781 
L 72.482601 -118.860781 
L 72.807868 -118.860781 
L 73.133135 -118.860781 
L 73.458402 -118.860781 
L 73.783666 -118.860781 
L 74.108933 -118.860781 
L 74.4342 -118.860781 
L 74.759467 -118.860781 
L 75.084731 -118.860781 
L 75.409998 -118.860781 
L 75.735266 -118.860781 
L 76.060533 -118.860781 
L 76.385797 -118.860781 
L 76.711064 -118.860781 
L 77.036331 -118.860781 
L 77.361598 -118.860781 
L 77.686862 -118.860781 
L 78.012129 -118.860781 
L 78.337396 -118.860781 
L 78.662663 -118.860781 
L 78.987927 -118.860781 
L 79.313194 -118.860781 
L 79.638461 -118.860781 
L 79.963728 -118.860781 
L 80.288992 -118.860781 
L 80.614259 -118.860781 
L 80.939527 -118.860781 
L 81.264794 -118.860781 
L 81.590061 -118.860781 
L 81.915328 -118.860781 
L 82.240595 -118.860781 
L 82.565862 -118.860781 
L 82.891129 -118.860781 
L 83.216397 -118.860781 
L 83.541657 -118.860781 
L 83.866924 -118.860781 
L 84.192191 -118.860781 
L 84.517458 -118.860781 
L 84.842726 -118.860781 
L 85.167993 -118.860781 
L 85.49326 -118.860781 
L 85.818527 -118.860781 
L 86.143788 -118.860781 
L 86.469055 -118.860781 
L 86.794322 -118.860781 
L 87.119589 -118.860781 
L 87.444856 -118.860781 
L 87.770123 -118.860781 
L 88.09539 -118.860781 
L 88.420658 -118.860781 
L 88.745918 -118.860781 
L 89.071185 -118.860781 
L 89.396452 -118.860781 
L 89.721719 -118.860781 
L 90.046987 -118.860781 
L 90.372254 -118.860781 
L 90.697521 -118.860781 
L 91.022788 -118.860781 
L 91.348048 -118.860781 
L 91.673316 -118.860781 
L 91.998583 -118.860781 
L 92.32385 -118.860781 
L 92.649117 -118.860781 
L 92.974384 -118.860781 
L 93.299651 -118.860781 
L 93.624919 -118.860781 
L 93.950179 -118.860781 
L 94.275446 -118.860781 
L 94.600713 -118.860781 
L 94.92598 -118.860781 
L 95.251248 -118.860781 
L 95.576515 -118.860781 
L 95.901775 -118.860781 
L 96.227042 -118.860781 
L 96.552309 -118.860781 
L 96.877577 -118.860781 
L 97.202844 -118.860781 
L 97.202844 -118.860781 
L 97.202844 -118.860781 
L 96.877577 -118.860781 
L 96.552309 -118.860781 
L 96.227042 -118.860781 
L 95.901775 -118.860781 
L 95.576515 -118.860781 
L 95.251248 -118.860781 
L 94.92598 -118.860781 
L 94.600713 -118.860781 
L 94.275446 -118.860781 
L 93.950179 -118.860781 
L 93.624919 -118.860781 
L 93.299651 -118.860781 
L 92.974384 -118.860781 
L 92.649117 -118.860781 
L 92.32385 -118.860781 
L 91.998583 -118.860781 
L 91.673316 -118.860781 
L 91.348048 -118.860781 
L 91.022788 -118.860781 
L 90.697521 -118.860781 
L 90.372254 -118.860781 
L 90.046987 -118.860781 
L 89.721719 -118.860781 
L 89.396452 -118.860781 
L 89.071185 -118.860781 
L 88.745918 -118.860781 
L 88.420658 -118.860781 
L 88.09539 -118.860781 
L 87.770123 -118.860781 
L 87.444856 -118.860781 
L 87.119589 -118.860781 
L 86.794322 -118.860781 
L 86.469055 -118.860781 
L 86.143788 -118.860781 
L 85.818527 -118.860781 
L 85.49326 -118.860781 
L 85.167993 -118.860781 
L 84.842726 -118.860782 
L 84.517458 -118.860783 
L 84.192191 -118.86079 
L 83.866924 -118.860818 
L 83.541657 -118.860911 
L 83.216397 -118.861173 
L 82.891129 -118.861789 
L 82.565862 -118.863001 
L 82.240595 -118.864957 
L 81.915328 -118.867494 
L 81.590061 -118.870005 
L 81.264794 -118.871611 
L 80.939527 -118.871647 
L 80.614259 -118.870099 
L 80.288992 -118.867609 
L 79.963728 -118.865057 
L 79.638461 -118.863072 
L 79.313194 -118.861843 
L 78.987927 -118.861258 
L 78.662663 -118.861174 
L 78.337396 -118.861651 
L 78.012129 -118.863107 
L 77.686862 -118.866335 
L 77.361598 -118.872243 
L 77.036331 -118.88124 
L 76.711064 -118.892578 
L 76.385797 -118.904357 
L 76.060533 -118.914623 
L 75.735266 -118.922922 
L 75.409998 -118.930898 
L 75.084731 -118.941204 
L 74.759467 -118.955701 
L 74.4342 -118.974583 
L 74.108933 -118.997014 
L 73.783666 -119.022211 
L 73.458402 -119.049664 
L 73.133135 -119.078384 
L 72.807868 -119.106254 
L 72.482601 -119.130623 
L 72.157337 -119.150226 
L 71.83207 -119.167073 
L 71.506803 -119.186357 
L 71.181536 -119.213599 
L 70.856272 -119.2507 
L 70.531005 -119.294013 
L 70.205737 -119.336215 
L 69.88047 -119.370898 
L 69.555207 -119.397095 
L 69.229939 -119.421471 
L 68.904672 -119.456794 
L 68.579405 -119.51631 
L 68.254141 -119.606208 
L 67.928874 -119.721252 
L 67.603607 -119.847615 
L 67.27834 -119.97139 
L 66.953076 -120.086717 
L 66.627809 -120.198931 
L 66.302542 -120.322744 
L 65.977275 -120.477678 
L 65.652011 -120.681993 
L 65.326744 -120.945714 
L 65.001476 -121.265041 
L 64.676209 -121.622276 
L 64.350946 -121.993405 
L 64.025678 -122.359528 
L 63.700411 -122.713509 
L 63.375144 -123.056557 
L 63.04988 -123.389031 
L 62.724613 -123.706057 
L 62.399346 -124.003518 
L 62.074079 -124.288607 
L 61.748815 -124.583408 
L 61.423548 -124.916425 
L 61.098281 -125.30846 
L 60.773014 -125.764021 
L 60.44775 -126.273337 
L 60.122483 -126.821055 
L 59.797216 -127.39397 
L 59.471948 -127.983241 
L 59.146685 -128.581414 
L 58.821417 -129.179009 
L 58.49615 -129.765916 
L 58.170883 -130.337901 
L 57.845619 -130.901028 
L 57.520352 -131.467034 
L 57.195085 -132.042084 
L 56.869818 -132.619715 
L 56.544554 -133.184652 
L 56.219287 -133.723232 
L 55.89402 -134.231158 
L 55.568753 -134.714452 
L 55.243489 -135.185129 
L 54.918222 -135.653948 
L 54.592955 -136.121055 
L 54.267687 -136.567605 
L 53.942424 -136.954395 
L 53.617156 -137.231123 
L 53.291889 -137.352063 
L 52.966622 -137.290871 
L 52.641358 -137.050882 
L 52.316091 -136.668626 
L 51.990824 -136.204553 
L 51.665559 -135.718862 
L 51.340291 -135.245418 
L 51.015026 -134.783541 
L 50.689759 -134.311849 
L 50.364493 -133.807964 
L 50.039226 -133.257194 
L 49.713961 -132.649937 
L 49.388694 -131.97774 
L 49.063428 -131.234113 
L 48.738161 -130.419167 
L 48.412895 -129.544953 
L 48.087628 -128.637131 
L 47.762363 -127.729348 
L 47.437096 -126.852056 
L 47.11183 -126.023914 
L 46.786563 -125.251291 
L 46.461298 -124.53328 
L 46.13603 -123.866066 
L 45.810765 -123.245082 
L 45.485498 -122.666497 
L 45.160232 -122.128208 
L 44.834965 -121.629191 
L 44.5097 -121.168827 
L 44.184433 -120.748524 
L 43.859167 -120.3743 
L 43.5339 -120.055886 
L 43.208635 -119.801134 
L 42.883367 -119.609782 
L 42.5581 -119.471511 
L 42.232833 -119.36931 
L 41.907568 -119.285638 
L 41.5823 -119.207999 
L 41.257035 -119.131594 
L 40.931768 -119.058372 
L 40.606502 -118.993592 
L 40.281235 -118.942015 
L 39.95597 -118.905523 
L 39.630703 -118.882765 
L 39.305437 -118.870338 
L 38.98017 -118.864431 
L 38.654904 -118.861999 
L 38.329637 -118.861134 
L 38.004371 -118.86087 
L 37.679105 -118.860801 
L 37.353838 -118.860785 
L 37.028572 -118.860782 
L 36.703306 -118.860781 
L 36.378039 -118.860781 
L 36.052773 -118.860781 
L 35.727507 -118.860781 
L 35.402241 -118.860781 
L 35.076974 -118.860781 
L 34.751708 -118.860781 
L 34.426442 -118.860781 
L 34.101175 -118.860781 
L 33.775909 -118.860781 
L 33.450643 -118.860781 
L 33.125376 -118.860781 
L 32.80011 -118.860781 
L 32.474844 -118.860781 
z
" style="stroke: #08519c; stroke-opacity: 0.1"/>
    </defs>
    <g clip-path="url(#p229529f1d3)">
     <use xlink:href="#m1f21f1bee6" x="0" y="139.920781" style="fill: #08519c; fill-opacity: 0.1; stroke: #08519c; stroke-opacity: 0.1"/>
    </g>
   </g>
   <g id="PolyCollection_2">
    <defs>
     <path id="mbfad54b1d6" d="M 32.474844 -118.860781 
L 32.474844 -118.860781 
L 32.80011 -118.860781 
L 33.125376 -118.860781 
L 33.450643 -118.860781 
L 33.775909 -118.860781 
L 34.101175 -118.860781 
L 34.426442 -118.860781 
L 34.751708 -118.860781 
L 35.076974 -118.860781 
L 35.402241 -118.860781 
L 35.727507 -118.860781 
L 36.052773 -118.860781 
L 36.378039 -118.860781 
L 36.703306 -118.860781 
L 37.028572 -118.860781 
L 37.353838 -118.860781 
L 37.679105 -118.860781 
L 38.004371 -118.860781 
L 38.329637 -118.860781 
L 38.654904 -118.860781 
L 38.98017 -118.860781 
L 39.305437 -118.860781 
L 39.630703 -118.860781 
L 39.95597 -118.860781 
L 40.281235 -118.860781 
L 40.606502 -118.860781 
L 40.931768 -118.860781 
L 41.257035 -118.860781 
L 41.5823 -118.860781 
L 41.907568 -118.860781 
L 42.232833 -118.860781 
L 42.5581 -118.860781 
L 42.883367 -118.860781 
L 43.208635 -118.860781 
L 43.5339 -118.860781 
L 43.859167 -118.860781 
L 44.184433 -118.860781 
L 44.5097 -118.860781 
L 44.834965 -118.860781 
L 45.160232 -118.860781 
L 45.485498 -118.860781 
L 45.810765 -118.860781 
L 46.13603 -118.860781 
L 46.461298 -118.860781 
L 46.786563 -118.860781 
L 47.11183 -118.860781 
L 47.437096 -118.860781 
L 47.762363 -118.860781 
L 48.087628 -118.860781 
L 48.412895 -118.860781 
L 48.738161 -118.860781 
L 49.063428 -118.860781 
L 49.388694 -118.860781 
L 49.713961 -118.860781 
L 50.039226 -118.860781 
L 50.364493 -118.860781 
L 50.689759 -118.860781 
L 51.015026 -118.860781 
L 51.340291 -118.860781 
L 51.665559 -118.860781 
L 51.990824 -118.860781 
L 52.316091 -118.860781 
L 52.641358 -118.860781 
L 52.966622 -118.860781 
L 53.291889 -118.860781 
L 53.617156 -118.860781 
L 53.942424 -118.860781 
L 54.267687 -118.860781 
L 54.592955 -118.860781 
L 54.918222 -118.860781 
L 55.243489 -118.860781 
L 55.568753 -118.860781 
L 55.89402 -118.860781 
L 56.219287 -118.860781 
L 56.544554 -118.860781 
L 56.869818 -118.860781 
L 57.195085 -118.860781 
L 57.520352 -118.860781 
L 57.845619 -118.860781 
L 58.170883 -118.860781 
L 58.49615 -118.860781 
L 58.821417 -118.860781 
L 59.146685 -118.860781 
L 59.471948 -118.860781 
L 59.797216 -118.860781 
L 60.122483 -118.860781 
L 60.44775 -118.860781 
L 60.773014 -118.860781 
L 61.098281 -118.860781 
L 61.423548 -118.860781 
L 61.748815 -118.860781 
L 62.074079 -118.860781 
L 62.399346 -118.860781 
L 62.724613 -118.860781 
L 63.04988 -118.860781 
L 63.375144 -118.860781 
L 63.700411 -118.860781 
L 64.025678 -118.860781 
L 64.350946 -118.860781 
L 64.676209 -118.860781 
L 65.001476 -118.860781 
L 65.326744 -118.860781 
L 65.652011 -118.860781 
L 65.977275 -118.860781 
L 66.302542 -118.860781 
L 66.627809 -118.860781 
L 66.953076 -118.860781 
L 67.27834 -118.860781 
L 67.603607 -118.860781 
L 67.928874 -118.860781 
L 68.254141 -118.860781 
L 68.579405 -118.860781 
L 68.904672 -118.860781 
L 69.229939 -118.860781 
L 69.555207 -118.860781 
L 69.88047 -118.860781 
L 70.205737 -118.860781 
L 70.531005 -118.860781 
L 70.856272 -118.860781 
L 71.181536 -118.860781 
L 71.506803 -118.860781 
L 71.83207 -118.860781 
L 72.157337 -118.860781 
L 72.482601 -118.860781 
L 72.807868 -118.860781 
L 73.133135 -118.860781 
L 73.458402 -118.860781 
L 73.783666 -118.860781 
L 74.108933 -118.860781 
L 74.4342 -118.860781 
L 74.759467 -118.860781 
L 75.084731 -118.860781 
L 75.409998 -118.860781 
L 75.735266 -118.860781 
L 76.060533 -118.860781 
L 76.385797 -118.860781 
L 76.711064 -118.860781 
L 77.036331 -118.860781 
L 77.361598 -118.860781 
L 77.686862 -118.860781 
L 78.012129 -118.860781 
L 78.337396 -118.860781 
L 78.662663 -118.860781 
L 78.987927 -118.860781 
L 79.313194 -118.860781 
L 79.638461 -118.860781 
L 79.963728 -118.860781 
L 80.288992 -118.860781 
L 80.614259 -118.860781 
L 80.939527 -118.860781 
L 81.264794 -118.860781 
L 81.590061 -118.860781 
L 81.915328 -118.860781 
L 82.240595 -118.860781 
L 82.565862 -118.860781 
L 82.891129 -118.860781 
L 83.216397 -118.860781 
L 83.541657 -118.860781 
L 83.866924 -118.860781 
L 84.192191 -118.860781 
L 84.517458 -118.860781 
L 84.842726 -118.860781 
L 85.167993 -118.860781 
L 85.49326 -118.860781 
L 85.818527 -118.860781 
L 86.143788 -118.860781 
L 86.469055 -118.860781 
L 86.794322 -118.860781 
L 87.119589 -118.860781 
L 87.444856 -118.860781 
L 87.770123 -118.860781 
L 88.09539 -118.860781 
L 88.420658 -118.860781 
L 88.745918 -118.860781 
L 89.071185 -118.860781 
L 89.396452 -118.860781 
L 89.721719 -118.860781 
L 90.046987 -118.860781 
L 90.372254 -118.860781 
L 90.697521 -118.860781 
L 91.022788 -118.860781 
L 91.348048 -118.860781 
L 91.673316 -118.860781 
L 91.998583 -118.860781 
L 92.32385 -118.860781 
L 92.649117 -118.860781 
L 92.974384 -118.860781 
L 93.299651 -118.860781 
L 93.624919 -118.860781 
L 93.950179 -118.860781 
L 94.275446 -118.860781 
L 94.600713 -118.860781 
L 94.92598 -118.860781 
L 95.251248 -118.860781 
L 95.576515 -118.860781 
L 95.901775 -118.860781 
L 96.227042 -118.860781 
L 96.552309 -118.860781 
L 96.877577 -118.860781 
L 97.202844 -118.860781 
L 97.202844 -118.911239 
L 97.202844 -118.911239 
L 96.877577 -118.910401 
L 96.552309 -118.9091 
L 96.227042 -118.90743 
L 95.901775 -118.905553 
L 95.576515 -118.903737 
L 95.251248 -118.902363 
L 94.92598 -118.9019 
L 94.600713 -118.902838 
L 94.275446 -118.905581 
L 93.950179 -118.910339 
L 93.624919 -118.917041 
L 93.299651 -118.925305 
L 92.974384 -118.934485 
L 92.649117 -118.94381 
L 92.32385 -118.952578 
L 91.998583 -118.960356 
L 91.673316 -118.967118 
L 91.348048 -118.973267 
L 91.022788 -118.97951 
L 90.697521 -118.986655 
L 90.372254 -118.995363 
L 90.046987 -119.005981 
L 89.721719 -119.018479 
L 89.396452 -119.032522 
L 89.071185 -119.047622 
L 88.745918 -119.063303 
L 88.420658 -119.079219 
L 88.09539 -119.095209 
L 87.770123 -119.111275 
L 87.444856 -119.127541 
L 87.119589 -119.144213 
L 86.794322 -119.161567 
L 86.469055 -119.179937 
L 86.143788 -119.199713 
L 85.818527 -119.221316 
L 85.49326 -119.245184 
L 85.167993 -119.271766 
L 84.842726 -119.30154 
L 84.517458 -119.335025 
L 84.192191 -119.372746 
L 83.866924 -119.415159 
L 83.541657 -119.462531 
L 83.216397 -119.514814 
L 82.891129 -119.571562 
L 82.565862 -119.631857 
L 82.240595 -119.694289 
L 81.915328 -119.756976 
L 81.590061 -119.817652 
L 81.264794 -119.873889 
L 80.939527 -119.92346 
L 80.614259 -119.964828 
L 80.288992 -119.99765 
L 79.963728 -120.023156 
L 79.638461 -120.044233 
L 79.313194 -120.065146 
L 78.987927 -120.090875 
L 78.662663 -120.126203 
L 78.337396 -120.174745 
L 78.012129 -120.238156 
L 77.686862 -120.315771 
L 77.361598 -120.404779 
L 77.036331 -120.500983 
L 76.711064 -120.599936 
L 76.385797 -120.698194 
L 76.060533 -120.794325 
L 75.735266 -120.889383 
L 75.409998 -120.986705 
L 75.084731 -121.091081 
L 74.759467 -121.207541 
L 74.4342 -121.340086 
L 74.108933 -121.490689 
L 73.783666 -121.658857 
L 73.458402 -121.841805 
L 73.133135 -122.035207 
L 72.807868 -122.234248 
L 72.482601 -122.434707 
L 72.157337 -122.633765 
L 71.83207 -122.830354 
L 71.506803 -123.024983 
L 71.181536 -123.219195 
L 70.856272 -123.414876 
L 70.531005 -123.613666 
L 70.205737 -123.816624 
L 69.88047 -124.024204 
L 69.555207 -124.236388 
L 69.229939 -124.452828 
L 68.904672 -124.672862 
L 68.579405 -124.895456 
L 68.254141 -125.119164 
L 67.928874 -125.342283 
L 67.603607 -125.563215 
L 67.27834 -125.780979 
L 66.953076 -125.995643 
L 66.627809 -126.208464 
L 66.302542 -126.421601 
L 65.977275 -126.637478 
L 65.652011 -126.85798 
L 65.326744 -127.083818 
L 65.001476 -127.314284 
L 64.676209 -127.547604 
L 64.350946 -127.781751 
L 64.025678 -128.015406 
L 63.700411 -128.248592 
L 63.375144 -128.482594 
L 63.04988 -128.719021 
L 62.724613 -128.958285 
L 62.399346 -129.198071 
L 62.074079 -129.432567 
L 61.748815 -129.652918 
L 61.423548 -129.848955 
L 61.098281 -130.011638 
L 60.773014 -130.135433 
L 60.44775 -130.219744 
L 60.122483 -130.268937 
L 59.797216 -130.290971 
L 59.471948 -130.295148 
L 59.146685 -130.289691 
L 58.821417 -130.27991 
L 58.49615 -130.267395 
L 58.170883 -130.250328 
L 57.845619 -130.224648 
L 57.520352 -130.185553 
L 57.195085 -130.1289 
L 56.869818 -130.052168 
L 56.544554 -129.95488 
L 56.219287 -129.83849 
L 55.89402 -129.705757 
L 55.568753 -129.559657 
L 55.243489 -129.402019 
L 54.918222 -129.232263 
L 54.592955 -129.046819 
L 54.267687 -128.839627 
L 53.942424 -128.603773 
L 53.617156 -128.333724 
L 53.291889 -128.027301 
L 52.966622 -127.686494 
L 52.641358 -127.316831 
L 52.316091 -126.925584 
L 51.990824 -126.519719 
L 51.665559 -126.104376 
L 51.340291 -125.68245 
L 51.015026 -125.255254 
L 50.689759 -124.823763 
L 50.364493 -124.389883 
L 50.039226 -123.957213 
L 49.713961 -123.531131 
L 49.388694 -123.118168 
L 49.063428 -122.724983 
L 48.738161 -122.357167 
L 48.412895 -122.018289 
L 48.087628 -121.709391 
L 47.762363 -121.429113 
L 47.437096 -121.17435 
L 47.11183 -120.941265 
L 46.786563 -120.726291 
L 46.461298 -120.526859 
L 46.13603 -120.341634 
L 45.810765 -120.17031 
L 45.485498 -120.013104 
L 45.160232 -119.870207 
L 44.834965 -119.741388 
L 44.5097 -119.625872 
L 44.184433 -119.522464 
L 43.859167 -119.429824 
L 43.5339 -119.346752 
L 43.208635 -119.272374 
L 42.883367 -119.206161 
L 42.5581 -119.147814 
L 42.232833 -119.097066 
L 41.907568 -119.053509 
L 41.5823 -119.016526 
L 41.257035 -118.985329 
L 40.931768 -118.959091 
L 40.606502 -118.937072 
L 40.281235 -118.918703 
L 39.95597 -118.90358 
L 39.630703 -118.891406 
L 39.305437 -118.881909 
L 38.98017 -118.874782 
L 38.654904 -118.869667 
L 38.329637 -118.86617 
L 38.004371 -118.863897 
L 37.679105 -118.862497 
L 37.353838 -118.861679 
L 37.028572 -118.861228 
L 36.703306 -118.860992 
L 36.378039 -118.860875 
L 36.052773 -118.860821 
L 35.727507 -118.860797 
L 35.402241 -118.860787 
L 35.076974 -118.860783 
L 34.751708 -118.860782 
L 34.426442 -118.860781 
L 34.101175 -118.860781 
L 33.775909 -118.860781 
L 33.450643 -118.860781 
L 33.125376 -118.860781 
L 32.80011 -118.860781 
L 32.474844 -118.860781 
z
" style="stroke: #d94801; stroke-opacity: 0.1"/>
    </defs>
    <g clip-path="url(#p229529f1d3)">
     <use xlink:href="#mbfad54b1d6" x="0" y="139.920781" style="fill: #d94801; fill-opacity: 0.1; stroke: #d94801; stroke-opacity: 0.1"/>
    </g>
   </g>
   <g id="matplotlib.axis_3">
    <g id="xtick_3">
     <g id="line2d_6">
      <g>
       <use xlink:href="#mbbd40fe68f" x="52.17467" y="21.06" style="stroke: #000000; stroke-width: 1.5"/>
      </g>
     </g>
    </g>
    <g id="xtick_4">
     <g id="line2d_7">
      <g>
       <use xlink:href="#mbbd40fe68f" x="80.31728" y="21.06" style="stroke: #000000; stroke-width: 1.5"/>
      </g>
     </g>
    </g>
   </g>
   <g id="matplotlib.axis_4">
    <g id="ytick_4">
     <g id="line2d_8">
      <g>
       <use xlink:href="#m5f931d57bd" x="32.474844" y="21.06" style="stroke: #000000; stroke-width: 1.5"/>
      </g>
     </g>
    </g>
    <g id="ytick_5">
     <g id="line2d_9">
      <g>
       <use xlink:href="#m5f931d57bd" x="32.474844" y="12.974555" style="stroke: #000000; stroke-width: 1.5"/>
      </g>
     </g>
    </g>
   </g>
   <g id="line2d_10">
    <path d="M 32.474844 21.06 
L 40.281235 20.978767 
L 41.907568 20.635144 
L 42.883367 20.310999 
L 43.5339 19.864896 
L 44.184433 19.172257 
L 45.160232 17.792573 
L 46.13603 16.054715 
L 47.11183 13.896867 
L 50.039226 6.663588 
L 51.340291 4.675363 
L 52.641358 2.869899 
L 52.966622 2.629911 
L 53.291889 2.568718 
L 53.617156 2.689659 
L 54.267687 3.353176 
L 56.219287 6.19755 
L 58.49615 10.154865 
L 60.773014 14.15676 
L 61.748815 15.337374 
L 63.700411 17.207272 
L 65.652011 19.238788 
L 66.627809 19.72185 
L 68.904672 20.463987 
L 74.108933 20.923767 
L 77.361598 21.048538 
L 83.866924 21.059963 
L 97.202844 21.06 
L 97.202844 21.06 
" clip-path="url(#p229529f1d3)" style="fill: none; stroke: #08519c; stroke-width: 1.5; stroke-linecap: square"/>
   </g>
   <g id="line2d_11">
    <path d="M 32.474844 21.06 
L 40.931768 20.96169 
L 42.883367 20.71462 
L 44.5097 20.294909 
L 45.810765 19.750472 
L 47.11183 18.979517 
L 48.087628 18.21139 
L 49.063428 17.195798 
L 51.015026 14.665527 
L 52.966622 12.234287 
L 53.942424 11.317009 
L 54.918222 10.688518 
L 56.219287 10.082291 
L 57.195085 9.791881 
L 58.49615 9.653387 
L 60.122483 9.651845 
L 61.098281 9.909143 
L 62.074079 10.488215 
L 67.928874 14.578498 
L 71.181536 16.701586 
L 74.759467 18.71324 
L 77.036331 19.419798 
L 78.662663 19.794578 
L 82.891129 20.349219 
L 85.167993 20.649015 
L 89.396452 20.888259 
L 94.92598 21.018881 
L 97.202844 21.009542 
L 97.202844 21.009542 
" clip-path="url(#p229529f1d3)" style="fill: none; stroke: #d94801; stroke-width: 1.5; stroke-linecap: square"/>
   </g>
   <g id="patch_6">
    <path d="M 32.474844 21.06 
L 32.474844 7.2 
" style="fill: none; stroke: #000000; stroke-width: 1.5; stroke-linejoin: miter; stroke-linecap: square"/>
   </g>
   <g id="patch_7">
    <path d="M 32.474844 21.06 
L 97.202844 21.06 
" style="fill: none; stroke: #000000; stroke-width: 1.5; stroke-linejoin: miter; stroke-linecap: square"/>
   </g>
  </g>
  <g id="axes_3">
   <g id="patch_8">
    <path d="M 99.434844 104.22 
L 110.594844 104.22 
L 110.594844 23.832 
L 99.434844 23.832 
L 99.434844 104.22 
z
" style="fill: none"/>
   </g>
   <g id="PolyCollection_3">
    <defs>
     <path id="m7d3fd2c63c" d="M 99.434844 -35.700781 
L 99.434844 -43.480266 
L 99.434844 -43.480266 
L 99.434844 -43.480266 
L 99.434844 -43.480266 
L 99.434844 -43.480266 
L 99.434844 -43.480266 
L 99.434844 -43.480266 
L 99.434844 -43.480267 
L 99.434845 -43.48027 
L 99.434848 -43.48028 
L 99.434858 -43.480314 
L 99.434888 -43.480416 
L 99.434973 -43.4807 
L 99.435195 -43.481446 
L 99.435743 -43.483288 
L 99.437017 -43.487569 
L 99.439806 -43.496943 
L 99.445565 -43.516301 
L 99.4568 -43.554061 
L 99.477529 -43.623731 
L 99.513759 -43.745502 
L 99.57384 -43.947434 
L 99.668523 -44.265665 
L 99.81057 -44.743088 
L 100.013807 -45.42617 
L 100.291659 -46.360032 
L 100.655365 -47.582453 
L 101.112215 -49.117933 
L 101.664177 -50.973084 
L 102.307216 -53.134344 
L 103.031379 -55.568266 
L 103.821502 -58.223879 
L 104.65824 -61.036166 
L 105.519194 -63.929843 
L 106.38008 -66.823291 
L 107.21605 -69.632998 
L 108.003282 -72.278894 
L 108.720696 -74.690133 
L 109.351526 -76.810359 
L 109.884386 -78.601309 
L 110.313732 -80.044346 
L 110.639788 -81.140224 
L 110.868039 -81.90738 
L 111.008298 -82.378793 
L 111.073262 -82.597136 
L 111.076687 -82.608647 
L 111.03158 -82.457042 
L 110.948924 -82.179235 
L 110.837217 -81.803786 
L 110.702631 -81.351441 
L 110.549347 -80.836251 
L 110.379706 -80.266086 
L 110.194253 -79.642776 
L 109.992012 -78.963042 
L 109.771276 -78.221145 
L 109.530738 -77.412692 
L 109.270477 -76.537953 
L 108.992329 -75.603093 
L 108.699536 -74.619013 
L 108.396032 -73.598932 
L 108.085828 -72.556332 
L 107.772701 -71.503908 
L 107.460107 -70.453277 
L 107.151049 -69.414531 
L 106.847802 -68.395314 
L 106.551642 -67.399913 
L 106.262778 -66.429038 
L 105.980618 -65.480697 
L 105.704273 -64.551898 
L 105.433069 -63.640377 
L 105.166939 -62.74591 
L 104.906599 -61.870906 
L 104.653552 -61.02041 
L 104.409947 -60.201651 
L 104.178291 -59.42305 
L 103.961007 -58.692756 
L 103.759916 -58.016889 
L 103.575701 -57.397739 
L 103.407492 -56.832387 
L 103.252664 -56.312009 
L 103.106943 -55.822238 
L 102.96491 -55.344862 
L 102.820915 -54.860895 
L 102.670288 -54.354634 
L 102.510532 -53.817693 
L 102.342122 -53.251663 
L 102.168561 -52.668323 
L 101.995601 -52.087003 
L 101.829813 -51.529787 
L 101.676934 -51.015959 
L 101.54054 -50.557536 
L 101.421424 -50.157186 
L 101.317865 -49.809125 
L 101.22661 -49.502415 
L 101.144124 -49.225178 
L 101.06763 -48.96808 
L 100.995554 -48.725832 
L 100.927311 -48.496466 
L 100.862654 -48.279154 
L 100.800998 -48.071928 
L 100.741092 -47.870581 
L 100.681222 -47.66936 
L 100.619842 -47.46306 
L 100.556281 -47.249432 
L 100.491173 -47.030601 
L 100.426347 -46.812719 
L 100.364245 -46.603996 
L 100.307143 -46.412073 
L 100.256522 -46.241937 
L 100.212864 -46.095203 
L 100.175845 -45.970779 
L 100.144768 -45.86633 
L 100.118993 -45.779701 
L 100.09815 -45.709645 
L 100.082086 -45.655654 
L 100.070615 -45.6171 
L 100.063194 -45.592158 
L 100.058706 -45.577074 
L 100.055449 -45.566129 
L 100.051361 -45.552389 
L 100.044402 -45.528999 
L 100.032984 -45.490621 
L 100.016308 -45.434573 
L 99.994529 -45.361376 
L 99.968692 -45.274536 
L 99.940462 -45.179654 
L 99.911719 -45.083051 
L 99.884122 -44.990295 
L 99.858746 -44.905005 
L 99.835919 -44.828286 
L 99.815289 -44.758946 
L 99.796095 -44.694437 
L 99.777569 -44.632168 
L 99.759283 -44.570709 
L 99.74134 -44.510404 
L 99.724308 -44.45316 
L 99.708952 -44.401548 
L 99.695895 -44.357662 
L 99.685366 -44.322273 
L 99.677141 -44.294628 
L 99.670673 -44.27289 
L 99.665325 -44.254917 
L 99.660584 -44.23898 
L 99.656163 -44.224123 
L 99.65199 -44.210098 
L 99.648089 -44.196985 
L 99.644427 -44.184676 
L 99.640784 -44.172434 
L 99.636693 -44.158684 
L 99.631485 -44.14118 
L 99.624458 -44.11756 
L 99.615112 -44.086151 
L 99.603388 -44.046744 
L 99.589768 -44.000968 
L 99.575216 -43.952058 
L 99.560926 -43.90403 
L 99.547989 -43.860548 
L 99.537094 -43.823928 
L 99.528386 -43.794661 
L 99.521526 -43.771606 
L 99.515912 -43.752738 
L 99.510949 -43.736056 
L 99.506256 -43.720283 
L 99.501739 -43.705101 
L 99.497526 -43.690942 
L 99.493843 -43.678563 
L 99.490897 -43.66866 
L 99.48881 -43.661648 
L 99.487606 -43.657601 
L 99.487201 -43.65624 
L 99.487399 -43.656904 
L 99.487884 -43.658534 
L 99.488247 -43.659754 
L 99.488056 -43.659112 
L 99.486961 -43.655432 
L 99.484801 -43.648171 
L 99.481665 -43.637632 
L 99.47789 -43.624946 
L 99.473985 -43.611819 
L 99.470502 -43.600115 
L 99.467908 -43.591394 
L 99.46646 -43.586529 
L 99.466155 -43.585502 
L 99.466727 -43.587424 
L 99.467724 -43.590778 
L 99.468625 -43.593803 
L 99.468963 -43.594941 
L 99.46845 -43.593216 
L 99.467033 -43.588454 
L 99.464891 -43.581254 
L 99.462351 -43.572718 
L 99.45977 -43.564043 
L 99.457412 -43.556116 
L 99.455376 -43.549276 
L 99.453603 -43.543315 
L 99.45193 -43.537691 
L 99.450187 -43.531834 
L 99.448278 -43.525419 
L 99.446222 -43.518508 
L 99.444145 -43.511528 
L 99.444145 -116.088781 
L 99.444145 -116.088781 
L 99.446222 -115.684824 
L 99.448278 -115.28086 
L 99.450187 -114.876903 
L 99.45193 -114.47294 
L 99.453603 -114.068982 
L 99.455376 -113.665025 
L 99.457412 -113.261062 
L 99.45977 -112.857104 
L 99.462351 -112.453141 
L 99.464891 -112.049183 
L 99.467033 -111.645226 
L 99.46845 -111.241263 
L 99.468963 -110.837305 
L 99.468625 -110.433342 
L 99.467724 -110.029385 
L 99.466727 -109.625427 
L 99.466155 -109.221464 
L 99.46646 -108.817506 
L 99.467908 -108.413549 
L 99.470502 -108.009586 
L 99.473985 -107.605628 
L 99.47789 -107.201665 
L 99.481665 -106.797708 
L 99.484801 -106.39375 
L 99.486961 -105.989787 
L 99.488056 -105.585829 
L 99.488247 -105.181872 
L 99.487884 -104.777909 
L 99.487399 -104.373951 
L 99.487201 -103.969988 
L 99.487606 -103.566031 
L 99.48881 -103.162067 
L 99.490897 -102.758104 
L 99.493843 -102.354146 
L 99.497526 -101.950189 
L 99.501739 -101.546226 
L 99.506256 -101.142268 
L 99.510949 -100.738305 
L 99.515912 -100.334347 
L 99.521526 -99.93039 
L 99.528386 -99.526427 
L 99.537094 -99.122469 
L 99.547989 -98.718512 
L 99.560926 -98.314549 
L 99.575216 -97.910591 
L 99.589768 -97.506628 
L 99.603388 -97.10267 
L 99.615112 -96.698713 
L 99.624458 -96.29475 
L 99.631485 -95.890792 
L 99.636693 -95.486835 
L 99.640784 -95.082872 
L 99.644427 -94.678914 
L 99.648089 -94.274954 
L 99.65199 -93.870993 
L 99.656163 -93.467033 
L 99.660584 -93.063073 
L 99.665325 -92.659112 
L 99.670673 -92.255152 
L 99.677141 -91.851191 
L 99.685366 -91.447234 
L 99.695895 -91.043274 
L 99.708952 -90.639313 
L 99.724308 -90.235356 
L 99.74134 -89.831396 
L 99.759283 -89.427435 
L 99.777569 -89.023475 
L 99.796095 -88.619514 
L 99.815289 -88.215557 
L 99.835919 -87.811597 
L 99.858746 -87.407636 
L 99.884122 -87.003676 
L 99.911719 -86.599716 
L 99.940462 -86.195755 
L 99.968692 -85.791795 
L 99.994529 -85.387834 
L 100.016308 -84.983877 
L 100.032984 -84.579917 
L 100.044402 -84.175956 
L 100.051361 -83.771999 
L 100.055449 -83.368039 
L 100.058706 -82.964078 
L 100.063194 -82.560118 
L 100.070615 -82.156157 
L 100.082086 -81.7522 
L 100.09815 -81.34824 
L 100.118993 -80.944279 
L 100.144768 -80.540322 
L 100.175845 -80.136362 
L 100.212864 -79.732401 
L 100.256522 -79.328441 
L 100.307143 -78.92448 
L 100.364245 -78.520523 
L 100.426347 -78.116563 
L 100.491173 -77.712602 
L 100.556281 -77.308642 
L 100.619842 -76.904681 
L 100.681222 -76.500721 
L 100.741092 -76.096761 
L 100.800998 -75.6928 
L 100.862654 -75.288843 
L 100.927311 -74.884883 
L 100.995554 -74.480922 
L 101.06763 -74.076962 
L 101.144124 -73.673001 
L 101.22661 -73.269041 
L 101.317865 -72.865081 
L 101.421424 -72.46112 
L 101.54054 -72.057163 
L 101.676934 -71.653202 
L 101.829813 -71.249242 
L 101.995601 -70.845285 
L 102.168561 -70.441324 
L 102.342122 -70.037364 
L 102.510532 -69.633404 
L 102.670288 -69.229445 
L 102.820915 -68.825484 
L 102.96491 -68.421525 
L 103.106943 -68.017565 
L 103.252664 -67.613605 
L 103.407492 -67.209646 
L 103.575701 -66.805685 
L 103.759916 -66.401725 
L 103.961007 -65.997766 
L 104.178291 -65.593806 
L 104.409947 -65.189847 
L 104.653552 -64.785887 
L 104.906599 -64.381926 
L 105.166939 -63.977967 
L 105.433069 -63.574007 
L 105.704273 -63.170047 
L 105.980618 -62.766088 
L 106.262778 -62.362127 
L 106.551642 -61.958168 
L 106.847802 -61.554208 
L 107.151049 -61.150248 
L 107.460107 -60.746289 
L 107.772701 -60.342328 
L 108.085828 -59.938368 
L 108.396032 -59.534409 
L 108.699536 -59.130449 
L 108.992329 -58.72649 
L 109.270477 -58.322529 
L 109.530738 -57.918569 
L 109.771276 -57.51461 
L 109.992012 -57.11065 
L 110.194253 -56.706689 
L 110.379706 -56.302731 
L 110.549347 -55.89877 
L 110.702631 -55.494811 
L 110.837217 -55.090851 
L 110.948924 -54.686892 
L 111.03158 -54.282932 
L 111.076687 -53.878972 
L 111.073262 -53.475012 
L 111.008298 -53.071053 
L 110.868039 -52.667092 
L 110.639788 -52.263133 
L 110.313732 -51.859173 
L 109.884386 -51.455214 
L 109.351526 -51.051253 
L 108.720696 -50.647294 
L 108.003282 -50.243334 
L 107.21605 -49.839374 
L 106.38008 -49.435414 
L 105.519194 -49.031454 
L 104.65824 -48.627495 
L 103.821502 -48.223535 
L 103.031379 -47.819575 
L 102.307216 -47.415615 
L 101.664177 -47.011655 
L 101.112215 -46.607696 
L 100.655365 -46.203736 
L 100.291659 -45.799776 
L 100.013807 -45.395816 
L 99.81057 -44.991856 
L 99.668523 -44.587897 
L 99.57384 -44.183937 
L 99.513759 -43.779977 
L 99.477529 -43.376017 
L 99.4568 -42.972058 
L 99.445565 -42.568098 
L 99.439806 -42.164138 
L 99.437017 -41.760178 
L 99.435743 -41.356219 
L 99.435195 -40.952259 
L 99.434973 -40.548299 
L 99.434888 -40.144339 
L 99.434858 -39.740379 
L 99.434848 -39.336419 
L 99.434845 -38.93246 
L 99.434844 -38.5285 
L 99.434844 -38.12454 
L 99.434844 -37.72058 
L 99.434844 -37.316621 
L 99.434844 -36.912661 
L 99.434844 -36.5087 
L 99.434844 -36.104741 
L 99.434844 -35.700781 
z
" style="stroke: #08519c; stroke-opacity: 0.1"/>
    </defs>
    <g clip-path="url(#p937108577b)">
     <use xlink:href="#m7d3fd2c63c" x="0" y="139.920781" style="fill: #08519c; fill-opacity: 0.1; stroke: #08519c; stroke-opacity: 0.1"/>
    </g>
   </g>
   <g id="PolyCollection_4">
    <defs>
     <path id="mb183617e91" d="M 99.434844 -35.700781 
L 99.434844 -43.480266 
L 99.434844 -43.480266 
L 99.434844 -43.480266 
L 99.434844 -43.480266 
L 99.434844 -43.480267 
L 99.434845 -43.48027 
L 99.434847 -43.480277 
L 99.434852 -43.480293 
L 99.434863 -43.480331 
L 99.434888 -43.480415 
L 99.434942 -43.480596 
L 99.435053 -43.48097 
L 99.435274 -43.481711 
L 99.435697 -43.483132 
L 99.436476 -43.485753 
L 99.437865 -43.49042 
L 99.440252 -43.498443 
L 99.444217 -43.51177 
L 99.450588 -43.533183 
L 99.460502 -43.566503 
L 99.47546 -43.616777 
L 99.497372 -43.690422 
L 99.52858 -43.795313 
L 99.571858 -43.940773 
L 99.630382 -44.137472 
L 99.707658 -44.397198 
L 99.807425 -44.732517 
L 99.933511 -45.156294 
L 100.089649 -45.681076 
L 100.279254 -46.318338 
L 100.505155 -47.077596 
L 100.769308 -47.965418 
L 101.072491 -48.984419 
L 101.41403 -50.132335 
L 101.791594 -51.401332 
L 102.201104 -52.777701 
L 102.636814 -54.242126 
L 103.091566 -55.770554 
L 103.557241 -57.335694 
L 104.025328 -58.90894 
L 104.487541 -60.462445 
L 104.936388 -61.971025 
L 105.365578 -63.413537 
L 105.770225 -64.773561 
L 106.14684 -66.039369 
L 106.49316 -67.203355 
L 106.807888 -68.26116 
L 107.090437 -69.21081 
L 107.34072 -70.052016 
L 107.559037 -70.785782 
L 107.746005 -71.414185 
L 107.90254 -71.940301 
L 108.029829 -72.36812 
L 108.129286 -72.702395 
L 108.202474 -72.948381 
L 108.25101 -73.111511 
L 108.276456 -73.197035 
L 108.280219 -73.209683 
L 108.263471 -73.153392 
L 108.227104 -73.031165 
L 108.171738 -72.845076 
L 108.097769 -72.596467 
L 108.005494 -72.286329 
L 107.89526 -71.915832 
L 107.767651 -71.486938 
L 107.623669 -71.003011 
L 107.464872 -70.469292 
L 107.293439 -69.893105 
L 107.112142 -69.283763 
L 106.924193 -68.652062 
L 106.733006 -68.00948 
L 106.541895 -67.367156 
L 106.353761 -66.734834 
L 106.170832 -66.120006 
L 105.994506 -65.527372 
L 105.825315 -64.95872 
L 105.66302 -64.413246 
L 105.506787 -63.888145 
L 105.355417 -63.379388 
L 105.207561 -62.882442 
L 105.061895 -62.392857 
L 104.917236 -61.906654 
L 104.772601 -61.420534 
L 104.627243 -60.931986 
L 104.480677 -60.439376 
L 104.332697 -59.942014 
L 104.183392 -59.440198 
L 104.033122 -58.935137 
L 103.882447 -58.428717 
L 103.732009 -57.923091 
L 103.582398 -57.420249 
L 103.434049 -56.921647 
L 103.287191 -56.428053 
L 103.141901 -55.939733 
L 102.998223 -55.456828 
L 102.85631 -54.979856 
L 102.716546 -54.510108 
L 102.579589 -54.049794 
L 102.446321 -53.60188 
L 102.317726 -53.169669 
L 102.194727 -52.756269 
L 102.078061 -52.364152 
L 101.968191 -51.994878 
L 101.865309 -51.649089 
L 101.76939 -51.326705 
L 101.680281 -51.02721 
L 101.597782 -50.749927 
L 101.521686 -50.494167 
L 101.451781 -50.259216 
L 101.387812 -50.044217 
L 101.329422 -49.847966 
L 101.276098 -49.668744 
L 101.227152 -49.504237 
L 101.181728 -49.351565 
L 101.138848 -49.207446 
L 101.097485 -49.068425 
L 101.056642 -48.93115 
L 101.015433 -48.792645 
L 100.973154 -48.650546 
L 100.929339 -48.503282 
L 100.88379 -48.350191 
L 100.836584 -48.191534 
L 100.788052 -48.028414 
L 100.738707 -47.862566 
L 100.689161 -47.696042 
L 100.640019 -47.530876 
L 100.591785 -47.36876 
L 100.544804 -47.210855 
L 100.499254 -47.057763 
L 100.455191 -46.909664 
L 100.412615 -46.766566 
L 100.371552 -46.628553 
L 100.332101 -46.49596 
L 100.294444 -46.369392 
L 100.258801 -46.249595 
L 100.225364 -46.137214 
L 100.194218 -46.032532 
L 100.165284 -45.935283 
L 100.138304 -45.844606 
L 100.112881 -45.759157 
L 100.088543 -45.677356 
L 100.064846 -45.59771 
L 100.041458 -45.519103 
L 100.018223 -45.441009 
L 99.995176 -45.363551 
L 99.972525 -45.28742 
L 99.950585 -45.213678 
L 99.929701 -45.143488 
L 99.910171 -45.077848 
L 99.89218 -45.017378 
L 99.875761 -44.962193 
L 99.860792 -44.911882 
L 99.847019 -44.86559 
L 99.834099 -44.822167 
L 99.821658 -44.780353 
L 99.809346 -44.738972 
L 99.796885 -44.697091 
L 99.784104 -44.654133 
L 99.770951 -44.609926 
L 99.757492 -44.564691 
L 99.74389 -44.518973 
L 99.730367 -44.473524 
L 99.717171 -44.429172 
L 99.704533 -44.386695 
L 99.69264 -44.346721 
L 99.681618 -44.309678 
L 99.671533 -44.27578 
L 99.66239 -44.245052 
L 99.654155 -44.217374 
L 99.646762 -44.192526 
L 99.640128 -44.170228 
L 99.634164 -44.150182 
L 99.628781 -44.132092 
L 99.623899 -44.115684 
L 99.619441 -44.100701 
L 99.615328 -44.086876 
L 99.611466 -44.073894 
L 99.607733 -44.061349 
L 99.603977 -44.048726 
L 99.600023 -44.035434 
L 99.595695 -44.020889 
L 99.590861 -44.00464 
L 99.585462 -43.986494 
L 99.579541 -43.966596 
L 99.573244 -43.945429 
L 99.566788 -43.923731 
L 99.560421 -43.902332 
L 99.55437 -43.881994 
L 99.548795 -43.863259 
L 99.543775 -43.846383 
L 99.5393 -43.831345 
L 99.535303 -43.817909 
L 99.531679 -43.805728 
L 99.528318 -43.794434 
L 99.525126 -43.783704 
L 99.52203 -43.773298 
L 99.518984 -43.763061 
L 99.515965 -43.752915 
L 99.512965 -43.742832 
L 99.509984 -43.732813 
L 99.509984 -116.088781 
L 99.509984 -116.088781 
L 99.512965 -115.684824 
L 99.515965 -115.28086 
L 99.518984 -114.876903 
L 99.52203 -114.47294 
L 99.525126 -114.068982 
L 99.528318 -113.665025 
L 99.531679 -113.261062 
L 99.535303 -112.857104 
L 99.5393 -112.453141 
L 99.543775 -112.049183 
L 99.548795 -111.645226 
L 99.55437 -111.241263 
L 99.560421 -110.837305 
L 99.566788 -110.433342 
L 99.573244 -110.029385 
L 99.579541 -109.625427 
L 99.585462 -109.221464 
L 99.590861 -108.817506 
L 99.595695 -108.413549 
L 99.600023 -108.009586 
L 99.603977 -107.605628 
L 99.607733 -107.201665 
L 99.611466 -106.797708 
L 99.615328 -106.39375 
L 99.619441 -105.989787 
L 99.623899 -105.585829 
L 99.628781 -105.181872 
L 99.634164 -104.777909 
L 99.640128 -104.373951 
L 99.646762 -103.969988 
L 99.654155 -103.566031 
L 99.66239 -103.162067 
L 99.671533 -102.758104 
L 99.681618 -102.354146 
L 99.69264 -101.950189 
L 99.704533 -101.546226 
L 99.717171 -101.142268 
L 99.730367 -100.738305 
L 99.74389 -100.334347 
L 99.757492 -99.93039 
L 99.770951 -99.526427 
L 99.784104 -99.122469 
L 99.796885 -98.718512 
L 99.809346 -98.314549 
L 99.821658 -97.910591 
L 99.834099 -97.506628 
L 99.847019 -97.10267 
L 99.860792 -96.698713 
L 99.875761 -96.29475 
L 99.89218 -95.890792 
L 99.910171 -95.486835 
L 99.929701 -95.082872 
L 99.950585 -94.678914 
L 99.972525 -94.274954 
L 99.995176 -93.870993 
L 100.018223 -93.467033 
L 100.041458 -93.063073 
L 100.064846 -92.659112 
L 100.088543 -92.255152 
L 100.112881 -91.851191 
L 100.138304 -91.447234 
L 100.165284 -91.043274 
L 100.194218 -90.639313 
L 100.225364 -90.235356 
L 100.258801 -89.831396 
L 100.294444 -89.427435 
L 100.332101 -89.023475 
L 100.371552 -88.619514 
L 100.412615 -88.215557 
L 100.455191 -87.811597 
L 100.499254 -87.407636 
L 100.544804 -87.003676 
L 100.591785 -86.599716 
L 100.640019 -86.195755 
L 100.689161 -85.791795 
L 100.738707 -85.387834 
L 100.788052 -84.983877 
L 100.836584 -84.579917 
L 100.88379 -84.175956 
L 100.929339 -83.771999 
L 100.973154 -83.368039 
L 101.015433 -82.964078 
L 101.056642 -82.560118 
L 101.097485 -82.156157 
L 101.138848 -81.7522 
L 101.181728 -81.34824 
L 101.227152 -80.944279 
L 101.276098 -80.540322 
L 101.329422 -80.136362 
L 101.387812 -79.732401 
L 101.451781 -79.328441 
L 101.521686 -78.92448 
L 101.597782 -78.520523 
L 101.680281 -78.116563 
L 101.76939 -77.712602 
L 101.865309 -77.308642 
L 101.968191 -76.904681 
L 102.078061 -76.500721 
L 102.194727 -76.096761 
L 102.317726 -75.6928 
L 102.446321 -75.288843 
L 102.579589 -74.884883 
L 102.716546 -74.480922 
L 102.85631 -74.076962 
L 102.998223 -73.673001 
L 103.141901 -73.269041 
L 103.287191 -72.865081 
L 103.434049 -72.46112 
L 103.582398 -72.057163 
L 103.732009 -71.653202 
L 103.882447 -71.249242 
L 104.033122 -70.845285 
L 104.183392 -70.441324 
L 104.332697 -70.037364 
L 104.480677 -69.633404 
L 104.627243 -69.229445 
L 104.772601 -68.825484 
L 104.917236 -68.421525 
L 105.061895 -68.017565 
L 105.207561 -67.613605 
L 105.355417 -67.209646 
L 105.506787 -66.805685 
L 105.66302 -66.401725 
L 105.825315 -65.997766 
L 105.994506 -65.593806 
L 106.170832 -65.189847 
L 106.353761 -64.785887 
L 106.541895 -64.381926 
L 106.733006 -63.977967 
L 106.924193 -63.574007 
L 107.112142 -63.170047 
L 107.293439 -62.766088 
L 107.464872 -62.362127 
L 107.623669 -61.958168 
L 107.767651 -61.554208 
L 107.89526 -61.150248 
L 108.005494 -60.746289 
L 108.097769 -60.342328 
L 108.171738 -59.938368 
L 108.227104 -59.534409 
L 108.263471 -59.130449 
L 108.280219 -58.72649 
L 108.276456 -58.322529 
L 108.25101 -57.918569 
L 108.202474 -57.51461 
L 108.129286 -57.11065 
L 108.029829 -56.706689 
L 107.90254 -56.302731 
L 107.746005 -55.89877 
L 107.559037 -55.494811 
L 107.34072 -55.090851 
L 107.090437 -54.686892 
L 106.807888 -54.282932 
L 106.49316 -53.878972 
L 106.14684 -53.475012 
L 105.770225 -53.071053 
L 105.365578 -52.667092 
L 104.936388 -52.263133 
L 104.487541 -51.859173 
L 104.025328 -51.455214 
L 103.557241 -51.051253 
L 103.091566 -50.647294 
L 102.636814 -50.243334 
L 102.201104 -49.839374 
L 101.791594 -49.435414 
L 101.41403 -49.031454 
L 101.072491 -48.627495 
L 100.769308 -48.223535 
L 100.505155 -47.819575 
L 100.279254 -47.415615 
L 100.089649 -47.011655 
L 99.933511 -46.607696 
L 99.807425 -46.203736 
L 99.707658 -45.799776 
L 99.630382 -45.395816 
L 99.571858 -44.991856 
L 99.52858 -44.587897 
L 99.497372 -44.183937 
L 99.47546 -43.779977 
L 99.460502 -43.376017 
L 99.450588 -42.972058 
L 99.444217 -42.568098 
L 99.440252 -42.164138 
L 99.437865 -41.760178 
L 99.436476 -41.356219 
L 99.435697 -40.952259 
L 99.435274 -40.548299 
L 99.435053 -40.144339 
L 99.434942 -39.740379 
L 99.434888 -39.336419 
L 99.434863 -38.93246 
L 99.434852 -38.5285 
L 99.434847 -38.12454 
L 99.434845 -37.72058 
L 99.434844 -37.316621 
L 99.434844 -36.912661 
L 99.434844 -36.5087 
L 99.434844 -36.104741 
L 99.434844 -35.700781 
z
" style="stroke: #d94801; stroke-opacity: 0.1"/>
    </defs>
    <g clip-path="url(#p937108577b)">
     <use xlink:href="#mb183617e91" x="0" y="139.920781" style="fill: #d94801; fill-opacity: 0.1; stroke: #d94801; stroke-opacity: 0.1"/>
    </g>
   </g>
   <g id="matplotlib.axis_5">
    <g id="xtick_5">
     <g id="line2d_12">
      <g>
       <use xlink:href="#mbbd40fe68f" x="99.434844" y="104.22" style="stroke: #000000; stroke-width: 1.5"/>
      </g>
     </g>
    </g>
    <g id="xtick_6">
     <g id="line2d_13">
      <g>
       <use xlink:href="#mbbd40fe68f" x="107.15026" y="104.22" style="stroke: #000000; stroke-width: 1.5"/>
      </g>
     </g>
    </g>
   </g>
   <g id="matplotlib.axis_6">
    <g id="ytick_6">
     <g id="line2d_14">
      <g>
       <use xlink:href="#m5f931d57bd" x="99.434844" y="96.440516" style="stroke: #000000; stroke-width: 1.5"/>
      </g>
     </g>
    </g>
    <g id="ytick_7">
     <g id="line2d_15">
      <g>
       <use xlink:href="#m5f931d57bd" x="99.434844" y="70.508903" style="stroke: #000000; stroke-width: 1.5"/>
      </g>
     </g>
    </g>
    <g id="ytick_8">
     <g id="line2d_16">
      <g>
       <use xlink:href="#m5f931d57bd" x="99.434844" y="44.577289" style="stroke: #000000; stroke-width: 1.5"/>
      </g>
     </g>
    </g>
   </g>
   <g id="line2d_17">
    <path d="M 99.434844 104.22 
L 99.513759 96.140804 
L 99.668523 95.332885 
L 100.013807 94.524965 
L 100.655365 93.717045 
L 101.664177 92.909126 
L 103.031379 92.101206 
L 109.351526 88.869528 
L 110.313732 88.061608 
L 110.868039 87.253689 
L 111.073262 86.445769 
L 111.03158 85.63785 
L 110.702631 84.425971 
L 109.992012 82.810131 
L 108.992329 81.194291 
L 104.409947 74.730934 
L 103.575701 73.115096 
L 101.676934 68.267579 
L 101.22661 66.65174 
L 100.741092 63.824021 
L 100.118993 58.976502 
L 99.685366 48.473547 
L 99.481665 33.123074 
L 99.444145 23.832 
L 99.444145 23.832 
" clip-path="url(#p937108577b)" style="fill: none; stroke: #08519c; stroke-width: 1.5; stroke-linecap: square"/>
   </g>
   <g id="line2d_18">
    <path d="M 99.434844 104.22 
L 99.52858 95.332885 
L 99.807425 93.717045 
L 100.279254 92.505166 
L 101.072491 91.293287 
L 102.201104 90.081407 
L 106.49316 86.041809 
L 107.34072 84.82993 
L 107.90254 83.618051 
L 108.202474 82.406171 
L 108.280219 81.194291 
L 108.171738 79.982413 
L 107.767651 78.366573 
L 107.112142 76.750735 
L 105.506787 73.115096 
L 102.446321 64.631938 
L 101.76939 62.208179 
L 101.329422 59.78442 
L 100.640019 53.725026 
L 100.165284 48.877508 
L 99.834099 42.414154 
L 99.590861 31.103275 
L 99.509984 23.832 
L 99.509984 23.832 
" clip-path="url(#p937108577b)" style="fill: none; stroke: #d94801; stroke-width: 1.5; stroke-linecap: square"/>
   </g>
   <g id="patch_9">
    <path d="M 99.434844 104.22 
L 99.434844 23.832 
" style="fill: none; stroke: #000000; stroke-width: 1.5; stroke-linejoin: miter; stroke-linecap: square"/>
   </g>
   <g id="patch_10">
    <path d="M 99.434844 104.22 
L 110.594844 104.22 
" style="fill: none; stroke: #000000; stroke-width: 1.5; stroke-linejoin: miter; stroke-linecap: square"/>
   </g>
  </g>
 </g>
 <defs>
  <clipPath id="p81aade0eaf">
   <rect x="32.474844" y="23.832" width="64.728" height="80.388"/>
  </clipPath>
  <clipPath id="p229529f1d3">
   <rect x="32.474844" y="7.2" width="64.728" height="13.86"/>
  </clipPath>
  <clipPath id="p937108577b">
   <rect x="99.434844" y="23.832" width="11.16" height="80.388"/>
  </clipPath>
 </defs>
</svg>
