<?xml version="1.0" encoding="utf-8" standalone="no"?>
<!DOCTYPE svg PUBLIC "-//W3C//DTD SVG 1.1//EN"
  "http://www.w3.org/Graphics/SVG/1.1/DTD/svg11.dtd">
<svg xmlns:xlink="http://www.w3.org/1999/xlink" width="125.3pt" height="139.920781pt" viewBox="0 0 125.3 139.920781" xmlns="http://www.w3.org/2000/svg" version="1.1">
 <metadata>
  <rdf:RDF xmlns:dc="http://purl.org/dc/elements/1.1/" xmlns:cc="http://creativecommons.org/ns#" xmlns:rdf="http://www.w3.org/1999/02/22-rdf-syntax-ns#">
   <cc:Work>
    <dc:type rdf:resource="http://purl.org/dc/dcmitype/StillImage"/>
    <dc:date>2023-01-20T17:49:34.988015</dc:date>
    <dc:format>image/svg+xml</dc:format>
    <dc:creator>
     <cc:Agent>
      <dc:title>Matplotlib v3.5.3, https://matplotlib.org/</dc:title>
     </cc:Agent>
    </dc:creator>
   </cc:Work>
  </rdf:RDF>
 </metadata>
 <defs>
  <style type="text/css">*{stroke-linejoin: round; stroke-linecap: butt}</style>
 </defs>
 <g id="figure_1">
  <g id="patch_1">
   <path d="M 0 139.920781 
L 125.3 139.920781 
L 125.3 0 
L 0 0 
L 0 139.920781 
z
" style="fill: none"/>
  </g>
  <g id="axes_1">
   <g id="patch_2">
    <path d="M 39.98 104.22 
L 104.708 104.22 
L 104.708 23.832 
L 39.98 23.832 
L 39.98 104.22 
z
" style="fill: none"/>
   </g>
   <g id="PathCollection_1">
    <defs>
     <path id="mb666714ff8" d="M 0 1.5 
C 0.397805 1.5 0.77937 1.341951 1.06066 1.06066 
C 1.341951 0.77937 1.5 0.397805 1.5 0 
C 1.5 -0.397805 1.341951 -0.77937 1.06066 -1.06066 
C 0.77937 -1.341951 0.397805 -1.5 0 -1.5 
C -0.397805 -1.5 -0.77937 -1.341951 -1.06066 -1.06066 
C -1.341951 -0.77937 -1.5 -0.397805 -1.5 0 
C -1.5 0.397805 -1.341951 0.77937 -1.06066 1.06066 
C -0.77937 1.341951 -0.397805 1.5 0 1.5 
z
" style="stroke: #08519c"/>
    </defs>
    <g clip-path="url(#pe603b9ffed)">
     <use xlink:href="#mb666714ff8" x="57.696613" y="73.744677" style="fill: #08519c; stroke: #08519c"/>
    </g>
   </g>
   <g id="matplotlib.axis_1">
    <g id="xtick_1">
     <g id="line2d_1">
      <defs>
       <path id="m5cdbc73764" d="M 0 0 
L 0 3.5 
" style="stroke: #000000; stroke-width: 1.5"/>
      </defs>
      <g>
       <use xlink:href="#m5cdbc73764" x="64.638286" y="104.22" style="stroke: #000000; stroke-width: 1.5"/>
      </g>
     </g>
     <g id="text_1">
      <text style="font: 9px 'Arial'; text-anchor: middle" x="64.638286" y="117.662031" transform="rotate(-0, 64.638286, 117.662031)">1</text>
     </g>
    </g>
    <g id="xtick_2">
     <g id="line2d_2">
      <g>
       <use xlink:href="#m5cdbc73764" x="95.461144" y="104.22" style="stroke: #000000; stroke-width: 1.5"/>
      </g>
     </g>
     <g id="text_2">
      <text style="font: 9px 'Arial'; text-anchor: middle" x="95.461144" y="117.662031" transform="rotate(-0, 95.461144, 117.662031)">2</text>
     </g>
    </g>
    <g id="text_3">
     <!-- $\theta_1$ -->
     <g transform="translate(67.754 130.020781)">
      <text>
       <tspan style="font: 9px 'Arial'" x="0" y="-0.453125">θ</tspan>
       <tspan style="font: 6.3px 'Arial'" x="5.162182" y="2.2350624999999997">1</tspan>
      </text>
     </g>
    </g>
   </g>
   <g id="matplotlib.axis_2">
    <g id="ytick_1">
     <g id="line2d_3">
      <defs>
       <path id="mb6d95e4d08" d="M 0 0 
L -3.5 0 
" style="stroke: #000000; stroke-width: 1.5"/>
      </defs>
      <g>
       <use xlink:href="#mb6d95e4d08" x="39.98" y="82.295999" style="stroke: #000000; stroke-width: 1.5"/>
      </g>
     </g>
     <g id="text_4">
      <text style="font: 9px 'Arial'; text-anchor: end" x="32.98" y="85.517015" transform="rotate(-0, 32.98, 85.517015)">0.5</text>
     </g>
    </g>
    <g id="ytick_2">
     <g id="line2d_4">
      <g>
       <use xlink:href="#mb6d95e4d08" x="39.98" y="45.755998" style="stroke: #000000; stroke-width: 1.5"/>
      </g>
     </g>
     <g id="text_5">
      <text style="font: 9px 'Arial'; text-anchor: end" x="32.98" y="48.977013" transform="rotate(-0, 32.98, 48.977013)">1.0</text>
     </g>
    </g>
    <g id="text_6">
     <!-- $\theta_2$ -->
     <g transform="translate(13.77 68.616)rotate(-90)">
      <text>
       <tspan style="font: 9px 'Arial'" x="0" y="-0.453125">θ</tspan>
       <tspan style="font: 6.3px 'Arial'" x="5.162182" y="2.2350624999999997">2</tspan>
      </text>
     </g>
    </g>
   </g>
   <g id="PathCollection_2">
    <path d="M 39.98 77.962616 
L 39.98 73.519054 
L 40.305266 73.115096 
L 40.305266 69.883418 
L 40.630533 69.47946 
L 40.630533 67.055698 
L 40.955799 66.651739 
L 40.955799 64.63194 
L 41.281065 64.227982 
L 41.281065 62.61214 
L 41.606331 62.208182 
L 41.606331 60.592341 
L 41.931598 60.188383 
L 41.931598 58.572546 
L 42.256864 58.168583 
L 42.256864 56.148784 
L 42.58213 55.744826 
L 42.58213 53.321068 
L 42.907397 52.917105 
L 42.907397 50.493348 
L 43.232663 50.089389 
L 43.232663 48.473548 
L 43.557929 48.06959 
L 43.557929 46.04979 
L 43.883196 45.645828 
L 43.883196 43.626028 
L 44.208462 43.22207 
L 44.208462 41.202271 
L 44.533728 40.798313 
L 44.533728 39.182471 
L 44.858995 38.778513 
L 44.858995 37.56663 
L 45.184261 37.162672 
L 45.184261 35.546839 
L 45.509527 35.142872 
L 45.509527 33.930998 
L 45.834794 33.527039 
L 45.834794 32.315156 
L 46.16006 31.911189 
L 46.16006 31.103273 
L 46.485326 30.699315 
L 46.485326 29.891399 
L 46.810593 29.48744 
L 46.810593 28.275557 
L 47.135859 27.871599 
L 47.135859 27.063683 
L 47.461125 26.659716 
L 47.461125 25.8518 
L 47.786392 25.447841 
L 47.786392 24.639916 
L 48.111658 24.235958 
L 48.111658 23.832 
L 48.111658 23.832 
" clip-path="url(#pe603b9ffed)" style="fill: none"/>
    <path d="M 40.305266 104.22 
L 40.305266 103.816041 
L 40.305266 103.41208 
L 40.305266 103.00812 
L 40.305266 102.604161 
L 40.305266 102.200202 
L 40.305266 101.796241 
L 40.305266 101.392281 
L 40.305266 100.988322 
L 40.305266 100.584362 
L 40.305266 100.180402 
L 40.305266 99.776442 
L 40.305266 99.372481 
L 40.305266 98.968523 
L 40.305266 98.564563 
L 40.305266 98.160603 
L 39.98 97.756644 
L 39.98 97.352684 
L 39.98 96.948724 
L 39.98 96.544766 
L 39.98 96.140805 
L 39.98 95.736845 
L 39.98 95.332887 
L 39.98 94.928926 
L 39.98 94.524966 
L 39.98 94.121006 
" clip-path="url(#pe603b9ffed)" style="fill: none"/>
    <path d="M 73.157165 23.832 
L 73.157165 24.235958 
L 73.482431 24.639916 
L 73.482431 26.659716 
L 73.807701 27.063683 
L 73.807701 29.083482 
L 74.132967 29.48744 
L 74.132967 31.103273 
L 74.458234 31.507231 
L 74.458234 32.315156 
L 74.7835 32.719114 
L 74.7835 33.527039 
L 75.108766 33.930998 
L 75.108766 35.142872 
L 75.434033 35.546839 
L 75.434033 37.162672 
L 75.759299 37.56663 
L 75.759299 39.182471 
L 76.084565 39.586429 
L 76.084565 42.010196 
L 76.409832 42.414154 
L 76.409832 45.645828 
L 76.735098 46.04979 
L 76.735098 51.705226 
L 77.060365 52.109189 
L 77.060365 54.128984 
L 77.385631 54.532947 
L 77.385631 58.168583 
L 77.710897 58.572546 
L 77.710897 76.750737 
L 77.385631 77.154695 
L 77.385631 81.194294 
L 77.060365 81.598252 
L 77.060365 84.425971 
L 76.735098 84.829931 
L 76.735098 87.253689 
L 76.409832 87.657649 
L 76.409832 89.273488 
L 76.084565 89.677448 
L 76.084565 91.697248 
L 75.759299 92.101208 
L 75.759299 93.717045 
L 75.434033 94.121006 
L 75.434033 95.332887 
L 75.108766 95.736845 
L 75.108766 96.948724 
L 74.7835 97.352684 
L 74.7835 98.564563 
L 74.458234 98.968523 
L 74.458234 100.180402 
L 74.132967 100.584362 
L 74.132967 101.392281 
L 73.807701 101.796241 
L 73.807701 102.604161 
L 73.482431 103.00812 
L 73.482431 103.816041 
L 73.157165 104.22 
L 73.157165 104.22 
" clip-path="url(#pe603b9ffed)" style="fill: none"/>
   </g>
   <g id="PathCollection_3">
    <path d="M 55.257657 77.962616 
L 55.238323 77.558653 
L 55.223983 77.154695 
L 55.212031 76.750737 
L 55.201526 76.346775 
L 55.193166 75.942816 
L 55.18906 75.538854 
L 55.192021 75.134896 
L 55.204631 74.730938 
L 55.228973 74.326975 
L 55.267212 73.923017 
L 55.267518 73.92065 
L 55.306308 73.519054 
L 55.360343 73.115096 
L 55.431592 72.711138 
L 55.520211 72.307176 
L 55.592782 72.01209 
L 55.614579 71.903217 
L 55.690452 71.499259 
L 55.763464 71.095297 
L 55.835402 70.691339 
L 55.910036 70.28738 
L 55.918049 70.244015 
L 55.964478 69.883418 
L 56.020057 69.47946 
L 56.078051 69.075497 
L 56.136521 68.671539 
L 56.196284 68.267581 
L 56.243315 67.97304 
L 56.259037 67.863618 
L 56.321066 67.45966 
L 56.394231 67.055698 
L 56.484759 66.651739 
L 56.568581 66.345787 
L 56.594435 66.247781 
L 56.713394 65.843819 
L 56.855973 65.439861 
L 56.893848 65.340351 
L 57.059261 65.035902 
L 57.219114 64.740534 
L 57.31589 64.63194 
L 57.54438 64.355745 
L 57.641 64.227982 
L 57.869647 63.926923 
L 57.922575 63.824024 
L 58.12729 63.420061 
L 58.194913 63.298498 
L 58.422725 63.016103 
L 58.520179 62.905665 
L 58.845446 62.947558 
L 58.989369 63.016103 
L 59.170712 63.100702 
L 59.417161 63.420061 
L 59.495978 63.546328 
L 59.624257 63.824024 
L 59.772769 64.227982 
L 59.821245 64.379831 
L 59.902272 64.63194 
L 60.006261 65.035902 
L 60.091635 65.439861 
L 60.146511 65.706299 
L 60.187252 65.843819 
L 60.32096 66.247781 
L 60.458625 66.651739 
L 60.471777 66.690379 
L 60.606302 67.055698 
L 60.729052 67.45966 
L 60.797044 67.745976 
L 60.821469 67.863618 
L 60.888903 68.267581 
L 60.93968 68.671539 
L 60.977438 69.075497 
L 61.006255 69.47946 
L 61.029238 69.883418 
L 61.047114 70.28738 
L 61.058166 70.691339 
L 61.059895 71.095297 
L 61.051072 71.499259 
L 61.032374 71.903217 
L 61.005532 72.307176 
L 60.972209 72.711138 
L 60.933458 73.115096 
L 60.88997 73.519054 
L 60.843039 73.923017 
L 60.797044 74.316779 
L 60.796163 74.326975 
L 60.76773 74.730938 
L 60.744608 75.134896 
L 60.725172 75.538854 
L 60.705269 75.942816 
L 60.679153 76.346775 
L 60.641714 76.750737 
L 60.589721 77.154695 
L 60.521164 77.558653 
L 60.471777 77.798476 
L 60.444817 77.962616 
L 60.374202 78.366574 
L 60.292528 78.770532 
L 60.191163 79.174495 
L 60.146511 79.325684 
L 60.078849 79.578453 
L 59.949276 79.982411 
L 59.821245 80.305713 
L 59.781226 80.386374 
L 59.565718 80.790332 
L 59.495978 80.915877 
L 59.323146 81.194294 
L 59.170712 81.435808 
L 59.063921 81.598252 
L 58.845446 81.915348 
L 58.781565 82.002211 
L 58.520179 82.338562 
L 58.472691 82.406173 
L 58.194913 82.753272 
L 58.133469 82.810131 
L 57.869647 83.0473 
L 57.54438 83.195998 
L 57.490774 83.214092 
L 57.219114 83.316523 
L 56.893848 83.302597 
L 56.798212 83.214092 
L 56.568581 82.989296 
L 56.407294 82.810131 
L 56.243315 82.606325 
L 56.092252 82.406173 
L 55.918049 82.106796 
L 55.878434 82.002211 
L 55.762879 81.598252 
L 55.684163 81.194294 
L 55.624182 80.790332 
L 55.592782 80.567627 
L 55.566892 80.386374 
L 55.50197 79.982411 
L 55.434056 79.578453 
L 55.371141 79.174495 
L 55.320138 78.770532 
L 55.283425 78.366574 
L 55.267518 78.10771 
L 55.257657 77.962616 
z
" clip-path="url(#pe603b9ffed)" style="fill: none; stroke: #08519c; stroke-opacity: 0.111111; stroke-width: 1.5"/>
   </g>
   <g id="PathCollection_4">
    <path d="M 55.889982 77.962616 
L 55.833786 77.558653 
L 55.792027 77.154695 
L 55.762662 76.750737 
L 55.743738 76.346775 
L 55.733458 75.942816 
L 55.730569 75.538854 
L 55.735099 75.134896 
L 55.748894 74.730938 
L 55.775301 74.326975 
L 55.818003 73.923017 
L 55.87969 73.519054 
L 55.918049 73.323603 
L 55.954098 73.115096 
L 56.032148 72.711138 
L 56.112256 72.307176 
L 56.189682 71.903217 
L 56.243315 71.608221 
L 56.260379 71.499259 
L 56.322748 71.095297 
L 56.391372 70.691339 
L 56.472287 70.28738 
L 56.568257 69.883418 
L 56.568581 69.882067 
L 56.689286 69.47946 
L 56.813968 69.075497 
L 56.893848 68.781813 
L 56.927424 68.671539 
L 57.029033 68.267581 
L 57.126319 67.863618 
L 57.219114 67.505008 
L 57.235058 67.45966 
L 57.417787 67.055698 
L 57.54438 66.846929 
L 57.722549 66.651739 
L 57.869647 66.505407 
L 58.132001 66.247781 
L 58.194913 66.18548 
L 58.520179 65.929173 
L 58.845446 65.904001 
L 59.170712 66.213777 
L 59.187531 66.247781 
L 59.40175 66.651739 
L 59.495978 66.829618 
L 59.575917 67.055698 
L 59.720681 67.45966 
L 59.821245 67.748571 
L 59.855209 67.863618 
L 59.954976 68.267581 
L 60.029756 68.671539 
L 60.085681 69.075497 
L 60.129346 69.47946 
L 60.146511 69.666267 
L 60.171852 69.883418 
L 60.215714 70.28738 
L 60.25803 70.691339 
L 60.299074 71.095297 
L 60.33621 71.499259 
L 60.363986 71.903217 
L 60.376852 72.307176 
L 60.372481 72.711138 
L 60.352302 73.115096 
L 60.319405 73.519054 
L 60.27663 73.923017 
L 60.226014 74.326975 
L 60.168943 74.730938 
L 60.146511 74.880892 
L 60.10752 75.134896 
L 60.045562 75.538854 
L 59.985744 75.942816 
L 59.928593 76.346775 
L 59.872947 76.750737 
L 59.821245 77.123723 
L 59.817527 77.154695 
L 59.764504 77.558653 
L 59.696775 77.962616 
L 59.604839 78.366574 
L 59.495978 78.722301 
L 59.477238 78.770532 
L 59.284501 79.174495 
L 59.170712 79.374946 
L 59.01315 79.578453 
L 58.845446 79.788468 
L 58.686505 79.982411 
L 58.520179 80.188141 
L 58.403751 80.386374 
L 58.194913 80.750463 
L 58.156807 80.790332 
L 57.869647 81.095569 
L 57.54438 81.140437 
L 57.219114 81.176444 
L 56.893848 81.013637 
L 56.75021 80.790332 
L 56.568581 80.45422 
L 56.539241 80.386374 
L 56.385898 79.982411 
L 56.260186 79.578453 
L 56.243315 79.52122 
L 56.14993 79.174495 
L 56.049986 78.770532 
L 55.962367 78.366574 
L 55.918049 78.128195 
L 55.889982 77.962616 
z
" clip-path="url(#pe603b9ffed)" style="fill: none; stroke: #08519c; stroke-opacity: 0.333333; stroke-width: 1.5"/>
   </g>
   <g id="PathCollection_5">
    <path d="M 56.221013 76.750737 
L 56.187005 76.346775 
L 56.170152 75.942816 
L 56.166707 75.538854 
L 56.174754 75.134896 
L 56.194831 74.730938 
L 56.229201 74.326975 
L 56.243315 74.212325 
L 56.276807 73.923017 
L 56.334737 73.519054 
L 56.400725 73.115096 
L 56.470489 72.711138 
L 56.540405 72.307176 
L 56.568581 72.142435 
L 56.617985 71.903217 
L 56.703215 71.499259 
L 56.79754 71.095297 
L 56.893848 70.745114 
L 56.914326 70.691339 
L 57.081891 70.28738 
L 57.219114 69.971511 
L 57.265434 69.883418 
L 57.470475 69.47946 
L 57.54438 69.32409 
L 57.679527 69.075497 
L 57.869647 68.752312 
L 57.922191 68.671539 
L 58.194913 68.281248 
L 58.216861 68.267581 
L 58.520179 68.062372 
L 58.845446 68.144501 
L 58.946947 68.267581 
L 59.170712 68.653913 
L 59.177359 68.671539 
L 59.311226 69.075497 
L 59.433463 69.47946 
L 59.495978 69.698725 
L 59.533378 69.883418 
L 59.602344 70.28738 
L 59.657575 70.691339 
L 59.702963 71.095297 
L 59.742326 71.499259 
L 59.776158 71.903217 
L 59.800917 72.307176 
L 59.811546 72.711138 
L 59.804548 73.115096 
L 59.778969 73.519054 
L 59.735802 73.923017 
L 59.677537 74.326975 
L 59.608381 74.730938 
L 59.534492 75.134896 
L 59.495978 75.355388 
L 59.46587 75.538854 
L 59.403081 75.942816 
L 59.340325 76.346775 
L 59.273875 76.750737 
L 59.196133 77.154695 
L 59.170712 77.262374 
L 59.081491 77.558653 
L 58.912777 77.962616 
L 58.845446 78.089048 
L 58.667398 78.366574 
L 58.520179 78.566668 
L 58.381829 78.770532 
L 58.194913 79.042667 
L 58.081242 79.174495 
L 57.869647 79.409678 
L 57.586914 79.578453 
L 57.54438 79.60297 
L 57.219114 79.612364 
L 57.189433 79.578453 
L 56.902646 79.174495 
L 56.893848 79.159277 
L 56.746576 78.770532 
L 56.607535 78.366574 
L 56.568581 78.250338 
L 56.482176 77.962616 
L 56.372753 77.558653 
L 56.282457 77.154695 
L 56.243315 76.91968 
L 56.221013 76.750737 
z
" clip-path="url(#pe603b9ffed)" style="fill: none; stroke: #08519c; stroke-opacity: 0.555556; stroke-width: 1.5"/>
   </g>
   <g id="PathCollection_6">
    <path d="M 56.828718 76.750737 
L 56.747683 76.346775 
L 56.689379 75.942816 
L 56.654464 75.538854 
L 56.642574 75.134896 
L 56.653816 74.730938 
L 56.687418 74.326975 
L 56.739756 73.923017 
L 56.804833 73.519054 
L 56.876711 73.115096 
L 56.893848 73.025292 
L 56.977853 72.711138 
L 57.088072 72.307176 
L 57.202402 71.903217 
L 57.219114 71.849229 
L 57.372986 71.499259 
L 57.54438 71.12343 
L 57.560188 71.095297 
L 57.772199 70.691339 
L 57.869647 70.489784 
L 57.985763 70.28738 
L 58.194913 69.901141 
L 58.520179 69.91859 
L 58.653977 70.28738 
L 58.763255 70.691339 
L 58.845446 71.027626 
L 58.860195 71.095297 
L 58.952153 71.499259 
L 59.045717 71.903217 
L 59.137065 72.307176 
L 59.170712 72.473978 
L 59.212411 72.711138 
L 59.253688 73.115096 
L 59.260958 73.519054 
L 59.239242 73.923017 
L 59.194681 74.326975 
L 59.170712 74.479229 
L 59.12768 74.730938 
L 59.047983 75.134896 
L 58.960593 75.538854 
L 58.863444 75.942816 
L 58.845446 76.013771 
L 58.757425 76.346775 
L 58.630555 76.750737 
L 58.520179 77.027792 
L 58.465803 77.154695 
L 58.262647 77.558653 
L 58.194913 77.673628 
L 57.977338 77.962616 
L 57.869647 78.101449 
L 57.54438 78.247258 
L 57.262212 77.962616 
L 57.219114 77.899429 
L 57.081958 77.558653 
L 56.937341 77.154695 
L 56.893848 77.010919 
L 56.828718 76.750737 
z
" clip-path="url(#pe603b9ffed)" style="fill: none; stroke: #08519c; stroke-opacity: 0.666667; stroke-width: 1.5"/>
   </g>
   <g id="PathCollection_7">
    <path d="M 57.483196 75.942816 
L 57.420596 75.538854 
L 57.39037 75.134896 
L 57.389649 74.730938 
L 57.418404 74.326975 
L 57.479187 73.923017 
L 57.54438 73.642422 
L 57.594007 73.519054 
L 57.800964 73.115096 
L 57.869647 73.001204 
L 58.194913 72.797069 
L 58.417911 73.115096 
L 58.520179 73.357416 
L 58.546568 73.519054 
L 58.591217 73.923017 
L 58.60248 74.326975 
L 58.579116 74.730938 
L 58.52626 75.134896 
L 58.520179 75.164728 
L 58.422347 75.538854 
L 58.301804 75.942816 
L 58.194913 76.253746 
L 58.113851 76.346775 
L 57.869647 76.641714 
L 57.619727 76.346775 
L 57.54438 76.198346 
L 57.483196 75.942816 
z
" clip-path="url(#pe603b9ffed)" style="fill: none; stroke: #08519c; stroke-opacity: 0.888889; stroke-width: 1.5"/>
   </g>
   <g id="PathCollection_8"/>
   <g id="PathCollection_9"/>
   <g id="PathCollection_10">
    <path d="M 58.454349 77.558653 
L 58.398908 77.154695 
L 58.354939 76.750737 
L 58.322432 76.346775 
L 58.301617 75.942816 
L 58.292991 75.538854 
L 58.297306 75.134896 
L 58.315507 74.730938 
L 58.348604 74.326975 
L 58.397494 73.923017 
L 58.462805 73.519054 
L 58.520179 73.237003 
L 58.542628 73.115096 
L 58.632538 72.711138 
L 58.73758 72.307176 
L 58.845446 71.945166 
L 58.856815 71.903217 
L 58.980802 71.499259 
L 59.119466 71.095297 
L 59.170712 70.95977 
L 59.26513 70.691339 
L 59.421036 70.28738 
L 59.495978 70.107372 
L 59.584417 69.883418 
L 59.754842 69.47946 
L 59.821245 69.328651 
L 59.928286 69.075497 
L 60.105305 68.671539 
L 60.146511 68.577302 
L 60.276807 68.267581 
L 60.44775 67.863618 
L 60.471777 67.804259 
L 60.605212 67.45966 
L 60.758281 67.055698 
L 60.797044 66.946582 
L 60.896621 66.651739 
L 61.026557 66.247781 
L 61.12231 65.935198 
L 61.14893 65.843819 
L 61.25704 65.439861 
L 61.361053 65.035902 
L 61.447576 64.683365 
L 61.459749 64.63194 
L 61.547479 64.227982 
L 61.633232 63.824024 
L 61.718102 63.420061 
L 61.772843 63.157031 
L 61.802308 63.016103 
L 61.888927 62.61214 
L 61.985657 62.208182 
L 62.097393 61.804224 
L 62.098109 61.801907 
L 62.228116 61.400262 
L 62.386434 60.996303 
L 62.423375 60.913868 
L 62.57559 60.592341 
L 62.748642 60.276632 
L 62.799288 60.188383 
L 63.055916 59.784425 
L 63.073908 59.757881 
L 63.336644 59.380462 
L 63.399174 59.294302 
L 63.630956 58.976504 
L 63.724441 58.849948 
L 63.926995 58.572546 
L 64.049707 58.403142 
L 64.216477 58.168583 
L 64.374973 57.940971 
L 64.49573 57.764625 
L 64.70024 57.457477 
L 64.764085 57.360667 
L 65.02156 56.956704 
L 65.025506 56.950171 
L 65.264042 56.552746 
L 65.350772 56.403062 
L 65.497321 56.148784 
L 65.676039 55.827842 
L 65.722063 55.744826 
L 65.937888 55.340867 
L 66.001305 55.221723 
L 66.151088 54.936905 
L 66.326572 54.610609 
L 66.368405 54.532947 
L 66.596511 54.128984 
L 66.651838 54.037999 
L 66.846361 53.725026 
L 66.977104 53.53268 
L 67.12805 53.321068 
L 67.302371 53.098357 
L 67.454783 52.917105 
L 67.627637 52.72809 
L 67.842039 52.513147 
L 67.952903 52.408969 
L 68.27817 52.129637 
L 68.304237 52.109189 
L 68.603436 51.882256 
L 68.85455 51.705226 
L 68.928702 51.653272 
L 69.253969 51.440224 
L 69.477635 51.301268 
L 69.579235 51.236987 
L 69.904501 51.044116 
L 70.170205 50.89731 
L 70.229768 50.863416 
L 70.555034 50.698281 
L 70.8803 50.556028 
L 71.057175 50.493348 
L 71.205567 50.439268 
L 71.530833 50.350975 
L 71.856099 50.292923 
L 72.181366 50.264099 
L 72.506632 50.263845 
L 72.831898 50.293271 
L 73.157165 50.356135 
L 73.482431 50.458529 
L 73.561602 50.493348 
L 73.807701 50.599281 
L 74.132967 50.776586 
L 74.325637 50.89731 
L 74.458234 50.973259 
L 74.7835 51.161734 
L 75.045443 51.301268 
L 75.108766 51.331046 
L 75.434033 51.461787 
L 75.759299 51.564642 
L 76.084565 51.643476 
L 76.401552 51.705226 
L 76.409832 51.706767 
L 76.735098 51.764364 
L 77.060365 51.832665 
L 77.385631 51.926819 
L 77.710897 52.063846 
L 77.789844 52.109189 
L 78.036164 52.266432 
L 78.31582 52.513147 
L 78.36143 52.55982 
L 78.641592 52.917105 
L 78.686696 52.985253 
L 78.882842 53.321068 
L 79.011963 53.577862 
L 79.083429 53.725026 
L 79.266925 54.128984 
L 79.337229 54.286991 
L 79.456954 54.532947 
L 79.662495 54.923774 
L 79.670733 54.936905 
L 79.958894 55.340867 
L 79.987762 55.376143 
L 80.313028 55.681885 
L 80.401912 55.744826 
L 80.638294 55.895876 
L 80.963561 56.059618 
L 81.167788 56.148784 
L 81.288827 56.199363 
L 81.614093 56.334115 
L 81.93936 56.480781 
L 82.077981 56.552746 
L 82.264626 56.651101 
L 82.589892 56.85865 
L 82.716185 56.956704 
L 82.915159 57.121965 
L 83.145612 57.360667 
L 83.240425 57.470979 
L 83.446117 57.764625 
L 83.565691 57.967347 
L 83.666195 58.168583 
L 83.832853 58.572546 
L 83.890958 58.741915 
L 83.964099 58.976504 
L 84.071396 59.380462 
L 84.162232 59.784425 
L 84.21622 60.062244 
L 84.240383 60.188383 
L 84.307727 60.592341 
L 84.362317 60.996303 
L 84.402697 61.400262 
L 84.427683 61.804224 
L 84.43706 62.208182 
L 84.431986 62.61214 
L 84.41511 63.016103 
L 84.390465 63.420061 
L 84.36319 63.824024 
L 84.339068 64.227982 
L 84.323818 64.63194 
L 84.322145 65.035902 
L 84.336659 65.439861 
L 84.367037 65.843819 
L 84.409876 66.247781 
L 84.459477 66.651739 
L 84.509349 67.055698 
L 84.541487 67.34871 
L 84.555341 67.45966 
L 84.594657 67.863618 
L 84.62065 68.267581 
L 84.63217 68.671539 
L 84.628408 69.075497 
L 84.608196 69.47946 
L 84.569795 69.883418 
L 84.541487 70.078238 
L 84.51406 70.28738 
L 84.440526 70.691339 
L 84.344898 71.095297 
L 84.226729 71.499259 
L 84.21622 71.529808 
L 84.097462 71.903217 
L 83.950242 72.307176 
L 83.890958 72.455024 
L 83.794793 72.711138 
L 83.632196 73.115096 
L 83.565691 73.274064 
L 83.468813 73.519054 
L 83.306339 73.923017 
L 83.240425 74.087469 
L 83.148998 74.326975 
L 82.99671 74.730938 
L 82.915159 74.949789 
L 82.848768 75.134896 
L 82.704075 75.538854 
L 82.589892 75.847558 
L 82.555407 75.942816 
L 82.401869 76.346775 
L 82.264626 76.672874 
L 82.231875 76.750737 
L 82.043638 77.154695 
L 81.93936 77.350804 
L 81.826678 77.558653 
L 81.614093 77.902567 
L 81.57562 77.962616 
L 81.288827 78.362688 
L 81.285895 78.366574 
L 80.963561 78.75703 
L 80.951681 78.770532 
L 80.638294 79.103038 
L 80.565883 79.174495 
L 80.313028 79.411687 
L 80.12125 79.578453 
L 79.987762 79.690347 
L 79.662495 79.944441 
L 79.610858 79.982411 
L 79.337229 80.179017 
L 79.033991 80.386374 
L 79.011963 80.401182 
L 78.686696 80.614464 
L 78.416881 80.790332 
L 78.36143 80.826026 
L 78.036164 81.039267 
L 77.806311 81.194294 
L 77.710897 81.25821 
L 77.385631 81.485046 
L 77.228827 81.598252 
L 77.060365 81.720128 
L 76.735098 81.960815 
L 76.67977 82.002211 
L 76.409832 82.206386 
L 76.138066 82.406173 
L 76.084565 82.446159 
L 75.759299 82.677826 
L 75.554319 82.810131 
L 75.434033 82.889318 
L 75.108766 83.077355 
L 74.825326 83.214092 
L 74.7835 83.234775 
L 74.458234 83.36651 
L 74.132967 83.470812 
L 73.807701 83.554352 
L 73.517731 83.618052 
L 73.482431 83.626101 
L 73.157165 83.698184 
L 72.831898 83.776821 
L 72.506632 83.867714 
L 72.181366 83.971945 
L 72.04092 84.02201 
L 71.856099 84.088668 
L 71.530833 84.210627 
L 71.205567 84.327178 
L 70.896062 84.425971 
L 70.8803 84.431018 
L 70.555034 84.521213 
L 70.229768 84.592525 
L 69.904501 84.64719 
L 69.579235 84.690052 
L 69.253969 84.726976 
L 68.928702 84.763102 
L 68.603436 84.801582 
L 68.383751 84.829931 
L 68.27817 84.844316 
L 67.952903 84.891437 
L 67.627637 84.937232 
L 67.302371 84.977908 
L 66.977104 85.009968 
L 66.651838 85.030871 
L 66.326572 85.039452 
L 66.001305 85.03601 
L 65.676039 85.021991 
L 65.350772 84.999333 
L 65.025506 84.969708 
L 64.70024 84.934012 
L 64.374973 84.892331 
L 64.049707 84.844322 
L 63.963024 84.829931 
L 63.724441 84.79308 
L 63.399174 84.737307 
L 63.073908 84.676452 
L 62.748642 84.610797 
L 62.423375 84.539414 
L 62.098109 84.459485 
L 61.980119 84.425971 
L 61.772843 84.368632 
L 61.447576 84.257383 
L 61.12231 84.113338 
L 60.960106 84.02201 
L 60.797044 83.921294 
L 60.471777 83.65887 
L 60.43019 83.618052 
L 60.146511 83.282533 
L 60.097426 83.214092 
L 59.862984 82.810131 
L 59.821245 82.720023 
L 59.68405 82.406173 
L 59.54159 82.002211 
L 59.495978 81.851529 
L 59.41752 81.598252 
L 59.304209 81.194294 
L 59.198397 80.790332 
L 59.170712 80.682413 
L 59.089716 80.386374 
L 58.981895 79.982411 
L 58.878442 79.578453 
L 58.845446 79.443915 
L 58.776107 79.174495 
L 58.680382 78.770532 
L 58.595269 78.366574 
L 58.521371 77.962616 
L 58.520179 77.955098 
L 58.454349 77.558653 
z
" clip-path="url(#pe603b9ffed)" style="fill: none; stroke: #d94801; stroke-opacity: 0.111111; stroke-width: 1.5"/>
   </g>
   <g id="PathCollection_11">
    <path d="M 60.73671 76.750737 
L 60.684448 76.346775 
L 60.647754 75.942816 
L 60.626207 75.538854 
L 60.618977 75.134896 
L 60.624987 74.730938 
L 60.643084 74.326975 
L 60.672205 73.923017 
L 60.711544 73.519054 
L 60.760695 73.115096 
L 60.797044 72.865908 
L 60.819096 72.711138 
L 60.886862 72.307176 
L 60.966308 71.903217 
L 61.058749 71.499259 
L 61.12231 71.258011 
L 61.164435 71.095297 
L 61.283186 70.691339 
L 61.415749 70.28738 
L 61.447576 70.199024 
L 61.558029 69.883418 
L 61.709138 69.47946 
L 61.772843 69.317462 
L 61.864402 69.075497 
L 62.021826 68.671539 
L 62.098109 68.478952 
L 62.178531 68.267581 
L 62.333174 67.863618 
L 62.423375 67.627987 
L 62.485739 67.45966 
L 62.635008 67.055698 
L 62.748642 66.749192 
L 62.784058 66.651739 
L 62.930793 66.247781 
L 63.073908 65.86349 
L 63.081192 65.843819 
L 63.232155 65.439861 
L 63.391524 65.035902 
L 63.399174 65.016954 
L 63.556614 64.63194 
L 63.724441 64.251821 
L 63.735211 64.227982 
L 63.924801 63.824024 
L 64.049707 63.576453 
L 64.131376 63.420061 
L 64.35461 63.016103 
L 64.374973 62.980303 
L 64.592619 62.61214 
L 64.70024 62.436508 
L 64.845975 62.208182 
L 65.025506 61.930998 
L 65.111228 61.804224 
L 65.350772 61.448554 
L 65.384828 61.400262 
L 65.664431 60.996303 
L 65.676039 60.979271 
L 65.950633 60.592341 
L 66.001305 60.520346 
L 66.245837 60.188383 
L 66.326572 60.078796 
L 66.55439 59.784425 
L 66.651838 59.660003 
L 66.882052 59.380462 
L 66.977104 59.26761 
L 67.234454 58.976504 
L 67.302371 58.901781 
L 67.615432 58.572546 
L 67.627637 58.560035 
L 67.952903 58.237955 
L 68.025285 58.168583 
L 68.27817 57.931168 
L 68.462641 57.764625 
L 68.603436 57.638136 
L 68.92805 57.360667 
L 68.928702 57.360102 
L 69.253969 57.091345 
L 69.43155 56.956704 
L 69.579235 56.840994 
L 69.904501 56.612481 
L 70.002323 56.552746 
L 70.229768 56.406509 
L 70.555034 56.23337 
L 70.757479 56.148784 
L 70.8803 56.09399 
L 71.205567 55.990756 
L 71.530833 55.927372 
L 71.856099 55.902095 
L 72.181366 55.912103 
L 72.506632 55.952819 
L 72.831898 56.017802 
L 73.157165 56.099414 
L 73.335311 56.148784 
L 73.482431 56.18872 
L 73.807701 56.27859 
L 74.132967 56.367958 
L 74.458234 56.458285 
L 74.77592 56.552746 
L 74.7835 56.554915 
L 75.108766 56.663315 
L 75.434033 56.802777 
L 75.698916 56.956704 
L 75.759299 56.993059 
L 76.084565 57.257697 
L 76.180018 57.360667 
L 76.409832 57.626271 
L 76.506136 57.764625 
L 76.735098 58.112415 
L 76.767336 58.168583 
L 76.997618 58.572546 
L 77.060365 58.682258 
L 77.221934 58.976504 
L 77.385631 59.264476 
L 77.453884 59.380462 
L 77.709425 59.784425 
L 77.710897 59.78658 
L 78.025128 60.188383 
L 78.036164 60.201257 
L 78.36143 60.511119 
L 78.470222 60.592341 
L 78.686696 60.74289 
L 79.011963 60.925285 
L 79.156973 60.996303 
L 79.337229 61.086875 
L 79.662495 61.25607 
L 79.897872 61.400262 
L 79.987762 61.465212 
L 80.313028 61.763315 
L 80.349006 61.804224 
L 80.612263 62.208182 
L 80.638294 62.265961 
L 80.774712 62.61214 
L 80.878019 63.016103 
L 80.943161 63.420061 
L 80.963561 63.616349 
L 80.984491 63.824024 
L 81.012125 64.227982 
L 81.032927 64.63194 
L 81.051172 65.035902 
L 81.0685 65.439861 
L 81.084244 65.843819 
L 81.096152 66.247781 
L 81.101349 66.651739 
L 81.097257 67.055698 
L 81.08222 67.45966 
L 81.055752 67.863618 
L 81.018464 68.267581 
L 80.971774 68.671539 
L 80.963561 68.73367 
L 80.918826 69.075497 
L 80.860733 69.47946 
L 80.797876 69.883418 
L 80.729555 70.28738 
L 80.653708 70.691339 
L 80.638294 70.764294 
L 80.569666 71.095297 
L 80.472122 71.499259 
L 80.356859 71.903217 
L 80.313028 72.035338 
L 80.223431 72.307176 
L 80.068396 72.711138 
L 79.987762 72.89587 
L 79.891124 73.115096 
L 79.68999 73.519054 
L 79.662495 73.569846 
L 79.46664 73.923017 
L 79.337229 74.136538 
L 79.218808 74.326975 
L 79.011963 74.636351 
L 78.947215 74.730938 
L 78.686696 75.090288 
L 78.653746 75.134896 
L 78.36143 75.513854 
L 78.341918 75.538854 
L 78.036164 75.919032 
L 78.016971 75.942816 
L 77.710897 76.315392 
L 77.685245 76.346775 
L 77.385631 76.710088 
L 77.35247 76.750737 
L 77.060365 77.106805 
L 77.021513 77.154695 
L 76.735098 77.504172 
L 76.690622 77.558653 
L 76.409832 77.89505 
L 76.352779 77.962616 
L 76.084565 78.268389 
L 75.995395 78.366574 
L 75.759299 78.613339 
L 75.598841 78.770532 
L 75.434033 78.92263 
L 75.132217 79.174495 
L 75.108766 79.192944 
L 74.7835 79.421956 
L 74.521708 79.578453 
L 74.458234 79.614571 
L 74.132967 79.774814 
L 73.807701 79.910155 
L 73.61261 79.982411 
L 73.482431 80.029454 
L 73.157165 80.142276 
L 72.831898 80.255915 
L 72.506632 80.377053 
L 72.484563 80.386374 
L 72.181366 80.515126 
L 71.856099 80.667752 
L 71.616439 80.790332 
L 71.530833 80.83475 
L 71.205567 81.016341 
L 70.888482 81.194294 
L 70.8803 81.198945 
L 70.555034 81.386793 
L 70.229768 81.562398 
L 70.160256 81.598252 
L 69.904501 81.731067 
L 69.579235 81.884017 
L 69.297344 82.002211 
L 69.253969 82.020628 
L 68.928702 82.146369 
L 68.603436 82.254228 
L 68.27817 82.344532 
L 68.001785 82.406173 
L 67.952903 82.417475 
L 67.627637 82.473757 
L 67.302371 82.509633 
L 66.977104 82.525363 
L 66.651838 82.521922 
L 66.326572 82.500889 
L 66.001305 82.464081 
L 65.676039 82.413157 
L 65.639443 82.406173 
L 65.350772 82.350947 
L 65.025506 82.277037 
L 64.70024 82.192227 
L 64.374973 82.097913 
L 64.069832 82.002211 
L 64.049707 81.995603 
L 63.724441 81.884786 
L 63.399174 81.763004 
L 63.073908 81.623748 
L 63.021887 81.598252 
L 62.748642 81.446938 
L 62.423375 81.212718 
L 62.402806 81.194294 
L 62.098109 80.866561 
L 62.042112 80.790332 
L 61.796436 80.386374 
L 61.772843 80.340633 
L 61.612829 79.982411 
L 61.457515 79.578453 
L 61.447576 79.550532 
L 61.323098 79.174495 
L 61.199219 78.770532 
L 61.12231 78.502392 
L 61.084539 78.366574 
L 60.979458 77.962616 
L 60.885392 77.558653 
L 60.80428 77.154695 
L 60.797044 77.111744 
L 60.73671 76.750737 
z
" clip-path="url(#pe603b9ffed)" style="fill: none; stroke: #d94801; stroke-opacity: 0.333333; stroke-width: 1.5"/>
   </g>
   <g id="PathCollection_12">
    <path d="M 62.419695 74.730938 
L 62.416317 74.326975 
L 62.423375 74.134737 
L 62.431 73.923017 
L 62.461989 73.519054 
L 62.50733 73.115096 
L 62.565036 72.711138 
L 62.633323 72.307176 
L 62.710769 71.903217 
L 62.748642 71.724995 
L 62.794863 71.499259 
L 62.884591 71.095297 
L 62.981052 70.691339 
L 63.073908 70.329423 
L 63.084192 70.28738 
L 63.190894 69.883418 
L 63.305194 69.47946 
L 63.399174 69.16905 
L 63.426512 69.075497 
L 63.55274 68.671539 
L 63.686721 68.267581 
L 63.724441 68.15911 
L 63.82597 67.863618 
L 63.971487 67.45966 
L 64.049707 67.250656 
L 64.122909 67.055698 
L 64.280543 66.651739 
L 64.374973 66.419417 
L 64.445812 66.247781 
L 64.620548 65.843819 
L 64.70024 65.669152 
L 64.807932 65.439861 
L 65.011491 65.035902 
L 65.025506 65.009621 
L 65.236617 64.63194 
L 65.350772 64.44214 
L 65.487771 64.227982 
L 65.676039 63.951892 
L 65.770203 63.824024 
L 66.001305 63.524495 
L 66.089462 63.420061 
L 66.326572 63.145639 
L 66.44986 63.016103 
L 66.651838 62.80319 
L 66.85078 62.61214 
L 66.977104 62.487147 
L 67.281775 62.208182 
L 67.302371 62.188304 
L 67.627637 61.889002 
L 67.723198 61.804224 
L 67.952903 61.584933 
L 68.150345 61.400262 
L 68.27817 61.271701 
L 68.557876 60.996303 
L 68.603436 60.948776 
L 68.928702 60.623474 
L 68.962419 60.592341 
L 69.253969 60.3144 
L 69.406045 60.188383 
L 69.579235 60.043393 
L 69.904501 59.824264 
L 69.986804 59.784425 
L 70.229768 59.666111 
L 70.555034 59.571581 
L 70.8803 59.537688 
L 71.205567 59.554345 
L 71.530833 59.606153 
L 71.856099 59.676057 
L 72.181366 59.749505 
L 72.348251 59.784425 
L 72.506632 59.815798 
L 72.831898 59.872624 
L 73.157165 59.924124 
L 73.482431 59.976363 
L 73.807701 60.037931 
L 74.132967 60.119158 
L 74.335187 60.188383 
L 74.458234 60.231085 
L 74.7835 60.385664 
L 75.10179 60.592341 
L 75.108766 60.597037 
L 75.434033 60.878108 
L 75.543719 60.996303 
L 75.759299 61.242542 
L 75.87724 61.400262 
L 76.084565 61.696962 
L 76.153509 61.804224 
L 76.398025 62.208182 
L 76.409832 62.228932 
L 76.631338 62.61214 
L 76.735098 62.800123 
L 76.864954 63.016103 
L 77.060365 63.356578 
L 77.101445 63.420061 
L 77.342072 63.824024 
L 77.385631 63.905601 
L 77.568437 64.227982 
L 77.710897 64.533363 
L 77.756343 64.63194 
L 77.905451 65.035902 
L 78.01793 65.439861 
L 78.036164 65.521697 
L 78.10506 65.843819 
L 78.172569 66.247781 
L 78.223174 66.651739 
L 78.257301 67.055698 
L 78.273962 67.45966 
L 78.271877 67.863618 
L 78.250344 68.267581 
L 78.209717 68.671539 
L 78.151451 69.075497 
L 78.077765 69.47946 
L 78.036164 69.675498 
L 77.993133 69.883418 
L 77.899175 70.28738 
L 77.794113 70.691339 
L 77.710897 70.980311 
L 77.678278 71.095297 
L 77.551092 71.499259 
L 77.404827 71.903217 
L 77.385631 71.949991 
L 77.241758 72.307176 
L 77.060365 72.694932 
L 77.052963 72.711138 
L 76.843806 73.115096 
L 76.735098 73.300251 
L 76.609523 73.519054 
L 76.409832 73.830717 
L 76.351756 73.923017 
L 76.084565 74.310377 
L 76.073216 74.326975 
L 75.776835 74.730938 
L 75.759299 74.753655 
L 75.462499 75.134896 
L 75.434033 75.170184 
L 75.128935 75.538854 
L 75.108766 75.562671 
L 74.7835 75.930437 
L 74.771928 75.942816 
L 74.458234 76.272156 
L 74.381601 76.346775 
L 74.132967 76.584421 
L 73.943101 76.750737 
L 73.807701 76.866599 
L 73.482431 77.122745 
L 73.439888 77.154695 
L 73.157165 77.360633 
L 72.872367 77.558653 
L 72.831898 77.585781 
L 72.506632 77.808557 
L 72.287071 77.962616 
L 72.181366 78.034033 
L 71.856099 78.26727 
L 71.725254 78.366574 
L 71.530833 78.508916 
L 71.205567 78.756637 
L 71.187994 78.770532 
L 70.8803 79.006169 
L 70.658841 79.174495 
L 70.555034 79.251197 
L 70.229768 79.485522 
L 70.093292 79.578453 
L 69.904501 79.704297 
L 69.579235 79.903148 
L 69.434616 79.982411 
L 69.253969 80.080029 
L 68.928702 80.232792 
L 68.603436 80.361286 
L 68.524242 80.386374 
L 68.27817 80.463719 
L 67.952903 80.539521 
L 67.627637 80.588297 
L 67.302371 80.609473 
L 66.977104 80.602782 
L 66.651838 80.568295 
L 66.326572 80.506256 
L 66.001305 80.41689 
L 65.914018 80.386374 
L 65.676039 80.298788 
L 65.350772 80.152522 
L 65.033011 79.982411 
L 65.025506 79.97812 
L 64.70024 79.769819 
L 64.440693 79.578453 
L 64.374973 79.525218 
L 64.049707 79.22947 
L 63.995555 79.174495 
L 63.724441 78.859632 
L 63.655862 78.770532 
L 63.399174 78.380455 
L 63.390838 78.366574 
L 63.178657 77.962616 
L 63.073908 77.725552 
L 63.003804 77.558653 
L 62.857067 77.154695 
L 62.748642 76.800687 
L 62.733758 76.750737 
L 62.630752 76.346775 
L 62.547841 75.942816 
L 62.485011 75.538854 
L 62.442358 75.134896 
L 62.423375 74.79774 
L 62.419695 74.730938 
z
" clip-path="url(#pe603b9ffed)" style="fill: none; stroke: #d94801; stroke-opacity: 0.555556; stroke-width: 1.5"/>
   </g>
   <g id="PathCollection_13">
    <path d="M 64.291869 75.538854 
L 64.213458 75.134896 
L 64.158182 74.730938 
L 64.124482 74.326975 
L 64.110843 73.923017 
L 64.115333 73.519054 
L 64.135421 73.115096 
L 64.168132 72.711138 
L 64.210459 72.307176 
L 64.259908 71.903217 
L 64.314978 71.499259 
L 64.374973 71.09819 
L 64.375404 71.095297 
L 64.442951 70.691339 
L 64.518213 70.28738 
L 64.602973 69.883418 
L 64.698885 69.47946 
L 64.70024 69.474446 
L 64.808881 69.075497 
L 64.930895 68.671539 
L 65.025506 68.386523 
L 65.065567 68.267581 
L 65.212679 67.863618 
L 65.350772 67.509102 
L 65.370407 67.45966 
L 65.540625 67.055698 
L 65.676039 66.754101 
L 65.723451 66.651739 
L 65.923453 66.247781 
L 66.001305 66.101909 
L 66.146751 65.843819 
L 66.326572 65.551522 
L 66.400791 65.439861 
L 66.651838 65.093691 
L 66.6982 65.035902 
L 66.977104 64.713494 
L 67.056605 64.63194 
L 67.302371 64.392948 
L 67.494786 64.227982 
L 67.627637 64.116857 
L 67.952903 63.874226 
L 68.027997 63.824024 
L 68.27817 63.653507 
L 68.603436 63.449844 
L 68.655573 63.420061 
L 68.928702 63.255296 
L 69.253969 63.072987 
L 69.367184 63.016103 
L 69.579235 62.90239 
L 69.904501 62.752308 
L 70.229768 62.630727 
L 70.299203 62.61214 
L 70.555034 62.54146 
L 70.8803 62.488868 
L 71.205567 62.471191 
L 71.530833 62.48442 
L 71.856099 62.524438 
L 72.181366 62.588055 
L 72.275085 62.61214 
L 72.506632 62.675229 
L 72.831898 62.784896 
L 73.157165 62.916069 
L 73.371171 63.016103 
L 73.482431 63.072863 
L 73.807701 63.263764 
L 74.029964 63.420061 
L 74.132967 63.498921 
L 74.458234 63.802173 
L 74.477454 63.824024 
L 74.7835 64.201457 
L 74.80135 64.227982 
L 75.056725 64.63194 
L 75.108766 64.719755 
L 75.273048 65.035902 
L 75.434033 65.369486 
L 75.465372 65.439861 
L 75.632357 65.843819 
L 75.759299 66.19312 
L 75.778481 66.247781 
L 75.89891 66.651739 
L 75.991568 67.055698 
L 76.05391 67.45966 
L 76.084511 67.863618 
L 76.083302 68.267581 
L 76.05174 68.671539 
L 75.992749 69.075497 
L 75.910309 69.47946 
L 75.808731 69.883418 
L 75.759299 70.054715 
L 75.691557 70.28738 
L 75.562563 70.691339 
L 75.434033 71.06433 
L 75.423252 71.095297 
L 75.273137 71.499259 
L 75.110539 71.903217 
L 75.108766 71.907263 
L 74.931186 72.307176 
L 74.7835 72.60607 
L 74.730594 72.711138 
L 74.503156 73.115096 
L 74.458234 73.186621 
L 74.243388 73.519054 
L 74.132967 73.672446 
L 73.946756 73.923017 
L 73.807701 74.09295 
L 73.610085 74.326975 
L 73.482431 74.466328 
L 73.233468 74.730938 
L 73.157165 74.806925 
L 72.831898 75.125579 
L 72.822449 75.134896 
L 72.506632 75.431565 
L 72.3931 75.538854 
L 72.181366 75.732491 
L 71.954319 75.942816 
L 71.856099 76.031949 
L 71.530833 76.331773 
L 71.514698 76.346775 
L 71.205567 76.632176 
L 71.075527 76.750737 
L 70.8803 76.928059 
L 70.62269 77.154695 
L 70.555034 77.213928 
L 70.229768 77.483303 
L 70.130527 77.558653 
L 69.904501 77.729406 
L 69.579235 77.948886 
L 69.555573 77.962616 
L 69.253969 78.136046 
L 68.928702 78.29309 
L 68.738877 78.366574 
L 68.603436 78.418246 
L 68.27817 78.511125 
L 67.952903 78.573333 
L 67.627637 78.603792 
L 67.302371 78.600862 
L 66.977104 78.562477 
L 66.651838 78.486256 
L 66.326572 78.369477 
L 66.320543 78.366574 
L 66.001305 78.202186 
L 65.676039 77.983408 
L 65.650577 77.962616 
L 65.350772 77.689275 
L 65.231755 77.558653 
L 65.025506 77.295965 
L 64.929799 77.154695 
L 64.702713 76.750737 
L 64.70024 76.74543 
L 64.531187 76.346775 
L 64.395956 75.942816 
L 64.374973 75.864123 
L 64.291869 75.538854 
z
" clip-path="url(#pe603b9ffed)" style="fill: none; stroke: #d94801; stroke-opacity: 0.666667; stroke-width: 1.5"/>
   </g>
   <g id="PathCollection_14">
    <path d="M 65.951488 74.326975 
L 65.892963 73.923017 
L 65.864487 73.519054 
L 65.859371 73.115096 
L 65.871213 72.711138 
L 65.894389 72.307176 
L 65.924623 71.903217 
L 65.959432 71.499259 
L 65.99827 71.095297 
L 66.001305 71.068098 
L 66.046446 70.691339 
L 66.102898 70.28738 
L 66.170134 69.883418 
L 66.250338 69.47946 
L 66.326572 69.155303 
L 66.346541 69.075497 
L 66.465992 68.671539 
L 66.599754 68.267581 
L 66.651838 68.128507 
L 66.758848 67.863618 
L 66.939297 67.45966 
L 66.977104 67.383941 
L 67.159946 67.055698 
L 67.302371 66.825286 
L 67.426786 66.651739 
L 67.627637 66.400277 
L 67.774614 66.247781 
L 67.952903 66.080314 
L 68.266109 65.843819 
L 68.27817 65.835407 
L 68.603436 65.662364 
L 68.928702 65.531553 
L 69.24625 65.439861 
L 69.253969 65.437708 
L 69.579235 65.380302 
L 69.904501 65.348716 
L 70.229768 65.342455 
L 70.555034 65.363936 
L 70.8803 65.418076 
L 70.959973 65.439861 
L 71.205567 65.515294 
L 71.530833 65.657799 
L 71.856099 65.840768 
L 71.860823 65.843819 
L 72.181366 66.064408 
L 72.428603 66.247781 
L 72.506632 66.309383 
L 72.831898 66.579927 
L 72.912104 66.651739 
L 73.157165 66.902614 
L 73.285897 67.055698 
L 73.482431 67.358586 
L 73.535994 67.45966 
L 73.67768 67.863618 
L 73.745684 68.267581 
L 73.75443 68.671539 
L 73.719599 69.075497 
L 73.654994 69.47946 
L 73.570992 69.883418 
L 73.482431 70.25079 
L 73.473721 70.28738 
L 73.363715 70.691339 
L 73.244354 71.095297 
L 73.157165 71.357897 
L 73.111321 71.499259 
L 72.959813 71.903217 
L 72.831898 72.196968 
L 72.784647 72.307176 
L 72.580238 72.711138 
L 72.506632 72.835316 
L 72.341227 73.115096 
L 72.181366 73.349575 
L 72.064547 73.519054 
L 71.856099 73.787138 
L 71.747645 73.923017 
L 71.530833 74.17054 
L 71.387922 74.326975 
L 71.205567 74.514156 
L 70.981715 74.730938 
L 70.8803 74.825499 
L 70.555034 75.105598 
L 70.516598 75.134896 
L 70.229768 75.350727 
L 69.9479 75.538854 
L 69.904501 75.567786 
L 69.579235 75.745691 
L 69.253969 75.893665 
L 69.11286 75.942816 
L 68.928702 76.005952 
L 68.603436 76.084713 
L 68.27817 76.133661 
L 67.952903 76.150762 
L 67.627637 76.130632 
L 67.302371 76.064133 
L 66.987881 75.942816 
L 66.977104 75.937843 
L 66.651838 75.703965 
L 66.493734 75.538854 
L 66.326572 75.316764 
L 66.224186 75.134896 
L 66.055823 74.730938 
L 66.001305 74.541317 
L 65.951488 74.326975 
z
" clip-path="url(#pe603b9ffed)" style="fill: none; stroke: #d94801; stroke-opacity: 0.888889; stroke-width: 1.5"/>
   </g>
   <g id="PathCollection_15"/>
   <g id="patch_3">
    <path d="M 39.98 104.22 
L 39.98 23.832 
" style="fill: none; stroke: #000000; stroke-width: 1.5; stroke-linejoin: miter; stroke-linecap: square"/>
   </g>
   <g id="patch_4">
    <path d="M 39.98 104.22 
L 104.708 104.22 
" style="fill: none; stroke: #000000; stroke-width: 1.5; stroke-linejoin: miter; stroke-linecap: square"/>
   </g>
  </g>
  <g id="axes_2">
   <g id="patch_5">
    <path d="M 39.98 21.06 
L 104.708 21.06 
L 104.708 7.2 
L 39.98 7.2 
L 39.98 21.06 
z
" style="fill: none"/>
   </g>
   <g id="PolyCollection_1">
    <defs>
     <path id="m93c0abd53e" d="M 39.98 -118.860781 
L 39.98 -118.860781 
L 40.305266 -118.860781 
L 40.630533 -118.860781 
L 40.955799 -118.860781 
L 41.281065 -118.860781 
L 41.606331 -118.860781 
L 41.931598 -118.860781 
L 42.256864 -118.860781 
L 42.58213 -118.860781 
L 42.907397 -118.860781 
L 43.232663 -118.860781 
L 43.557929 -118.860781 
L 43.883196 -118.860781 
L 44.208462 -118.860781 
L 44.533728 -118.860781 
L 44.858995 -118.860781 
L 45.184261 -118.860781 
L 45.509527 -118.860781 
L 45.834794 -118.860781 
L 46.16006 -118.860781 
L 46.485326 -118.860781 
L 46.810593 -118.860781 
L 47.135859 -118.860781 
L 47.461125 -118.860781 
L 47.786392 -118.860781 
L 48.111658 -118.860781 
L 48.436924 -118.860781 
L 48.762191 -118.860781 
L 49.087457 -118.860781 
L 49.412723 -118.860781 
L 49.73799 -118.860781 
L 50.063256 -118.860781 
L 50.388523 -118.860781 
L 50.713789 -118.860781 
L 51.039055 -118.860781 
L 51.364322 -118.860781 
L 51.689588 -118.860781 
L 52.014854 -118.860781 
L 52.340121 -118.860781 
L 52.665387 -118.860781 
L 52.990653 -118.860781 
L 53.31592 -118.860781 
L 53.641186 -118.860781 
L 53.966452 -118.860781 
L 54.291719 -118.860781 
L 54.616985 -118.860781 
L 54.942251 -118.860781 
L 55.267518 -118.860781 
L 55.592782 -118.860781 
L 55.918049 -118.860781 
L 56.243315 -118.860781 
L 56.568581 -118.860781 
L 56.893848 -118.860781 
L 57.219114 -118.860781 
L 57.54438 -118.860781 
L 57.869647 -118.860781 
L 58.194913 -118.860781 
L 58.520179 -118.860781 
L 58.845446 -118.860781 
L 59.170712 -118.860781 
L 59.495978 -118.860781 
L 59.821245 -118.860781 
L 60.146511 -118.860781 
L 60.471777 -118.860781 
L 60.797044 -118.860781 
L 61.12231 -118.860781 
L 61.447576 -118.860781 
L 61.772843 -118.860781 
L 62.098109 -118.860781 
L 62.423375 -118.860781 
L 62.748642 -118.860781 
L 63.073908 -118.860781 
L 63.399174 -118.860781 
L 63.724441 -118.860781 
L 64.049707 -118.860781 
L 64.374973 -118.860781 
L 64.70024 -118.860781 
L 65.025506 -118.860781 
L 65.350772 -118.860781 
L 65.676039 -118.860781 
L 66.001305 -118.860781 
L 66.326572 -118.860781 
L 66.651838 -118.860781 
L 66.977104 -118.860781 
L 67.302371 -118.860781 
L 67.627637 -118.860781 
L 67.952903 -118.860781 
L 68.27817 -118.860781 
L 68.603436 -118.860781 
L 68.928702 -118.860781 
L 69.253969 -118.860781 
L 69.579235 -118.860781 
L 69.904501 -118.860781 
L 70.229768 -118.860781 
L 70.555034 -118.860781 
L 70.8803 -118.860781 
L 71.205567 -118.860781 
L 71.530833 -118.860781 
L 71.856099 -118.860781 
L 72.181366 -118.860781 
L 72.506632 -118.860781 
L 72.831898 -118.860781 
L 73.157165 -118.860781 
L 73.482431 -118.860781 
L 73.807701 -118.860781 
L 74.132967 -118.860781 
L 74.458234 -118.860781 
L 74.7835 -118.860781 
L 75.108766 -118.860781 
L 75.434033 -118.860781 
L 75.759299 -118.860781 
L 76.084565 -118.860781 
L 76.409832 -118.860781 
L 76.735098 -118.860781 
L 77.060365 -118.860781 
L 77.385631 -118.860781 
L 77.710897 -118.860781 
L 78.036164 -118.860781 
L 78.36143 -118.860781 
L 78.686696 -118.860781 
L 79.011963 -118.860781 
L 79.337229 -118.860781 
L 79.662495 -118.860781 
L 79.987762 -118.860781 
L 80.313028 -118.860781 
L 80.638294 -118.860781 
L 80.963561 -118.860781 
L 81.288827 -118.860781 
L 81.614093 -118.860781 
L 81.93936 -118.860781 
L 82.264626 -118.860781 
L 82.589892 -118.860781 
L 82.915159 -118.860781 
L 83.240425 -118.860781 
L 83.565691 -118.860781 
L 83.890958 -118.860781 
L 84.21622 -118.860781 
L 84.541487 -118.860781 
L 84.866753 -118.860781 
L 85.192019 -118.860781 
L 85.517286 -118.860781 
L 85.842552 -118.860781 
L 86.167818 -118.860781 
L 86.493085 -118.860781 
L 86.818351 -118.860781 
L 87.143617 -118.860781 
L 87.468884 -118.860781 
L 87.79415 -118.860781 
L 88.119416 -118.860781 
L 88.444683 -118.860781 
L 88.769949 -118.860781 
L 89.095216 -118.860781 
L 89.420482 -118.860781 
L 89.745748 -118.860781 
L 90.071015 -118.860781 
L 90.396281 -118.860781 
L 90.721547 -118.860781 
L 91.046814 -118.860781 
L 91.37208 -118.860781 
L 91.697346 -118.860781 
L 92.022613 -118.860781 
L 92.347879 -118.860781 
L 92.673145 -118.860781 
L 92.998412 -118.860781 
L 93.323678 -118.860781 
L 93.648944 -118.860781 
L 93.974211 -118.860781 
L 94.299477 -118.860781 
L 94.624743 -118.860781 
L 94.95001 -118.860781 
L 95.275276 -118.860781 
L 95.600542 -118.860781 
L 95.925805 -118.860781 
L 96.251075 -118.860781 
L 96.576338 -118.860781 
L 96.901608 -118.860781 
L 97.226878 -118.860781 
L 97.55214 -118.860781 
L 97.87741 -118.860781 
L 98.202673 -118.860781 
L 98.527943 -118.860781 
L 98.853206 -118.860781 
L 99.178476 -118.860781 
L 99.503739 -118.860781 
L 99.829009 -118.860781 
L 100.154271 -118.860781 
L 100.479541 -118.860781 
L 100.804804 -118.860781 
L 101.130074 -118.860781 
L 101.455337 -118.860781 
L 101.780607 -118.860781 
L 102.105869 -118.860781 
L 102.431139 -118.860781 
L 102.756402 -118.860781 
L 103.081672 -118.860781 
L 103.406935 -118.860781 
L 103.732205 -118.860781 
L 104.057467 -118.860781 
L 104.382737 -118.860781 
L 104.708 -118.860781 
L 104.708 -118.860781 
L 104.708 -118.860781 
L 104.382737 -118.860781 
L 104.057467 -118.860781 
L 103.732205 -118.860781 
L 103.406935 -118.860781 
L 103.081672 -118.860781 
L 102.756402 -118.860781 
L 102.431139 -118.860781 
L 102.105869 -118.860781 
L 101.780607 -118.860781 
L 101.455337 -118.860781 
L 101.130074 -118.860781 
L 100.804804 -118.860781 
L 100.479541 -118.860781 
L 100.154271 -118.860781 
L 99.829009 -118.860781 
L 99.503739 -118.860781 
L 99.178476 -118.860781 
L 98.853206 -118.860781 
L 98.527943 -118.860781 
L 98.202673 -118.860781 
L 97.87741 -118.860781 
L 97.55214 -118.860781 
L 97.226878 -118.860781 
L 96.901608 -118.860781 
L 96.576338 -118.860781 
L 96.251075 -118.860781 
L 95.925805 -118.860781 
L 95.600542 -118.860781 
L 95.275276 -118.860781 
L 94.95001 -118.860781 
L 94.624743 -118.860781 
L 94.299477 -118.860781 
L 93.974211 -118.860781 
L 93.648944 -118.860781 
L 93.323678 -118.860781 
L 92.998412 -118.860781 
L 92.673145 -118.860781 
L 92.347879 -118.860781 
L 92.022613 -118.860781 
L 91.697346 -118.860781 
L 91.37208 -118.860781 
L 91.046814 -118.860781 
L 90.721547 -118.860781 
L 90.396281 -118.860781 
L 90.071015 -118.860781 
L 89.745748 -118.860781 
L 89.420482 -118.860781 
L 89.095216 -118.860781 
L 88.769949 -118.860781 
L 88.444683 -118.860781 
L 88.119416 -118.860781 
L 87.79415 -118.860781 
L 87.468884 -118.860781 
L 87.143617 -118.860781 
L 86.818351 -118.860781 
L 86.493085 -118.860781 
L 86.167818 -118.860781 
L 85.842552 -118.860781 
L 85.517286 -118.860781 
L 85.192019 -118.860781 
L 84.866753 -118.860781 
L 84.541487 -118.860781 
L 84.21622 -118.860781 
L 83.890958 -118.860781 
L 83.565691 -118.860781 
L 83.240425 -118.860781 
L 82.915159 -118.860781 
L 82.589892 -118.860781 
L 82.264626 -118.860781 
L 81.93936 -118.860781 
L 81.614093 -118.860781 
L 81.288827 -118.860781 
L 80.963561 -118.860781 
L 80.638294 -118.860781 
L 80.313028 -118.860781 
L 79.987762 -118.860781 
L 79.662495 -118.860781 
L 79.337229 -118.860781 
L 79.011963 -118.860781 
L 78.686696 -118.860781 
L 78.36143 -118.860781 
L 78.036164 -118.860781 
L 77.710897 -118.860781 
L 77.385631 -118.860781 
L 77.060365 -118.860781 
L 76.735098 -118.860781 
L 76.409832 -118.860781 
L 76.084565 -118.860781 
L 75.759299 -118.860781 
L 75.434033 -118.860781 
L 75.108766 -118.860781 
L 74.7835 -118.860781 
L 74.458234 -118.860781 
L 74.132967 -118.860781 
L 73.807701 -118.860781 
L 73.482431 -118.860781 
L 73.157165 -118.860781 
L 72.831898 -118.860781 
L 72.506632 -118.860781 
L 72.181366 -118.860781 
L 71.856099 -118.860781 
L 71.530833 -118.860781 
L 71.205567 -118.860781 
L 70.8803 -118.860781 
L 70.555034 -118.860781 
L 70.229768 -118.860781 
L 69.904501 -118.860781 
L 69.579235 -118.860781 
L 69.253969 -118.860781 
L 68.928702 -118.860781 
L 68.603436 -118.860781 
L 68.27817 -118.860781 
L 67.952903 -118.860781 
L 67.627637 -118.860781 
L 67.302371 -118.860781 
L 66.977104 -118.860781 
L 66.651838 -118.860781 
L 66.326572 -118.860781 
L 66.001305 -118.860781 
L 65.676039 -118.860814 
L 65.350772 -118.862628 
L 65.025506 -118.879118 
L 64.70024 -118.894359 
L 64.374973 -118.8985 
L 64.049707 -119.006178 
L 63.724441 -119.181004 
L 63.399174 -119.27367 
L 63.073908 -119.552579 
L 62.748642 -119.932484 
L 62.423375 -120.609639 
L 62.098109 -121.672619 
L 61.772843 -123.050591 
L 61.447576 -124.669385 
L 61.12231 -127.047763 
L 60.797044 -131.422546 
L 60.471777 -136.265673 
L 60.146511 -140.709011 
L 59.821245 -147.579681 
L 59.495978 -154.015679 
L 59.170712 -159.409072 
L 58.845446 -163.41226 
L 58.520179 -167.474441 
L 58.194913 -169.459012 
L 57.869647 -169.19749 
L 57.54438 -167.412904 
L 57.219114 -163.880411 
L 56.893848 -159.33747 
L 56.568581 -152.785937 
L 56.243315 -145.196992 
L 55.918049 -138.820902 
L 55.592782 -132.821521 
L 55.267518 -128.009221 
L 54.942251 -124.796262 
L 54.616985 -122.404823 
L 54.291719 -120.644865 
L 53.966452 -119.729886 
L 53.641186 -119.290691 
L 53.31592 -119.08045 
L 52.990653 -118.96465 
L 52.665387 -118.91735 
L 52.340121 -118.874607 
L 52.014854 -118.86155 
L 51.689588 -118.860789 
L 51.364322 -118.860781 
L 51.039055 -118.860781 
L 50.713789 -118.860781 
L 50.388523 -118.860781 
L 50.063256 -118.860781 
L 49.73799 -118.860781 
L 49.412723 -118.860781 
L 49.087457 -118.860781 
L 48.762191 -118.860781 
L 48.436924 -118.860781 
L 48.111658 -118.860781 
L 47.786392 -118.860781 
L 47.461125 -118.860781 
L 47.135859 -118.860781 
L 46.810593 -118.860781 
L 46.485326 -118.860781 
L 46.16006 -118.860781 
L 45.834794 -118.860781 
L 45.509527 -118.860781 
L 45.184261 -118.860781 
L 44.858995 -118.860781 
L 44.533728 -118.860781 
L 44.208462 -118.860781 
L 43.883196 -118.860781 
L 43.557929 -118.860781 
L 43.232663 -118.860781 
L 42.907397 -118.860781 
L 42.58213 -118.860781 
L 42.256864 -118.860781 
L 41.931598 -118.860781 
L 41.606331 -118.860781 
L 41.281065 -118.860781 
L 40.955799 -118.860781 
L 40.630533 -118.860781 
L 40.305266 -118.860781 
L 39.98 -118.860781 
z
" style="stroke: #08519c; stroke-opacity: 0.1"/>
    </defs>
    <g clip-path="url(#p2992154825)">
     <use xlink:href="#m93c0abd53e" x="0" y="139.920781" style="fill: #08519c; fill-opacity: 0.1; stroke: #08519c; stroke-opacity: 0.1"/>
    </g>
   </g>
   <g id="PolyCollection_2">
    <defs>
     <path id="m05a55aebdb" d="M 39.98 -118.860781 
L 39.98 -118.860781 
L 40.305266 -118.860781 
L 40.630533 -118.860781 
L 40.955799 -118.860781 
L 41.281065 -118.860781 
L 41.606331 -118.860781 
L 41.931598 -118.860781 
L 42.256864 -118.860781 
L 42.58213 -118.860781 
L 42.907397 -118.860781 
L 43.232663 -118.860781 
L 43.557929 -118.860781 
L 43.883196 -118.860781 
L 44.208462 -118.860781 
L 44.533728 -118.860781 
L 44.858995 -118.860781 
L 45.184261 -118.860781 
L 45.509527 -118.860781 
L 45.834794 -118.860781 
L 46.16006 -118.860781 
L 46.485326 -118.860781 
L 46.810593 -118.860781 
L 47.135859 -118.860781 
L 47.461125 -118.860781 
L 47.786392 -118.860781 
L 48.111658 -118.860781 
L 48.436924 -118.860781 
L 48.762191 -118.860781 
L 49.087457 -118.860781 
L 49.412723 -118.860781 
L 49.73799 -118.860781 
L 50.063256 -118.860781 
L 50.388523 -118.860781 
L 50.713789 -118.860781 
L 51.039055 -118.860781 
L 51.364322 -118.860781 
L 51.689588 -118.860781 
L 52.014854 -118.860781 
L 52.340121 -118.860781 
L 52.665387 -118.860781 
L 52.990653 -118.860781 
L 53.31592 -118.860781 
L 53.641186 -118.860781 
L 53.966452 -118.860781 
L 54.291719 -118.860781 
L 54.616985 -118.860781 
L 54.942251 -118.860781 
L 55.267518 -118.860781 
L 55.592782 -118.860781 
L 55.918049 -118.860781 
L 56.243315 -118.860781 
L 56.568581 -118.860781 
L 56.893848 -118.860781 
L 57.219114 -118.860781 
L 57.54438 -118.860781 
L 57.869647 -118.860781 
L 58.194913 -118.860781 
L 58.520179 -118.860781 
L 58.845446 -118.860781 
L 59.170712 -118.860781 
L 59.495978 -118.860781 
L 59.821245 -118.860781 
L 60.146511 -118.860781 
L 60.471777 -118.860781 
L 60.797044 -118.860781 
L 61.12231 -118.860781 
L 61.447576 -118.860781 
L 61.772843 -118.860781 
L 62.098109 -118.860781 
L 62.423375 -118.860781 
L 62.748642 -118.860781 
L 63.073908 -118.860781 
L 63.399174 -118.860781 
L 63.724441 -118.860781 
L 64.049707 -118.860781 
L 64.374973 -118.860781 
L 64.70024 -118.860781 
L 65.025506 -118.860781 
L 65.350772 -118.860781 
L 65.676039 -118.860781 
L 66.001305 -118.860781 
L 66.326572 -118.860781 
L 66.651838 -118.860781 
L 66.977104 -118.860781 
L 67.302371 -118.860781 
L 67.627637 -118.860781 
L 67.952903 -118.860781 
L 68.27817 -118.860781 
L 68.603436 -118.860781 
L 68.928702 -118.860781 
L 69.253969 -118.860781 
L 69.579235 -118.860781 
L 69.904501 -118.860781 
L 70.229768 -118.860781 
L 70.555034 -118.860781 
L 70.8803 -118.860781 
L 71.205567 -118.860781 
L 71.530833 -118.860781 
L 71.856099 -118.860781 
L 72.181366 -118.860781 
L 72.506632 -118.860781 
L 72.831898 -118.860781 
L 73.157165 -118.860781 
L 73.482431 -118.860781 
L 73.807701 -118.860781 
L 74.132967 -118.860781 
L 74.458234 -118.860781 
L 74.7835 -118.860781 
L 75.108766 -118.860781 
L 75.434033 -118.860781 
L 75.759299 -118.860781 
L 76.084565 -118.860781 
L 76.409832 -118.860781 
L 76.735098 -118.860781 
L 77.060365 -118.860781 
L 77.385631 -118.860781 
L 77.710897 -118.860781 
L 78.036164 -118.860781 
L 78.36143 -118.860781 
L 78.686696 -118.860781 
L 79.011963 -118.860781 
L 79.337229 -118.860781 
L 79.662495 -118.860781 
L 79.987762 -118.860781 
L 80.313028 -118.860781 
L 80.638294 -118.860781 
L 80.963561 -118.860781 
L 81.288827 -118.860781 
L 81.614093 -118.860781 
L 81.93936 -118.860781 
L 82.264626 -118.860781 
L 82.589892 -118.860781 
L 82.915159 -118.860781 
L 83.240425 -118.860781 
L 83.565691 -118.860781 
L 83.890958 -118.860781 
L 84.21622 -118.860781 
L 84.541487 -118.860781 
L 84.866753 -118.860781 
L 85.192019 -118.860781 
L 85.517286 -118.860781 
L 85.842552 -118.860781 
L 86.167818 -118.860781 
L 86.493085 -118.860781 
L 86.818351 -118.860781 
L 87.143617 -118.860781 
L 87.468884 -118.860781 
L 87.79415 -118.860781 
L 88.119416 -118.860781 
L 88.444683 -118.860781 
L 88.769949 -118.860781 
L 89.095216 -118.860781 
L 89.420482 -118.860781 
L 89.745748 -118.860781 
L 90.071015 -118.860781 
L 90.396281 -118.860781 
L 90.721547 -118.860781 
L 91.046814 -118.860781 
L 91.37208 -118.860781 
L 91.697346 -118.860781 
L 92.022613 -118.860781 
L 92.347879 -118.860781 
L 92.673145 -118.860781 
L 92.998412 -118.860781 
L 93.323678 -118.860781 
L 93.648944 -118.860781 
L 93.974211 -118.860781 
L 94.299477 -118.860781 
L 94.624743 -118.860781 
L 94.95001 -118.860781 
L 95.275276 -118.860781 
L 95.600542 -118.860781 
L 95.925805 -118.860781 
L 96.251075 -118.860781 
L 96.576338 -118.860781 
L 96.901608 -118.860781 
L 97.226878 -118.860781 
L 97.55214 -118.860781 
L 97.87741 -118.860781 
L 98.202673 -118.860781 
L 98.527943 -118.860781 
L 98.853206 -118.860781 
L 99.178476 -118.860781 
L 99.503739 -118.860781 
L 99.829009 -118.860781 
L 100.154271 -118.860781 
L 100.479541 -118.860781 
L 100.804804 -118.860781 
L 101.130074 -118.860781 
L 101.455337 -118.860781 
L 101.780607 -118.860781 
L 102.105869 -118.860781 
L 102.431139 -118.860781 
L 102.756402 -118.860781 
L 103.081672 -118.860781 
L 103.406935 -118.860781 
L 103.732205 -118.860781 
L 104.057467 -118.860781 
L 104.382737 -118.860781 
L 104.708 -118.860781 
L 104.708 -118.87249 
L 104.708 -118.87249 
L 104.382737 -118.875461 
L 104.057467 -118.878172 
L 103.732205 -118.880436 
L 103.406935 -118.88222 
L 103.081672 -118.883637 
L 102.756402 -118.8849 
L 102.431139 -118.886259 
L 102.105869 -118.887971 
L 101.780607 -118.890285 
L 101.455337 -118.893414 
L 101.130074 -118.897473 
L 100.804804 -118.902432 
L 100.479541 -118.908101 
L 100.154271 -118.914205 
L 99.829009 -118.920496 
L 99.503739 -118.926852 
L 99.178476 -118.933292 
L 98.853206 -118.939901 
L 98.527943 -118.946719 
L 98.202673 -118.953685 
L 97.87741 -118.960696 
L 97.55214 -118.967747 
L 97.226878 -118.975087 
L 96.901608 -118.983263 
L 96.576338 -118.993018 
L 96.251075 -119.005061 
L 95.925805 -119.019829 
L 95.600542 -119.037346 
L 95.275276 -119.057218 
L 94.95001 -119.078729 
L 94.624743 -119.100985 
L 94.299477 -119.123085 
L 93.974211 -119.144319 
L 93.648944 -119.164411 
L 93.323678 -119.183737 
L 92.998412 -119.203378 
L 92.673145 -119.224914 
L 92.347879 -119.249994 
L 92.022613 -119.279815 
L 91.697346 -119.314782 
L 91.37208 -119.354479 
L 91.046814 -119.397983 
L 90.721547 -119.444355 
L 90.396281 -119.49307 
L 90.071015 -119.544228 
L 89.745748 -119.598501 
L 89.420482 -119.656952 
L 89.095216 -119.720851 
L 88.769949 -119.791558 
L 88.444683 -119.870414 
L 88.119416 -119.958527 
L 87.79415 -120.056406 
L 87.468884 -120.163517 
L 87.143617 -120.278011 
L 86.818351 -120.396857 
L 86.493085 -120.516571 
L 86.167818 -120.634446 
L 85.842552 -120.749851 
L 85.517286 -120.865007 
L 85.192019 -120.984696 
L 84.866753 -121.11485 
L 84.541487 -121.260489 
L 84.21622 -121.42387 
L 83.890958 -121.603604 
L 83.565691 -121.795099 
L 83.240425 -121.992096 
L 82.915159 -122.188699 
L 82.589892 -122.381186 
L 82.264626 -122.568991 
L 81.93936 -122.754582 
L 81.614093 -122.942235 
L 81.288827 -123.136072 
L 80.963561 -123.338074 
L 80.638294 -123.546948 
L 80.313028 -123.758566 
L 79.987762 -123.968049 
L 79.662495 -124.17262 
L 79.337229 -124.373741 
L 79.011963 -124.577223 
L 78.686696 -124.791066 
L 78.36143 -125.022166 
L 78.036164 -125.27378 
L 77.710897 -125.545151 
L 77.385631 -125.833277 
L 77.060365 -126.135384 
L 76.735098 -126.45027 
L 76.409832 -126.777544 
L 76.084565 -127.11524 
L 75.759299 -127.457377 
L 75.434033 -127.793139 
L 75.108766 -128.108519 
L 74.7835 -128.389998 
L 74.458234 -128.62884 
L 74.132967 -128.824175 
L 73.807701 -128.983624 
L 73.482431 -129.121261 
L 73.157165 -129.253828 
L 72.831898 -129.396585 
L 72.506632 -129.559919 
L 72.181366 -129.747206 
L 71.856099 -129.953941 
L 71.530833 -130.168117 
L 71.205567 -130.371984 
L 70.8803 -130.545358 
L 70.555034 -130.670135 
L 70.229768 -130.734971 
L 69.904501 -130.738488 
L 69.579235 -130.68956 
L 69.253969 -130.60418 
L 68.928702 -130.499805 
L 68.603436 -130.389203 
L 68.27817 -130.27608 
L 67.952903 -130.154067 
L 67.627637 -130.009369 
L 67.302371 -129.825995 
L 66.977104 -129.591585 
L 66.651838 -129.301624 
L 66.326572 -128.96052 
L 66.001305 -128.579387 
L 65.676039 -128.171866 
L 65.350772 -127.750139 
L 65.025506 -127.322939 
L 64.70024 -126.895935 
L 64.374973 -126.473448 
L 64.049707 -126.059833 
L 63.724441 -125.65947 
L 63.399174 -125.275446 
L 63.073908 -124.907972 
L 62.748642 -124.553666 
L 62.423375 -124.206253 
L 62.098109 -123.858484 
L 61.772843 -123.504495 
L 61.447576 -123.141778 
L 61.12231 -122.772147 
L 60.797044 -122.401499 
L 60.471777 -122.038527 
L 60.146511 -121.692803 
L 59.821245 -121.372723 
L 59.495978 -121.083838 
L 59.170712 -120.827968 
L 58.845446 -120.603275 
L 58.520179 -120.405231 
L 58.194913 -120.228144 
L 57.869647 -120.066788 
L 57.54438 -119.917648 
L 57.219114 -119.779435 
L 56.893848 -119.652775 
L 56.568581 -119.539253 
L 56.243315 -119.440242 
L 55.918049 -119.355972 
L 55.592782 -119.285192 
L 55.267518 -119.225458 
L 54.942251 -119.173866 
L 54.616985 -119.127862 
L 54.291719 -119.085783 
L 53.966452 -119.046981 
L 53.641186 -119.011557 
L 53.31592 -118.979926 
L 52.990653 -118.952453 
L 52.665387 -118.929271 
L 52.340121 -118.910275 
L 52.014854 -118.895199 
L 51.689588 -118.883677 
L 51.364322 -118.875261 
L 51.039055 -118.869436 
L 50.713789 -118.865646 
L 50.388523 -118.863342 
L 50.063256 -118.862039 
L 49.73799 -118.861357 
L 49.412723 -118.861026 
L 49.087457 -118.860878 
L 48.762191 -118.860816 
L 48.436924 -118.860793 
L 48.111658 -118.860785 
L 47.786392 -118.860782 
L 47.461125 -118.860782 
L 47.135859 -118.860781 
L 46.810593 -118.860781 
L 46.485326 -118.860781 
L 46.16006 -118.860781 
L 45.834794 -118.860781 
L 45.509527 -118.860781 
L 45.184261 -118.860781 
L 44.858995 -118.860781 
L 44.533728 -118.860781 
L 44.208462 -118.860781 
L 43.883196 -118.860781 
L 43.557929 -118.860781 
L 43.232663 -118.860781 
L 42.907397 -118.860781 
L 42.58213 -118.860781 
L 42.256864 -118.860781 
L 41.931598 -118.860781 
L 41.606331 -118.860781 
L 41.281065 -118.860781 
L 40.955799 -118.860781 
L 40.630533 -118.860781 
L 40.305266 -118.860781 
L 39.98 -118.860781 
z
" style="stroke: #d94801; stroke-opacity: 0.1"/>
    </defs>
    <g clip-path="url(#p2992154825)">
     <use xlink:href="#m05a55aebdb" x="0" y="139.920781" style="fill: #d94801; fill-opacity: 0.1; stroke: #d94801; stroke-opacity: 0.1"/>
    </g>
   </g>
   <g id="matplotlib.axis_3">
    <g id="xtick_3">
     <g id="line2d_5">
      <g>
       <use xlink:href="#m5cdbc73764" x="64.638286" y="21.06" style="stroke: #000000; stroke-width: 1.5"/>
      </g>
     </g>
    </g>
    <g id="xtick_4">
     <g id="line2d_6">
      <g>
       <use xlink:href="#m5cdbc73764" x="95.461144" y="21.06" style="stroke: #000000; stroke-width: 1.5"/>
      </g>
     </g>
    </g>
   </g>
   <g id="matplotlib.axis_4">
    <g id="ytick_3">
     <g id="line2d_7">
      <g>
       <use xlink:href="#mb6d95e4d08" x="39.98" y="21.06" style="stroke: #000000; stroke-width: 1.5"/>
      </g>
     </g>
    </g>
    <g id="ytick_4">
     <g id="line2d_8">
      <g>
       <use xlink:href="#mb6d95e4d08" x="39.98" y="7.844709" style="stroke: #000000; stroke-width: 1.5"/>
      </g>
     </g>
    </g>
   </g>
   <g id="line2d_9">
    <path d="M 39.98 21.06 
L 52.990653 20.956131 
L 53.641186 20.63009 
L 53.966452 20.190895 
L 54.291719 19.275917 
L 54.616985 17.515958 
L 55.267518 11.91156 
L 55.918049 1.099879 
L 56.025171 -1 
M 60.136485 -1 
L 60.146511 -0.78823 
L 61.12231 12.873018 
L 61.772843 16.870191 
L 62.423375 19.311142 
L 62.748642 19.988297 
L 63.399174 20.647112 
L 65.025506 21.041663 
L 67.302371 21.06 
L 104.708 21.06 
L 104.708 21.06 
" clip-path="url(#p2992154825)" style="fill: none; stroke: #08519c; stroke-width: 1.5; stroke-linecap: square"/>
   </g>
   <g id="line2d_10">
    <path d="M 39.98 21.06 
L 52.990653 20.968328 
L 55.267518 20.695323 
L 56.568581 20.381528 
L 57.869647 19.853993 
L 59.170712 19.092813 
L 60.146511 18.227978 
L 63.399174 14.645336 
L 65.350772 12.170642 
L 66.651838 10.619158 
L 67.302371 10.094786 
L 68.27817 9.644701 
L 69.904501 9.182294 
L 70.555034 9.250646 
L 71.205567 9.548797 
L 73.157165 10.666954 
L 74.458234 11.291941 
L 75.434033 12.127642 
L 77.710897 14.37563 
L 79.011963 15.343558 
L 84.21622 18.496911 
L 85.517286 19.055774 
L 88.769949 20.129223 
L 91.046814 20.522798 
L 93.323678 20.737044 
L 99.503739 20.993929 
L 104.708 21.048291 
L 104.708 21.048291 
" clip-path="url(#p2992154825)" style="fill: none; stroke: #d94801; stroke-width: 1.5; stroke-linecap: square"/>
   </g>
   <g id="patch_6">
    <path d="M 39.98 21.06 
L 39.98 7.2 
" style="fill: none; stroke: #000000; stroke-width: 1.5; stroke-linejoin: miter; stroke-linecap: square"/>
   </g>
   <g id="patch_7">
    <path d="M 39.98 21.06 
L 104.708 21.06 
" style="fill: none; stroke: #000000; stroke-width: 1.5; stroke-linejoin: miter; stroke-linecap: square"/>
   </g>
  </g>
  <g id="axes_3">
   <g id="patch_8">
    <path d="M 106.94 104.22 
L 118.1 104.22 
L 118.1 23.832 
L 106.94 23.832 
L 106.94 104.22 
z
" style="fill: none"/>
   </g>
   <g id="PolyCollection_3">
    <path d="M 106.94 104.22 
L 106.94 118.836001 
L 106.94 118.836001 
L 106.94 118.836001 
L 106.94 118.836001 
L 106.94 118.836001 
L 106.94 118.836001 
L 106.94 118.836001 
L 106.94 118.836001 
L 106.94 118.836001 
L 106.94 118.836001 
L 106.94 118.836001 
L 106.94 118.836001 
L 106.94 118.836001 
L 106.94 118.836001 
L 106.94 118.836001 
L 106.94 118.836001 
L 106.94 118.836001 
L 106.94 118.836001 
L 106.94 118.836001 
L 106.94 118.835999 
L 106.940001 118.835981 
L 106.940006 118.83586 
L 106.940034 118.835216 
L 106.940154 118.832499 
L 106.940548 118.823515 
L 106.941563 118.800407 
L 106.943567 118.754786 
L 106.946531 118.68729 
L 106.949672 118.615786 
L 106.951837 118.566495 
L 106.952664 118.547654 
L 106.953283 118.533564 
L 106.955549 118.481979 
L 106.960707 118.364532 
L 106.969201 118.171141 
L 106.98167 117.887235 
L 106.999534 117.480477 
L 107.024307 116.916432 
L 107.056655 116.179926 
L 107.096717 115.267767 
L 107.146032 114.144925 
L 107.209537 112.698984 
L 107.294935 110.754598 
L 107.408448 108.170032 
L 107.549897 104.949419 
L 107.712041 101.257618 
L 107.887374 97.265517 
L 108.079298 92.895654 
L 108.307509 87.699569 
L 108.600691 81.024201 
L 108.98355 72.306999 
L 109.469253 61.248165 
L 110.054718 47.917874 
L 110.711538 32.962915 
L 111.385118 17.626362 
L 112.023604 3.088873 
L 112.623177 -10.562642 
L 113.23903 -24.584829 
L 113.939672 -40.537534 
L 114.751196 -59.014893 
L 115.648106 -79.436383 
L 116.586423 -100.800669 
L 117.536307 -122.428304 
L 118.489537 -144.132126 
L 119.443712 -165.857452 
L 120.37945 -187.16302 
L 121.255457 -207.108561 
L 122.028851 -224.717761 
L 122.678875 -239.517974 
L 123.215336 -251.732504 
L 123.671117 -262.110056 
L 124.077575 -271.364563 
L 124.430402 -279.397985 
L 124.679089 -285.060283 
L 124.762458 -286.95848 
L 124.65887 -284.599917 
L 124.395079 -278.593742 
L 124.008962 -269.802342 
L 123.522768 -258.732332 
L 122.961663 -245.9567 
L 122.378013 -232.667722 
L 121.83193 -220.234126 
L 121.342358 -209.087192 
L 120.861725 -198.14379 
L 120.30675 -185.507726 
L 119.631067 -170.123291 
L 118.877079 -152.955952 
L 118.145724 -136.303934 
L 117.505669 -121.730723 
L 116.936412 -108.769467 
L 116.361277 -95.67438 
L 115.725634 -81.201605 
L 115.038302 -65.551938 
L 114.348661 -49.849701 
L 113.701257 -35.109146 
L 113.11655 -21.796113 
L 112.59684 -9.962974 
L 112.129843 0.669942 
L 111.689285 10.700875 
L 111.250041 20.701899 
L 110.808063 30.765168 
L 110.377036 40.579115 
L 109.965719 49.944266 
L 109.570976 58.932057 
L 109.196691 67.454055 
L 108.866291 74.976832 
L 108.604968 80.926824 
L 108.412759 85.303177 
L 108.262614 88.721776 
L 108.123461 91.890118 
L 107.98094 95.135126 
L 107.839366 98.358586 
L 107.71073 101.287479 
L 107.603557 103.727663 
L 107.518638 105.661154 
L 107.450746 107.206968 
L 107.391879 108.547302 
L 107.333885 109.867737 
L 107.271511 111.287915 
L 107.205599 112.788643 
L 107.143091 114.211878 
L 107.092247 115.369531 
L 107.057377 116.163471 
L 107.037791 116.609435 
L 107.029382 116.800879 
L 107.025461 116.890165 
L 107.018569 117.047097 
L 107.005199 117.351498 
L 106.98865 117.728298 
L 106.975274 118.032851 
L 106.968048 118.197378 
L 106.964727 118.272992 
L 106.961465 118.347277 
L 106.956859 118.452137 
L 106.952582 118.549527 
L 106.951164 118.581816 
L 106.953544 118.527627 
L 106.958069 118.424595 
L 106.96141 118.348514 
L 106.960902 118.360079 
L 106.956501 118.460299 
L 106.950487 118.597221 
L 106.94536 118.713957 
L 106.942202 118.785859 
L 106.940727 118.819446 
L 106.940193 118.83161 
L 106.940041 118.835066 
L 106.940007 118.835841 
L 106.940001 118.835979 
L 106.94 118.835998 
L 106.94 118.836001 
L 106.94 118.836001 
L 106.94 118.836001 
L 106.94 118.836001 
L 106.94 118.836001 
L 106.94 118.836001 
L 106.94 118.836001 
L 106.94 118.836001 
L 106.94 118.836001 
L 106.94 118.836001 
L 106.94 118.836001 
L 106.94 118.836001 
L 106.94 118.836001 
L 106.94 118.836001 
L 106.94 118.836001 
L 106.94 118.836001 
L 106.94 118.836001 
L 106.94 118.836001 
L 106.94 118.836001 
L 106.94 118.836001 
L 106.94 118.836001 
L 106.94 118.836001 
L 106.94 118.836001 
L 106.94 118.836001 
L 106.94 118.836001 
L 106.94 118.836001 
L 106.94 118.836001 
L 106.94 118.836001 
L 106.94 118.836001 
L 106.94 118.836001 
L 106.94 118.836001 
L 106.94 118.836001 
L 106.94 118.836001 
L 106.94 118.836001 
L 106.94 118.836001 
L 106.94 118.836001 
L 106.94 118.836001 
L 106.94 118.836001 
L 106.94 118.836001 
L 106.94 118.836001 
L 106.94 118.836001 
L 106.94 118.836001 
L 106.94 118.836001 
L 106.94 118.836001 
L 106.94 118.836001 
L 106.94 118.836001 
L 106.94 118.836001 
L 106.94 118.836001 
L 106.94 118.836001 
L 106.94 118.836001 
L 106.94 23.832 
L 106.94 23.832 
L 106.94 24.235958 
L 106.94 24.639916 
L 106.94 25.043883 
L 106.94 25.447841 
L 106.94 25.8518 
L 106.94 26.255758 
L 106.94 26.659716 
L 106.94 27.063683 
L 106.94 27.467641 
L 106.94 27.871599 
L 106.94 28.275557 
L 106.94 28.679515 
L 106.94 29.083482 
L 106.94 29.48744 
L 106.94 29.891399 
L 106.94 30.295357 
L 106.94 30.699315 
L 106.94 31.103273 
L 106.94 31.507231 
L 106.94 31.911189 
L 106.94 32.315156 
L 106.94 32.719114 
L 106.94 33.123073 
L 106.94 33.527039 
L 106.94 33.930998 
L 106.94 34.334956 
L 106.94 34.738914 
L 106.94 35.142872 
L 106.94 35.546839 
L 106.94 35.950797 
L 106.94 36.354755 
L 106.94 36.758713 
L 106.94 37.162672 
L 106.94 37.56663 
L 106.94 37.970588 
L 106.94 38.374546 
L 106.94 38.778513 
L 106.94 39.182471 
L 106.94 39.586429 
L 106.94 39.990396 
L 106.94 40.394354 
L 106.94 40.798313 
L 106.94 41.202271 
L 106.94 41.606229 
L 106.94 42.010196 
L 106.94 42.414154 
L 106.94 42.818112 
L 106.94 43.22207 
L 106.94 43.626028 
L 106.94 44.029995 
L 106.940001 44.433953 
L 106.940007 44.837912 
L 106.940041 45.24187 
L 106.940193 45.645828 
L 106.940727 46.04979 
L 106.942202 46.453749 
L 106.94536 46.857711 
L 106.950487 47.261669 
L 106.956501 47.665627 
L 106.960902 48.06959 
L 106.96141 48.473548 
L 106.958069 48.877511 
L 106.953544 49.281469 
L 106.951164 49.685427 
L 106.952582 50.089389 
L 106.956859 50.493348 
L 106.961465 50.89731 
L 106.964727 51.301268 
L 106.968048 51.705226 
L 106.975274 52.109189 
L 106.98865 52.513147 
L 107.005199 52.917105 
L 107.018569 53.321068 
L 107.025461 53.725026 
L 107.029382 54.128984 
L 107.037791 54.532947 
L 107.057377 54.936905 
L 107.092247 55.340867 
L 107.143091 55.744826 
L 107.205599 56.148784 
L 107.271511 56.552746 
L 107.333885 56.956704 
L 107.391879 57.360667 
L 107.450746 57.764625 
L 107.518638 58.168583 
L 107.603557 58.572546 
L 107.71073 58.976504 
L 107.839366 59.380462 
L 107.98094 59.784425 
L 108.123461 60.188383 
L 108.262614 60.592341 
L 108.412759 60.996303 
L 108.604968 61.400262 
L 108.866291 61.804224 
L 109.196691 62.208182 
L 109.570976 62.61214 
L 109.965719 63.016103 
L 110.377036 63.420061 
L 110.808063 63.824024 
L 111.250041 64.227982 
L 111.689285 64.63194 
L 112.129843 65.035902 
L 112.59684 65.439861 
L 113.11655 65.843819 
L 113.701257 66.247781 
L 114.348661 66.651739 
L 115.038302 67.055698 
L 115.725634 67.45966 
L 116.361277 67.863618 
L 116.936412 68.267581 
L 117.505669 68.671539 
L 118.145724 69.075497 
L 118.877079 69.47946 
L 119.631067 69.883418 
L 120.30675 70.28738 
L 120.861725 70.691339 
L 121.342358 71.095297 
L 121.83193 71.499259 
L 122.378013 71.903217 
L 122.961663 72.307176 
L 123.522768 72.711138 
L 124.008962 73.115096 
L 124.395079 73.519054 
L 124.65887 73.923017 
L 124.762458 74.326975 
L 124.679089 74.730938 
L 124.430402 75.134896 
L 124.077575 75.538854 
L 123.671117 75.942816 
L 123.215336 76.346775 
L 122.678875 76.750737 
L 122.028851 77.154695 
L 121.255457 77.558653 
L 120.37945 77.962616 
L 119.443712 78.366574 
L 118.489537 78.770532 
L 117.536307 79.174495 
L 116.586423 79.578453 
L 115.648106 79.982411 
L 114.751196 80.386374 
L 113.939672 80.790332 
L 113.23903 81.194294 
L 112.623177 81.598252 
L 112.023604 82.002211 
L 111.385118 82.406173 
L 110.711538 82.810131 
L 110.054718 83.214092 
L 109.469253 83.618052 
L 108.98355 84.02201 
L 108.600691 84.425971 
L 108.307509 84.829931 
L 108.079298 85.233891 
L 107.887374 85.637852 
L 107.712041 86.04181 
L 107.549897 86.44577 
L 107.408448 86.84973 
L 107.294935 87.253689 
L 107.209537 87.657649 
L 107.146032 88.061609 
L 107.096717 88.46557 
L 107.056655 88.86953 
L 107.024307 89.273488 
L 106.999534 89.677448 
L 106.98167 90.081409 
L 106.969201 90.485367 
L 106.960707 90.889327 
L 106.955549 91.293288 
L 106.953283 91.697248 
L 106.952664 92.101208 
L 106.951837 92.505166 
L 106.949672 92.909127 
L 106.946531 93.313087 
L 106.943567 93.717045 
L 106.941563 94.121006 
L 106.940548 94.524966 
L 106.940154 94.928926 
L 106.940034 95.332887 
L 106.940006 95.736845 
L 106.940001 96.140805 
L 106.94 96.544766 
L 106.94 96.948724 
L 106.94 97.352684 
L 106.94 97.756644 
L 106.94 98.160603 
L 106.94 98.564563 
L 106.94 98.968523 
L 106.94 99.372481 
L 106.94 99.776442 
L 106.94 100.180402 
L 106.94 100.584362 
L 106.94 100.988322 
L 106.94 101.392281 
L 106.94 101.796241 
L 106.94 102.200202 
L 106.94 102.604161 
L 106.94 103.00812 
L 106.94 103.41208 
L 106.94 103.816041 
L 106.94 104.22 
z
" clip-path="url(#pd14c52c401)" style="fill: #08519c; fill-opacity: 0.1; stroke: #08519c; stroke-opacity: 0.1"/>
   </g>
   <g id="PolyCollection_4">
    <path d="M 106.94 104.22 
L 106.94 118.836001 
L 106.94 118.836001 
L 106.94 118.836001 
L 106.94 118.836001 
L 106.94 118.836001 
L 106.94 118.836001 
L 106.94 118.836001 
L 106.94 118.836001 
L 106.94 118.836 
L 106.94 118.835997 
L 106.940001 118.835986 
L 106.940002 118.835953 
L 106.940006 118.835856 
L 106.940018 118.835591 
L 106.940047 118.834923 
L 106.940116 118.833362 
L 106.940264 118.829991 
L 106.94056 118.823254 
L 106.941106 118.810814 
L 106.942038 118.789603 
L 106.943505 118.756206 
L 106.945638 118.707626 
L 106.948513 118.642181 
L 106.95212 118.560034 
L 106.956393 118.462759 
L 106.961274 118.351626 
L 106.966833 118.225042 
L 106.973365 118.076334 
L 106.981404 117.893275 
L 106.991648 117.660036 
L 107.004795 117.360706 
L 107.02142 116.982182 
L 107.041982 116.514004 
L 107.06701 115.944135 
L 107.097399 115.252234 
L 107.134652 114.404028 
L 107.18092 113.350567 
L 107.238737 112.034144 
L 107.310545 110.399162 
L 107.398189 108.403628 
L 107.50258 106.026767 
L 107.623651 103.270144 
L 107.760547 100.153201 
L 107.911952 96.705894 
L 108.076439 92.96074 
L 108.252807 88.945078 
L 108.440451 84.672658 
L 108.639724 80.135479 
L 108.852106 75.299798 
L 109.079992 70.111136 
L 109.325937 64.511269 
L 109.591567 58.463235 
L 109.87659 51.973619 
L 110.178462 45.100381 
L 110.492976 37.939303 
L 110.815583 30.593951 
L 111.142778 23.144135 
L 111.47291 15.627464 
L 111.805967 8.044184 
L 112.142552 0.380583 
L 112.482665 -7.363364 
L 112.824845 -15.154366 
L 113.166082 -22.923901 
L 113.502342 -30.580101 
L 113.829427 -38.027395 
L 114.143926 -45.188136 
L 114.444006 -52.02057 
L 114.729913 -58.530308 
L 115.003983 -64.770543 
L 115.269864 -70.82431 
L 115.53097 -76.769353 
L 115.788621 -82.635732 
L 116.04057 -88.372286 
L 116.28077 -93.841327 
L 116.500606 -98.846722 
L 116.691232 -103.187026 
L 116.846107 -106.713334 
L 116.962742 -109.368956 
L 117.043161 -111.199992 
L 117.093083 -112.336668 
L 117.120303 -112.956415 
L 117.132812 -113.241242 
L 117.1371 -113.338866 
L 117.136875 -113.333751 
L 117.132415 -113.232197 
L 117.120681 -112.965039 
L 117.096258 -112.408955 
L 117.052896 -111.421652 
L 116.985204 -109.880392 
L 116.889928 -107.711074 
L 116.766455 -104.899754 
L 116.616551 -101.486644 
L 116.443617 -97.549143 
L 116.251887 -93.183717 
L 116.045796 -88.491285 
L 115.829552 -83.567672 
L 115.606816 -78.496266 
L 115.380363 -73.340226 
L 115.151797 -68.13608 
L 114.921469 -62.8918 
L 114.688716 -57.592317 
L 114.452494 -52.21383 
L 114.212175 -46.74209 
L 113.968179 -41.186609 
L 113.722174 -35.585391 
L 113.476691 -29.996054 
L 113.234368 -24.478672 
L 112.997167 -19.07791 
L 112.765888 -13.811984 
L 112.540211 -8.673609 
L 112.31909 -3.638979 
L 112.101303 1.319757 
L 111.885888 6.224483 
L 111.672379 11.085807 
L 111.460949 15.899797 
L 111.252531 20.645212 
L 111.048882 25.282025 
L 110.852502 29.753353 
L 110.666246 33.994158 
L 110.492648 37.946759 
L 110.333189 41.57744 
L 110.187747 44.888977 
L 110.054489 47.923084 
L 109.93023 50.752315 
L 109.811102 53.464696 
L 109.69336 56.145532 
L 109.574029 58.862547 
L 109.451295 61.65704 
L 109.324586 64.542044 
L 109.194413 67.505919 
L 109.062134 70.517739 
L 108.929734 73.532319 
L 108.799625 76.494718 
L 108.674445 79.344914 
L 108.556758 82.024508 
L 108.448657 84.485811 
L 108.351385 86.700573 
L 108.265065 88.665966 
L 108.188712 90.404435 
L 108.120511 91.957271 
L 108.058281 93.374172 
L 107.999959 94.702084 
L 107.943952 95.977296 
L 107.889284 97.222022 
L 107.835566 98.445107 
L 107.782858 99.645213 
L 107.731498 100.814602 
L 107.681927 101.943272 
L 107.634499 103.023146 
L 107.589306 104.052133 
L 107.546066 105.036659 
L 107.504159 105.990824 
L 107.462833 106.931764 
L 107.421529 107.872194 
L 107.38018 108.813669 
L 107.339333 109.74369 
L 107.30006 110.637908 
L 107.26367 111.466461 
L 107.231396 112.201278 
L 107.204125 112.822217 
L 107.182222 113.320909 
L 107.165467 113.702403 
L 107.15306 113.984904 
L 107.14374 114.1971 
L 107.136017 114.372936 
L 107.128483 114.544474 
L 107.120129 114.734705 
L 107.110549 114.952814 
L 107.099973 115.193625 
L 107.089093 115.441355 
L 107.078777 115.676236 
L 107.069752 115.881709 
L 107.062364 116.049938 
L 107.056467 116.184192 
L 107.051488 116.297572 
L 107.046605 116.408747 
L 107.041006 116.536235 
L 107.034117 116.693088 
L 107.025745 116.883693 
L 107.016095 117.103421 
L 107.005666 117.340862 
L 106.995096 117.581539 
L 106.984992 117.81158 
L 106.975828 118.020239 
L 106.967898 118.200807 
L 106.961337 118.350192 
L 106.956167 118.467897 
L 106.952335 118.55514 
L 106.94973 118.61447 
L 106.948177 118.649815 
L 106.947445 118.666485 
L 106.947259 118.670726 
L 106.947349 118.668676 
L 106.94751 118.665013 
L 106.947648 118.661869 
L 106.947791 118.658607 
L 106.948051 118.65269 
L 106.948549 118.641353 
L 106.949338 118.623396 
L 106.950353 118.600273 
L 106.950353 23.832 
L 106.950353 23.832 
L 106.949338 24.235958 
L 106.948549 24.639916 
L 106.948051 25.043883 
L 106.947791 25.447841 
L 106.947648 25.8518 
L 106.94751 26.255758 
L 106.947349 26.659716 
L 106.947259 27.063683 
L 106.947445 27.467641 
L 106.948177 27.871599 
L 106.94973 28.275557 
L 106.952335 28.679515 
L 106.956167 29.083482 
L 106.961337 29.48744 
L 106.967898 29.891399 
L 106.975828 30.295357 
L 106.984992 30.699315 
L 106.995096 31.103273 
L 107.005666 31.507231 
L 107.016095 31.911189 
L 107.025745 32.315156 
L 107.034117 32.719114 
L 107.041006 33.123073 
L 107.046605 33.527039 
L 107.051488 33.930998 
L 107.056467 34.334956 
L 107.062364 34.738914 
L 107.069752 35.142872 
L 107.078777 35.546839 
L 107.089093 35.950797 
L 107.099973 36.354755 
L 107.110549 36.758713 
L 107.120129 37.162672 
L 107.128483 37.56663 
L 107.136017 37.970588 
L 107.14374 38.374546 
L 107.15306 38.778513 
L 107.165467 39.182471 
L 107.182222 39.586429 
L 107.204125 39.990396 
L 107.231396 40.394354 
L 107.26367 40.798313 
L 107.30006 41.202271 
L 107.339333 41.606229 
L 107.38018 42.010196 
L 107.421529 42.414154 
L 107.462833 42.818112 
L 107.504159 43.22207 
L 107.546066 43.626028 
L 107.589306 44.029995 
L 107.634499 44.433953 
L 107.681927 44.837912 
L 107.731498 45.24187 
L 107.782858 45.645828 
L 107.835566 46.04979 
L 107.889284 46.453749 
L 107.943952 46.857711 
L 107.999959 47.261669 
L 108.058281 47.665627 
L 108.120511 48.06959 
L 108.188712 48.473548 
L 108.265065 48.877511 
L 108.351385 49.281469 
L 108.448657 49.685427 
L 108.556758 50.089389 
L 108.674445 50.493348 
L 108.799625 50.89731 
L 108.929734 51.301268 
L 109.062134 51.705226 
L 109.194413 52.109189 
L 109.324586 52.513147 
L 109.451295 52.917105 
L 109.574029 53.321068 
L 109.69336 53.725026 
L 109.811102 54.128984 
L 109.93023 54.532947 
L 110.054489 54.936905 
L 110.187747 55.340867 
L 110.333189 55.744826 
L 110.492648 56.148784 
L 110.666246 56.552746 
L 110.852502 56.956704 
L 111.048882 57.360667 
L 111.252531 57.764625 
L 111.460949 58.168583 
L 111.672379 58.572546 
L 111.885888 58.976504 
L 112.101303 59.380462 
L 112.31909 59.784425 
L 112.540211 60.188383 
L 112.765888 60.592341 
L 112.997167 60.996303 
L 113.234368 61.400262 
L 113.476691 61.804224 
L 113.722174 62.208182 
L 113.968179 62.61214 
L 114.212175 63.016103 
L 114.452494 63.420061 
L 114.688716 63.824024 
L 114.921469 64.227982 
L 115.151797 64.63194 
L 115.380363 65.035902 
L 115.606816 65.439861 
L 115.829552 65.843819 
L 116.045796 66.247781 
L 116.251887 66.651739 
L 116.443617 67.055698 
L 116.616551 67.45966 
L 116.766455 67.863618 
L 116.889928 68.267581 
L 116.985204 68.671539 
L 117.052896 69.075497 
L 117.096258 69.47946 
L 117.120681 69.883418 
L 117.132415 70.28738 
L 117.136875 70.691339 
L 117.1371 71.095297 
L 117.132812 71.499259 
L 117.120303 71.903217 
L 117.093083 72.307176 
L 117.043161 72.711138 
L 116.962742 73.115096 
L 116.846107 73.519054 
L 116.691232 73.923017 
L 116.500606 74.326975 
L 116.28077 74.730938 
L 116.04057 75.134896 
L 115.788621 75.538854 
L 115.53097 75.942816 
L 115.269864 76.346775 
L 115.003983 76.750737 
L 114.729913 77.154695 
L 114.444006 77.558653 
L 114.143926 77.962616 
L 113.829427 78.366574 
L 113.502342 78.770532 
L 113.166082 79.174495 
L 112.824845 79.578453 
L 112.482665 79.982411 
L 112.142552 80.386374 
L 111.805967 80.790332 
L 111.47291 81.194294 
L 111.142778 81.598252 
L 110.815583 82.002211 
L 110.492976 82.406173 
L 110.178462 82.810131 
L 109.87659 83.214092 
L 109.591567 83.618052 
L 109.325937 84.02201 
L 109.079992 84.425971 
L 108.852106 84.829931 
L 108.639724 85.233891 
L 108.440451 85.637852 
L 108.252807 86.04181 
L 108.076439 86.44577 
L 107.911952 86.84973 
L 107.760547 87.253689 
L 107.623651 87.657649 
L 107.50258 88.061609 
L 107.398189 88.46557 
L 107.310545 88.86953 
L 107.238737 89.273488 
L 107.18092 89.677448 
L 107.134652 90.081409 
L 107.097399 90.485367 
L 107.06701 90.889327 
L 107.041982 91.293288 
L 107.02142 91.697248 
L 107.004795 92.101208 
L 106.991648 92.505166 
L 106.981404 92.909127 
L 106.973365 93.313087 
L 106.966833 93.717045 
L 106.961274 94.121006 
L 106.956393 94.524966 
L 106.95212 94.928926 
L 106.948513 95.332887 
L 106.945638 95.736845 
L 106.943505 96.140805 
L 106.942038 96.544766 
L 106.941106 96.948724 
L 106.94056 97.352684 
L 106.940264 97.756644 
L 106.940116 98.160603 
L 106.940047 98.564563 
L 106.940018 98.968523 
L 106.940006 99.372481 
L 106.940002 99.776442 
L 106.940001 100.180402 
L 106.94 100.584362 
L 106.94 100.988322 
L 106.94 101.392281 
L 106.94 101.796241 
L 106.94 102.200202 
L 106.94 102.604161 
L 106.94 103.00812 
L 106.94 103.41208 
L 106.94 103.816041 
L 106.94 104.22 
z
" clip-path="url(#pd14c52c401)" style="fill: #d94801; fill-opacity: 0.1; stroke: #d94801; stroke-opacity: 0.1"/>
   </g>
   <g id="matplotlib.axis_5">
    <g id="xtick_5">
     <g id="line2d_11">
      <g>
       <use xlink:href="#m5cdbc73764" x="106.94" y="104.22" style="stroke: #000000; stroke-width: 1.5"/>
      </g>
     </g>
    </g>
    <g id="xtick_6">
     <g id="line2d_12">
      <g>
       <use xlink:href="#m5cdbc73764" x="114.964168" y="104.22" style="stroke: #000000; stroke-width: 1.5"/>
      </g>
     </g>
    </g>
   </g>
   <g id="matplotlib.axis_6">
    <g id="ytick_5">
     <g id="line2d_13">
      <g>
       <use xlink:href="#mb6d95e4d08" x="106.94" y="82.295999" style="stroke: #000000; stroke-width: 1.5"/>
      </g>
     </g>
    </g>
    <g id="ytick_6">
     <g id="line2d_14">
      <g>
       <use xlink:href="#mb6d95e4d08" x="106.94" y="45.755998" style="stroke: #000000; stroke-width: 1.5"/>
      </g>
     </g>
    </g>
   </g>
   <g id="line2d_15">
    <path d="M 106.94 104.22 
L 107.024307 89.273488 
L 107.294935 87.253689 
L 107.712041 86.04181 
L 108.307509 84.829931 
L 108.98355 84.02201 
L 110.054718 83.214092 
L 114.751196 80.386374 
L 122.678875 76.750737 
L 123.671117 75.942816 
L 124.430402 75.134896 
L 124.679089 74.730938 
L 124.762458 74.326975 
L 124.65887 73.923017 
L 124.008962 73.115096 
L 122.378013 71.903217 
L 119.631067 69.883418 
L 117.505669 68.671539 
L 115.038302 67.055698 
L 113.11655 65.843819 
L 111.689285 64.63194 
L 109.196691 62.208182 
L 108.604968 61.400262 
L 108.123461 60.188383 
L 107.518638 58.168583 
L 107.057377 54.936905 
L 106.961465 50.89731 
L 106.94 39.586429 
L 106.94 23.832 
L 106.94 23.832 
" clip-path="url(#pd14c52c401)" style="fill: none; stroke: #08519c; stroke-width: 1.5; stroke-linecap: square"/>
   </g>
   <g id="line2d_16">
    <path d="M 106.94 104.22 
L 107.041982 91.293288 
L 107.238737 89.273488 
L 107.623651 87.657649 
L 108.252807 86.04181 
L 109.079992 84.425971 
L 110.178462 82.810131 
L 112.824845 79.578453 
L 114.729913 77.154695 
L 116.28077 74.730938 
L 116.846107 73.519054 
L 117.093083 72.307176 
L 117.132415 70.28738 
L 116.985204 68.671539 
L 116.616551 67.45966 
L 115.829552 65.843819 
L 113.476691 61.804224 
L 111.885888 58.976504 
L 110.492648 56.148784 
L 109.811102 54.128984 
L 108.120511 48.06959 
L 107.546066 43.626028 
L 107.15306 38.778513 
L 106.947791 25.447841 
L 106.950353 23.832 
L 106.950353 23.832 
" clip-path="url(#pd14c52c401)" style="fill: none; stroke: #d94801; stroke-width: 1.5; stroke-linecap: square"/>
   </g>
   <g id="patch_9">
    <path d="M 106.94 104.22 
L 106.94 23.832 
" style="fill: none; stroke: #000000; stroke-width: 1.5; stroke-linejoin: miter; stroke-linecap: square"/>
   </g>
   <g id="patch_10">
    <path d="M 106.94 104.22 
L 118.1 104.22 
" style="fill: none; stroke: #000000; stroke-width: 1.5; stroke-linejoin: miter; stroke-linecap: square"/>
   </g>
  </g>
 </g>
 <defs>
  <clipPath id="pe603b9ffed">
   <rect x="39.98" y="23.832" width="64.728" height="80.388"/>
  </clipPath>
  <clipPath id="p2992154825">
   <rect x="39.98" y="7.2" width="64.728" height="13.86"/>
  </clipPath>
  <clipPath id="pd14c52c401">
   <rect x="106.94" y="23.832" width="11.16" height="80.388"/>
  </clipPath>
 </defs>
</svg>
