<?xml version="1.0" encoding="utf-8" standalone="no"?>
<!DOCTYPE svg PUBLIC "-//W3C//DTD SVG 1.1//EN"
  "http://www.w3.org/Graphics/SVG/1.1/DTD/svg11.dtd">
<svg xmlns:xlink="http://www.w3.org/1999/xlink" width="125.3pt" height="139.920781pt" viewBox="0 0 125.3 139.920781" xmlns="http://www.w3.org/2000/svg" version="1.1">
 <metadata>
  <rdf:RDF xmlns:dc="http://purl.org/dc/elements/1.1/" xmlns:cc="http://creativecommons.org/ns#" xmlns:rdf="http://www.w3.org/1999/02/22-rdf-syntax-ns#">
   <cc:Work>
    <dc:type rdf:resource="http://purl.org/dc/dcmitype/StillImage"/>
    <dc:date>2023-05-16T16:30:33.667884</dc:date>
    <dc:format>image/svg+xml</dc:format>
    <dc:creator>
     <cc:Agent>
      <dc:title>Matplotlib v3.5.0, https://matplotlib.org/</dc:title>
     </cc:Agent>
    </dc:creator>
   </cc:Work>
  </rdf:RDF>
 </metadata>
 <defs>
  <style type="text/css">*{stroke-linejoin: round; stroke-linecap: butt}</style>
 </defs>
 <g id="figure_1">
  <g id="patch_1">
   <path d="M 0 139.920781 
L 125.3 139.920781 
L 125.3 0 
L 0 0 
L 0 139.920781 
z
" style="fill: none"/>
  </g>
  <g id="axes_1">
   <g id="patch_2">
    <path d="M 39.98 104.22 
L 104.708 104.22 
L 104.708 23.832 
L 39.98 23.832 
L 39.98 104.22 
z
" style="fill: none"/>
   </g>
   <g id="PathCollection_1">
    <defs>
     <path id="mf4fe6c07d9" d="M 0 1.5 
C 0.397805 1.5 0.77937 1.341951 1.06066 1.06066 
C 1.341951 0.77937 1.5 0.397805 1.5 0 
C 1.5 -0.397805 1.341951 -0.77937 1.06066 -1.06066 
C 0.77937 -1.341951 0.397805 -1.5 0 -1.5 
C -0.397805 -1.5 -0.77937 -1.341951 -1.06066 -1.06066 
C -1.341951 -0.77937 -1.5 -0.397805 -1.5 0 
C -1.5 0.397805 -1.341951 0.77937 -1.06066 1.06066 
C -0.77937 1.341951 -0.397805 1.5 0 1.5 
z
" style="stroke: #08519c"/>
    </defs>
    <g clip-path="url(#p6489be14fc)">
     <use xlink:href="#mf4fe6c07d9" x="59.550357" y="80.443146" style="fill: #08519c; stroke: #08519c"/>
    </g>
   </g>
   <g id="matplotlib.axis_1">
    <g id="xtick_1">
     <g id="line2d_1">
      <defs>
       <path id="mc030d09f8e" d="M 0 0 
L 0 3.5 
" style="stroke: #000000; stroke-width: 1.5"/>
      </defs>
      <g>
       <use xlink:href="#mc030d09f8e" x="52.9256" y="104.22" style="stroke: #000000; stroke-width: 1.5"/>
      </g>
     </g>
     <g id="text_1">
      <text style="font: 9px 'Arial'; text-anchor: middle" x="52.9256" y="117.662031" transform="rotate(-0, 52.9256, 117.662031)">1</text>
     </g>
    </g>
    <g id="xtick_2">
     <g id="line2d_2">
      <g>
       <use xlink:href="#mc030d09f8e" x="85.289602" y="104.22" style="stroke: #000000; stroke-width: 1.5"/>
      </g>
     </g>
     <g id="text_2">
      <text style="font: 9px 'Arial'; text-anchor: middle" x="85.289602" y="117.662031" transform="rotate(-0, 85.289602, 117.662031)">2</text>
     </g>
    </g>
    <g id="text_3">
     <!-- $\theta_1$ -->
     <g transform="translate(67.754 130.020781)">
      <text>
       <tspan style="font: 9px 'Arial'" x="0" y="-0.453125">θ</tspan>
       <tspan style="font: 6.3px 'Arial'" x="5.162182" y="2.2350624999999997">1</tspan>
      </text>
     </g>
    </g>
   </g>
   <g id="matplotlib.axis_2">
    <g id="ytick_1">
     <g id="line2d_3">
      <defs>
       <path id="m9c634dd328" d="M 0 0 
L -3.5 0 
" style="stroke: #000000; stroke-width: 1.5"/>
      </defs>
      <g>
       <use xlink:href="#m9c634dd328" x="39.98" y="81.251999" style="stroke: #000000; stroke-width: 1.5"/>
      </g>
     </g>
     <g id="text_4">
      <text style="font: 9px 'Arial'; text-anchor: end" x="32.98" y="84.473015" transform="rotate(-0, 32.98, 84.473015)">0.4</text>
     </g>
    </g>
    <g id="ytick_2">
     <g id="line2d_4">
      <g>
       <use xlink:href="#m9c634dd328" x="39.98" y="58.283999" style="stroke: #000000; stroke-width: 1.5"/>
      </g>
     </g>
     <g id="text_5">
      <text style="font: 9px 'Arial'; text-anchor: end" x="32.98" y="61.505014" transform="rotate(-0, 32.98, 61.505014)">0.6</text>
     </g>
    </g>
    <g id="ytick_3">
     <g id="line2d_5">
      <g>
       <use xlink:href="#m9c634dd328" x="39.98" y="35.315998" style="stroke: #000000; stroke-width: 1.5"/>
      </g>
     </g>
     <g id="text_6">
      <text style="font: 9px 'Arial'; text-anchor: end" x="32.98" y="38.537013" transform="rotate(-0, 32.98, 38.537013)">0.8</text>
     </g>
    </g>
    <g id="text_7">
     <!-- $\theta_2$ -->
     <g transform="translate(13.77 68.616)rotate(-90)">
      <text>
       <tspan style="font: 9px 'Arial'" x="0" y="-0.453125">θ</tspan>
       <tspan style="font: 6.3px 'Arial'" x="5.162182" y="2.2350624999999997">2</tspan>
      </text>
     </g>
    </g>
   </g>
   <g id="PathCollection_2">
    <path d="M 41.281066 104.22 
L 41.281066 100.180401 
L 40.9558 99.776441 
L 40.9558 88.869526 
L 40.630532 88.465565 
L 40.630532 83.21409 
L 40.305266 82.810132 
L 40.305266 69.479455 
L 40.630532 69.075497 
L 40.630532 63.824022 
L 40.9558 63.420058 
L 40.9558 59.784426 
L 41.281066 59.380469 
L 41.281066 56.552745 
L 41.606331 56.148788 
L 41.606331 53.725022 
L 41.931597 53.321065 
L 41.931597 50.493348 
L 42.256863 50.089391 
L 42.256863 47.665632 
L 42.582131 47.261667 
L 42.582131 44.433951 
L 42.907397 44.029986 
L 42.907397 40.798312 
L 43.232663 40.394355 
L 43.232663 37.970596 
L 43.557931 37.566632 
L 43.557931 35.142873 
L 43.883197 34.738915 
L 43.883197 33.123078 
L 44.208462 32.719121 
L 44.208462 30.699319 
L 44.533728 30.295362 
L 44.533728 29.083475 
L 44.858994 28.679518 
L 44.858994 27.063681 
L 45.184262 26.659716 
L 45.184262 25.447837 
L 45.509528 25.043879 
L 45.509528 24.235958 
L 45.834794 23.832 
L 45.834794 23.832 
" clip-path="url(#p6489be14fc)" style="fill: none"/>
    <path d="M 75.108763 23.832 
L 75.108763 25.447837 
L 75.434031 25.851801 
L 75.434031 27.871596 
L 75.759299 28.27556 
L 75.759299 31.507241 
L 76.084563 31.911199 
L 76.084563 35.54683 
L 76.40983 35.950795 
L 76.40983 38.374553 
L 76.735098 38.778511 
L 76.735098 41.202277 
L 77.060362 41.606234 
L 77.060362 44.837908 
L 77.38563 45.241866 
L 77.38563 50.493348 
L 77.710894 50.897312 
L 77.710894 64.22798 
L 77.38563 64.631937 
L 77.38563 71.095295 
L 77.060362 71.499253 
L 77.060362 79.578452 
L 76.735098 79.982409 
L 76.735098 85.233888 
L 76.40983 85.637849 
L 76.40983 89.273487 
L 76.084563 89.677445 
L 76.084563 92.101207 
L 75.759299 92.505168 
L 75.759299 94.928924 
L 75.434031 95.332885 
L 75.434031 97.352683 
L 75.108763 97.756643 
L 75.108763 99.372482 
L 74.783499 99.776441 
L 74.783499 101.392282 
L 74.458231 101.796241 
L 74.458231 103.008121 
L 74.132967 103.41208 
L 74.132967 104.22 
L 74.132967 104.22 
" clip-path="url(#p6489be14fc)" style="fill: none"/>
   </g>
   <g id="PathCollection_3">
    <path d="M 56.567675 75.538852 
L 56.473156 75.134895 
L 56.403229 74.730934 
L 56.35409 74.326976 
L 56.321143 73.923015 
L 56.300108 73.519054 
L 56.287462 73.115097 
L 56.280465 72.711136 
L 56.277086 72.307175 
L 56.276023 71.903214 
L 56.276793 71.499253 
L 56.279692 71.095295 
L 56.285492 70.691334 
L 56.294964 70.287373 
L 56.308606 69.883416 
L 56.326726 69.479455 
L 56.349762 69.075497 
L 56.378497 68.67154 
L 56.413976 68.267582 
L 56.457015 67.863618 
L 56.507381 67.45966 
L 56.563024 67.055703 
L 56.568582 67.013911 
L 56.605807 66.651739 
L 56.646571 66.247781 
L 56.687852 65.843823 
L 56.730941 65.439859 
L 56.777075 65.035902 
L 56.827298 64.631937 
L 56.882565 64.22798 
L 56.893846 64.152258 
L 56.943197 63.824022 
L 57.00871 63.420058 
L 57.079088 63.0161 
L 57.157459 62.612143 
L 57.219114 62.336582 
L 57.259258 62.208185 
L 57.402302 61.804228 
L 57.544382 61.467706 
L 57.578946 61.400263 
L 57.786013 60.996306 
L 57.869645 60.828856 
L 57.998826 60.592348 
L 58.194913 60.206361 
L 58.221285 60.188384 
L 58.520181 59.960403 
L 58.810537 59.784426 
L 58.845445 59.762002 
L 59.170713 59.615316 
L 59.495977 59.634765 
L 59.821245 59.711253 
L 59.868657 59.784426 
L 60.130727 60.188384 
L 60.146513 60.212654 
L 60.291382 60.592348 
L 60.420629 60.996306 
L 60.471776 61.162387 
L 60.54553 61.400263 
L 60.66658 61.804228 
L 60.782844 62.208185 
L 60.797044 62.257322 
L 60.964258 62.612143 
L 61.105755 63.0161 
L 61.122312 63.075598 
L 61.220902 63.420058 
L 61.31461 63.824022 
L 61.387601 64.22798 
L 61.443553 64.631937 
L 61.447576 64.666455 
L 61.483793 65.035902 
L 61.521175 65.439859 
L 61.557351 65.843823 
L 61.591699 66.247781 
L 61.623144 66.651739 
L 61.651021 67.055703 
L 61.674854 67.45966 
L 61.693644 67.863618 
L 61.705691 68.267582 
L 61.709333 68.67154 
L 61.704064 69.075497 
L 61.691071 69.479455 
L 61.672782 69.883416 
L 61.651909 70.287373 
L 61.630717 70.691334 
L 61.610743 71.095295 
L 61.592736 71.499253 
L 61.576514 71.903214 
L 61.560794 72.307175 
L 61.543291 72.711136 
L 61.5213 73.115097 
L 61.492401 73.519054 
L 61.454696 73.923015 
L 61.447576 73.983426 
L 61.408781 74.326976 
L 61.352377 74.730934 
L 61.282801 75.134895 
L 61.196661 75.538852 
L 61.122312 75.825874 
L 61.081088 75.942813 
L 60.917217 76.346774 
L 60.797044 76.6081 
L 60.728239 76.750732 
L 60.518047 77.154693 
L 60.471776 77.24062 
L 60.340499 77.558654 
L 60.151174 77.962611 
L 60.146513 77.972138 
L 59.961286 78.366572 
L 59.821245 78.631454 
L 59.739847 78.77053 
L 59.495977 79.149211 
L 59.467684 79.174491 
L 59.170713 79.423907 
L 58.845445 79.576365 
L 58.837712 79.578452 
L 58.520181 79.682207 
L 58.35061 79.578452 
L 58.194913 79.485453 
L 57.99383 79.174491 
L 57.869645 78.978218 
L 57.714005 78.77053 
L 57.544382 78.546462 
L 57.385837 78.366572 
L 57.219114 78.140444 
L 57.153464 77.962611 
L 57.031402 77.558654 
L 56.934671 77.154693 
L 56.893846 76.96704 
L 56.841164 76.750732 
L 56.74321 76.346774 
L 56.650884 75.942813 
L 56.568582 75.542233 
L 56.567675 75.538852 
z
" clip-path="url(#p6489be14fc)" style="fill: none; stroke: #08519c; stroke-opacity: 0.222222; stroke-width: 1.5"/>
   </g>
   <g id="PathCollection_4">
    <path d="M 56.880443 72.307175 
L 56.874618 71.903214 
L 56.876403 71.499253 
L 56.884299 71.095295 
L 56.893846 70.811394 
L 56.898593 70.691334 
L 56.92095 70.287373 
L 56.95008 69.883416 
L 56.986005 69.479455 
L 57.027799 69.075497 
L 57.073579 68.67154 
L 57.121203 68.267582 
L 57.169411 67.863618 
L 57.218677 67.45966 
L 57.219114 67.456288 
L 57.277021 67.055703 
L 57.340682 66.651739 
L 57.413248 66.247781 
L 57.500483 65.843823 
L 57.544382 65.67122 
L 57.618171 65.439859 
L 57.763702 65.035902 
L 57.869645 64.775469 
L 57.943663 64.631937 
L 58.141861 64.22798 
L 58.194913 64.112869 
L 58.332129 63.824022 
L 58.520181 63.443406 
L 58.537437 63.420058 
L 58.845445 63.057352 
L 59.170713 63.080693 
L 59.495977 63.350699 
L 59.579335 63.420058 
L 59.821245 63.637677 
L 60.009467 63.824022 
L 60.146513 63.964225 
L 60.25129 64.22798 
L 60.396967 64.631937 
L 60.471776 64.868821 
L 60.505739 65.035902 
L 60.582314 65.439859 
L 60.65175 65.843823 
L 60.714474 66.247781 
L 60.770153 66.651739 
L 60.797044 66.877739 
L 60.820046 67.055703 
L 60.860874 67.45966 
L 60.890151 67.863618 
L 60.90923 68.267582 
L 60.919272 68.67154 
L 60.921017 69.075497 
L 60.914756 69.479455 
L 60.900522 69.883416 
L 60.878412 70.287373 
L 60.848896 70.691334 
L 60.812941 71.095295 
L 60.797044 71.253999 
L 60.774037 71.499253 
L 60.733945 71.903214 
L 60.692467 72.307175 
L 60.649536 72.711136 
L 60.603428 73.115097 
L 60.550254 73.519054 
L 60.483711 73.923015 
L 60.471776 73.981117 
L 60.403284 74.326976 
L 60.303815 74.730934 
L 60.182398 75.134895 
L 60.146513 75.239926 
L 60.046965 75.538852 
L 59.896203 75.942813 
L 59.821245 76.126467 
L 59.72942 76.346774 
L 59.5426 76.750732 
L 59.495977 76.843184 
L 59.296083 77.154693 
L 59.170713 77.332395 
L 58.891216 77.558654 
L 58.845445 77.593651 
L 58.520181 77.649674 
L 58.415072 77.558654 
L 58.194913 77.348414 
L 58.086905 77.154693 
L 57.882693 76.750732 
L 57.869645 76.723132 
L 57.679315 76.346774 
L 57.544382 76.038813 
L 57.511936 75.942813 
L 57.390496 75.538852 
L 57.282474 75.134895 
L 57.219114 74.881574 
L 57.186178 74.730934 
L 57.10431 74.326976 
L 57.032892 73.923015 
L 56.973876 73.519054 
L 56.928408 73.115097 
L 56.896715 72.711136 
L 56.893846 72.648303 
L 56.880443 72.307175 
z
" clip-path="url(#p6489be14fc)" style="fill: none; stroke: #08519c; stroke-opacity: 0.444444; stroke-width: 1.5"/>
   </g>
   <g id="PathCollection_5">
    <path d="M 57.846838 73.923015 
L 57.766742 73.519054 
L 57.713232 73.115097 
L 57.684567 72.711136 
L 57.674627 72.307175 
L 57.674859 71.903214 
L 57.677922 71.499253 
L 57.680254 71.095295 
L 57.682482 70.691334 
L 57.688213 70.287373 
L 57.702109 69.883416 
L 57.728019 69.479455 
L 57.767831 69.075497 
L 57.821204 68.67154 
L 57.869645 68.366908 
L 57.88774 68.267582 
L 57.971858 67.863618 
L 58.069331 67.45966 
L 58.184329 67.055703 
L 58.194913 67.023038 
L 58.33343 66.651739 
L 58.513898 66.247781 
L 58.520181 66.234949 
L 58.74032 65.843823 
L 58.845445 65.658408 
L 59.170713 65.588259 
L 59.423928 65.843823 
L 59.495977 65.916478 
L 59.725443 66.247781 
L 59.821245 66.413343 
L 59.930107 66.651739 
L 60.066126 67.055703 
L 60.146513 67.430125 
L 60.150326 67.45966 
L 60.185269 67.863618 
L 60.205469 68.267582 
L 60.214476 68.67154 
L 60.215196 69.075497 
L 60.209295 69.479455 
L 60.197312 69.883416 
L 60.179178 70.287373 
L 60.154645 70.691334 
L 60.146513 70.795792 
L 60.119545 71.095295 
L 60.077037 71.499253 
L 60.029937 71.903214 
L 59.978916 72.307175 
L 59.923436 72.711136 
L 59.861358 73.115097 
L 59.821245 73.3416 
L 59.775357 73.519054 
L 59.661725 73.923015 
L 59.542893 74.326976 
L 59.495977 74.477361 
L 59.370552 74.730934 
L 59.178222 75.134895 
L 59.170713 75.150037 
L 58.845445 75.475121 
L 58.520181 75.421739 
L 58.338781 75.134895 
L 58.194913 74.898649 
L 58.125847 74.730934 
L 57.971359 74.326976 
L 57.869645 74.010798 
L 57.846838 73.923015 
z
" clip-path="url(#p6489be14fc)" style="fill: none; stroke: #08519c; stroke-opacity: 0.666667; stroke-width: 1.5"/>
   </g>
   <g id="PathCollection_6">
    <path d="M 58.508591 71.095295 
L 58.493392 70.691334 
L 58.499503 70.287373 
L 58.520181 69.982375 
L 58.531566 69.883416 
L 58.60153 69.479455 
L 58.684945 69.075497 
L 58.7866 68.67154 
L 58.845445 68.488321 
L 59.154738 68.267582 
L 59.170713 68.257235 
L 59.174686 68.267582 
L 59.270434 68.67154 
L 59.310339 69.075497 
L 59.314522 69.479455 
L 59.295174 69.883416 
L 59.258939 70.287373 
L 59.208013 70.691334 
L 59.170713 70.920188 
L 59.115016 71.095295 
L 58.974813 71.499253 
L 58.845445 71.823308 
L 58.615776 71.499253 
L 58.520181 71.222053 
L 58.508591 71.095295 
z
" clip-path="url(#p6489be14fc)" style="fill: none; stroke: #08519c; stroke-opacity: 0.888889; stroke-width: 1.5"/>
   </g>
   <g id="PathCollection_7"/>
   <g id="PathCollection_8"/>
   <g id="PathCollection_9">
    <path d="M 59.795925 70.691334 
L 59.741395 70.287373 
L 59.698875 69.883416 
L 59.672027 69.479455 
L 59.6638 69.075497 
L 59.675792 68.67154 
L 59.70785 68.267582 
L 59.757957 67.863618 
L 59.821245 67.467285 
L 59.822348 67.45966 
L 59.88843 67.055703 
L 59.959326 66.651739 
L 60.032321 66.247781 
L 60.105914 65.843823 
L 60.146513 65.622143 
L 60.17612 65.439859 
L 60.242148 65.035902 
L 60.308078 64.631937 
L 60.373598 64.22798 
L 60.438598 63.824022 
L 60.471776 63.616302 
L 60.500599 63.420058 
L 60.56108 63.0161 
L 60.626029 62.612143 
L 60.699235 62.208185 
L 60.784734 61.804228 
L 60.797044 61.753134 
L 60.879682 61.400263 
L 60.990706 60.996306 
L 61.118353 60.592348 
L 61.122312 60.580534 
L 61.253664 60.188384 
L 61.400517 59.784426 
L 61.447576 59.65807 
L 61.55267 59.380469 
L 61.711593 58.976504 
L 61.772844 58.824405 
L 61.877594 58.572547 
L 62.054795 58.168582 
L 62.098108 58.07424 
L 62.247217 57.764625 
L 62.423376 57.42679 
L 62.459987 57.360667 
L 62.696666 56.956703 
L 62.748644 56.872615 
L 62.959061 56.552745 
L 63.073908 56.384413 
L 63.244352 56.148788 
L 63.399175 55.936785 
L 63.546129 55.744823 
L 63.724443 55.508847 
L 63.855483 55.340866 
L 64.049707 55.085667 
L 64.16498 54.936902 
L 64.374975 54.660277 
L 64.472561 54.532944 
L 64.700239 54.235588 
L 64.782474 54.128986 
L 65.025507 53.821908 
L 65.103018 53.725022 
L 65.350775 53.429369 
L 65.443202 53.321065 
L 65.676039 53.06227 
L 65.810618 52.917107 
L 66.001306 52.720421 
L 66.212116 52.513149 
L 66.326574 52.40368 
L 66.651838 52.114768 
L 66.658799 52.109192 
L 66.977106 51.856711 
L 67.197691 51.705228 
L 67.30237 51.632924 
L 67.627638 51.44526 
L 67.93479 51.30127 
L 67.952906 51.292635 
L 68.27817 51.16593 
L 68.603437 51.059992 
L 68.928705 50.964934 
L 69.164881 50.897312 
L 69.253969 50.871101 
L 69.579237 50.770531 
L 69.904501 50.666187 
L 70.229769 50.560116 
L 70.434855 50.493348 
L 70.555037 50.452221 
L 70.880301 50.344741 
L 71.205568 50.248227 
L 71.530836 50.164788 
L 71.8561 50.095249 
L 71.889666 50.089391 
L 72.181368 50.035369 
L 72.506632 49.99137 
L 72.8319 49.963692 
L 73.157168 49.952892 
L 73.482432 49.960318 
L 73.807699 49.987934 
L 74.132967 50.037916 
L 74.361058 50.089391 
L 74.458231 50.110922 
L 74.783499 50.204568 
L 75.108763 50.319814 
L 75.434031 50.453737 
L 75.522423 50.493348 
L 75.759299 50.596997 
L 76.084563 50.748364 
L 76.387933 50.897312 
L 76.40983 50.907909 
L 76.735098 51.070393 
L 77.060362 51.245416 
L 77.157242 51.30127 
L 77.38563 51.435072 
L 77.710894 51.648364 
L 77.789186 51.705228 
L 78.036162 51.891113 
L 78.292389 52.109192 
L 78.36143 52.170593 
L 78.686694 52.488816 
L 78.709848 52.513149 
L 79.011961 52.845797 
L 79.073488 52.917107 
L 79.337229 53.236334 
L 79.406104 53.321065 
L 79.662493 53.644586 
L 79.727796 53.725022 
L 79.987761 54.042595 
L 80.063371 54.128986 
L 80.313025 54.401696 
L 80.445978 54.532944 
L 80.638293 54.71036 
L 80.912506 54.936902 
L 80.963561 54.976222 
L 81.288825 55.205382 
L 81.488526 55.340866 
L 81.614092 55.422312 
L 81.93936 55.639036 
L 82.086674 55.744823 
L 82.264624 55.871594 
L 82.589892 56.134113 
L 82.60637 56.148788 
L 82.915156 56.430536 
L 83.034482 56.552745 
L 83.240424 56.771802 
L 83.399879 56.956703 
L 83.565692 57.158346 
L 83.7234 57.360667 
L 83.890956 57.588825 
L 84.016483 57.764625 
L 84.216224 58.069784 
L 84.279643 58.168582 
L 84.505767 58.572547 
L 84.541491 58.651048 
L 84.68456 58.976504 
L 84.808048 59.380469 
L 84.866755 59.71456 
L 84.878479 59.784426 
L 84.902977 60.188384 
L 84.890275 60.592348 
L 84.866755 60.827883 
L 84.850646 60.996306 
L 84.794497 61.400263 
L 84.730891 61.804228 
L 84.668374 62.208185 
L 84.614381 62.612143 
L 84.574976 63.0161 
L 84.554663 63.420058 
L 84.556295 63.824022 
L 84.580983 64.22798 
L 84.627832 64.631937 
L 84.693425 65.035902 
L 84.771249 65.439859 
L 84.851555 65.843823 
L 84.866755 65.932668 
L 84.930862 66.247781 
L 84.986618 66.651739 
L 85.003241 67.055703 
L 84.972664 67.45966 
L 84.893215 67.863618 
L 84.866755 67.950459 
L 84.780982 68.267582 
L 84.639735 68.67154 
L 84.541491 68.916112 
L 84.483603 69.075497 
L 84.327812 69.479455 
L 84.216224 69.766575 
L 84.174694 69.883416 
L 84.033361 70.287373 
L 83.894609 70.691334 
L 83.890956 70.701688 
L 83.761599 71.095295 
L 83.620315 71.499253 
L 83.565692 71.639687 
L 83.46664 71.903214 
L 83.292151 72.307175 
L 83.240424 72.4113 
L 83.090076 72.711136 
L 82.915156 73.011632 
L 82.85257 73.115097 
L 82.589892 73.495688 
L 82.572751 73.519054 
L 82.264624 73.898085 
L 82.242833 73.923015 
L 81.93936 74.247133 
L 81.859208 74.326976 
L 81.614092 74.562442 
L 81.4291 74.730934 
L 81.288825 74.857242 
L 80.970803 75.134895 
L 80.963561 75.141218 
L 80.638293 75.419978 
L 80.498377 75.538852 
L 80.313025 75.69508 
L 80.014905 75.942813 
L 79.987761 75.964671 
L 79.662493 76.217166 
L 79.487902 76.346774 
L 79.337229 76.451813 
L 79.011961 76.663468 
L 78.867719 76.750732 
L 78.686694 76.853115 
L 78.36143 77.023789 
L 78.095787 77.154693 
L 78.036162 77.182858 
L 77.710894 77.33017 
L 77.38563 77.473707 
L 77.188993 77.558654 
L 77.060362 77.613905 
L 76.735098 77.750299 
L 76.40983 77.880644 
L 76.189811 77.962611 
L 76.084563 78.002632 
L 75.759299 78.115844 
L 75.434031 78.217022 
L 75.108763 78.307709 
L 74.882279 78.366572 
L 74.783499 78.393455 
L 74.458231 78.481478 
L 74.132967 78.5707 
L 73.807699 78.66298 
L 73.482432 78.758267 
L 73.44247 78.77053 
L 73.157168 78.862617 
L 72.8319 78.965615 
L 72.506632 79.063248 
L 72.181368 79.153537 
L 72.100322 79.174491 
L 71.8561 79.240895 
L 71.530836 79.320781 
L 71.205568 79.392461 
L 70.880301 79.457235 
L 70.555037 79.516055 
L 70.229769 79.569237 
L 70.167124 79.578452 
L 69.904501 79.619675 
L 69.579237 79.663493 
L 69.253969 79.698827 
L 68.928705 79.724716 
L 68.603437 79.740606 
L 68.27817 79.746483 
L 67.952906 79.742838 
L 67.627638 79.73049 
L 67.30237 79.710344 
L 66.977106 79.683181 
L 66.651838 79.649552 
L 66.326574 79.609829 
L 66.099853 79.578452 
L 66.001306 79.565395 
L 65.676039 79.518227 
L 65.350775 79.466532 
L 65.025507 79.410813 
L 64.700239 79.350899 
L 64.374975 79.285389 
L 64.049707 79.211337 
L 63.911263 79.174491 
L 63.724443 79.126047 
L 63.399175 79.022604 
L 63.073908 78.891899 
L 62.834195 78.77053 
L 62.748644 78.72419 
L 62.423376 78.504038 
L 62.259667 78.366572 
L 62.098108 78.208485 
L 61.887803 77.962611 
L 61.772844 77.797772 
L 61.624201 77.558654 
L 61.447576 77.200966 
L 61.425933 77.154693 
L 61.266299 76.750732 
L 61.132001 76.346774 
L 61.122312 76.315387 
L 61.004971 75.942813 
L 60.8836 75.538852 
L 60.797044 75.246766 
L 60.762647 75.134895 
L 60.63866 74.730934 
L 60.521508 74.326976 
L 60.471776 74.14519 
L 60.409202 73.923015 
L 60.305654 73.519054 
L 60.214922 73.115097 
L 60.146513 72.771138 
L 60.134064 72.711136 
L 60.056383 72.307175 
L 59.985172 71.903214 
L 59.918441 71.499253 
L 59.855685 71.095295 
L 59.821245 70.85477 
L 59.795925 70.691334 
z
" clip-path="url(#p6489be14fc)" style="fill: none; stroke: #d94801; stroke-opacity: 0.111111; stroke-width: 1.5"/>
   </g>
   <g id="PathCollection_10">
    <path d="M 62.070811 69.479455 
L 62.052858 69.075497 
L 62.052058 68.67154 
L 62.067123 68.267582 
L 62.095049 67.863618 
L 62.098108 67.830232 
L 62.130579 67.45966 
L 62.170062 67.055703 
L 62.209861 66.651739 
L 62.247471 66.247781 
L 62.282067 65.843823 
L 62.314618 65.439859 
L 62.347639 65.035902 
L 62.384671 64.631937 
L 62.423376 64.28461 
L 62.429637 64.22798 
L 62.486192 63.824022 
L 62.558406 63.420058 
L 62.649719 63.0161 
L 62.748644 62.663396 
L 62.763566 62.612143 
L 62.903157 62.208185 
L 63.070032 61.804228 
L 63.073908 61.795799 
L 63.267288 61.400263 
L 63.399175 61.158354 
L 63.493774 60.996306 
L 63.724443 60.6287 
L 63.7489 60.592348 
L 64.032211 60.188384 
L 64.049707 60.164075 
L 64.342671 59.784426 
L 64.374975 59.743327 
L 64.67995 59.380469 
L 64.700239 59.356578 
L 65.025507 58.996012 
L 65.04413 58.976504 
L 65.350775 58.654951 
L 65.434097 58.572547 
L 65.676039 58.330468 
L 65.847021 58.168582 
L 66.001306 58.019221 
L 66.277953 57.764625 
L 66.326574 57.718553 
L 66.651838 57.422592 
L 66.722897 57.360667 
L 66.977106 57.132946 
L 67.184735 56.956703 
L 67.30237 56.855326 
L 67.627638 56.59221 
L 67.679407 56.552745 
L 67.952906 56.345376 
L 68.23894 56.148788 
L 68.27817 56.122021 
L 68.603437 55.916429 
L 68.90723 55.744823 
L 68.928705 55.732551 
L 69.253969 55.56036 
L 69.579237 55.404969 
L 69.727311 55.340866 
L 69.904501 55.259132 
L 70.229769 55.123681 
L 70.555037 55.002912 
L 70.761488 54.936902 
L 70.880301 54.894734 
L 71.205568 54.799792 
L 71.530836 54.724342 
L 71.8561 54.668502 
L 72.181368 54.631384 
L 72.506632 54.611487 
L 72.8319 54.607426 
L 73.157168 54.618604 
L 73.482432 54.645502 
L 73.807699 54.68949 
L 74.132967 54.752384 
L 74.458231 54.836092 
L 74.766173 54.936902 
L 74.783499 54.942348 
L 75.108763 55.069555 
L 75.434031 55.224455 
L 75.638558 55.340866 
L 75.759299 55.408415 
L 76.084563 55.624148 
L 76.241055 55.744823 
L 76.40983 55.876149 
L 76.715957 56.148788 
L 76.735098 56.16613 
L 77.060362 56.48853 
L 77.121219 56.552745 
L 77.38563 56.831293 
L 77.502508 56.956703 
L 77.710894 57.173228 
L 77.896464 57.360667 
L 78.036162 57.493429 
L 78.341744 57.764625 
L 78.36143 57.780913 
L 78.686694 58.029919 
L 78.883744 58.168582 
L 79.011961 58.255352 
L 79.337229 58.466507 
L 79.50154 58.572547 
L 79.662493 58.681792 
L 79.987761 58.918246 
L 80.06104 58.976504 
L 80.313025 59.216773 
L 80.463046 59.380469 
L 80.638293 59.640836 
L 80.724226 59.784426 
L 80.880938 60.188384 
L 80.963561 60.589139 
L 80.964189 60.592348 
L 80.997084 60.996306 
L 80.999505 61.400263 
L 80.988045 61.804228 
L 80.975935 62.208185 
L 80.972095 62.612143 
L 80.980783 63.0161 
L 81.002142 63.420058 
L 81.033442 63.824022 
L 81.070483 64.22798 
L 81.108689 64.631937 
L 81.143642 65.035902 
L 81.171156 65.439859 
L 81.187108 65.843823 
L 81.187311 66.247781 
L 81.167629 66.651739 
L 81.124406 67.055703 
L 81.055032 67.45966 
L 80.963561 67.842278 
L 80.958596 67.863618 
L 80.841024 68.267582 
L 80.700304 68.67154 
L 80.638293 68.828824 
L 80.542356 69.075497 
L 80.366525 69.479455 
L 80.313025 69.592498 
L 80.173911 69.883416 
L 79.987761 70.230558 
L 79.95663 70.287373 
L 79.712422 70.691334 
L 79.662493 70.765494 
L 79.433291 71.095295 
L 79.337229 71.219145 
L 79.114748 71.499253 
L 79.011961 71.617242 
L 78.760311 71.903214 
L 78.686694 71.981084 
L 78.379394 72.307175 
L 78.36143 72.325271 
L 78.036162 72.65954 
L 77.986517 72.711136 
L 77.710894 72.987313 
L 77.583254 73.115097 
L 77.38563 73.30698 
L 77.163328 73.519054 
L 77.060362 73.614615 
L 76.735098 73.906059 
L 76.715569 73.923015 
L 76.40983 74.181445 
L 76.224254 74.326976 
L 76.084563 74.434234 
L 75.759299 74.664691 
L 75.657779 74.730934 
L 75.434031 74.875156 
L 75.108763 75.063848 
L 74.97493 75.134895 
L 74.783499 75.23643 
L 74.458231 75.394874 
L 74.137691 75.538852 
L 74.132967 75.540999 
L 73.807699 75.68496 
L 73.482432 75.823247 
L 73.194359 75.942813 
L 73.157168 75.958621 
L 72.8319 76.096388 
L 72.506632 76.229913 
L 72.210608 76.346774 
L 72.181368 76.358579 
L 71.8561 76.484663 
L 71.530836 76.601654 
L 71.205568 76.709259 
L 71.069208 76.750732 
L 70.880301 76.808814 
L 70.555037 76.898925 
L 70.229769 76.978777 
L 69.904501 77.048205 
L 69.579237 77.106282 
L 69.253969 77.151219 
L 69.214825 77.154693 
L 68.928705 77.179981 
L 68.603437 77.18989 
L 68.27817 77.178232 
L 68.06202 77.154693 
L 67.952906 77.142059 
L 67.627638 77.077939 
L 67.30237 76.986311 
L 66.977106 76.869266 
L 66.695481 76.750732 
L 66.651838 76.73064 
L 66.326574 76.57246 
L 66.001306 76.409585 
L 65.872995 76.346774 
L 65.676039 76.243658 
L 65.350775 76.076209 
L 65.099178 75.942813 
L 65.025507 75.900941 
L 64.700239 75.699635 
L 64.482031 75.538852 
L 64.374975 75.453141 
L 64.050714 75.134895 
L 64.049707 75.133833 
L 63.730343 74.730934 
L 63.724443 74.72306 
L 63.466687 74.326976 
L 63.399175 74.217816 
L 63.235371 73.923015 
L 63.073908 73.612443 
L 63.029221 73.519054 
L 62.850701 73.115097 
L 62.748644 72.852624 
L 62.696877 72.711136 
L 62.5678 72.307175 
L 62.458379 71.903214 
L 62.423376 71.754043 
L 62.365333 71.499253 
L 62.284479 71.095295 
L 62.213789 70.691334 
L 62.153435 70.287373 
L 62.105178 69.883416 
L 62.098108 69.800392 
L 62.070811 69.479455 
z
" clip-path="url(#p6489be14fc)" style="fill: none; stroke: #d94801; stroke-opacity: 0.333333; stroke-width: 1.5"/>
   </g>
   <g id="PathCollection_11">
    <path d="M 64.018111 69.479455 
L 63.95098 69.075497 
L 63.906888 68.67154 
L 63.885012 68.267582 
L 63.883203 67.863618 
L 63.898251 67.45966 
L 63.926436 67.055703 
L 63.964169 66.651739 
L 64.008549 66.247781 
L 64.049707 65.908682 
L 64.05793 65.843823 
L 64.113003 65.439859 
L 64.17428 65.035902 
L 64.244432 64.631937 
L 64.327451 64.22798 
L 64.374975 64.034755 
L 64.43091 63.824022 
L 64.560883 63.420058 
L 64.700239 63.063699 
L 64.719879 63.0161 
L 64.915771 62.612143 
L 65.025507 62.417027 
L 65.145864 62.208185 
L 65.350775 61.894341 
L 65.410438 61.804228 
L 65.676039 61.444858 
L 65.709671 61.400263 
L 66.001306 61.04984 
L 66.047705 60.996306 
L 66.326574 60.700413 
L 66.435405 60.592348 
L 66.651838 60.390361 
L 66.887775 60.188384 
L 66.977106 60.11441 
L 67.30237 59.867688 
L 67.422317 59.784426 
L 67.627638 59.640888 
L 67.952906 59.429119 
L 68.032438 59.380469 
L 68.27817 59.224212 
L 68.603437 59.026605 
L 68.69068 58.976504 
L 68.928705 58.834015 
L 69.253969 58.653444 
L 69.416488 58.572547 
L 69.579237 58.490026 
L 69.904501 58.35 
L 70.229769 58.237663 
L 70.495728 58.168582 
L 70.555037 58.153242 
L 70.880301 58.093643 
L 71.205568 58.055627 
L 71.530836 58.0346 
L 71.8561 58.026324 
L 72.181368 58.027659 
L 72.506632 58.036965 
L 72.8319 58.054215 
L 73.157168 58.080952 
L 73.482432 58.120209 
L 73.762903 58.168582 
L 73.807699 58.17604 
L 74.132967 58.250977 
L 74.458231 58.354197 
L 74.783499 58.493017 
L 74.930205 58.572547 
L 75.108763 58.670266 
L 75.434031 58.889474 
L 75.544323 58.976504 
L 75.759299 59.150149 
L 76.011784 59.380469 
L 76.084563 59.449985 
L 76.40983 59.783851 
L 76.410376 59.784426 
L 76.735098 60.156647 
L 76.76271 60.188384 
L 77.060362 60.581445 
L 77.068778 60.592348 
L 77.325717 60.996306 
L 77.38563 61.119287 
L 77.526049 61.400263 
L 77.670786 61.804228 
L 77.710894 61.963229 
L 77.773924 62.208185 
L 77.846564 62.612143 
L 77.899626 63.0161 
L 77.942204 63.420058 
L 77.979574 63.824022 
L 78.013624 64.22798 
L 78.036162 64.530727 
L 78.043724 64.631937 
L 78.068173 65.035902 
L 78.085821 65.439859 
L 78.096001 65.843823 
L 78.0984 66.247781 
L 78.092151 66.651739 
L 78.074839 67.055703 
L 78.042122 67.45966 
L 78.036162 67.503706 
L 77.987754 67.863618 
L 77.905929 68.267582 
L 77.792686 68.67154 
L 77.710894 68.894117 
L 77.645779 69.075497 
L 77.464861 69.479455 
L 77.38563 69.627511 
L 77.251797 69.883416 
L 77.060362 70.200115 
L 77.008421 70.287373 
L 76.736184 70.691334 
L 76.735098 70.692795 
L 76.433667 71.095295 
L 76.40983 71.124618 
L 76.097463 71.499253 
L 76.084563 71.51367 
L 75.759299 71.861854 
L 75.718497 71.903214 
L 75.434031 72.173359 
L 75.283701 72.307175 
L 75.108763 72.453767 
L 74.783499 72.70805 
L 74.7793 72.711136 
L 74.458231 72.933388 
L 74.178761 73.115097 
L 74.132967 73.143215 
L 73.807699 73.332925 
L 73.482432 73.513 
L 73.470951 73.519054 
L 73.157168 73.676719 
L 72.8319 73.831263 
L 72.625025 73.923015 
L 72.506632 73.973952 
L 72.181368 74.102219 
L 71.8561 74.217787 
L 71.530836 74.318945 
L 71.499539 74.326976 
L 71.205568 74.402478 
L 70.880301 74.470389 
L 70.555037 74.522773 
L 70.229769 74.559562 
L 69.904501 74.580261 
L 69.579237 74.583462 
L 69.253969 74.566604 
L 68.928705 74.526253 
L 68.603437 74.458928 
L 68.27817 74.36229 
L 68.186324 74.326976 
L 67.952906 74.240692 
L 67.627638 74.095507 
L 67.30237 73.928423 
L 67.292809 73.923015 
L 66.977106 73.751084 
L 66.651838 73.555426 
L 66.595823 73.519054 
L 66.326574 73.342702 
L 66.018165 73.115097 
L 66.001306 73.102023 
L 65.676039 72.820922 
L 65.56423 72.711136 
L 65.350775 72.479885 
L 65.209694 72.307175 
L 65.025507 72.052306 
L 64.928691 71.903214 
L 64.700444 71.499253 
L 64.700239 71.498846 
L 64.512817 71.095295 
L 64.374975 70.748613 
L 64.353698 70.691334 
L 64.219857 70.287373 
L 64.107964 69.883416 
L 64.049707 69.624949 
L 64.018111 69.479455 
z
" clip-path="url(#p6489be14fc)" style="fill: none; stroke: #d94801; stroke-opacity: 0.555556; stroke-width: 1.5"/>
   </g>
   <g id="PathCollection_12">
    <path d="M 65.904827 69.075497 
L 65.802695 68.67154 
L 65.741028 68.267582 
L 65.718855 67.863618 
L 65.733455 67.45966 
L 65.781016 67.055703 
L 65.857525 66.651739 
L 65.959337 66.247781 
L 66.001306 66.109302 
L 66.087372 65.843823 
L 66.235416 65.439859 
L 66.326574 65.210142 
L 66.399337 65.035902 
L 66.575439 64.631937 
L 66.651838 64.460785 
L 66.76154 64.22798 
L 66.958068 63.824022 
L 66.977106 63.786192 
L 67.178724 63.420058 
L 67.30237 63.213528 
L 67.437447 63.0161 
L 67.627638 62.767676 
L 67.769519 62.612143 
L 67.952906 62.433958 
L 68.235072 62.208185 
L 68.27817 62.177254 
L 68.603437 61.976893 
L 68.921646 61.804228 
L 68.928705 61.800653 
L 69.253969 61.64165 
L 69.579237 61.481734 
L 69.740072 61.400263 
L 69.904501 61.320601 
L 70.229769 61.159223 
L 70.555037 61.000091 
L 70.563082 60.996306 
L 70.880301 60.856014 
L 71.205568 60.727771 
L 71.530836 60.619514 
L 71.634076 60.592348 
L 71.8561 60.537913 
L 72.181368 60.483221 
L 72.506632 60.455788 
L 72.8319 60.45779 
L 73.157168 60.491999 
L 73.482432 60.561805 
L 73.574725 60.592348 
L 73.807699 60.681567 
L 74.132967 60.856677 
L 74.330907 60.996306 
L 74.458231 61.109052 
L 74.721136 61.400263 
L 74.783499 61.496918 
L 74.950589 61.804228 
L 75.083915 62.208185 
L 75.108763 62.366928 
L 75.143608 62.612143 
L 75.155194 63.0161 
L 75.138813 63.420058 
L 75.111397 63.824022 
L 75.108763 63.866871 
L 75.086672 64.22798 
L 75.073516 64.631937 
L 75.074198 65.035902 
L 75.085877 65.439859 
L 75.102384 65.843823 
L 75.108763 66.026911 
L 75.11664 66.247781 
L 75.121695 66.651739 
L 75.112065 67.055703 
L 75.108763 67.103053 
L 75.084167 67.45966 
L 75.033756 67.863618 
L 74.955559 68.267582 
L 74.842801 68.67154 
L 74.783499 68.830057 
L 74.688269 69.075497 
L 74.482323 69.479455 
L 74.458231 69.51784 
L 74.218827 69.883416 
L 74.132967 69.992723 
L 73.892394 70.287373 
L 73.807699 70.377399 
L 73.499707 70.691334 
L 73.482432 70.707093 
L 73.157168 70.992787 
L 73.031403 71.095295 
L 72.8319 71.24467 
L 72.506632 71.462855 
L 72.445383 71.499253 
L 72.181368 71.647389 
L 71.8561 71.799357 
L 71.577773 71.903214 
L 71.530836 71.920314 
L 71.205568 72.014153 
L 70.880301 72.081745 
L 70.555037 72.125646 
L 70.229769 72.147734 
L 69.904501 72.14879 
L 69.579237 72.12846 
L 69.253969 72.085485 
L 68.928705 72.018103 
L 68.603437 71.924436 
L 68.545148 71.903214 
L 68.27817 71.799841 
L 67.952906 71.642609 
L 67.7073 71.499253 
L 67.627638 71.447712 
L 67.30237 71.203149 
L 67.17781 71.095295 
L 66.977106 70.898556 
L 66.789482 70.691334 
L 66.651838 70.517496 
L 66.486622 70.287373 
L 66.326574 70.029548 
L 66.24356 69.883416 
L 66.050297 69.479455 
L 66.001306 69.351368 
L 65.904827 69.075497 
z
" clip-path="url(#p6489be14fc)" style="fill: none; stroke: #d94801; stroke-opacity: 0.666667; stroke-width: 1.5"/>
   </g>
   <g id="PathCollection_13">
    <path d="M 68.866744 68.67154 
L 68.728783 68.267582 
L 68.646833 67.863618 
L 68.611099 67.45966 
L 68.61825 67.055703 
L 68.669912 66.651739 
L 68.770276 66.247781 
L 68.924227 65.843823 
L 68.928705 65.835424 
L 69.168344 65.439859 
L 69.253969 65.330729 
L 69.528091 65.035902 
L 69.579237 64.990528 
L 69.904501 64.755484 
L 70.122204 64.631937 
L 70.229769 64.577039 
L 70.555037 64.458776 
L 70.880301 64.390856 
L 71.205568 64.390279 
L 71.530836 64.486585 
L 71.739099 64.631937 
L 71.8561 64.738872 
L 72.058849 65.035902 
L 72.181368 65.270251 
L 72.248244 65.439859 
L 72.375541 65.843823 
L 72.468294 66.247781 
L 72.506632 66.524296 
L 72.521505 66.651739 
L 72.532636 67.055703 
L 72.506632 67.39946 
L 72.501612 67.45966 
L 72.417242 67.863618 
L 72.282176 68.267582 
L 72.181368 68.482599 
L 72.081069 68.67154 
L 71.8561 68.997014 
L 71.791382 69.075497 
L 71.530836 69.327138 
L 71.328271 69.479455 
L 71.205568 69.555243 
L 70.880301 69.691335 
L 70.555037 69.760863 
L 70.229769 69.760264 
L 69.904501 69.686251 
L 69.579237 69.536702 
L 69.493717 69.479455 
L 69.253969 69.25955 
L 69.09661 69.075497 
L 68.928705 68.791857 
L 68.866744 68.67154 
z
" clip-path="url(#p6489be14fc)" style="fill: none; stroke: #d94801; stroke-opacity: 0.888889; stroke-width: 1.5"/>
   </g>
   <g id="PathCollection_14"/>
   <g id="patch_3">
    <path d="M 39.98 104.22 
L 39.98 23.832 
" style="fill: none; stroke: #000000; stroke-width: 1.5; stroke-linejoin: miter; stroke-linecap: square"/>
   </g>
   <g id="patch_4">
    <path d="M 39.98 104.22 
L 104.708 104.22 
" style="fill: none; stroke: #000000; stroke-width: 1.5; stroke-linejoin: miter; stroke-linecap: square"/>
   </g>
  </g>
  <g id="axes_2">
   <g id="patch_5">
    <path d="M 39.98 21.06 
L 104.708 21.06 
L 104.708 7.2 
L 39.98 7.2 
L 39.98 21.06 
z
" style="fill: none"/>
   </g>
   <g id="PolyCollection_1">
    <defs>
     <path id="m4cbf1705f7" d="M 39.98 -118.860781 
L 39.98 -118.860781 
L 40.305266 -118.860781 
L 40.630532 -118.860781 
L 40.9558 -118.860781 
L 41.281066 -118.860781 
L 41.606331 -118.860781 
L 41.931597 -118.860781 
L 42.256863 -118.860781 
L 42.582131 -118.860781 
L 42.907397 -118.860781 
L 43.232663 -118.860781 
L 43.557931 -118.860781 
L 43.883197 -118.860781 
L 44.208462 -118.860781 
L 44.533728 -118.860781 
L 44.858994 -118.860781 
L 45.184262 -118.860781 
L 45.509528 -118.860781 
L 45.834794 -118.860781 
L 46.160062 -118.860781 
L 46.485328 -118.860781 
L 46.810593 -118.860781 
L 47.135859 -118.860781 
L 47.461125 -118.860781 
L 47.786391 -118.860781 
L 48.111657 -118.860781 
L 48.436923 -118.860781 
L 48.762191 -118.860781 
L 49.087457 -118.860781 
L 49.412723 -118.860781 
L 49.737988 -118.860781 
L 50.063256 -118.860781 
L 50.388522 -118.860781 
L 50.713788 -118.860781 
L 51.039054 -118.860781 
L 51.364322 -118.860781 
L 51.689588 -118.860781 
L 52.014854 -118.860781 
L 52.340119 -118.860781 
L 52.665387 -118.860781 
L 52.990651 -118.860781 
L 53.315919 -118.860781 
L 53.641183 -118.860781 
L 53.966451 -118.860781 
L 54.291715 -118.860781 
L 54.616983 -118.860781 
L 54.94225 -118.860781 
L 55.267514 -118.860781 
L 55.592782 -118.860781 
L 55.91805 -118.860781 
L 56.243314 -118.860781 
L 56.568582 -118.860781 
L 56.893846 -118.860781 
L 57.219114 -118.860781 
L 57.544382 -118.860781 
L 57.869645 -118.860781 
L 58.194913 -118.860781 
L 58.520181 -118.860781 
L 58.845445 -118.860781 
L 59.170713 -118.860781 
L 59.495977 -118.860781 
L 59.821245 -118.860781 
L 60.146513 -118.860781 
L 60.471776 -118.860781 
L 60.797044 -118.860781 
L 61.122312 -118.860781 
L 61.447576 -118.860781 
L 61.772844 -118.860781 
L 62.098108 -118.860781 
L 62.423376 -118.860781 
L 62.748644 -118.860781 
L 63.073908 -118.860781 
L 63.399175 -118.860781 
L 63.724443 -118.860781 
L 64.049707 -118.860781 
L 64.374975 -118.860781 
L 64.700239 -118.860781 
L 65.025507 -118.860781 
L 65.350775 -118.860781 
L 65.676039 -118.860781 
L 66.001306 -118.860781 
L 66.326574 -118.860781 
L 66.651838 -118.860781 
L 66.977106 -118.860781 
L 67.30237 -118.860781 
L 67.627638 -118.860781 
L 67.952906 -118.860781 
L 68.27817 -118.860781 
L 68.603437 -118.860781 
L 68.928705 -118.860781 
L 69.253969 -118.860781 
L 69.579237 -118.860781 
L 69.904501 -118.860781 
L 70.229769 -118.860781 
L 70.555037 -118.860781 
L 70.880301 -118.860781 
L 71.205568 -118.860781 
L 71.530836 -118.860781 
L 71.8561 -118.860781 
L 72.181368 -118.860781 
L 72.506632 -118.860781 
L 72.8319 -118.860781 
L 73.157168 -118.860781 
L 73.482432 -118.860781 
L 73.807699 -118.860781 
L 74.132967 -118.860781 
L 74.458231 -118.860781 
L 74.783499 -118.860781 
L 75.108763 -118.860781 
L 75.434031 -118.860781 
L 75.759299 -118.860781 
L 76.084563 -118.860781 
L 76.40983 -118.860781 
L 76.735098 -118.860781 
L 77.060362 -118.860781 
L 77.38563 -118.860781 
L 77.710894 -118.860781 
L 78.036162 -118.860781 
L 78.36143 -118.860781 
L 78.686694 -118.860781 
L 79.011961 -118.860781 
L 79.337229 -118.860781 
L 79.662493 -118.860781 
L 79.987761 -118.860781 
L 80.313025 -118.860781 
L 80.638293 -118.860781 
L 80.963561 -118.860781 
L 81.288825 -118.860781 
L 81.614092 -118.860781 
L 81.93936 -118.860781 
L 82.264624 -118.860781 
L 82.589892 -118.860781 
L 82.915156 -118.860781 
L 83.240424 -118.860781 
L 83.565692 -118.860781 
L 83.890956 -118.860781 
L 84.216224 -118.860781 
L 84.541491 -118.860781 
L 84.866755 -118.860781 
L 85.192023 -118.860781 
L 85.517291 -118.860781 
L 85.842559 -118.860781 
L 86.167819 -118.860781 
L 86.493087 -118.860781 
L 86.818355 -118.860781 
L 87.143622 -118.860781 
L 87.46889 -118.860781 
L 87.79415 -118.860781 
L 88.119418 -118.860781 
L 88.444686 -118.860781 
L 88.769954 -118.860781 
L 89.095222 -118.860781 
L 89.420482 -118.860781 
L 89.74575 -118.860781 
L 90.071017 -118.860781 
L 90.396277 -118.860781 
L 90.721545 -118.860781 
L 91.046813 -118.860781 
L 91.372081 -118.860781 
L 91.697349 -118.860781 
L 92.022617 -118.860781 
L 92.347884 -118.860781 
L 92.673152 -118.860781 
L 92.998412 -118.860781 
L 93.32368 -118.860781 
L 93.648948 -118.860781 
L 93.974216 -118.860781 
L 94.299484 -118.860781 
L 94.624744 -118.860781 
L 94.950012 -118.860781 
L 95.275279 -118.860781 
L 95.600539 -118.860781 
L 95.925807 -118.860781 
L 96.251075 -118.860781 
L 96.576343 -118.860781 
L 96.901611 -118.860781 
L 97.226871 -118.860781 
L 97.552139 -118.860781 
L 97.877407 -118.860781 
L 98.202667 -118.860781 
L 98.527934 -118.860781 
L 98.853202 -118.860781 
L 99.17847 -118.860781 
L 99.503738 -118.860781 
L 99.829006 -118.860781 
L 100.154274 -118.860781 
L 100.479541 -118.860781 
L 100.804802 -118.860781 
L 101.130069 -118.860781 
L 101.455337 -118.860781 
L 101.780605 -118.860781 
L 102.105873 -118.860781 
L 102.431133 -118.860781 
L 102.756401 -118.860781 
L 103.081669 -118.860781 
L 103.406936 -118.860781 
L 103.732204 -118.860781 
L 104.057464 -118.860781 
L 104.382732 -118.860781 
L 104.708 -118.860781 
L 104.708 -118.860781 
L 104.708 -118.860781 
L 104.382732 -118.860781 
L 104.057464 -118.860781 
L 103.732204 -118.860781 
L 103.406936 -118.860781 
L 103.081669 -118.860781 
L 102.756401 -118.860781 
L 102.431133 -118.860781 
L 102.105873 -118.860781 
L 101.780605 -118.860781 
L 101.455337 -118.860781 
L 101.130069 -118.860781 
L 100.804802 -118.860781 
L 100.479541 -118.860781 
L 100.154274 -118.860781 
L 99.829006 -118.860781 
L 99.503738 -118.860781 
L 99.17847 -118.860781 
L 98.853202 -118.860781 
L 98.527934 -118.860781 
L 98.202667 -118.860781 
L 97.877407 -118.860781 
L 97.552139 -118.860781 
L 97.226871 -118.860781 
L 96.901611 -118.860781 
L 96.576343 -118.860781 
L 96.251075 -118.860781 
L 95.925807 -118.860781 
L 95.600539 -118.860781 
L 95.275279 -118.860781 
L 94.950012 -118.860781 
L 94.624744 -118.860781 
L 94.299484 -118.860781 
L 93.974216 -118.860781 
L 93.648948 -118.860781 
L 93.32368 -118.860781 
L 92.998412 -118.860781 
L 92.673152 -118.860781 
L 92.347884 -118.860781 
L 92.022617 -118.860781 
L 91.697349 -118.860781 
L 91.372081 -118.860781 
L 91.046813 -118.860781 
L 90.721545 -118.860781 
L 90.396277 -118.860781 
L 90.071017 -118.860781 
L 89.74575 -118.860781 
L 89.420482 -118.860781 
L 89.095222 -118.860781 
L 88.769954 -118.860781 
L 88.444686 -118.860781 
L 88.119418 -118.860781 
L 87.79415 -118.860781 
L 87.46889 -118.860781 
L 87.143622 -118.860781 
L 86.818355 -118.860781 
L 86.493087 -118.860781 
L 86.167819 -118.860781 
L 85.842559 -118.860781 
L 85.517291 -118.860781 
L 85.192023 -118.860781 
L 84.866755 -118.860781 
L 84.541491 -118.860781 
L 84.216224 -118.860781 
L 83.890956 -118.860781 
L 83.565692 -118.860781 
L 83.240424 -118.860781 
L 82.915156 -118.860781 
L 82.589892 -118.860781 
L 82.264624 -118.860781 
L 81.93936 -118.860781 
L 81.614092 -118.860781 
L 81.288825 -118.860781 
L 80.963561 -118.860781 
L 80.638293 -118.860781 
L 80.313025 -118.860781 
L 79.987761 -118.860781 
L 79.662493 -118.860781 
L 79.337229 -118.860781 
L 79.011961 -118.860781 
L 78.686694 -118.860781 
L 78.36143 -118.860781 
L 78.036162 -118.860781 
L 77.710894 -118.860781 
L 77.38563 -118.860781 
L 77.060362 -118.860781 
L 76.735098 -118.860781 
L 76.40983 -118.860781 
L 76.084563 -118.860781 
L 75.759299 -118.860781 
L 75.434031 -118.860781 
L 75.108763 -118.860781 
L 74.783499 -118.860781 
L 74.458231 -118.860781 
L 74.132967 -118.860781 
L 73.807699 -118.860781 
L 73.482432 -118.860781 
L 73.157168 -118.860781 
L 72.8319 -118.860781 
L 72.506632 -118.860781 
L 72.181368 -118.860781 
L 71.8561 -118.860781 
L 71.530836 -118.860781 
L 71.205568 -118.860781 
L 70.880301 -118.860781 
L 70.555037 -118.860781 
L 70.229769 -118.860781 
L 69.904501 -118.860781 
L 69.579237 -118.860781 
L 69.253969 -118.860781 
L 68.928705 -118.860781 
L 68.603437 -118.860781 
L 68.27817 -118.860781 
L 67.952906 -118.860781 
L 67.627638 -118.860781 
L 67.30237 -118.860781 
L 66.977106 -118.860781 
L 66.651838 -118.860781 
L 66.326574 -118.860781 
L 66.001306 -118.860781 
L 65.676039 -118.860782 
L 65.350775 -118.861029 
L 65.025507 -118.871472 
L 64.700239 -118.964319 
L 64.374975 -119.150565 
L 64.049707 -119.410429 
L 63.724443 -119.867087 
L 63.399175 -120.343439 
L 63.073908 -120.941674 
L 62.748644 -122.261627 
L 62.423376 -124.115997 
L 62.098108 -126.330778 
L 61.772844 -129.979526 
L 61.447576 -135.465584 
L 61.122312 -140.505775 
L 60.797044 -145.348278 
L 60.471776 -151.818795 
L 60.146513 -158.605892 
L 59.821245 -163.354793 
L 59.495977 -167.110366 
L 59.170713 -170.664041 
L 58.845445 -171.838701 
L 58.520181 -169.635319 
L 58.194913 -165.779363 
L 57.869645 -159.628963 
L 57.544382 -154.561588 
L 57.219114 -149.153087 
L 56.893846 -141.696307 
L 56.568582 -135.225259 
L 56.243314 -130.024729 
L 55.91805 -126.05644 
L 55.592782 -123.545354 
L 55.267514 -121.832767 
L 54.94225 -120.52145 
L 54.616983 -119.729235 
L 54.291715 -119.376204 
L 53.966451 -119.074916 
L 53.641183 -118.926156 
L 53.315919 -118.889055 
L 52.990651 -118.865282 
L 52.665387 -118.860917 
L 52.340119 -118.860782 
L 52.014854 -118.860781 
L 51.689588 -118.860781 
L 51.364322 -118.860781 
L 51.039054 -118.860781 
L 50.713788 -118.860781 
L 50.388522 -118.860781 
L 50.063256 -118.860781 
L 49.737988 -118.860781 
L 49.412723 -118.860781 
L 49.087457 -118.860781 
L 48.762191 -118.860781 
L 48.436923 -118.860781 
L 48.111657 -118.860781 
L 47.786391 -118.860781 
L 47.461125 -118.860781 
L 47.135859 -118.860781 
L 46.810593 -118.860781 
L 46.485328 -118.860781 
L 46.160062 -118.860781 
L 45.834794 -118.860781 
L 45.509528 -118.860781 
L 45.184262 -118.860781 
L 44.858994 -118.860781 
L 44.533728 -118.860781 
L 44.208462 -118.860781 
L 43.883197 -118.860781 
L 43.557931 -118.860781 
L 43.232663 -118.860781 
L 42.907397 -118.860781 
L 42.582131 -118.860781 
L 42.256863 -118.860781 
L 41.931597 -118.860781 
L 41.606331 -118.860781 
L 41.281066 -118.860781 
L 40.9558 -118.860781 
L 40.630532 -118.860781 
L 40.305266 -118.860781 
L 39.98 -118.860781 
z
" style="stroke: #08519c; stroke-opacity: 0.1"/>
    </defs>
    <g clip-path="url(#p184ff787a8)">
     <use xlink:href="#m4cbf1705f7" x="0" y="139.920781" style="fill: #08519c; fill-opacity: 0.1; stroke: #08519c; stroke-opacity: 0.1"/>
    </g>
   </g>
   <g id="PolyCollection_2">
    <defs>
     <path id="m929b8fcc07" d="M 39.98 -118.860781 
L 39.98 -118.860781 
L 40.305266 -118.860781 
L 40.630532 -118.860781 
L 40.9558 -118.860781 
L 41.281066 -118.860781 
L 41.606331 -118.860781 
L 41.931597 -118.860781 
L 42.256863 -118.860781 
L 42.582131 -118.860781 
L 42.907397 -118.860781 
L 43.232663 -118.860781 
L 43.557931 -118.860781 
L 43.883197 -118.860781 
L 44.208462 -118.860781 
L 44.533728 -118.860781 
L 44.858994 -118.860781 
L 45.184262 -118.860781 
L 45.509528 -118.860781 
L 45.834794 -118.860781 
L 46.160062 -118.860781 
L 46.485328 -118.860781 
L 46.810593 -118.860781 
L 47.135859 -118.860781 
L 47.461125 -118.860781 
L 47.786391 -118.860781 
L 48.111657 -118.860781 
L 48.436923 -118.860781 
L 48.762191 -118.860781 
L 49.087457 -118.860781 
L 49.412723 -118.860781 
L 49.737988 -118.860781 
L 50.063256 -118.860781 
L 50.388522 -118.860781 
L 50.713788 -118.860781 
L 51.039054 -118.860781 
L 51.364322 -118.860781 
L 51.689588 -118.860781 
L 52.014854 -118.860781 
L 52.340119 -118.860781 
L 52.665387 -118.860781 
L 52.990651 -118.860781 
L 53.315919 -118.860781 
L 53.641183 -118.860781 
L 53.966451 -118.860781 
L 54.291715 -118.860781 
L 54.616983 -118.860781 
L 54.94225 -118.860781 
L 55.267514 -118.860781 
L 55.592782 -118.860781 
L 55.91805 -118.860781 
L 56.243314 -118.860781 
L 56.568582 -118.860781 
L 56.893846 -118.860781 
L 57.219114 -118.860781 
L 57.544382 -118.860781 
L 57.869645 -118.860781 
L 58.194913 -118.860781 
L 58.520181 -118.860781 
L 58.845445 -118.860781 
L 59.170713 -118.860781 
L 59.495977 -118.860781 
L 59.821245 -118.860781 
L 60.146513 -118.860781 
L 60.471776 -118.860781 
L 60.797044 -118.860781 
L 61.122312 -118.860781 
L 61.447576 -118.860781 
L 61.772844 -118.860781 
L 62.098108 -118.860781 
L 62.423376 -118.860781 
L 62.748644 -118.860781 
L 63.073908 -118.860781 
L 63.399175 -118.860781 
L 63.724443 -118.860781 
L 64.049707 -118.860781 
L 64.374975 -118.860781 
L 64.700239 -118.860781 
L 65.025507 -118.860781 
L 65.350775 -118.860781 
L 65.676039 -118.860781 
L 66.001306 -118.860781 
L 66.326574 -118.860781 
L 66.651838 -118.860781 
L 66.977106 -118.860781 
L 67.30237 -118.860781 
L 67.627638 -118.860781 
L 67.952906 -118.860781 
L 68.27817 -118.860781 
L 68.603437 -118.860781 
L 68.928705 -118.860781 
L 69.253969 -118.860781 
L 69.579237 -118.860781 
L 69.904501 -118.860781 
L 70.229769 -118.860781 
L 70.555037 -118.860781 
L 70.880301 -118.860781 
L 71.205568 -118.860781 
L 71.530836 -118.860781 
L 71.8561 -118.860781 
L 72.181368 -118.860781 
L 72.506632 -118.860781 
L 72.8319 -118.860781 
L 73.157168 -118.860781 
L 73.482432 -118.860781 
L 73.807699 -118.860781 
L 74.132967 -118.860781 
L 74.458231 -118.860781 
L 74.783499 -118.860781 
L 75.108763 -118.860781 
L 75.434031 -118.860781 
L 75.759299 -118.860781 
L 76.084563 -118.860781 
L 76.40983 -118.860781 
L 76.735098 -118.860781 
L 77.060362 -118.860781 
L 77.38563 -118.860781 
L 77.710894 -118.860781 
L 78.036162 -118.860781 
L 78.36143 -118.860781 
L 78.686694 -118.860781 
L 79.011961 -118.860781 
L 79.337229 -118.860781 
L 79.662493 -118.860781 
L 79.987761 -118.860781 
L 80.313025 -118.860781 
L 80.638293 -118.860781 
L 80.963561 -118.860781 
L 81.288825 -118.860781 
L 81.614092 -118.860781 
L 81.93936 -118.860781 
L 82.264624 -118.860781 
L 82.589892 -118.860781 
L 82.915156 -118.860781 
L 83.240424 -118.860781 
L 83.565692 -118.860781 
L 83.890956 -118.860781 
L 84.216224 -118.860781 
L 84.541491 -118.860781 
L 84.866755 -118.860781 
L 85.192023 -118.860781 
L 85.517291 -118.860781 
L 85.842559 -118.860781 
L 86.167819 -118.860781 
L 86.493087 -118.860781 
L 86.818355 -118.860781 
L 87.143622 -118.860781 
L 87.46889 -118.860781 
L 87.79415 -118.860781 
L 88.119418 -118.860781 
L 88.444686 -118.860781 
L 88.769954 -118.860781 
L 89.095222 -118.860781 
L 89.420482 -118.860781 
L 89.74575 -118.860781 
L 90.071017 -118.860781 
L 90.396277 -118.860781 
L 90.721545 -118.860781 
L 91.046813 -118.860781 
L 91.372081 -118.860781 
L 91.697349 -118.860781 
L 92.022617 -118.860781 
L 92.347884 -118.860781 
L 92.673152 -118.860781 
L 92.998412 -118.860781 
L 93.32368 -118.860781 
L 93.648948 -118.860781 
L 93.974216 -118.860781 
L 94.299484 -118.860781 
L 94.624744 -118.860781 
L 94.950012 -118.860781 
L 95.275279 -118.860781 
L 95.600539 -118.860781 
L 95.925807 -118.860781 
L 96.251075 -118.860781 
L 96.576343 -118.860781 
L 96.901611 -118.860781 
L 97.226871 -118.860781 
L 97.552139 -118.860781 
L 97.877407 -118.860781 
L 98.202667 -118.860781 
L 98.527934 -118.860781 
L 98.853202 -118.860781 
L 99.17847 -118.860781 
L 99.503738 -118.860781 
L 99.829006 -118.860781 
L 100.154274 -118.860781 
L 100.479541 -118.860781 
L 100.804802 -118.860781 
L 101.130069 -118.860781 
L 101.455337 -118.860781 
L 101.780605 -118.860781 
L 102.105873 -118.860781 
L 102.431133 -118.860781 
L 102.756401 -118.860781 
L 103.081669 -118.860781 
L 103.406936 -118.860781 
L 103.732204 -118.860781 
L 104.057464 -118.860781 
L 104.382732 -118.860781 
L 104.708 -118.860781 
L 104.708 -118.864566 
L 104.708 -118.864566 
L 104.382732 -118.866621 
L 104.057464 -118.869334 
L 103.732204 -118.8727 
L 103.406936 -118.876636 
L 103.081669 -118.880965 
L 102.756401 -118.885395 
L 102.431133 -118.889545 
L 102.105873 -118.893006 
L 101.780605 -118.895464 
L 101.455337 -118.89684 
L 101.130069 -118.897372 
L 100.804802 -118.897599 
L 100.479541 -118.898242 
L 100.154274 -118.900017 
L 99.829006 -118.903467 
L 99.503738 -118.908848 
L 99.17847 -118.916107 
L 98.853202 -118.924925 
L 98.527934 -118.934809 
L 98.202667 -118.945243 
L 97.877407 -118.955869 
L 97.552139 -118.966677 
L 97.226871 -118.978115 
L 96.901611 -118.991034 
L 96.576343 -119.006418 
L 96.251075 -119.024956 
L 95.925807 -119.046641 
L 95.600539 -119.070614 
L 95.275279 -119.095382 
L 94.950012 -119.119352 
L 94.624744 -119.141449 
L 94.299484 -119.16155 
L 93.974216 -119.180552 
L 93.648948 -119.200115 
L 93.32368 -119.222233 
L 92.998412 -119.24883 
L 92.673152 -119.281489 
L 92.347884 -119.321306 
L 92.022617 -119.368802 
L 91.697349 -119.423843 
L 91.372081 -119.485565 
L 91.046813 -119.552355 
L 90.721545 -119.621985 
L 90.396277 -119.691903 
L 90.071017 -119.759713 
L 89.74575 -119.823753 
L 89.420482 -119.883654 
L 89.095222 -119.940716 
L 88.769954 -119.997894 
L 88.444686 -120.059263 
L 88.119418 -120.129022 
L 87.79415 -120.210276 
L 87.46889 -120.304049 
L 87.143622 -120.408979 
L 86.818355 -120.521912 
L 86.493087 -120.639295 
L 86.167819 -120.758793 
L 85.842559 -120.880438 
L 85.517291 -121.006799 
L 85.192023 -121.142071 
L 84.866755 -121.290611 
L 84.541491 -121.45558 
L 84.216224 -121.638207 
L 83.890956 -121.837689 
L 83.565692 -122.051477 
L 83.240424 -122.275634 
L 82.915156 -122.505272 
L 82.589892 -122.735344 
L 82.264624 -122.961833 
L 81.93936 -123.182973 
L 81.614092 -123.399886 
L 81.288825 -123.616124 
L 80.963561 -123.836285 
L 80.638293 -124.064376 
L 80.313025 -124.30259 
L 79.987761 -124.550865 
L 79.662493 -124.807063 
L 79.337229 -125.06753 
L 79.011961 -125.328053 
L 78.686694 -125.585221 
L 78.36143 -125.838026 
L 78.036162 -126.089026 
L 77.710894 -126.344217 
L 77.38563 -126.611295 
L 77.060362 -126.896746 
L 76.735098 -127.20284 
L 76.40983 -127.525884 
L 76.084563 -127.856386 
L 75.759299 -128.181339 
L 75.434031 -128.48791 
L 75.108763 -128.767283 
L 74.783499 -129.017273 
L 74.458231 -129.242523 
L 74.132967 -129.452092 
L 73.807699 -129.655447 
L 73.482432 -129.858487 
L 73.157168 -130.061177 
L 72.8319 -130.257428 
L 72.506632 -130.436869 
L 72.181368 -130.58772 
L 71.8561 -130.699837 
L 71.530836 -130.767142 
L 71.205568 -130.788838 
L 70.880301 -130.76898 
L 70.555037 -130.71465 
L 70.229769 -130.633551 
L 69.904501 -130.532136 
L 69.579237 -130.414864 
L 69.253969 -130.284333 
L 68.928705 -130.141525 
L 68.603437 -129.985596 
L 68.27817 -129.813456 
L 67.952906 -129.619909 
L 67.627638 -129.399025 
L 67.30237 -129.146603 
L 66.977106 -128.86265 
L 66.651838 -128.552465 
L 66.326574 -128.225526 
L 66.001306 -127.89233 
L 65.676039 -127.560661 
L 65.350775 -127.23299 
L 65.025507 -126.906269 
L 64.700239 -126.574102 
L 64.374975 -126.229951 
L 64.049707 -125.869737 
L 63.724443 -125.492791 
L 63.399175 -125.101131 
L 63.073908 -124.698128 
L 62.748644 -124.287481 
L 62.423376 -123.872981 
L 62.098108 -123.458872 
L 61.772844 -123.050239 
L 61.447576 -122.653071 
L 61.122312 -122.27397 
L 60.797044 -121.919415 
L 60.471776 -121.594815 
L 60.146513 -121.303379 
L 59.821245 -121.045226 
L 59.495977 -120.817227 
L 59.170713 -120.613836 
L 58.845445 -120.428776 
L 58.520181 -120.256944 
L 58.194913 -120.095664 
L 57.869645 -119.944849 
L 57.544382 -119.806125 
L 57.219114 -119.681473 
L 56.893846 -119.572067 
L 56.568582 -119.477705 
L 56.243314 -119.396902 
L 55.91805 -119.327427 
L 55.592782 -119.266928 
L 55.267514 -119.213417 
L 54.94225 -119.165471 
L 54.616983 -119.122207 
L 54.291715 -119.083156 
L 53.966451 -119.048122 
L 53.641183 -119.017092 
L 53.315919 -118.990152 
L 52.990651 -118.967376 
L 52.665387 -118.948694 
L 52.340119 -118.933772 
L 52.014854 -118.92198 
L 51.689588 -118.91248 
L 51.364322 -118.904411 
L 51.039054 -118.89709 
L 50.713788 -118.890157 
L 50.388522 -118.88359 
L 50.063256 -118.8776 
L 49.737988 -118.872468 
L 49.412723 -118.86839 
L 49.087457 -118.865405 
L 48.762191 -118.863395 
L 48.436923 -118.862154 
L 48.111657 -118.861449 
L 47.786391 -118.861083 
L 47.461125 -118.860907 
L 47.135859 -118.86083 
L 46.810593 -118.860799 
L 46.485328 -118.860787 
L 46.160062 -118.860783 
L 45.834794 -118.860782 
L 45.509528 -118.860781 
L 45.184262 -118.860781 
L 44.858994 -118.860781 
L 44.533728 -118.860781 
L 44.208462 -118.860781 
L 43.883197 -118.860781 
L 43.557931 -118.860781 
L 43.232663 -118.860781 
L 42.907397 -118.860781 
L 42.582131 -118.860781 
L 42.256863 -118.860781 
L 41.931597 -118.860781 
L 41.606331 -118.860781 
L 41.281066 -118.860781 
L 40.9558 -118.860781 
L 40.630532 -118.860781 
L 40.305266 -118.860781 
L 39.98 -118.860781 
z
" style="stroke: #d94801; stroke-opacity: 0.1"/>
    </defs>
    <g clip-path="url(#p184ff787a8)">
     <use xlink:href="#m929b8fcc07" x="0" y="139.920781" style="fill: #d94801; fill-opacity: 0.1; stroke: #d94801; stroke-opacity: 0.1"/>
    </g>
   </g>
   <g id="matplotlib.axis_3">
    <g id="xtick_3">
     <g id="line2d_6">
      <g>
       <use xlink:href="#mc030d09f8e" x="52.9256" y="21.06" style="stroke: #000000; stroke-width: 1.5"/>
      </g>
     </g>
    </g>
    <g id="xtick_4">
     <g id="line2d_7">
      <g>
       <use xlink:href="#mc030d09f8e" x="85.289602" y="21.06" style="stroke: #000000; stroke-width: 1.5"/>
      </g>
     </g>
    </g>
   </g>
   <g id="matplotlib.axis_4">
    <g id="ytick_4">
     <g id="line2d_8">
      <g>
       <use xlink:href="#m9c634dd328" x="39.98" y="21.06" style="stroke: #000000; stroke-width: 1.5"/>
      </g>
     </g>
    </g>
    <g id="ytick_5">
     <g id="line2d_9">
      <g>
       <use xlink:href="#m9c634dd328" x="39.98" y="8.180376" style="stroke: #000000; stroke-width: 1.5"/>
      </g>
     </g>
    </g>
   </g>
   <g id="line2d_10">
    <path d="M 39.98 21.06 
L 53.641183 20.994625 
L 53.966451 20.845865 
L 54.616983 20.191546 
L 54.94225 19.399331 
L 55.592782 16.375427 
L 55.91805 13.864342 
L 56.568582 4.695522 
L 56.854864 -1 
M 61.094436 -1 
L 62.098108 13.590004 
L 62.748644 17.659155 
L 63.073908 18.979107 
L 63.724443 20.053694 
L 64.049707 20.510352 
L 64.700239 20.956463 
L 65.350775 21.059752 
L 104.708 21.06 
L 104.708 21.06 
" clip-path="url(#p184ff787a8)" style="fill: none; stroke: #08519c; stroke-width: 1.5; stroke-linecap: square"/>
   </g>
   <g id="line2d_11">
    <path d="M 39.98 21.06 
L 52.990651 20.953405 
L 55.267514 20.707365 
L 56.893846 20.348715 
L 58.194913 19.825117 
L 59.495977 19.103554 
L 60.471776 18.325966 
L 61.447576 17.26771 
L 65.025507 13.014512 
L 67.627638 10.521757 
L 68.603437 9.935185 
L 69.904501 9.388645 
L 70.880301 9.151802 
L 71.530836 9.153639 
L 72.181368 9.333061 
L 73.157168 9.859604 
L 75.108763 11.153498 
L 76.40983 12.394898 
L 77.710894 13.576565 
L 81.614092 16.520895 
L 85.192023 18.77871 
L 87.46889 19.616732 
L 89.095222 19.980065 
L 93.974216 20.74023 
L 100.479541 21.022539 
L 104.708 21.056215 
L 104.708 21.056215 
" clip-path="url(#p184ff787a8)" style="fill: none; stroke: #d94801; stroke-width: 1.5; stroke-linecap: square"/>
   </g>
   <g id="patch_6">
    <path d="M 39.98 21.06 
L 39.98 7.2 
" style="fill: none; stroke: #000000; stroke-width: 1.5; stroke-linejoin: miter; stroke-linecap: square"/>
   </g>
   <g id="patch_7">
    <path d="M 39.98 21.06 
L 104.708 21.06 
" style="fill: none; stroke: #000000; stroke-width: 1.5; stroke-linejoin: miter; stroke-linecap: square"/>
   </g>
  </g>
  <g id="axes_3">
   <g id="patch_8">
    <path d="M 106.94 104.22 
L 118.1 104.22 
L 118.1 23.832 
L 106.94 23.832 
L 106.94 104.22 
z
" style="fill: none"/>
   </g>
   <g id="PolyCollection_3">
    <path d="M 106.94 104.22 
L 106.94 127.188001 
L 106.94 127.188001 
L 106.94 127.188001 
L 106.94 127.188001 
L 106.94 127.188001 
L 106.94 127.188001 
L 106.94 127.188001 
L 106.94 127.188001 
L 106.94 127.188001 
L 106.94 127.188001 
L 106.94 127.188001 
L 106.94 127.188001 
L 106.94 127.188001 
L 106.94 127.188001 
L 106.94 127.188001 
L 106.94 127.188001 
L 106.94 127.188001 
L 106.94 127.188001 
L 106.94 127.188001 
L 106.94 127.188001 
L 106.94 127.188001 
L 106.94 127.188001 
L 106.94 127.188001 
L 106.94 127.188001 
L 106.94 127.188001 
L 106.94 127.188001 
L 106.94 127.188001 
L 106.94 127.188 
L 106.94 127.18799 
L 106.940001 127.187918 
L 106.940008 127.187511 
L 106.940039 127.185599 
L 106.94016 127.178211 
L 106.940542 127.15477 
L 106.941534 127.093937 
L 106.943628 126.965515 
L 106.947194 126.746874 
L 106.952022 126.450834 
L 106.9571 126.139416 
L 106.961096 125.894399 
L 106.963395 125.753412 
L 106.964866 125.663207 
L 106.967683 125.490491 
L 106.97443 125.076749 
L 106.987267 124.289542 
L 107.007863 123.026599 
L 107.038257 121.162804 
L 107.081749 118.495846 
L 107.142386 114.77754 
L 107.223077 109.829542 
L 107.324233 103.626587 
L 107.444383 96.258898 
L 107.58212 87.812808 
L 107.738129 78.246199 
L 107.916597 67.302404 
L 108.125127 54.51522 
L 108.372225 39.362994 
L 108.663011 21.531829 
L 108.996165 1.102611 
L 109.365203 -21.527074 
L 109.764011 -45.982193 
L 110.193402 -72.312777 
L 110.664899 -101.225255 
L 111.198701 -133.958347 
L 111.813697 -171.670345 
L 112.511951 -214.487701 
L 113.269269 -260.926977 
L 114.044502 -308.464782 
L 114.803098 -354.982364 
L 115.53369 -399.782769 
L 116.243482 -443.307639 
L 116.941428 -486.106199 
L 117.625974 -528.082981 
L 118.281578 -568.285086 
L 118.88127 -605.058584 
L 119.396176 -636.632964 
L 119.809586 -661.983539 
L 120.125834 -681.376074 
L 120.367688 -696.206705 
L 120.565544 -708.33937 
L 120.74448 -719.311822 
L 120.914733 -729.751855 
L 121.071618 -739.372153 
L 121.204691 -747.532307 
L 121.305587 -753.719314 
L 121.36542 -757.388289 
L 121.367101 -757.491359 
L 121.285116 -752.464015 
L 121.095928 -740.862856 
L 120.791883 -722.218653 
L 120.390543 -697.608218 
L 119.931725 -669.473192 
L 119.456957 -640.360088 
L 118.981765 -611.221006 
L 118.487146 -580.890627 
L 117.944164 -547.594584 
L 117.349694 -511.141337 
L 116.736006 -473.509535 
L 116.145494 -437.298998 
L 115.599436 -403.814357 
L 115.090027 -372.57706 
L 114.595742 -342.267177 
L 114.099439 -311.83355 
L 113.596195 -280.974252 
L 113.093273 -250.134744 
L 112.6064 -220.279413 
L 112.151487 -192.383834 
L 111.733271 -166.73856 
L 111.3398 -142.610669 
L 110.95068 -118.749571 
L 110.554101 -94.43107 
L 110.157773 -70.127955 
L 109.784255 -47.223571 
L 109.455802 -27.082618 
L 109.182393 -10.31699 
L 108.960931 3.263197 
L 108.781088 14.291258 
L 108.629779 23.569612 
L 108.493174 31.94634 
L 108.360206 40.10006 
L 108.227006 48.267913 
L 108.096963 56.242292 
L 107.975051 63.717965 
L 107.862049 70.647334 
L 107.754356 77.251123 
L 107.649036 83.709427 
L 107.548095 89.899187 
L 107.457233 95.470903 
L 107.380669 100.165905 
L 107.317706 104.026825 
L 107.264144 107.311251 
L 107.216168 110.253197 
L 107.172531 112.929016 
L 107.133742 115.307611 
L 107.10027 117.360157 
L 107.071975 119.095223 
L 107.048516 120.533724 
L 107.029357 121.708555 
L 107.013519 122.679745 
L 107.000098 123.502731 
L 106.98901 124.1827 
L 106.980617 124.697341 
L 106.974574 125.067878 
L 106.969543 125.376432 
L 106.964284 125.69891 
L 106.958867 126.031036 
L 106.954675 126.288146 
L 106.953185 126.379483 
L 106.954578 126.294058 
L 106.957261 126.129538 
L 106.958779 126.036451 
L 106.957491 126.115443 
L 106.953622 126.352707 
L 106.948807 126.647937 
L 106.944718 126.89872 
L 106.942092 127.059708 
L 106.940768 127.140902 
L 106.940233 127.173689 
L 106.940059 127.184401 
L 106.940012 127.187252 
L 106.940002 127.187872 
L 106.94 127.187983 
L 106.94 127.187999 
L 106.94 127.188001 
L 106.94 127.188001 
L 106.94 127.188001 
L 106.94 127.188001 
L 106.94 127.188001 
L 106.94 127.188001 
L 106.94 127.188001 
L 106.94 127.188001 
L 106.94 127.188001 
L 106.94 127.188001 
L 106.94 127.188001 
L 106.94 127.188001 
L 106.94 127.188001 
L 106.94 127.188001 
L 106.94 127.188001 
L 106.94 127.188001 
L 106.94 127.188001 
L 106.94 127.188001 
L 106.94 127.188001 
L 106.94 127.188001 
L 106.94 127.188001 
L 106.94 127.188001 
L 106.94 127.188001 
L 106.94 127.188001 
L 106.94 127.188001 
L 106.94 127.188001 
L 106.94 127.188001 
L 106.94 127.188001 
L 106.94 127.188001 
L 106.94 127.188001 
L 106.94 127.188001 
L 106.94 127.188001 
L 106.94 127.188001 
L 106.94 127.188001 
L 106.94 127.188001 
L 106.94 127.188001 
L 106.94 127.188001 
L 106.94 23.832 
L 106.94 23.832 
L 106.94 24.235958 
L 106.94 24.639922 
L 106.94 25.043879 
L 106.94 25.447837 
L 106.94 25.851801 
L 106.94 26.255759 
L 106.94 26.659716 
L 106.94 27.063681 
L 106.94 27.467638 
L 106.94 27.871596 
L 106.94 28.27556 
L 106.94 28.679518 
L 106.94 29.083475 
L 106.94 29.48744 
L 106.94 29.891397 
L 106.94 30.295362 
L 106.94 30.699319 
L 106.94 31.103277 
L 106.94 31.507241 
L 106.94 31.911199 
L 106.94 32.315156 
L 106.94 32.719121 
L 106.94 33.123078 
L 106.94 33.527036 
L 106.94 33.930993 
L 106.94 34.334951 
L 106.94 34.738915 
L 106.94 35.142873 
L 106.94 35.54683 
L 106.94 35.950795 
L 106.94 36.354752 
L 106.94 36.758716 
L 106.94 37.162674 
L 106.94 37.566632 
L 106.94 37.970596 
L 106.94 38.374553 
L 106.94 38.778511 
L 106.94 39.182475 
L 106.940002 39.586433 
L 106.940012 39.990397 
L 106.940059 40.394355 
L 106.940233 40.798312 
L 106.940768 41.202277 
L 106.942092 41.606234 
L 106.944718 42.010192 
L 106.948807 42.414156 
L 106.953622 42.818114 
L 106.957491 43.222071 
L 106.958779 43.626029 
L 106.957261 44.029986 
L 106.954578 44.433951 
L 106.953185 44.837908 
L 106.954675 45.241866 
L 106.958867 45.64583 
L 106.964284 46.049788 
L 106.969543 46.453752 
L 106.974574 46.85771 
L 106.980617 47.261667 
L 106.98901 47.665632 
L 107.000098 48.069589 
L 107.013519 48.473547 
L 107.029357 48.877511 
L 107.048516 49.281469 
L 107.071975 49.685433 
L 107.10027 50.089391 
L 107.133742 50.493348 
L 107.172531 50.897312 
L 107.216168 51.30127 
L 107.264144 51.705228 
L 107.317706 52.109192 
L 107.380669 52.513149 
L 107.457233 52.917107 
L 107.548095 53.321065 
L 107.649036 53.725022 
L 107.754356 54.128986 
L 107.862049 54.532944 
L 107.975051 54.936902 
L 108.096963 55.340866 
L 108.227006 55.744823 
L 108.360206 56.148788 
L 108.493174 56.552745 
L 108.629779 56.956703 
L 108.781088 57.360667 
L 108.960931 57.764625 
L 109.182393 58.168582 
L 109.455802 58.572547 
L 109.784255 58.976504 
L 110.157773 59.380469 
L 110.554101 59.784426 
L 110.95068 60.188384 
L 111.3398 60.592348 
L 111.733271 60.996306 
L 112.151487 61.400263 
L 112.6064 61.804228 
L 113.093273 62.208185 
L 113.596195 62.612143 
L 114.099439 63.0161 
L 114.595742 63.420058 
L 115.090027 63.824022 
L 115.599436 64.22798 
L 116.145494 64.631937 
L 116.736006 65.035902 
L 117.349694 65.439859 
L 117.944164 65.843823 
L 118.487146 66.247781 
L 118.981765 66.651739 
L 119.456957 67.055703 
L 119.931725 67.45966 
L 120.390543 67.863618 
L 120.791883 68.267582 
L 121.095928 68.67154 
L 121.285116 69.075497 
L 121.367101 69.479455 
L 121.36542 69.883416 
L 121.305587 70.287373 
L 121.204691 70.691334 
L 121.071618 71.095295 
L 120.914733 71.499253 
L 120.74448 71.903214 
L 120.565544 72.307175 
L 120.367688 72.711136 
L 120.125834 73.115097 
L 119.809586 73.519054 
L 119.396176 73.923015 
L 118.88127 74.326976 
L 118.281578 74.730934 
L 117.625974 75.134895 
L 116.941428 75.538852 
L 116.243482 75.942813 
L 115.53369 76.346774 
L 114.803098 76.750732 
L 114.044502 77.154693 
L 113.269269 77.558654 
L 112.511951 77.962611 
L 111.813697 78.366572 
L 111.198701 78.77053 
L 110.664899 79.174491 
L 110.193402 79.578452 
L 109.764011 79.982409 
L 109.365203 80.38637 
L 108.996165 80.790331 
L 108.663011 81.194289 
L 108.372225 81.59825 
L 108.125127 82.002211 
L 107.916597 82.406171 
L 107.738129 82.810132 
L 107.58212 83.21409 
L 107.444383 83.618051 
L 107.324233 84.022012 
L 107.223077 84.425969 
L 107.142386 84.82993 
L 107.081749 85.233888 
L 107.038257 85.637849 
L 107.007863 86.04181 
L 106.987267 86.445767 
L 106.97443 86.849728 
L 106.967683 87.253689 
L 106.964866 87.657647 
L 106.963395 88.061608 
L 106.961096 88.465565 
L 106.9571 88.869526 
L 106.952022 89.273487 
L 106.947194 89.677445 
L 106.943628 90.081406 
L 106.941534 90.485367 
L 106.940542 90.889324 
L 106.94016 91.293285 
L 106.940039 91.697246 
L 106.940008 92.101207 
L 106.940001 92.505168 
L 106.94 92.909126 
L 106.94 93.313087 
L 106.94 93.717048 
L 106.94 94.121005 
L 106.94 94.524966 
L 106.94 94.928924 
L 106.94 95.332885 
L 106.94 95.736846 
L 106.94 96.140803 
L 106.94 96.544764 
L 106.94 96.948725 
L 106.94 97.352683 
L 106.94 97.756643 
L 106.94 98.160601 
L 106.94 98.564562 
L 106.94 98.968521 
L 106.94 99.372482 
L 106.94 99.776441 
L 106.94 100.180401 
L 106.94 100.584362 
L 106.94 100.988321 
L 106.94 101.392282 
L 106.94 101.796241 
L 106.94 102.2002 
L 106.94 102.604161 
L 106.94 103.008121 
L 106.94 103.41208 
L 106.94 103.816041 
L 106.94 104.22 
z
" clip-path="url(#p6f845a21d2)" style="fill: #08519c; fill-opacity: 0.1; stroke: #08519c; stroke-opacity: 0.1"/>
   </g>
   <g id="PolyCollection_4">
    <path d="M 106.94 104.22 
L 106.94 127.188001 
L 106.94 127.188001 
L 106.94 127.188001 
L 106.94 127.188001 
L 106.94 127.188001 
L 106.94 127.188001 
L 106.94 127.188001 
L 106.94 127.188001 
L 106.94 127.188001 
L 106.94 127.188001 
L 106.94 127.188001 
L 106.94 127.188001 
L 106.94 127.188001 
L 106.94 127.188001 
L 106.94 127.188001 
L 106.94 127.188001 
L 106.94 127.188001 
L 106.94 127.188001 
L 106.94 127.188001 
L 106.94 127.188001 
L 106.94 127.187998 
L 106.94 127.187987 
L 106.940001 127.187946 
L 106.940003 127.187796 
L 106.940011 127.187311 
L 106.940034 127.185888 
L 106.940096 127.182101 
L 106.940245 127.172971 
L 106.94057 127.153034 
L 106.941213 127.113632 
L 106.942362 127.043187 
L 106.944219 126.929285 
L 106.946937 126.762623 
L 106.950546 126.541317 
L 106.954929 126.27255 
L 106.959884 125.968681 
L 106.965282 125.637679 
L 106.971249 125.271786 
L 106.978278 124.840749 
L 106.987192 124.294163 
L 106.998964 123.57228 
L 107.014488 122.620327 
L 107.034373 121.400964 
L 107.058822 119.901748 
L 107.087607 118.136652 
L 107.120178 116.139354 
L 107.155953 113.945592 
L 107.19477 111.56532 
L 107.237387 108.952012 
L 107.285814 105.982451 
L 107.343271 102.459166 
L 107.413725 98.13888 
L 107.501071 92.782782 
L 107.608133 86.217674 
L 107.735712 78.394429 
L 107.881992 69.424452 
L 108.04277 59.565387 
L 108.212894 49.133318 
L 108.388778 38.347994 
L 108.57109 27.16847 
L 108.766013 15.215663 
L 108.983863 1.856989 
L 109.235132 -13.551035 
L 109.525636 -31.364887 
L 109.853216 -51.452329 
L 110.207708 -73.190023 
L 110.574035 -95.653434 
L 110.93686 -117.902099 
L 111.284675 -139.230328 
L 111.612192 -159.313915 
L 111.920914 -178.244917 
L 112.218224 -196.476208 
L 112.515228 -214.688642 
L 112.823334 -233.581904 
L 113.15025 -253.628659 
L 113.497064 -274.895518 
L 113.858076 -297.033007 
L 114.223865 -319.463396 
L 114.585911 -341.664324 
L 114.939977 -363.375861 
L 115.28627 -384.610802 
L 115.626508 -405.47439 
L 115.960031 -425.92624 
L 116.28158 -445.643839 
L 116.581928 -464.061379 
L 116.850647 -480.539453 
L 117.079027 -494.543832 
L 117.261605 -505.739653 
L 117.396323 -514.000666 
L 117.484205 -519.389617 
L 117.529261 -522.15249 
L 117.538167 -522.698578 
L 117.518767 -521.508981 
L 117.477337 -518.96845 
L 117.416082 -515.212286 
L 117.332953 -510.11478 
L 117.224606 -503.470852 
L 117.091013 -495.278808 
L 116.938646 -485.93559 
L 116.779832 -476.197014 
L 116.628134 -466.894783 
L 116.49225 -458.56228 
L 116.371721 -451.171391 
L 116.256636 -444.11428 
L 116.131306 -436.428989 
L 115.979861 -427.142273 
L 115.791113 -415.568074 
L 115.560933 -401.45333 
L 115.291898 -384.955937 
L 114.991287 -366.522222 
L 114.668743 -346.743623 
L 114.334361 -326.23913 
L 113.997471 -305.580775 
L 113.665911 -285.249301 
L 113.345487 -265.600688 
L 113.03956 -246.841044 
L 112.748656 -229.002615 
L 112.470608 -211.952536 
L 112.201661 -195.460514 
L 111.938537 -179.325587 
L 111.680711 -163.515532 
L 111.431398 -148.227467 
L 111.196183 -133.803941 
L 110.979802 -120.535319 
L 110.782782 -108.453916 
L 110.600161 -97.255483 
L 110.423107 -86.398431 
L 110.242473 -75.321841 
L 110.052374 -63.664834 
L 109.852097 -51.383743 
L 109.645872 -38.737834 
L 109.441022 -26.176292 
L 109.245367 -14.178641 
L 109.064802 -3.106257 
L 108.901789 6.889814 
L 108.755324 15.871113 
L 108.622435 24.019949 
L 108.500339 31.507009 
L 108.387899 38.401898 
L 108.285539 44.678665 
L 108.193838 50.301797 
L 108.112126 55.312459 
L 108.038167 59.847701 
L 107.969005 64.088731 
L 107.902127 68.189733 
L 107.836035 72.242539 
L 107.770062 76.288034 
L 107.703943 80.342525 
L 107.637633 84.408699 
L 107.5715 88.463988 
L 107.506559 92.446236 
L 107.44439 96.258452 
L 107.386708 99.795564 
L 107.334785 102.979551 
L 107.289096 105.781185 
L 107.249396 108.215648 
L 107.215113 110.317881 
L 107.185791 112.115931 
L 107.161227 113.62224 
L 107.141232 114.84834 
L 107.12523 115.829552 
L 107.112036 116.63864 
L 107.100035 117.374558 
L 107.087715 118.129992 
L 107.074227 118.957091 
L 107.059649 119.851074 
L 107.044837 120.759347 
L 107.030991 121.60838 
L 107.019176 122.332846 
L 107.009999 122.895612 
L 107.003481 123.295315 
L 106.999112 123.563203 
L 106.99603 123.752195 
L 106.993288 123.920355 
L 106.990146 124.113005 
L 106.986283 124.349881 
L 106.981833 124.622746 
L 106.977247 124.904021 
L 106.973053 125.161186 
L 106.969658 125.369369 
L 106.96725 125.517024 
L 106.965826 125.604325 
L 106.965279 125.637881 
L 106.965468 125.62629 
L 106.966234 125.579297 
L 106.967358 125.51039 
L 106.968507 125.439963 
L 106.969234 125.395346 
L 106.969067 125.405578 
L 106.967654 125.492234 
L 106.964908 125.660597 
L 106.961069 125.896061 
L 106.956632 126.168093 
L 106.952197 126.440052 
L 106.948279 126.680351 
L 106.945185 126.870077 
L 106.942989 127.004744 
L 106.941582 127.090984 
L 106.940768 127.140916 
L 106.940341 127.167084 
L 106.940341 23.832 
L 106.940341 23.832 
L 106.940768 24.235958 
L 106.941582 24.639922 
L 106.942989 25.043879 
L 106.945185 25.447837 
L 106.948279 25.851801 
L 106.952197 26.255759 
L 106.956632 26.659716 
L 106.961069 27.063681 
L 106.964908 27.467638 
L 106.967654 27.871596 
L 106.969067 28.27556 
L 106.969234 28.679518 
L 106.968507 29.083475 
L 106.967358 29.48744 
L 106.966234 29.891397 
L 106.965468 30.295362 
L 106.965279 30.699319 
L 106.965826 31.103277 
L 106.96725 31.507241 
L 106.969658 31.911199 
L 106.973053 32.315156 
L 106.977247 32.719121 
L 106.981833 33.123078 
L 106.986283 33.527036 
L 106.990146 33.930993 
L 106.993288 34.334951 
L 106.99603 34.738915 
L 106.999112 35.142873 
L 107.003481 35.54683 
L 107.009999 35.950795 
L 107.019176 36.354752 
L 107.030991 36.758716 
L 107.044837 37.162674 
L 107.059649 37.566632 
L 107.074227 37.970596 
L 107.087715 38.374553 
L 107.100035 38.778511 
L 107.112036 39.182475 
L 107.12523 39.586433 
L 107.141232 39.990397 
L 107.161227 40.394355 
L 107.185791 40.798312 
L 107.215113 41.202277 
L 107.249396 41.606234 
L 107.289096 42.010192 
L 107.334785 42.414156 
L 107.386708 42.818114 
L 107.44439 43.222071 
L 107.506559 43.626029 
L 107.5715 44.029986 
L 107.637633 44.433951 
L 107.703943 44.837908 
L 107.770062 45.241866 
L 107.836035 45.64583 
L 107.902127 46.049788 
L 107.969005 46.453752 
L 108.038167 46.85771 
L 108.112126 47.261667 
L 108.193838 47.665632 
L 108.285539 48.069589 
L 108.387899 48.473547 
L 108.500339 48.877511 
L 108.622435 49.281469 
L 108.755324 49.685433 
L 108.901789 50.089391 
L 109.064802 50.493348 
L 109.245367 50.897312 
L 109.441022 51.30127 
L 109.645872 51.705228 
L 109.852097 52.109192 
L 110.052374 52.513149 
L 110.242473 52.917107 
L 110.423107 53.321065 
L 110.600161 53.725022 
L 110.782782 54.128986 
L 110.979802 54.532944 
L 111.196183 54.936902 
L 111.431398 55.340866 
L 111.680711 55.744823 
L 111.938537 56.148788 
L 112.201661 56.552745 
L 112.470608 56.956703 
L 112.748656 57.360667 
L 113.03956 57.764625 
L 113.345487 58.168582 
L 113.665911 58.572547 
L 113.997471 58.976504 
L 114.334361 59.380469 
L 114.668743 59.784426 
L 114.991287 60.188384 
L 115.291898 60.592348 
L 115.560933 60.996306 
L 115.791113 61.400263 
L 115.979861 61.804228 
L 116.131306 62.208185 
L 116.256636 62.612143 
L 116.371721 63.0161 
L 116.49225 63.420058 
L 116.628134 63.824022 
L 116.779832 64.22798 
L 116.938646 64.631937 
L 117.091013 65.035902 
L 117.224606 65.439859 
L 117.332953 65.843823 
L 117.416082 66.247781 
L 117.477337 66.651739 
L 117.518767 67.055703 
L 117.538167 67.45966 
L 117.529261 67.863618 
L 117.484205 68.267582 
L 117.396323 68.67154 
L 117.261605 69.075497 
L 117.079027 69.479455 
L 116.850647 69.883416 
L 116.581928 70.287373 
L 116.28158 70.691334 
L 115.960031 71.095295 
L 115.626508 71.499253 
L 115.28627 71.903214 
L 114.939977 72.307175 
L 114.585911 72.711136 
L 114.223865 73.115097 
L 113.858076 73.519054 
L 113.497064 73.923015 
L 113.15025 74.326976 
L 112.823334 74.730934 
L 112.515228 75.134895 
L 112.218224 75.538852 
L 111.920914 75.942813 
L 111.612192 76.346774 
L 111.284675 76.750732 
L 110.93686 77.154693 
L 110.574035 77.558654 
L 110.207708 77.962611 
L 109.853216 78.366572 
L 109.525636 78.77053 
L 109.235132 79.174491 
L 108.983863 79.578452 
L 108.766013 79.982409 
L 108.57109 80.38637 
L 108.388778 80.790331 
L 108.212894 81.194289 
L 108.04277 81.59825 
L 107.881992 82.002211 
L 107.735712 82.406171 
L 107.608133 82.810132 
L 107.501071 83.21409 
L 107.413725 83.618051 
L 107.343271 84.022012 
L 107.285814 84.425969 
L 107.237387 84.82993 
L 107.19477 85.233888 
L 107.155953 85.637849 
L 107.120178 86.04181 
L 107.087607 86.445767 
L 107.058822 86.849728 
L 107.034373 87.253689 
L 107.014488 87.657647 
L 106.998964 88.061608 
L 106.987192 88.465565 
L 106.978278 88.869526 
L 106.971249 89.273487 
L 106.965282 89.677445 
L 106.959884 90.081406 
L 106.954929 90.485367 
L 106.950546 90.889324 
L 106.946937 91.293285 
L 106.944219 91.697246 
L 106.942362 92.101207 
L 106.941213 92.505168 
L 106.94057 92.909126 
L 106.940245 93.313087 
L 106.940096 93.717048 
L 106.940034 94.121005 
L 106.940011 94.524966 
L 106.940003 94.928924 
L 106.940001 95.332885 
L 106.94 95.736846 
L 106.94 96.140803 
L 106.94 96.544764 
L 106.94 96.948725 
L 106.94 97.352683 
L 106.94 97.756643 
L 106.94 98.160601 
L 106.94 98.564562 
L 106.94 98.968521 
L 106.94 99.372482 
L 106.94 99.776441 
L 106.94 100.180401 
L 106.94 100.584362 
L 106.94 100.988321 
L 106.94 101.392282 
L 106.94 101.796241 
L 106.94 102.2002 
L 106.94 102.604161 
L 106.94 103.008121 
L 106.94 103.41208 
L 106.94 103.816041 
L 106.94 104.22 
z
" clip-path="url(#p6f845a21d2)" style="fill: #d94801; fill-opacity: 0.1; stroke: #d94801; stroke-opacity: 0.1"/>
   </g>
   <g id="matplotlib.axis_5">
    <g id="xtick_5">
     <g id="line2d_12">
      <g>
       <use xlink:href="#mc030d09f8e" x="106.94" y="104.22" style="stroke: #000000; stroke-width: 1.5"/>
      </g>
     </g>
    </g>
    <g id="xtick_6">
     <g id="line2d_13">
      <g>
       <use xlink:href="#mc030d09f8e" x="116.303892" y="104.22" style="stroke: #000000; stroke-width: 1.5"/>
      </g>
     </g>
    </g>
   </g>
   <g id="matplotlib.axis_6">
    <g id="ytick_6">
     <g id="line2d_14">
      <g>
       <use xlink:href="#m9c634dd328" x="106.94" y="81.251999" style="stroke: #000000; stroke-width: 1.5"/>
      </g>
     </g>
    </g>
    <g id="ytick_7">
     <g id="line2d_15">
      <g>
       <use xlink:href="#m9c634dd328" x="106.94" y="58.283999" style="stroke: #000000; stroke-width: 1.5"/>
      </g>
     </g>
    </g>
    <g id="ytick_8">
     <g id="line2d_16">
      <g>
       <use xlink:href="#m9c634dd328" x="106.94" y="35.315998" style="stroke: #000000; stroke-width: 1.5"/>
      </g>
     </g>
    </g>
   </g>
   <g id="line2d_17">
    <path d="M 106.94 104.22 
L 107.038257 85.637849 
L 107.223077 84.425969 
L 107.738129 82.810132 
L 108.372225 81.59825 
L 109.365203 80.38637 
L 110.664899 79.174491 
L 111.813697 78.366572 
L 114.803098 76.750732 
L 118.281578 74.730934 
L 119.396176 73.923015 
L 120.125834 73.115097 
L 120.74448 71.903214 
L 121.305587 70.287373 
L 121.367101 69.479455 
L 121.095928 68.67154 
L 120.390543 67.863618 
L 117.944164 65.843823 
L 115.090027 63.824022 
L 111.733271 60.996306 
L 109.455802 58.572547 
L 108.960931 57.764625 
L 108.360206 56.148788 
L 107.649036 53.725022 
L 107.317706 52.109192 
L 107.048516 49.281469 
L 106.954675 45.241866 
L 106.94 23.832 
L 106.94 23.832 
" clip-path="url(#p6f845a21d2)" style="fill: none; stroke: #08519c; stroke-width: 1.5; stroke-linecap: square"/>
   </g>
   <g id="line2d_18">
    <path d="M 106.94 104.22 
L 107.034373 87.253689 
L 107.285814 84.425969 
L 107.608133 82.810132 
L 108.212894 81.194289 
L 108.983863 79.578452 
L 109.853216 78.366572 
L 112.218224 75.538852 
L 113.497064 73.923015 
L 116.28158 70.691334 
L 117.079027 69.479455 
L 117.396323 68.67154 
L 117.529261 67.863618 
L 117.477337 66.651739 
L 117.224606 65.439859 
L 115.791113 61.400263 
L 114.991287 60.188384 
L 112.201661 56.552745 
L 110.979802 54.532944 
L 108.901789 50.089391 
L 108.285539 48.069589 
L 107.836035 45.64583 
L 107.215113 41.202277 
L 107.059649 37.566632 
L 106.973053 32.315156 
L 106.940341 23.832 
L 106.940341 23.832 
" clip-path="url(#p6f845a21d2)" style="fill: none; stroke: #d94801; stroke-width: 1.5; stroke-linecap: square"/>
   </g>
   <g id="patch_9">
    <path d="M 106.94 104.22 
L 106.94 23.832 
" style="fill: none; stroke: #000000; stroke-width: 1.5; stroke-linejoin: miter; stroke-linecap: square"/>
   </g>
   <g id="patch_10">
    <path d="M 106.94 104.22 
L 118.1 104.22 
" style="fill: none; stroke: #000000; stroke-width: 1.5; stroke-linejoin: miter; stroke-linecap: square"/>
   </g>
  </g>
 </g>
 <defs>
  <clipPath id="p6489be14fc">
   <rect x="39.98" y="23.832" width="64.728" height="80.388"/>
  </clipPath>
  <clipPath id="p184ff787a8">
   <rect x="39.98" y="7.2" width="64.728" height="13.86"/>
  </clipPath>
  <clipPath id="p6f845a21d2">
   <rect x="106.94" y="23.832" width="11.16" height="80.388"/>
  </clipPath>
 </defs>
</svg>
