<?xml version="1.0" encoding="utf-8" standalone="no"?>
<!DOCTYPE svg PUBLIC "-//W3C//DTD SVG 1.1//EN"
  "http://www.w3.org/Graphics/SVG/1.1/DTD/svg11.dtd">
<svg xmlns:xlink="http://www.w3.org/1999/xlink" width="234pt" height="252pt" viewBox="0 0 234 252" xmlns="http://www.w3.org/2000/svg" version="1.1">
 <metadata>
  <rdf:RDF xmlns:dc="http://purl.org/dc/elements/1.1/" xmlns:cc="http://creativecommons.org/ns#" xmlns:rdf="http://www.w3.org/1999/02/22-rdf-syntax-ns#">
   <cc:Work>
    <dc:type rdf:resource="http://purl.org/dc/dcmitype/StillImage"/>
    <dc:date>2023-05-19T11:59:45.424907</dc:date>
    <dc:format>image/svg+xml</dc:format>
    <dc:creator>
     <cc:Agent>
      <dc:title>Matplotlib v3.5.0, https://matplotlib.org/</dc:title>
     </cc:Agent>
    </dc:creator>
   </cc:Work>
  </rdf:RDF>
 </metadata>
 <defs>
  <style type="text/css">*{stroke-linejoin: round; stroke-linecap: butt}</style>
 </defs>
 <g id="figure_1">
  <g id="patch_1">
   <path d="M 0 252 
L 234 252 
L 234 0 
L 0 0 
L 0 252 
z
" style="fill: none"/>
  </g>
  <g id="axes_1">
   <g id="patch_2">
    <path d="M 29.25 224.28 
L 179.511429 224.28 
L 179.511429 63.504 
L 29.25 63.504 
L 29.25 224.28 
z
" style="fill: none"/>
   </g>
   <g id="PathCollection_1">
    <defs>
     <path id="m8a460864f7" d="M 0 -3.535534 
L -0.793777 -1.09254 
L -3.362493 -1.09254 
L -1.284358 0.417313 
L -2.078135 2.860307 
L -0 1.350454 
L 2.078135 2.860307 
L 1.284358 0.417313 
L 3.362493 -1.09254 
L 0.793777 -1.09254 
z
" style="stroke: #000000"/>
    </defs>
    <g clip-path="url(#pb3c4e40a4d)">
     <use xlink:href="#m8a460864f7" x="107.697623" y="206.03729" style="stroke: #000000"/>
    </g>
   </g>
   <g id="PathCollection_2">
    <defs>
     <path id="m632dcb9b3d" d="M 0 2.236068 
C 0.593012 2.236068 1.161816 2.000462 1.581139 1.581139 
C 2.000462 1.161816 2.236068 0.593012 2.236068 0 
C 2.236068 -0.593012 2.000462 -1.161816 1.581139 -1.581139 
C 1.161816 -2.000462 0.593012 -2.236068 0 -2.236068 
C -0.593012 -2.236068 -1.161816 -2.000462 -1.581139 -1.581139 
C -2.000462 -1.161816 -2.236068 -0.593012 -2.236068 0 
C -2.236068 0.593012 -2.000462 1.161816 -1.581139 1.581139 
C -1.161816 2.000462 -0.593012 2.236068 0 2.236068 
z
" style="stroke: #d94801"/>
    </defs>
    <g clip-path="url(#pb3c4e40a4d)">
     <use xlink:href="#m632dcb9b3d" x="89.304321" y="175.44839" style="fill: #d94801; stroke: #d94801"/>
    </g>
   </g>
   <g id="PathCollection_3">
    <g clip-path="url(#pb3c4e40a4d)">
     <use xlink:href="#m632dcb9b3d" x="92.378326" y="101.45886" style="fill: #d94801; stroke: #d94801"/>
    </g>
   </g>
   <g id="matplotlib.axis_1"/>
   <g id="matplotlib.axis_2"/>
   <g id="PathCollection_4"/>
   <g id="PathCollection_5">
    <path d="M 102.549482 68.005733 
L 103.494235 68.707815 
L 104.899194 70.11979 
L 107.838917 73.622381 
L 108.845619 75.026546 
L 109.580668 76.430711 
L 110.067776 77.834876 
L 110.490986 79.941123 
L 110.733509 82.749453 
L 110.797155 86.961948 
L 110.64308 92.578609 
L 110.274476 97.493174 
L 109.536728 105.918164 
L 108.830671 115.425793 
L 108.195333 123.470215 
L 107.746082 132.597281 
L 107.185603 136.809782 
L 105.900357 145.936849 
L 105.109989 152.957668 
L 103.873378 165.595147 
L 102.865543 171.211801 
L 101.95325 175.424299 
L 101.170651 178.232626 
L 99.895524 181.834154 
L 98.742152 185.253445 
L 97.393689 189.468415 
L 96.678868 191.024601 
L 95.876904 192.274267 
L 94.534444 193.882257 
L 92.747411 195.703235 
L 91.675198 196.521526 
L 87.38633 199.129046 
L 86.314099 199.478301 
L 85.241886 199.548688 
L 82.382641 199.432485 
L 80.595608 199.816749 
L 79.523395 199.916609 
L 78.808593 199.747133 
L 78.093772 199.272701 
L 77.378971 198.37481 
L 76.66415 196.974514 
L 75.591937 194.121891 
L 73.345213 188.061775 
L 72.017871 185.091484 
L 70.230857 181.338847 
L 69.516036 179.136173 
L 68.974851 176.828464 
L 68.086413 171.778575 
L 65.490368 155.765998 
L 65.201246 150.851426 
L 64.815104 144.532684 
L 63.436926 130.491034 
L 62.905129 124.87438 
L 62.605436 119.25772 
L 62.424567 111.534824 
L 62.24786 105.216082 
L 61.749934 96.089009 
L 61.892317 92.578609 
L 62.320163 88.366114 
L 63.082743 83.235109 
L 63.767486 79.941123 
L 64.512366 77.463604 
L 65.227168 75.662189 
L 66.29938 73.517865 
L 67.371611 71.831256 
L 68.443824 70.538804 
L 69.710212 69.409898 
L 70.945659 68.565559 
L 71.903288 68.005733 
L 71.903288 68.005733 
" clip-path="url(#pb3c4e40a4d)" style="fill: none; stroke: #d94801; stroke-opacity: 0.111111; stroke-width: 1.5"/>
   </g>
   <g id="PathCollection_6">
    <path d="M 67.3438 101.705669 
L 67.312034 101.003586 
L 67.282935 100.301504 
L 67.257619 99.599421 
L 67.237267 98.897339 
L 67.223078 98.195256 
L 67.216193 97.493174 
L 67.217622 96.791091 
L 67.228157 96.089009 
L 67.248303 95.386939 
L 67.278241 94.684856 
L 67.317819 93.982774 
L 67.366594 93.280691 
L 67.371611 93.219377 
L 67.423262 92.578609 
L 67.487231 91.876526 
L 67.557723 91.174444 
L 67.634003 90.472361 
L 67.715491 89.770279 
L 67.729003 89.661289 
L 67.79989 89.068196 
L 67.888311 88.366114 
L 67.981151 87.664031 
L 68.078643 86.961948 
L 68.086413 86.90908 
L 68.178587 86.259866 
L 68.283816 85.557783 
L 68.395235 84.855701 
L 68.443824 84.567843 
L 68.51216 84.153618 
L 68.636077 83.451536 
L 68.76935 82.749453 
L 68.801234 82.593278 
L 68.912053 82.047371 
L 69.067299 81.345288 
L 69.158625 80.966952 
L 69.237587 80.643206 
L 69.426085 79.941123 
L 69.516036 79.637733 
L 69.637469 79.239041 
L 69.873446 78.546126 
L 69.876688 78.536958 
L 70.151919 77.834876 
L 70.230857 77.654528 
L 70.471234 77.132793 
L 70.588248 76.904468 
L 70.845315 76.430711 
L 70.945659 76.263363 
L 71.286116 75.728628 
L 71.303069 75.704331 
L 71.66048 75.215286 
L 71.805965 75.026546 
L 72.017871 74.772635 
L 72.375281 74.364713 
L 72.411521 74.324463 
L 72.732692 73.99115 
L 73.090102 73.635501 
L 73.103468 73.622381 
L 73.447494 73.303611 
L 73.804904 72.983648 
L 73.876585 72.92031 
L 74.162315 72.679978 
L 74.519725 72.387705 
L 74.732078 72.218228 
L 74.877116 72.107228 
L 75.234527 71.839275 
L 75.591937 71.581483 
L 75.68448 71.516145 
L 75.949348 71.33551 
L 76.306739 71.100346 
L 76.66415 70.875428 
L 76.764477 70.814063 
L 77.02156 70.660953 
L 77.378971 70.456803 
L 77.736362 70.262971 
L 78.02958 70.11198 
L 78.093772 70.079497 
L 78.451183 69.906431 
L 78.808593 69.745188 
L 79.165985 69.596584 
L 79.523395 69.461518 
L 79.675118 69.409898 
L 79.880806 69.340226 
L 80.238216 69.233878 
L 80.595608 69.143398 
L 80.953018 69.068661 
L 81.310428 69.008932 
L 81.667839 68.962768 
L 82.02523 68.928028 
L 82.382641 68.901957 
L 82.740051 68.881382 
L 83.097462 68.86297 
L 83.454853 68.843546 
L 83.812264 68.820398 
L 84.169674 68.791555 
L 84.527084 68.755952 
L 84.884476 68.713496 
L 84.92618 68.707815 
L 85.241886 68.664289 
L 85.599297 68.610485 
L 85.956707 68.554307 
L 86.314099 68.498156 
L 86.671509 68.444473 
L 87.02892 68.39559 
L 87.38633 68.353607 
L 87.743721 68.320359 
L 88.101132 68.297402 
L 88.458542 68.28605 
L 88.815953 68.287405 
L 89.173344 68.302382 
L 89.530755 68.331733 
L 89.888165 68.376043 
L 90.245576 68.435726 
L 90.602967 68.511001 
L 90.960377 68.601895 
L 91.316499 68.707815 
L 91.317788 68.708199 
L 91.675198 68.828077 
L 92.03259 68.961936 
L 92.39 69.108874 
L 92.747411 69.267785 
L 93.047653 69.409898 
L 93.104821 69.437307 
L 93.462212 69.615406 
L 93.819623 69.801393 
L 94.177033 69.994076 
L 94.391273 70.11198 
L 94.534444 70.192571 
L 94.891835 70.395977 
L 95.249246 70.603436 
L 95.605969 70.814063 
L 95.606656 70.814482 
L 95.964067 71.030741 
L 96.321458 71.249962 
L 96.678868 71.471936 
L 96.750753 71.516145 
L 97.036279 71.699792 
L 97.393689 71.93125 
L 97.751081 72.165671 
L 97.831912 72.218228 
L 98.108491 72.409175 
L 98.465902 72.659539 
L 98.823312 72.91686 
L 98.828104 72.92031 
L 99.180703 73.194866 
L 99.538114 73.486562 
L 99.698873 73.622381 
L 99.895524 73.804511 
L 100.252935 74.152148 
L 100.421286 74.324463 
L 100.610326 74.538374 
L 100.967737 74.966721 
L 101.015465 75.026546 
L 101.325147 75.455887 
L 101.511874 75.728628 
L 101.682558 76.003801 
L 101.936485 76.430711 
L 102.039949 76.62185 
L 102.307124 77.132793 
L 102.397359 77.32147 
L 102.635553 77.834876 
L 102.75477 78.11486 
L 102.929422 78.536958 
L 103.11218 79.01815 
L 103.193747 79.239041 
L 103.431222 79.941123 
L 103.469572 80.065336 
L 103.643106 80.643206 
L 103.826982 81.325701 
L 103.832124 81.345288 
L 103.997366 82.047371 
L 104.141225 82.749453 
L 104.184393 82.993477 
L 104.263652 83.451536 
L 104.365699 84.153618 
L 104.448478 84.855701 
L 104.513071 85.557783 
L 104.541803 85.978138 
L 104.560836 86.259866 
L 104.593278 86.961948 
L 104.611901 87.664031 
L 104.618344 88.366114 
L 104.614267 89.068196 
L 104.601302 89.770279 
L 104.581013 90.472361 
L 104.554865 91.174444 
L 104.541803 91.47271 
L 104.524331 91.876526 
L 104.4906 92.578609 
L 104.454598 93.280691 
L 104.417197 93.982774 
L 104.379106 94.684856 
L 104.340879 95.386939 
L 104.302913 96.089009 
L 104.265451 96.791091 
L 104.228599 97.493174 
L 104.192334 98.195256 
L 104.184393 98.350437 
L 104.156569 98.897339 
L 104.121066 99.599421 
L 104.085552 100.301504 
L 104.049719 101.003586 
L 104.01323 101.705669 
L 103.975727 102.407752 
L 103.936833 103.109834 
L 103.896159 103.811917 
L 103.853298 104.513999 
L 103.826982 104.92044 
L 103.80797 105.216082 
L 103.759935 105.918164 
L 103.708594 106.620247 
L 103.653477 107.322329 
L 103.594097 108.024412 
L 103.529957 108.726494 
L 103.469572 109.338303 
L 103.460707 109.428577 
L 103.386893 110.130659 
L 103.307423 110.832742 
L 103.222052 111.534824 
L 103.130667 112.236907 
L 103.11218 112.371573 
L 103.034928 112.938977 
L 102.934327 113.641059 
L 102.828969 114.343142 
L 102.75477 114.820569 
L 102.720329 115.045224 
L 102.610513 115.747307 
L 102.498791 116.449389 
L 102.397359 117.082019 
L 102.38644 117.151472 
L 102.277053 117.853555 
L 102.168936 118.555637 
L 102.062905 119.25772 
L 102.039949 119.414457 
L 101.961788 119.959802 
L 101.864517 120.661885 
L 101.770783 121.363967 
L 101.682558 122.051449 
L 101.680714 122.06605 
L 101.595824 122.768132 
L 101.513957 123.470215 
L 101.434599 124.172297 
L 101.357052 124.87438 
L 101.325147 125.167426 
L 101.281024 125.576462 
L 101.205545 126.278545 
L 101.129398 126.980627 
L 101.051794 127.68271 
L 100.972053 128.384792 
L 100.967737 128.421574 
L 100.890645 129.086875 
L 100.80688 129.788957 
L 100.720726 130.491034 
L 100.632378 131.193116 
L 100.610326 131.364521 
L 100.543162 131.895199 
L 100.453433 132.597281 
L 100.363458 133.299364 
L 100.273709 134.001446 
L 100.252935 134.165015 
L 100.185368 134.703529 
L 100.098488 135.405617 
L 100.012911 136.1077 
L 99.928478 136.809782 
L 99.895524 137.08735 
L 99.845005 137.511865 
L 99.762127 138.213947 
L 99.679108 138.91603 
L 99.595155 139.618112 
L 99.538114 140.087331 
L 99.509207 140.320195 
L 99.420367 141.022277 
L 99.328343 141.724354 
L 99.232415 142.426436 
L 99.180703 142.791629 
L 99.131272 143.128519 
L 99.024703 143.830601 
L 98.913344 144.532684 
L 98.823312 145.079498 
L 98.796632 145.234766 
L 98.6738 145.936849 
L 98.547036 146.638938 
L 98.465902 147.08002 
L 98.415816 147.341014 
L 98.280521 148.043096 
L 98.143213 148.745179 
L 98.108491 148.92365 
L 98.002776 149.447261 
L 97.86108 150.149344 
L 97.751081 150.69413 
L 97.718201 150.851426 
L 97.573195 151.553509 
L 97.427204 152.255585 
L 97.393689 152.417182 
L 97.277602 152.957668 
L 97.124609 153.65975 
L 97.036279 154.057384 
L 96.965749 154.361833 
L 96.79871 155.063915 
L 96.678868 155.5471 
L 96.621727 155.765998 
L 96.430551 156.46808 
L 96.321458 156.847581 
L 96.223218 157.170163 
L 95.996777 157.872245 
L 95.964067 157.968953 
L 95.747563 158.574322 
L 95.606656 158.947977 
L 95.477295 159.276404 
L 95.249246 159.832359 
L 95.187909 159.978487 
L 94.891835 160.66601 
L 94.885583 160.680569 
L 94.582083 161.382652 
L 94.534444 161.492898 
L 94.287457 162.084734 
L 94.177033 162.353643 
L 94.008618 162.786817 
L 93.819623 163.287722 
L 93.748525 163.488906 
L 93.510352 164.190982 
L 93.462212 164.339784 
L 93.294649 164.893064 
L 93.104821 165.549718 
L 93.09241 165.595147 
L 92.909547 166.29723 
L 92.747411 166.94194 
L 92.733489 166.999312 
L 92.568484 167.701395 
L 92.404347 168.403477 
L 92.39 168.465451 
L 92.24208 169.105553 
L 92.074549 169.807636 
L 92.03259 169.978718 
L 91.898554 170.509718 
L 91.709571 171.211801 
L 91.675198 171.332962 
L 91.500517 171.913883 
L 91.317788 172.473299 
L 91.267267 172.615966 
L 91.000106 173.318048 
L 90.960377 173.41553 
L 90.687212 174.020131 
L 90.602967 174.194629 
L 90.315744 174.722217 
L 90.245576 174.844408 
L 89.888165 175.389804 
L 89.862097 175.424299 
L 89.530755 175.849358 
L 89.277995 176.126382 
L 89.173344 176.23888 
L 88.815953 176.570015 
L 88.489147 176.828464 
L 88.458542 176.852621 
L 88.101132 177.097216 
L 87.743721 177.311001 
L 87.38633 177.501495 
L 87.326586 177.530544 
L 87.02892 177.677932 
L 86.671509 177.844885 
L 86.314099 178.006281 
L 85.956707 178.164599 
L 85.800135 178.232626 
L 85.599297 178.321401 
L 85.241886 178.474023 
L 84.884476 178.617265 
L 84.527084 178.745335 
L 84.169674 178.85128 
L 83.812264 178.927275 
L 83.741063 178.934709 
L 83.454853 178.964452 
L 83.097462 178.954577 
L 82.988752 178.934709 
L 82.740051 178.887939 
L 82.382641 178.754059 
L 82.02523 178.543552 
L 81.667839 178.247614 
L 81.653881 178.232626 
L 81.310428 177.853304 
L 81.074191 177.530544 
L 80.953018 177.362453 
L 80.625933 176.828464 
L 80.595608 176.779001 
L 80.242003 176.126382 
L 80.238216 176.11951 
L 79.888982 175.424299 
L 79.880806 175.408496 
L 79.549221 174.722217 
L 79.523395 174.670692 
L 79.213294 174.020131 
L 79.165985 173.924573 
L 78.876628 173.318048 
L 78.808593 173.180196 
L 78.537854 172.615966 
L 78.451183 172.439999 
L 78.197894 171.913883 
L 78.093772 171.701053 
L 77.859302 171.211801 
L 77.736362 170.956527 
L 77.525709 170.509718 
L 77.378971 170.196467 
L 77.201269 169.807636 
L 77.02156 169.407486 
L 76.890029 169.105553 
L 76.66415 168.57239 
L 76.59523 168.403477 
L 76.318895 167.701395 
L 76.306739 167.669563 
L 76.062629 166.999312 
L 75.949348 166.674024 
L 75.824544 166.29723 
L 75.602876 165.595147 
L 75.591937 165.559448 
L 75.397203 164.893064 
L 75.234527 164.308869 
L 75.202969 164.190982 
L 75.01958 163.488906 
L 74.877116 162.922523 
L 74.84376 162.786817 
L 74.674178 162.084734 
L 74.519725 161.426571 
L 74.509444 161.382652 
L 74.346786 160.680569 
L 74.187275 159.978487 
L 74.162315 159.867181 
L 74.026765 159.276404 
L 73.867465 158.574322 
L 73.804904 158.295543 
L 73.706077 157.872245 
L 73.543401 157.170163 
L 73.447494 156.752768 
L 73.378874 156.46808 
L 73.211192 155.765998 
L 73.090102 155.254635 
L 73.042909 155.063915 
L 72.87183 154.361833 
L 72.732692 153.782328 
L 72.702452 153.65975 
L 72.533564 152.957668 
L 72.375281 152.281724 
L 72.369151 152.255585 
L 72.210212 151.553509 
L 72.057486 150.851426 
L 72.017871 150.662123 
L 71.91334 150.149344 
L 71.776076 149.447261 
L 71.66048 148.8323 
L 71.644772 148.745179 
L 71.521185 148.043096 
L 71.400079 147.341014 
L 71.303069 146.775138 
L 71.280747 146.638938 
L 71.163858 145.936849 
L 71.044314 145.234766 
L 70.945659 144.674484 
L 70.921728 144.532684 
L 70.797709 143.830601 
L 70.668215 143.128519 
L 70.588248 142.713232 
L 70.535424 142.426436 
L 70.401176 141.724354 
L 70.263721 141.022277 
L 70.230857 140.857427 
L 70.129277 140.320195 
L 69.996997 139.618112 
L 69.873446 138.948275 
L 69.867832 138.91603 
L 69.748697 138.213947 
L 69.635917 137.511865 
L 69.530694 136.809782 
L 69.516036 136.705002 
L 69.436859 136.1077 
L 69.351738 135.405617 
L 69.274663 134.703529 
L 69.205191 134.001446 
L 69.158625 133.48038 
L 69.142943 133.299364 
L 69.087351 132.597281 
L 69.036278 131.895199 
L 68.988588 131.193116 
L 68.943099 130.491034 
L 68.898631 129.788957 
L 68.854048 129.086875 
L 68.808298 128.384792 
L 68.801234 128.280163 
L 68.760185 127.68271 
L 68.708976 126.980627 
L 68.654168 126.278545 
L 68.595489 125.576462 
L 68.532971 124.87438 
L 68.466969 124.172297 
L 68.443824 123.934163 
L 68.397471 123.470215 
L 68.325779 122.768132 
L 68.253511 122.06605 
L 68.182085 121.363967 
L 68.112957 120.661885 
L 68.086413 120.376807 
L 68.047355 119.959802 
L 67.986671 119.25772 
L 67.931941 118.555637 
L 67.883737 117.853555 
L 67.842286 117.151472 
L 67.807481 116.449389 
L 67.778911 115.747307 
L 67.75591 115.045224 
L 67.737611 114.343142 
L 67.729003 113.930879 
L 67.723058 113.641059 
L 67.711166 112.938977 
L 67.700756 112.236907 
L 67.690764 111.534824 
L 67.680214 110.832742 
L 67.668268 110.130659 
L 67.654253 109.428577 
L 67.637684 108.726494 
L 67.618266 108.024412 
L 67.595892 107.322329 
L 67.570617 106.620247 
L 67.542645 105.918164 
L 67.512301 105.216082 
L 67.480016 104.513999 
L 67.44632 103.811917 
L 67.411833 103.109834 
L 67.377278 102.407752 
L 67.371611 102.289386 
L 67.3438 101.705669 
z
" clip-path="url(#pb3c4e40a4d)" style="fill: none; stroke: #d94801; stroke-opacity: 0.333333; stroke-width: 1.5"/>
   </g>
   <g id="PathCollection_7">
    <path d="M 71.99717 100.301504 
L 71.95043 99.599421 
L 71.909854 98.897339 
L 71.875555 98.195256 
L 71.847532 97.493174 
L 71.825719 96.791091 
L 71.810036 96.089009 
L 71.80042 95.386939 
L 71.796857 94.684856 
L 71.799402 93.982774 
L 71.80819 93.280691 
L 71.82344 92.578609 
L 71.845458 91.876526 
L 71.874636 91.174444 
L 71.91145 90.472361 
L 71.95646 89.770279 
L 72.010317 89.068196 
L 72.017871 88.984221 
L 72.073529 88.366114 
L 72.147131 87.664031 
L 72.232155 86.961948 
L 72.329781 86.259866 
L 72.375281 85.971923 
L 72.441183 85.557783 
L 72.567955 84.855701 
L 72.712232 84.153618 
L 72.732692 84.064911 
L 72.875739 83.451536 
L 73.061514 82.749453 
L 73.090102 82.652891 
L 73.271846 82.047371 
L 73.447494 81.528578 
L 73.510466 81.345288 
L 73.780422 80.643206 
L 73.804904 80.585905 
L 74.084973 79.941123 
L 74.162315 79.780713 
L 74.42802 79.239041 
L 74.519725 79.069533 
L 74.813209 78.536958 
L 74.877116 78.431156 
L 75.234527 77.851026 
L 75.24465 77.834876 
L 75.591937 77.326026 
L 75.727191 77.132793 
L 75.949348 76.839746 
L 76.268993 76.430711 
L 76.306739 76.385876 
L 76.66415 75.971725 
L 76.882103 75.728628 
L 77.02156 75.583422 
L 77.378971 75.225172 
L 77.586488 75.026546 
L 77.736362 74.891796 
L 78.093772 74.585933 
L 78.41939 74.324463 
L 78.451183 74.300322 
L 78.808593 74.044989 
L 79.165985 73.810304 
L 79.480784 73.622381 
L 79.523395 73.59815 
L 79.880806 73.415022 
L 80.238216 73.254595 
L 80.595608 73.117037 
L 80.953018 73.00186 
L 81.262639 72.92031 
L 81.310428 72.908222 
L 81.667839 72.835686 
L 82.02523 72.778565 
L 82.382641 72.733264 
L 82.740051 72.695806 
L 83.097462 72.662148 
L 83.454853 72.628531 
L 83.812264 72.591809 
L 84.169674 72.549717 
L 84.527084 72.501026 
L 84.884476 72.445602 
L 85.241886 72.384332 
L 85.599297 72.318994 
L 85.956707 72.252028 
L 86.140726 72.218228 
L 86.314099 72.18744 
L 86.671509 72.128309 
L 87.02892 72.076329 
L 87.38633 72.034136 
L 87.743721 72.004066 
L 88.101132 71.988108 
L 88.458542 71.987923 
L 88.815953 72.004852 
L 89.173344 72.039955 
L 89.530755 72.094046 
L 89.888165 72.167711 
L 90.081619 72.218228 
L 90.245576 72.263025 
L 90.602967 72.381068 
L 90.960377 72.519661 
L 91.317788 72.678444 
L 91.675198 72.856847 
L 91.79096 72.92031 
L 92.03259 73.059718 
L 92.39 73.283444 
L 92.747411 73.524054 
L 92.885584 73.622381 
L 93.104821 73.787586 
L 93.462212 74.07019 
L 93.769904 74.324463 
L 93.819623 74.368248 
L 94.177033 74.692069 
L 94.533046 75.026546 
L 94.534444 75.027955 
L 94.891835 75.395062 
L 95.206423 75.728628 
L 95.249246 75.777739 
L 95.606656 76.195441 
L 95.802517 76.430711 
L 95.964067 76.642586 
L 96.321458 77.124969 
L 96.327149 77.132793 
L 96.678868 77.666483 
L 96.786757 77.834876 
L 97.036279 78.268436 
L 97.186845 78.536958 
L 97.393689 78.950939 
L 97.534452 79.239041 
L 97.751081 79.739928 
L 97.836632 79.941123 
L 98.099958 80.643206 
L 98.108491 80.66891 
L 98.331815 81.345288 
L 98.465902 81.807567 
L 98.535682 82.047371 
L 98.716841 82.749453 
L 98.823312 83.216278 
L 98.877808 83.451536 
L 99.022207 84.153618 
L 99.149854 84.855701 
L 99.180703 85.048291 
L 99.264335 85.557783 
L 99.36509 86.259866 
L 99.452261 86.961948 
L 99.526574 87.664031 
L 99.538114 87.794505 
L 99.589552 88.366114 
L 99.640731 89.068196 
L 99.680686 89.770279 
L 99.710323 90.472361 
L 99.730647 91.174444 
L 99.74274 91.876526 
L 99.747723 92.578609 
L 99.746707 93.280691 
L 99.740751 93.982774 
L 99.73082 94.684856 
L 99.717765 95.386939 
L 99.70231 96.089009 
L 99.685046 96.791091 
L 99.666437 97.493174 
L 99.646828 98.195256 
L 99.62645 98.897339 
L 99.605433 99.599421 
L 99.583801 100.301504 
L 99.56148 101.003586 
L 99.538301 101.705669 
L 99.538114 101.71106 
L 99.51466 102.407752 
L 99.489644 103.109834 
L 99.462815 103.811917 
L 99.43368 104.513999 
L 99.401711 105.216082 
L 99.366366 105.918164 
L 99.327123 106.620247 
L 99.283496 107.322329 
L 99.235056 108.024412 
L 99.181442 108.726494 
L 99.180703 108.735256 
L 99.123799 109.428577 
L 99.06045 110.130659 
L 98.991133 110.832742 
L 98.915633 111.534824 
L 98.833744 112.236907 
L 98.823312 112.319975 
L 98.746092 112.938977 
L 98.651474 113.641059 
L 98.549501 114.343142 
L 98.465902 114.880217 
L 98.439861 115.045224 
L 98.32197 115.747307 
L 98.195846 116.449389 
L 98.108491 116.908872 
L 98.060892 117.151472 
L 97.916665 117.853555 
L 97.764921 118.555637 
L 97.751081 118.618205 
L 97.603838 119.25772 
L 97.437247 119.959802 
L 97.393689 120.142207 
L 97.264497 120.661885 
L 97.08924 121.363967 
L 97.036279 121.579136 
L 96.912012 122.06605 
L 96.735804 122.768132 
L 96.678868 123.001971 
L 96.561143 123.470215 
L 96.389522 124.172297 
L 96.321458 124.460686 
L 96.22077 124.87438 
L 96.054621 125.576462 
L 95.964067 125.96872 
L 95.890203 126.278545 
L 95.72607 126.980627 
L 95.606656 127.493099 
L 95.560959 127.68271 
L 95.39336 128.384792 
L 95.249246 128.978071 
L 95.221952 129.086875 
L 95.046504 129.788957 
L 94.891835 130.392755 
L 94.865994 130.491034 
L 94.682316 131.193116 
L 94.534444 131.749594 
L 94.495085 131.895199 
L 94.307694 132.597281 
L 94.177033 133.088109 
L 94.120286 133.299364 
L 93.935961 134.001446 
L 93.819623 134.452643 
L 93.75454 134.703529 
L 93.577496 135.405617 
L 93.462212 135.872183 
L 93.403405 136.1077 
L 93.231767 136.809782 
L 93.104821 137.331719 
L 93.060024 137.511865 
L 92.88541 138.213947 
L 92.747411 138.757207 
L 92.705466 138.91603 
L 92.51512 139.618112 
L 92.39 140.060914 
L 92.312485 140.320195 
L 92.093594 141.022277 
L 92.03259 141.210161 
L 91.853861 141.724354 
L 91.675198 142.222179 
L 91.596154 142.426436 
L 91.321501 143.128519 
L 91.317788 143.138021 
L 91.030128 143.830601 
L 90.960377 144.004461 
L 90.738414 144.532684 
L 90.602967 144.879439 
L 90.460653 145.234766 
L 90.245576 145.838484 
L 90.210411 145.936849 
L 89.991195 146.638938 
L 89.888165 147.03387 
L 89.809089 147.341014 
L 89.65846 148.043096 
L 89.537255 148.745179 
L 89.530755 148.788637 
L 89.431751 149.447261 
L 89.340671 150.149344 
L 89.257738 150.851426 
L 89.177035 151.553509 
L 89.173344 151.583398 
L 89.084613 152.255585 
L 88.982575 152.957668 
L 88.867237 153.65975 
L 88.815953 153.929395 
L 88.721554 154.361833 
L 88.542786 155.063915 
L 88.458542 155.350143 
L 88.306934 155.765998 
L 88.101132 156.255447 
L 87.979897 156.46808 
L 87.743721 156.831745 
L 87.399725 157.170163 
L 87.38633 157.181976 
L 87.02892 157.337281 
L 86.671509 157.353149 
L 86.314099 157.256946 
L 86.144262 157.170163 
L 85.956707 157.070942 
L 85.599297 156.821333 
L 85.241886 156.536996 
L 85.162087 156.46808 
L 84.884476 156.231106 
L 84.527084 155.924305 
L 84.341574 155.765998 
L 84.169674 155.624808 
L 83.812264 155.338375 
L 83.45525 155.063915 
L 83.454853 155.063624 
L 83.097462 154.802524 
L 82.740051 154.546166 
L 82.485647 154.361833 
L 82.382641 154.289319 
L 82.02523 154.027021 
L 81.667839 153.745156 
L 81.568847 153.65975 
L 81.310428 153.436177 
L 80.953018 153.083528 
L 80.841598 152.957668 
L 80.595608 152.674021 
L 80.285888 152.255585 
L 80.238216 152.189487 
L 79.880806 151.61808 
L 79.84553 151.553509 
L 79.523395 150.949198 
L 79.477291 150.851426 
L 79.165985 150.178916 
L 79.153675 150.149344 
L 78.863102 149.447261 
L 78.808593 149.31448 
L 78.594295 148.745179 
L 78.451183 148.363558 
L 78.340142 148.043096 
L 78.097147 147.341014 
L 78.093772 147.331275 
L 77.870393 146.638938 
L 77.736362 146.220075 
L 77.651698 145.936849 
L 77.444366 145.234766 
L 77.378971 145.008776 
L 77.249566 144.532684 
L 77.064756 143.830601 
L 77.02156 143.659771 
L 76.894348 143.128519 
L 76.734926 142.426436 
L 76.66415 142.094249 
L 76.588572 141.724354 
L 76.455302 141.022277 
L 76.332823 140.320195 
L 76.306739 140.155294 
L 76.223571 139.618112 
L 76.125444 138.91603 
L 76.037442 138.213947 
L 75.95903 137.511865 
L 75.949348 137.413104 
L 75.889715 136.809782 
L 75.827837 136.1077 
L 75.772092 135.405617 
L 75.721032 134.703529 
L 75.673017 134.001446 
L 75.626248 133.299364 
L 75.591937 132.789373 
L 75.578479 132.597281 
L 75.526945 131.895199 
L 75.470583 131.193116 
L 75.407694 130.491034 
L 75.33685 129.788957 
L 75.256973 129.086875 
L 75.234527 128.910945 
L 75.163763 128.384792 
L 75.058608 127.68271 
L 74.942964 126.980627 
L 74.877116 126.612975 
L 74.814154 126.278545 
L 74.672709 125.576462 
L 74.524428 124.87438 
L 74.519725 124.853069 
L 74.3652 124.172297 
L 74.204629 123.470215 
L 74.162315 123.285933 
L 74.043722 122.768132 
L 73.887552 122.06605 
L 73.804904 121.678392 
L 73.740135 121.363967 
L 73.603829 120.661885 
L 73.47962 119.959802 
L 73.447494 119.760961 
L 73.370387 119.25772 
L 73.274739 118.555637 
L 73.19183 117.853555 
L 73.121224 117.151472 
L 73.090102 116.786213 
L 73.062649 116.449389 
L 73.014433 115.747307 
L 72.974511 115.045224 
L 72.941339 114.343142 
L 72.913202 113.641059 
L 72.88829 112.938977 
L 72.864774 112.236907 
L 72.840892 111.534824 
L 72.81503 110.832742 
L 72.785801 110.130659 
L 72.752104 109.428577 
L 72.732692 109.080405 
L 72.712852 108.726494 
L 72.667487 108.024412 
L 72.616354 107.322329 
L 72.55991 106.620247 
L 72.498974 105.918164 
L 72.434662 105.216082 
L 72.375281 104.588697 
L 72.368169 104.513999 
L 72.29994 103.811917 
L 72.232637 103.109834 
L 72.167654 102.407752 
L 72.106198 101.705669 
L 72.049242 101.003586 
L 72.017871 100.580436 
L 71.99717 100.301504 
z
" clip-path="url(#pb3c4e40a4d)" style="fill: none; stroke: #d94801; stroke-opacity: 0.555556; stroke-width: 1.5"/>
   </g>
   <g id="PathCollection_8">
    <path d="M 75.926553 99.599421 
L 75.854347 98.897339 
L 75.79137 98.195256 
L 75.738676 97.493174 
L 75.69702 96.791091 
L 75.666866 96.089009 
L 75.648416 95.386939 
L 75.641659 94.684856 
L 75.646423 93.982774 
L 75.66243 93.280691 
L 75.689357 92.578609 
L 75.726884 91.876526 
L 75.774751 91.174444 
L 75.832807 90.472361 
L 75.901052 89.770279 
L 75.949348 89.337954 
L 75.98011 89.068196 
L 76.070795 88.366114 
L 76.173136 87.664031 
L 76.288131 86.961948 
L 76.306739 86.860278 
L 76.418838 86.259866 
L 76.565601 85.557783 
L 76.66415 85.136495 
L 76.731304 84.855701 
L 76.919153 84.153618 
L 77.02156 83.811707 
L 77.132389 83.451536 
L 77.374283 82.749453 
L 77.378971 82.737272 
L 77.653831 82.047371 
L 77.736362 81.861829 
L 77.9764 81.345288 
L 78.093772 81.118453 
L 78.353372 80.643206 
L 78.451183 80.481797 
L 78.801057 79.941123 
L 78.808593 79.930577 
L 79.165985 79.46704 
L 79.358497 79.239041 
L 79.523395 79.061238 
L 79.880806 78.713967 
L 80.086143 78.536958 
L 80.238216 78.416983 
L 80.595608 78.17077 
L 80.953018 77.959897 
L 81.204392 77.834876 
L 81.310428 77.786393 
L 81.667839 77.650432 
L 82.02523 77.53877 
L 82.382641 77.44712 
L 82.740051 77.370905 
L 83.097462 77.305579 
L 83.454853 77.246971 
L 83.812264 77.191529 
L 84.169674 77.136535 
L 84.193603 77.132793 
L 84.527084 77.084191 
L 84.884476 77.03029 
L 85.241886 76.974679 
L 85.599297 76.918276 
L 85.956707 76.862686 
L 86.314099 76.810079 
L 86.671509 76.763053 
L 87.02892 76.724506 
L 87.38633 76.697483 
L 87.743721 76.685046 
L 88.101132 76.69015 
L 88.458542 76.715551 
L 88.815953 76.763731 
L 89.173344 76.836851 
L 89.530755 76.936746 
L 89.888165 77.064889 
L 90.041941 77.132793 
L 90.245576 77.231077 
L 90.602967 77.436343 
L 90.960377 77.674213 
L 91.172505 77.834876 
L 91.317788 77.955229 
L 91.675198 78.286206 
L 91.921358 78.536958 
L 92.03259 78.661423 
L 92.39 79.095913 
L 92.499672 79.239041 
L 92.747411 79.596393 
L 92.972281 79.941123 
L 93.104821 80.167333 
L 93.369224 80.643206 
L 93.462212 80.83115 
L 93.704964 81.345288 
L 93.819623 81.620828 
L 93.989859 82.047371 
L 94.177033 82.585989 
L 94.231742 82.749453 
L 94.433771 83.451536 
L 94.534444 83.864337 
L 94.602641 84.153618 
L 94.740706 84.855701 
L 94.853775 85.557783 
L 94.891835 85.852377 
L 94.943059 86.259866 
L 95.012188 86.961948 
L 95.064875 87.664031 
L 95.103745 88.366114 
L 95.131373 89.068196 
L 95.150261 89.770279 
L 95.162816 90.472361 
L 95.171305 91.174444 
L 95.177822 91.876526 
L 95.184235 92.578609 
L 95.192134 93.280691 
L 95.202771 93.982774 
L 95.21701 94.684856 
L 95.235277 95.386939 
L 95.249246 95.829189 
L 95.257282 96.089009 
L 95.282153 96.791091 
L 95.309354 97.493174 
L 95.337627 98.195256 
L 95.365497 98.897339 
L 95.391387 99.599421 
L 95.41372 100.301504 
L 95.431006 101.003586 
L 95.441888 101.705669 
L 95.445165 102.407752 
L 95.439783 103.109834 
L 95.424812 103.811917 
L 95.399411 104.513999 
L 95.362802 105.216082 
L 95.31425 105.918164 
L 95.253068 106.620247 
L 95.249246 106.656671 
L 95.171974 107.322329 
L 95.075101 108.024412 
L 94.962491 108.726494 
L 94.891835 109.115308 
L 94.828789 109.428577 
L 94.671956 110.130659 
L 94.534444 110.693272 
L 94.497412 110.832742 
L 94.298865 111.534824 
L 94.177033 111.945357 
L 94.0861 112.236907 
L 93.861601 112.938977 
L 93.819623 113.068278 
L 93.630723 113.641059 
L 93.462212 114.155866 
L 93.401102 114.343142 
L 93.174868 115.045224 
L 93.104821 115.266589 
L 92.954339 115.747307 
L 92.747411 116.425954 
L 92.740311 116.449389 
L 92.529169 117.151472 
L 92.39 117.622324 
L 92.321109 117.853555 
L 92.111857 118.555637 
L 92.03259 118.820205 
L 91.898141 119.25772 
L 91.679485 119.959802 
L 91.675198 119.973207 
L 91.445796 120.661885 
L 91.317788 121.03493 
L 91.199157 121.363967 
L 90.960377 122.001518 
L 90.934833 122.06605 
L 90.644248 122.768132 
L 90.602967 122.863454 
L 90.323439 123.470215 
L 90.245576 123.631328 
L 89.966541 124.172297 
L 89.888165 124.316985 
L 89.564833 124.87438 
L 89.530755 124.930373 
L 89.173344 125.477652 
L 89.104068 125.576462 
L 88.815953 125.969397 
L 88.572718 126.278545 
L 88.458542 126.418364 
L 88.101132 126.82947 
L 87.962496 126.980627 
L 87.743721 127.213842 
L 87.38633 127.582196 
L 87.286664 127.68271 
L 87.02892 127.942015 
L 86.671509 128.304622 
L 86.592969 128.384792 
L 86.314099 128.675106 
L 85.956707 129.060435 
L 85.93211 129.086875 
L 85.599297 129.459293 
L 85.308767 129.788957 
L 85.241886 129.868863 
L 84.884476 130.27599 
L 84.67911 130.491034 
L 84.527084 130.661045 
L 84.169674 130.993471 
L 83.868352 131.193116 
L 83.812264 131.233286 
L 83.454853 131.329454 
L 83.097462 131.220364 
L 83.069983 131.193116 
L 82.740051 130.836262 
L 82.563437 130.491034 
L 82.382641 130.111141 
L 82.273182 129.788957 
L 82.044323 129.086875 
L 82.02523 129.027671 
L 81.854588 128.384792 
L 81.667839 127.68338 
L 81.667681 127.68271 
L 81.495938 126.980627 
L 81.317302 126.278545 
L 81.310428 126.252693 
L 81.141411 125.576462 
L 80.956039 124.87438 
L 80.953018 124.863438 
L 80.767538 124.172297 
L 80.595608 123.565483 
L 80.56893 123.470215 
L 80.364071 122.768132 
L 80.238216 122.354797 
L 80.150761 122.06605 
L 79.93086 121.363967 
L 79.880806 121.208091 
L 79.707411 120.661885 
L 79.523395 120.095037 
L 79.480532 119.959802 
L 79.256352 119.25772 
L 79.165985 118.975956 
L 79.036909 118.555637 
L 78.822546 117.853555 
L 78.808593 117.807184 
L 78.623166 117.151472 
L 78.451183 116.528056 
L 78.430952 116.449389 
L 78.256727 115.747307 
L 78.093772 115.059941 
L 78.090535 115.045224 
L 77.943489 114.343142 
L 77.805266 113.641059 
L 77.736362 113.269158 
L 77.679467 112.938977 
L 77.565741 112.236907 
L 77.45921 111.534824 
L 77.378971 110.974686 
L 77.359823 110.832742 
L 77.268924 110.130659 
L 77.181298 109.428577 
L 77.095561 108.726494 
L 77.02156 108.117263 
L 77.010733 108.024412 
L 76.927635 107.322329 
L 76.842622 106.620247 
L 76.754876 105.918164 
L 76.66415 105.218057 
L 76.6639 105.216082 
L 76.571931 104.513999 
L 76.477091 103.811917 
L 76.380167 103.109834 
L 76.306739 102.582862 
L 76.282877 102.407752 
L 76.187938 101.705669 
L 76.095605 101.003586 
L 76.007722 100.301504 
L 75.949348 99.799761 
L 75.926553 99.599421 
z
" clip-path="url(#pb3c4e40a4d)" style="fill: none; stroke: #d94801; stroke-opacity: 0.666667; stroke-width: 1.5"/>
   </g>
   <g id="PathCollection_9">
    <path d="M 80.949339 98.195256 
L 80.878964 97.493174 
L 80.82646 96.791091 
L 80.792653 96.089009 
L 80.778382 95.386939 
L 80.784457 94.684856 
L 80.811642 93.982774 
L 80.860662 93.280691 
L 80.932238 92.578609 
L 80.953018 92.42266 
L 81.030257 91.876526 
L 81.155813 91.174444 
L 81.310183 90.472361 
L 81.310428 90.471405 
L 81.507568 89.770279 
L 81.667839 89.291114 
L 81.751138 89.068196 
L 82.02523 88.441028 
L 82.062853 88.366114 
L 82.382641 87.812654 
L 82.485117 87.664031 
L 82.740051 87.337381 
L 83.097462 86.972221 
L 83.110235 86.961948 
L 83.454853 86.710757 
L 83.812264 86.52426 
L 84.169674 86.406024 
L 84.527084 86.350366 
L 84.884476 86.352191 
L 85.241886 86.407141 
L 85.599297 86.511778 
L 85.956707 86.663853 
L 86.314099 86.86267 
L 86.460567 86.961948 
L 86.671509 87.112535 
L 87.02892 87.419326 
L 87.268501 87.664031 
L 87.38633 87.79653 
L 87.743721 88.273254 
L 87.803629 88.366114 
L 88.101132 88.908747 
L 88.175763 89.068196 
L 88.441633 89.770279 
L 88.458542 89.825935 
L 88.632516 90.472361 
L 88.772291 91.174444 
L 88.815953 91.464021 
L 88.873533 91.876526 
L 88.946139 92.578609 
L 88.996929 93.280691 
L 89.030567 93.982774 
L 89.050407 94.684856 
L 89.058772 95.386939 
L 89.057139 96.089009 
L 89.046263 96.791091 
L 89.026256 97.493174 
L 88.996639 98.195256 
L 88.956386 98.897339 
L 88.903979 99.599421 
L 88.837497 100.301504 
L 88.815953 100.489839 
L 88.754266 101.003586 
L 88.651564 101.705669 
L 88.527046 102.407752 
L 88.458542 102.739608 
L 88.376559 103.109834 
L 88.197402 103.811917 
L 88.101132 104.14568 
L 87.985307 104.513999 
L 87.743721 105.201822 
L 87.738149 105.216082 
L 87.441656 105.918164 
L 87.38633 106.039891 
L 87.084091 106.620247 
L 87.02892 106.720243 
L 86.671509 107.264356 
L 86.623499 107.322329 
L 86.314099 107.682264 
L 85.956707 107.980362 
L 85.870057 108.024412 
L 85.599297 108.159686 
L 85.241886 108.220794 
L 84.884476 108.162118 
L 84.612235 108.024412 
L 84.527084 107.981705 
L 84.169674 107.679617 
L 83.869374 107.322329 
L 83.812264 107.254424 
L 83.454853 106.71098 
L 83.405177 106.620247 
L 83.097462 106.052048 
L 83.034459 105.918164 
L 82.740051 105.278486 
L 82.714263 105.216082 
L 82.433416 104.513999 
L 82.382641 104.381129 
L 82.182518 103.811917 
L 82.02523 103.335547 
L 81.955375 103.109834 
L 81.752916 102.407752 
L 81.667839 102.086233 
L 81.571806 101.705669 
L 81.410884 101.003586 
L 81.310428 100.513247 
L 81.268387 100.301504 
L 81.145139 99.599421 
L 81.038636 98.897339 
L 80.953018 98.224582 
L 80.949339 98.195256 
z
" clip-path="url(#pb3c4e40a4d)" style="fill: none; stroke: #d94801; stroke-opacity: 0.888889; stroke-width: 1.5"/>
   </g>
   <g id="PathCollection_10"/>
   <g id="patch_3">
    <path d="M 29.25 224.28 
L 29.25 63.504 
" style="fill: none; stroke: #000000; stroke-width: 3; stroke-linejoin: miter; stroke-linecap: square"/>
   </g>
   <g id="patch_4">
    <path d="M 29.25 224.28 
L 179.511429 224.28 
" style="fill: none; stroke: #000000; stroke-width: 3; stroke-linejoin: miter; stroke-linecap: square"/>
   </g>
   <g id="text_1">
    <!-- $\theta^*$ -->
    <g transform="translate(107.697623 201.21401)scale(0.14 -0.14)">
     <defs>
      <path id="DejaVuSerif-Italic-3b8" d="M 2888 2600 
Q 3059 3603 2947 4113 
Q 2822 4678 2359 4678 
Q 1900 4678 1553 4113 
Q 1244 3603 1025 2600 
L 2888 2600 
z
M 2822 2266 
L 959 2266 
Q 791 1269 903 759 
Q 1031 191 1488 191 
Q 1947 191 2294 759 
Q 2603 1269 2822 2266 
z
M 2409 4931 
Q 3138 4931 3444 4248 
Q 3750 3566 3529 2433 
Q 3309 1300 2734 615 
Q 2159 -69 1434 -69 
Q 713 -69 406 615 
Q 100 1300 320 2433 
Q 541 3566 1112 4248 
Q 1684 4931 2409 4931 
z
" transform="scale(0.015625)"/>
      <path id="DejaVuSerif-2a" d="M 3097 3866 
L 1875 3297 
L 3097 2719 
L 2859 2350 
L 1772 3028 
L 1813 1838 
L 1388 1838 
L 1428 3028 
L 341 2350 
L 103 2719 
L 1325 3291 
L 103 3866 
L 341 4238 
L 1428 3559 
L 1388 4750 
L 1813 4750 
L 1772 3559 
L 2859 4238 
L 3097 3866 
z
" transform="scale(0.015625)"/>
     </defs>
     <use xlink:href="#DejaVuSerif-Italic-3b8" transform="translate(0 0.7125)"/>
     <use xlink:href="#DejaVuSerif-2a" transform="translate(81.239167 37.046875)scale(0.7)"/>
    </g>
   </g>
  </g>
 </g>
 <defs>
  <clipPath id="pb3c4e40a4d">
   <rect x="29.25" y="63.504" width="150.261429" height="160.776"/>
  </clipPath>
 </defs>
</svg>
