<?xml version="1.0" encoding="utf-8" standalone="no"?>
<!DOCTYPE svg PUBLIC "-//W3C//DTD SVG 1.1//EN"
  "http://www.w3.org/Graphics/SVG/1.1/DTD/svg11.dtd">
<svg xmlns:xlink="http://www.w3.org/1999/xlink" width="234pt" height="252pt" viewBox="0 0 234 252" xmlns="http://www.w3.org/2000/svg" version="1.1">
 <metadata>
  <rdf:RDF xmlns:dc="http://purl.org/dc/elements/1.1/" xmlns:cc="http://creativecommons.org/ns#" xmlns:rdf="http://www.w3.org/1999/02/22-rdf-syntax-ns#">
   <cc:Work>
    <dc:type rdf:resource="http://purl.org/dc/dcmitype/StillImage"/>
    <dc:date>2023-01-19T22:46:05.168309</dc:date>
    <dc:format>image/svg+xml</dc:format>
    <dc:creator>
     <cc:Agent>
      <dc:title>Matplotlib v3.5.0, https://matplotlib.org/</dc:title>
     </cc:Agent>
    </dc:creator>
   </cc:Work>
  </rdf:RDF>
 </metadata>
 <defs>
  <style type="text/css">*{stroke-linejoin: round; stroke-linecap: butt}</style>
 </defs>
 <g id="figure_1">
  <g id="patch_1">
   <path d="M 0 252 
L 234 252 
L 234 0 
L 0 0 
L 0 252 
z
" style="fill: none"/>
  </g>
  <g id="axes_1">
   <g id="patch_2">
    <path d="M 29.25 224.28 
L 179.511429 224.28 
L 179.511429 63.504 
L 29.25 63.504 
L 29.25 224.28 
z
" style="fill: none"/>
   </g>
   <g id="PathCollection_1">
    <defs>
     <path id="m15e65d3db4" d="M 0 -3.535534 
L -0.793777 -1.09254 
L -3.362493 -1.09254 
L -1.284358 0.417313 
L -2.078135 2.860307 
L -0 1.350454 
L 2.078135 2.860307 
L 1.284358 0.417313 
L 3.362493 -1.09254 
L 0.793777 -1.09254 
z
" style="stroke: #000000"/>
    </defs>
    <g clip-path="url(#p5495b8fc1a)">
     <use xlink:href="#m15e65d3db4" x="107.697623" y="206.03729" style="stroke: #000000"/>
    </g>
   </g>
   <g id="PathCollection_2">
    <defs>
     <path id="mef79a764b6" d="M 0 2.236068 
C 0.593012 2.236068 1.161816 2.000462 1.581139 1.581139 
C 2.000462 1.161816 2.236068 0.593012 2.236068 0 
C 2.236068 -0.593012 2.000462 -1.161816 1.581139 -1.581139 
C 1.161816 -2.000462 0.593012 -2.236068 0 -2.236068 
C -0.593012 -2.236068 -1.161816 -2.000462 -1.581139 -1.581139 
C -2.000462 -1.161816 -2.236068 -0.593012 -2.236068 0 
C -2.236068 0.593012 -2.000462 1.161816 -1.581139 1.581139 
C -1.161816 2.000462 -0.593012 2.236068 0 2.236068 
z
" style="stroke: #d94801"/>
    </defs>
    <g clip-path="url(#p5495b8fc1a)">
     <use xlink:href="#mef79a764b6" x="89.304321" y="175.44839" style="fill: #d94801; stroke: #d94801"/>
    </g>
   </g>
   <g id="PathCollection_3">
    <g clip-path="url(#p5495b8fc1a)">
     <use xlink:href="#mef79a764b6" x="92.378326" y="101.45886" style="fill: #d94801; stroke: #d94801"/>
    </g>
   </g>
   <g id="matplotlib.axis_1"/>
   <g id="matplotlib.axis_2"/>
   <g id="PathCollection_4"/>
   <g id="PathCollection_5">
    <path d="M 62.467436 114.40294 
L 62.452359 113.595024 
L 62.439583 112.787096 
L 62.428453 111.979181 
L 62.418054 111.171265 
L 62.407225 110.363337 
L 62.394606 109.555422 
L 62.378716 108.747506 
L 62.358072 107.939578 
L 62.331345 107.131663 
L 62.29754 106.323735 
L 62.256183 105.515819 
L 62.207475 104.707904 
L 62.152386 103.899976 
L 62.092646 103.09206 
L 62.03061 102.284145 
L 61.969036 101.476217 
L 61.910807 100.668301 
L 61.858641 99.860373 
L 61.814879 99.052458 
L 61.781351 98.244542 
L 61.759333 97.436614 
L 61.74959 96.628699 
L 61.752447 95.820783 
L 61.767893 95.012868 
L 61.795672 94.204952 
L 61.835362 93.397024 
L 61.886432 92.589108 
L 61.94829 91.781193 
L 62.020311 90.973265 
L 62.101861 90.165349 
L 62.192333 89.357434 
L 62.291172 88.549506 
L 62.397915 87.74159 
L 62.47364 87.202025 
L 62.508481 86.933663 
L 62.618448 86.125747 
L 62.735541 85.317831 
L 62.860516 84.509904 
L 62.994597 83.701988 
L 63.139531 82.894072 
L 63.228718 82.43236 
L 63.291891 82.086144 
L 63.452235 81.278229 
L 63.631832 80.470301 
L 63.834861 79.662385 
L 63.983797 79.135685 
L 64.059709 78.85447 
L 64.304296 78.046542 
L 64.585885 77.238626 
L 64.738876 76.850584 
L 64.894681 76.430711 
L 65.234648 75.622795 
L 65.493955 75.082518 
L 65.613611 74.81488 
L 66.021696 74.006952 
L 66.249034 73.610949 
L 66.474069 73.199036 
L 66.982481 72.391121 
L 67.004113 72.360215 
L 67.549961 71.583193 
L 67.75921 71.321834 
L 68.221027 70.775277 
L 68.514289 70.466247 
L 69.035526 69.967362 
L 69.269368 69.763453 
L 70.024447 69.177158 
L 70.049413 69.159434 
L 70.779526 68.668577 
L 71.300786 68.351518 
L 71.534624 68.2137 
L 72.289702 67.790261 
L 72.754552 67.543602 
L 73.044781 67.391267 
L 73.799879 67.012289 
L 74.396078 66.735675 
L 74.554958 66.661882 
L 75.310037 66.334167 
L 76.065116 66.043434 
L 76.396034 65.927759 
L 76.820194 65.777387 
L 77.575273 65.534332 
L 78.330352 65.317642 
L 79.085431 65.126965 
L 79.117827 65.119843 
L 79.840529 64.953856 
L 80.595608 64.820479 
L 81.350686 64.731954 
L 82.105765 64.684083 
L 82.860844 64.66161 
L 83.615942 64.641938 
L 84.371021 64.60437 
L 85.1261 64.539603 
L 85.881197 64.452784 
L 86.636276 64.358754 
L 87.054177 64.311916 
L 87.391355 64.27091 
L 88.146434 64.205318 
L 88.901513 64.178485 
L 89.656611 64.199182 
L 90.411689 64.273567 
L 90.636614 64.311916 
L 91.166768 64.396767 
L 91.921866 64.567408 
L 92.676945 64.782871 
L 93.432024 65.032887 
L 93.681518 65.119843 
L 94.187103 65.290773 
L 94.942181 65.550428 
L 95.69726 65.809781 
L 96.057155 65.927759 
L 96.452339 66.055275 
L 97.207418 66.284657 
L 97.962516 66.500458 
L 98.717595 66.699163 
L 98.870856 66.735675 
L 99.472673 66.87877 
L 100.227752 67.061358 
L 100.982831 67.278574 
L 101.67325 67.543602 
L 101.737929 67.569354 
L 102.493008 67.967736 
L 103.04405 68.351518 
L 103.248087 68.503055 
L 103.986461 69.159434 
L 104.003184 69.175482 
L 104.758263 69.963113 
L 104.762307 69.967362 
L 105.472498 70.775277 
L 105.513342 70.826151 
L 106.159998 71.583193 
L 106.268421 71.723426 
L 106.840419 72.391121 
L 107.0235 72.629975 
L 107.510562 73.199036 
L 107.778578 73.554573 
L 108.146214 74.006952 
L 108.533657 74.560572 
L 108.712634 74.81488 
L 109.193577 75.622795 
L 109.288736 75.813817 
L 109.579604 76.430711 
L 109.885842 77.238626 
L 110.043834 77.761688 
L 110.124119 78.046542 
L 110.308072 78.85447 
L 110.450154 79.662385 
L 110.55825 80.470301 
L 110.639065 81.278229 
L 110.698192 82.086144 
L 110.740212 82.894072 
L 110.768785 83.701988 
L 110.786776 84.509904 
L 110.79637 85.317831 
L 110.798913 86.049373 
L 110.799191 86.125747 
L 110.798913 86.201441 
L 110.796339 86.933663 
L 110.7886 87.74159 
L 110.776384 88.549506 
L 110.759838 89.357434 
L 110.738874 90.165349 
L 110.713212 90.973265 
L 110.682415 91.781193 
L 110.645948 92.589108 
L 110.603241 93.397024 
L 110.553787 94.204952 
L 110.497248 95.012868 
L 110.433566 95.820783 
L 110.363079 96.628699 
L 110.286582 97.436614 
L 110.205347 98.244542 
L 110.121055 99.052458 
L 110.043834 99.783143 
L 110.036486 99.860373 
L 109.960627 100.668301 
L 109.886889 101.476217 
L 109.816296 102.284145 
L 109.749472 103.09206 
L 109.686593 103.899976 
L 109.627411 104.707904 
L 109.571321 105.515819 
L 109.517464 106.323735 
L 109.464835 107.131663 
L 109.412389 107.939578 
L 109.359113 108.747506 
L 109.304086 109.555422 
L 109.288736 109.77046 
L 109.249454 110.363337 
L 109.192846 111.171265 
L 109.132847 111.979181 
L 109.069272 112.787096 
L 109.002089 113.595024 
L 108.931445 114.40294 
L 108.857691 115.210855 
L 108.781428 116.018771 
L 108.703535 116.826687 
L 108.625176 117.634614 
L 108.547784 118.44253 
L 108.533657 118.59793 
L 108.477489 119.250446 
L 108.411978 120.058374 
L 108.351403 120.866289 
L 108.29674 121.674211 
L 108.248612 122.482133 
L 108.207177 123.290054 
L 108.172052 124.09797 
L 108.142284 124.905892 
L 108.116379 125.713813 
L 108.092381 126.521729 
L 108.068002 127.329651 
L 108.040791 128.137566 
L 108.008319 128.945488 
L 107.968373 129.75341 
L 107.919129 130.561325 
L 107.859282 131.369247 
L 107.788136 132.177169 
L 107.778578 132.270972 
L 107.704022 132.985084 
L 107.608845 133.793006 
L 107.504281 134.600922 
L 107.392175 135.408843 
L 107.274533 136.216765 
L 107.153292 137.024681 
L 107.030129 137.832602 
L 107.0235 137.875627 
L 106.908691 138.640524 
L 106.789013 139.44844 
L 106.671558 140.256361 
L 106.556371 141.064277 
L 106.443077 141.872199 
L 106.331017 142.68012 
L 106.268421 143.132299 
L 106.221623 143.488036 
L 106.116045 144.295958 
L 106.01152 145.10388 
L 105.907841 145.911795 
L 105.805005 146.719717 
L 105.703217 147.527632 
L 105.602838 148.335554 
L 105.513342 149.069389 
L 105.504854 149.143476 
L 105.415064 149.951391 
L 105.32914 150.759313 
L 105.247142 151.567235 
L 105.168951 152.375151 
L 105.094279 153.183072 
L 105.022695 153.990994 
L 104.953652 154.798916 
L 104.886501 155.606837 
L 104.820498 156.414753 
L 104.758263 157.181059 
L 104.755025 157.222675 
L 104.693345 158.030596 
L 104.630473 158.838512 
L 104.565119 159.646434 
L 104.495818 160.454349 
L 104.420961 161.262271 
L 104.338892 162.070193 
L 104.248071 162.878108 
L 104.147278 163.68603 
L 104.035841 164.493952 
L 104.003184 164.713027 
L 103.919505 165.301867 
L 103.795412 166.109789 
L 103.662329 166.917705 
L 103.521703 167.725626 
L 103.375276 168.533548 
L 103.248087 169.216179 
L 103.224839 169.341464 
L 103.070876 170.149386 
L 102.913301 170.957307 
L 102.752849 171.765223 
L 102.589753 172.573145 
L 102.493008 173.043901 
L 102.419521 173.381063 
L 102.23825 174.188982 
L 102.050531 174.996904 
L 101.855445 175.804822 
L 101.737929 176.27292 
L 101.644491 176.612741 
L 101.412102 177.42066 
L 101.167816 178.228581 
L 100.982831 178.814679 
L 100.907538 179.0365 
L 100.624194 179.844422 
L 100.332292 180.65234 
L 100.227752 180.937834 
L 100.03638 181.460259 
L 99.740474 182.268181 
L 99.472673 183.008749 
L 99.449997 183.076099 
L 99.182588 183.884018 
L 98.920582 184.69194 
L 98.717595 185.331783 
L 98.667675 185.499858 
L 98.428117 186.30778 
L 98.183814 187.115699 
L 97.962516 187.826017 
L 97.931408 187.923621 
L 97.661032 188.731539 
L 97.362627 189.539458 
L 97.207418 189.925475 
L 97.015716 190.347376 
L 96.601999 191.155298 
L 96.452339 191.417787 
L 96.096636 191.963217 
L 95.69726 192.510205 
L 95.493284 192.771136 
L 94.942181 193.421218 
L 94.807739 193.579054 
L 94.187103 194.265216 
L 94.076076 194.386976 
L 93.432024 195.058363 
L 93.291072 195.194895 
L 92.676945 195.763661 
L 92.376618 196.002813 
L 91.921866 196.352565 
L 91.213386 196.810732 
L 91.166768 196.840293 
L 90.411689 197.280776 
L 89.852073 197.618654 
L 89.656611 197.735999 
L 88.901513 198.227218 
L 88.596149 198.426572 
L 88.146434 198.715456 
L 87.391355 199.126593 
L 87.100946 199.234491 
L 86.636276 199.405334 
L 85.881197 199.536295 
L 85.1261 199.54407 
L 84.371021 199.479437 
L 83.615942 199.407426 
L 82.860844 199.39295 
L 82.105765 199.474175 
L 81.350686 199.637089 
L 80.595608 199.816795 
L 79.840529 199.920437 
L 79.085431 199.842961 
L 78.330352 199.469272 
L 78.091026 199.234491 
L 77.575273 198.668462 
L 77.424687 198.426572 
L 76.970513 197.618654 
L 76.820194 197.322861 
L 76.598088 196.810732 
L 76.273288 196.002813 
L 76.065116 195.450181 
L 75.970351 195.194895 
L 75.679858 194.386976 
L 75.399473 193.579054 
L 75.310037 193.318634 
L 75.110696 192.771136 
L 74.820724 191.963217 
L 74.554958 191.213176 
L 74.533051 191.155298 
L 74.225763 190.347376 
L 73.922983 189.539458 
L 73.799879 189.213173 
L 73.607948 188.731539 
L 73.283735 187.923621 
L 73.044781 187.334324 
L 72.94998 187.115699 
L 72.589542 186.30778 
L 72.289702 185.649389 
L 72.21672 185.499858 
L 71.812661 184.69194 
L 71.534624 184.139769 
L 71.404459 183.884018 
L 70.999149 183.076099 
L 70.779526 182.621571 
L 70.622247 182.268181 
L 70.28396 181.460259 
L 70.024447 180.780442 
L 69.980909 180.65234 
L 69.723677 179.844422 
L 69.492432 179.0365 
L 69.284605 178.228581 
L 69.269368 178.164809 
L 69.099805 177.42066 
L 68.929856 176.612741 
L 68.772325 175.804822 
L 68.625262 174.996904 
L 68.514289 174.35027 
L 68.485123 174.188982 
L 68.344273 173.381063 
L 68.207815 172.573145 
L 68.074818 171.765223 
L 67.94454 170.957307 
L 67.816428 170.149386 
L 67.75921 169.78331 
L 67.68118 169.341464 
L 67.539651 168.533548 
L 67.39907 167.725626 
L 67.259543 166.917705 
L 67.121181 166.109789 
L 67.004113 165.421159 
L 66.981391 165.301867 
L 66.827495 164.493952 
L 66.675456 163.68603 
L 66.52597 162.878108 
L 66.379937 162.070193 
L 66.249034 161.324235 
L 66.237976 161.262271 
L 66.09689 160.454349 
L 65.965051 159.646434 
L 65.843776 158.838512 
L 65.734005 158.030596 
L 65.636219 157.222675 
L 65.550411 156.414753 
L 65.493955 155.807104 
L 65.476506 155.606837 
L 65.413854 154.798916 
L 65.359678 153.990994 
L 65.312447 153.183072 
L 65.270474 152.375151 
L 65.23198 151.567235 
L 65.195144 150.759313 
L 65.158174 149.951391 
L 65.11939 149.143476 
L 65.077312 148.335554 
L 65.030775 147.527632 
L 64.979034 146.719717 
L 64.921839 145.911795 
L 64.859471 145.10388 
L 64.7927 144.295958 
L 64.738876 143.676059 
L 64.720646 143.488036 
L 64.63924 142.68012 
L 64.556599 141.872199 
L 64.474305 141.064277 
L 64.393546 140.256361 
L 64.31501 139.44844 
L 64.238884 138.640524 
L 64.164914 137.832602 
L 64.09252 137.024681 
L 64.020923 136.216765 
L 63.983797 135.800616 
L 63.944343 135.408843 
L 63.861892 134.600922 
L 63.778478 133.793006 
L 63.693894 132.985084 
L 63.608285 132.177169 
L 63.522146 131.369247 
L 63.436287 130.561325 
L 63.35174 129.75341 
L 63.269637 128.945488 
L 63.228718 128.529523 
L 63.187323 128.137566 
L 63.106352 127.329651 
L 63.031519 126.521729 
L 62.963008 125.713813 
L 62.900728 124.905892 
L 62.844362 124.09797 
L 62.793439 123.290054 
L 62.747402 122.482133 
L 62.70568 121.674211 
L 62.667739 120.866289 
L 62.633132 120.058374 
L 62.601517 119.250446 
L 62.572677 118.44253 
L 62.5465 117.634614 
L 62.522958 116.826687 
L 62.502068 116.018771 
L 62.483832 115.210855 
L 62.47364 114.683901 
L 62.467436 114.40294 
z
" clip-path="url(#p5495b8fc1a)" style="fill: none; stroke: #d94801; stroke-opacity: 0.111111; stroke-width: 1.5"/>
   </g>
   <g id="PathCollection_6">
    <path d="M 67.739192 114.40294 
L 67.722564 113.595024 
L 67.709239 112.787096 
L 67.697559 111.979181 
L 67.685948 111.171265 
L 67.673016 110.363337 
L 67.657638 109.555422 
L 67.639006 108.747506 
L 67.616643 107.939578 
L 67.590398 107.131663 
L 67.560398 106.323735 
L 67.527015 105.515819 
L 67.490819 104.707904 
L 67.452551 103.899976 
L 67.413114 103.09206 
L 67.373581 102.284145 
L 67.335203 101.476217 
L 67.299429 100.668301 
L 67.267887 99.860373 
L 67.242351 99.052458 
L 67.224648 98.244542 
L 67.216526 97.436614 
L 67.219493 96.628699 
L 67.234651 95.820783 
L 67.262571 95.012868 
L 67.303238 94.204952 
L 67.356096 93.397024 
L 67.420171 92.589108 
L 67.494265 91.781193 
L 67.577156 90.973265 
L 67.667771 90.165349 
L 67.75921 89.408553 
L 67.764996 89.357434 
L 67.863263 88.549506 
L 67.967253 87.74159 
L 68.077295 86.933663 
L 68.193984 86.125747 
L 68.31818 85.317831 
L 68.451006 84.509904 
L 68.514289 84.151932 
L 68.590507 83.701988 
L 68.739141 82.894072 
L 68.901948 82.086144 
L 69.081775 81.278229 
L 69.269368 80.521501 
L 69.282213 80.470301 
L 69.507653 79.662385 
L 69.765745 78.85447 
L 70.024447 78.150537 
L 70.064966 78.046542 
L 70.422217 77.238626 
L 70.779526 76.548741 
L 70.845571 76.430711 
L 71.36068 75.622795 
L 71.534624 75.383674 
L 71.979412 74.81488 
L 72.289702 74.462642 
L 72.711989 74.006952 
L 73.044781 73.68241 
L 73.557334 73.199036 
L 73.799879 72.989338 
L 74.513231 72.391121 
L 74.554958 72.358683 
L 75.310037 71.784063 
L 75.586885 71.583193 
L 76.065116 71.258377 
L 76.820194 70.780507 
L 76.828879 70.775277 
L 77.575273 70.348907 
L 78.323639 69.967362 
L 78.330352 69.964072 
L 79.085431 69.628466 
L 79.840529 69.352789 
L 80.540381 69.159434 
L 80.595608 69.144341 
L 81.350686 69.003064 
L 82.105765 68.920943 
L 82.860844 68.874207 
L 83.615942 68.832556 
L 84.371021 68.770827 
L 85.1261 68.67929 
L 85.881197 68.565952 
L 86.636276 68.45036 
L 87.391355 68.354557 
L 87.431327 68.351518 
L 88.146434 68.296074 
L 88.901513 68.290395 
L 89.656611 68.346866 
L 89.685324 68.351518 
L 90.411689 68.469296 
L 91.166768 68.660566 
L 91.921866 68.918565 
L 92.498414 69.159434 
L 92.676945 69.235944 
L 93.432024 69.599775 
L 94.12833 69.967362 
L 94.187103 69.999713 
L 94.942181 70.425034 
L 95.544669 70.775277 
L 95.69726 70.869289 
L 96.452339 71.331404 
L 96.863798 71.583193 
L 97.207418 71.810532 
L 97.962516 72.30849 
L 98.090158 72.391121 
L 98.717595 72.843058 
L 99.196139 73.199036 
L 99.472673 73.433399 
L 100.113138 74.006952 
L 100.227752 74.126126 
L 100.848273 74.81488 
L 100.982831 74.989407 
L 101.441421 75.622795 
L 101.737929 76.096861 
L 101.934985 76.430711 
L 102.358432 77.238626 
L 102.493008 77.526319 
L 102.725626 78.046542 
L 103.050951 78.85447 
L 103.248087 79.399202 
L 103.339181 79.662385 
L 103.591074 80.470301 
L 103.813297 81.278229 
L 104.003184 82.072815 
L 104.006258 82.086144 
L 104.167729 82.894072 
L 104.301907 83.701988 
L 104.40984 84.509904 
L 104.492969 85.317831 
L 104.553123 86.125747 
L 104.592477 86.933663 
L 104.613444 87.74159 
L 104.618558 88.549506 
L 104.610365 89.357434 
L 104.591327 90.165349 
L 104.563745 90.973265 
L 104.529707 91.781193 
L 104.491062 92.589108 
L 104.449393 93.397024 
L 104.406012 94.204952 
L 104.361956 95.012868 
L 104.317982 95.820783 
L 104.274583 96.628699 
L 104.231991 97.436614 
L 104.190212 98.244542 
L 104.149054 99.052458 
L 104.108167 99.860373 
L 104.067087 100.668301 
L 104.025272 101.476217 
L 104.003184 101.889203 
L 103.982292 102.284145 
L 103.937769 103.09206 
L 103.891057 103.899976 
L 103.841595 104.707904 
L 103.788778 105.515819 
L 103.731955 106.323735 
L 103.670425 107.131663 
L 103.603452 107.939578 
L 103.530277 108.747506 
L 103.450169 109.555422 
L 103.362464 110.363337 
L 103.26663 111.171265 
L 103.248087 111.316735 
L 103.165757 111.979181 
L 103.058371 112.787096 
L 102.944134 113.595024 
L 102.823684 114.40294 
L 102.697974 115.210855 
L 102.568249 116.018771 
L 102.493008 116.480488 
L 102.439173 116.826687 
L 102.314041 117.634614 
L 102.190253 118.44253 
L 102.069034 119.250446 
L 101.951428 120.058374 
L 101.838214 120.866289 
L 101.737929 121.61407 
L 101.730183 121.674211 
L 101.631162 122.482133 
L 101.536248 123.290054 
L 101.444824 124.09797 
L 101.355951 124.905892 
L 101.268436 125.713813 
L 101.180931 126.521729 
L 101.092051 127.329651 
L 101.000525 128.137566 
L 100.982831 128.287995 
L 100.907333 128.945488 
L 100.811646 129.75341 
L 100.713167 130.561325 
L 100.612248 131.369247 
L 100.509477 132.177169 
L 100.405586 132.985084 
L 100.301326 133.793006 
L 100.227752 134.364923 
L 100.198013 134.600922 
L 100.097762 135.408843 
L 99.999495 136.216765 
L 99.902923 137.024681 
L 99.80743 137.832602 
L 99.712114 138.640524 
L 99.615847 139.44844 
L 99.517361 140.256361 
L 99.472673 140.614027 
L 99.414349 141.064277 
L 99.306396 141.872199 
L 99.193433 142.68012 
L 99.074656 143.488036 
L 98.949538 144.295958 
L 98.817845 145.10388 
L 98.717595 145.694657 
L 98.678157 145.911795 
L 98.529494 146.719717 
L 98.377044 147.527632 
L 98.221384 148.335554 
L 98.063044 149.143476 
L 97.962516 149.654325 
L 97.900644 149.951391 
L 97.73462 150.759313 
L 97.56814 151.567235 
L 97.400196 152.375151 
L 97.229358 153.183072 
L 97.207418 153.286239 
L 97.048111 153.990994 
L 96.859011 154.798916 
L 96.659695 155.606837 
L 96.452339 156.394361 
L 96.446475 156.414753 
L 96.203193 157.222675 
L 95.938684 158.030596 
L 95.69726 158.710622 
L 95.648612 158.838512 
L 95.327084 159.646434 
L 94.984075 160.454349 
L 94.942181 160.550568 
L 94.641632 161.262271 
L 94.296406 162.070193 
L 94.187103 162.329272 
L 93.982048 162.878108 
L 93.690438 163.68603 
L 93.432024 164.43396 
L 93.414042 164.493952 
L 93.184821 165.301867 
L 92.966281 166.109789 
L 92.756896 166.917705 
L 92.676945 167.239152 
L 92.564339 167.725626 
L 92.378725 168.533548 
L 92.189004 169.341464 
L 91.990888 170.149386 
L 91.921866 170.419706 
L 91.777964 170.957307 
L 91.542695 171.765223 
L 91.280029 172.573145 
L 91.166768 172.892539 
L 90.965668 173.381063 
L 90.596002 174.188982 
L 90.411689 174.556087 
L 90.133982 174.996904 
L 89.656611 175.696241 
L 89.557496 175.804822 
L 88.901513 176.495448 
L 88.747747 176.612741 
L 88.146434 177.0684 
L 87.527218 177.42066 
L 87.391355 177.49924 
L 86.636276 177.86144 
L 85.881197 178.197743 
L 85.807979 178.228581 
L 85.1261 178.521876 
L 84.371021 178.794738 
L 83.615942 178.952707 
L 82.860844 178.916671 
L 82.105765 178.597554 
L 81.696493 178.228581 
L 81.350686 177.902192 
L 81.023994 177.42066 
L 80.595608 176.778995 
L 80.511333 176.612741 
L 80.095025 175.804822 
L 79.840529 175.328122 
L 79.6891 174.996904 
L 79.302655 174.188982 
L 79.085431 173.758046 
L 78.910513 173.381063 
L 78.521054 172.573145 
L 78.330352 172.191123 
L 78.127241 171.765223 
L 77.739171 170.957307 
L 77.575273 170.616841 
L 77.358255 170.149386 
L 76.993969 169.341464 
L 76.820194 168.944063 
L 76.649488 168.533548 
L 76.330571 167.725626 
L 76.065116 167.008265 
L 76.033851 166.917705 
L 75.766394 166.109789 
L 75.51771 165.301867 
L 75.310037 164.584791 
L 75.285243 164.493952 
L 75.070764 163.68603 
L 74.866629 162.878108 
L 74.670866 162.070193 
L 74.554958 161.577836 
L 74.48021 161.262271 
L 74.291724 160.454349 
L 74.106934 159.646434 
L 73.925186 158.838512 
L 73.799879 158.273513 
L 73.741687 158.030596 
L 73.549904 157.222675 
L 73.359328 156.414753 
L 73.170002 155.606837 
L 73.044781 155.066431 
L 72.97772 154.798916 
L 72.779252 153.990994 
L 72.584874 153.183072 
L 72.395809 152.375151 
L 72.289702 151.905299 
L 72.214234 151.567235 
L 72.041869 150.759313 
L 71.877819 149.951391 
L 71.72157 149.143476 
L 71.572023 148.335554 
L 71.534624 148.12853 
L 71.43439 147.527632 
L 71.300453 146.719717 
L 71.165246 145.911795 
L 71.026557 145.10388 
L 70.882543 144.295958 
L 70.779526 143.744678 
L 70.735376 143.488036 
L 70.588816 142.68012 
L 70.435988 141.872199 
L 70.278612 141.064277 
L 70.119183 140.256361 
L 70.024447 139.775855 
L 69.966323 139.44844 
L 69.826071 138.640524 
L 69.692921 137.832602 
L 69.568975 137.024681 
L 69.455641 136.216765 
L 69.353572 135.408843 
L 69.269368 134.66105 
L 69.263093 134.600922 
L 69.187028 133.793006 
L 69.119056 132.985084 
L 69.057738 132.177169 
L 69.001417 131.369247 
L 68.948324 130.561325 
L 68.896668 129.75341 
L 68.844723 128.945488 
L 68.790915 128.137566 
L 68.733917 127.329651 
L 68.672737 126.521729 
L 68.606804 125.713813 
L 68.536041 124.905892 
L 68.514289 124.66957 
L 68.459217 124.09797 
L 68.378137 123.290054 
L 68.295123 122.482133 
L 68.212209 121.674211 
L 68.131599 120.866289 
L 68.055442 120.058374 
L 67.985605 119.250446 
L 67.923508 118.44253 
L 67.870004 117.634614 
L 67.825344 116.826687 
L 67.789211 116.018771 
L 67.760782 115.210855 
L 67.75921 115.153441 
L 67.739192 114.40294 
z
" clip-path="url(#p5495b8fc1a)" style="fill: none; stroke: #d94801; stroke-opacity: 0.333333; stroke-width: 1.5"/>
   </g>
   <g id="PathCollection_7">
    <path d="M 72.230676 103.09206 
L 72.15516 102.284145 
L 72.084697 101.476217 
L 72.020711 100.668301 
L 71.964171 99.860373 
L 71.915646 99.052458 
L 71.875382 98.244542 
L 71.843402 97.436614 
L 71.819615 96.628699 
L 71.803902 95.820783 
L 71.79619 95.012868 
L 71.796506 94.204952 
L 71.805006 93.397024 
L 71.821993 92.589108 
L 71.84792 91.781193 
L 71.883388 90.973265 
L 71.929144 90.165349 
L 71.986089 89.357434 
L 72.05529 88.549506 
L 72.138006 87.74159 
L 72.235748 86.933663 
L 72.289702 86.551078 
L 72.349903 86.125747 
L 72.482378 85.317831 
L 72.636121 84.509904 
L 72.8144 83.701988 
L 73.021275 82.894072 
L 73.044781 82.813403 
L 73.25893 82.086144 
L 73.533722 81.278229 
L 73.799879 80.601016 
L 73.851861 80.470301 
L 74.214976 79.662385 
L 74.554958 79.004156 
L 74.633323 78.85447 
L 75.108268 78.046542 
L 75.310037 77.741801 
L 75.650326 77.238626 
L 76.065116 76.691 
L 76.269608 76.430711 
L 76.820194 75.799152 
L 76.983287 75.622795 
L 77.575273 75.040396 
L 77.825909 74.81488 
L 78.330352 74.397567 
L 78.868752 74.006952 
L 79.085431 73.860809 
L 79.840529 73.435722 
L 80.390724 73.199036 
L 80.595608 73.115886 
L 81.350686 72.902497 
L 82.105765 72.769421 
L 82.860844 72.685289 
L 83.615942 72.612858 
L 84.371021 72.522471 
L 85.1261 72.402569 
L 85.187836 72.391121 
L 85.881197 72.267326 
L 86.636276 72.136139 
L 87.391355 72.035422 
L 88.146434 71.988736 
L 88.901513 72.013281 
L 89.656611 72.120072 
L 90.411689 72.315068 
L 90.615764 72.391121 
L 91.166768 72.609253 
L 91.921866 72.996186 
L 92.253212 73.199036 
L 92.676945 73.477587 
L 93.387703 74.006952 
L 93.432024 74.04273 
L 94.187103 74.699706 
L 94.313126 74.81488 
L 94.942181 75.447433 
L 95.110583 75.622795 
L 95.69726 76.30438 
L 95.802941 76.430711 
L 96.400669 77.238626 
L 96.452339 77.317945 
L 96.914369 78.046542 
L 97.207418 78.585263 
L 97.350994 78.85447 
L 97.722954 79.662385 
L 97.962516 80.273877 
L 98.039329 80.470301 
L 98.313551 81.278229 
L 98.548099 82.086144 
L 98.717595 82.762662 
L 98.751615 82.894072 
L 98.93442 83.701988 
L 99.092976 84.509904 
L 99.23026 85.317831 
L 99.348369 86.125747 
L 99.448799 86.933663 
L 99.472673 87.16405 
L 99.535126 87.74159 
L 99.605482 88.549506 
L 99.659983 89.357434 
L 99.699983 90.165349 
L 99.727015 90.973265 
L 99.742746 91.781193 
L 99.74891 92.589108 
L 99.747217 93.397024 
L 99.739262 94.204952 
L 99.726463 95.012868 
L 99.710018 95.820783 
L 99.690896 96.628699 
L 99.669842 97.436614 
L 99.64739 98.244542 
L 99.623883 99.052458 
L 99.599484 99.860373 
L 99.574182 100.668301 
L 99.547797 101.476217 
L 99.519983 102.284145 
L 99.490239 103.09206 
L 99.472673 103.531313 
L 99.458792 103.899976 
L 99.425325 104.707904 
L 99.38802 105.515819 
L 99.346044 106.323735 
L 99.298601 107.131663 
L 99.244979 107.939578 
L 99.184568 108.747506 
L 99.116872 109.555422 
L 99.04149 110.363337 
L 98.958093 111.171265 
L 98.86639 111.979181 
L 98.766091 112.787096 
L 98.717595 113.147041 
L 98.657667 113.595024 
L 98.539986 114.40294 
L 98.41185 115.210855 
L 98.273006 116.018771 
L 98.12339 116.826687 
L 97.96321 117.634614 
L 97.962516 117.637987 
L 97.787133 118.44253 
L 97.602381 119.250446 
L 97.410732 120.058374 
L 97.214273 120.866289 
L 97.207418 120.89485 
L 97.008939 121.674211 
L 96.805206 122.482133 
L 96.604685 123.290054 
L 96.452339 123.920282 
L 96.407483 124.09797 
L 96.2126 124.905892 
L 96.021727 125.713813 
L 95.833001 126.521729 
L 95.69726 127.109321 
L 95.644362 127.329651 
L 95.453344 128.137566 
L 95.257692 128.945488 
L 95.05572 129.75341 
L 94.942181 130.201104 
L 94.848834 130.561325 
L 94.638154 131.369247 
L 94.422409 132.177169 
L 94.203666 132.985084 
L 94.187103 133.047918 
L 93.992293 133.793006 
L 93.783529 134.600922 
L 93.577944 135.408843 
L 93.432024 135.99535 
L 93.376442 136.216765 
L 93.178258 137.024681 
L 92.979169 137.832602 
L 92.776191 138.640524 
L 92.676945 139.025286 
L 92.559125 139.44844 
L 92.323864 140.256361 
L 92.074609 141.064277 
L 91.921866 141.535663 
L 91.79611 141.872199 
L 91.485678 142.68012 
L 91.173903 143.488036 
L 91.166768 143.50676 
L 90.824087 144.295958 
L 90.507526 145.10388 
L 90.411689 145.377479 
L 90.211201 145.911795 
L 89.960294 146.719717 
L 89.762789 147.527632 
L 89.656611 148.073844 
L 89.603516 148.335554 
L 89.467059 149.143476 
L 89.354198 149.951391 
L 89.254416 150.759313 
L 89.158413 151.567235 
L 89.058204 152.375151 
L 88.947105 153.183072 
L 88.901513 153.466765 
L 88.790545 153.990994 
L 88.584964 154.798916 
L 88.341062 155.606837 
L 88.146434 156.158128 
L 87.979059 156.414753 
L 87.391355 157.176697 
L 87.208445 157.222675 
L 86.636276 157.348603 
L 86.341954 157.222675 
L 85.881197 157.020698 
L 85.1261 156.439738 
L 85.098494 156.414753 
L 84.371021 155.79219 
L 84.152781 155.606837 
L 83.615942 155.187157 
L 83.099193 154.798916 
L 82.860844 154.632431 
L 82.105765 154.086733 
L 81.986776 153.990994 
L 81.350686 153.473621 
L 81.066939 153.183072 
L 80.595608 152.674483 
L 80.384203 152.375151 
L 79.85303 151.567235 
L 79.840529 151.54733 
L 79.446434 150.759313 
L 79.085431 149.992113 
L 79.069561 149.951391 
L 78.755307 149.143476 
L 78.44811 148.335554 
L 78.330352 148.024101 
L 78.168154 147.527632 
L 77.905322 146.719717 
L 77.646125 145.911795 
L 77.575273 145.687852 
L 77.412851 145.10388 
L 77.194571 144.295958 
L 76.985515 143.488036 
L 76.820194 142.812761 
L 76.790732 142.68012 
L 76.622699 141.872199 
L 76.468002 141.064277 
L 76.327407 140.256361 
L 76.201287 139.44844 
L 76.089589 138.640524 
L 76.065116 138.436821 
L 75.993674 137.832602 
L 75.909973 137.024681 
L 75.836322 136.216765 
L 75.770928 135.408843 
L 75.711626 134.600922 
L 75.655909 133.793006 
L 75.601009 132.985084 
L 75.544038 132.177169 
L 75.482151 131.369247 
L 75.412752 130.561325 
L 75.333672 129.75341 
L 75.310037 129.541932 
L 75.236168 128.945488 
L 75.121865 128.137566 
L 74.993111 127.329651 
L 74.850745 126.521729 
L 74.696473 125.713813 
L 74.554958 125.016456 
L 74.530644 124.905892 
L 74.345308 124.09797 
L 74.159397 123.290054 
L 73.97744 122.482133 
L 73.8038 121.674211 
L 73.799879 121.655175 
L 73.644868 120.866289 
L 73.500906 120.058374 
L 73.373406 119.250446 
L 73.263129 118.44253 
L 73.170025 117.634614 
L 73.093272 116.826687 
L 73.044781 116.19802 
L 73.031826 116.018771 
L 72.98368 115.210855 
L 72.944523 114.40294 
L 72.911921 113.595024 
L 72.88322 112.787096 
L 72.855713 111.979181 
L 72.826809 111.171265 
L 72.794202 110.363337 
L 72.756032 109.555422 
L 72.711013 108.747506 
L 72.65852 107.939578 
L 72.598639 107.131663 
L 72.532132 106.323735 
L 72.460368 105.515819 
L 72.385169 104.707904 
L 72.308627 103.899976 
L 72.289702 103.700528 
L 72.230676 103.09206 
z
" clip-path="url(#p5495b8fc1a)" style="fill: none; stroke: #d94801; stroke-opacity: 0.555556; stroke-width: 1.5"/>
   </g>
   <g id="PathCollection_8">
    <path d="M 76.052411 100.668301 
L 75.957123 99.860373 
L 75.871512 99.052458 
L 75.797706 98.244542 
L 75.737353 97.436614 
L 75.691592 96.628699 
L 75.661059 95.820783 
L 75.645966 95.012868 
L 75.64619 94.204952 
L 75.661381 93.397024 
L 75.691073 92.589108 
L 75.73479 91.781193 
L 75.792155 90.973265 
L 75.862978 90.165349 
L 75.947358 89.357434 
L 76.04576 88.549506 
L 76.065116 88.41079 
L 76.162064 87.74159 
L 76.295774 86.933663 
L 76.448279 86.125747 
L 76.622093 85.317831 
L 76.820194 84.50996 
L 76.820209 84.509904 
L 77.05672 83.701988 
L 77.326512 82.894072 
L 77.575273 82.240298 
L 77.63879 82.086144 
L 78.016904 81.278229 
L 78.330352 80.688472 
L 78.461701 80.470301 
L 79.010847 79.662385 
L 79.085431 79.56456 
L 79.733528 78.85447 
L 79.840529 78.749298 
L 80.595608 78.168436 
L 80.813675 78.046542 
L 81.350686 77.77562 
L 82.105765 77.517918 
L 82.860844 77.346223 
L 83.493995 77.238626 
L 83.615942 77.219629 
L 84.371021 77.111019 
L 85.1261 76.996243 
L 85.881197 76.877113 
L 86.636276 76.76965 
L 87.391355 76.699086 
L 88.146434 76.694073 
L 88.901513 76.781377 
L 89.656611 76.982392 
L 90.243188 77.238626 
L 90.411689 77.319892 
L 91.166768 77.834477 
L 91.408556 78.046542 
L 91.921866 78.544398 
L 92.187436 78.85447 
L 92.676945 79.491812 
L 92.791555 79.662385 
L 93.272418 80.470301 
L 93.432024 80.775536 
L 93.669924 81.278229 
L 94.000066 82.086144 
L 94.187103 82.62277 
L 94.27463 82.894072 
L 94.49268 83.701988 
L 94.671477 84.509904 
L 94.815134 85.317831 
L 94.927719 86.125747 
L 94.942181 86.262563 
L 95.009258 86.933663 
L 95.068408 87.74159 
L 95.109927 88.549506 
L 95.137651 89.357434 
L 95.155276 90.165349 
L 95.1663 90.973265 
L 95.173947 91.781193 
L 95.181081 92.589108 
L 95.19009 93.397024 
L 95.202776 94.204952 
L 95.22024 95.012868 
L 95.242807 95.820783 
L 95.270001 96.628699 
L 95.300599 97.436614 
L 95.332777 98.244542 
L 95.364294 99.052458 
L 95.392732 99.860373 
L 95.415688 100.668301 
L 95.430929 101.476217 
L 95.436471 102.284145 
L 95.430585 103.09206 
L 95.411765 103.899976 
L 95.378665 104.707904 
L 95.330052 105.515819 
L 95.264779 106.323735 
L 95.181809 107.131663 
L 95.080286 107.939578 
L 94.959649 108.747506 
L 94.942181 108.849641 
L 94.794585 109.555422 
L 94.603883 110.363337 
L 94.394024 111.171265 
L 94.187103 111.914546 
L 94.166926 111.979181 
L 93.905497 112.787096 
L 93.642385 113.595024 
L 93.432024 114.2482 
L 93.381449 114.40294 
L 93.120351 115.210855 
L 92.86901 116.018771 
L 92.676945 116.658907 
L 92.62586 116.826687 
L 92.38136 117.634614 
L 92.141063 118.44253 
L 91.921866 119.185478 
L 91.901276 119.250446 
L 91.638255 120.058374 
L 91.369202 120.866289 
L 91.166768 121.454604 
L 91.081958 121.674211 
L 90.75454 122.482133 
L 90.411689 123.287905 
L 90.410647 123.290054 
L 89.995716 124.09797 
L 89.656611 124.720046 
L 89.539961 124.905892 
L 89.001956 125.713813 
L 88.901513 125.85661 
L 88.362788 126.521729 
L 88.146434 126.778004 
L 87.626402 127.329651 
L 87.391355 127.576132 
L 86.832342 128.137566 
L 86.636276 128.340181 
L 86.057389 128.945488 
L 85.881197 129.143239 
L 85.328058 129.75341 
L 85.1261 130.001683 
L 84.584562 130.561325 
L 84.371021 130.814812 
L 83.615942 131.307549 
L 82.860844 131.00159 
L 82.642541 130.561325 
L 82.287123 129.75341 
L 82.105765 129.302519 
L 82.014652 128.945488 
L 81.807192 128.137566 
L 81.597128 127.329651 
L 81.380543 126.521729 
L 81.350686 126.415254 
L 81.180934 125.713813 
L 80.972609 124.905892 
L 80.750321 124.09797 
L 80.595608 123.567056 
L 80.518227 123.290054 
L 80.281391 122.482133 
L 80.031569 121.674211 
L 79.840529 121.081882 
L 79.773837 120.866289 
L 79.519161 120.058374 
L 79.258718 119.250446 
L 79.085431 118.718295 
L 79.00446 118.44253 
L 78.770635 117.634614 
L 78.541575 116.826687 
L 78.330352 116.058208 
L 78.320984 116.018771 
L 78.138014 115.210855 
L 77.966157 114.40294 
L 77.805905 113.595024 
L 77.657248 112.787096 
L 77.575273 112.308448 
L 77.52581 111.979181 
L 77.412116 111.171265 
L 77.3053 110.363337 
L 77.203384 109.555422 
L 77.104281 108.747506 
L 77.005928 107.939578 
L 76.906419 107.131663 
L 76.820194 106.45095 
L 76.805072 106.323735 
L 76.704981 105.515819 
L 76.600674 104.707904 
L 76.492462 103.899976 
L 76.381416 103.09206 
L 76.269318 102.284145 
L 76.158543 101.476217 
L 76.065116 100.768852 
L 76.052411 100.668301 
z
" clip-path="url(#p5495b8fc1a)" style="fill: none; stroke: #d94801; stroke-opacity: 0.666667; stroke-width: 1.5"/>
   </g>
   <g id="PathCollection_9">
    <path d="M 81.340049 100.668301 
L 81.191246 99.860373 
L 81.063998 99.052458 
L 80.958957 98.244542 
L 80.877013 97.436614 
L 80.819255 96.628699 
L 80.786895 95.820783 
L 80.781209 95.012868 
L 80.803501 94.204952 
L 80.855113 93.397024 
L 80.937486 92.589108 
L 81.052273 91.781193 
L 81.201477 90.973265 
L 81.350686 90.322048 
L 81.392345 90.165349 
L 81.654299 89.357434 
L 81.980826 88.549506 
L 82.105765 88.288706 
L 82.449849 87.74159 
L 82.860844 87.20482 
L 83.181377 86.933663 
L 83.615942 86.619002 
L 84.371021 86.369099 
L 85.1261 86.384904 
L 85.881197 86.628192 
L 86.397581 86.933663 
L 86.636276 87.085833 
L 87.336447 87.74159 
L 87.391355 87.801681 
L 87.906477 88.549506 
L 88.146434 89.00943 
L 88.293058 89.357434 
L 88.552475 90.165349 
L 88.734599 90.973265 
L 88.861184 91.781193 
L 88.901513 92.145033 
L 88.947256 92.589108 
L 89.0043 93.397024 
L 89.039429 94.204952 
L 89.05719 95.012868 
L 89.060527 95.820783 
L 89.051073 96.628699 
L 89.029333 97.436614 
L 88.994802 98.244542 
L 88.946068 99.052458 
L 88.901513 99.611694 
L 88.880851 99.860373 
L 88.795337 100.668301 
L 88.68546 101.476217 
L 88.547213 102.284145 
L 88.37717 103.09206 
L 88.173114 103.899976 
L 88.146434 103.993846 
L 87.912775 104.707904 
L 87.607381 105.515819 
L 87.391355 106.027851 
L 87.23095 106.323735 
L 86.750523 107.131663 
L 86.636276 107.310522 
L 85.978868 107.939578 
L 85.881197 108.028049 
L 85.1261 108.215195 
L 84.533714 107.939578 
L 84.371021 107.864761 
L 83.751153 107.131663 
L 83.615942 106.970564 
L 83.265561 106.323735 
L 82.860844 105.553075 
L 82.845395 105.515819 
L 82.520792 104.707904 
L 82.216604 103.899976 
L 82.105765 103.584531 
L 81.954071 103.09206 
L 81.725748 102.284145 
L 81.520672 101.476217 
L 81.350686 100.719114 
L 81.340049 100.668301 
z
" clip-path="url(#p5495b8fc1a)" style="fill: none; stroke: #d94801; stroke-opacity: 0.888889; stroke-width: 1.5"/>
   </g>
   <g id="PathCollection_10"/>
   <g id="patch_3">
    <path d="M 29.25 224.28 
L 29.25 63.504 
" style="fill: none; stroke: #000000; stroke-width: 3; stroke-linejoin: miter; stroke-linecap: square"/>
   </g>
   <g id="patch_4">
    <path d="M 29.25 224.28 
L 179.511429 224.28 
" style="fill: none; stroke: #000000; stroke-width: 3; stroke-linejoin: miter; stroke-linecap: square"/>
   </g>
   <g id="text_1">
    <!-- $\theta^*$ -->
    <g transform="translate(107.697623 201.21401)scale(0.14 -0.14)">
     <defs>
      <path id="DejaVuSerif-Italic-3b8" d="M 2888 2600 
Q 3059 3603 2947 4113 
Q 2822 4678 2359 4678 
Q 1900 4678 1553 4113 
Q 1244 3603 1025 2600 
L 2888 2600 
z
M 2822 2266 
L 959 2266 
Q 791 1269 903 759 
Q 1031 191 1488 191 
Q 1947 191 2294 759 
Q 2603 1269 2822 2266 
z
M 2409 4931 
Q 3138 4931 3444 4248 
Q 3750 3566 3529 2433 
Q 3309 1300 2734 615 
Q 2159 -69 1434 -69 
Q 713 -69 406 615 
Q 100 1300 320 2433 
Q 541 3566 1112 4248 
Q 1684 4931 2409 4931 
z
" transform="scale(0.015625)"/>
      <path id="DejaVuSerif-2a" d="M 3097 3866 
L 1875 3297 
L 3097 2719 
L 2859 2350 
L 1772 3028 
L 1813 1838 
L 1388 1838 
L 1428 3028 
L 341 2350 
L 103 2719 
L 1325 3291 
L 103 3866 
L 341 4238 
L 1428 3559 
L 1388 4750 
L 1813 4750 
L 1772 3559 
L 2859 4238 
L 3097 3866 
z
" transform="scale(0.015625)"/>
     </defs>
     <use xlink:href="#DejaVuSerif-Italic-3b8" transform="translate(0 0.7125)"/>
     <use xlink:href="#DejaVuSerif-2a" transform="translate(81.239167 37.046875)scale(0.7)"/>
    </g>
   </g>
  </g>
 </g>
 <defs>
  <clipPath id="p5495b8fc1a">
   <rect x="29.25" y="63.504" width="150.261429" height="160.776"/>
  </clipPath>
 </defs>
</svg>
