<?xml version="1.0" encoding="utf-8" standalone="no"?>
<!DOCTYPE svg PUBLIC "-//W3C//DTD SVG 1.1//EN"
  "http://www.w3.org/Graphics/SVG/1.1/DTD/svg11.dtd">
<svg xmlns:xlink="http://www.w3.org/1999/xlink" width="288pt" height="172.8pt" viewBox="0 0 288 172.8" xmlns="http://www.w3.org/2000/svg" version="1.1">
 <metadata>
  <rdf:RDF xmlns:dc="http://purl.org/dc/elements/1.1/" xmlns:cc="http://creativecommons.org/ns#" xmlns:rdf="http://www.w3.org/1999/02/22-rdf-syntax-ns#">
   <cc:Work>
    <dc:type rdf:resource="http://purl.org/dc/dcmitype/StillImage"/>
    <dc:date>2023-05-19T11:58:49.273820</dc:date>
    <dc:format>image/svg+xml</dc:format>
    <dc:creator>
     <cc:Agent>
      <dc:title>Matplotlib v3.5.0, https://matplotlib.org/</dc:title>
     </cc:Agent>
    </dc:creator>
   </cc:Work>
  </rdf:RDF>
 </metadata>
 <defs>
  <style type="text/css">*{stroke-linejoin: round; stroke-linecap: butt}</style>
 </defs>
 <g id="figure_1">
  <g id="patch_1">
   <path d="M 0 172.8 
L 288 172.8 
L 288 0 
L 0 0 
L 0 172.8 
z
" style="fill: none"/>
  </g>
  <g id="axes_1">
   <path d="M 36 88.442415 
L 36.4464 88.566326 
L 36.8928 88.415794 
L 37.3392 88.428744 
L 37.7856 86.111201 
L 38.232 86.243507 
L 38.6784 88.422508 
L 39.1248 86.170454 
L 39.5712 86.160743 
L 40.0176 88.441562 
L 40.9104 88.401928 
L 41.3568 86.118242 
L 42.696 86.100372 
L 43.1424 88.519958 
L 43.5888 86.01795 
L 44.0352 86.07626 
L 44.4816 88.37165 
L 44.928 86.124056 
L 46.7136 86.103306 
L 47.16 88.399414 
L 47.6064 86.125341 
L 48.0528 86.144091 
L 48.4992 88.499641 
L 48.9456 86.142998 
L 49.392 86.142247 
L 50.2848 88.40635 
L 50.7312 86.100061 
L 51.1776 88.460694 
L 51.624 88.429793 
L 52.0704 86.317964 
L 52.5168 86.125724 
L 52.9632 88.439708 
L 53.4096 86.145587 
L 54.7488 86.125385 
L 55.1952 86.885063 
L 55.6416 86.129575 
L 56.088 86.179117 
L 56.5344 86.084025 
L 56.9808 88.453723 
L 57.4272 86.127236 
L 60.1056 86.124502 
L 60.552 88.447088 
L 60.9984 88.358243 
L 61.4448 86.099858 
L 61.8912 88.372499 
L 62.3376 86.132884 
L 62.784 86.115495 
L 63.2304 88.416228 
L 63.6768 86.072548 
L 66.3552 86.108812 
L 66.8016 88.510405 
L 67.248 86.120513 
L 67.6944 86.190632 
L 68.1408 86.049957 
L 69.0336 86.110341 
L 69.48 86.037556 
L 70.3728 86.100883 
L 70.8192 86.019409 
L 71.2656 88.430927 
L 71.712 86.11807 
L 72.1584 88.431478 
L 72.6048 86.11963 
L 73.0512 88.424376 
L 73.4976 88.36564 
L 73.944 86.046442 
L 74.8368 86.109844 
L 75.2832 88.456339 
L 75.7296 86.104 
L 76.176 86.179695 
L 76.6224 86.107279 
L 77.0688 88.396815 
L 77.5152 88.517745 
L 77.9616 86.13599 
L 78.408 88.416654 
L 78.8544 86.007383 
L 79.7472 86.133764 
L 80.1936 88.350629 
L 80.64 86.630795 
L 81.0864 86.02879 
L 81.9792 86.116295 
L 82.4256 86.695726 
L 83.3184 86.146972 
L 83.7648 88.393573 
L 84.2112 88.548337 
L 84.6576 87.906852 
L 85.104 86.086952 
L 85.5504 88.469986 
L 85.9968 86.120755 
L 86.4432 86.188869 
L 87.336 86.166847 
L 87.7824 88.342297 
L 88.2288 86.16492 
L 88.6752 88.484281 
L 89.1216 86.136124 
L 89.568 88.426694 
L 90.0144 88.489597 
L 90.4608 86.114581 
L 90.9072 88.427875 
L 91.3536 88.454994 
L 91.8 86.111454 
L 92.2464 86.331081 
L 92.6928 86.127793 
L 93.5856 86.108309 
L 94.032 85.988141 
L 94.4784 88.414778 
L 94.9248 86.11777 
L 95.3712 86.13776 
L 95.8176 88.473804 
L 96.264 88.382686 
L 96.7104 86.11482 
L 97.1568 88.447144 
L 97.6032 85.998121 
L 98.0496 86.108182 
L 98.9424 86.110822 
L 100.2816 86.142847 
L 100.728 88.381116 
L 101.1744 86.112231 
L 101.6208 86.016786 
L 102.96 86.114679 
L 104.7456 86.130402 
L 105.192 88.438934 
L 105.6384 88.439126 
L 106.0848 86.125653 
L 107.8704 86.134906 
L 108.3168 86.050433 
L 108.7632 88.447062 
L 109.2096 86.20348 
L 109.656 86.08478 
L 110.1024 86.159596 
L 110.5488 86.057581 
L 110.9952 88.312041 
L 111.4416 86.034651 
L 113.6736 86.110089 
L 114.12 87.709684 
L 114.5664 88.435248 
L 125.28 88.446759 
L 125.7264 86.088742 
L 126.1728 88.297078 
L 127.0656 88.422186 
L 129.2976 88.422934 
L 129.744 86.151742 
L 130.1904 88.379341 
L 130.6368 88.394331 
L 131.0832 86.05636 
L 131.5296 86.105533 
L 131.976 88.4186 
L 132.4224 88.344336 
L 133.3152 88.384772 
L 133.7616 88.303283 
L 134.208 88.409643 
L 134.6544 86.134576 
L 135.1008 88.414817 
L 135.5472 88.363992 
L 135.9936 86.095974 
L 136.44 88.433962 
L 136.8864 86.091307 
L 137.3328 88.403366 
L 138.672 88.388684 
L 139.1184 86.055997 
L 139.5648 88.400127 
L 140.0112 88.360645 
L 140.4576 87.50095 
L 140.904 85.987435 
L 141.3504 85.93344 
L 141.7968 88.34059 
L 142.2432 88.390846 
L 142.6896 85.981835 
L 143.136 86.213107 
L 143.5824 86.222372 
L 144.0288 86.066629 
L 144.4752 86.09664 
L 144.9216 87.007861 
L 145.368 88.402134 
L 145.8144 88.464193 
L 146.7072 88.405924 
L 147.1536 86.146483 
L 147.6 86.096616 
L 148.0464 88.391776 
L 148.4928 88.297267 
L 148.9392 86.161184 
L 149.3856 88.428599 
L 149.832 88.413186 
L 150.2784 88.020422 
L 151.1712 88.449906 
L 151.6176 88.292976 
L 152.064 86.092838 
L 152.5104 86.469114 
L 152.9568 88.440097 
L 153.4032 86.139342 
L 154.296 86.088368 
L 154.7424 88.419638 
L 155.1888 88.419239 
L 155.6352 86.128695 
L 156.0816 86.142959 
L 156.528 87.382862 
L 156.9744 86.088702 
L 157.8672 86.104832 
L 158.3136 88.416693 
L 158.76 88.401772 
L 159.6528 86.065399 
L 160.0992 86.066007 
L 160.5456 88.50439 
L 160.992 88.409993 
L 161.4384 86.094747 
L 161.8848 88.522017 
L 162.3312 86.095337 
L 162.7776 88.34305 
L 163.224 86.035744 
L 164.5632 86.066086 
L 165.0096 88.476024 
L 165.456 86.116537 
L 165.9024 88.428386 
L 166.3488 86.090081 
L 166.7952 88.353748 
L 167.2416 86.116176 
L 169.4736 86.115006 
L 169.92 88.390937 
L 170.3664 88.417001 
L 170.8128 88.568987 
L 171.2592 88.168751 
L 171.7056 86.14456 
L 174.384 86.110317 
L 177.0624 86.124083 
L 177.5088 88.420251 
L 177.9552 86.784211 
L 178.4016 86.090319 
L 178.848 88.391839 
L 179.2944 86.090143 
L 179.7408 86.096835 
L 180.1872 88.376707 
L 180.6336 88.375595 
L 181.08 86.068709 
L 181.9728 86.113148 
L 182.4192 88.416368 
L 183.7584 88.445294 
L 184.2048 86.108829 
L 184.6512 86.14258 
L 185.0976 86.020902 
L 185.544 88.532185 
L 185.9904 86.102217 
L 186.4368 88.470869 
L 186.8832 88.487336 
L 187.3296 86.130827 
L 188.2224 86.113414 
L 188.6688 88.426724 
L 189.1152 88.393829 
L 189.5616 86.112241 
L 190.008 86.144475 
L 190.4544 88.417295 
L 190.9008 86.189227 
L 191.3472 88.380026 
L 191.7936 86.05382 
L 192.6864 86.14248 
L 194.9184 86.215812 
L 195.3648 88.483238 
L 195.8112 87.09111 
L 196.2576 86.148926 
L 202.0608 86.083207 
L 202.5072 88.404164 
L 204.2928 88.392243 
L 206.0784 88.402344 
L 207.864 88.413015 
L 212.328 88.387367 
L 214.56 88.411191 
L 215.0064 88.358668 
L 215.8992 88.39963 
L 217.2384 88.390294 
L 217.6848 86.038875 
L 218.1312 88.414825 
L 219.024 88.401945 
L 219.4704 86.140614 
L 219.9168 88.431527 
L 220.3632 86.134742 
L 220.8096 88.42211 
L 222.1488 88.374798 
L 222.5952 86.038446 
L 223.0416 88.405322 
L 223.488 86.450427 
L 223.9344 86.126514 
L 224.3808 88.437926 
L 224.8272 86.101914 
L 225.2736 85.943346 
L 225.72 88.467039 
L 226.1664 86.076562 
L 226.6128 88.385606 
L 227.0592 88.464876 
L 227.5056 86.410707 
L 227.952 88.418549 
L 228.3984 86.105638 
L 228.8448 88.416793 
L 229.2912 88.441337 
L 229.7376 86.132557 
L 230.184 88.447812 
L 230.6304 85.959834 
L 231.0768 88.425428 
L 231.5232 86.087869 
L 231.9696 86.324946 
L 232.416 86.152523 
L 232.8624 88.338515 
L 233.7552 88.484269 
L 234.2016 86.101763 
L 234.648 88.449964 
L 235.0944 88.378818 
L 235.5408 86.101129 
L 235.9872 88.004617 
L 236.4336 85.995311 
L 237.3264 86.137002 
L 237.7728 88.586342 
L 238.2192 86.13643 
L 240.0048 86.120408 
L 240.4512 88.407281 
L 241.344 88.437667 
L 241.7904 86.102102 
L 242.2368 86.351441 
L 242.6832 86.098119 
L 243.1296 86.093114 
L 243.576 88.532281 
L 244.0224 86.112172 
L 244.4688 88.562343 
L 244.9152 86.221543 
L 245.3616 88.432043 
L 245.808 86.113444 
L 246.2544 86.080224 
L 246.7008 88.327376 
L 247.5936 88.41348 
L 248.04 86.126269 
L 248.4864 86.110145 
L 248.9328 88.407937 
L 249.3792 88.424721 
L 249.8256 86.158563 
L 250.272 86.181509 
L 250.7184 88.497181 
L 251.1648 86.099344 
L 252.9504 86.119021 
L 253.3968 86.070612 
L 253.8432 86.196997 
L 254.2896 88.499364 
L 254.736 86.24285 
L 255.1824 88.108431 
L 255.6288 86.099834 
L 256.0752 86.129703 
L 256.5216 88.428754 
L 256.968 88.399045 
L 257.4144 86.395348 
L 257.8608 86.117552 
L 258.3072 86.059124 
L 258.7536 86.129429 
L 258.7536 86.129429 
" clip-path="url(#p638a65a103)" style="fill: none; stroke: #000000; stroke-width: 3.2; stroke-linecap: square"/>
   <path d="M 36 88.442415 
L 36.4464 88.566326 
L 36.8928 88.415794 
L 37.3392 88.428744 
L 37.7856 86.111201 
L 38.232 86.243507 
L 38.6784 88.422508 
L 39.1248 86.170454 
L 39.5712 86.160743 
L 40.0176 88.441562 
L 40.9104 88.401928 
L 41.3568 86.118242 
L 42.696 86.100372 
L 43.1424 88.519958 
L 43.5888 86.01795 
L 44.0352 86.07626 
L 44.4816 88.37165 
L 44.928 86.124056 
L 46.7136 86.103306 
L 47.16 88.399414 
L 47.6064 86.125341 
L 48.0528 86.144091 
L 48.4992 88.499641 
L 48.9456 86.142998 
L 49.392 86.142247 
L 50.2848 88.40635 
L 50.7312 86.100061 
L 51.1776 88.460694 
L 51.624 88.429793 
L 52.0704 86.317964 
L 52.5168 86.125724 
L 52.9632 88.439708 
L 53.4096 86.145587 
L 54.7488 86.125385 
L 55.1952 86.885063 
L 55.6416 86.129575 
L 56.088 86.179117 
L 56.5344 86.084025 
L 56.9808 88.453723 
L 57.4272 86.127236 
L 60.1056 86.124502 
L 60.552 88.447088 
L 60.9984 88.358243 
L 61.4448 86.099858 
L 61.8912 88.372499 
L 62.3376 86.132884 
L 62.784 86.115495 
L 63.2304 88.416228 
L 63.6768 86.072548 
L 66.3552 86.108812 
L 66.8016 88.510405 
L 67.248 86.120513 
L 67.6944 86.190632 
L 68.1408 86.049957 
L 69.0336 86.110341 
L 69.48 86.037556 
L 70.3728 86.100883 
L 70.8192 86.019409 
L 71.2656 88.430927 
L 71.712 86.11807 
L 72.1584 88.431478 
L 72.6048 86.11963 
L 73.0512 88.424376 
L 73.4976 88.36564 
L 73.944 86.046442 
L 74.8368 86.109844 
L 75.2832 88.456339 
L 75.7296 86.104 
L 76.176 86.179695 
L 76.6224 86.107279 
L 77.0688 88.396815 
L 77.5152 88.517745 
L 77.9616 86.13599 
L 78.408 88.416654 
L 78.8544 86.007383 
L 79.7472 86.133764 
L 80.1936 88.350629 
L 80.64 86.630795 
L 81.0864 86.02879 
L 81.9792 86.116295 
L 82.4256 86.695726 
L 83.3184 86.146972 
L 83.7648 88.393573 
L 84.2112 88.548337 
L 84.6576 87.906852 
L 85.104 86.086952 
L 85.5504 88.469986 
L 85.9968 86.120755 
L 86.4432 86.188869 
L 87.336 86.166847 
L 87.7824 88.342297 
L 88.2288 86.16492 
L 88.6752 88.484281 
L 89.1216 86.136124 
L 89.568 88.426694 
L 90.0144 88.489597 
L 90.4608 86.114581 
L 90.9072 88.427875 
L 91.3536 88.454994 
L 91.8 86.111454 
L 92.2464 86.331081 
L 92.6928 86.127793 
L 93.5856 86.108309 
L 94.032 85.988141 
L 94.4784 88.414778 
L 94.9248 86.11777 
L 95.3712 86.13776 
L 95.8176 88.473804 
L 96.264 88.382686 
L 96.7104 86.11482 
L 97.1568 88.447144 
L 97.6032 85.998121 
L 98.0496 86.108182 
L 98.9424 86.110822 
L 100.2816 86.142847 
L 100.728 88.381116 
L 101.1744 86.112231 
L 101.6208 86.016786 
L 102.96 86.114679 
L 104.7456 86.130402 
L 105.192 88.438934 
L 105.6384 88.439126 
L 106.0848 86.125653 
L 107.8704 86.134906 
L 108.3168 86.050433 
L 108.7632 88.447062 
L 109.2096 86.20348 
L 109.656 86.08478 
L 110.1024 86.159596 
L 110.5488 86.057581 
L 110.9952 88.312041 
L 111.4416 86.034651 
L 113.6736 86.110089 
L 114.12 87.709684 
L 114.5664 88.435248 
L 125.28 88.446759 
L 125.7264 86.088742 
L 126.1728 88.297078 
L 127.0656 88.422186 
L 129.2976 88.422934 
L 129.744 86.151742 
L 130.1904 88.379341 
L 130.6368 88.394331 
L 131.0832 86.05636 
L 131.5296 86.105533 
L 131.976 88.4186 
L 132.4224 88.344336 
L 133.3152 88.384772 
L 133.7616 88.303283 
L 134.208 88.409643 
L 134.6544 86.134576 
L 135.1008 88.414817 
L 135.5472 88.363992 
L 135.9936 86.095974 
L 136.44 88.433962 
L 136.8864 86.091307 
L 137.3328 88.403366 
L 138.672 88.388684 
L 139.1184 86.055997 
L 139.5648 88.400127 
L 140.0112 88.360645 
L 140.4576 87.50095 
L 140.904 85.987435 
L 141.3504 85.93344 
L 141.7968 88.34059 
L 142.2432 88.390846 
L 142.6896 85.981835 
L 143.136 86.213107 
L 143.5824 86.222372 
L 144.0288 86.066629 
L 144.4752 86.09664 
L 144.9216 87.007861 
L 145.368 88.402134 
L 145.8144 88.464193 
L 146.7072 88.405924 
L 147.1536 86.146483 
L 147.6 86.096616 
L 148.0464 88.391776 
L 148.4928 88.297267 
L 148.9392 86.161184 
L 149.3856 88.428599 
L 149.832 88.413186 
L 150.2784 88.020422 
L 151.1712 88.449906 
L 151.6176 88.292976 
L 152.064 86.092838 
L 152.5104 86.469114 
L 152.9568 88.440097 
L 153.4032 86.139342 
L 154.296 86.088368 
L 154.7424 88.419638 
L 155.1888 88.419239 
L 155.6352 86.128695 
L 156.0816 86.142959 
L 156.528 87.382862 
L 156.9744 86.088702 
L 157.8672 86.104832 
L 158.3136 88.416693 
L 158.76 88.401772 
L 159.6528 86.065399 
L 160.0992 86.066007 
L 160.5456 88.50439 
L 160.992 88.409993 
L 161.4384 86.094747 
L 161.8848 88.522017 
L 162.3312 86.095337 
L 162.7776 88.34305 
L 163.224 86.035744 
L 164.5632 86.066086 
L 165.0096 88.476024 
L 165.456 86.116537 
L 165.9024 88.428386 
L 166.3488 86.090081 
L 166.7952 88.353748 
L 167.2416 86.116176 
L 169.4736 86.115006 
L 169.92 88.390937 
L 170.3664 88.417001 
L 170.8128 88.568987 
L 171.2592 88.168751 
L 171.7056 86.14456 
L 174.384 86.110317 
L 177.0624 86.124083 
L 177.5088 88.420251 
L 177.9552 86.784211 
L 178.4016 86.090319 
L 178.848 88.391839 
L 179.2944 86.090143 
L 179.7408 86.096835 
L 180.1872 88.376707 
L 180.6336 88.375595 
L 181.08 86.068709 
L 181.9728 86.113148 
L 182.4192 88.416368 
L 183.7584 88.445294 
L 184.2048 86.108829 
L 184.6512 86.14258 
L 185.0976 86.020902 
L 185.544 88.532185 
L 185.9904 86.102217 
L 186.4368 88.470869 
L 186.8832 88.487336 
L 187.3296 86.130827 
L 188.2224 86.113414 
L 188.6688 88.426724 
L 189.1152 88.393829 
L 189.5616 86.112241 
L 190.008 86.144475 
L 190.4544 88.417295 
L 190.9008 86.189227 
L 191.3472 88.380026 
L 191.7936 86.05382 
L 192.6864 86.14248 
L 194.9184 86.215812 
L 195.3648 88.483238 
L 195.8112 87.09111 
L 196.2576 86.148926 
L 202.0608 86.083207 
L 202.5072 88.404164 
L 204.2928 88.392243 
L 206.0784 88.402344 
L 207.864 88.413015 
L 212.328 88.387367 
L 214.56 88.411191 
L 215.0064 88.358668 
L 215.8992 88.39963 
L 217.2384 88.390294 
L 217.6848 86.038875 
L 218.1312 88.414825 
L 219.024 88.401945 
L 219.4704 86.140614 
L 219.9168 88.431527 
L 220.3632 86.134742 
L 220.8096 88.42211 
L 222.1488 88.374798 
L 222.5952 86.038446 
L 223.0416 88.405322 
L 223.488 86.450427 
L 223.9344 86.126514 
L 224.3808 88.437926 
L 224.8272 86.101914 
L 225.2736 85.943346 
L 225.72 88.467039 
L 226.1664 86.076562 
L 226.6128 88.385606 
L 227.0592 88.464876 
L 227.5056 86.410707 
L 227.952 88.418549 
L 228.3984 86.105638 
L 228.8448 88.416793 
L 229.2912 88.441337 
L 229.7376 86.132557 
L 230.184 88.447812 
L 230.6304 85.959834 
L 231.0768 88.425428 
L 231.5232 86.087869 
L 231.9696 86.324946 
L 232.416 86.152523 
L 232.8624 88.338515 
L 233.7552 88.484269 
L 234.2016 86.101763 
L 234.648 88.449964 
L 235.0944 88.378818 
L 235.5408 86.101129 
L 235.9872 88.004617 
L 236.4336 85.995311 
L 237.3264 86.137002 
L 237.7728 88.586342 
L 238.2192 86.13643 
L 240.0048 86.120408 
L 240.4512 88.407281 
L 241.344 88.437667 
L 241.7904 86.102102 
L 242.2368 86.351441 
L 242.6832 86.098119 
L 243.1296 86.093114 
L 243.576 88.532281 
L 244.0224 86.112172 
L 244.4688 88.562343 
L 244.9152 86.221543 
L 245.3616 88.432043 
L 245.808 86.113444 
L 246.2544 86.080224 
L 246.7008 88.327376 
L 247.5936 88.41348 
L 248.04 86.126269 
L 248.4864 86.110145 
L 248.9328 88.407937 
L 249.3792 88.424721 
L 249.8256 86.158563 
L 250.272 86.181509 
L 250.7184 88.497181 
L 251.1648 86.099344 
L 252.9504 86.119021 
L 253.3968 86.070612 
L 253.8432 86.196997 
L 254.2896 88.499364 
L 254.736 86.24285 
L 255.1824 88.108431 
L 255.6288 86.099834 
L 256.0752 86.129703 
L 256.5216 88.428754 
L 256.968 88.399045 
L 257.4144 86.395348 
L 257.8608 86.117552 
L 258.3072 86.059124 
L 258.7536 86.129429 
L 258.7536 86.129429 
" clip-path="url(#p638a65a103)" style="fill: none; stroke: #d94801; stroke-width: 1.6; stroke-linecap: square"/>
  </g>
 </g>
 <defs>
  <clipPath id="p638a65a103">
   <rect x="36" y="20.736" width="223.2" height="133.056"/>
  </clipPath>
 </defs>
</svg>
