<?xml version="1.0" encoding="utf-8" standalone="no"?>
<!DOCTYPE svg PUBLIC "-//W3C//DTD SVG 1.1//EN"
  "http://www.w3.org/Graphics/SVG/1.1/DTD/svg11.dtd">
<svg xmlns:xlink="http://www.w3.org/1999/xlink" width="234pt" height="252pt" viewBox="0 0 234 252" xmlns="http://www.w3.org/2000/svg" version="1.1">
 <metadata>
  <rdf:RDF xmlns:dc="http://purl.org/dc/elements/1.1/" xmlns:cc="http://creativecommons.org/ns#" xmlns:rdf="http://www.w3.org/1999/02/22-rdf-syntax-ns#">
   <cc:Work>
    <dc:type rdf:resource="http://purl.org/dc/dcmitype/StillImage"/>
    <dc:date>2023-05-19T11:59:20.288886</dc:date>
    <dc:format>image/svg+xml</dc:format>
    <dc:creator>
     <cc:Agent>
      <dc:title>Matplotlib v3.5.0, https://matplotlib.org/</dc:title>
     </cc:Agent>
    </dc:creator>
   </cc:Work>
  </rdf:RDF>
 </metadata>
 <defs>
  <style type="text/css">*{stroke-linejoin: round; stroke-linecap: butt}</style>
 </defs>
 <g id="figure_1">
  <g id="patch_1">
   <path d="M 0 252 
L 234 252 
L 234 0 
L 0 0 
L 0 252 
z
" style="fill: none"/>
  </g>
  <g id="axes_1">
   <g id="patch_2">
    <path d="M 29.25 224.28 
L 179.511429 224.28 
L 179.511429 63.504 
L 29.25 63.504 
L 29.25 224.28 
z
" style="fill: none"/>
   </g>
   <g id="PathCollection_1">
    <defs>
     <path id="mffb5eaf8df" d="M 0 -3.535534 
L -0.793777 -1.09254 
L -3.362493 -1.09254 
L -1.284358 0.417313 
L -2.078135 2.860307 
L -0 1.350454 
L 2.078135 2.860307 
L 1.284358 0.417313 
L 3.362493 -1.09254 
L 0.793777 -1.09254 
z
" style="stroke: #000000"/>
    </defs>
    <g clip-path="url(#p9a58fc602f)">
     <use xlink:href="#mffb5eaf8df" x="107.697623" y="206.03729" style="stroke: #000000"/>
    </g>
   </g>
   <g id="PathCollection_2">
    <defs>
     <path id="mea0b21a666" d="M 0 2.236068 
C 0.593012 2.236068 1.161816 2.000462 1.581139 1.581139 
C 2.000462 1.161816 2.236068 0.593012 2.236068 0 
C 2.236068 -0.593012 2.000462 -1.161816 1.581139 -1.581139 
C 1.161816 -2.000462 0.593012 -2.236068 0 -2.236068 
C -0.593012 -2.236068 -1.161816 -2.000462 -1.581139 -1.581139 
C -2.000462 -1.161816 -2.236068 -0.593012 -2.236068 0 
C -2.236068 0.593012 -2.000462 1.161816 -1.581139 1.581139 
C -1.161816 2.000462 -0.593012 2.236068 0 2.236068 
z
" style="stroke: #08519c"/>
    </defs>
    <g clip-path="url(#p9a58fc602f)">
     <use xlink:href="#mea0b21a666" x="100.049964" y="209.44579" style="fill: #08519c; stroke: #08519c"/>
    </g>
   </g>
   <g id="PathCollection_3">
    <g clip-path="url(#p9a58fc602f)">
     <use xlink:href="#mea0b21a666" x="119.810621" y="211.320373" style="fill: #08519c; stroke: #08519c"/>
    </g>
   </g>
   <g id="matplotlib.axis_1"/>
   <g id="matplotlib.axis_2"/>
   <g id="PathCollection_4"/>
   <g id="PathCollection_5">
    <path d="M 89.701863 208.978002 
L 89.697888 208.89721 
L 89.694255 208.816419 
L 89.68959 208.735627 
L 89.682961 208.654834 
L 89.673953 208.574042 
L 89.662658 208.493251 
L 89.649573 208.412459 
L 89.635438 208.331666 
L 89.621054 208.250875 
L 89.607125 208.170083 
L 89.59417 208.089292 
L 89.582509 208.008498 
L 89.57231 207.927707 
L 89.563684 207.846915 
L 89.55678 207.766124 
L 89.551886 207.685331 
L 89.5495 207.604539 
L 89.550381 207.523748 
L 89.555572 207.442956 
L 89.566405 207.362163 
L 89.584462 207.281371 
L 89.611509 207.20058 
L 89.649375 207.119788 
L 89.699782 207.038995 
L 89.701913 207.036268 
L 89.763294 206.958204 
L 89.840931 206.877412 
L 89.932485 206.79662 
L 90.003952 206.741043 
L 90.036101 206.715827 
L 90.148246 206.635036 
L 90.267644 206.554244 
L 90.305991 206.529257 
L 90.389276 206.473453 
L 90.511821 206.39266 
L 90.608011 206.329634 
L 90.634234 206.311868 
L 90.754052 206.231076 
L 90.874452 206.150285 
L 90.91005 206.126742 
L 90.994175 206.069492 
L 91.115872 205.9887 
L 91.212089 205.92691 
L 91.241082 205.907909 
L 91.369164 205.827117 
L 91.503097 205.746324 
L 91.514109 205.739887 
L 91.640071 205.665532 
L 91.78226 205.584741 
L 91.816149 205.565835 
L 91.92662 205.503949 
L 92.073711 205.423156 
L 92.118188 205.398733 
L 92.220922 205.342365 
L 92.368493 205.261573 
L 92.420208 205.232927 
L 92.51488 205.180782 
L 92.660906 205.099988 
L 92.722247 205.065799 
L 92.806718 205.019197 
L 92.954121 204.938405 
L 93.024267 204.900562 
L 93.105004 204.857614 
L 93.262151 204.776821 
L 93.326306 204.745299 
L 93.428414 204.696029 
L 93.607405 204.615238 
L 93.628345 204.606354 
L 93.801979 204.534446 
L 93.930365 204.485451 
L 94.016271 204.453653 
L 94.232405 204.379867 
L 94.253704 204.372861 
L 94.518256 204.292068 
L 94.534444 204.287453 
L 94.81326 204.211277 
L 94.836483 204.205307 
L 95.138522 204.130719 
L 95.139508 204.130484 
L 95.440542 204.061324 
L 95.492176 204.049692 
L 95.742581 203.994517 
L 95.858786 203.968901 
L 96.044621 203.928023 
L 96.222299 203.888109 
L 96.346641 203.859659 
L 96.567057 203.807316 
L 96.64868 203.787183 
L 96.883665 203.726524 
L 96.950719 203.708243 
L 97.169907 203.645733 
L 97.252739 203.620505 
L 97.428605 203.564941 
L 97.554778 203.522284 
L 97.665107 203.484148 
L 97.856798 203.413973 
L 97.885707 203.403357 
L 98.097483 203.322565 
L 98.158837 203.298747 
L 98.309988 203.241773 
L 98.460877 203.186104 
L 98.532705 203.16098 
L 98.762897 203.084636 
L 98.777361 203.080189 
L 99.059555 202.999397 
L 99.064936 202.99797 
L 99.366975 202.925234 
L 99.397588 202.918606 
L 99.668995 202.863685 
L 99.811874 202.837813 
L 99.971034 202.810411 
L 100.273054 202.763352 
L 100.317167 202.757021 
L 100.575093 202.720662 
L 100.877133 202.681344 
L 100.918877 202.676229 
L 101.179153 202.643893 
L 101.481192 202.608385 
L 101.597089 202.595438 
L 101.783231 202.573833 
L 102.08527 202.540473 
L 102.333737 202.514645 
L 102.387309 202.508785 
L 102.689329 202.477894 
L 102.991369 202.449694 
L 103.180287 202.433853 
L 103.293408 202.423861 
L 103.595428 202.400255 
L 103.897467 202.379909 
L 104.199506 202.362554 
L 104.391829 202.353062 
L 104.501526 202.347334 
L 104.803565 202.333471 
L 105.105585 202.320945 
L 105.407625 202.309019 
L 105.709664 202.297003 
L 106.011684 202.284323 
L 106.276758 202.27227 
L 106.313723 202.270477 
L 106.615762 202.254594 
L 106.917801 202.237742 
L 107.21984 202.220378 
L 107.52186 202.203122 
L 107.734203 202.191477 
L 107.8239 202.186384 
L 108.125939 202.17056 
L 108.427959 202.156646 
L 108.729998 202.144714 
L 109.032037 202.134597 
L 109.334057 202.125953 
L 109.636096 202.118359 
L 109.938116 202.111413 
L 109.972005 202.110685 
L 110.240156 202.104659 
L 110.542195 202.098246 
L 110.844215 202.092503 
L 111.146254 202.088143 
L 111.448293 202.086255 
L 111.750332 202.088162 
L 112.052372 202.095164 
L 112.354392 202.108229 
L 112.392452 202.110685 
L 112.656431 202.127007 
L 112.95847 202.151459 
L 113.26049 202.180865 
L 113.355932 202.191477 
L 113.562529 202.213016 
L 113.864568 202.247162 
L 114.075311 202.27227 
L 114.166588 202.282493 
L 114.468628 202.317703 
L 114.763572 202.353062 
L 114.770648 202.353872 
L 115.072687 202.389624 
L 115.374726 202.427021 
L 115.427541 202.433853 
L 115.676746 202.465554 
L 115.978785 202.506991 
L 116.031016 202.514645 
L 116.280824 202.551361 
L 116.55331 202.595438 
L 116.582844 202.600271 
L 116.884884 202.653438 
L 117.004437 202.676229 
L 117.186904 202.711537 
L 117.406769 202.757021 
L 117.488943 202.774232 
L 117.778219 202.837813 
L 117.790982 202.840641 
L 118.093002 202.909371 
L 118.132782 202.918606 
L 118.395041 202.979786 
L 118.478009 202.999397 
L 118.69708 203.051516 
L 118.816269 203.080189 
L 118.99912 203.124635 
L 119.146599 203.16098 
L 119.301159 203.199637 
L 119.46665 203.241773 
L 119.603179 203.277149 
L 119.774989 203.322565 
L 119.905218 203.35757 
L 120.072537 203.403357 
L 120.207257 203.440658 
L 120.3626 203.484148 
L 120.509277 203.525351 
L 120.650104 203.564941 
L 120.811316 203.609981 
L 120.940661 203.645733 
L 121.113356 203.692785 
L 121.239768 203.726524 
L 121.415376 203.772515 
L 121.551833 203.807316 
L 121.717415 203.848752 
L 121.879029 203.888109 
L 122.019435 203.921799 
L 122.220276 203.968901 
L 122.321474 203.992447 
L 122.571304 204.049692 
L 122.623513 204.061655 
L 122.925533 204.13036 
L 122.926076 204.130484 
L 123.227572 204.199271 
L 123.279556 204.211277 
L 123.529612 204.269448 
L 123.625119 204.292068 
L 123.831651 204.341516 
L 123.959462 204.372861 
L 124.13369 204.416225 
L 124.279319 204.453653 
L 124.43571 204.494674 
L 124.581124 204.534446 
L 124.737749 204.578534 
L 124.861589 204.615238 
L 125.039788 204.67021 
L 125.11874 204.696029 
L 125.341808 204.77299 
L 125.352266 204.776821 
L 125.558604 204.857614 
L 125.643847 204.893788 
L 125.743401 204.938405 
L 125.908022 205.019197 
L 125.945887 205.039701 
L 126.052687 205.099988 
L 126.182592 205.180782 
L 126.247907 205.225255 
L 126.299963 205.261573 
L 126.407838 205.342365 
L 126.511498 205.423156 
L 126.549946 205.453388 
L 126.613723 205.503949 
L 126.718771 205.584741 
L 126.830772 205.665532 
L 126.851966 205.679671 
L 126.951371 205.746324 
L 127.083153 205.827117 
L 127.154005 205.866953 
L 127.225997 205.907909 
L 127.378751 205.9887 
L 127.456044 206.027244 
L 127.538821 206.069492 
L 127.702807 206.150285 
L 127.758064 206.177124 
L 127.86536 206.231076 
L 128.023848 206.311868 
L 128.060103 206.331096 
L 128.171354 206.39266 
L 128.307238 206.473453 
L 128.362143 206.509676 
L 128.426781 206.554244 
L 128.528174 206.635036 
L 128.612075 206.715827 
L 128.664182 206.780516 
L 128.676694 206.79662 
L 128.720544 206.877412 
L 128.746037 206.958204 
L 128.753888 207.038995 
L 128.745362 207.119788 
L 128.722266 207.20058 
L 128.686887 207.281371 
L 128.664182 207.322562 
L 128.641378 207.362163 
L 128.588933 207.442956 
L 128.533325 207.523748 
L 128.477377 207.604539 
L 128.423447 207.685331 
L 128.373308 207.766124 
L 128.362143 207.786238 
L 128.328743 207.846915 
L 128.290238 207.927707 
L 128.257651 208.008498 
L 128.230696 208.089292 
L 128.208966 208.170083 
L 128.192059 208.250875 
L 128.179663 208.331666 
L 128.171586 208.412459 
L 128.167737 208.493251 
L 128.168058 208.574042 
L 128.172441 208.654834 
L 128.180628 208.735627 
L 128.192146 208.816419 
L 128.206275 208.89721 
L 128.222054 208.978002 
L 128.238322 209.058795 
L 128.253786 209.139586 
L 128.267083 209.220378 
L 128.276847 209.301169 
L 128.281754 209.381963 
L 128.280564 209.462754 
L 128.272128 209.543546 
L 128.255401 209.624337 
L 128.229426 209.70513 
L 128.193318 209.785922 
L 128.146242 209.866713 
L 128.087401 209.947505 
L 128.060103 209.978803 
L 128.017846 210.028298 
L 127.937417 210.10909 
L 127.844798 210.189883 
L 127.758064 210.256961 
L 127.740727 210.270674 
L 127.629957 210.351467 
L 127.508644 210.432259 
L 127.456044 210.465187 
L 127.381184 210.513051 
L 127.247318 210.593842 
L 127.154005 210.647178 
L 127.106288 210.674635 
L 126.959732 210.755427 
L 126.851966 210.811665 
L 126.804089 210.836218 
L 126.639131 210.91701 
L 126.549946 210.958315 
L 126.460831 210.997803 
L 126.267196 211.078595 
L 126.247907 211.086268 
L 126.051929 211.159386 
L 125.945887 211.196764 
L 125.813011 211.240178 
L 125.643847 211.293005 
L 125.547105 211.320971 
L 125.341808 211.378403 
L 125.252489 211.401762 
L 125.039788 211.456173 
L 124.931539 211.482553 
L 124.737749 211.529061 
L 124.591128 211.563345 
L 124.43571 211.59919 
L 124.239666 211.644137 
L 124.13369 211.668009 
L 123.882828 211.724929 
L 123.831651 211.736247 
L 123.529612 211.803857 
L 123.521431 211.805721 
L 123.227572 211.869897 
L 123.152521 211.886513 
L 122.925533 211.934278 
L 122.769295 211.967305 
L 122.623513 211.996509 
L 122.364438 212.048097 
L 122.321474 212.056229 
L 122.019435 212.112773 
L 121.931746 212.128889 
L 121.717415 212.166571 
L 121.464481 212.209682 
L 121.415376 212.217796 
L 121.113356 212.266314 
L 120.956824 212.290473 
L 120.811316 212.312614 
L 120.509277 212.3568 
L 120.406579 212.371266 
L 120.207257 212.399457 
L 119.905218 212.440719 
L 119.820091 212.452057 
L 119.603179 212.48152 
L 119.301159 212.521885 
L 119.218698 212.532849 
L 118.99912 212.562833 
L 118.69708 212.604135 
L 118.628101 212.613641 
L 118.395041 212.646437 
L 118.093002 212.688944 
L 118.054067 212.694433 
L 117.790982 212.731683 
L 117.488943 212.773409 
L 117.47553 212.775225 
L 117.186904 212.813783 
L 116.884884 212.851776 
L 116.849388 212.856017 
L 116.582844 212.887172 
L 116.280824 212.919489 
L 116.103078 212.936809 
L 115.978785 212.948689 
L 115.676746 212.974821 
L 115.374726 212.997771 
L 115.073644 213.017601 
L 115.072687 213.017664 
L 114.770648 213.034984 
L 114.468628 213.04962 
L 114.166588 213.061851 
L 113.864568 213.072009 
L 113.562529 213.080479 
L 113.26049 213.087687 
L 112.95847 213.094083 
L 112.742906 213.098393 
L 112.656431 213.100163 
L 112.354392 213.106424 
L 112.052372 213.113179 
L 111.750332 213.120745 
L 111.448293 213.129302 
L 111.146254 213.138854 
L 110.844215 213.149198 
L 110.542195 213.159922 
L 110.240156 213.170443 
L 109.965751 213.179185 
L 109.938116 213.180091 
L 109.636096 213.188356 
L 109.334057 213.194339 
L 109.032037 213.197542 
L 108.729998 213.197667 
L 108.427959 213.194631 
L 108.125939 213.188545 
L 107.8239 213.179675 
L 107.810817 213.179185 
L 107.52186 213.168838 
L 107.21984 213.156155 
L 106.917801 213.142007 
L 106.615762 213.12673 
L 106.313723 213.110562 
L 106.096693 213.098393 
L 106.011684 213.093805 
L 105.709664 213.076779 
L 105.407625 213.058923 
L 105.105585 213.040101 
L 104.803565 213.020186 
L 104.766309 213.017601 
L 104.501526 212.999699 
L 104.199506 212.978226 
L 103.897467 212.95585 
L 103.647036 212.936809 
L 103.595428 212.932975 
L 103.293408 212.910477 
L 102.991369 212.888175 
L 102.689329 212.866375 
L 102.540524 212.856017 
L 102.387309 212.8456 
L 102.08527 212.825838 
L 101.783231 212.806529 
L 101.481192 212.787223 
L 101.297747 212.775225 
L 101.179153 212.767516 
L 100.877133 212.746767 
L 100.575093 212.723684 
L 100.273054 212.697232 
L 100.24452 212.694433 
L 99.971034 212.667085 
L 99.668995 212.631679 
L 99.534358 212.613641 
L 99.366975 212.59071 
L 99.064936 212.543684 
L 99.001779 212.532849 
L 98.762897 212.491417 
L 98.555182 212.452057 
L 98.460877 212.434217 
L 98.158837 212.373631 
L 98.147468 212.371266 
L 97.856798 212.312008 
L 97.754197 212.290473 
L 97.554778 212.249764 
L 97.361766 212.209682 
L 97.252739 212.187709 
L 96.963924 212.128889 
L 96.950719 212.126274 
L 96.64868 212.066407 
L 96.55674 212.048097 
L 96.346641 212.007114 
L 96.144119 211.967305 
L 96.044621 211.947988 
L 95.742581 211.888706 
L 95.73144 211.886513 
L 95.440542 211.829193 
L 95.323965 211.805721 
L 95.138522 211.767943 
L 94.933612 211.724929 
L 94.836483 211.704079 
L 94.567336 211.644137 
L 94.534444 211.636569 
L 94.232405 211.564295 
L 94.228559 211.563345 
L 93.930365 211.486159 
L 93.91688 211.482553 
L 93.630306 211.401762 
L 93.628345 211.401179 
L 93.363457 211.320971 
L 93.326306 211.309001 
L 93.112842 211.240178 
L 93.024267 211.209691 
L 92.875481 211.159386 
L 92.722247 211.103971 
L 92.649507 211.078595 
L 92.432796 210.997803 
L 92.420208 210.99281 
L 92.218297 210.91701 
L 92.118188 210.876405 
L 92.012706 210.836218 
L 91.817123 210.755427 
L 91.816149 210.754997 
L 91.622736 210.674635 
L 91.514109 210.625347 
L 91.441221 210.593842 
L 91.268746 210.513051 
L 91.212089 210.484521 
L 91.105571 210.432259 
L 90.953188 210.351467 
L 90.91005 210.327346 
L 90.808475 210.270674 
L 90.672374 210.189883 
L 90.608011 210.149819 
L 90.543558 210.10909 
L 90.421662 210.028298 
L 90.308236 209.947505 
L 90.305991 209.94583 
L 90.2021 209.866713 
L 90.105822 209.785922 
L 90.020206 209.70513 
L 90.003952 209.687827 
L 89.944803 209.624337 
L 89.880756 209.543546 
L 89.828226 209.462754 
L 89.786689 209.381963 
L 89.755241 209.301169 
L 89.732643 209.220378 
L 89.717378 209.139586 
L 89.707727 209.058795 
L 89.701913 208.978662 
L 89.701863 208.978002 
z
" clip-path="url(#p9a58fc602f)" style="fill: none; stroke: #08519c; stroke-opacity: 0.111111; stroke-width: 1.5"/>
   </g>
   <g id="PathCollection_6">
    <path d="M 94.508926 208.89721 
L 94.474622 208.816419 
L 94.442925 208.735627 
L 94.414264 208.654834 
L 94.38905 208.574042 
L 94.367642 208.493251 
L 94.350331 208.412459 
L 94.337341 208.331666 
L 94.328851 208.250875 
L 94.325016 208.170083 
L 94.326003 208.089292 
L 94.332019 208.008498 
L 94.343333 207.927707 
L 94.360282 207.846915 
L 94.383259 207.766124 
L 94.412668 207.685331 
L 94.448868 207.604539 
L 94.49209 207.523748 
L 94.534444 207.455498 
L 94.542153 207.442956 
L 94.597602 207.362163 
L 94.658895 207.281371 
L 94.725225 207.20058 
L 94.795565 207.119788 
L 94.836483 207.07445 
L 94.867793 207.038995 
L 94.940459 206.958204 
L 95.013796 206.877412 
L 95.086983 206.79662 
L 95.138522 206.739057 
L 95.159031 206.715827 
L 95.229384 206.635036 
L 95.299482 206.554244 
L 95.370036 206.473453 
L 95.440542 206.394531 
L 95.442217 206.39266 
L 95.517514 206.311868 
L 95.598519 206.231076 
L 95.6875 206.150285 
L 95.742581 206.105326 
L 95.78729 206.069492 
L 95.900823 205.9887 
L 96.029855 205.907909 
L 96.044621 205.899664 
L 96.178551 205.827117 
L 96.346641 205.746377 
L 96.346755 205.746324 
L 96.538588 205.665532 
L 96.64868 205.623271 
L 96.752659 205.584741 
L 96.950719 205.516788 
L 96.989325 205.503949 
L 97.247722 205.423156 
L 97.252739 205.421657 
L 97.525233 205.342365 
L 97.554778 205.334076 
L 97.818273 205.261573 
L 97.856798 205.25125 
L 98.123042 205.180782 
L 98.158837 205.171475 
L 98.435797 205.099988 
L 98.460877 205.093583 
L 98.753717 205.019197 
L 98.762897 205.016876 
L 99.064936 204.941052 
L 99.075615 204.938405 
L 99.366975 204.866338 
L 99.403154 204.857614 
L 99.668995 204.793473 
L 99.740862 204.776821 
L 99.971034 204.723326 
L 100.095311 204.696029 
L 100.273054 204.656711 
L 100.474171 204.615238 
L 100.575093 204.594125 
L 100.877133 204.535628 
L 100.883704 204.534446 
L 101.179153 204.479564 
L 101.329307 204.453653 
L 101.481192 204.42615 
L 101.783231 204.374293 
L 101.791886 204.372861 
L 102.08527 204.320762 
L 102.24933 204.292068 
L 102.387309 204.265973 
L 102.676814 204.211277 
L 102.689329 204.208732 
L 102.991369 204.147596 
L 103.076917 204.130484 
L 103.293408 204.085267 
L 103.471348 204.049692 
L 103.595428 204.024733 
L 103.897467 203.969293 
L 103.899868 203.968901 
L 104.199506 203.92191 
L 104.464194 203.888109 
L 104.501526 203.883641 
L 104.803565 203.854702 
L 105.105585 203.833731 
L 105.407625 203.819515 
L 105.709664 203.810655 
L 105.91333 203.807316 
L 106.011684 203.80577 
L 106.313723 203.803628 
L 106.615762 203.803267 
L 106.917801 203.803973 
L 107.21984 203.805274 
L 107.52186 203.806921 
L 107.583033 203.807316 
L 107.8239 203.808824 
L 108.125939 203.811099 
L 108.427959 203.813973 
L 108.729998 203.817722 
L 109.032037 203.822627 
L 109.334057 203.828912 
L 109.636096 203.836714 
L 109.938116 203.846057 
L 110.240156 203.856863 
L 110.542195 203.868977 
L 110.844215 203.882198 
L 110.971184 203.888109 
L 111.146254 203.895999 
L 111.448293 203.910243 
L 111.750332 203.925019 
L 112.052372 203.940233 
L 112.354392 203.955841 
L 112.602013 203.968901 
L 112.656431 203.971769 
L 112.95847 203.987744 
L 113.26049 204.004306 
L 113.562529 204.021679 
L 113.864568 204.040174 
L 114.010767 204.049692 
L 114.166588 204.059917 
L 114.468628 204.081364 
L 114.770648 204.105302 
L 115.052716 204.130484 
L 115.072687 204.132283 
L 115.374726 204.162577 
L 115.676746 204.197213 
L 115.785328 204.211277 
L 115.978785 204.236758 
L 116.280824 204.2819 
L 116.341564 204.292068 
L 116.582844 204.333495 
L 116.787987 204.372861 
L 116.884884 204.392008 
L 117.167681 204.453653 
L 117.186904 204.457964 
L 117.488943 204.53168 
L 117.499456 204.534446 
L 117.790982 204.612811 
L 117.799436 204.615238 
L 118.077429 204.696029 
L 118.093002 204.700569 
L 118.33988 204.776821 
L 118.395041 204.793756 
L 118.59215 204.857614 
L 118.69708 204.891175 
L 118.837465 204.938405 
L 118.99912 204.991896 
L 119.077853 205.019197 
L 119.301159 205.095276 
L 119.314427 205.099988 
L 119.546694 205.180782 
L 119.603179 205.200093 
L 119.776535 205.261573 
L 119.905218 205.306744 
L 120.003882 205.342365 
L 120.207257 205.415642 
L 120.227707 205.423156 
L 120.447042 205.503949 
L 120.509277 205.52723 
L 120.660802 205.584741 
L 120.811316 205.643704 
L 120.866566 205.665532 
L 121.062919 205.746324 
L 121.113356 205.768141 
L 121.249051 205.827117 
L 121.415376 205.904561 
L 121.422573 205.907909 
L 121.585921 205.9887 
L 121.717415 206.05915 
L 121.736889 206.069492 
L 121.879111 206.150285 
L 122.010997 206.231076 
L 122.019435 206.236586 
L 122.137114 206.311868 
L 122.255666 206.39266 
L 122.321474 206.44015 
L 122.368863 206.473453 
L 122.4774 206.554244 
L 122.579513 206.635036 
L 122.623513 206.672292 
L 122.676138 206.715827 
L 122.765728 206.79662 
L 122.846052 206.877412 
L 122.916165 206.958204 
L 122.925533 206.970813 
L 122.976652 207.038995 
L 123.026124 207.119788 
L 123.065028 207.20058 
L 123.094663 207.281371 
L 123.1168 207.362163 
L 123.133473 207.442956 
L 123.146741 207.523748 
L 123.158472 207.604539 
L 123.170174 207.685331 
L 123.182887 207.766124 
L 123.197146 207.846915 
L 123.212986 207.927707 
L 123.227572 207.996908 
L 123.230115 208.008498 
L 123.248331 208.089292 
L 123.266019 208.170083 
L 123.282152 208.250875 
L 123.295829 208.331666 
L 123.30641 208.412459 
L 123.313608 208.493251 
L 123.317509 208.574042 
L 123.318521 208.654834 
L 123.317277 208.735627 
L 123.314501 208.816419 
L 123.310888 208.89721 
L 123.306992 208.978002 
L 123.30315 209.058795 
L 123.29943 209.139586 
L 123.295572 209.220378 
L 123.290929 209.301169 
L 123.284383 209.381963 
L 123.274222 209.462754 
L 123.258008 209.543546 
L 123.23243 209.624337 
L 123.227572 209.63476 
L 123.194828 209.70513 
L 123.139135 209.785922 
L 123.05889 209.866713 
L 122.947117 209.947505 
L 122.925533 209.959659 
L 122.802604 210.028298 
L 122.623513 210.1057 
L 122.615676 210.10909 
L 122.392317 210.189883 
L 122.321474 210.21167 
L 122.132533 210.270674 
L 122.019435 210.301913 
L 121.844191 210.351467 
L 121.717415 210.384272 
L 121.536962 210.432259 
L 121.415376 210.462709 
L 121.219842 210.513051 
L 121.113356 210.539516 
L 120.900333 210.593842 
L 120.811316 210.616223 
L 120.584168 210.674635 
L 120.509277 210.693947 
L 120.275082 210.755427 
L 120.207257 210.773495 
L 119.974421 210.836218 
L 119.905218 210.855245 
L 119.680995 210.91701 
L 119.603179 210.938864 
L 119.391232 210.997803 
L 119.301159 211.023156 
L 119.099579 211.078595 
L 118.99912 211.106242 
L 118.798889 211.159386 
L 118.69708 211.186086 
L 118.480992 211.240178 
L 118.395041 211.261208 
L 118.137768 211.320971 
L 118.093002 211.331065 
L 117.790982 211.396044 
L 117.763341 211.401762 
L 117.488943 211.456995 
L 117.357126 211.482553 
L 117.186904 211.514744 
L 116.922359 211.563345 
L 116.884884 211.570088 
L 116.582844 211.623623 
L 116.463894 211.644137 
L 116.280824 211.675292 
L 115.978785 211.72469 
L 115.977258 211.724929 
L 115.676746 211.771489 
L 115.437585 211.805721 
L 115.374726 211.814649 
L 115.072687 211.853751 
L 114.784092 211.886513 
L 114.770648 211.888031 
L 114.468628 211.917572 
L 114.166588 211.942084 
L 113.864568 211.961867 
L 113.759475 211.967305 
L 113.562529 211.977508 
L 113.26049 211.989482 
L 112.95847 211.998382 
L 112.656431 212.004886 
L 112.354392 212.009654 
L 112.052372 212.0133 
L 111.750332 212.01637 
L 111.448293 212.01932 
L 111.146254 212.022495 
L 110.844215 212.026118 
L 110.542195 212.030289 
L 110.240156 212.034991 
L 109.938116 212.040103 
L 109.636096 212.045429 
L 109.483946 212.048097 
L 109.334057 212.050822 
L 109.032037 212.056011 
L 108.729998 212.060605 
L 108.427959 212.064311 
L 108.125939 212.066861 
L 107.8239 212.068009 
L 107.52186 212.067532 
L 107.21984 212.065232 
L 106.917801 212.060935 
L 106.615762 212.054492 
L 106.394165 212.048097 
L 106.313723 212.045847 
L 106.011684 212.03507 
L 105.709664 212.021936 
L 105.407625 212.006461 
L 105.105585 211.988726 
L 104.803565 211.968876 
L 104.781527 211.967305 
L 104.501526 211.947438 
L 104.199506 211.924357 
L 103.897467 211.899892 
L 103.738205 211.886513 
L 103.595428 211.874476 
L 103.293408 211.848367 
L 102.991369 211.82156 
L 102.816001 211.805721 
L 102.689329 211.794251 
L 102.387309 211.766422 
L 102.08527 211.73762 
L 101.957345 211.724929 
L 101.783231 211.707771 
L 101.481192 211.676389 
L 101.191464 211.644137 
L 101.179153 211.642784 
L 100.877133 211.607179 
L 100.575093 211.568505 
L 100.537771 211.563345 
L 100.273054 211.527152 
L 99.972452 211.482553 
L 99.971034 211.482344 
L 99.668995 211.43456 
L 99.475374 211.401762 
L 99.366975 211.383302 
L 99.064936 211.328825 
L 99.023203 211.320971 
L 98.762897 211.271247 
L 98.606191 211.240178 
L 98.460877 211.210744 
L 98.213954 211.159386 
L 98.158837 211.1476 
L 97.856798 211.081893 
L 97.841799 211.078595 
L 97.554778 211.013197 
L 97.488162 210.997803 
L 97.252739 210.940863 
L 97.156014 210.91701 
L 96.950719 210.863334 
L 96.84993 210.836218 
L 96.64868 210.777916 
L 96.573989 210.755427 
L 96.346641 210.680435 
L 96.329852 210.674635 
L 96.117778 210.593842 
L 96.044621 210.562549 
L 95.934196 210.513051 
L 95.77515 210.432259 
L 95.742581 210.413646 
L 95.637675 210.351467 
L 95.517274 210.270674 
L 95.440542 210.212647 
L 95.410946 210.189883 
L 95.315818 210.10909 
L 95.229995 210.028298 
L 95.15215 209.947505 
L 95.138522 209.932062 
L 95.079622 209.866713 
L 95.012511 209.785922 
L 94.95073 209.70513 
L 94.893938 209.624337 
L 94.841767 209.543546 
L 94.836483 209.534692 
L 94.79135 209.462754 
L 94.744239 209.381963 
L 94.700184 209.301169 
L 94.65863 209.220378 
L 94.619085 209.139586 
L 94.581213 209.058795 
L 94.544879 208.978002 
L 94.534444 208.954 
L 94.508926 208.89721 
z
" clip-path="url(#p9a58fc602f)" style="fill: none; stroke: #08519c; stroke-opacity: 0.333333; stroke-width: 1.5"/>
   </g>
   <g id="PathCollection_7">
    <path d="M 97.814252 209.139586 
L 97.760487 209.058795 
L 97.711484 208.978002 
L 97.667915 208.89721 
L 97.630966 208.816419 
L 97.602181 208.735627 
L 97.583228 208.654834 
L 97.575614 208.574042 
L 97.580411 208.493251 
L 97.598002 208.412459 
L 97.627916 208.331666 
L 97.668765 208.250875 
L 97.718343 208.170083 
L 97.773868 208.089292 
L 97.832371 208.008498 
L 97.856798 207.974877 
L 97.892061 207.927707 
L 97.950342 207.846915 
L 98.005571 207.766124 
L 98.057984 207.685331 
L 98.108817 207.604539 
L 98.158837 207.525629 
L 98.160046 207.523748 
L 98.214986 207.442956 
L 98.274992 207.362163 
L 98.342105 207.281371 
L 98.4178 207.20058 
L 98.460877 207.159607 
L 98.503706 207.119788 
L 98.600005 207.038995 
L 98.70509 206.958204 
L 98.762897 206.916614 
L 98.818702 206.877412 
L 98.939316 206.79662 
L 99.064336 206.715827 
L 99.064936 206.715447 
L 99.194384 206.635036 
L 99.3269 206.554244 
L 99.366975 206.530133 
L 99.463368 206.473453 
L 99.603859 206.39266 
L 99.668995 206.356243 
L 99.750764 206.311868 
L 99.906043 206.231076 
L 99.971034 206.198914 
L 100.07338 206.150285 
L 100.254683 206.069492 
L 100.273054 206.0618 
L 100.45711 205.9887 
L 100.575093 205.945086 
L 100.68217 205.907909 
L 100.877133 205.844788 
L 100.935769 205.827117 
L 101.179153 205.758464 
L 101.225738 205.746324 
L 101.481192 205.683751 
L 101.562188 205.665532 
L 101.783231 205.618623 
L 101.957845 205.584741 
L 102.08527 205.561342 
L 102.387309 205.510597 
L 102.430092 205.503949 
L 102.689329 205.465671 
L 102.991369 205.424416 
L 103.00105 205.423156 
L 103.293408 205.386686 
L 103.595428 205.350568 
L 103.665011 205.342365 
L 103.897467 205.315715 
L 104.199506 205.281108 
L 104.368179 205.261573 
L 104.501526 205.246298 
L 104.803565 205.210969 
L 105.057232 205.180782 
L 105.105585 205.175015 
L 105.407625 205.138416 
L 105.709664 205.101729 
L 105.724028 205.099988 
L 106.011684 205.065049 
L 106.313723 205.029396 
L 106.403186 205.019197 
L 106.615762 204.995087 
L 106.917801 204.962969 
L 107.169475 204.938405 
L 107.21984 204.933556 
L 107.52186 204.90713 
L 107.8239 204.884225 
L 108.125939 204.865026 
L 108.270615 204.857614 
L 108.427959 204.849673 
L 108.729998 204.838396 
L 109.032037 204.8314 
L 109.334057 204.82887 
L 109.636096 204.831017 
L 109.938116 204.838049 
L 110.240156 204.850146 
L 110.371979 204.857614 
L 110.542195 204.867444 
L 110.844215 204.889884 
L 111.146254 204.917184 
L 111.349711 204.938405 
L 111.448293 204.948919 
L 111.750332 204.984364 
L 112.025075 205.019197 
L 112.052372 205.022713 
L 112.354392 205.063136 
L 112.619466 205.099988 
L 112.656431 205.10518 
L 112.95847 205.148471 
L 113.176633 205.180782 
L 113.26049 205.19333 
L 113.562529 205.240046 
L 113.695624 205.261573 
L 113.864568 205.289288 
L 114.166588 205.341653 
L 114.170519 205.342365 
L 114.468628 205.397206 
L 114.602775 205.423156 
L 114.770648 205.456138 
L 115.004859 205.503949 
L 115.072687 205.518 
L 115.374726 205.582049 
L 115.387299 205.584741 
L 115.676746 205.647533 
L 115.759338 205.665532 
L 115.978785 205.714175 
L 116.12378 205.746324 
L 116.280824 205.78197 
L 116.479263 205.827117 
L 116.582844 205.851449 
L 116.82083 205.907909 
L 116.884884 205.923752 
L 117.14199 205.9887 
L 117.186904 206.000651 
L 117.437015 206.069492 
L 117.488943 206.08471 
L 117.702637 206.150285 
L 117.790982 206.179486 
L 117.93858 206.231076 
L 118.093002 206.289948 
L 118.147049 206.311868 
L 118.329357 206.39266 
L 118.395041 206.424731 
L 118.488935 206.473453 
L 118.62964 206.554244 
L 118.69708 206.596975 
L 118.754163 206.635036 
L 118.865247 206.715827 
L 118.966606 206.79662 
L 118.99912 206.824367 
L 119.05953 206.877412 
L 119.146496 206.958204 
L 119.229183 207.038995 
L 119.301159 207.112106 
L 119.308678 207.119788 
L 119.386387 207.20058 
L 119.462468 207.281371 
L 119.537071 207.362163 
L 119.603179 207.435244 
L 119.610186 207.442956 
L 119.682165 207.523748 
L 119.751455 207.604539 
L 119.817236 207.685331 
L 119.878624 207.766124 
L 119.905218 207.804175 
L 119.934814 207.846915 
L 119.984873 207.927707 
L 120.028204 208.008498 
L 120.064598 208.089292 
L 120.094131 208.170083 
L 120.117147 208.250875 
L 120.134197 208.331666 
L 120.145959 208.412459 
L 120.153124 208.493251 
L 120.156295 208.574042 
L 120.15587 208.654834 
L 120.151955 208.735627 
L 120.14429 208.816419 
L 120.132222 208.89721 
L 120.114711 208.978002 
L 120.090379 209.058795 
L 120.057589 209.139586 
L 120.014531 209.220378 
L 119.959306 209.301169 
L 119.905218 209.36436 
L 119.889539 209.381963 
L 119.801673 209.462754 
L 119.695405 209.543546 
L 119.603179 209.602718 
L 119.567883 209.624337 
L 119.41517 209.70513 
L 119.301159 209.757822 
L 119.237492 209.785922 
L 119.03283 209.866713 
L 118.99912 209.87884 
L 118.801199 209.947505 
L 118.69708 209.981068 
L 118.546897 210.028298 
L 118.395041 210.073579 
L 118.274488 210.10909 
L 118.093002 210.160572 
L 117.989399 210.189883 
L 117.790982 210.24447 
L 117.695857 210.270674 
L 117.488943 210.326322 
L 117.395369 210.351467 
L 117.186904 210.406136 
L 117.086503 210.432259 
L 116.884884 210.483325 
L 116.765373 210.513051 
L 116.582844 210.557147 
L 116.426304 210.593842 
L 116.280824 210.626954 
L 116.062091 210.674635 
L 115.978785 210.692304 
L 115.676746 210.752843 
L 115.662967 210.755427 
L 115.374726 210.808261 
L 115.20779 210.836218 
L 115.072687 210.858465 
L 114.770648 210.903188 
L 114.664832 210.91701 
L 114.468628 210.942382 
L 114.166588 210.976061 
L 113.935705 210.997803 
L 113.864568 211.00447 
L 113.562529 211.028234 
L 113.26049 211.04787 
L 112.95847 211.06422 
L 112.656431 211.078203 
L 112.647093 211.078595 
L 112.354392 211.090865 
L 112.052372 211.102874 
L 111.750332 211.114893 
L 111.448293 211.127395 
L 111.146254 211.140631 
L 110.844215 211.154621 
L 110.74608 211.159386 
L 110.542195 211.169158 
L 110.240156 211.183808 
L 109.938116 211.198086 
L 109.636096 211.211474 
L 109.334057 211.223482 
L 109.032037 211.233687 
L 108.789837 211.240178 
L 108.729998 211.241755 
L 108.427959 211.247444 
L 108.125939 211.250684 
L 107.8239 211.251392 
L 107.52186 211.249498 
L 107.21984 211.244921 
L 107.024743 211.240178 
L 106.917801 211.23755 
L 106.615762 211.227274 
L 106.313723 211.214008 
L 106.011684 211.197682 
L 105.709664 211.178295 
L 105.45379 211.159386 
L 105.407625 211.155947 
L 105.105585 211.130939 
L 104.803565 211.103577 
L 104.545885 211.078595 
L 104.501526 211.074267 
L 104.199506 211.043538 
L 103.897467 211.011781 
L 103.766584 210.997803 
L 103.595428 210.979308 
L 103.293408 210.946385 
L 103.025935 210.91701 
L 102.991369 210.913119 
L 102.689329 210.879024 
L 102.387309 210.84423 
L 102.319257 210.836218 
L 102.08527 210.807406 
L 101.783231 210.768338 
L 101.68896 210.755427 
L 101.481192 210.72512 
L 101.179153 210.67734 
L 101.163323 210.674635 
L 100.877133 210.621816 
L 100.73828 210.593842 
L 100.575093 210.558031 
L 100.385493 210.513051 
L 100.273054 210.483903 
L 100.086178 210.432259 
L 99.971034 210.397574 
L 99.825249 210.351467 
L 99.668995 210.297984 
L 99.591972 210.270674 
L 99.379476 210.189883 
L 99.366975 210.184819 
L 99.184669 210.10909 
L 99.064936 210.056382 
L 99.002717 210.028298 
L 98.833906 209.947505 
L 98.762897 209.911426 
L 98.677938 209.866713 
L 98.534886 209.785922 
L 98.460877 209.740785 
L 98.405249 209.70513 
L 98.289894 209.624337 
L 98.185438 209.543546 
L 98.158837 209.520904 
L 98.094522 209.462754 
L 98.01376 209.381963 
L 97.940517 209.301169 
L 97.873558 209.220378 
L 97.856798 209.198432 
L 97.814252 209.139586 
z
" clip-path="url(#p9a58fc602f)" style="fill: none; stroke: #08519c; stroke-opacity: 0.555556; stroke-width: 1.5"/>
   </g>
   <g id="PathCollection_8">
    <path d="M 101.779778 208.412459 
L 101.775156 208.331666 
L 101.771525 208.250875 
L 101.768563 208.170083 
L 101.766304 208.089292 
L 101.765189 208.008498 
L 101.766097 207.927707 
L 101.770354 207.846915 
L 101.779697 207.766124 
L 101.783231 207.748822 
L 101.795823 207.685331 
L 101.821147 207.604539 
L 101.858164 207.523748 
L 101.909119 207.442956 
L 101.975915 207.362163 
L 102.059937 207.281371 
L 102.08527 207.260967 
L 102.16156 207.20058 
L 102.281399 207.119788 
L 102.387309 207.057444 
L 102.419739 207.038995 
L 102.577105 206.958204 
L 102.689329 206.906012 
L 102.753937 206.877412 
L 102.951968 206.79662 
L 102.991369 206.781627 
L 103.175676 206.715827 
L 103.293408 206.676644 
L 103.428328 206.635036 
L 103.595428 206.58658 
L 103.717117 206.554244 
L 103.897467 206.508785 
L 104.051881 206.473453 
L 104.199506 206.441104 
L 104.444744 206.39266 
L 104.501526 206.381808 
L 104.803565 206.329743 
L 104.919598 206.311868 
L 105.105585 206.283662 
L 105.407625 206.242574 
L 105.501927 206.231076 
L 105.709664 206.205716 
L 106.011684 206.17215 
L 106.225272 206.150285 
L 106.313723 206.141084 
L 106.615762 206.111918 
L 106.917801 206.083982 
L 107.082955 206.069492 
L 107.21984 206.057143 
L 107.52186 206.031541 
L 107.8239 206.007631 
L 108.094442 205.9887 
L 108.125939 205.986452 
L 108.427959 205.969455 
L 108.729998 205.957706 
L 109.032037 205.952281 
L 109.334057 205.953724 
L 109.636096 205.961902 
L 109.938116 205.97605 
L 110.138514 205.9887 
L 110.240156 205.995044 
L 110.542195 206.017739 
L 110.844215 206.043031 
L 111.137399 206.069492 
L 111.146254 206.070278 
L 111.448293 206.099674 
L 111.750332 206.131246 
L 111.917076 206.150285 
L 112.052372 206.165772 
L 112.354392 206.204215 
L 112.543807 206.231076 
L 112.656431 206.247296 
L 112.95847 206.296165 
L 113.045286 206.311868 
L 113.26049 206.351721 
L 113.459401 206.39266 
L 113.562529 206.414437 
L 113.815912 206.473453 
L 113.864568 206.485088 
L 114.129367 206.554244 
L 114.166588 206.564223 
L 114.411061 206.635036 
L 114.468628 206.652146 
L 114.66906 206.715827 
L 114.770648 206.748961 
L 114.908681 206.79662 
L 115.072687 206.854883 
L 115.133056 206.877412 
L 115.342959 206.958204 
L 115.374726 206.970799 
L 115.53872 207.038995 
L 115.676746 207.099129 
L 115.7221 207.119788 
L 115.891023 207.20058 
L 115.978785 207.245395 
L 116.046269 207.281371 
L 116.186894 207.362163 
L 116.280824 207.421494 
L 116.313592 207.442956 
L 116.425483 207.523748 
L 116.524076 207.604539 
L 116.582844 207.659914 
L 116.609335 207.685331 
L 116.681486 207.766124 
L 116.741525 207.846915 
L 116.789828 207.927707 
L 116.82673 208.008498 
L 116.852486 208.089292 
L 116.867249 208.170083 
L 116.871071 208.250875 
L 116.863914 208.331666 
L 116.845684 208.412459 
L 116.816265 208.493251 
L 116.775566 208.574042 
L 116.723547 208.654834 
L 116.660245 208.735627 
L 116.585786 208.816419 
L 116.582844 208.819256 
L 116.499208 208.89721 
L 116.401926 208.978002 
L 116.294497 209.058795 
L 116.280824 209.068356 
L 116.176448 209.139586 
L 116.049365 209.220378 
L 115.978785 209.262587 
L 115.913154 209.301169 
L 115.767827 209.381963 
L 115.676746 209.429735 
L 115.612723 209.462754 
L 115.446094 209.543546 
L 115.374726 209.575853 
L 115.264755 209.624337 
L 115.072687 209.702746 
L 115.066596 209.70513 
L 114.84144 209.785922 
L 114.770648 209.80911 
L 114.583082 209.866713 
L 114.468628 209.898613 
L 114.277542 209.947505 
L 114.166588 209.973221 
L 113.902027 210.028298 
L 113.864568 210.035381 
L 113.562529 210.085972 
L 113.404107 210.10909 
L 113.26049 210.128247 
L 112.95847 210.163171 
L 112.69008 210.189883 
L 112.656431 210.192988 
L 112.354392 210.217457 
L 112.052372 210.238948 
L 111.750332 210.258176 
L 111.535954 210.270674 
L 111.448293 210.275549 
L 111.146254 210.291367 
L 110.844215 210.30655 
L 110.542195 210.321351 
L 110.240156 210.33589 
L 109.938116 210.350138 
L 109.908712 210.351467 
L 109.636096 210.363624 
L 109.334057 210.376318 
L 109.032037 210.387798 
L 108.729998 210.397533 
L 108.427959 210.404962 
L 108.125939 210.409552 
L 107.8239 210.410845 
L 107.52186 210.408483 
L 107.21984 210.402224 
L 106.917801 210.39193 
L 106.615762 210.377546 
L 106.313723 210.359064 
L 106.212063 210.351467 
L 106.011684 210.336 
L 105.709664 210.308387 
L 105.407625 210.276346 
L 105.360618 210.270674 
L 105.105585 210.238595 
L 104.803565 210.195435 
L 104.768674 210.189883 
L 104.501526 210.144998 
L 104.310146 210.10909 
L 104.199506 210.086984 
L 103.93365 210.028298 
L 103.897467 210.019714 
L 103.617851 209.947505 
L 103.595428 209.941222 
L 103.346759 209.866713 
L 103.293408 209.849209 
L 103.109705 209.785922 
L 102.991369 209.740866 
L 102.900464 209.70513 
L 102.715726 209.624337 
L 102.689329 209.611431 
L 102.552464 209.543546 
L 102.410001 209.462754 
L 102.387309 209.447969 
L 102.286155 209.381963 
L 102.180731 209.301169 
L 102.092387 209.220378 
L 102.08527 209.212516 
L 102.018674 209.139586 
L 101.958768 209.058795 
L 101.910889 208.978002 
L 101.873252 208.89721 
L 101.844204 208.816419 
L 101.822241 208.735627 
L 101.806006 208.654834 
L 101.794264 208.574042 
L 101.785898 208.493251 
L 101.783231 208.457866 
L 101.779778 208.412459 
z
" clip-path="url(#p9a58fc602f)" style="fill: none; stroke: #08519c; stroke-opacity: 0.666667; stroke-width: 1.5"/>
   </g>
   <g id="PathCollection_9">
    <path d="M 105.668338 208.008498 
L 105.615774 207.927707 
L 105.613122 207.846915 
L 105.66877 207.766124 
L 105.709664 207.738182 
L 105.809281 207.685331 
L 106.011684 207.616555 
L 106.05903 207.604539 
L 106.313723 207.556305 
L 106.551568 207.523748 
L 106.615762 207.516591 
L 106.917801 207.49207 
L 107.21984 207.474058 
L 107.52186 207.460207 
L 107.8239 207.448839 
L 108.003696 207.442956 
L 108.125939 207.439397 
L 108.427959 207.431552 
L 108.729998 207.424878 
L 109.032037 207.419892 
L 109.334057 207.417211 
L 109.636096 207.417381 
L 109.938116 207.420793 
L 110.240156 207.427709 
L 110.542195 207.438357 
L 110.634459 207.442956 
L 110.844215 207.453568 
L 111.146254 207.473744 
L 111.448293 207.499427 
L 111.675191 207.523748 
L 111.750332 207.532251 
L 112.052372 207.575474 
L 112.216132 207.604539 
L 112.354392 207.631991 
L 112.572211 207.685331 
L 112.656431 207.709848 
L 112.816277 207.766124 
L 112.95847 207.830915 
L 112.988316 207.846915 
L 113.095425 207.927707 
L 113.157768 208.008498 
L 113.179082 208.089292 
L 113.163467 208.170083 
L 113.114751 208.250875 
L 113.03608 208.331666 
L 112.95847 208.390649 
L 112.927043 208.412459 
L 112.783036 208.493251 
L 112.656431 208.553613 
L 112.608623 208.574042 
L 112.394807 208.654834 
L 112.354392 208.668712 
L 112.134338 208.735627 
L 112.052372 208.758851 
L 111.820974 208.816419 
L 111.750332 208.833159 
L 111.448293 208.895688 
L 111.439795 208.89721 
L 111.146254 208.948272 
L 110.948411 208.978002 
L 110.844215 208.993348 
L 110.542195 209.031137 
L 110.279516 209.058795 
L 110.240156 209.06287 
L 109.938116 209.087832 
L 109.636096 209.106855 
L 109.334057 209.119595 
L 109.032037 209.125361 
L 108.729998 209.123099 
L 108.427959 209.111342 
L 108.125939 209.088141 
L 107.884164 209.058795 
L 107.8239 209.050111 
L 107.52186 208.989517 
L 107.477593 208.978002 
L 107.223954 208.89721 
L 107.21984 208.895629 
L 107.043544 208.816419 
L 106.917801 208.75031 
L 106.892449 208.735627 
L 106.761653 208.654834 
L 106.63215 208.574042 
L 106.615762 208.563975 
L 106.502097 208.493251 
L 106.36069 208.412459 
L 106.313723 208.387128 
L 106.210963 208.331666 
L 106.052662 208.250875 
L 106.011684 208.229531 
L 105.902755 208.170083 
L 105.768396 208.089292 
L 105.709664 208.044326 
L 105.668338 208.008498 
z
" clip-path="url(#p9a58fc602f)" style="fill: none; stroke: #08519c; stroke-opacity: 0.888889; stroke-width: 1.5"/>
   </g>
   <g id="PathCollection_10"/>
   <g id="patch_3">
    <path d="M 29.25 224.28 
L 29.25 63.504 
" style="fill: none; stroke: #000000; stroke-width: 3; stroke-linejoin: miter; stroke-linecap: square"/>
   </g>
   <g id="patch_4">
    <path d="M 29.25 224.28 
L 179.511429 224.28 
" style="fill: none; stroke: #000000; stroke-width: 3; stroke-linejoin: miter; stroke-linecap: square"/>
   </g>
   <g id="text_1">
    <!-- $\theta^*$ -->
    <g transform="translate(107.697623 201.21401)scale(0.14 -0.14)">
     <defs>
      <path id="DejaVuSerif-Italic-3b8" d="M 2888 2600 
Q 3059 3603 2947 4113 
Q 2822 4678 2359 4678 
Q 1900 4678 1553 4113 
Q 1244 3603 1025 2600 
L 2888 2600 
z
M 2822 2266 
L 959 2266 
Q 791 1269 903 759 
Q 1031 191 1488 191 
Q 1947 191 2294 759 
Q 2603 1269 2822 2266 
z
M 2409 4931 
Q 3138 4931 3444 4248 
Q 3750 3566 3529 2433 
Q 3309 1300 2734 615 
Q 2159 -69 1434 -69 
Q 713 -69 406 615 
Q 100 1300 320 2433 
Q 541 3566 1112 4248 
Q 1684 4931 2409 4931 
z
" transform="scale(0.015625)"/>
      <path id="DejaVuSerif-2a" d="M 3097 3866 
L 1875 3297 
L 3097 2719 
L 2859 2350 
L 1772 3028 
L 1813 1838 
L 1388 1838 
L 1428 3028 
L 341 2350 
L 103 2719 
L 1325 3291 
L 103 3866 
L 341 4238 
L 1428 3559 
L 1388 4750 
L 1813 4750 
L 1772 3559 
L 2859 4238 
L 3097 3866 
z
" transform="scale(0.015625)"/>
     </defs>
     <use xlink:href="#DejaVuSerif-Italic-3b8" transform="translate(0 0.7125)"/>
     <use xlink:href="#DejaVuSerif-2a" transform="translate(81.239167 37.046875)scale(0.7)"/>
    </g>
   </g>
  </g>
 </g>
 <defs>
  <clipPath id="p9a58fc602f">
   <rect x="29.25" y="63.504" width="150.261429" height="160.776"/>
  </clipPath>
 </defs>
</svg>
