<?xml version="1.0" encoding="utf-8" standalone="no"?>
<!DOCTYPE svg PUBLIC "-//W3C//DTD SVG 1.1//EN"
  "http://www.w3.org/Graphics/SVG/1.1/DTD/svg11.dtd">
<svg xmlns:xlink="http://www.w3.org/1999/xlink" width="234pt" height="252pt" viewBox="0 0 234 252" xmlns="http://www.w3.org/2000/svg" version="1.1">
 <metadata>
  <rdf:RDF xmlns:dc="http://purl.org/dc/elements/1.1/" xmlns:cc="http://creativecommons.org/ns#" xmlns:rdf="http://www.w3.org/1999/02/22-rdf-syntax-ns#">
   <cc:Work>
    <dc:type rdf:resource="http://purl.org/dc/dcmitype/StillImage"/>
    <dc:date>2023-01-19T22:45:33.199073</dc:date>
    <dc:format>image/svg+xml</dc:format>
    <dc:creator>
     <cc:Agent>
      <dc:title>Matplotlib v3.5.0, https://matplotlib.org/</dc:title>
     </cc:Agent>
    </dc:creator>
   </cc:Work>
  </rdf:RDF>
 </metadata>
 <defs>
  <style type="text/css">*{stroke-linejoin: round; stroke-linecap: butt}</style>
 </defs>
 <g id="figure_1">
  <g id="patch_1">
   <path d="M 0 252 
L 234 252 
L 234 0 
L 0 0 
L 0 252 
z
" style="fill: none"/>
  </g>
  <g id="axes_1">
   <g id="patch_2">
    <path d="M 29.25 224.28 
L 179.511429 224.28 
L 179.511429 63.504 
L 29.25 63.504 
L 29.25 224.28 
z
" style="fill: none"/>
   </g>
   <g id="PathCollection_1">
    <defs>
     <path id="m35c3281f96" d="M 0 -3.535534 
L -0.793777 -1.09254 
L -3.362493 -1.09254 
L -1.284358 0.417313 
L -2.078135 2.860307 
L -0 1.350454 
L 2.078135 2.860307 
L 1.284358 0.417313 
L 3.362493 -1.09254 
L 0.793777 -1.09254 
z
" style="stroke: #000000"/>
    </defs>
    <g clip-path="url(#p8baae2e6ee)">
     <use xlink:href="#m35c3281f96" x="107.697623" y="206.03729" style="stroke: #000000"/>
    </g>
   </g>
   <g id="PathCollection_2">
    <defs>
     <path id="m85268e159c" d="M 0 2.236068 
C 0.593012 2.236068 1.161816 2.000462 1.581139 1.581139 
C 2.000462 1.161816 2.236068 0.593012 2.236068 0 
C 2.236068 -0.593012 2.000462 -1.161816 1.581139 -1.581139 
C 1.161816 -2.000462 0.593012 -2.236068 0 -2.236068 
C -0.593012 -2.236068 -1.161816 -2.000462 -1.581139 -1.581139 
C -2.000462 -1.161816 -2.236068 -0.593012 -2.236068 0 
C -2.236068 0.593012 -2.000462 1.161816 -1.581139 1.581139 
C -1.161816 2.000462 -0.593012 2.236068 0 2.236068 
z
" style="stroke: #08519c"/>
    </defs>
    <g clip-path="url(#p8baae2e6ee)">
     <use xlink:href="#m85268e159c" x="100.049964" y="209.44579" style="fill: #08519c; stroke: #08519c"/>
    </g>
   </g>
   <g id="PathCollection_3">
    <g clip-path="url(#p8baae2e6ee)">
     <use xlink:href="#m85268e159c" x="119.810621" y="211.320373" style="fill: #08519c; stroke: #08519c"/>
    </g>
   </g>
   <g id="matplotlib.axis_1"/>
   <g id="matplotlib.axis_2"/>
   <g id="PathCollection_4">
    <path d="M 29.25 183.076099 
L 30.005079 182.268181 
L 31.515256 182.268181 
L 32.270334 181.460259 
L 33.780492 181.460259 
L 34.535571 180.65234 
L 36.045748 180.65234 
L 36.800826 179.844422 
L 38.311003 179.844422 
L 39.066082 179.0365 
L 41.331318 179.0365 
L 42.086397 178.228581 
L 45.106731 178.228581 
L 45.86181 177.42066 
L 48.882145 177.42066 
L 49.637243 176.612741 
L 53.412637 176.612741 
L 54.167715 175.804822 
L 58.698207 175.804822 
L 59.453305 174.996904 
L 66.249034 174.996904 
L 67.004113 174.188982 
L 73.799879 174.188982 
L 74.554958 173.381063 
L 79.085431 173.381063 
L 79.840529 172.573145 
L 85.1261 172.573145 
L 85.881197 171.765223 
L 93.432024 171.765223 
L 94.187103 170.957307 
L 134.20649 170.957307 
L 134.961569 171.765223 
L 143.267455 171.765223 
L 144.022552 172.573145 
L 149.308123 172.573145 
L 150.063221 173.381063 
L 153.838634 173.381063 
L 154.593732 174.188982 
L 157.614009 174.188982 
L 158.369107 174.996904 
L 162.899618 174.996904 
L 163.654678 175.804822 
L 167.430091 175.804822 
L 168.185189 176.612741 
L 171.960602 176.612741 
L 172.7157 177.42066 
L 174.980917 177.42066 
L 175.736015 178.228581 
L 178.001271 178.228581 
L 178.756331 179.0365 
L 179.511429 179.0365 
L 179.511429 179.0365 
" clip-path="url(#p8baae2e6ee)" style="fill: none"/>
   </g>
   <g id="PathCollection_5">
    <path d="M 89.599018 208.121608 
L 89.575713 207.313688 
L 89.656611 207.220177 
L 90.338781 206.505768 
L 90.411689 206.461838 
L 91.166768 205.977567 
L 91.579953 205.697849 
L 91.921866 205.485514 
L 92.676945 205.067018 
L 93.041294 204.889929 
L 93.432024 204.713537 
L 94.187103 204.421908 
L 94.942181 204.188197 
L 95.346947 204.082009 
L 95.69726 203.992531 
L 96.452339 203.795565 
L 97.207418 203.581598 
L 97.962516 203.353295 
L 98.226239 203.27409 
L 98.717595 203.110516 
L 99.472673 202.916266 
L 100.227752 202.770486 
L 100.982831 202.656307 
L 101.737929 202.564589 
L 102.493008 202.491918 
L 102.835966 202.46617 
L 103.248087 202.417784 
L 104.003184 202.349871 
L 104.758263 202.300249 
L 105.513342 202.260529 
L 106.268421 202.221393 
L 107.0235 202.17936 
L 107.778578 202.140003 
L 108.533657 202.110785 
L 109.288736 202.09209 
L 110.043834 202.077967 
L 110.798913 202.063939 
L 111.553992 202.055566 
L 112.30907 202.069388 
L 113.064149 202.118151 
L 113.819247 202.197761 
L 114.574326 202.296392 
L 115.329405 202.408646 
L 115.672189 202.46617 
L 116.084503 202.517904 
L 116.839582 202.628854 
L 117.59466 202.765933 
L 118.349739 202.932749 
L 119.104818 203.129896 
L 119.598 203.27409 
L 119.859916 203.33344 
L 120.614995 203.5119 
L 121.370074 203.707183 
L 122.125171 203.914012 
L 122.719318 204.082009 
L 122.88025 204.123112 
L 123.635329 204.307151 
L 124.390408 204.498974 
L 125.145487 204.719051 
L 125.624952 204.889929 
L 125.900565 205.05758 
L 126.655644 205.552993 
L 126.875888 205.697849 
L 127.410723 205.982548 
L 128.165821 206.392373 
L 128.350615 206.505768 
L 128.664344 207.313688 
L 128.222042 208.121608 
L 128.213044 208.929527 
L 128.217213 209.737447 
L 128.165821 209.789857 
L 127.410723 210.476989 
L 127.330543 210.545366 
L 126.655644 210.903973 
L 125.900565 211.21195 
L 125.422765 211.353286 
L 125.145487 211.424722 
L 124.390408 211.591594 
L 123.635329 211.747723 
L 122.88025 211.909084 
L 122.125171 212.077966 
L 121.749593 212.161206 
L 121.370074 212.231669 
L 120.614995 212.358397 
L 119.859916 212.470646 
L 119.104818 212.574594 
L 118.349739 212.675596 
L 117.59466 212.774141 
L 116.839582 212.864866 
L 116.084503 212.940839 
L 115.726982 212.969125 
L 115.329405 213.006471 
L 114.574326 213.05774 
L 113.819247 213.090573 
L 113.064149 213.111177 
L 112.30907 213.127664 
L 111.553992 213.147631 
L 110.798913 213.174365 
L 110.043834 213.203567 
L 109.288736 213.224986 
L 108.533657 213.22941 
L 107.778578 213.214128 
L 107.0235 213.182488 
L 106.268421 213.13977 
L 105.513342 213.089048 
L 104.758263 213.030032 
L 104.082034 212.969125 
L 104.003184 212.964064 
L 103.248087 212.912815 
L 102.493008 212.863081 
L 101.737929 212.817154 
L 100.982831 212.77099 
L 100.227752 212.714537 
L 99.472673 212.634684 
L 98.717595 212.520015 
L 97.962516 212.367138 
L 97.207418 212.18293 
L 97.121927 212.161206 
L 96.452339 212.044982 
L 95.69726 211.907058 
L 94.942181 211.753971 
L 94.187103 211.570811 
L 93.466774 211.353286 
L 93.432024 211.341164 
L 92.676945 211.071267 
L 91.921866 210.777774 
L 91.325727 210.545366 
L 91.166768 210.460771 
L 90.411689 210.01842 
L 90.04958 209.737447 
L 89.698236 208.929527 
L 89.656611 208.576326 
L 89.599018 208.121608 
z
" clip-path="url(#p8baae2e6ee)" style="fill: none; stroke: #08519c; stroke-opacity: 0.111111; stroke-width: 1.5"/>
   </g>
   <g id="PathCollection_6">
    <path d="M 94.511788 208.929527 
L 94.32294 208.121608 
L 94.628048 207.313688 
L 94.942181 206.952866 
L 95.339489 206.505768 
L 95.69726 206.22593 
L 96.452339 205.701789 
L 96.458842 205.697849 
L 97.207418 205.445957 
L 97.962516 205.227107 
L 98.717595 205.027563 
L 99.268609 204.889929 
L 99.472673 204.832421 
L 100.227752 204.632559 
L 100.982831 204.465437 
L 101.737929 204.328054 
L 102.493008 204.207174 
L 103.248087 204.091499 
L 103.313824 204.082009 
L 104.003184 203.966927 
L 104.758263 203.87543 
L 105.513342 203.821675 
L 106.268421 203.796288 
L 107.0235 203.785984 
L 107.778578 203.781779 
L 108.533657 203.781823 
L 109.288736 203.789463 
L 110.043834 203.808421 
L 110.798913 203.838999 
L 111.553992 203.878463 
L 112.30907 203.923754 
L 113.064149 203.97338 
L 113.819247 204.028094 
L 114.470515 204.082009 
L 114.574326 204.089341 
L 115.329405 204.156908 
L 116.084503 204.25504 
L 116.839582 204.391717 
L 117.59466 204.567036 
L 118.349739 204.779934 
L 118.683703 204.889929 
L 119.104818 205.012712 
L 119.859916 205.262127 
L 120.614995 205.552623 
L 120.949987 205.697849 
L 121.370074 205.921475 
L 122.125171 206.337113 
L 122.418596 206.505768 
L 122.88025 207.036848 
L 123.109578 207.313688 
L 123.264859 208.121608 
L 123.318888 208.929527 
L 123.184667 209.737447 
L 122.88025 209.883019 
L 122.125171 210.198112 
L 121.370074 210.457828 
L 121.101181 210.545366 
L 120.614995 210.691554 
L 119.859916 210.910536 
L 119.104818 211.106383 
L 118.349739 211.27867 
L 117.992875 211.353286 
L 117.59466 211.43879 
L 116.839582 211.586482 
L 116.084503 211.718406 
L 115.329405 211.830391 
L 114.574326 211.915054 
L 113.819247 211.97007 
L 113.064149 212.000518 
L 112.30907 212.015919 
L 111.553992 212.026074 
L 110.798913 212.037597 
L 110.043834 212.052024 
L 109.288736 212.066689 
L 108.533657 212.077495 
L 107.778578 212.08094 
L 107.0235 212.074296 
L 106.268421 212.055278 
L 105.513342 212.022474 
L 104.758263 211.976314 
L 104.003184 211.919627 
L 103.248087 211.856776 
L 102.493008 211.790785 
L 101.737929 211.719876 
L 100.982831 211.636993 
L 100.227752 211.533845 
L 99.472673 211.405866 
L 99.204343 211.353286 
L 98.717595 211.255136 
L 97.962516 211.085365 
L 97.207418 210.899036 
L 96.452339 210.688769 
L 96.007911 210.545366 
L 95.69726 210.331383 
L 94.974887 209.737447 
L 94.942181 209.67905 
L 94.511788 208.929527 
z
" clip-path="url(#p8baae2e6ee)" style="fill: none; stroke: #08519c; stroke-opacity: 0.333333; stroke-width: 1.5"/>
   </g>
   <g id="PathCollection_7">
    <path d="M 97.693126 208.929527 
L 97.755929 208.121608 
L 97.962516 207.818891 
L 98.318256 207.313688 
L 98.717595 206.999602 
L 99.40891 206.505768 
L 99.472673 206.473654 
L 100.227752 206.124778 
L 100.982831 205.832684 
L 101.435051 205.697849 
L 101.737929 205.637737 
L 102.493008 205.513999 
L 103.248087 205.407953 
L 104.003184 205.30976 
L 104.758263 205.214066 
L 105.513342 205.120837 
L 106.268421 205.032994 
L 107.0235 204.953843 
L 107.748513 204.889929 
L 107.778578 204.887319 
L 108.533657 204.842476 
L 109.288736 204.825773 
L 110.043834 204.839915 
L 110.798913 204.886072 
L 110.838887 204.889929 
L 111.553992 204.965257 
L 112.30907 205.059218 
L 113.064149 205.160627 
L 113.819247 205.273323 
L 114.574326 205.406246 
L 115.329405 205.563977 
L 115.909101 205.697849 
L 116.084503 205.740592 
L 116.839582 205.930773 
L 117.59466 206.150408 
L 118.349739 206.42279 
L 118.542971 206.505768 
L 119.104818 206.947526 
L 119.494992 207.313688 
L 119.859916 207.802488 
L 120.07644 208.121608 
L 120.122585 208.929527 
L 119.859916 209.236271 
L 119.341778 209.737447 
L 119.104818 209.81724 
L 118.349739 210.048821 
L 117.59466 210.269602 
L 116.839582 210.48687 
L 116.629876 210.545366 
L 116.084503 210.667868 
L 115.329405 210.8156 
L 114.574326 210.932553 
L 113.819247 211.014805 
L 113.064149 211.066869 
L 112.30907 211.100172 
L 111.553992 211.12719 
L 110.798913 211.155996 
L 110.043834 211.187662 
L 109.288736 211.217151 
L 108.533657 211.237425 
L 107.778578 211.24363 
L 107.0235 211.233548 
L 106.268421 211.205675 
L 105.513342 211.158965 
L 104.758263 211.094515 
L 104.003184 211.016383 
L 103.248087 210.930144 
L 102.493008 210.839512 
L 101.737929 210.742204 
L 100.982831 210.628701 
L 100.52942 210.545366 
L 100.227752 210.447212 
L 99.472673 210.165558 
L 98.717595 209.855309 
L 98.463422 209.737447 
L 97.962516 209.244773 
L 97.693126 208.929527 
z
" clip-path="url(#p8baae2e6ee)" style="fill: none; stroke: #08519c; stroke-opacity: 0.555556; stroke-width: 1.5"/>
   </g>
   <g id="PathCollection_8">
    <path d="M 101.88571 208.929527 
L 101.766359 208.121608 
L 102.022914 207.313688 
L 102.493008 207.05104 
L 103.248087 206.720747 
L 103.914925 206.505768 
L 104.003184 206.484669 
L 104.758263 206.341804 
L 105.513342 206.235945 
L 106.268421 206.15345 
L 107.0235 206.082251 
L 107.778578 206.017311 
L 108.533657 205.968164 
L 109.288736 205.953727 
L 110.043834 205.982484 
L 110.798913 206.044432 
L 111.553992 206.125037 
L 112.30907 206.219489 
L 113.064149 206.333771 
L 113.819247 206.477812 
L 113.937727 206.505768 
L 114.574326 206.692051 
L 115.329405 206.966375 
L 116.084503 207.303547 
L 116.104384 207.313688 
L 116.839582 208.099065 
L 116.859624 208.121608 
L 116.839582 208.17192 
L 116.458926 208.929527 
L 116.084503 209.14881 
L 115.329405 209.56264 
L 114.968896 209.737447 
L 114.574326 209.833851 
L 113.819247 209.981342 
L 113.064149 210.088777 
L 112.30907 210.165632 
L 111.553992 210.223975 
L 110.798913 210.273182 
L 110.043834 210.317876 
L 109.288736 210.357145 
L 108.533657 210.385034 
L 107.778578 210.393489 
L 107.0235 210.376321 
L 106.268421 210.330836 
L 105.513342 210.255921 
L 104.758263 210.148803 
L 104.003184 210.00393 
L 103.248087 209.81531 
L 102.981116 209.737447 
L 102.493008 209.394777 
L 101.88571 208.929527 
z
" clip-path="url(#p8baae2e6ee)" style="fill: none; stroke: #08519c; stroke-opacity: 0.666667; stroke-width: 1.5"/>
   </g>
   <g id="PathCollection_9">
    <path d="M 105.846997 208.121608 
L 106.268421 207.89014 
L 107.0235 207.671617 
L 107.778578 207.562668 
L 108.533657 207.499646 
L 109.288736 207.467858 
L 110.043834 207.470209 
L 110.798913 207.510747 
L 111.553992 207.600513 
L 112.30907 207.768224 
L 113.064149 208.061945 
L 113.170081 208.121608 
L 113.064149 208.189798 
L 112.30907 208.557702 
L 111.553992 208.835165 
L 111.224022 208.929527 
L 110.798913 208.992487 
L 110.043834 209.059236 
L 109.288736 209.086962 
L 108.533657 209.072739 
L 107.778578 209.004895 
L 107.342537 208.929527 
L 107.0235 208.755225 
L 106.268421 208.347235 
L 105.846997 208.121608 
z
" clip-path="url(#p8baae2e6ee)" style="fill: none; stroke: #08519c; stroke-opacity: 0.888889; stroke-width: 1.5"/>
   </g>
   <g id="PathCollection_10"/>
   <g id="patch_3">
    <path d="M 29.25 224.28 
L 29.25 63.504 
" style="fill: none; stroke: #000000; stroke-width: 3; stroke-linejoin: miter; stroke-linecap: square"/>
   </g>
   <g id="patch_4">
    <path d="M 29.25 224.28 
L 179.511429 224.28 
" style="fill: none; stroke: #000000; stroke-width: 3; stroke-linejoin: miter; stroke-linecap: square"/>
   </g>
   <g id="text_1">
    <!-- $\theta^*$ -->
    <g transform="translate(107.697623 201.21401)scale(0.14 -0.14)">
     <defs>
      <path id="DejaVuSerif-Italic-3b8" d="M 2888 2600 
Q 3059 3603 2947 4113 
Q 2822 4678 2359 4678 
Q 1900 4678 1553 4113 
Q 1244 3603 1025 2600 
L 2888 2600 
z
M 2822 2266 
L 959 2266 
Q 791 1269 903 759 
Q 1031 191 1488 191 
Q 1947 191 2294 759 
Q 2603 1269 2822 2266 
z
M 2409 4931 
Q 3138 4931 3444 4248 
Q 3750 3566 3529 2433 
Q 3309 1300 2734 615 
Q 2159 -69 1434 -69 
Q 713 -69 406 615 
Q 100 1300 320 2433 
Q 541 3566 1112 4248 
Q 1684 4931 2409 4931 
z
" transform="scale(0.015625)"/>
      <path id="DejaVuSerif-2a" d="M 3097 3866 
L 1875 3297 
L 3097 2719 
L 2859 2350 
L 1772 3028 
L 1813 1838 
L 1388 1838 
L 1428 3028 
L 341 2350 
L 103 2719 
L 1325 3291 
L 103 3866 
L 341 4238 
L 1428 3559 
L 1388 4750 
L 1813 4750 
L 1772 3559 
L 2859 4238 
L 3097 3866 
z
" transform="scale(0.015625)"/>
     </defs>
     <use xlink:href="#DejaVuSerif-Italic-3b8" transform="translate(0 0.7125)"/>
     <use xlink:href="#DejaVuSerif-2a" transform="translate(81.239167 37.046875)scale(0.7)"/>
    </g>
   </g>
  </g>
 </g>
 <defs>
  <clipPath id="p8baae2e6ee">
   <rect x="29.25" y="63.504" width="150.261429" height="160.776"/>
  </clipPath>
 </defs>
</svg>
