<?xml version="1.0" encoding="utf-8" standalone="no"?>
<!DOCTYPE svg PUBLIC "-//W3C//DTD SVG 1.1//EN"
  "http://www.w3.org/Graphics/SVG/1.1/DTD/svg11.dtd">
<svg xmlns:xlink="http://www.w3.org/1999/xlink" width="144pt" height="144pt" viewBox="0 0 144 144" xmlns="http://www.w3.org/2000/svg" version="1.1">
 <metadata>
  <rdf:RDF xmlns:dc="http://purl.org/dc/elements/1.1/" xmlns:cc="http://creativecommons.org/ns#" xmlns:rdf="http://www.w3.org/1999/02/22-rdf-syntax-ns#">
   <cc:Work>
    <dc:type rdf:resource="http://purl.org/dc/dcmitype/StillImage"/>
    <dc:date>2023-05-19T12:04:05.339824</dc:date>
    <dc:format>image/svg+xml</dc:format>
    <dc:creator>
     <cc:Agent>
      <dc:title>Matplotlib v3.5.0, https://matplotlib.org/</dc:title>
     </cc:Agent>
    </dc:creator>
   </cc:Work>
  </rdf:RDF>
 </metadata>
 <defs>
  <style type="text/css">*{stroke-linejoin: round; stroke-linecap: butt}</style>
 </defs>
 <g id="figure_1">
  <g id="patch_1">
   <path d="M 0 144 
L 144 144 
L 144 0 
L 0 0 
L 0 144 
z
" style="fill: none"/>
  </g>
  <g id="axes_1">
   <g id="text_1">
    <!--  Predictive -->
    <g transform="translate(29.16 60.318281)scale(0.09 -0.09)">
     <defs>
      <path id="DejaVuSans-20" transform="scale(0.015625)"/>
      <path id="DejaVuSans-50" d="M 1259 4147 
L 1259 2394 
L 2053 2394 
Q 2494 2394 2734 2622 
Q 2975 2850 2975 3272 
Q 2975 3691 2734 3919 
Q 2494 4147 2053 4147 
L 1259 4147 
z
M 628 4666 
L 2053 4666 
Q 2838 4666 3239 4311 
Q 3641 3956 3641 3272 
Q 3641 2581 3239 2228 
Q 2838 1875 2053 1875 
L 1259 1875 
L 1259 0 
L 628 0 
L 628 4666 
z
" transform="scale(0.015625)"/>
      <path id="DejaVuSans-72" d="M 2631 2963 
Q 2534 3019 2420 3045 
Q 2306 3072 2169 3072 
Q 1681 3072 1420 2755 
Q 1159 2438 1159 1844 
L 1159 0 
L 581 0 
L 581 3500 
L 1159 3500 
L 1159 2956 
Q 1341 3275 1631 3429 
Q 1922 3584 2338 3584 
Q 2397 3584 2469 3576 
Q 2541 3569 2628 3553 
L 2631 2963 
z
" transform="scale(0.015625)"/>
      <path id="DejaVuSans-65" d="M 3597 1894 
L 3597 1613 
L 953 1613 
Q 991 1019 1311 708 
Q 1631 397 2203 397 
Q 2534 397 2845 478 
Q 3156 559 3463 722 
L 3463 178 
Q 3153 47 2828 -22 
Q 2503 -91 2169 -91 
Q 1331 -91 842 396 
Q 353 884 353 1716 
Q 353 2575 817 3079 
Q 1281 3584 2069 3584 
Q 2775 3584 3186 3129 
Q 3597 2675 3597 1894 
z
M 3022 2063 
Q 3016 2534 2758 2815 
Q 2500 3097 2075 3097 
Q 1594 3097 1305 2825 
Q 1016 2553 972 2059 
L 3022 2063 
z
" transform="scale(0.015625)"/>
      <path id="DejaVuSans-64" d="M 2906 2969 
L 2906 4863 
L 3481 4863 
L 3481 0 
L 2906 0 
L 2906 525 
Q 2725 213 2448 61 
Q 2172 -91 1784 -91 
Q 1150 -91 751 415 
Q 353 922 353 1747 
Q 353 2572 751 3078 
Q 1150 3584 1784 3584 
Q 2172 3584 2448 3432 
Q 2725 3281 2906 2969 
z
M 947 1747 
Q 947 1113 1208 752 
Q 1469 391 1925 391 
Q 2381 391 2643 752 
Q 2906 1113 2906 1747 
Q 2906 2381 2643 2742 
Q 2381 3103 1925 3103 
Q 1469 3103 1208 2742 
Q 947 2381 947 1747 
z
" transform="scale(0.015625)"/>
      <path id="DejaVuSans-69" d="M 603 3500 
L 1178 3500 
L 1178 0 
L 603 0 
L 603 3500 
z
M 603 4863 
L 1178 4863 
L 1178 4134 
L 603 4134 
L 603 4863 
z
" transform="scale(0.015625)"/>
      <path id="DejaVuSans-63" d="M 3122 3366 
L 3122 2828 
Q 2878 2963 2633 3030 
Q 2388 3097 2138 3097 
Q 1578 3097 1268 2742 
Q 959 2388 959 1747 
Q 959 1106 1268 751 
Q 1578 397 2138 397 
Q 2388 397 2633 464 
Q 2878 531 3122 666 
L 3122 134 
Q 2881 22 2623 -34 
Q 2366 -91 2075 -91 
Q 1284 -91 818 406 
Q 353 903 353 1747 
Q 353 2603 823 3093 
Q 1294 3584 2113 3584 
Q 2378 3584 2631 3529 
Q 2884 3475 3122 3366 
z
" transform="scale(0.015625)"/>
      <path id="DejaVuSans-74" d="M 1172 4494 
L 1172 3500 
L 2356 3500 
L 2356 3053 
L 1172 3053 
L 1172 1153 
Q 1172 725 1289 603 
Q 1406 481 1766 481 
L 2356 481 
L 2356 0 
L 1766 0 
Q 1100 0 847 248 
Q 594 497 594 1153 
L 594 3053 
L 172 3053 
L 172 3500 
L 594 3500 
L 594 4494 
L 1172 4494 
z
" transform="scale(0.015625)"/>
      <path id="DejaVuSans-76" d="M 191 3500 
L 800 3500 
L 1894 563 
L 2988 3500 
L 3597 3500 
L 2284 0 
L 1503 0 
L 191 3500 
z
" transform="scale(0.015625)"/>
     </defs>
     <use xlink:href="#DejaVuSans-20"/>
     <use xlink:href="#DejaVuSans-50" x="31.787109"/>
     <use xlink:href="#DejaVuSans-72" x="90.339844"/>
     <use xlink:href="#DejaVuSans-65" x="129.203125"/>
     <use xlink:href="#DejaVuSans-64" x="190.726562"/>
     <use xlink:href="#DejaVuSans-69" x="254.203125"/>
     <use xlink:href="#DejaVuSans-63" x="281.986328"/>
     <use xlink:href="#DejaVuSans-74" x="336.966797"/>
     <use xlink:href="#DejaVuSans-69" x="376.175781"/>
     <use xlink:href="#DejaVuSans-76" x="403.958984"/>
     <use xlink:href="#DejaVuSans-65" x="463.138672"/>
    </g>
    <!--  $x_i \sim p(x|\theta_i)$ -->
    <g transform="translate(29.16 72.72)scale(0.09 -0.09)">
     <defs>
      <path id="DejaVuSerif-Italic-78" d="M 409 0 
L 19 0 
L 1484 1594 
L 747 2988 
L 338 2988 
L 400 3322 
L 1244 3322 
L 1934 2028 
L 3125 3322 
L 3516 3322 
L 2078 1759 
L 2838 331 
L 3272 331 
L 3209 0 
L 2338 0 
L 1631 1325 
L 409 0 
z
" transform="scale(0.015625)"/>
      <path id="DejaVuSerif-Italic-69" d="M 1009 4353 
Q 1038 4497 1163 4603 
Q 1288 4709 1434 4709 
Q 1578 4709 1663 4603 
Q 1728 4522 1728 4422 
Q 1728 4388 1719 4353 
Q 1691 4206 1567 4103 
Q 1444 4000 1297 4000 
Q 1150 4000 1066 4103 
Q 1003 4181 1003 4281 
Q 1003 4316 1009 4353 
z
M 963 331 
L 1506 331 
L 1444 0 
L 325 0 
L 903 2988 
L 353 2988 
L 419 3322 
L 1544 3322 
L 963 331 
z
" transform="scale(0.015625)"/>
      <path id="DejaVuSerif-223c" d="M 4684 2522 
L 4684 2063 
Q 4088 1519 3519 1519 
Q 3231 1519 2713 1716 
L 2641 1744 
Q 2100 1959 1784 1959 
Q 1222 1959 678 1494 
L 678 1953 
Q 1275 2497 1844 2497 
Q 2131 2497 2650 2300 
L 2722 2272 
Q 3263 2056 3578 2056 
Q 4141 2056 4684 2522 
z
" transform="scale(0.015625)"/>
      <path id="DejaVuSerif-Italic-70" d="M 1466 1825 
L 1400 1497 
Q 1353 1250 1353 1053 
Q 1353 769 1453 581 
Q 1622 269 2059 269 
Q 2500 269 2795 622 
Q 3091 975 3225 1663 
Q 3284 1978 3284 2225 
Q 3284 2513 3200 2703 
Q 3041 3053 2600 3053 
Q 2163 3053 1872 2737 
Q 1581 2422 1466 1825 
z
M 1116 2988 
L 563 2988 
L 628 3322 
L 1756 3322 
L 1656 2803 
Q 1884 3116 2175 3264 
Q 2466 3413 2850 3413 
Q 3463 3413 3753 2928 
Q 3947 2609 3947 2163 
Q 3947 1928 3897 1663 
Q 3744 881 3262 395 
Q 2781 -91 2169 -91 
Q 1784 -91 1551 57 
Q 1319 206 1213 519 
L 850 -1331 
L 275 -1331 
L 1116 2988 
z
" transform="scale(0.015625)"/>
      <path id="DejaVuSerif-28" d="M 2041 -997 
Q 1281 -656 893 83 
Q 506 822 506 1931 
Q 506 3044 893 3783 
Q 1281 4522 2041 4863 
L 2041 4556 
Q 1559 4225 1350 3623 
Q 1141 3022 1141 1931 
Q 1141 844 1350 242 
Q 1559 -359 2041 -691 
L 2041 -997 
z
" transform="scale(0.015625)"/>
      <path id="DejaVuSerif-7c" d="M 1331 4891 
L 1331 -1509 
L 825 -1509 
L 825 4891 
L 1331 4891 
z
" transform="scale(0.015625)"/>
      <path id="DejaVuSerif-Italic-3b8" d="M 2888 2600 
Q 3059 3603 2947 4113 
Q 2822 4678 2359 4678 
Q 1900 4678 1553 4113 
Q 1244 3603 1025 2600 
L 2888 2600 
z
M 2822 2266 
L 959 2266 
Q 791 1269 903 759 
Q 1031 191 1488 191 
Q 1947 191 2294 759 
Q 2603 1269 2822 2266 
z
M 2409 4931 
Q 3138 4931 3444 4248 
Q 3750 3566 3529 2433 
Q 3309 1300 2734 615 
Q 2159 -69 1434 -69 
Q 713 -69 406 615 
Q 100 1300 320 2433 
Q 541 3566 1112 4248 
Q 1684 4931 2409 4931 
z
" transform="scale(0.015625)"/>
      <path id="DejaVuSerif-29" d="M 453 -997 
L 453 -691 
Q 934 -359 1145 242 
Q 1356 844 1356 1931 
Q 1356 3022 1145 3623 
Q 934 4225 453 4556 
L 453 4863 
Q 1216 4522 1603 3783 
Q 1991 3044 1991 1931 
Q 1991 822 1603 83 
Q 1216 -656 453 -997 
z
" transform="scale(0.015625)"/>
     </defs>
     <use xlink:href="#DejaVuSans-20" transform="translate(0 0.953125)"/>
     <use xlink:href="#DejaVuSerif-Italic-78" transform="translate(31.787109 0.953125)"/>
     <use xlink:href="#DejaVuSerif-Italic-69" transform="translate(88.183594 -14.61875)scale(0.7)"/>
     <use xlink:href="#DejaVuSerif-223c" transform="translate(132.131445 0.953125)"/>
     <use xlink:href="#DejaVuSerif-Italic-70" transform="translate(234.885352 0.953125)"/>
     <use xlink:href="#DejaVuSerif-28" transform="translate(298.899023 0.953125)"/>
     <use xlink:href="#DejaVuSerif-Italic-78" transform="translate(337.912695 0.953125)"/>
     <use xlink:href="#DejaVuSerif-7c" transform="translate(394.30918 0.953125)"/>
     <use xlink:href="#DejaVuSerif-Italic-3b8" transform="translate(428.000586 0.953125)"/>
     <use xlink:href="#DejaVuSerif-Italic-69" transform="translate(488.205664 -14.61875)scale(0.7)"/>
     <use xlink:href="#DejaVuSerif-29" transform="translate(513.188672 0.953125)"/>
    </g>
   </g>
  </g>
 </g>
</svg>
