<?xml version="1.0" encoding="utf-8" standalone="no"?>
<!DOCTYPE svg PUBLIC "-//W3C//DTD SVG 1.1//EN"
  "http://www.w3.org/Graphics/SVG/1.1/DTD/svg11.dtd">
<svg xmlns:xlink="http://www.w3.org/1999/xlink" width="180pt" height="108pt" viewBox="0 0 180 108" xmlns="http://www.w3.org/2000/svg" version="1.1">
 <metadata>
  <rdf:RDF xmlns:dc="http://purl.org/dc/elements/1.1/" xmlns:cc="http://creativecommons.org/ns#" xmlns:rdf="http://www.w3.org/1999/02/22-rdf-syntax-ns#">
   <cc:Work>
    <dc:type rdf:resource="http://purl.org/dc/dcmitype/StillImage"/>
    <dc:date>2023-05-19T12:04:04.714483</dc:date>
    <dc:format>image/svg+xml</dc:format>
    <dc:creator>
     <cc:Agent>
      <dc:title>Matplotlib v3.5.0, https://matplotlib.org/</dc:title>
     </cc:Agent>
    </dc:creator>
   </cc:Work>
  </rdf:RDF>
 </metadata>
 <defs>
  <style type="text/css">*{stroke-linejoin: round; stroke-linecap: butt}</style>
 </defs>
 <g id="figure_1">
  <g id="patch_1">
   <path d="M 0 108 
L 180 108 
L 180 0 
L 0 0 
L 0 108 
z
" style="fill: none"/>
  </g>
  <g id="axes_1">
   <path d="M 22.5 73.882597 
L 22.779 73.956831 
L 23.058 74.269159 
L 23.337 73.872869 
L 24.732 74.19785 
L 25.011 73.965451 
L 25.29 73.984248 
L 25.569 73.872718 
L 26.127 74.077985 
L 26.406 74.077296 
L 26.685 74.250438 
L 26.964 73.855983 
L 27.243 74.161205 
L 27.522 74.164361 
L 27.801 73.975609 
L 28.08 74.321299 
L 28.359 74.118891 
L 28.638 74.095023 
L 28.917 74.26208 
L 29.754 74.058505 
L 30.033 74.23652 
L 30.312 74.132416 
L 30.591 74.354671 
L 31.149 74.155024 
L 31.428 74.085349 
L 31.986 74.426478 
L 32.265 74.166226 
L 32.544 74.226121 
L 32.823 73.917761 
L 33.102 74.40093 
L 33.381 74.512568 
L 33.66 74.053356 
L 33.939 74.519253 
L 34.218 74.342843 
L 34.497 74.33663 
L 34.776 74.528985 
L 35.334 74.237681 
L 35.892 74.476795 
L 36.171 74.187857 
L 36.45 74.385197 
L 36.729 74.265862 
L 37.008 74.417546 
L 37.566 74.344171 
L 37.845 74.474491 
L 38.403 74.370928 
L 38.961 74.393359 
L 39.24 74.281307 
L 40.077 74.425651 
L 40.356 74.601612 
L 40.635 74.35299 
L 40.914 74.501202 
L 42.03 74.392041 
L 42.309 74.63829 
L 43.425 74.355393 
L 43.983 74.563521 
L 44.262 74.342615 
L 44.541 74.38756 
L 44.82 74.298517 
L 45.099 74.545221 
L 45.936 74.366627 
L 46.215 74.585981 
L 46.494 74.349114 
L 46.773 73.88475 
L 47.052 74.034751 
L 47.331 73.63715 
L 47.61 73.686024 
L 47.889 74.039431 
L 48.168 73.557853 
L 48.447 73.565519 
L 48.726 73.450485 
L 49.005 73.133646 
L 49.842 73.260849 
L 50.679 72.807457 
L 50.958 72.538624 
L 51.237 72.616394 
L 51.795 72.351912 
L 52.074 72.479382 
L 52.353 72.258831 
L 53.19 72.202183 
L 53.748 71.991294 
L 54.027 72.170827 
L 54.306 71.942105 
L 54.585 71.952174 
L 54.864 71.773932 
L 55.701 71.709254 
L 55.98 71.260808 
L 56.538 71.192471 
L 56.817 71.452518 
L 57.096 70.972798 
L 57.375 71.054836 
L 57.933 71.003699 
L 58.212 71.104438 
L 58.491 70.811359 
L 58.77 71.005654 
L 59.049 70.746215 
L 59.328 70.79588 
L 59.607 70.401634 
L 59.886 70.657215 
L 60.165 70.641091 
L 60.723 70.329201 
L 61.002 70.41435 
L 61.56 70.379341 
L 61.839 70.083576 
L 62.397 70.007586 
L 62.676 70.058488 
L 63.234 69.788096 
L 63.513 70.018358 
L 63.792 70.031231 
L 64.35 69.735569 
L 64.629 69.767953 
L 64.908 69.973888 
L 65.187 69.619641 
L 65.466 69.504763 
L 65.745 69.65026 
L 66.024 69.432052 
L 66.582 69.561737 
L 66.861 69.369832 
L 67.14 69.433466 
L 67.419 69.023072 
L 67.977 69.237661 
L 68.535 69.040672 
L 69.093 68.927499 
L 69.372 68.836787 
L 69.651 68.952653 
L 69.93 68.599783 
L 70.209 69.022639 
L 71.325 68.190222 
L 71.604 68.597303 
L 71.883 68.049294 
L 72.162 68.151993 
L 73.278 67.240074 
L 73.557 67.252805 
L 74.115 65.668617 
L 74.394 63.346169 
L 74.952 43.468445 
L 75.231 44.272248 
L 75.789 54.708666 
L 76.347 65.767301 
L 76.905 73.810482 
L 77.184 75.663995 
L 77.463 76.368593 
L 77.742 76.661557 
L 78.021 76.786865 
L 78.3 77.087081 
L 78.579 77.090814 
L 78.858 76.891033 
L 79.695 76.716582 
L 80.253 76.419703 
L 80.532 76.417562 
L 80.811 76.574839 
L 81.09 76.112634 
L 81.369 76.216775 
L 81.927 75.681373 
L 82.206 75.784946 
L 82.485 75.731233 
L 83.043 75.137234 
L 83.322 75.256762 
L 83.601 75.499018 
L 83.88 75.039741 
L 84.159 74.868754 
L 84.438 75.070021 
L 84.717 74.723354 
L 84.996 75.01554 
L 85.554 74.972907 
L 85.833 74.677257 
L 86.112 74.691623 
L 86.67 74.056113 
L 86.949 74.497501 
L 87.228 74.182434 
L 87.507 74.063649 
L 87.786 74.248078 
L 88.065 73.599331 
L 88.344 73.725348 
L 88.623 73.97932 
L 88.902 73.595345 
L 89.181 73.876314 
L 89.46 73.638023 
L 89.739 73.786527 
L 90.018 73.171138 
L 90.297 73.554088 
L 90.855 73.206679 
L 91.134 73.32125 
L 91.692 73.013033 
L 92.25 72.94626 
L 92.529 72.6224 
L 92.808 72.860502 
L 93.087 72.779004 
L 93.366 72.815132 
L 93.645 72.707424 
L 93.924 72.794133 
L 94.203 72.695743 
L 94.482 72.337423 
L 94.761 72.657885 
L 95.04 72.52059 
L 95.319 72.184425 
L 95.598 72.417831 
L 95.877 72.352041 
L 96.156 72.080463 
L 96.435 72.125732 
L 96.714 72.51279 
L 96.993 72.009366 
L 97.272 72.099632 
L 97.551 71.748442 
L 97.83 72.18025 
L 98.388 71.892156 
L 98.946 71.935913 
L 99.225 71.743888 
L 99.504 71.900066 
L 99.783 71.471932 
L 100.341 71.950433 
L 100.62 71.484151 
L 101.457 71.286406 
L 101.736 71.558769 
L 102.015 71.247337 
L 102.294 71.138688 
L 102.573 71.479229 
L 102.852 71.249243 
L 103.131 71.304414 
L 103.41 71.073353 
L 103.968 71.413386 
L 104.526 71.179812 
L 104.805 71.332115 
L 105.363 71.045652 
L 105.642 71.146805 
L 105.921 70.849752 
L 106.479 70.969763 
L 106.758 70.797644 
L 107.037 70.92047 
L 107.316 70.869561 
L 107.595 70.967923 
L 107.874 70.678598 
L 108.432 70.632667 
L 108.711 70.977895 
L 108.99 70.571386 
L 109.548 70.587038 
L 109.827 70.797342 
L 110.943 70.397278 
L 111.222 70.590542 
L 111.501 70.510482 
L 112.059 70.660955 
L 112.338 70.396739 
L 112.896 70.435906 
L 113.175 70.454659 
L 113.454 70.15295 
L 114.291 70.428709 
L 114.57 70.206961 
L 114.849 70.2496 
L 115.128 70.482456 
L 115.407 70.144709 
L 115.686 70.199879 
L 116.244 70.013547 
L 116.523 70.161211 
L 116.802 70.005586 
L 117.36 70.252787 
L 117.639 70.084592 
L 117.918 70.373643 
L 118.476 69.800015 
L 119.313 70.017358 
L 119.592 69.922077 
L 119.871 70.092541 
L 120.708 69.690009 
L 120.987 70.264983 
L 121.266 69.869528 
L 121.545 69.725154 
L 122.103 69.994864 
L 122.382 69.859491 
L 122.661 69.883275 
L 122.94 69.678806 
L 124.056 69.777748 
L 124.614 70.006354 
L 124.893 69.653647 
L 125.172 69.617726 
L 125.451 69.708405 
L 125.73 69.676102 
L 126.009 69.764492 
L 126.288 69.54442 
L 126.567 69.900984 
L 127.683 69.378711 
L 127.962 69.587502 
L 128.799 69.566351 
L 129.078 69.727438 
L 129.357 69.729315 
L 129.636 69.273358 
L 130.473 69.439114 
L 131.31 69.423312 
L 131.589 69.321271 
L 131.868 69.445406 
L 132.426 69.124278 
L 132.705 69.203223 
L 132.984 69.452803 
L 133.263 69.216257 
L 133.542 69.250807 
L 133.821 68.978734 
L 134.1 69.401595 
L 134.379 69.048187 
L 134.658 69.347922 
L 134.937 69.457182 
L 135.216 69.186808 
L 135.495 69.233937 
L 136.053 69.009697 
L 136.611 69.33858 
L 136.89 69.010363 
L 137.169 69.194108 
L 137.448 69.102385 
L 137.727 68.849127 
L 138.564 69.141635 
L 138.843 68.889894 
L 139.68 69.431645 
L 139.959 69.359345 
L 140.238 69.735008 
L 140.517 69.569279 
L 140.796 69.602293 
L 141.075 69.977833 
L 141.633 70.01669 
L 142.47 70.384495 
L 142.749 70.096624 
L 143.028 70.484871 
L 143.586 70.585971 
L 143.865 70.900147 
L 144.423 71.203127 
L 144.981 71.072137 
L 145.26 71.271138 
L 145.539 71.186864 
L 146.934 71.823959 
L 147.213 71.614806 
L 147.492 71.852673 
L 147.771 71.652278 
L 149.166 72.276245 
L 149.724 72.104212 
L 150.282 72.562553 
L 150.84 72.496607 
L 151.119 72.977833 
L 151.398 72.514207 
L 152.235 72.928559 
L 152.514 72.845705 
L 152.793 73.169273 
L 153.63 72.938539 
L 154.188 73.211995 
L 154.467 72.890155 
L 154.746 73.480066 
L 155.025 73.291677 
L 155.304 73.398153 
L 155.862 73.023889 
L 156.141 73.513853 
L 156.42 73.638892 
L 156.699 73.621595 
L 156.978 73.378628 
L 157.257 73.740192 
L 157.536 73.698838 
L 158.094 73.877578 
L 158.373 73.914969 
L 158.652 73.782464 
L 159.489 74.040643 
L 159.768 73.930021 
L 160.047 74.022011 
L 160.326 73.927993 
L 160.884 74.134696 
L 161.163 73.97133 
L 161.442 74.422681 
L 161.721 74.296314 
L 161.721 74.296314 
" clip-path="url(#pf3f7887082)" style="fill: none; stroke: #000000; stroke-width: 3.2; stroke-linecap: square"/>
   <path d="M 22.5 73.882597 
L 22.779 73.956831 
L 23.058 74.269159 
L 23.337 73.872869 
L 24.732 74.19785 
L 25.011 73.965451 
L 25.29 73.984248 
L 25.569 73.872718 
L 26.127 74.077985 
L 26.406 74.077296 
L 26.685 74.250438 
L 26.964 73.855983 
L 27.243 74.161205 
L 27.522 74.164361 
L 27.801 73.975609 
L 28.08 74.321299 
L 28.359 74.118891 
L 28.638 74.095023 
L 28.917 74.26208 
L 29.754 74.058505 
L 30.033 74.23652 
L 30.312 74.132416 
L 30.591 74.354671 
L 31.149 74.155024 
L 31.428 74.085349 
L 31.986 74.426478 
L 32.265 74.166226 
L 32.544 74.226121 
L 32.823 73.917761 
L 33.102 74.40093 
L 33.381 74.512568 
L 33.66 74.053356 
L 33.939 74.519253 
L 34.218 74.342843 
L 34.497 74.33663 
L 34.776 74.528985 
L 35.334 74.237681 
L 35.892 74.476795 
L 36.171 74.187857 
L 36.45 74.385197 
L 36.729 74.265862 
L 37.008 74.417546 
L 37.566 74.344171 
L 37.845 74.474491 
L 38.403 74.370928 
L 38.961 74.393359 
L 39.24 74.281307 
L 40.077 74.425651 
L 40.356 74.601612 
L 40.635 74.35299 
L 40.914 74.501202 
L 42.03 74.392041 
L 42.309 74.63829 
L 43.425 74.355393 
L 43.983 74.563521 
L 44.262 74.342615 
L 44.541 74.38756 
L 44.82 74.298517 
L 45.099 74.545221 
L 45.936 74.366627 
L 46.215 74.585981 
L 46.494 74.349114 
L 46.773 73.88475 
L 47.052 74.034751 
L 47.331 73.63715 
L 47.61 73.686024 
L 47.889 74.039431 
L 48.168 73.557853 
L 48.447 73.565519 
L 48.726 73.450485 
L 49.005 73.133646 
L 49.842 73.260849 
L 50.679 72.807457 
L 50.958 72.538624 
L 51.237 72.616394 
L 51.795 72.351912 
L 52.074 72.479382 
L 52.353 72.258831 
L 53.19 72.202183 
L 53.748 71.991294 
L 54.027 72.170827 
L 54.306 71.942105 
L 54.585 71.952174 
L 54.864 71.773932 
L 55.701 71.709254 
L 55.98 71.260808 
L 56.538 71.192471 
L 56.817 71.452518 
L 57.096 70.972798 
L 57.375 71.054836 
L 57.933 71.003699 
L 58.212 71.104438 
L 58.491 70.811359 
L 58.77 71.005654 
L 59.049 70.746215 
L 59.328 70.79588 
L 59.607 70.401634 
L 59.886 70.657215 
L 60.165 70.641091 
L 60.723 70.329201 
L 61.002 70.41435 
L 61.56 70.379341 
L 61.839 70.083576 
L 62.397 70.007586 
L 62.676 70.058488 
L 63.234 69.788096 
L 63.513 70.018358 
L 63.792 70.031231 
L 64.35 69.735569 
L 64.629 69.767953 
L 64.908 69.973888 
L 65.187 69.619641 
L 65.466 69.504763 
L 65.745 69.65026 
L 66.024 69.432052 
L 66.582 69.561737 
L 66.861 69.369832 
L 67.14 69.433466 
L 67.419 69.023072 
L 67.977 69.237661 
L 68.535 69.040672 
L 69.093 68.927499 
L 69.372 68.836787 
L 69.651 68.952653 
L 69.93 68.599783 
L 70.209 69.022639 
L 71.325 68.190222 
L 71.604 68.597303 
L 71.883 68.049294 
L 72.162 68.151993 
L 73.278 67.240074 
L 73.557 67.252805 
L 74.115 65.668617 
L 74.394 63.346169 
L 74.952 43.468445 
L 75.231 44.272248 
L 75.789 54.708666 
L 76.347 65.767301 
L 76.905 73.810482 
L 77.184 75.663995 
L 77.463 76.368593 
L 77.742 76.661557 
L 78.021 76.786865 
L 78.3 77.087081 
L 78.579 77.090814 
L 78.858 76.891033 
L 79.695 76.716582 
L 80.253 76.419703 
L 80.532 76.417562 
L 80.811 76.574839 
L 81.09 76.112634 
L 81.369 76.216775 
L 81.927 75.681373 
L 82.206 75.784946 
L 82.485 75.731233 
L 83.043 75.137234 
L 83.322 75.256762 
L 83.601 75.499018 
L 83.88 75.039741 
L 84.159 74.868754 
L 84.438 75.070021 
L 84.717 74.723354 
L 84.996 75.01554 
L 85.554 74.972907 
L 85.833 74.677257 
L 86.112 74.691623 
L 86.67 74.056113 
L 86.949 74.497501 
L 87.228 74.182434 
L 87.507 74.063649 
L 87.786 74.248078 
L 88.065 73.599331 
L 88.344 73.725348 
L 88.623 73.97932 
L 88.902 73.595345 
L 89.181 73.876314 
L 89.46 73.638023 
L 89.739 73.786527 
L 90.018 73.171138 
L 90.297 73.554088 
L 90.855 73.206679 
L 91.134 73.32125 
L 91.692 73.013033 
L 92.25 72.94626 
L 92.529 72.6224 
L 92.808 72.860502 
L 93.087 72.779004 
L 93.366 72.815132 
L 93.645 72.707424 
L 93.924 72.794133 
L 94.203 72.695743 
L 94.482 72.337423 
L 94.761 72.657885 
L 95.04 72.52059 
L 95.319 72.184425 
L 95.598 72.417831 
L 95.877 72.352041 
L 96.156 72.080463 
L 96.435 72.125732 
L 96.714 72.51279 
L 96.993 72.009366 
L 97.272 72.099632 
L 97.551 71.748442 
L 97.83 72.18025 
L 98.388 71.892156 
L 98.946 71.935913 
L 99.225 71.743888 
L 99.504 71.900066 
L 99.783 71.471932 
L 100.341 71.950433 
L 100.62 71.484151 
L 101.457 71.286406 
L 101.736 71.558769 
L 102.015 71.247337 
L 102.294 71.138688 
L 102.573 71.479229 
L 102.852 71.249243 
L 103.131 71.304414 
L 103.41 71.073353 
L 103.968 71.413386 
L 104.526 71.179812 
L 104.805 71.332115 
L 105.363 71.045652 
L 105.642 71.146805 
L 105.921 70.849752 
L 106.479 70.969763 
L 106.758 70.797644 
L 107.037 70.92047 
L 107.316 70.869561 
L 107.595 70.967923 
L 107.874 70.678598 
L 108.432 70.632667 
L 108.711 70.977895 
L 108.99 70.571386 
L 109.548 70.587038 
L 109.827 70.797342 
L 110.943 70.397278 
L 111.222 70.590542 
L 111.501 70.510482 
L 112.059 70.660955 
L 112.338 70.396739 
L 112.896 70.435906 
L 113.175 70.454659 
L 113.454 70.15295 
L 114.291 70.428709 
L 114.57 70.206961 
L 114.849 70.2496 
L 115.128 70.482456 
L 115.407 70.144709 
L 115.686 70.199879 
L 116.244 70.013547 
L 116.523 70.161211 
L 116.802 70.005586 
L 117.36 70.252787 
L 117.639 70.084592 
L 117.918 70.373643 
L 118.476 69.800015 
L 119.313 70.017358 
L 119.592 69.922077 
L 119.871 70.092541 
L 120.708 69.690009 
L 120.987 70.264983 
L 121.266 69.869528 
L 121.545 69.725154 
L 122.103 69.994864 
L 122.382 69.859491 
L 122.661 69.883275 
L 122.94 69.678806 
L 124.056 69.777748 
L 124.614 70.006354 
L 124.893 69.653647 
L 125.172 69.617726 
L 125.451 69.708405 
L 125.73 69.676102 
L 126.009 69.764492 
L 126.288 69.54442 
L 126.567 69.900984 
L 127.683 69.378711 
L 127.962 69.587502 
L 128.799 69.566351 
L 129.078 69.727438 
L 129.357 69.729315 
L 129.636 69.273358 
L 130.473 69.439114 
L 131.31 69.423312 
L 131.589 69.321271 
L 131.868 69.445406 
L 132.426 69.124278 
L 132.705 69.203223 
L 132.984 69.452803 
L 133.263 69.216257 
L 133.542 69.250807 
L 133.821 68.978734 
L 134.1 69.401595 
L 134.379 69.048187 
L 134.658 69.347922 
L 134.937 69.457182 
L 135.216 69.186808 
L 135.495 69.233937 
L 136.053 69.009697 
L 136.611 69.33858 
L 136.89 69.010363 
L 137.169 69.194108 
L 137.448 69.102385 
L 137.727 68.849127 
L 138.564 69.141635 
L 138.843 68.889894 
L 139.68 69.431645 
L 139.959 69.359345 
L 140.238 69.735008 
L 140.517 69.569279 
L 140.796 69.602293 
L 141.075 69.977833 
L 141.633 70.01669 
L 142.47 70.384495 
L 142.749 70.096624 
L 143.028 70.484871 
L 143.586 70.585971 
L 143.865 70.900147 
L 144.423 71.203127 
L 144.981 71.072137 
L 145.26 71.271138 
L 145.539 71.186864 
L 146.934 71.823959 
L 147.213 71.614806 
L 147.492 71.852673 
L 147.771 71.652278 
L 149.166 72.276245 
L 149.724 72.104212 
L 150.282 72.562553 
L 150.84 72.496607 
L 151.119 72.977833 
L 151.398 72.514207 
L 152.235 72.928559 
L 152.514 72.845705 
L 152.793 73.169273 
L 153.63 72.938539 
L 154.188 73.211995 
L 154.467 72.890155 
L 154.746 73.480066 
L 155.025 73.291677 
L 155.304 73.398153 
L 155.862 73.023889 
L 156.141 73.513853 
L 156.42 73.638892 
L 156.699 73.621595 
L 156.978 73.378628 
L 157.257 73.740192 
L 157.536 73.698838 
L 158.094 73.877578 
L 158.373 73.914969 
L 158.652 73.782464 
L 159.489 74.040643 
L 159.768 73.930021 
L 160.047 74.022011 
L 160.326 73.927993 
L 160.884 74.134696 
L 161.163 73.97133 
L 161.442 74.422681 
L 161.721 74.296314 
L 161.721 74.296314 
" clip-path="url(#pf3f7887082)" style="fill: none; stroke: #d94801; stroke-width: 1.6; stroke-linecap: square"/>
  </g>
 </g>
 <defs>
  <clipPath id="pf3f7887082">
   <rect x="22.5" y="12.96" width="139.5" height="83.16"/>
  </clipPath>
 </defs>
</svg>
