<?xml version="1.0" encoding="utf-8" standalone="no"?>
<!DOCTYPE svg PUBLIC "-//W3C//DTD SVG 1.1//EN"
  "http://www.w3.org/Graphics/SVG/1.1/DTD/svg11.dtd">
<svg xmlns:xlink="http://www.w3.org/1999/xlink" width="180pt" height="108pt" viewBox="0 0 180 108" xmlns="http://www.w3.org/2000/svg" version="1.1">
 <metadata>
  <rdf:RDF xmlns:dc="http://purl.org/dc/elements/1.1/" xmlns:cc="http://creativecommons.org/ns#" xmlns:rdf="http://www.w3.org/1999/02/22-rdf-syntax-ns#">
   <cc:Work>
    <dc:type rdf:resource="http://purl.org/dc/dcmitype/StillImage"/>
    <dc:date>2023-05-19T12:04:04.841788</dc:date>
    <dc:format>image/svg+xml</dc:format>
    <dc:creator>
     <cc:Agent>
      <dc:title>Matplotlib v3.5.0, https://matplotlib.org/</dc:title>
     </cc:Agent>
    </dc:creator>
   </cc:Work>
  </rdf:RDF>
 </metadata>
 <defs>
  <style type="text/css">*{stroke-linejoin: round; stroke-linecap: butt}</style>
 </defs>
 <g id="figure_1">
  <g id="patch_1">
   <path d="M 0 108 
L 180 108 
L 180 0 
L 0 0 
L 0 108 
z
" style="fill: none"/>
  </g>
  <g id="axes_1">
   <path d="M 22.5 73.845549 
L 23.058 74.091798 
L 23.337 73.921845 
L 23.895 73.868971 
L 24.174 73.789522 
L 24.453 73.933218 
L 24.732 73.850468 
L 25.011 73.9043 
L 25.29 74.098068 
L 25.569 74.155415 
L 25.848 74.0679 
L 26.127 74.26299 
L 26.406 74.089181 
L 26.685 74.10727 
L 26.964 74.282277 
L 27.243 73.783086 
L 27.522 74.179973 
L 27.801 74.146059 
L 28.08 73.941982 
L 28.638 74.134687 
L 28.917 73.996324 
L 29.475 74.126877 
L 29.754 74.419682 
L 30.033 74.294508 
L 30.312 74.005147 
L 30.591 74.439488 
L 30.87 74.182149 
L 31.149 74.377937 
L 31.707 74.043511 
L 32.265 74.368746 
L 32.544 74.214443 
L 33.102 74.190097 
L 33.381 74.61042 
L 33.939 74.095473 
L 34.218 74.014317 
L 34.497 74.451936 
L 34.776 74.412344 
L 35.055 74.500572 
L 35.334 74.377499 
L 35.892 74.423424 
L 36.171 73.928828 
L 36.45 74.344971 
L 37.566 74.289053 
L 37.845 74.156982 
L 38.124 74.434679 
L 38.961 74.254581 
L 39.24 74.564801 
L 39.519 74.588102 
L 39.798 74.285562 
L 40.077 74.443177 
L 40.356 74.233566 
L 40.914 74.217797 
L 41.193 74.38856 
L 41.751 74.442189 
L 42.03 74.555533 
L 42.309 74.235103 
L 42.588 74.50312 
L 42.867 74.229236 
L 43.425 74.485569 
L 43.704 74.199508 
L 43.983 74.713531 
L 44.541 74.279549 
L 45.657 74.515184 
L 45.936 74.398574 
L 46.215 74.440176 
L 46.494 74.3099 
L 46.773 73.80956 
L 47.052 74.041893 
L 47.331 73.808008 
L 47.889 73.746002 
L 48.168 73.496769 
L 48.447 73.749208 
L 48.726 73.520049 
L 49.005 73.057261 
L 49.284 73.435704 
L 49.842 73.073886 
L 50.4 72.834369 
L 50.958 72.843695 
L 51.237 72.660324 
L 51.795 72.698448 
L 52.074 72.190356 
L 52.353 72.423452 
L 52.632 72.234128 
L 52.911 71.905628 
L 53.19 72.287436 
L 53.469 72.032289 
L 54.027 72.00619 
L 54.306 71.680236 
L 54.585 72.031321 
L 54.864 71.587738 
L 55.701 71.305444 
L 55.98 71.425371 
L 56.259 71.264697 
L 56.817 71.283104 
L 57.375 70.921127 
L 57.654 71.059458 
L 57.933 70.707119 
L 58.212 70.764472 
L 58.491 71.231026 
L 58.77 70.785706 
L 59.328 70.497157 
L 60.165 70.459519 
L 60.444 70.65197 
L 60.723 70.463726 
L 61.002 70.568378 
L 61.56 70.211127 
L 61.839 70.304626 
L 62.118 70.020625 
L 62.955 70.151831 
L 63.234 69.982857 
L 63.513 69.952646 
L 63.792 70.039234 
L 64.071 69.896855 
L 64.35 69.909896 
L 64.629 69.612026 
L 64.908 69.572682 
L 65.187 69.686002 
L 65.466 69.594715 
L 65.745 69.622863 
L 66.303 69.18321 
L 66.582 69.393526 
L 66.861 69.357279 
L 67.14 69.108023 
L 67.419 69.241152 
L 67.698 69.187023 
L 67.977 69.28798 
L 68.256 69.147295 
L 68.535 69.136851 
L 68.814 68.94869 
L 69.093 69.073875 
L 69.651 68.858139 
L 69.93 69.000524 
L 70.209 68.751039 
L 71.883 68.156125 
L 72.162 67.827229 
L 72.441 67.673305 
L 72.72 67.148462 
L 72.999 67.173034 
L 73.278 66.975933 
L 73.557 65.766412 
L 73.836 63.209503 
L 74.394 43.093033 
L 74.673 43.963856 
L 75.231 54.94106 
L 76.068 71.180131 
L 76.347 74.264453 
L 76.905 76.745574 
L 77.463 77.328859 
L 77.742 77.194582 
L 78.021 77.308243 
L 78.3 77.054005 
L 78.858 77.180434 
L 79.137 76.943029 
L 79.416 77.068618 
L 79.695 76.636547 
L 79.974 76.682676 
L 80.253 76.577548 
L 80.532 76.267297 
L 80.811 76.475971 
L 81.369 75.922924 
L 81.648 75.873781 
L 81.927 76.050307 
L 82.206 75.558065 
L 82.485 75.71402 
L 83.043 75.486995 
L 83.322 75.20039 
L 83.88 75.044296 
L 84.159 75.224817 
L 84.438 75.062628 
L 84.996 75.01774 
L 85.275 74.877642 
L 85.554 74.578515 
L 85.833 74.618838 
L 86.112 74.465023 
L 86.391 74.487483 
L 86.949 74.231311 
L 87.507 74.163375 
L 87.786 73.906283 
L 88.065 74.277413 
L 88.902 73.739209 
L 89.181 73.63164 
L 89.46 73.658647 
L 89.739 73.382925 
L 90.018 73.636564 
L 90.297 73.301048 
L 90.576 73.511987 
L 90.855 73.220062 
L 91.413 73.321281 
L 91.692 73.135685 
L 91.971 73.228866 
L 92.529 72.820887 
L 92.808 72.827307 
L 93.087 73.151817 
L 93.924 72.676206 
L 94.761 72.570323 
L 95.04 72.455162 
L 95.319 72.648757 
L 95.877 72.2934 
L 96.993 72.160135 
L 97.272 72.061361 
L 97.551 72.089356 
L 97.83 71.811807 
L 98.109 71.935642 
L 98.388 71.84556 
L 98.667 72.07866 
L 98.946 72.076365 
L 99.225 71.904978 
L 99.504 72.048266 
L 100.341 71.383513 
L 100.62 71.631513 
L 100.899 71.673362 
L 101.178 71.493414 
L 101.457 71.605228 
L 102.015 71.312436 
L 102.294 71.64179 
L 102.852 71.343467 
L 103.131 71.537439 
L 103.41 71.177264 
L 103.689 71.380421 
L 103.968 70.993412 
L 104.247 71.430839 
L 104.805 71.198564 
L 105.084 71.177587 
L 105.363 70.9644 
L 105.642 71.250643 
L 106.2 71.070302 
L 106.479 71.146822 
L 106.758 70.843299 
L 107.316 71.063862 
L 107.595 70.837694 
L 107.874 71.011475 
L 108.99 70.751839 
L 109.269 70.676864 
L 109.548 70.775475 
L 109.827 70.584157 
L 110.106 70.787965 
L 110.385 70.424386 
L 110.664 70.638668 
L 110.943 70.448825 
L 111.222 70.690452 
L 111.501 70.644264 
L 111.78 70.743387 
L 112.617 70.330897 
L 112.896 70.573009 
L 113.175 70.454649 
L 113.454 70.770499 
L 113.733 70.288962 
L 114.012 70.436422 
L 114.291 70.107092 
L 114.57 70.437961 
L 114.849 70.138945 
L 115.128 70.386344 
L 115.407 70.166274 
L 115.686 70.531796 
L 115.965 70.162295 
L 116.244 70.333739 
L 116.523 70.049513 
L 116.802 70.217794 
L 117.36 70.264493 
L 117.918 69.965644 
L 118.197 70.167048 
L 118.476 70.02292 
L 118.755 70.218304 
L 119.034 70.049699 
L 119.313 70.069207 
L 119.592 69.900683 
L 119.871 70.250012 
L 120.708 69.731149 
L 120.987 70.105723 
L 121.266 69.919784 
L 121.545 69.895703 
L 121.824 70.029893 
L 122.103 69.943935 
L 122.382 69.718273 
L 122.661 69.782626 
L 122.94 70.102434 
L 123.219 69.895123 
L 123.498 69.830618 
L 123.777 69.650862 
L 124.335 70.008303 
L 124.614 69.604288 
L 124.893 69.796294 
L 125.172 69.688717 
L 125.451 69.768802 
L 125.73 69.435996 
L 126.009 69.529181 
L 126.288 69.816489 
L 126.567 69.85279 
L 126.846 69.72559 
L 127.125 69.251207 
L 127.404 69.740251 
L 127.683 69.746213 
L 127.962 69.636541 
L 129.357 69.671832 
L 129.636 69.609236 
L 130.194 69.849228 
L 131.031 69.388124 
L 131.31 69.540604 
L 132.147 69.520588 
L 132.426 69.401565 
L 132.705 69.447253 
L 132.984 69.774925 
L 133.263 69.36086 
L 133.542 69.496878 
L 133.821 69.285604 
L 134.1 69.605286 
L 134.658 69.37107 
L 134.937 69.59933 
L 135.216 69.340488 
L 135.495 68.825465 
L 135.774 69.277272 
L 136.053 69.255389 
L 136.332 69.44647 
L 136.611 69.10289 
L 136.89 69.281386 
L 137.448 68.943858 
L 137.727 69.32019 
L 138.006 68.941552 
L 138.285 68.922819 
L 139.68 69.362681 
L 139.959 69.397331 
L 140.238 69.86977 
L 140.517 69.716238 
L 141.075 69.788715 
L 141.354 70.189705 
L 141.633 70.088852 
L 141.912 70.401978 
L 142.191 70.065895 
L 142.47 70.494664 
L 143.028 70.468214 
L 143.586 70.629759 
L 143.865 70.864809 
L 144.144 70.820638 
L 144.702 71.14244 
L 144.981 70.875639 
L 145.539 71.517784 
L 145.818 71.388661 
L 146.097 71.814253 
L 146.934 71.729733 
L 147.213 71.82017 
L 147.492 71.77353 
L 147.771 71.898984 
L 148.05 71.879038 
L 148.329 72.397342 
L 148.608 72.22943 
L 148.887 72.321748 
L 149.166 72.137108 
L 149.445 72.257093 
L 149.724 72.221913 
L 150.003 72.45747 
L 150.282 72.495493 
L 150.561 72.666004 
L 151.119 72.748306 
L 151.398 72.965317 
L 151.677 72.535483 
L 152.793 72.869404 
L 153.072 73.067696 
L 153.63 73.07749 
L 153.909 73.32929 
L 154.188 73.108335 
L 154.746 73.4223 
L 155.025 73.180554 
L 155.304 73.526001 
L 155.583 73.618915 
L 155.862 73.395689 
L 156.141 73.567729 
L 156.42 73.421044 
L 156.978 73.558811 
L 157.257 73.83004 
L 157.815 73.723106 
L 158.094 73.85751 
L 158.931 73.782566 
L 160.326 74.192859 
L 161.721 74.237899 
L 161.721 74.237899 
" clip-path="url(#p20c47afc7c)" style="fill: none; stroke: #000000; stroke-width: 3.2; stroke-linecap: square"/>
   <path d="M 22.5 73.845549 
L 23.058 74.091798 
L 23.337 73.921845 
L 23.895 73.868971 
L 24.174 73.789522 
L 24.453 73.933218 
L 24.732 73.850468 
L 25.011 73.9043 
L 25.29 74.098068 
L 25.569 74.155415 
L 25.848 74.0679 
L 26.127 74.26299 
L 26.406 74.089181 
L 26.685 74.10727 
L 26.964 74.282277 
L 27.243 73.783086 
L 27.522 74.179973 
L 27.801 74.146059 
L 28.08 73.941982 
L 28.638 74.134687 
L 28.917 73.996324 
L 29.475 74.126877 
L 29.754 74.419682 
L 30.033 74.294508 
L 30.312 74.005147 
L 30.591 74.439488 
L 30.87 74.182149 
L 31.149 74.377937 
L 31.707 74.043511 
L 32.265 74.368746 
L 32.544 74.214443 
L 33.102 74.190097 
L 33.381 74.61042 
L 33.939 74.095473 
L 34.218 74.014317 
L 34.497 74.451936 
L 34.776 74.412344 
L 35.055 74.500572 
L 35.334 74.377499 
L 35.892 74.423424 
L 36.171 73.928828 
L 36.45 74.344971 
L 37.566 74.289053 
L 37.845 74.156982 
L 38.124 74.434679 
L 38.961 74.254581 
L 39.24 74.564801 
L 39.519 74.588102 
L 39.798 74.285562 
L 40.077 74.443177 
L 40.356 74.233566 
L 40.914 74.217797 
L 41.193 74.38856 
L 41.751 74.442189 
L 42.03 74.555533 
L 42.309 74.235103 
L 42.588 74.50312 
L 42.867 74.229236 
L 43.425 74.485569 
L 43.704 74.199508 
L 43.983 74.713531 
L 44.541 74.279549 
L 45.657 74.515184 
L 45.936 74.398574 
L 46.215 74.440176 
L 46.494 74.3099 
L 46.773 73.80956 
L 47.052 74.041893 
L 47.331 73.808008 
L 47.889 73.746002 
L 48.168 73.496769 
L 48.447 73.749208 
L 48.726 73.520049 
L 49.005 73.057261 
L 49.284 73.435704 
L 49.842 73.073886 
L 50.4 72.834369 
L 50.958 72.843695 
L 51.237 72.660324 
L 51.795 72.698448 
L 52.074 72.190356 
L 52.353 72.423452 
L 52.632 72.234128 
L 52.911 71.905628 
L 53.19 72.287436 
L 53.469 72.032289 
L 54.027 72.00619 
L 54.306 71.680236 
L 54.585 72.031321 
L 54.864 71.587738 
L 55.701 71.305444 
L 55.98 71.425371 
L 56.259 71.264697 
L 56.817 71.283104 
L 57.375 70.921127 
L 57.654 71.059458 
L 57.933 70.707119 
L 58.212 70.764472 
L 58.491 71.231026 
L 58.77 70.785706 
L 59.328 70.497157 
L 60.165 70.459519 
L 60.444 70.65197 
L 60.723 70.463726 
L 61.002 70.568378 
L 61.56 70.211127 
L 61.839 70.304626 
L 62.118 70.020625 
L 62.955 70.151831 
L 63.234 69.982857 
L 63.513 69.952646 
L 63.792 70.039234 
L 64.071 69.896855 
L 64.35 69.909896 
L 64.629 69.612026 
L 64.908 69.572682 
L 65.187 69.686002 
L 65.466 69.594715 
L 65.745 69.622863 
L 66.303 69.18321 
L 66.582 69.393526 
L 66.861 69.357279 
L 67.14 69.108023 
L 67.419 69.241152 
L 67.698 69.187023 
L 67.977 69.28798 
L 68.256 69.147295 
L 68.535 69.136851 
L 68.814 68.94869 
L 69.093 69.073875 
L 69.651 68.858139 
L 69.93 69.000524 
L 70.209 68.751039 
L 71.883 68.156125 
L 72.162 67.827229 
L 72.441 67.673305 
L 72.72 67.148462 
L 72.999 67.173034 
L 73.278 66.975933 
L 73.557 65.766412 
L 73.836 63.209503 
L 74.394 43.093033 
L 74.673 43.963856 
L 75.231 54.94106 
L 76.068 71.180131 
L 76.347 74.264453 
L 76.905 76.745574 
L 77.463 77.328859 
L 77.742 77.194582 
L 78.021 77.308243 
L 78.3 77.054005 
L 78.858 77.180434 
L 79.137 76.943029 
L 79.416 77.068618 
L 79.695 76.636547 
L 79.974 76.682676 
L 80.253 76.577548 
L 80.532 76.267297 
L 80.811 76.475971 
L 81.369 75.922924 
L 81.648 75.873781 
L 81.927 76.050307 
L 82.206 75.558065 
L 82.485 75.71402 
L 83.043 75.486995 
L 83.322 75.20039 
L 83.88 75.044296 
L 84.159 75.224817 
L 84.438 75.062628 
L 84.996 75.01774 
L 85.275 74.877642 
L 85.554 74.578515 
L 85.833 74.618838 
L 86.112 74.465023 
L 86.391 74.487483 
L 86.949 74.231311 
L 87.507 74.163375 
L 87.786 73.906283 
L 88.065 74.277413 
L 88.902 73.739209 
L 89.181 73.63164 
L 89.46 73.658647 
L 89.739 73.382925 
L 90.018 73.636564 
L 90.297 73.301048 
L 90.576 73.511987 
L 90.855 73.220062 
L 91.413 73.321281 
L 91.692 73.135685 
L 91.971 73.228866 
L 92.529 72.820887 
L 92.808 72.827307 
L 93.087 73.151817 
L 93.924 72.676206 
L 94.761 72.570323 
L 95.04 72.455162 
L 95.319 72.648757 
L 95.877 72.2934 
L 96.993 72.160135 
L 97.272 72.061361 
L 97.551 72.089356 
L 97.83 71.811807 
L 98.109 71.935642 
L 98.388 71.84556 
L 98.667 72.07866 
L 98.946 72.076365 
L 99.225 71.904978 
L 99.504 72.048266 
L 100.341 71.383513 
L 100.62 71.631513 
L 100.899 71.673362 
L 101.178 71.493414 
L 101.457 71.605228 
L 102.015 71.312436 
L 102.294 71.64179 
L 102.852 71.343467 
L 103.131 71.537439 
L 103.41 71.177264 
L 103.689 71.380421 
L 103.968 70.993412 
L 104.247 71.430839 
L 104.805 71.198564 
L 105.084 71.177587 
L 105.363 70.9644 
L 105.642 71.250643 
L 106.2 71.070302 
L 106.479 71.146822 
L 106.758 70.843299 
L 107.316 71.063862 
L 107.595 70.837694 
L 107.874 71.011475 
L 108.99 70.751839 
L 109.269 70.676864 
L 109.548 70.775475 
L 109.827 70.584157 
L 110.106 70.787965 
L 110.385 70.424386 
L 110.664 70.638668 
L 110.943 70.448825 
L 111.222 70.690452 
L 111.501 70.644264 
L 111.78 70.743387 
L 112.617 70.330897 
L 112.896 70.573009 
L 113.175 70.454649 
L 113.454 70.770499 
L 113.733 70.288962 
L 114.012 70.436422 
L 114.291 70.107092 
L 114.57 70.437961 
L 114.849 70.138945 
L 115.128 70.386344 
L 115.407 70.166274 
L 115.686 70.531796 
L 115.965 70.162295 
L 116.244 70.333739 
L 116.523 70.049513 
L 116.802 70.217794 
L 117.36 70.264493 
L 117.918 69.965644 
L 118.197 70.167048 
L 118.476 70.02292 
L 118.755 70.218304 
L 119.034 70.049699 
L 119.313 70.069207 
L 119.592 69.900683 
L 119.871 70.250012 
L 120.708 69.731149 
L 120.987 70.105723 
L 121.266 69.919784 
L 121.545 69.895703 
L 121.824 70.029893 
L 122.103 69.943935 
L 122.382 69.718273 
L 122.661 69.782626 
L 122.94 70.102434 
L 123.219 69.895123 
L 123.498 69.830618 
L 123.777 69.650862 
L 124.335 70.008303 
L 124.614 69.604288 
L 124.893 69.796294 
L 125.172 69.688717 
L 125.451 69.768802 
L 125.73 69.435996 
L 126.009 69.529181 
L 126.288 69.816489 
L 126.567 69.85279 
L 126.846 69.72559 
L 127.125 69.251207 
L 127.404 69.740251 
L 127.683 69.746213 
L 127.962 69.636541 
L 129.357 69.671832 
L 129.636 69.609236 
L 130.194 69.849228 
L 131.031 69.388124 
L 131.31 69.540604 
L 132.147 69.520588 
L 132.426 69.401565 
L 132.705 69.447253 
L 132.984 69.774925 
L 133.263 69.36086 
L 133.542 69.496878 
L 133.821 69.285604 
L 134.1 69.605286 
L 134.658 69.37107 
L 134.937 69.59933 
L 135.216 69.340488 
L 135.495 68.825465 
L 135.774 69.277272 
L 136.053 69.255389 
L 136.332 69.44647 
L 136.611 69.10289 
L 136.89 69.281386 
L 137.448 68.943858 
L 137.727 69.32019 
L 138.006 68.941552 
L 138.285 68.922819 
L 139.68 69.362681 
L 139.959 69.397331 
L 140.238 69.86977 
L 140.517 69.716238 
L 141.075 69.788715 
L 141.354 70.189705 
L 141.633 70.088852 
L 141.912 70.401978 
L 142.191 70.065895 
L 142.47 70.494664 
L 143.028 70.468214 
L 143.586 70.629759 
L 143.865 70.864809 
L 144.144 70.820638 
L 144.702 71.14244 
L 144.981 70.875639 
L 145.539 71.517784 
L 145.818 71.388661 
L 146.097 71.814253 
L 146.934 71.729733 
L 147.213 71.82017 
L 147.492 71.77353 
L 147.771 71.898984 
L 148.05 71.879038 
L 148.329 72.397342 
L 148.608 72.22943 
L 148.887 72.321748 
L 149.166 72.137108 
L 149.445 72.257093 
L 149.724 72.221913 
L 150.003 72.45747 
L 150.282 72.495493 
L 150.561 72.666004 
L 151.119 72.748306 
L 151.398 72.965317 
L 151.677 72.535483 
L 152.793 72.869404 
L 153.072 73.067696 
L 153.63 73.07749 
L 153.909 73.32929 
L 154.188 73.108335 
L 154.746 73.4223 
L 155.025 73.180554 
L 155.304 73.526001 
L 155.583 73.618915 
L 155.862 73.395689 
L 156.141 73.567729 
L 156.42 73.421044 
L 156.978 73.558811 
L 157.257 73.83004 
L 157.815 73.723106 
L 158.094 73.85751 
L 158.931 73.782566 
L 160.326 74.192859 
L 161.721 74.237899 
L 161.721 74.237899 
" clip-path="url(#p20c47afc7c)" style="fill: none; stroke: #d94801; stroke-width: 1.6; stroke-linecap: square"/>
  </g>
 </g>
 <defs>
  <clipPath id="p20c47afc7c">
   <rect x="22.5" y="12.96" width="139.5" height="83.16"/>
  </clipPath>
 </defs>
</svg>
