<?xml version="1.0" encoding="utf-8" standalone="no"?>
<!DOCTYPE svg PUBLIC "-//W3C//DTD SVG 1.1//EN"
  "http://www.w3.org/Graphics/SVG/1.1/DTD/svg11.dtd">
<svg xmlns:xlink="http://www.w3.org/1999/xlink" width="234pt" height="252pt" viewBox="0 0 234 252" xmlns="http://www.w3.org/2000/svg" version="1.1">
 <metadata>
  <rdf:RDF xmlns:dc="http://purl.org/dc/elements/1.1/" xmlns:cc="http://creativecommons.org/ns#" xmlns:rdf="http://www.w3.org/1999/02/22-rdf-syntax-ns#">
   <cc:Work>
    <dc:type rdf:resource="http://purl.org/dc/dcmitype/StillImage"/>
    <dc:date>2023-05-19T12:03:39.027426</dc:date>
    <dc:format>image/svg+xml</dc:format>
    <dc:creator>
     <cc:Agent>
      <dc:title>Matplotlib v3.5.0, https://matplotlib.org/</dc:title>
     </cc:Agent>
    </dc:creator>
   </cc:Work>
  </rdf:RDF>
 </metadata>
 <defs>
  <style type="text/css">*{stroke-linejoin: round; stroke-linecap: butt}</style>
 </defs>
 <g id="figure_1">
  <g id="patch_1">
   <path d="M 0 252 
L 234 252 
L 234 0 
L 0 0 
L 0 252 
z
" style="fill: none"/>
  </g>
  <g id="axes_1">
   <g id="patch_2">
    <path d="M 29.25 224.28 
L 179.511429 224.28 
L 179.511429 63.504 
L 29.25 63.504 
L 29.25 224.28 
z
" style="fill: none"/>
   </g>
   <g id="PathCollection_1">
    <defs>
     <path id="m582612c047" d="M 0 -3.535534 
L -0.793777 -1.09254 
L -3.362493 -1.09254 
L -1.284358 0.417313 
L -2.078135 2.860307 
L -0 1.350454 
L 2.078135 2.860307 
L 1.284358 0.417313 
L 3.362493 -1.09254 
L 0.793777 -1.09254 
z
" style="stroke: #000000"/>
    </defs>
    <g clip-path="url(#p7b5a9977d1)">
     <use xlink:href="#m582612c047" x="107.697623" y="206.03729" style="stroke: #000000"/>
    </g>
   </g>
   <g id="PathCollection_2">
    <defs>
     <path id="m63404ec399" d="M 0 2.236068 
C 0.593012 2.236068 1.161816 2.000462 1.581139 1.581139 
C 2.000462 1.161816 2.236068 0.593012 2.236068 0 
C 2.236068 -0.593012 2.000462 -1.161816 1.581139 -1.581139 
C 1.161816 -2.000462 0.593012 -2.236068 0 -2.236068 
C -0.593012 -2.236068 -1.161816 -2.000462 -1.581139 -1.581139 
C -2.000462 -1.161816 -2.236068 -0.593012 -2.236068 0 
C -2.236068 0.593012 -2.000462 1.161816 -1.581139 1.581139 
C -1.161816 2.000462 -0.593012 2.236068 0 2.236068 
z
" style="stroke: #08519c"/>
    </defs>
    <g clip-path="url(#p7b5a9977d1)">
     <use xlink:href="#m63404ec399" x="132.936198" y="201.728684" style="fill: #08519c; stroke: #08519c"/>
    </g>
   </g>
   <g id="PathCollection_3">
    <g clip-path="url(#p7b5a9977d1)">
     <use xlink:href="#m63404ec399" x="125.710358" y="203.95199" style="fill: #08519c; stroke: #08519c"/>
    </g>
   </g>
   <g id="matplotlib.axis_1"/>
   <g id="matplotlib.axis_2"/>
   <g id="PathCollection_4"/>
   <g id="PathCollection_5">
    <path d="M 93.839676 205.402958 
L 93.728654 205.18482 
L 93.643592 204.966682 
L 93.584442 204.748544 
L 93.549916 204.530406 
L 93.537485 204.312268 
L 93.543518 204.09413 
L 93.56356 203.87599 
L 93.592688 203.657852 
L 93.625897 203.439714 
L 93.658472 203.221576 
L 93.686309 203.003437 
L 93.706168 202.785299 
L 93.71586 202.567161 
L 93.714355 202.349023 
L 93.701816 202.130883 
L 93.679554 201.912745 
L 93.649908 201.694607 
L 93.616051 201.476469 
L 93.581752 201.258331 
L 93.551111 201.040193 
L 93.528316 200.822055 
L 93.517418 200.603916 
L 93.522162 200.385777 
L 93.545846 200.167639 
L 93.591218 199.949501 
L 93.660373 199.731362 
L 93.754639 199.513224 
L 93.874462 199.295086 
L 93.940435 199.194314 
L 94.017946 199.076948 
L 94.182741 198.85881 
L 94.366617 198.64067 
L 94.423682 198.576723 
L 94.561643 198.422534 
L 94.763266 198.204394 
L 94.906949 198.049506 
L 94.964966 197.986257 
L 95.157711 197.768118 
L 95.341631 197.549981 
L 95.390196 197.48763 
L 95.508386 197.331841 
L 95.660065 197.113705 
L 95.799056 196.895565 
L 95.873443 196.767934 
L 95.924915 196.677429 
L 96.040467 196.459289 
L 96.152518 196.241149 
L 96.265219 196.02301 
L 96.356691 195.85261 
L 96.382272 195.804873 
L 96.506762 195.586733 
L 96.644722 195.368597 
L 96.798934 195.150457 
L 96.839957 195.097516 
L 96.970327 194.93232 
L 97.160489 194.714181 
L 97.323205 194.54297 
L 97.368701 194.496044 
L 97.592485 194.277905 
L 97.806452 194.080445 
L 97.829128 194.059768 
L 98.073534 193.841628 
L 98.289699 193.652591 
L 98.322957 193.623492 
L 98.572044 193.405352 
L 98.772966 193.229486 
L 98.820772 193.187215 
L 99.066034 192.969076 
L 99.256213 192.800217 
L 99.311047 192.750936 
L 99.555246 192.532796 
L 99.739461 192.371248 
L 99.803577 192.31466 
L 100.057158 192.09652 
L 100.222708 191.959211 
L 100.320572 191.878384 
L 100.595925 191.660244 
L 100.705974 191.576705 
L 100.886245 191.442107 
L 101.189222 191.226771 
L 101.19327 191.223968 
L 101.519976 191.005831 
L 101.672488 190.907979 
L 101.867227 190.787691 
L 102.155736 190.615382 
L 102.23621 190.569555 
L 102.629428 190.351415 
L 102.639002 190.346188 
L 103.052359 190.133279 
L 103.12225 190.097819 
L 103.507022 189.915139 
L 103.605497 189.868874 
L 103.998487 189.697002 
L 104.088744 189.657797 
L 104.531522 189.478863 
L 104.572011 189.462562 
L 105.055258 189.280011 
L 105.108886 189.260726 
L 105.538506 189.106506 
L 105.722641 189.042586 
L 106.021753 188.938776 
L 106.355676 188.82445 
L 106.505019 188.773268 
L 106.988267 188.606981 
L 106.990155 188.60631 
L 107.471514 188.435782 
L 107.602353 188.388174 
L 107.954762 188.260228 
L 108.196737 188.170034 
L 108.438028 188.080123 
L 108.774448 187.951897 
L 108.921276 187.895755 
L 109.337166 187.733758 
L 109.404523 187.707303 
L 109.88469 187.515621 
L 109.88777 187.514374 
L 110.371037 187.314454 
L 110.41152 187.297481 
L 110.854284 187.107419 
L 110.918747 187.079345 
L 111.337532 186.891817 
L 111.40493 186.861205 
L 111.820779 186.667171 
L 111.87193 186.643068 
L 112.304045 186.43538 
L 112.325787 186.424929 
L 112.776067 186.206792 
L 112.787293 186.201387 
L 113.236722 185.988653 
L 113.270559 185.973009 
L 113.725246 185.770513 
L 113.753807 185.758236 
L 114.237073 185.561948 
L 114.262439 185.552373 
L 114.720321 185.386123 
L 114.877322 185.334237 
L 115.203568 185.230284 
L 115.60273 185.116097 
L 115.686815 185.092746 
L 116.170082 184.971045 
L 116.495585 184.89796 
L 116.653329 184.863097 
L 117.136577 184.766165 
L 117.614274 184.679821 
L 117.619824 184.678821 
L 118.10309 184.597654 
L 118.586338 184.522125 
L 118.99366 184.461684 
L 119.069585 184.450331 
L 119.552833 184.379893 
L 120.036099 184.31082 
L 120.510226 184.243544 
L 120.519346 184.242233 
L 121.002594 184.172478 
L 121.485841 184.102855 
L 121.969108 184.033725 
L 122.028098 184.025405 
L 122.452355 183.965001 
L 122.935602 183.89873 
L 123.41885 183.836256 
L 123.661616 183.807265 
L 123.902116 183.778467 
L 124.385364 183.726634 
L 124.86863 183.681905 
L 125.351878 183.644769 
L 125.835144 183.61543 
L 126.318391 183.593857 
L 126.481149 183.589129 
L 126.801639 183.579739 
L 127.284886 183.572849 
L 127.768153 183.572769 
L 128.2514 183.578942 
L 128.670053 183.589129 
L 128.734647 183.590707 
L 129.217895 183.60721 
L 129.701161 183.627666 
L 130.184409 183.651068 
L 130.667656 183.676291 
L 131.150903 183.702135 
L 131.63417 183.727422 
L 132.117417 183.751128 
L 132.600665 183.772558 
L 133.083912 183.791517 
L 133.533422 183.807265 
L 133.567179 183.808441 
L 134.050426 183.824344 
L 134.533673 183.841143 
L 135.016921 183.861146 
L 135.500187 183.887007 
L 135.983435 183.921526 
L 136.466701 183.967511 
L 136.931804 184.025405 
L 136.949948 184.027644 
L 137.433215 184.10382 
L 137.916462 184.198425 
L 138.108025 184.243544 
L 138.39971 184.312872 
L 138.882957 184.44779 
L 138.926946 184.461684 
L 139.366224 184.603065 
L 139.58185 184.679821 
L 139.849471 184.777201 
L 140.159112 184.89796 
L 140.332718 184.967155 
L 140.691875 185.116097 
L 140.815966 185.168542 
L 141.202968 185.334237 
L 141.299232 185.376065 
L 141.708935 185.552373 
L 141.78248 185.584353 
L 142.222537 185.770513 
L 142.265727 185.788908 
L 142.748974 185.986645 
L 142.75411 185.988653 
L 143.232241 186.175949 
L 143.314725 186.206792 
L 143.715488 186.356813 
L 143.905411 186.424929 
L 144.198736 186.53018 
L 144.524437 186.643068 
L 144.681983 186.697663 
L 145.164911 186.861205 
L 145.16525 186.86132 
L 145.648497 187.023133 
L 145.815242 187.079345 
L 146.131744 187.185617 
L 146.457804 187.297481 
L 146.614992 187.351064 
L 147.080912 187.515621 
L 147.098258 187.521691 
L 147.581506 187.698909 
L 147.671451 187.733758 
L 148.064772 187.88457 
L 148.2301 187.951897 
L 148.548019 188.079838 
L 148.758825 188.170034 
L 149.031286 188.285191 
L 149.261154 188.388174 
L 149.514514 188.500408 
L 149.741512 188.60631 
L 149.9978 188.724827 
L 150.204105 188.82445 
L 150.481047 188.957569 
L 150.651943 189.042586 
L 150.964295 189.198265 
L 151.086299 189.260726 
L 151.447542 189.447738 
L 151.506358 189.478863 
L 151.9092 189.697002 
L 151.930789 189.709082 
L 152.290524 189.915139 
L 152.414037 189.989646 
L 152.646445 190.133279 
L 152.897284 190.299741 
L 152.97325 190.351415 
L 153.268274 190.569555 
L 153.380531 190.66122 
L 153.531897 190.787691 
L 153.765266 191.005831 
L 153.863817 191.109303 
L 153.971584 191.223968 
L 154.154479 191.442107 
L 154.318013 191.660244 
L 154.347064 191.702353 
L 154.46922 191.878384 
L 154.612476 192.09652 
L 154.753143 192.31466 
L 154.830312 192.431229 
L 154.899149 192.532796 
L 155.056989 192.750936 
L 155.229092 192.969076 
L 155.313559 193.065527 
L 155.423393 193.187215 
L 155.642038 193.405352 
L 155.796807 193.545363 
L 155.885505 193.623492 
L 156.155549 193.841628 
L 156.280054 193.935294 
L 156.448155 194.059768 
L 156.756774 194.277905 
L 156.763301 194.28233 
L 157.079097 194.496044 
L 157.246549 194.608404 
L 157.403021 194.714181 
L 157.721937 194.93232 
L 157.729834 194.937803 
L 158.031513 195.150457 
L 158.213082 195.284495 
L 158.325126 195.368597 
L 158.601158 195.586733 
L 158.696329 195.666658 
L 158.859135 195.804873 
L 159.098894 196.02301 
L 159.179576 196.101559 
L 159.323097 196.241149 
L 159.533007 196.459289 
L 159.662824 196.602907 
L 159.731191 196.677429 
L 159.921152 196.895565 
L 160.102794 197.113705 
L 160.146071 197.167999 
L 160.280557 197.331841 
L 160.45375 197.549981 
L 160.621904 197.768118 
L 160.629319 197.778167 
L 160.787604 197.986257 
L 160.947257 198.204394 
L 161.099601 198.422534 
L 161.112566 198.442359 
L 161.24441 198.64067 
L 161.379421 198.85881 
L 161.503864 199.076948 
L 161.595852 199.253492 
L 161.617477 199.295086 
L 161.720416 199.513224 
L 161.813866 199.731362 
L 161.899021 199.949501 
L 161.977253 200.167639 
L 162.049989 200.385777 
L 162.079099 200.477774 
L 162.11868 200.603916 
L 162.185018 200.822055 
L 162.250282 201.040193 
L 162.315503 201.258331 
L 162.381472 201.476469 
L 162.448673 201.694607 
L 162.517188 201.912745 
L 162.562346 202.05431 
L 162.587246 202.130883 
L 162.658642 202.349023 
L 162.728417 202.567161 
L 162.793922 202.785299 
L 162.851798 203.003437 
L 162.898125 203.221576 
L 162.928644 203.439714 
L 162.939073 203.657852 
L 162.925463 203.87599 
L 162.884584 204.09413 
L 162.814274 204.312268 
L 162.713711 204.530406 
L 162.58356 204.748544 
L 162.562346 204.778266 
L 162.432294 204.966682 
L 162.25984 205.18482 
L 162.079099 205.392189 
L 162.070085 205.402958 
L 161.877874 205.621096 
L 161.678109 205.839236 
L 161.595852 205.928206 
L 161.481453 206.057374 
L 161.288326 206.275512 
L 161.112566 206.474262 
L 161.096089 206.493651 
L 160.914216 206.711789 
L 160.730885 206.929925 
L 160.629319 207.050162 
L 160.549186 207.148063 
L 160.367445 207.366202 
L 160.176351 207.584341 
L 160.146071 207.617615 
L 159.982608 207.802479 
L 159.774809 208.020617 
L 159.662824 208.129857 
L 159.554595 208.238756 
L 159.319678 208.456894 
L 159.179576 208.576443 
L 159.067696 208.675033 
L 158.798675 208.893172 
L 158.696329 208.969878 
L 158.512861 209.11131 
L 158.213082 209.323876 
L 158.205377 209.329449 
L 157.882733 209.547587 
L 157.729834 209.643783 
L 157.536915 209.765726 
L 157.246549 209.937171 
L 157.166669 209.983864 
L 156.769254 210.202002 
L 156.763301 210.20511 
L 156.338985 210.420138 
L 156.280054 210.448494 
L 155.867514 210.638277 
L 155.796807 210.66931 
L 155.345203 210.856415 
L 155.313559 210.868985 
L 154.830312 211.04946 
L 154.758349 211.074554 
L 154.347064 211.213182 
L 154.093519 211.292692 
L 153.863817 211.362676 
L 153.380531 211.500559 
L 153.342801 211.510831 
L 152.897284 211.629625 
L 152.504996 211.728969 
L 152.414037 211.751597 
L 151.930789 211.868896 
L 151.598778 211.947107 
L 151.447542 211.982237 
L 150.964295 212.093005 
L 150.642306 212.165245 
L 150.481047 212.200942 
L 149.9978 212.306528 
L 149.63553 212.383384 
L 149.514514 212.408671 
L 149.031286 212.507578 
L 148.548268 212.601522 
L 148.548019 212.60157 
L 148.064772 212.691492 
L 147.581506 212.775689 
L 147.314189 212.81966 
L 147.098258 212.854549 
L 146.614992 212.928405 
L 146.131744 212.996791 
L 145.823287 213.037798 
L 145.648497 213.060724 
L 145.16525 213.121336 
L 144.681983 213.178523 
L 144.198736 213.233137 
L 143.994362 213.255937 
L 143.715488 213.287002 
L 143.232241 213.340752 
L 142.748974 213.394413 
L 142.265727 213.448554 
L 142.044704 213.474075 
L 141.78248 213.504683 
L 141.299232 213.562792 
L 140.815966 213.621795 
L 140.332718 213.681351 
L 140.246224 213.692213 
L 139.849471 213.742891 
L 139.366224 213.803998 
L 138.882957 213.8634 
L 138.485329 213.910352 
L 138.39971 213.920683 
L 137.916462 213.976439 
L 137.433215 214.027931 
L 136.949948 214.074666 
L 136.466701 214.116338 
L 136.307073 214.12849 
L 135.983435 214.154008 
L 135.500187 214.186992 
L 135.016921 214.215053 
L 134.533673 214.238688 
L 134.050426 214.258519 
L 133.567179 214.275252 
L 133.083912 214.28962 
L 132.600665 214.302321 
L 132.117417 214.313967 
L 131.63417 214.325026 
L 131.150903 214.335786 
L 130.667656 214.346337 
L 130.653874 214.346629 
L 130.184409 214.357084 
L 129.701161 214.367192 
L 129.217895 214.376222 
L 128.734647 214.383678 
L 128.2514 214.389053 
L 127.768153 214.391885 
L 127.284886 214.391799 
L 126.801639 214.388546 
L 126.318391 214.382015 
L 125.835144 214.372239 
L 125.351878 214.359384 
L 124.957929 214.346629 
L 124.86863 214.343852 
L 124.385364 214.326535 
L 123.902116 214.307338 
L 123.41885 214.286708 
L 122.935602 214.265091 
L 122.452355 214.242898 
L 121.969108 214.220482 
L 121.485841 214.198103 
L 121.002594 214.17591 
L 120.519346 214.153912 
L 120.036099 214.131969 
L 119.959744 214.12849 
L 119.552833 214.110598 
L 119.069585 214.0887 
L 118.586338 214.065554 
L 118.10309 214.040486 
L 117.619824 214.012753 
L 117.136577 213.981578 
L 116.653329 213.946186 
L 116.223473 213.910352 
L 116.170082 213.906006 
L 115.686815 213.86164 
L 115.203568 213.811279 
L 114.720321 213.754567 
L 114.243714 213.692213 
L 114.237073 213.691351 
L 113.753807 213.623428 
L 113.270559 213.549437 
L 112.811964 213.474075 
L 112.787293 213.470002 
L 112.304045 213.387465 
L 111.820779 213.301293 
L 111.570791 213.255937 
L 111.337532 213.213256 
L 110.854284 213.124544 
L 110.385433 213.037798 
L 110.371037 213.035116 
L 109.88777 212.946998 
L 109.404523 212.858722 
L 109.189574 212.81966 
L 108.921276 212.77081 
L 108.438028 212.682512 
L 108.004419 212.601522 
L 107.954762 212.592237 
L 107.471514 212.500662 
L 106.988267 212.405104 
L 106.881651 212.383384 
L 106.505019 212.306433 
L 106.021753 212.20283 
L 105.853073 212.165245 
L 105.538506 212.094804 
L 105.055258 211.981128 
L 104.916251 211.947107 
L 104.572011 211.862361 
L 104.088744 211.736503 
L 104.060877 211.728969 
L 103.605497 211.605168 
L 103.279192 211.510831 
L 103.12225 211.465296 
L 102.639002 211.316946 
L 102.564057 211.292692 
L 102.155736 211.160082 
L 101.908604 211.074554 
L 101.672488 210.992503 
L 101.303852 210.856415 
L 101.189222 210.813793 
L 100.74251 210.638277 
L 100.705974 210.623734 
L 100.222708 210.42207 
L 100.218238 210.420138 
L 99.739461 210.208185 
L 99.725875 210.202002 
L 99.262523 209.983864 
L 99.256213 209.980764 
L 98.824935 209.765726 
L 98.772966 209.738303 
L 98.412331 209.547587 
L 98.289699 209.478084 
L 98.024715 209.329449 
L 97.806452 209.196655 
L 97.663026 209.11131 
L 97.328449 208.893172 
L 97.323205 208.889471 
L 97.009062 208.675033 
L 96.839957 208.546883 
L 96.716192 208.456894 
L 96.4435 208.238756 
L 96.356691 208.16293 
L 96.18592 208.020617 
L 95.946933 207.802479 
L 95.873443 207.730652 
L 95.71625 207.584341 
L 95.497317 207.366202 
L 95.390196 207.253934 
L 95.284327 207.148063 
L 95.075208 206.929925 
L 94.906949 206.746301 
L 94.873974 206.711789 
L 94.672062 206.493651 
L 94.481395 206.275512 
L 94.423682 206.205603 
L 94.297014 206.057374 
L 94.126034 205.839236 
L 93.97413 205.621096 
L 93.940435 205.565228 
L 93.839676 205.402958 
z
" clip-path="url(#p7b5a9977d1)" style="fill: none; stroke: #08519c; stroke-opacity: 0.111111; stroke-width: 1.5"/>
   </g>
   <g id="PathCollection_6">
    <path d="M 101.164105 204.09413 
L 101.134649 203.87599 
L 101.111989 203.657852 
L 101.095831 203.439714 
L 101.085973 203.221576 
L 101.082325 203.003437 
L 101.084929 202.785299 
L 101.093997 202.567161 
L 101.109937 202.349023 
L 101.133384 202.130883 
L 101.165206 201.912745 
L 101.189222 201.784565 
L 101.205784 201.694607 
L 101.255659 201.476469 
L 101.316999 201.258331 
L 101.390825 201.040193 
L 101.477719 200.822055 
L 101.577552 200.603916 
L 101.672488 200.417666 
L 101.688746 200.385777 
L 101.806959 200.167639 
L 101.932859 199.949501 
L 102.063552 199.731362 
L 102.155736 199.579225 
L 102.195713 199.513224 
L 102.327538 199.295086 
L 102.460224 199.076948 
L 102.594464 198.85881 
L 102.639002 198.788204 
L 102.732812 198.64067 
L 102.878876 198.422534 
L 103.035682 198.204394 
L 103.12225 198.093622 
L 103.207843 197.986257 
L 103.398782 197.768118 
L 103.605497 197.553087 
L 103.608556 197.549981 
L 103.842291 197.331841 
L 104.088744 197.11848 
L 104.094387 197.113705 
L 104.367708 196.895565 
L 104.572011 196.739688 
L 104.655148 196.677429 
L 104.955617 196.459289 
L 105.055258 196.388473 
L 105.266232 196.241149 
L 105.538506 196.053717 
L 105.584053 196.02301 
L 105.912129 195.804873 
L 106.021753 195.732968 
L 106.251693 195.586733 
L 106.505019 195.429055 
L 106.605984 195.368597 
L 106.981466 195.150457 
L 106.988267 195.146613 
L 107.387335 194.93232 
L 107.471514 194.88879 
L 107.827392 194.714181 
L 107.954762 194.654063 
L 108.305634 194.496044 
L 108.438028 194.438466 
L 108.819808 194.277905 
L 108.921276 194.236363 
L 109.358448 194.059768 
L 109.404523 194.041445 
L 109.88777 193.84717 
L 109.901165 193.841628 
L 110.371037 193.646669 
L 110.424465 193.623492 
L 110.854284 193.433771 
L 110.915156 193.405352 
L 111.337532 193.201843 
L 111.366114 193.187215 
L 111.773739 192.969076 
L 111.820779 192.942552 
L 112.140987 192.750936 
L 112.304045 192.647358 
L 112.475816 192.532796 
L 112.783437 192.31466 
L 112.787293 192.311758 
L 113.064493 192.09652 
L 113.270559 191.92895 
L 113.331994 191.878384 
L 113.589178 191.660244 
L 113.753807 191.519663 
L 113.845753 191.442107 
L 114.109102 191.223968 
L 114.237073 191.122393 
L 114.389288 191.005831 
L 114.694458 190.787691 
L 114.720321 190.770513 
L 115.040023 190.569555 
L 115.203568 190.475575 
L 115.43496 190.351415 
L 115.686815 190.227451 
L 115.894061 190.133279 
L 116.170082 190.017164 
L 116.435436 189.915139 
L 116.653329 189.836615 
L 117.081233 189.697002 
L 117.136577 189.679847 
L 117.619824 189.545035 
L 117.888162 189.478863 
L 118.10309 189.427641 
L 118.586338 189.326987 
L 118.956813 189.260726 
L 119.069585 189.240965 
L 119.552833 189.169696 
L 120.036099 189.110936 
L 120.519346 189.063842 
L 120.80333 189.042586 
L 121.002594 189.027784 
L 121.485841 189.001711 
L 121.969108 188.984105 
L 122.452355 188.973769 
L 122.935602 188.969419 
L 123.41885 188.969685 
L 123.902116 188.973139 
L 124.385364 188.978332 
L 124.86863 188.983882 
L 125.351878 188.988575 
L 125.835144 188.991509 
L 126.318391 188.99223 
L 126.801639 188.990852 
L 127.284886 188.988091 
L 127.768153 188.98521 
L 128.2514 188.983839 
L 128.734647 188.985717 
L 129.217895 188.992411 
L 129.701161 189.005077 
L 130.184409 189.024318 
L 130.524523 189.042586 
L 130.667656 189.05013 
L 131.150903 189.081951 
L 131.63417 189.119135 
L 132.117417 189.160881 
L 132.600665 189.206502 
L 133.083912 189.255574 
L 133.130733 189.260726 
L 133.567179 189.307452 
L 134.050426 189.363123 
L 134.533673 189.423392 
L 134.939876 189.478863 
L 135.016921 189.489191 
L 135.500187 189.561375 
L 135.983435 189.64196 
L 136.277844 189.697002 
L 136.466701 189.731974 
L 136.949948 189.83239 
L 137.306535 189.915139 
L 137.433215 189.944291 
L 137.916462 190.067462 
L 138.151774 190.133279 
L 138.39971 190.201793 
L 138.882957 190.3466 
L 138.897954 190.351415 
L 139.366224 190.499028 
L 139.577344 190.569555 
L 139.849471 190.658357 
L 140.227009 190.787691 
L 140.332718 190.822967 
L 140.815966 190.991191 
L 140.856612 191.005831 
L 141.299232 191.162051 
L 141.468393 191.223968 
L 141.78248 191.337499 
L 142.06033 191.442107 
L 142.265727 191.519391 
L 142.623021 191.660244 
L 142.748974 191.710605 
L 143.147581 191.878384 
L 143.232241 191.915099 
L 143.629133 192.09652 
L 143.715488 192.137788 
L 144.067885 192.31466 
L 144.198736 192.384094 
L 144.467759 192.532796 
L 144.681983 192.658721 
L 144.834354 192.750936 
L 145.16525 192.963762 
L 145.173381 192.969076 
L 145.495663 193.187215 
L 145.648497 193.295636 
L 145.803516 193.405352 
L 146.101839 193.623492 
L 146.131744 193.645676 
L 146.400131 193.841628 
L 146.614992 194.001447 
L 146.695071 194.059768 
L 146.992683 194.277905 
L 147.098258 194.355955 
L 147.292112 194.496044 
L 147.581506 194.708836 
L 147.588933 194.714181 
L 147.888094 194.93232 
L 148.064772 195.06528 
L 148.180243 195.150457 
L 148.465629 195.368597 
L 148.548019 195.434237 
L 148.743698 195.586733 
L 149.009465 195.804873 
L 149.031286 195.823628 
L 149.269888 196.02301 
L 149.514514 196.238701 
L 149.517382 196.241149 
L 149.763158 196.459289 
L 149.9978 196.676495 
L 149.998846 196.677429 
L 150.236463 196.895565 
L 150.467672 197.113705 
L 150.481047 197.12656 
L 150.701778 197.331841 
L 150.931481 197.549981 
L 150.964295 197.58167 
L 151.161283 197.768118 
L 151.385849 197.986257 
L 151.447542 198.047714 
L 151.605306 198.204394 
L 151.817055 198.422534 
L 151.930789 198.544315 
L 152.019561 198.64067 
L 152.21192 198.85881 
L 152.394934 199.076948 
L 152.414037 199.100678 
L 152.566218 199.295086 
L 152.729009 199.513224 
L 152.885056 199.731362 
L 152.897284 199.748998 
L 153.031299 199.949501 
L 153.172405 200.167639 
L 153.309707 200.385777 
L 153.380531 200.500913 
L 153.44146 200.603916 
L 153.567218 200.822055 
L 153.688972 201.040193 
L 153.805765 201.258331 
L 153.863817 201.372875 
L 153.914644 201.476469 
L 154.014196 201.694607 
L 154.104577 201.912745 
L 154.18422 202.130883 
L 154.251743 202.349023 
L 154.306066 202.567161 
L 154.346488 202.785299 
L 154.347064 202.790109 
L 154.372571 203.003437 
L 154.384595 203.221576 
L 154.382685 203.439714 
L 154.36714 203.657852 
L 154.347064 203.810282 
L 154.338413 203.87599 
L 154.297145 204.09413 
L 154.243708 204.312268 
L 154.178501 204.530406 
L 154.101884 204.748544 
L 154.014197 204.966682 
L 153.91576 205.18482 
L 153.863817 205.288625 
L 153.807406 205.402958 
L 153.689334 205.621096 
L 153.561089 205.839236 
L 153.422512 206.057374 
L 153.380531 206.118367 
L 153.274214 206.275512 
L 153.114614 206.493651 
L 152.94185 206.711789 
L 152.897284 206.763488 
L 152.755181 206.929925 
L 152.551054 207.148063 
L 152.414037 207.281089 
L 152.326322 207.366202 
L 152.077414 207.584341 
L 151.930789 207.70002 
L 151.79938 207.802479 
L 151.48744 208.020617 
L 151.447542 208.045911 
L 151.136775 208.238756 
L 150.964295 208.335453 
L 150.741982 208.456894 
L 150.481047 208.586871 
L 150.298614 208.675033 
L 149.9978 208.809093 
L 149.802436 208.893172 
L 149.514514 209.008837 
L 149.248984 209.11131 
L 149.031286 209.190706 
L 148.632983 209.329449 
L 148.548019 209.357762 
L 148.064772 209.511489 
L 147.945009 209.547587 
L 147.581506 209.653938 
L 147.174979 209.765726 
L 147.098258 209.786436 
L 146.614992 209.909816 
L 146.305924 209.983864 
L 146.131744 210.025358 
L 145.648497 210.134054 
L 145.328922 210.202002 
L 145.16525 210.236955 
L 144.681983 210.335343 
L 144.248166 210.420138 
L 144.198736 210.429895 
L 143.715488 210.522402 
L 143.232241 210.613196 
L 143.097639 210.638277 
L 142.748974 210.703784 
L 142.265727 210.794799 
L 141.942624 210.856415 
L 141.78248 210.886962 
L 141.299232 210.980752 
L 140.825951 211.074554 
L 140.815966 211.076512 
L 140.332718 211.173445 
L 139.849471 211.271869 
L 139.748933 211.292692 
L 139.366224 211.369994 
L 138.882957 211.467517 
L 138.666669 211.510831 
L 138.39971 211.56257 
L 137.916462 211.653931 
L 137.500156 211.728969 
L 137.433215 211.740615 
L 136.949948 211.820526 
L 136.466701 211.893581 
L 136.072303 211.947107 
L 135.983435 211.958797 
L 135.500187 212.01557 
L 135.016921 212.064165 
L 134.533673 212.104719 
L 134.050426 212.137662 
L 133.567179 212.163643 
L 133.528635 212.165245 
L 133.083912 212.183683 
L 132.600665 212.198478 
L 132.117417 212.208889 
L 131.63417 212.215783 
L 131.150903 212.219982 
L 130.667656 212.222236 
L 130.184409 212.2232 
L 129.701161 212.223416 
L 129.217895 212.223295 
L 128.734647 212.223108 
L 128.2514 212.222977 
L 127.768153 212.222884 
L 127.284886 212.222672 
L 126.801639 212.222076 
L 126.318391 212.220743 
L 125.835144 212.21827 
L 125.351878 212.214244 
L 124.86863 212.208275 
L 124.385364 212.200028 
L 123.902116 212.189243 
L 123.41885 212.175742 
L 123.108293 212.165245 
L 122.935602 212.159597 
L 122.452355 212.140992 
L 121.969108 212.119618 
L 121.485841 212.095457 
L 121.002594 212.068446 
L 120.519346 212.038426 
L 120.036099 212.005115 
L 119.552833 211.968083 
L 119.305525 211.947107 
L 119.069585 211.927279 
L 118.586338 211.882045 
L 118.10309 211.830882 
L 117.619824 211.772731 
L 117.297212 211.728969 
L 117.136577 211.706935 
L 116.653329 211.632883 
L 116.170082 211.548626 
L 115.973684 211.510831 
L 115.686815 211.454416 
L 115.203568 211.349774 
L 114.959754 211.292692 
L 114.720321 211.235471 
L 114.237073 211.112885 
L 114.091152 211.074554 
L 113.753807 210.984892 
L 113.282166 210.856415 
L 113.270559 210.85324 
L 112.787293 210.723026 
L 112.468656 210.638277 
L 112.304045 210.594779 
L 111.820779 210.471305 
L 111.613039 210.420138 
L 111.337532 210.353018 
L 110.854284 210.239279 
L 110.69078 210.202002 
L 110.371037 210.129659 
L 109.88777 210.021897 
L 109.71606 209.983864 
L 109.404523 209.914779 
L 108.921276 209.806114 
L 108.745147 209.765726 
L 108.438028 209.694398 
L 107.954762 209.578096 
L 107.83205 209.547587 
L 107.471514 209.455651 
L 106.999522 209.329449 
L 106.988267 209.326325 
L 106.505019 209.187422 
L 106.252514 209.11131 
L 106.021753 209.038022 
L 105.587176 208.893172 
L 105.538506 208.875841 
L 105.055258 208.695662 
L 105.002561 208.675033 
L 104.572011 208.492005 
L 104.493603 208.456894 
L 104.088744 208.257429 
L 104.052733 208.238756 
L 103.672729 208.020617 
L 103.605497 207.977488 
L 103.344693 207.802479 
L 103.12225 207.634249 
L 103.058825 207.584341 
L 102.81025 207.366202 
L 102.639002 207.197014 
L 102.590875 207.148063 
L 102.39748 206.929925 
L 102.224583 206.711789 
L 102.155736 206.615444 
L 102.069942 206.493651 
L 101.930994 206.275512 
L 101.806028 206.057374 
L 101.694016 205.839236 
L 101.672488 205.792547 
L 101.593305 205.621096 
L 101.503495 205.402958 
L 101.424197 205.18482 
L 101.35484 204.966682 
L 101.294828 204.748544 
L 101.243553 204.530406 
L 101.200416 204.312268 
L 101.189222 204.244158 
L 101.164105 204.09413 
z
" clip-path="url(#p7b5a9977d1)" style="fill: none; stroke: #08519c; stroke-opacity: 0.333333; stroke-width: 1.5"/>
   </g>
   <g id="PathCollection_7">
    <path d="M 106.481462 203.439714 
L 106.422581 203.221576 
L 106.384972 203.003437 
L 106.371589 202.785299 
L 106.385111 202.567161 
L 106.427777 202.349023 
L 106.501237 202.130883 
L 106.505019 202.12299 
L 106.610261 201.912745 
L 106.751795 201.694607 
L 106.924288 201.476469 
L 106.988267 201.406591 
L 107.129405 201.258331 
L 107.360414 201.040193 
L 107.471514 200.942809 
L 107.612865 200.822055 
L 107.87897 200.603916 
L 107.954762 200.542975 
L 108.151774 200.385777 
L 108.42398 200.167639 
L 108.438028 200.156211 
L 108.689936 199.949501 
L 108.921276 199.754696 
L 108.948488 199.731362 
L 109.19658 199.513224 
L 109.404523 199.326979 
L 109.439333 199.295086 
L 109.675498 199.076948 
L 109.88777 198.882743 
L 109.913389 198.85881 
L 110.151264 198.64067 
L 110.371037 198.446841 
L 110.398166 198.422534 
L 110.651013 198.204394 
L 110.854284 198.038141 
L 110.917062 197.986257 
L 111.193338 197.768118 
L 111.337532 197.659857 
L 111.482923 197.549981 
L 111.785921 197.331841 
L 111.820779 197.307666 
L 112.099245 197.113705 
L 112.304045 196.977255 
L 112.426409 196.895565 
L 112.766313 196.677429 
L 112.787293 196.664382 
L 113.117277 196.459289 
L 113.270559 196.367607 
L 113.483095 196.241149 
L 113.753807 196.085871 
L 113.864725 196.02301 
L 114.237073 195.819162 
L 114.263727 195.804873 
L 114.682664 195.586733 
L 114.720321 195.56762 
L 115.125726 195.368597 
L 115.203568 195.331172 
L 115.597096 195.150457 
L 115.686815 195.109774 
L 116.101822 194.93232 
L 116.170082 194.903213 
L 116.645861 194.714181 
L 116.653329 194.711188 
L 117.136577 194.531674 
L 117.241444 194.496044 
L 117.619824 194.364493 
L 117.893571 194.277905 
L 118.10309 194.209329 
L 118.586338 194.065596 
L 118.607769 194.059768 
L 119.069585 193.928471 
L 119.406258 193.841628 
L 119.552833 193.80202 
L 120.036099 193.682794 
L 120.30004 193.623492 
L 120.519346 193.572272 
L 121.002594 193.469744 
L 121.338003 193.405352 
L 121.485841 193.376412 
L 121.969108 193.290689 
L 122.452355 193.214347 
L 122.64174 193.187215 
L 122.935602 193.145532 
L 123.41885 193.084141 
L 123.902116 193.029781 
L 124.385364 192.981663 
L 124.525839 192.969076 
L 124.86863 192.93915 
L 125.351878 192.902027 
L 125.835144 192.870058 
L 126.318391 192.843107 
L 126.801639 192.821159 
L 127.284886 192.804294 
L 127.768153 192.79267 
L 128.2514 192.786516 
L 128.734647 192.786113 
L 129.217895 192.791776 
L 129.701161 192.803822 
L 130.184409 192.822518 
L 130.667656 192.848038 
L 131.150903 192.880411 
L 131.63417 192.919485 
L 132.117417 192.964917 
L 132.157164 192.969076 
L 132.600665 193.015599 
L 133.083912 193.07138 
L 133.567179 193.131703 
L 133.985166 193.187215 
L 134.050426 193.195886 
L 134.533673 193.263024 
L 135.016921 193.333458 
L 135.489276 193.405352 
L 135.500187 193.407033 
L 135.983435 193.484167 
L 136.466701 193.56542 
L 136.794337 193.623492 
L 136.949948 193.652069 
L 137.433215 193.746611 
L 137.878807 193.841628 
L 137.916462 193.850116 
L 138.39971 193.969065 
L 138.728982 194.059768 
L 138.882957 194.105244 
L 139.366224 194.265446 
L 139.399735 194.277905 
L 139.849471 194.45744 
L 139.9359 194.496044 
L 140.332718 194.684774 
L 140.388684 194.714181 
L 140.785331 194.93232 
L 140.815966 194.949723 
L 141.14274 195.150457 
L 141.299232 195.247577 
L 141.481728 195.368597 
L 141.78248 195.566619 
L 141.811341 195.586733 
L 142.127909 195.804873 
L 142.265727 195.898395 
L 142.439788 196.02301 
L 142.746722 196.241149 
L 142.748974 196.242752 
L 143.036514 196.459289 
L 143.232241 196.609493 
L 143.316034 196.677429 
L 143.576436 196.895565 
L 143.715488 197.017576 
L 143.819463 197.113705 
L 144.042735 197.331841 
L 144.198736 197.494791 
L 144.249457 197.549981 
L 144.437862 197.768118 
L 144.612892 197.986257 
L 144.681983 198.078438 
L 144.774572 198.204394 
L 144.92492 198.422534 
L 145.065737 198.64067 
L 145.16525 198.804663 
L 145.198149 198.85881 
L 145.323689 199.076948 
L 145.442836 199.295086 
L 145.556495 199.513224 
L 145.648497 199.696911 
L 145.665989 199.731362 
L 145.773784 199.949501 
L 145.87967 200.167639 
L 145.98507 200.385777 
L 146.091466 200.603916 
L 146.131744 200.684412 
L 146.201988 200.822055 
L 146.317265 201.040193 
L 146.437262 201.258331 
L 146.562481 201.476469 
L 146.614992 201.564223 
L 146.695185 201.694607 
L 146.833624 201.912745 
L 146.974373 202.130883 
L 147.098258 202.323177 
L 147.115388 202.349023 
L 147.256239 202.567161 
L 147.388776 202.785299 
L 147.509069 203.003437 
L 147.581506 203.154399 
L 147.614223 203.221576 
L 147.701286 203.439714 
L 147.766347 203.657852 
L 147.808382 203.87599 
L 147.827223 204.09413 
L 147.823372 204.312268 
L 147.797769 204.530406 
L 147.751523 204.748544 
L 147.685664 204.966682 
L 147.600916 205.18482 
L 147.581506 205.226116 
L 147.49779 205.402958 
L 147.375536 205.621096 
L 147.232827 205.839236 
L 147.098258 206.017591 
L 147.067474 206.057374 
L 146.875747 206.275512 
L 146.653742 206.493651 
L 146.614992 206.52742 
L 146.393945 206.711789 
L 146.131744 206.901289 
L 146.089966 206.929925 
L 145.729424 207.148063 
L 145.648497 207.191382 
L 145.298988 207.366202 
L 145.16525 207.425753 
L 144.780976 207.584341 
L 144.681983 207.621186 
L 144.198736 207.787618 
L 144.15243 207.802479 
L 143.715488 207.931456 
L 143.388832 208.020617 
L 143.232241 208.060559 
L 142.748974 208.177613 
L 142.484492 208.238756 
L 142.265727 208.28706 
L 141.78248 208.391423 
L 141.475798 208.456894 
L 141.299232 208.493639 
L 140.815966 208.595591 
L 140.446068 208.675033 
L 140.332718 208.699171 
L 139.849471 208.806014 
L 139.46862 208.893172 
L 139.366224 208.916681 
L 138.882957 209.032521 
L 138.56581 209.11131 
L 138.39971 209.152928 
L 137.916462 209.277999 
L 137.722376 209.329449 
L 137.433215 209.406616 
L 136.949948 209.536572 
L 136.909087 209.547587 
L 136.466701 209.666584 
L 136.087894 209.765726 
L 135.983435 209.792779 
L 135.500187 209.912932 
L 135.194453 209.983864 
L 135.016921 210.024072 
L 134.533673 210.124225 
L 134.108264 210.202002 
L 134.050426 210.212232 
L 133.567179 210.287278 
L 133.083912 210.349889 
L 132.600665 210.400773 
L 132.370661 210.420138 
L 132.117417 210.440831 
L 131.63417 210.471375 
L 131.150903 210.493884 
L 130.667656 210.509733 
L 130.184409 210.520258 
L 129.701161 210.526702 
L 129.217895 210.530188 
L 128.734647 210.531694 
L 128.2514 210.532039 
L 127.768153 210.531863 
L 127.284886 210.531616 
L 126.801639 210.531548 
L 126.318391 210.531695 
L 125.835144 210.531893 
L 125.351878 210.531785 
L 124.86863 210.530858 
L 124.385364 210.528485 
L 123.902116 210.52397 
L 123.41885 210.51659 
L 122.935602 210.505636 
L 122.452355 210.490416 
L 121.969108 210.47026 
L 121.485841 210.44449 
L 121.118774 210.420138 
L 121.002594 210.412349 
L 120.519346 210.372932 
L 120.036099 210.325565 
L 119.552833 210.269313 
L 119.069585 210.203167 
L 119.062151 210.202002 
L 118.586338 210.125646 
L 118.10309 210.036435 
L 117.850567 209.983864 
L 117.619824 209.934513 
L 117.136577 209.819796 
L 116.928115 209.765726 
L 116.653329 209.692524 
L 116.170082 209.554015 
L 116.148665 209.547587 
L 115.686815 209.405605 
L 115.447656 209.329449 
L 115.203568 209.249796 
L 114.785785 209.11131 
L 114.720321 209.089012 
L 114.237073 208.924985 
L 114.142018 208.893172 
L 113.753807 208.758942 
L 113.506065 208.675033 
L 113.270559 208.591873 
L 112.878804 208.456894 
L 112.787293 208.423658 
L 112.304045 208.252592 
L 112.263939 208.238756 
L 111.820779 208.075285 
L 111.670446 208.020617 
L 111.337532 207.889691 
L 111.114477 207.802479 
L 110.854284 207.69138 
L 110.604148 207.584341 
L 110.371037 207.474588 
L 110.14282 207.366202 
L 109.88777 207.232274 
L 109.72951 207.148063 
L 109.404523 206.956391 
L 109.360359 206.929925 
L 109.029855 206.711789 
L 108.921276 206.632593 
L 108.733633 206.493651 
L 108.466928 206.275512 
L 108.438028 206.249697 
L 108.225877 206.057374 
L 108.006666 205.839236 
L 107.954762 205.783233 
L 107.806845 205.621096 
L 107.623239 205.402958 
L 107.471514 205.208978 
L 107.452967 205.18482 
L 107.295881 204.966682 
L 107.148508 204.748544 
L 107.009607 204.530406 
L 106.988267 204.494885 
L 106.881606 204.312268 
L 106.76332 204.09413 
L 106.655548 203.87599 
L 106.56039 203.657852 
L 106.505019 203.506623 
L 106.481462 203.439714 
z
" clip-path="url(#p7b5a9977d1)" style="fill: none; stroke: #08519c; stroke-opacity: 0.555556; stroke-width: 1.5"/>
   </g>
   <g id="PathCollection_8">
    <path d="M 113.26112 203.003437 
L 113.254677 202.785299 
L 113.265861 202.567161 
L 113.270559 202.534326 
L 113.296152 202.349023 
L 113.347094 202.130883 
L 113.418969 201.912745 
L 113.510487 201.694607 
L 113.619163 201.476469 
L 113.741754 201.258331 
L 113.753807 201.238798 
L 113.873437 201.040193 
L 114.013333 200.822055 
L 114.159282 200.603916 
L 114.237073 200.491854 
L 114.310082 200.385777 
L 114.466219 200.167639 
L 114.628258 199.949501 
L 114.720321 199.831194 
L 114.798604 199.731362 
L 114.979928 199.513224 
L 115.172821 199.295086 
L 115.203568 199.262675 
L 115.383235 199.076948 
L 115.609573 198.85881 
L 115.686815 198.789444 
L 115.857009 198.64067 
L 116.123496 198.422534 
L 116.170082 198.386745 
L 116.415743 198.204394 
L 116.653329 198.037792 
L 116.73011 197.986257 
L 117.073524 197.768118 
L 117.136577 197.730146 
L 117.452962 197.549981 
L 117.619824 197.459912 
L 117.874254 197.331841 
L 118.10309 197.222898 
L 118.352841 197.113705 
L 118.586338 197.017355 
L 118.912825 196.895565 
L 119.069585 196.840402 
L 119.552833 196.688894 
L 119.594295 196.677429 
L 120.036099 196.56192 
L 120.485079 196.459289 
L 120.519346 196.451834 
L 121.002594 196.36008 
L 121.485841 196.279596 
L 121.746289 196.241149 
L 121.969108 196.209456 
L 122.452355 196.147472 
L 122.935602 196.090072 
L 123.41885 196.035661 
L 123.536204 196.02301 
L 123.902116 195.984418 
L 124.385364 195.935007 
L 124.86863 195.887242 
L 125.351878 195.841974 
L 125.785432 195.804873 
L 125.835144 195.800644 
L 126.318391 195.765441 
L 126.801639 195.737604 
L 127.284886 195.718977 
L 127.768153 195.711187 
L 128.2514 195.715508 
L 128.734647 195.732781 
L 129.217895 195.763417 
L 129.673208 195.804873 
L 129.701161 195.807516 
L 130.184409 195.86607 
L 130.667656 195.938069 
L 131.148557 196.02301 
L 131.150903 196.023445 
L 131.63417 196.125001 
L 132.117417 196.240848 
L 132.11856 196.241149 
L 132.600665 196.374582 
L 132.878418 196.459289 
L 133.083912 196.524467 
L 133.530741 196.677429 
L 133.567179 196.690206 
L 134.050426 196.869023 
L 134.119017 196.895565 
L 134.533673 197.055801 
L 134.679498 197.113705 
L 135.016921 197.245464 
L 135.235317 197.331841 
L 135.500187 197.433972 
L 135.79964 197.549981 
L 135.983435 197.619371 
L 136.375527 197.768118 
L 136.466701 197.802086 
L 136.949948 197.984637 
L 136.954149 197.986257 
L 137.433215 198.171819 
L 137.51395 198.204394 
L 137.916462 198.371098 
L 138.033323 198.422534 
L 138.39971 198.592232 
L 138.496573 198.64067 
L 138.882957 198.849323 
L 138.899096 198.85881 
L 139.239236 199.076948 
L 139.366224 199.168103 
L 139.52917 199.295086 
L 139.776626 199.513224 
L 139.849471 199.585711 
L 139.98645 199.731362 
L 140.167317 199.949501 
L 140.326452 200.167639 
L 140.332718 200.177252 
L 140.463557 200.385777 
L 140.586708 200.603916 
L 140.699237 200.822055 
L 140.804055 201.040193 
L 140.815966 201.066552 
L 140.901711 201.258331 
L 140.996469 201.476469 
L 141.090651 201.694607 
L 141.185798 201.912745 
L 141.282738 202.130883 
L 141.299232 202.167973 
L 141.379425 202.349023 
L 141.476293 202.567161 
L 141.571664 202.785299 
L 141.662465 203.003437 
L 141.744831 203.221576 
L 141.78248 203.340132 
L 141.813679 203.439714 
L 141.864937 203.657852 
L 141.895343 203.87599 
L 141.90109 204.09413 
L 141.878862 204.312268 
L 141.825819 204.530406 
L 141.78248 204.640156 
L 141.738734 204.748544 
L 141.614688 204.966682 
L 141.451814 205.18482 
L 141.299232 205.347739 
L 141.246529 205.402958 
L 140.993647 205.621096 
L 140.815966 205.749533 
L 140.689551 205.839236 
L 140.332718 206.054911 
L 140.328576 206.057374 
L 139.906507 206.275512 
L 139.849471 206.301459 
L 139.420643 206.493651 
L 139.366224 206.51548 
L 138.882957 206.707176 
L 138.871211 206.711789 
L 138.39971 206.881151 
L 138.262577 206.929925 
L 137.916462 207.044504 
L 137.601226 207.148063 
L 137.433215 207.200282 
L 136.949948 207.349604 
L 136.895545 207.366202 
L 136.466701 207.492414 
L 136.150811 207.584341 
L 135.983435 207.631868 
L 135.500187 207.766844 
L 135.369182 207.802479 
L 135.016921 207.896914 
L 134.542985 208.020617 
L 134.533673 208.023018 
L 134.050426 208.141203 
L 133.631247 208.238756 
L 133.567179 208.25339 
L 133.083912 208.354897 
L 132.600665 208.447878 
L 132.547802 208.456894 
L 132.117417 208.52739 
L 131.63417 208.595933 
L 131.150903 208.6538 
L 130.934086 208.675033 
L 130.667656 208.699515 
L 130.184409 208.734443 
L 129.701161 208.760922 
L 129.217895 208.780168 
L 128.734647 208.793473 
L 128.2514 208.802118 
L 127.768153 208.807284 
L 127.284886 208.809984 
L 126.801639 208.811008 
L 126.318391 208.810891 
L 125.835144 208.809899 
L 125.351878 208.808027 
L 124.86863 208.805019 
L 124.385364 208.800388 
L 123.902116 208.793444 
L 123.41885 208.783326 
L 122.935602 208.769035 
L 122.452355 208.749459 
L 121.969108 208.723407 
L 121.485841 208.689634 
L 121.321172 208.675033 
L 121.002594 208.645136 
L 120.519346 208.589058 
L 120.036099 208.521226 
L 119.650477 208.456894 
L 119.552833 208.439682 
L 119.069585 208.340205 
L 118.638128 208.238756 
L 118.586338 208.225885 
L 118.10309 208.090508 
L 117.877474 208.020617 
L 117.619824 207.936005 
L 117.246404 207.802479 
L 117.136577 207.760576 
L 116.706536 207.584341 
L 116.653329 207.560872 
L 116.237027 207.366202 
L 116.170082 207.332146 
L 115.824276 207.148063 
L 115.686815 207.067494 
L 115.459522 206.929925 
L 115.203568 206.757205 
L 115.137503 206.711789 
L 114.85616 206.493651 
L 114.720321 206.373506 
L 114.610016 206.275512 
L 114.39695 206.057374 
L 114.237073 205.866694 
L 114.213789 205.839236 
L 114.056457 205.621096 
L 113.923433 205.402958 
L 113.811594 205.18482 
L 113.753807 205.050394 
L 113.71661 204.966682 
L 113.634608 204.748544 
L 113.56395 204.530406 
L 113.501903 204.312268 
L 113.446394 204.09413 
L 113.39623 203.87599 
L 113.351255 203.657852 
L 113.312396 203.439714 
L 113.281582 203.221576 
L 113.270559 203.101234 
L 113.26112 203.003437 
z
" clip-path="url(#p7b5a9977d1)" style="fill: none; stroke: #08519c; stroke-opacity: 0.666667; stroke-width: 1.5"/>
   </g>
   <g id="PathCollection_9">
    <path d="M 119.013761 203.87599 
L 118.929909 203.657852 
L 118.874202 203.439714 
L 118.844858 203.221576 
L 118.84076 203.003437 
L 118.861344 202.785299 
L 118.906496 202.567161 
L 118.976446 202.349023 
L 119.069585 202.135686 
L 119.071793 202.130883 
L 119.198599 201.912745 
L 119.353841 201.694607 
L 119.539106 201.476469 
L 119.552833 201.462284 
L 119.770303 201.258331 
L 120.036099 201.043836 
L 120.041231 201.040193 
L 120.384451 200.822055 
L 120.519346 200.745342 
L 120.815813 200.603916 
L 121.002594 200.522501 
L 121.391242 200.385777 
L 121.485841 200.354628 
L 121.969108 200.227678 
L 122.264695 200.167639 
L 122.452355 200.13066 
L 122.935602 200.055131 
L 123.41885 199.994967 
L 123.855045 199.949501 
L 123.902116 199.944508 
L 124.385364 199.898237 
L 124.86863 199.854799 
L 125.351878 199.812711 
L 125.835144 199.771881 
L 126.318391 199.733548 
L 126.350181 199.731362 
L 126.801639 199.698474 
L 127.284886 199.671871 
L 127.768153 199.657503 
L 128.2514 199.658811 
L 128.734647 199.678657 
L 129.217895 199.719141 
L 129.313255 199.731362 
L 129.701161 199.780447 
L 130.184409 199.864375 
L 130.568895 199.949501 
L 130.667656 199.971794 
L 131.150903 200.103541 
L 131.352066 200.167639 
L 131.63417 200.262454 
L 131.956014 200.385777 
L 132.117417 200.452534 
L 132.447002 200.603916 
L 132.600665 200.681735 
L 132.855691 200.822055 
L 133.083912 200.963082 
L 133.200753 201.040193 
L 133.494633 201.258331 
L 133.567179 201.31843 
L 133.74862 201.476469 
L 133.970956 201.694607 
L 134.050426 201.780211 
L 134.168929 201.912745 
L 134.347226 202.130883 
L 134.509397 202.349023 
L 134.533673 202.384254 
L 134.656859 202.567161 
L 134.789412 202.785299 
L 134.905856 203.003437 
L 135.003561 203.221576 
L 135.016921 203.260783 
L 135.07746 203.439714 
L 135.122879 203.657852 
L 135.133857 203.87599 
L 135.103178 204.09413 
L 135.022609 204.312268 
L 135.016921 204.321502 
L 134.875469 204.530406 
L 134.652552 204.748544 
L 134.533673 204.835037 
L 134.324945 204.966682 
L 134.050426 205.102872 
L 133.852692 205.18482 
L 133.567179 205.284354 
L 133.144604 205.402958 
L 133.083912 205.418076 
L 132.600665 205.515974 
L 132.117417 205.591505 
L 131.873063 205.621096 
L 131.63417 205.648681 
L 131.150903 205.692479 
L 130.667656 205.726864 
L 130.184409 205.754622 
L 129.701161 205.777978 
L 129.217895 205.798517 
L 128.734647 205.817138 
L 128.2514 205.834072 
L 128.082969 205.839236 
L 127.768153 205.849206 
L 127.284886 205.861489 
L 126.801639 205.869607 
L 126.318391 205.872312 
L 125.835144 205.868466 
L 125.351878 205.85717 
L 124.903375 205.839236 
L 124.86863 205.837852 
L 124.385364 205.810687 
L 123.902116 205.774983 
L 123.41885 205.730321 
L 122.935602 205.675864 
L 122.531094 205.621096 
L 122.452355 205.610114 
L 121.969108 205.53048 
L 121.485841 205.431753 
L 121.368913 205.402958 
L 121.002594 205.305856 
L 120.638466 205.18482 
L 120.519346 205.140845 
L 120.136797 204.966682 
L 120.036099 204.913834 
L 119.77506 204.748544 
L 119.552833 204.579111 
L 119.498509 204.530406 
L 119.293638 204.312268 
L 119.132639 204.09413 
L 119.069585 203.984385 
L 119.013761 203.87599 
z
" clip-path="url(#p7b5a9977d1)" style="fill: none; stroke: #08519c; stroke-opacity: 0.888889; stroke-width: 1.5"/>
   </g>
   <g id="PathCollection_10"/>
   <g id="patch_3">
    <path d="M 29.25 224.28 
L 29.25 63.504 
" style="fill: none; stroke: #000000; stroke-width: 3; stroke-linejoin: miter; stroke-linecap: square"/>
   </g>
   <g id="patch_4">
    <path d="M 29.25 224.28 
L 179.511429 224.28 
" style="fill: none; stroke: #000000; stroke-width: 3; stroke-linejoin: miter; stroke-linecap: square"/>
   </g>
   <g id="text_1">
    <!-- $\theta^*$ -->
    <g transform="translate(107.697623 201.21401)scale(0.14 -0.14)">
     <defs>
      <path id="DejaVuSerif-Italic-3b8" d="M 2888 2600 
Q 3059 3603 2947 4113 
Q 2822 4678 2359 4678 
Q 1900 4678 1553 4113 
Q 1244 3603 1025 2600 
L 2888 2600 
z
M 2822 2266 
L 959 2266 
Q 791 1269 903 759 
Q 1031 191 1488 191 
Q 1947 191 2294 759 
Q 2603 1269 2822 2266 
z
M 2409 4931 
Q 3138 4931 3444 4248 
Q 3750 3566 3529 2433 
Q 3309 1300 2734 615 
Q 2159 -69 1434 -69 
Q 713 -69 406 615 
Q 100 1300 320 2433 
Q 541 3566 1112 4248 
Q 1684 4931 2409 4931 
z
" transform="scale(0.015625)"/>
      <path id="DejaVuSerif-2a" d="M 3097 3866 
L 1875 3297 
L 3097 2719 
L 2859 2350 
L 1772 3028 
L 1813 1838 
L 1388 1838 
L 1428 3028 
L 341 2350 
L 103 2719 
L 1325 3291 
L 103 3866 
L 341 4238 
L 1428 3559 
L 1388 4750 
L 1813 4750 
L 1772 3559 
L 2859 4238 
L 3097 3866 
z
" transform="scale(0.015625)"/>
     </defs>
     <use xlink:href="#DejaVuSerif-Italic-3b8" transform="translate(0 0.7125)"/>
     <use xlink:href="#DejaVuSerif-2a" transform="translate(81.239167 37.046875)scale(0.7)"/>
    </g>
   </g>
  </g>
 </g>
 <defs>
  <clipPath id="p7b5a9977d1">
   <rect x="29.25" y="63.504" width="150.261429" height="160.776"/>
  </clipPath>
 </defs>
</svg>
