<?xml version="1.0" encoding="utf-8" standalone="no"?>
<!DOCTYPE svg PUBLIC "-//W3C//DTD SVG 1.1//EN"
  "http://www.w3.org/Graphics/SVG/1.1/DTD/svg11.dtd">
<svg xmlns:xlink="http://www.w3.org/1999/xlink" width="180pt" height="108pt" viewBox="0 0 180 108" xmlns="http://www.w3.org/2000/svg" version="1.1">
 <metadata>
  <rdf:RDF xmlns:dc="http://purl.org/dc/elements/1.1/" xmlns:cc="http://creativecommons.org/ns#" xmlns:rdf="http://www.w3.org/1999/02/22-rdf-syntax-ns#">
   <cc:Work>
    <dc:type rdf:resource="http://purl.org/dc/dcmitype/StillImage"/>
    <dc:date>2023-01-19T22:50:31.073604</dc:date>
    <dc:format>image/svg+xml</dc:format>
    <dc:creator>
     <cc:Agent>
      <dc:title>Matplotlib v3.5.0, https://matplotlib.org/</dc:title>
     </cc:Agent>
    </dc:creator>
   </cc:Work>
  </rdf:RDF>
 </metadata>
 <defs>
  <style type="text/css">*{stroke-linejoin: round; stroke-linecap: butt}</style>
 </defs>
 <g id="figure_1">
  <g id="patch_1">
   <path d="M 0 108 
L 180 108 
L 180 0 
L 0 0 
L 0 108 
z
" style="fill: none"/>
  </g>
  <g id="axes_1">
   <path d="M 22.5 73.882597 
L 22.779 73.956831 
L 23.058 74.269159 
L 23.337 73.872869 
L 24.732 74.19785 
L 25.011 73.965451 
L 25.29 73.984248 
L 25.569 73.872718 
L 26.127 74.077985 
L 26.406 74.077296 
L 26.685 74.250438 
L 26.964 73.855983 
L 27.243 74.161199 
L 27.522 74.164361 
L 27.801 73.975609 
L 28.08 74.321299 
L 28.359 74.118891 
L 28.638 74.095023 
L 28.917 74.26208 
L 29.754 74.058505 
L 30.033 74.23652 
L 30.312 74.132416 
L 30.591 74.354671 
L 31.149 74.155024 
L 31.428 74.085356 
L 31.986 74.426499 
L 32.265 74.166211 
L 32.544 74.226126 
L 32.823 73.917746 
L 33.102 74.400928 
L 33.381 74.51257 
L 33.66 74.053358 
L 33.939 74.519267 
L 34.218 74.342847 
L 34.497 74.336632 
L 34.776 74.528987 
L 35.334 74.237683 
L 35.892 74.47679 
L 36.171 74.187859 
L 36.45 74.385238 
L 36.729 74.265855 
L 37.008 74.417546 
L 37.566 74.34418 
L 37.845 74.474494 
L 38.403 74.370918 
L 38.961 74.39339 
L 39.24 74.281309 
L 40.077 74.425678 
L 40.356 74.601614 
L 40.635 74.352992 
L 40.914 74.501166 
L 42.03 74.392037 
L 42.309 74.63829 
L 43.425 74.355395 
L 43.983 74.563523 
L 44.262 74.342617 
L 44.541 74.387602 
L 44.82 74.298528 
L 45.099 74.545221 
L 45.936 74.366625 
L 46.215 74.586011 
L 46.494 74.349114 
L 46.773 73.88475 
L 47.052 74.034774 
L 47.331 73.637145 
L 47.61 73.686024 
L 47.889 74.039429 
L 48.168 73.557844 
L 48.447 73.565521 
L 48.726 73.450512 
L 49.005 73.133638 
L 49.842 73.260853 
L 50.679 72.807461 
L 50.958 72.538653 
L 51.237 72.616404 
L 51.795 72.351906 
L 52.074 72.479395 
L 52.353 72.258903 
L 53.19 72.202197 
L 53.748 71.991342 
L 54.027 72.170863 
L 54.306 71.94214 
L 54.585 71.952232 
L 54.864 71.773982 
L 55.701 71.709328 
L 55.98 71.260908 
L 56.538 71.192616 
L 56.817 71.45268 
L 57.096 70.972987 
L 57.375 71.055058 
L 57.933 71.003995 
L 58.212 71.104783 
L 58.491 70.811757 
L 58.77 71.006114 
L 59.049 70.74673 
L 59.328 70.796486 
L 59.607 70.402304 
L 59.886 70.657971 
L 60.165 70.641954 
L 60.723 70.330317 
L 61.002 70.415594 
L 61.56 70.380925 
L 61.839 70.08536 
L 62.397 70.009844 
L 62.676 70.061002 
L 63.234 69.791229 
L 63.513 70.021878 
L 63.792 70.035142 
L 64.35 69.740412 
L 64.629 69.773355 
L 64.908 69.979877 
L 65.187 69.626337 
L 65.466 69.512153 
L 65.745 69.658477 
L 66.024 69.441155 
L 66.582 69.572907 
L 66.861 69.382267 
L 67.14 69.447263 
L 67.419 69.038449 
L 67.977 69.256567 
L 68.535 69.0642 
L 69.093 68.956717 
L 69.372 68.869601 
L 69.651 68.989581 
L 69.93 68.641584 
L 70.209 69.069474 
L 71.325 68.271031 
L 71.604 68.69296 
L 71.883 68.160735 
L 72.162 68.286174 
L 73.278 67.585385 
L 73.557 67.73522 
L 73.836 67.077753 
L 74.115 66.985928 
L 74.394 66.459253 
L 74.673 65.632407 
L 74.952 62.7045 
L 75.51 44.082997 
L 75.789 43.90656 
L 76.347 53.310227 
L 77.184 68.729873 
L 77.742 73.833502 
L 78.3 75.783015 
L 78.579 76.124211 
L 79.416 76.110701 
L 79.695 76.223961 
L 80.253 75.989344 
L 80.532 76.007729 
L 80.811 76.179832 
L 81.09 75.729535 
L 81.369 75.84331 
L 81.927 75.324463 
L 82.206 75.43557 
L 82.485 75.388853 
L 83.043 74.807877 
L 83.322 74.934029 
L 83.601 75.182348 
L 83.88 74.729041 
L 84.159 74.564079 
L 84.438 74.771525 
L 84.717 74.430415 
L 84.996 74.728089 
L 85.554 74.697014 
L 85.833 74.406509 
L 86.112 74.426368 
L 86.67 73.801291 
L 86.949 74.24789 
L 87.228 73.938334 
L 87.507 73.824091 
L 87.786 74.01364 
L 88.065 73.370092 
L 88.344 73.500514 
L 88.623 73.759273 
L 88.902 73.380362 
L 89.181 73.66544 
L 89.46 73.431908 
L 89.739 73.585098 
L 90.018 72.973785 
L 90.297 73.361339 
L 90.855 73.022135 
L 91.134 73.141416 
L 91.692 72.840971 
L 92.25 72.78222 
L 92.529 72.462507 
L 92.808 72.704567 
L 93.087 72.626564 
L 93.366 72.666814 
L 93.645 72.562562 
L 93.924 72.652871 
L 94.203 72.5584 
L 94.482 72.203088 
L 94.761 72.527586 
L 95.04 72.39348 
L 95.319 72.060678 
L 95.598 72.297696 
L 95.877 72.234747 
L 96.156 71.966865 
L 96.435 72.015046 
L 96.714 72.405427 
L 96.993 71.9053 
L 97.272 71.998241 
L 97.551 71.650511 
L 97.83 72.084917 
L 98.388 71.802824 
L 98.946 71.852439 
L 99.225 71.662928 
L 99.504 71.822179 
L 99.783 71.396437 
L 100.341 71.88037 
L 100.62 71.416776 
L 101.457 71.22676 
L 101.736 71.5012 
L 102.015 71.192555 
L 102.294 71.085959 
L 102.573 71.429179 
L 102.852 71.201326 
L 103.131 71.258778 
L 103.41 71.030156 
L 103.968 71.374661 
L 104.526 71.145448 
L 104.805 71.299588 
L 105.363 71.01726 
L 105.642 71.120592 
L 105.921 70.825404 
L 106.479 70.949411 
L 106.758 70.779316 
L 107.037 70.903985 
L 107.316 70.854845 
L 107.595 70.955313 
L 107.874 70.667561 
L 108.432 70.625232 
L 108.711 70.972562 
L 108.99 70.567581 
L 109.548 70.586684 
L 109.827 70.79886 
L 110.943 70.405482 
L 111.222 70.600149 
L 111.501 70.521718 
L 112.059 70.675454 
L 112.338 70.412742 
L 112.896 70.455072 
L 113.175 70.47542 
L 113.454 70.175071 
L 114.291 70.455418 
L 114.57 70.235146 
L 114.849 70.279217 
L 115.128 70.513746 
L 115.407 70.177449 
L 115.686 70.233969 
L 116.244 70.05076 
L 116.523 70.199713 
L 116.802 70.045543 
L 117.36 70.295816 
L 117.639 70.128976 
L 117.918 70.419386 
L 118.476 69.848913 
L 119.313 70.070397 
L 119.592 69.976888 
L 119.871 70.148717 
L 120.708 69.750793 
L 120.987 70.327221 
L 121.266 69.933072 
L 121.545 69.790249 
L 122.103 70.063311 
L 122.382 69.929343 
L 122.661 69.954737 
L 122.94 69.752143 
L 124.056 69.857674 
L 124.614 70.089477 
L 124.893 69.738529 
L 125.172 69.704663 
L 125.451 69.797169 
L 125.73 69.766439 
L 126.009 69.856667 
L 126.288 69.638745 
L 126.567 69.997381 
L 127.683 69.483216 
L 127.962 69.693886 
L 128.799 69.679726 
L 129.078 69.842828 
L 129.357 69.846849 
L 129.636 69.393522 
L 130.473 69.566795 
L 131.31 69.559609 
L 131.589 69.460149 
L 131.868 69.587441 
L 132.426 69.272919 
L 132.705 69.354646 
L 132.984 69.607832 
L 133.263 69.375133 
L 133.542 69.413321 
L 133.821 69.144497 
L 134.1 69.571284 
L 134.379 69.222339 
L 134.658 69.526368 
L 134.937 69.639472 
L 135.216 69.373503 
L 135.495 69.425742 
L 136.053 69.211282 
L 136.611 69.551189 
L 136.89 69.228937 
L 137.169 69.418533 
L 137.448 69.33251 
L 137.727 69.086255 
L 138.285 69.336867 
L 138.564 69.360593 
L 138.843 69.136571 
L 139.68 69.692797 
L 139.959 69.62402 
L 140.238 70.000945 
L 140.517 69.835964 
L 140.796 69.869387 
L 141.075 70.243998 
L 141.633 70.281201 
L 142.47 70.64205 
L 142.749 70.35268 
L 143.028 70.739098 
L 143.586 70.835527 
L 143.865 71.146884 
L 144.423 71.443682 
L 144.981 71.308043 
L 145.26 71.505228 
L 145.539 71.418714 
L 146.934 72.0426 
L 147.213 71.832036 
L 147.492 72.067316 
L 147.771 71.865937 
L 149.166 72.478157 
L 149.724 72.301915 
L 150.282 72.756222 
L 150.84 72.686362 
L 151.119 73.165574 
L 151.398 72.700109 
L 152.235 73.108803 
L 152.514 73.024098 
L 152.793 73.345945 
L 153.63 73.109866 
L 154.188 73.379982 
L 154.467 73.056297 
L 154.746 73.644585 
L 155.025 73.454681 
L 155.304 73.559337 
L 155.862 73.181994 
L 156.141 73.670268 
L 156.42 73.793908 
L 156.699 73.775062 
L 156.978 73.53048 
L 157.257 73.890767 
L 157.536 73.847809 
L 158.094 74.023762 
L 158.373 74.059561 
L 158.652 73.925582 
L 159.489 74.179736 
L 159.768 74.067965 
L 160.047 74.158454 
L 160.326 74.063004 
L 160.884 74.267215 
L 161.163 74.102511 
L 161.442 74.552828 
L 161.721 74.425168 
L 161.721 74.425168 
" clip-path="url(#p7765ff86d8)" style="fill: none; stroke: #000000; stroke-width: 3.2; stroke-linecap: square"/>
   <path d="M 22.5 73.882597 
L 22.779 73.956831 
L 23.058 74.269159 
L 23.337 73.872869 
L 24.732 74.19785 
L 25.011 73.965451 
L 25.29 73.984248 
L 25.569 73.872718 
L 26.127 74.077985 
L 26.406 74.077296 
L 26.685 74.250438 
L 26.964 73.855983 
L 27.243 74.161199 
L 27.522 74.164361 
L 27.801 73.975609 
L 28.08 74.321299 
L 28.359 74.118891 
L 28.638 74.095023 
L 28.917 74.26208 
L 29.754 74.058505 
L 30.033 74.23652 
L 30.312 74.132416 
L 30.591 74.354671 
L 31.149 74.155024 
L 31.428 74.085356 
L 31.986 74.426499 
L 32.265 74.166211 
L 32.544 74.226126 
L 32.823 73.917746 
L 33.102 74.400928 
L 33.381 74.51257 
L 33.66 74.053358 
L 33.939 74.519267 
L 34.218 74.342847 
L 34.497 74.336632 
L 34.776 74.528987 
L 35.334 74.237683 
L 35.892 74.47679 
L 36.171 74.187859 
L 36.45 74.385238 
L 36.729 74.265855 
L 37.008 74.417546 
L 37.566 74.34418 
L 37.845 74.474494 
L 38.403 74.370918 
L 38.961 74.39339 
L 39.24 74.281309 
L 40.077 74.425678 
L 40.356 74.601614 
L 40.635 74.352992 
L 40.914 74.501166 
L 42.03 74.392037 
L 42.309 74.63829 
L 43.425 74.355395 
L 43.983 74.563523 
L 44.262 74.342617 
L 44.541 74.387602 
L 44.82 74.298528 
L 45.099 74.545221 
L 45.936 74.366625 
L 46.215 74.586011 
L 46.494 74.349114 
L 46.773 73.88475 
L 47.052 74.034774 
L 47.331 73.637145 
L 47.61 73.686024 
L 47.889 74.039429 
L 48.168 73.557844 
L 48.447 73.565521 
L 48.726 73.450512 
L 49.005 73.133638 
L 49.842 73.260853 
L 50.679 72.807461 
L 50.958 72.538653 
L 51.237 72.616404 
L 51.795 72.351906 
L 52.074 72.479395 
L 52.353 72.258903 
L 53.19 72.202197 
L 53.748 71.991342 
L 54.027 72.170863 
L 54.306 71.94214 
L 54.585 71.952232 
L 54.864 71.773982 
L 55.701 71.709328 
L 55.98 71.260908 
L 56.538 71.192616 
L 56.817 71.45268 
L 57.096 70.972987 
L 57.375 71.055058 
L 57.933 71.003995 
L 58.212 71.104783 
L 58.491 70.811757 
L 58.77 71.006114 
L 59.049 70.74673 
L 59.328 70.796486 
L 59.607 70.402304 
L 59.886 70.657971 
L 60.165 70.641954 
L 60.723 70.330317 
L 61.002 70.415594 
L 61.56 70.380925 
L 61.839 70.08536 
L 62.397 70.009844 
L 62.676 70.061002 
L 63.234 69.791229 
L 63.513 70.021878 
L 63.792 70.035142 
L 64.35 69.740412 
L 64.629 69.773355 
L 64.908 69.979877 
L 65.187 69.626337 
L 65.466 69.512153 
L 65.745 69.658477 
L 66.024 69.441155 
L 66.582 69.572907 
L 66.861 69.382267 
L 67.14 69.447263 
L 67.419 69.038449 
L 67.977 69.256567 
L 68.535 69.0642 
L 69.093 68.956717 
L 69.372 68.869601 
L 69.651 68.989581 
L 69.93 68.641584 
L 70.209 69.069474 
L 71.325 68.271031 
L 71.604 68.69296 
L 71.883 68.160735 
L 72.162 68.286174 
L 73.278 67.585385 
L 73.557 67.73522 
L 73.836 67.077753 
L 74.115 66.985928 
L 74.394 66.459253 
L 74.673 65.632407 
L 74.952 62.7045 
L 75.51 44.082997 
L 75.789 43.90656 
L 76.347 53.310227 
L 77.184 68.729873 
L 77.742 73.833502 
L 78.3 75.783015 
L 78.579 76.124211 
L 79.416 76.110701 
L 79.695 76.223961 
L 80.253 75.989344 
L 80.532 76.007729 
L 80.811 76.179832 
L 81.09 75.729535 
L 81.369 75.84331 
L 81.927 75.324463 
L 82.206 75.43557 
L 82.485 75.388853 
L 83.043 74.807877 
L 83.322 74.934029 
L 83.601 75.182348 
L 83.88 74.729041 
L 84.159 74.564079 
L 84.438 74.771525 
L 84.717 74.430415 
L 84.996 74.728089 
L 85.554 74.697014 
L 85.833 74.406509 
L 86.112 74.426368 
L 86.67 73.801291 
L 86.949 74.24789 
L 87.228 73.938334 
L 87.507 73.824091 
L 87.786 74.01364 
L 88.065 73.370092 
L 88.344 73.500514 
L 88.623 73.759273 
L 88.902 73.380362 
L 89.181 73.66544 
L 89.46 73.431908 
L 89.739 73.585098 
L 90.018 72.973785 
L 90.297 73.361339 
L 90.855 73.022135 
L 91.134 73.141416 
L 91.692 72.840971 
L 92.25 72.78222 
L 92.529 72.462507 
L 92.808 72.704567 
L 93.087 72.626564 
L 93.366 72.666814 
L 93.645 72.562562 
L 93.924 72.652871 
L 94.203 72.5584 
L 94.482 72.203088 
L 94.761 72.527586 
L 95.04 72.39348 
L 95.319 72.060678 
L 95.598 72.297696 
L 95.877 72.234747 
L 96.156 71.966865 
L 96.435 72.015046 
L 96.714 72.405427 
L 96.993 71.9053 
L 97.272 71.998241 
L 97.551 71.650511 
L 97.83 72.084917 
L 98.388 71.802824 
L 98.946 71.852439 
L 99.225 71.662928 
L 99.504 71.822179 
L 99.783 71.396437 
L 100.341 71.88037 
L 100.62 71.416776 
L 101.457 71.22676 
L 101.736 71.5012 
L 102.015 71.192555 
L 102.294 71.085959 
L 102.573 71.429179 
L 102.852 71.201326 
L 103.131 71.258778 
L 103.41 71.030156 
L 103.968 71.374661 
L 104.526 71.145448 
L 104.805 71.299588 
L 105.363 71.01726 
L 105.642 71.120592 
L 105.921 70.825404 
L 106.479 70.949411 
L 106.758 70.779316 
L 107.037 70.903985 
L 107.316 70.854845 
L 107.595 70.955313 
L 107.874 70.667561 
L 108.432 70.625232 
L 108.711 70.972562 
L 108.99 70.567581 
L 109.548 70.586684 
L 109.827 70.79886 
L 110.943 70.405482 
L 111.222 70.600149 
L 111.501 70.521718 
L 112.059 70.675454 
L 112.338 70.412742 
L 112.896 70.455072 
L 113.175 70.47542 
L 113.454 70.175071 
L 114.291 70.455418 
L 114.57 70.235146 
L 114.849 70.279217 
L 115.128 70.513746 
L 115.407 70.177449 
L 115.686 70.233969 
L 116.244 70.05076 
L 116.523 70.199713 
L 116.802 70.045543 
L 117.36 70.295816 
L 117.639 70.128976 
L 117.918 70.419386 
L 118.476 69.848913 
L 119.313 70.070397 
L 119.592 69.976888 
L 119.871 70.148717 
L 120.708 69.750793 
L 120.987 70.327221 
L 121.266 69.933072 
L 121.545 69.790249 
L 122.103 70.063311 
L 122.382 69.929343 
L 122.661 69.954737 
L 122.94 69.752143 
L 124.056 69.857674 
L 124.614 70.089477 
L 124.893 69.738529 
L 125.172 69.704663 
L 125.451 69.797169 
L 125.73 69.766439 
L 126.009 69.856667 
L 126.288 69.638745 
L 126.567 69.997381 
L 127.683 69.483216 
L 127.962 69.693886 
L 128.799 69.679726 
L 129.078 69.842828 
L 129.357 69.846849 
L 129.636 69.393522 
L 130.473 69.566795 
L 131.31 69.559609 
L 131.589 69.460149 
L 131.868 69.587441 
L 132.426 69.272919 
L 132.705 69.354646 
L 132.984 69.607832 
L 133.263 69.375133 
L 133.542 69.413321 
L 133.821 69.144497 
L 134.1 69.571284 
L 134.379 69.222339 
L 134.658 69.526368 
L 134.937 69.639472 
L 135.216 69.373503 
L 135.495 69.425742 
L 136.053 69.211282 
L 136.611 69.551189 
L 136.89 69.228937 
L 137.169 69.418533 
L 137.448 69.33251 
L 137.727 69.086255 
L 138.285 69.336867 
L 138.564 69.360593 
L 138.843 69.136571 
L 139.68 69.692797 
L 139.959 69.62402 
L 140.238 70.000945 
L 140.517 69.835964 
L 140.796 69.869387 
L 141.075 70.243998 
L 141.633 70.281201 
L 142.47 70.64205 
L 142.749 70.35268 
L 143.028 70.739098 
L 143.586 70.835527 
L 143.865 71.146884 
L 144.423 71.443682 
L 144.981 71.308043 
L 145.26 71.505228 
L 145.539 71.418714 
L 146.934 72.0426 
L 147.213 71.832036 
L 147.492 72.067316 
L 147.771 71.865937 
L 149.166 72.478157 
L 149.724 72.301915 
L 150.282 72.756222 
L 150.84 72.686362 
L 151.119 73.165574 
L 151.398 72.700109 
L 152.235 73.108803 
L 152.514 73.024098 
L 152.793 73.345945 
L 153.63 73.109866 
L 154.188 73.379982 
L 154.467 73.056297 
L 154.746 73.644585 
L 155.025 73.454681 
L 155.304 73.559337 
L 155.862 73.181994 
L 156.141 73.670268 
L 156.42 73.793908 
L 156.699 73.775062 
L 156.978 73.53048 
L 157.257 73.890767 
L 157.536 73.847809 
L 158.094 74.023762 
L 158.373 74.059561 
L 158.652 73.925582 
L 159.489 74.179736 
L 159.768 74.067965 
L 160.047 74.158454 
L 160.326 74.063004 
L 160.884 74.267215 
L 161.163 74.102511 
L 161.442 74.552828 
L 161.721 74.425168 
L 161.721 74.425168 
" clip-path="url(#p7765ff86d8)" style="fill: none; stroke: #d94801; stroke-width: 1.6; stroke-linecap: square"/>
  </g>
 </g>
 <defs>
  <clipPath id="p7765ff86d8">
   <rect x="22.5" y="12.96" width="139.5" height="83.16"/>
  </clipPath>
 </defs>
</svg>
