<?xml version="1.0" encoding="utf-8" standalone="no"?>
<!DOCTYPE svg PUBLIC "-//W3C//DTD SVG 1.1//EN"
  "http://www.w3.org/Graphics/SVG/1.1/DTD/svg11.dtd">
<svg xmlns:xlink="http://www.w3.org/1999/xlink" width="180pt" height="108pt" viewBox="0 0 180 108" xmlns="http://www.w3.org/2000/svg" version="1.1">
 <metadata>
  <rdf:RDF xmlns:dc="http://purl.org/dc/elements/1.1/" xmlns:cc="http://creativecommons.org/ns#" xmlns:rdf="http://www.w3.org/1999/02/22-rdf-syntax-ns#">
   <cc:Work>
    <dc:type rdf:resource="http://purl.org/dc/dcmitype/StillImage"/>
    <dc:date>2023-01-19T22:50:31.148601</dc:date>
    <dc:format>image/svg+xml</dc:format>
    <dc:creator>
     <cc:Agent>
      <dc:title>Matplotlib v3.5.0, https://matplotlib.org/</dc:title>
     </cc:Agent>
    </dc:creator>
   </cc:Work>
  </rdf:RDF>
 </metadata>
 <defs>
  <style type="text/css">*{stroke-linejoin: round; stroke-linecap: butt}</style>
 </defs>
 <g id="figure_1">
  <g id="patch_1">
   <path d="M 0 108 
L 180 108 
L 180 0 
L 0 0 
L 0 108 
z
" style="fill: none"/>
  </g>
  <g id="axes_1">
   <path d="M 22.5 73.845549 
L 23.058 74.091798 
L 23.337 73.921845 
L 23.895 73.868971 
L 24.174 73.789522 
L 24.453 73.933218 
L 24.732 73.850468 
L 25.011 73.9043 
L 25.29 74.098068 
L 25.569 74.155415 
L 25.848 74.0679 
L 26.127 74.26299 
L 26.406 74.089181 
L 26.685 74.10727 
L 26.964 74.282277 
L 27.243 73.78308 
L 27.522 74.179973 
L 27.801 74.146059 
L 28.08 73.941982 
L 28.638 74.134685 
L 28.917 73.996324 
L 29.475 74.126877 
L 29.754 74.419682 
L 30.033 74.294508 
L 30.312 74.005147 
L 30.591 74.43949 
L 30.87 74.182149 
L 31.149 74.377937 
L 31.707 74.043511 
L 32.265 74.368748 
L 32.544 74.214443 
L 33.102 74.190099 
L 33.381 74.61042 
L 33.939 74.095473 
L 34.218 74.014317 
L 34.497 74.451936 
L 34.776 74.412344 
L 35.055 74.500572 
L 35.334 74.377499 
L 35.892 74.423426 
L 36.171 73.928828 
L 36.45 74.344968 
L 37.566 74.289053 
L 37.845 74.156982 
L 38.124 74.434679 
L 38.961 74.254581 
L 39.24 74.564801 
L 39.519 74.588102 
L 39.798 74.285562 
L 40.077 74.443177 
L 40.356 74.233566 
L 40.914 74.217797 
L 41.193 74.38856 
L 41.751 74.442189 
L 42.03 74.555533 
L 42.309 74.235103 
L 42.588 74.50312 
L 42.867 74.229239 
L 43.425 74.485569 
L 43.704 74.199508 
L 43.983 74.713533 
L 44.541 74.279549 
L 45.657 74.515184 
L 45.936 74.398568 
L 46.215 74.440167 
L 46.494 74.309895 
L 46.773 73.809554 
L 47.052 74.041889 
L 47.331 73.808001 
L 47.889 73.745995 
L 48.168 73.49676 
L 48.447 73.749202 
L 48.726 73.520043 
L 49.005 73.057253 
L 49.284 73.4357 
L 49.842 73.073878 
L 50.4 72.83436 
L 50.958 72.843668 
L 51.237 72.660338 
L 51.795 72.698453 
L 52.074 72.190364 
L 52.353 72.423518 
L 52.632 72.234128 
L 52.911 71.905635 
L 53.19 72.287436 
L 53.469 72.032304 
L 54.027 72.006219 
L 54.306 71.680262 
L 54.585 72.031361 
L 54.864 71.587776 
L 55.701 71.305511 
L 55.98 71.425453 
L 56.259 71.264772 
L 56.817 71.283234 
L 57.375 70.921307 
L 57.654 71.059652 
L 57.933 70.70736 
L 58.212 70.764779 
L 58.491 71.23135 
L 58.77 70.786085 
L 59.328 70.49763 
L 60.165 70.460233 
L 60.444 70.652776 
L 60.723 70.464638 
L 61.002 70.569404 
L 61.56 70.212438 
L 61.839 70.306117 
L 62.118 70.022278 
L 62.955 70.154173 
L 63.234 69.98546 
L 63.513 69.955567 
L 63.792 70.042487 
L 64.071 69.900501 
L 64.35 69.913926 
L 64.629 69.616521 
L 64.908 69.577683 
L 65.187 69.691607 
L 65.466 69.600925 
L 65.745 69.629757 
L 66.024 69.328989 
L 66.303 69.191766 
L 66.582 69.402977 
L 66.861 69.367814 
L 67.14 69.119729 
L 67.419 69.254269 
L 67.698 69.201561 
L 67.977 69.304238 
L 68.256 69.165451 
L 68.535 69.157309 
L 68.814 68.971591 
L 69.093 69.099606 
L 69.651 68.8913 
L 69.93 69.038359 
L 70.209 68.79393 
L 71.883 68.276071 
L 72.162 67.973017 
L 72.441 67.862026 
L 72.72 67.399184 
L 72.999 67.541925 
L 73.278 67.553355 
L 73.836 65.994769 
L 74.115 64.319091 
L 74.394 57.957174 
L 74.673 45.171127 
L 74.952 43.030733 
L 75.231 45.750801 
L 76.626 71.168256 
L 76.905 73.940792 
L 77.463 76.062713 
L 78.021 76.581505 
L 78.3 76.406478 
L 78.858 76.704903 
L 79.137 76.502878 
L 79.416 76.655037 
L 79.695 76.239901 
L 79.974 76.299379 
L 80.253 76.205784 
L 80.532 75.905022 
L 80.811 76.122384 
L 81.369 75.584438 
L 81.648 75.542041 
L 81.927 75.725614 
L 82.206 75.240249 
L 82.485 75.402396 
L 83.043 75.187733 
L 83.322 74.907638 
L 83.88 74.762928 
L 84.159 74.949713 
L 84.438 74.793236 
L 84.996 74.759309 
L 85.275 74.625265 
L 85.554 74.331089 
L 85.833 74.376641 
L 86.112 74.228572 
L 86.391 74.256072 
L 86.949 74.010343 
L 87.507 73.951886 
L 87.786 73.699993 
L 88.065 74.07594 
L 88.902 73.551791 
L 89.181 73.448478 
L 89.46 73.480277 
L 89.739 73.208895 
L 90.018 73.466674 
L 90.297 73.135928 
L 90.576 73.350885 
L 90.855 73.063009 
L 91.413 73.172452 
L 91.692 72.991051 
L 91.971 73.088394 
L 92.529 72.688113 
L 92.808 72.698207 
L 93.087 73.026367 
L 93.924 72.561972 
L 94.761 72.466678 
L 95.04 72.354696 
L 95.319 72.551698 
L 95.877 72.202867 
L 96.993 72.082384 
L 97.272 71.986547 
L 97.551 72.017812 
L 97.83 71.742941 
L 98.109 71.869981 
L 98.388 71.782601 
L 98.667 72.0186 
L 98.946 72.019194 
L 99.225 71.850346 
L 99.504 71.996684 
L 100.341 71.339686 
L 100.62 71.590333 
L 100.899 71.634707 
L 101.178 71.457222 
L 101.457 71.571703 
L 102.015 71.283756 
L 102.294 71.615305 
L 102.852 71.321682 
L 103.131 71.517908 
L 103.41 71.160093 
L 103.689 71.36541 
L 103.968 70.980686 
L 104.247 71.420109 
L 104.805 71.192033 
L 105.084 71.173347 
L 105.363 70.962061 
L 105.642 71.250508 
L 106.2 71.074052 
L 106.479 71.152561 
L 106.758 70.850956 
L 107.316 71.075208 
L 107.595 70.851137 
L 107.874 71.02654 
L 108.99 70.774042 
L 109.269 70.700924 
L 109.548 70.801153 
L 109.827 70.611726 
L 110.106 70.81702 
L 110.385 70.455169 
L 110.664 70.671133 
L 110.943 70.483011 
L 111.222 70.726172 
L 111.501 70.681576 
L 111.78 70.782428 
L 112.617 70.374522 
L 112.896 70.618363 
L 113.175 70.501458 
L 113.454 70.81884 
L 113.733 70.338739 
L 114.012 70.487978 
L 114.291 70.159972 
L 114.57 70.492377 
L 114.849 70.194773 
L 115.128 70.443946 
L 115.407 70.22517 
L 115.686 70.592185 
L 115.965 70.224117 
L 116.244 70.397267 
L 116.523 70.11429 
L 116.802 70.284078 
L 117.36 70.333964 
L 117.918 70.037843 
L 118.197 70.240757 
L 118.476 70.098329 
L 118.755 70.294961 
L 119.034 70.127852 
L 119.313 70.148855 
L 119.592 69.982111 
L 119.871 70.332698 
L 120.708 69.81867 
L 120.987 70.19455 
L 121.266 70.010155 
L 121.545 69.987769 
L 121.824 70.123724 
L 122.103 70.039107 
L 122.382 69.81502 
L 122.661 69.881129 
L 122.94 70.202776 
L 123.219 69.996868 
L 123.498 69.933991 
L 123.777 69.756015 
L 124.335 70.117028 
L 124.614 69.714622 
L 124.893 69.908533 
L 125.172 69.80303 
L 125.451 69.884751 
L 125.73 69.553688 
L 126.009 69.648885 
L 126.288 69.938419 
L 126.567 69.976487 
L 126.846 69.851145 
L 127.125 69.378931 
L 127.404 69.87039 
L 127.683 69.878279 
L 127.962 69.770538 
L 129.357 69.817535 
L 129.636 69.757856 
L 130.194 70.002444 
L 131.031 69.550005 
L 131.31 69.705024 
L 132.147 69.694652 
L 132.426 69.578526 
L 132.705 69.627575 
L 132.984 69.959037 
L 133.263 69.548579 
L 133.542 69.687977 
L 133.821 69.480398 
L 134.1 69.80432 
L 134.658 69.578335 
L 134.937 69.810731 
L 135.216 69.556739 
L 135.495 69.046687 
L 135.774 69.503303 
L 136.053 69.486048 
L 136.332 69.682827 
L 136.611 69.345062 
L 136.89 69.529344 
L 137.448 69.203903 
L 137.727 69.58736 
L 138.006 69.215642 
L 138.285 69.203551 
L 138.564 69.365546 
L 138.843 69.388965 
L 139.401 69.666473 
L 139.959 69.741108 
L 140.238 70.215391 
L 140.517 70.062403 
L 141.075 70.133404 
L 141.354 70.533018 
L 141.633 70.430197 
L 141.912 70.74061 
L 142.191 70.402408 
L 142.47 70.828427 
L 143.028 70.795779 
L 143.586 70.950629 
L 143.865 71.183497 
L 144.144 71.134738 
L 144.702 71.451629 
L 144.981 71.180306 
L 145.539 71.815407 
L 145.818 71.683255 
L 146.097 72.105486 
L 146.934 72.011943 
L 147.213 72.09913 
L 147.492 72.049717 
L 147.771 72.172021 
L 148.05 72.14926 
L 148.329 72.66471 
L 148.608 72.493943 
L 148.887 72.583404 
L 149.166 72.396079 
L 149.445 72.513275 
L 149.724 72.475393 
L 150.003 72.708291 
L 150.282 72.743546 
L 150.561 72.91168 
L 151.119 72.988638 
L 151.398 73.203301 
L 151.677 72.770703 
L 152.793 73.095227 
L 153.072 73.29099 
L 153.63 73.296258 
L 153.909 73.545711 
L 154.188 73.322732 
L 154.746 73.631993 
L 155.025 73.388414 
L 155.304 73.731604 
L 155.583 73.82226 
L 155.862 73.597363 
L 156.141 73.766931 
L 156.42 73.61837 
L 156.978 73.752103 
L 157.257 74.021425 
L 157.815 73.910623 
L 158.094 74.043153 
L 158.931 73.962731 
L 160.326 74.36425 
L 161.721 74.401222 
L 161.721 74.401222 
" clip-path="url(#pce250a9d7c)" style="fill: none; stroke: #000000; stroke-width: 3.2; stroke-linecap: square"/>
   <path d="M 22.5 73.845549 
L 23.058 74.091798 
L 23.337 73.921845 
L 23.895 73.868971 
L 24.174 73.789522 
L 24.453 73.933218 
L 24.732 73.850468 
L 25.011 73.9043 
L 25.29 74.098068 
L 25.569 74.155415 
L 25.848 74.0679 
L 26.127 74.26299 
L 26.406 74.089181 
L 26.685 74.10727 
L 26.964 74.282277 
L 27.243 73.78308 
L 27.522 74.179973 
L 27.801 74.146059 
L 28.08 73.941982 
L 28.638 74.134685 
L 28.917 73.996324 
L 29.475 74.126877 
L 29.754 74.419682 
L 30.033 74.294508 
L 30.312 74.005147 
L 30.591 74.43949 
L 30.87 74.182149 
L 31.149 74.377937 
L 31.707 74.043511 
L 32.265 74.368748 
L 32.544 74.214443 
L 33.102 74.190099 
L 33.381 74.61042 
L 33.939 74.095473 
L 34.218 74.014317 
L 34.497 74.451936 
L 34.776 74.412344 
L 35.055 74.500572 
L 35.334 74.377499 
L 35.892 74.423426 
L 36.171 73.928828 
L 36.45 74.344968 
L 37.566 74.289053 
L 37.845 74.156982 
L 38.124 74.434679 
L 38.961 74.254581 
L 39.24 74.564801 
L 39.519 74.588102 
L 39.798 74.285562 
L 40.077 74.443177 
L 40.356 74.233566 
L 40.914 74.217797 
L 41.193 74.38856 
L 41.751 74.442189 
L 42.03 74.555533 
L 42.309 74.235103 
L 42.588 74.50312 
L 42.867 74.229239 
L 43.425 74.485569 
L 43.704 74.199508 
L 43.983 74.713533 
L 44.541 74.279549 
L 45.657 74.515184 
L 45.936 74.398568 
L 46.215 74.440167 
L 46.494 74.309895 
L 46.773 73.809554 
L 47.052 74.041889 
L 47.331 73.808001 
L 47.889 73.745995 
L 48.168 73.49676 
L 48.447 73.749202 
L 48.726 73.520043 
L 49.005 73.057253 
L 49.284 73.4357 
L 49.842 73.073878 
L 50.4 72.83436 
L 50.958 72.843668 
L 51.237 72.660338 
L 51.795 72.698453 
L 52.074 72.190364 
L 52.353 72.423518 
L 52.632 72.234128 
L 52.911 71.905635 
L 53.19 72.287436 
L 53.469 72.032304 
L 54.027 72.006219 
L 54.306 71.680262 
L 54.585 72.031361 
L 54.864 71.587776 
L 55.701 71.305511 
L 55.98 71.425453 
L 56.259 71.264772 
L 56.817 71.283234 
L 57.375 70.921307 
L 57.654 71.059652 
L 57.933 70.70736 
L 58.212 70.764779 
L 58.491 71.23135 
L 58.77 70.786085 
L 59.328 70.49763 
L 60.165 70.460233 
L 60.444 70.652776 
L 60.723 70.464638 
L 61.002 70.569404 
L 61.56 70.212438 
L 61.839 70.306117 
L 62.118 70.022278 
L 62.955 70.154173 
L 63.234 69.98546 
L 63.513 69.955567 
L 63.792 70.042487 
L 64.071 69.900501 
L 64.35 69.913926 
L 64.629 69.616521 
L 64.908 69.577683 
L 65.187 69.691607 
L 65.466 69.600925 
L 65.745 69.629757 
L 66.024 69.328989 
L 66.303 69.191766 
L 66.582 69.402977 
L 66.861 69.367814 
L 67.14 69.119729 
L 67.419 69.254269 
L 67.698 69.201561 
L 67.977 69.304238 
L 68.256 69.165451 
L 68.535 69.157309 
L 68.814 68.971591 
L 69.093 69.099606 
L 69.651 68.8913 
L 69.93 69.038359 
L 70.209 68.79393 
L 71.883 68.276071 
L 72.162 67.973017 
L 72.441 67.862026 
L 72.72 67.399184 
L 72.999 67.541925 
L 73.278 67.553355 
L 73.836 65.994769 
L 74.115 64.319091 
L 74.394 57.957174 
L 74.673 45.171127 
L 74.952 43.030733 
L 75.231 45.750801 
L 76.626 71.168256 
L 76.905 73.940792 
L 77.463 76.062713 
L 78.021 76.581505 
L 78.3 76.406478 
L 78.858 76.704903 
L 79.137 76.502878 
L 79.416 76.655037 
L 79.695 76.239901 
L 79.974 76.299379 
L 80.253 76.205784 
L 80.532 75.905022 
L 80.811 76.122384 
L 81.369 75.584438 
L 81.648 75.542041 
L 81.927 75.725614 
L 82.206 75.240249 
L 82.485 75.402396 
L 83.043 75.187733 
L 83.322 74.907638 
L 83.88 74.762928 
L 84.159 74.949713 
L 84.438 74.793236 
L 84.996 74.759309 
L 85.275 74.625265 
L 85.554 74.331089 
L 85.833 74.376641 
L 86.112 74.228572 
L 86.391 74.256072 
L 86.949 74.010343 
L 87.507 73.951886 
L 87.786 73.699993 
L 88.065 74.07594 
L 88.902 73.551791 
L 89.181 73.448478 
L 89.46 73.480277 
L 89.739 73.208895 
L 90.018 73.466674 
L 90.297 73.135928 
L 90.576 73.350885 
L 90.855 73.063009 
L 91.413 73.172452 
L 91.692 72.991051 
L 91.971 73.088394 
L 92.529 72.688113 
L 92.808 72.698207 
L 93.087 73.026367 
L 93.924 72.561972 
L 94.761 72.466678 
L 95.04 72.354696 
L 95.319 72.551698 
L 95.877 72.202867 
L 96.993 72.082384 
L 97.272 71.986547 
L 97.551 72.017812 
L 97.83 71.742941 
L 98.109 71.869981 
L 98.388 71.782601 
L 98.667 72.0186 
L 98.946 72.019194 
L 99.225 71.850346 
L 99.504 71.996684 
L 100.341 71.339686 
L 100.62 71.590333 
L 100.899 71.634707 
L 101.178 71.457222 
L 101.457 71.571703 
L 102.015 71.283756 
L 102.294 71.615305 
L 102.852 71.321682 
L 103.131 71.517908 
L 103.41 71.160093 
L 103.689 71.36541 
L 103.968 70.980686 
L 104.247 71.420109 
L 104.805 71.192033 
L 105.084 71.173347 
L 105.363 70.962061 
L 105.642 71.250508 
L 106.2 71.074052 
L 106.479 71.152561 
L 106.758 70.850956 
L 107.316 71.075208 
L 107.595 70.851137 
L 107.874 71.02654 
L 108.99 70.774042 
L 109.269 70.700924 
L 109.548 70.801153 
L 109.827 70.611726 
L 110.106 70.81702 
L 110.385 70.455169 
L 110.664 70.671133 
L 110.943 70.483011 
L 111.222 70.726172 
L 111.501 70.681576 
L 111.78 70.782428 
L 112.617 70.374522 
L 112.896 70.618363 
L 113.175 70.501458 
L 113.454 70.81884 
L 113.733 70.338739 
L 114.012 70.487978 
L 114.291 70.159972 
L 114.57 70.492377 
L 114.849 70.194773 
L 115.128 70.443946 
L 115.407 70.22517 
L 115.686 70.592185 
L 115.965 70.224117 
L 116.244 70.397267 
L 116.523 70.11429 
L 116.802 70.284078 
L 117.36 70.333964 
L 117.918 70.037843 
L 118.197 70.240757 
L 118.476 70.098329 
L 118.755 70.294961 
L 119.034 70.127852 
L 119.313 70.148855 
L 119.592 69.982111 
L 119.871 70.332698 
L 120.708 69.81867 
L 120.987 70.19455 
L 121.266 70.010155 
L 121.545 69.987769 
L 121.824 70.123724 
L 122.103 70.039107 
L 122.382 69.81502 
L 122.661 69.881129 
L 122.94 70.202776 
L 123.219 69.996868 
L 123.498 69.933991 
L 123.777 69.756015 
L 124.335 70.117028 
L 124.614 69.714622 
L 124.893 69.908533 
L 125.172 69.80303 
L 125.451 69.884751 
L 125.73 69.553688 
L 126.009 69.648885 
L 126.288 69.938419 
L 126.567 69.976487 
L 126.846 69.851145 
L 127.125 69.378931 
L 127.404 69.87039 
L 127.683 69.878279 
L 127.962 69.770538 
L 129.357 69.817535 
L 129.636 69.757856 
L 130.194 70.002444 
L 131.031 69.550005 
L 131.31 69.705024 
L 132.147 69.694652 
L 132.426 69.578526 
L 132.705 69.627575 
L 132.984 69.959037 
L 133.263 69.548579 
L 133.542 69.687977 
L 133.821 69.480398 
L 134.1 69.80432 
L 134.658 69.578335 
L 134.937 69.810731 
L 135.216 69.556739 
L 135.495 69.046687 
L 135.774 69.503303 
L 136.053 69.486048 
L 136.332 69.682827 
L 136.611 69.345062 
L 136.89 69.529344 
L 137.448 69.203903 
L 137.727 69.58736 
L 138.006 69.215642 
L 138.285 69.203551 
L 138.564 69.365546 
L 138.843 69.388965 
L 139.401 69.666473 
L 139.959 69.741108 
L 140.238 70.215391 
L 140.517 70.062403 
L 141.075 70.133404 
L 141.354 70.533018 
L 141.633 70.430197 
L 141.912 70.74061 
L 142.191 70.402408 
L 142.47 70.828427 
L 143.028 70.795779 
L 143.586 70.950629 
L 143.865 71.183497 
L 144.144 71.134738 
L 144.702 71.451629 
L 144.981 71.180306 
L 145.539 71.815407 
L 145.818 71.683255 
L 146.097 72.105486 
L 146.934 72.011943 
L 147.213 72.09913 
L 147.492 72.049717 
L 147.771 72.172021 
L 148.05 72.14926 
L 148.329 72.66471 
L 148.608 72.493943 
L 148.887 72.583404 
L 149.166 72.396079 
L 149.445 72.513275 
L 149.724 72.475393 
L 150.003 72.708291 
L 150.282 72.743546 
L 150.561 72.91168 
L 151.119 72.988638 
L 151.398 73.203301 
L 151.677 72.770703 
L 152.793 73.095227 
L 153.072 73.29099 
L 153.63 73.296258 
L 153.909 73.545711 
L 154.188 73.322732 
L 154.746 73.631993 
L 155.025 73.388414 
L 155.304 73.731604 
L 155.583 73.82226 
L 155.862 73.597363 
L 156.141 73.766931 
L 156.42 73.61837 
L 156.978 73.752103 
L 157.257 74.021425 
L 157.815 73.910623 
L 158.094 74.043153 
L 158.931 73.962731 
L 160.326 74.36425 
L 161.721 74.401222 
L 161.721 74.401222 
" clip-path="url(#pce250a9d7c)" style="fill: none; stroke: #d94801; stroke-width: 1.6; stroke-linecap: square"/>
  </g>
 </g>
 <defs>
  <clipPath id="pce250a9d7c">
   <rect x="22.5" y="12.96" width="139.5" height="83.16"/>
  </clipPath>
 </defs>
</svg>
