<?xml version="1.0" encoding="utf-8" standalone="no"?>
<!DOCTYPE svg PUBLIC "-//W3C//DTD SVG 1.1//EN"
  "http://www.w3.org/Graphics/SVG/1.1/DTD/svg11.dtd">
<svg xmlns:xlink="http://www.w3.org/1999/xlink" width="234pt" height="252pt" viewBox="0 0 234 252" xmlns="http://www.w3.org/2000/svg" version="1.1">
 <metadata>
  <rdf:RDF xmlns:dc="http://purl.org/dc/elements/1.1/" xmlns:cc="http://creativecommons.org/ns#" xmlns:rdf="http://www.w3.org/1999/02/22-rdf-syntax-ns#">
   <cc:Work>
    <dc:type rdf:resource="http://purl.org/dc/dcmitype/StillImage"/>
    <dc:date>2023-01-19T22:50:30.940207</dc:date>
    <dc:format>image/svg+xml</dc:format>
    <dc:creator>
     <cc:Agent>
      <dc:title>Matplotlib v3.5.0, https://matplotlib.org/</dc:title>
     </cc:Agent>
    </dc:creator>
   </cc:Work>
  </rdf:RDF>
 </metadata>
 <defs>
  <style type="text/css">*{stroke-linejoin: round; stroke-linecap: butt}</style>
 </defs>
 <g id="figure_1">
  <g id="patch_1">
   <path d="M 0 252 
L 234 252 
L 234 0 
L 0 0 
L 0 252 
z
" style="fill: none"/>
  </g>
  <g id="axes_1">
   <g id="patch_2">
    <path d="M 29.25 224.28 
L 179.511429 224.28 
L 179.511429 63.504 
L 29.25 63.504 
L 29.25 224.28 
z
" style="fill: none"/>
   </g>
   <g id="PathCollection_1">
    <defs>
     <path id="md36d34c315" d="M 0 -3.535534 
L -0.793777 -1.09254 
L -3.362493 -1.09254 
L -1.284358 0.417313 
L -2.078135 2.860307 
L -0 1.350454 
L 2.078135 2.860307 
L 1.284358 0.417313 
L 3.362493 -1.09254 
L 0.793777 -1.09254 
z
" style="stroke: #000000"/>
    </defs>
    <g clip-path="url(#pcb6a85f874)">
     <use xlink:href="#md36d34c315" x="107.697623" y="206.03729" style="stroke: #000000"/>
    </g>
   </g>
   <g id="PathCollection_2">
    <defs>
     <path id="mab3f520e84" d="M 0 2.236068 
C 0.593012 2.236068 1.161816 2.000462 1.581139 1.581139 
C 2.000462 1.161816 2.236068 0.593012 2.236068 0 
C 2.236068 -0.593012 2.000462 -1.161816 1.581139 -1.581139 
C 1.161816 -2.000462 0.593012 -2.236068 0 -2.236068 
C -0.593012 -2.236068 -1.161816 -2.000462 -1.581139 -1.581139 
C -2.000462 -1.161816 -2.236068 -0.593012 -2.236068 0 
C -2.236068 0.593012 -2.000462 1.161816 -1.581139 1.581139 
C -1.161816 2.000462 -0.593012 2.236068 0 2.236068 
z
" style="stroke: #d94801"/>
    </defs>
    <g clip-path="url(#pcb6a85f874)">
     <use xlink:href="#mab3f520e84" x="90.752076" y="210.799722" style="fill: #d94801; stroke: #d94801"/>
    </g>
   </g>
   <g id="PathCollection_3">
    <g clip-path="url(#pcb6a85f874)">
     <use xlink:href="#mab3f520e84" x="129.103866" y="209.600829" style="fill: #d94801; stroke: #d94801"/>
    </g>
   </g>
   <g id="matplotlib.axis_1"/>
   <g id="matplotlib.axis_2"/>
   <g id="PathCollection_4">
    <path d="M 29.25 125.713813 
L 30.005079 125.713813 
L 30.760158 124.905892 
L 33.025413 124.905892 
L 33.780492 124.09797 
L 36.800826 124.09797 
L 37.555924 123.290054 
L 39.821161 123.290054 
L 40.576239 122.482133 
L 44.351653 122.482133 
L 45.106731 121.674211 
L 48.127066 121.674211 
L 48.882145 120.866289 
L 52.657558 120.866289 
L 53.412637 120.058374 
L 57.943129 120.058374 
L 58.698207 119.250446 
L 63.228718 119.250446 
L 63.983797 118.44253 
L 69.269368 118.44253 
L 70.024447 117.634614 
L 76.820194 117.634614 
L 77.575273 116.826687 
L 85.1261 116.826687 
L 85.881197 116.018771 
L 95.69726 116.018771 
L 96.452339 115.210855 
L 111.553992 115.210855 
L 112.30907 114.40294 
L 153.083536 114.40294 
L 153.838634 115.210855 
L 168.940287 115.210855 
L 169.695347 116.018771 
L 179.511429 116.018771 
L 179.511429 116.018771 
" clip-path="url(#pcb6a85f874)" style="fill: none"/>
   </g>
   <g id="PathCollection_5">
    <path d="M 75.782074 214.584965 
L 75.987026 213.777045 
L 76.065116 213.700547 
L 76.820194 213.002551 
L 76.858577 212.969125 
L 77.575273 212.541867 
L 78.228233 212.161206 
L 78.330352 212.104967 
L 79.085431 211.658481 
L 79.549625 211.353286 
L 79.840529 211.042841 
L 80.265712 210.545366 
L 80.595608 209.965233 
L 80.732887 209.737447 
L 81.350686 209.137115 
L 81.607579 208.929527 
L 82.105765 208.669136 
L 82.860844 208.327065 
L 83.372666 208.121608 
L 83.615942 208.024884 
L 84.371021 207.728119 
L 85.1261 207.437008 
L 85.44632 207.313688 
L 85.881197 207.128187 
L 86.636276 206.817345 
L 87.391355 206.529613 
L 87.456935 206.505768 
L 88.146434 206.277263 
L 88.901513 206.047728 
L 89.656611 205.835581 
L 90.169673 205.697849 
L 90.411689 205.634293 
L 91.166768 205.432737 
L 91.921866 205.229786 
L 92.676945 205.026229 
L 93.182795 204.889929 
L 93.432024 204.826208 
L 94.187103 204.629206 
L 94.942181 204.432978 
L 95.69726 204.240481 
L 96.339958 204.082009 
L 96.452339 204.051755 
L 97.207418 203.852217 
L 97.962516 203.66065 
L 98.717595 203.479587 
L 99.472673 203.310434 
L 99.645965 203.27409 
L 100.227752 203.136794 
L 100.982831 202.972016 
L 101.737929 202.818789 
L 102.493008 202.675266 
L 103.248087 202.54052 
L 103.694372 202.46617 
L 104.003184 202.413653 
L 104.758263 202.298331 
L 105.513342 202.197393 
L 106.268421 202.110854 
L 107.0235 202.038757 
L 107.778578 201.980975 
L 108.533657 201.936952 
L 109.288736 201.905443 
L 110.043834 201.884397 
L 110.798913 201.871052 
L 111.553992 201.862271 
L 112.30907 201.855023 
L 113.064149 201.846843 
L 113.819247 201.836158 
L 114.574326 201.822408 
L 115.329405 201.805987 
L 116.084503 201.78803 
L 116.839582 201.77013 
L 117.59466 201.754026 
L 118.349739 201.741362 
L 119.104818 201.733571 
L 119.859916 201.731897 
L 120.614995 201.737526 
L 121.370074 201.751726 
L 122.125171 201.775936 
L 122.88025 201.811716 
L 123.635329 201.860583 
L 124.390408 201.923746 
L 125.145487 202.001832 
L 125.900565 202.094674 
L 126.655644 202.201226 
L 127.410723 202.319615 
L 128.165821 202.447289 
L 128.273497 202.46617 
L 128.9209 202.579808 
L 129.675979 202.715765 
L 130.431057 202.852684 
L 131.186136 202.988311 
L 131.941234 203.120987 
L 132.696313 203.24975 
L 132.844714 203.27409 
L 133.451392 203.357664 
L 134.20649 203.462206 
L 134.961569 203.568119 
L 135.716647 203.675474 
L 136.471726 203.784235 
L 137.226805 203.894457 
L 137.981884 204.006514 
L 138.477599 204.082009 
L 138.736963 204.115199 
L 139.492041 204.215122 
L 140.247139 204.318187 
L 141.002218 204.42525 
L 141.757297 204.537912 
L 142.512376 204.658486 
L 143.267455 204.789975 
L 143.786926 204.889929 
L 144.022552 204.935997 
L 144.777631 205.098457 
L 145.53271 205.278651 
L 146.287808 205.478731 
L 147.031984 205.697849 
L 147.042887 205.701262 
L 147.797966 205.941137 
L 148.553044 206.179751 
L 149.308123 206.414941 
L 149.606324 206.505768 
L 150.063221 206.638705 
L 150.818319 206.847137 
L 151.573379 207.048742 
L 152.328477 207.251132 
L 152.556505 207.313688 
L 153.083536 207.470362 
L 153.838634 207.714771 
L 154.593732 207.992673 
L 154.908245 208.121608 
L 155.348792 208.33384 
L 156.103852 208.728386 
L 156.466699 208.929527 
L 156.85895 209.169275 
L 157.614009 209.612356 
L 157.836936 209.737447 
L 158.369107 210.038533 
L 159.124167 210.468074 
L 159.259564 210.545366 
L 159.879265 210.932082 
L 160.479334 211.353286 
L 160.634363 211.490408 
L 161.319074 212.161206 
L 161.389422 212.23873 
L 162.047538 212.969125 
L 162.14452 213.06889 
L 162.899618 213.776131 
L 162.900667 213.777045 
L 163.612459 214.584965 
L 163.654678 214.849471 
L 163.740154 215.392884 
L 163.654678 215.526739 
L 163.236721 216.200804 
L 162.899618 216.425026 
L 162.14452 216.896056 
L 161.955291 217.008724 
L 161.389422 217.198571 
L 160.634363 217.434583 
L 159.879265 217.653686 
L 159.281548 217.816643 
L 159.124167 217.848263 
L 158.369107 217.995672 
L 157.614009 218.134908 
L 156.85895 218.266218 
L 156.103852 218.389787 
L 155.348792 218.505739 
L 154.593732 218.614226 
L 154.519133 218.624562 
L 153.838634 218.703862 
L 153.083536 218.786999 
L 152.328477 218.86586 
L 151.573379 218.941439 
L 150.818319 219.014733 
L 150.063221 219.08664 
L 149.308123 219.157778 
L 148.553044 219.228355 
L 147.797966 219.298082 
L 147.042887 219.366167 
L 146.287808 219.431442 
L 146.275378 219.432482 
L 145.53271 219.499978 
L 144.777631 219.562824 
L 144.022552 219.619186 
L 143.267455 219.669128 
L 142.512376 219.713444 
L 141.757297 219.753538 
L 141.002218 219.791179 
L 140.247139 219.828199 
L 139.492041 219.866171 
L 138.736963 219.906119 
L 137.981884 219.948349 
L 137.226805 219.992424 
L 136.471726 220.037305 
L 135.716647 220.081618 
L 134.961569 220.123959 
L 134.20649 220.16315 
L 133.451392 220.198396 
L 132.696313 220.22932 
L 132.385708 220.240402 
L 131.941234 220.262198 
L 131.186136 220.293859 
L 130.431057 220.320363 
L 129.675979 220.34231 
L 128.9209 220.360278 
L 128.165821 220.374789 
L 127.410723 220.386315 
L 126.655644 220.395296 
L 125.900565 220.402176 
L 125.145487 220.407414 
L 124.390408 220.411485 
L 123.635329 220.414862 
L 122.88025 220.417986 
L 122.125171 220.421233 
L 121.370074 220.424887 
L 120.614995 220.429105 
L 119.859916 220.433887 
L 119.104818 220.439041 
L 118.349739 220.444156 
L 117.59466 220.448594 
L 116.839582 220.451511 
L 116.084503 220.451918 
L 115.329405 220.448781 
L 114.574326 220.44113 
L 113.819247 220.428182 
L 113.064149 220.409443 
L 112.30907 220.384778 
L 111.553992 220.354444 
L 110.798913 220.319068 
L 110.043834 220.279574 
L 109.34656 220.240402 
L 109.288736 220.237976 
L 108.533657 220.205966 
L 107.778578 220.173684 
L 107.0235 220.141578 
L 106.268421 220.109838 
L 105.513342 220.078451 
L 104.758263 220.047276 
L 104.003184 220.016107 
L 103.248087 219.984704 
L 102.493008 219.952791 
L 101.737929 219.920017 
L 100.982831 219.88593 
L 100.227752 219.849973 
L 99.472673 219.811517 
L 98.717595 219.76994 
L 97.962516 219.724729 
L 97.207418 219.675562 
L 96.452339 219.622362 
L 95.69726 219.565294 
L 94.942181 219.504711 
L 94.187103 219.441061 
L 94.087033 219.432482 
L 93.432024 219.384891 
L 92.676945 219.328822 
L 91.921866 219.271257 
L 91.166768 219.211708 
L 90.411689 219.14935 
L 89.656611 219.083059 
L 88.901513 219.011489 
L 88.146434 218.933175 
L 87.391355 218.846626 
L 86.636276 218.750426 
L 85.881197 218.64331 
L 85.757215 218.624562 
L 85.1261 218.503723 
L 84.371021 218.341997 
L 83.615942 218.16223 
L 82.860844 217.965429 
L 82.323573 217.816643 
L 82.105765 217.734088 
L 81.350686 217.452504 
L 80.595608 217.172648 
L 80.146451 217.008724 
L 79.840529 216.902608 
L 79.085431 216.640721 
L 78.330352 216.370153 
L 77.872602 216.200804 
L 77.575273 216.055296 
L 76.820194 215.656673 
L 76.358933 215.392884 
L 76.065116 214.97705 
L 75.782074 214.584965 
z
" clip-path="url(#pcb6a85f874)" style="fill: none; stroke: #d94801; stroke-opacity: 0.111111; stroke-width: 1.5"/>
   </g>
   <g id="PathCollection_6">
    <path d="M 85.719445 214.584965 
L 85.881197 214.012272 
L 85.943893 213.777045 
L 86.636276 213.18853 
L 86.883437 212.969125 
L 87.391355 212.522227 
L 87.787251 212.161206 
L 88.146434 211.796467 
L 88.61196 211.353286 
L 88.901513 211.157856 
L 89.656611 210.699395 
L 89.936138 210.545366 
L 90.411689 210.319932 
L 91.166768 209.980715 
L 91.730928 209.737447 
L 91.921866 209.659326 
L 92.676945 209.357852 
L 93.432024 209.06808 
L 93.800118 208.929527 
L 94.187103 208.788303 
L 94.942181 208.521492 
L 95.69726 208.265188 
L 96.130104 208.121608 
L 96.452339 207.998767 
L 97.207418 207.71594 
L 97.962516 207.446343 
L 98.358346 207.313688 
L 98.717595 207.195359 
L 99.472673 206.973843 
L 100.227752 206.789409 
L 100.982831 206.642753 
L 101.737929 206.531137 
L 101.963584 206.505768 
L 102.493008 206.445697 
L 103.248087 206.378578 
L 104.003184 206.326128 
L 104.758263 206.283766 
L 105.513342 206.246736 
L 106.268421 206.210485 
L 107.0235 206.171199 
L 107.778578 206.126357 
L 108.533657 206.075156 
L 109.288736 206.018627 
L 110.043834 205.959413 
L 110.798913 205.901252 
L 111.553992 205.84828 
L 112.30907 205.80436 
L 113.064149 205.772528 
L 113.819247 205.754633 
L 114.574326 205.751199 
L 115.329405 205.761449 
L 116.084503 205.783487 
L 116.839582 205.814573 
L 117.59466 205.851482 
L 118.349739 205.890899 
L 119.104818 205.929833 
L 119.859916 205.965992 
L 120.614995 205.998047 
L 121.370074 206.025762 
L 122.125171 206.04992 
L 122.88025 206.072103 
L 123.635329 206.094372 
L 124.390408 206.118955 
L 125.145487 206.148012 
L 125.900565 206.183495 
L 126.655644 206.227089 
L 127.410723 206.280175 
L 128.165821 206.34376 
L 128.9209 206.418369 
L 129.675979 206.50394 
L 129.690317 206.505768 
L 130.431057 206.593426 
L 131.186136 206.689089 
L 131.941234 206.787781 
L 132.696313 206.886902 
L 133.451392 206.985046 
L 134.20649 207.082227 
L 134.961569 207.179852 
L 135.716647 207.280579 
L 135.951515 207.313688 
L 136.471726 207.379937 
L 137.226805 207.484072 
L 137.981884 207.599697 
L 138.736963 207.730197 
L 139.492041 207.878903 
L 140.247139 208.048951 
L 140.539436 208.121608 
L 141.002218 208.239474 
L 141.757297 208.44262 
L 142.512376 208.657013 
L 143.267455 208.881947 
L 143.424307 208.929527 
L 144.022552 209.131616 
L 144.777631 209.393297 
L 145.53271 209.669354 
L 145.711592 209.737447 
L 146.287808 209.989149 
L 147.042887 210.349068 
L 147.426943 210.545366 
L 147.797966 210.724283 
L 148.553044 211.089334 
L 149.103471 211.353286 
L 149.308123 211.450646 
L 150.063221 211.799673 
L 150.818319 212.146436 
L 150.850556 212.161206 
L 151.573379 212.612608 
L 152.101039 212.969125 
L 152.328477 213.248427 
L 152.7196 213.777045 
L 152.81739 214.584965 
L 152.492154 215.392884 
L 152.328477 215.534174 
L 151.573379 216.114333 
L 151.449157 216.200804 
L 150.818319 216.436986 
L 150.063221 216.699333 
L 149.308123 216.945448 
L 149.109643 217.008724 
L 148.553044 217.139279 
L 147.797966 217.309067 
L 147.042887 217.470948 
L 146.287808 217.625958 
L 145.53271 217.774663 
L 145.314101 217.816643 
L 144.777631 217.900761 
L 144.022552 218.012336 
L 143.267455 218.115687 
L 142.512376 218.211072 
L 141.757297 218.299308 
L 141.002218 218.381757 
L 140.247139 218.460193 
L 139.492041 218.536561 
L 138.736963 218.612676 
L 138.623343 218.624562 
L 137.981884 218.686762 
L 137.226805 218.761202 
L 136.471726 218.835865 
L 135.716647 218.909425 
L 134.961569 218.98017 
L 134.20649 219.046328 
L 133.451392 219.106372 
L 132.696313 219.159224 
L 131.941234 219.204357 
L 131.186136 219.241783 
L 130.431057 219.271959 
L 129.675979 219.295676 
L 128.9209 219.313924 
L 128.165821 219.327786 
L 127.410723 219.338343 
L 126.655644 219.346604 
L 125.900565 219.353458 
L 125.145487 219.359634 
L 124.390408 219.365679 
L 123.635329 219.371944 
L 122.88025 219.378598 
L 122.125171 219.385639 
L 121.370074 219.39292 
L 120.614995 219.40017 
L 119.859916 219.406999 
L 119.104818 219.412896 
L 118.349739 219.41722 
L 117.59466 219.419193 
L 116.839582 219.417932 
L 116.084503 219.412509 
L 115.329405 219.402061 
L 114.574326 219.385922 
L 113.819247 219.36375 
L 113.064149 219.335618 
L 112.30907 219.30203 
L 111.553992 219.263856 
L 110.798913 219.222195 
L 110.043834 219.17818 
L 109.288736 219.132788 
L 108.533657 219.086687 
L 107.778578 219.040152 
L 107.0235 218.993074 
L 106.268421 218.945047 
L 105.513342 218.895505 
L 104.758263 218.84386 
L 104.003184 218.789619 
L 103.248087 218.732445 
L 102.493008 218.672178 
L 101.921488 218.624562 
L 101.737929 218.609683 
L 100.982831 218.547715 
L 100.227752 218.484081 
L 99.472673 218.418667 
L 98.717595 218.351219 
L 97.962516 218.281384 
L 97.207418 218.208739 
L 96.452339 218.132788 
L 95.69726 218.052925 
L 94.942181 217.968371 
L 94.187103 217.878105 
L 93.703866 217.816643 
L 93.432024 217.775579 
L 92.676945 217.650104 
L 91.921866 217.505404 
L 91.166768 217.337296 
L 90.411689 217.141078 
L 89.961468 217.008724 
L 89.656611 216.886673 
L 88.901513 216.561691 
L 88.146434 216.208249 
L 88.130763 216.200804 
L 87.391355 215.805706 
L 86.636276 215.412789 
L 86.596335 215.392884 
L 85.881197 214.732024 
L 85.719445 214.584965 
z
" clip-path="url(#pcb6a85f874)" style="fill: none; stroke: #d94801; stroke-opacity: 0.333333; stroke-width: 1.5"/>
   </g>
   <g id="PathCollection_7">
    <path d="M 93.405865 215.392884 
L 92.720375 214.584965 
L 93.002035 213.777045 
L 93.432024 213.346138 
L 93.810851 212.969125 
L 94.187103 212.67745 
L 94.93347 212.161206 
L 94.942181 212.15677 
L 95.69726 211.805453 
L 96.452339 211.502558 
L 96.866051 211.353286 
L 97.207418 211.221654 
L 97.962516 210.931197 
L 98.717595 210.632083 
L 98.930682 210.545366 
L 99.472673 210.303206 
L 100.227752 209.971049 
L 100.785281 209.737447 
L 100.982831 209.674626 
L 101.737929 209.453684 
L 102.493008 209.255946 
L 103.248087 209.081247 
L 103.997211 208.929527 
L 104.003184 208.928388 
L 104.758263 208.80079 
L 105.513342 208.688252 
L 106.268421 208.587214 
L 107.0235 208.49391 
L 107.778578 208.40476 
L 108.533657 208.316806 
L 109.288736 208.22816 
L 110.043834 208.138413 
L 110.185043 208.121608 
L 110.798913 208.063203 
L 111.553992 207.994206 
L 112.30907 207.931607 
L 113.064149 207.879237 
L 113.819247 207.840416 
L 114.574326 207.817255 
L 115.329405 207.810333 
L 116.084503 207.818848 
L 116.839582 207.841053 
L 117.59466 207.874805 
L 118.349739 207.918027 
L 119.104818 207.969023 
L 119.859916 208.026614 
L 120.614995 208.090138 
L 120.962224 208.121608 
L 121.370074 208.16092 
L 122.125171 208.235987 
L 122.88025 208.312738 
L 123.635329 208.390592 
L 124.390408 208.468806 
L 125.145487 208.546513 
L 125.900565 208.622869 
L 126.655644 208.697232 
L 127.410723 208.769344 
L 128.165821 208.839445 
L 128.9209 208.908277 
L 129.155939 208.929527 
L 129.675979 208.975353 
L 130.431057 209.043272 
L 131.186136 209.11568 
L 131.941234 209.195828 
L 132.696313 209.28721 
L 133.451392 209.393515 
L 134.20649 209.51843 
L 134.961569 209.665214 
L 135.290965 209.737447 
L 135.716647 209.83976 
L 136.471726 210.0366 
L 137.226805 210.250428 
L 137.981884 210.479374 
L 138.191144 210.545366 
L 138.736963 210.703236 
L 139.492041 210.928848 
L 140.247139 211.167822 
L 140.792499 211.353286 
L 141.002218 211.43334 
L 141.757297 211.747282 
L 142.512376 212.098403 
L 142.638776 212.161206 
L 143.267455 212.679518 
L 143.616404 212.969125 
L 144.022552 213.66362 
L 144.096913 213.777045 
L 144.286706 214.584965 
L 144.022552 215.005958 
L 143.781433 215.392884 
L 143.267455 215.685714 
L 142.512376 216.121141 
L 142.376395 216.200804 
L 141.757297 216.402438 
L 141.002218 216.644849 
L 140.247139 216.878593 
L 139.811692 217.008724 
L 139.492041 217.070536 
L 138.736963 217.212915 
L 137.981884 217.349282 
L 137.226805 217.480416 
L 136.471726 217.607056 
L 135.716647 217.729644 
L 135.163354 217.816643 
L 134.961569 217.842361 
L 134.20649 217.934484 
L 133.451392 218.020172 
L 132.696313 218.098018 
L 131.941234 218.166892 
L 131.186136 218.226152 
L 130.431057 218.275768 
L 129.675979 218.316333 
L 128.9209 218.348957 
L 128.165821 218.375068 
L 127.410723 218.3962 
L 126.655644 218.413791 
L 125.900565 218.429036 
L 125.145487 218.44282 
L 124.390408 218.455699 
L 123.635329 218.467935 
L 122.88025 218.479554 
L 122.125171 218.490416 
L 121.370074 218.500271 
L 120.614995 218.508803 
L 119.859916 218.515642 
L 119.104818 218.520357 
L 118.349739 218.522418 
L 117.59466 218.52118 
L 116.839582 218.515884 
L 116.084503 218.505718 
L 115.329405 218.489933 
L 114.574326 218.467977 
L 113.819247 218.439613 
L 113.064149 218.404979 
L 112.30907 218.364559 
L 111.553992 218.319065 
L 110.798913 218.269292 
L 110.043834 218.215966 
L 109.288736 218.159629 
L 108.533657 218.100595 
L 107.778578 218.038956 
L 107.0235 217.974655 
L 106.268421 217.90757 
L 105.513342 217.837607 
L 105.292963 217.816643 
L 104.758263 217.761954 
L 104.003184 217.683801 
L 103.248087 217.604408 
L 102.493008 217.523418 
L 101.737929 217.440205 
L 100.982831 217.353854 
L 100.227752 217.263194 
L 99.472673 217.166833 
L 98.717595 217.063224 
L 98.345311 217.008724 
L 97.962516 216.934847 
L 97.207418 216.776505 
L 96.452339 216.599858 
L 95.69726 216.401761 
L 95.013164 216.200804 
L 94.942181 216.166616 
L 94.187103 215.794693 
L 93.432024 215.40669 
L 93.405865 215.392884 
z
" clip-path="url(#pcb6a85f874)" style="fill: none; stroke: #d94801; stroke-opacity: 0.555556; stroke-width: 1.5"/>
   </g>
   <g id="PathCollection_8">
    <path d="M 100.115135 215.392884 
L 99.535525 214.584965 
L 99.865227 213.777045 
L 100.227752 213.5543 
L 100.982831 213.152324 
L 101.378069 212.969125 
L 101.737929 212.857096 
L 102.493008 212.629486 
L 103.248087 212.406616 
L 104.003184 212.185111 
L 104.083245 212.161206 
L 104.758263 211.935763 
L 105.513342 211.693175 
L 106.268421 211.470417 
L 106.706592 211.353286 
L 107.0235 211.26306 
L 107.778578 211.075477 
L 108.533657 210.918026 
L 109.288736 210.784177 
L 110.043834 210.668166 
L 110.798913 210.56528 
L 110.958051 210.545366 
L 111.553992 210.470642 
L 112.30907 210.382481 
L 113.064149 210.300572 
L 113.819247 210.22555 
L 114.574326 210.159089 
L 115.329405 210.103665 
L 116.084503 210.062178 
L 116.839582 210.037472 
L 117.59466 210.031839 
L 118.349739 210.046612 
L 119.104818 210.081903 
L 119.859916 210.136506 
L 120.614995 210.207965 
L 121.370074 210.292796 
L 122.125171 210.386813 
L 122.88025 210.48554 
L 123.335901 210.545366 
L 123.635329 210.583657 
L 124.390408 210.678265 
L 125.145487 210.770867 
L 125.900565 210.862446 
L 126.655644 210.954913 
L 127.410723 211.050874 
L 128.165821 211.1533 
L 128.9209 211.265081 
L 129.464485 211.353286 
L 129.675979 211.384536 
L 130.431057 211.508432 
L 131.186136 211.649787 
L 131.941234 211.808642 
L 132.696313 211.983176 
L 133.41503 212.161206 
L 133.451392 212.169544 
L 134.20649 212.356457 
L 134.961569 212.569325 
L 135.716647 212.815226 
L 136.132336 212.969125 
L 136.471726 213.188533 
L 137.190997 213.777045 
L 137.226805 214.05447 
L 137.29021 214.584965 
L 137.226805 214.673633 
L 136.698099 215.392884 
L 136.471726 215.516323 
L 135.716647 215.894645 
L 135.019019 216.200804 
L 134.961569 216.215287 
L 134.20649 216.389635 
L 133.451392 216.544555 
L 132.696313 216.682133 
L 131.941234 216.804469 
L 131.186136 216.913605 
L 130.452712 217.008724 
L 130.431057 217.011017 
L 129.675979 217.085601 
L 128.9209 217.153802 
L 128.165821 217.215741 
L 127.410723 217.271573 
L 126.655644 217.321492 
L 125.900565 217.365719 
L 125.145487 217.404464 
L 124.390408 217.437911 
L 123.635329 217.466196 
L 122.88025 217.489422 
L 122.125171 217.507684 
L 121.370074 217.521111 
L 120.614995 217.529893 
L 119.859916 217.534291 
L 119.104818 217.534612 
L 118.349739 217.531128 
L 117.59466 217.523985 
L 116.839582 217.513102 
L 116.084503 217.498134 
L 115.329405 217.478499 
L 114.574326 217.453502 
L 113.819247 217.422493 
L 113.064149 217.385021 
L 112.30907 217.340935 
L 111.553992 217.290383 
L 110.798913 217.233759 
L 110.043834 217.171604 
L 109.288736 217.10452 
L 108.533657 217.033123 
L 108.28801 217.008724 
L 107.778578 216.945907 
L 107.0235 216.850557 
L 106.268421 216.753297 
L 105.513342 216.653794 
L 104.758263 216.551376 
L 104.003184 216.445049 
L 103.248087 216.333494 
L 102.493008 216.215066 
L 102.40689 216.200804 
L 101.737929 215.991562 
L 100.982831 215.728602 
L 100.227752 215.438627 
L 100.115135 215.392884 
z
" clip-path="url(#pcb6a85f874)" style="fill: none; stroke: #d94801; stroke-opacity: 0.666667; stroke-width: 1.5"/>
   </g>
   <g id="PathCollection_9">
    <path d="M 106.912996 214.584965 
L 107.0235 214.433656 
L 107.489301 213.777045 
L 107.778578 213.665155 
L 108.533657 213.392696 
L 109.288736 213.144978 
L 109.901201 212.969125 
L 110.043834 212.940356 
L 110.798913 212.814571 
L 111.553992 212.713936 
L 112.30907 212.635606 
L 113.064149 212.576811 
L 113.819247 212.535134 
L 114.574326 212.508646 
L 115.329405 212.495872 
L 116.084503 212.49569 
L 116.839582 212.507151 
L 117.59466 212.529314 
L 118.349739 212.561117 
L 119.104818 212.601329 
L 119.859916 212.648577 
L 120.614995 212.701449 
L 121.370074 212.758658 
L 122.125171 212.819237 
L 122.88025 212.882713 
L 123.635329 212.949231 
L 123.844018 212.969125 
L 124.390408 213.046024 
L 125.145487 213.161101 
L 125.900565 213.284565 
L 126.655644 213.417032 
L 127.410723 213.559533 
L 128.165821 213.713708 
L 128.446873 213.777045 
L 128.9209 214.070588 
L 129.586354 214.584965 
L 128.9209 215.071913 
L 128.508627 215.392884 
L 128.165821 215.468556 
L 127.410723 215.625624 
L 126.655644 215.772973 
L 125.900565 215.909567 
L 125.145487 216.033137 
L 124.390408 216.140662 
L 123.874201 216.200804 
L 123.635329 216.215863 
L 122.88025 216.250874 
L 122.125171 216.273605 
L 121.370074 216.284846 
L 120.614995 216.285677 
L 119.859916 216.277453 
L 119.104818 216.261739 
L 118.349739 216.240192 
L 117.59466 216.214388 
L 117.235758 216.200804 
L 116.839582 216.176495 
L 116.084503 216.129317 
L 115.329405 216.08199 
L 114.574326 216.033679 
L 113.819247 215.982779 
L 113.064149 215.927281 
L 112.30907 215.865092 
L 111.553992 215.794251 
L 110.798913 215.713035 
L 110.043834 215.619944 
L 109.288736 215.5136 
L 108.535408 215.392884 
L 108.533657 215.392254 
L 107.778578 215.067281 
L 107.0235 214.655595 
L 106.912996 214.584965 
z
" clip-path="url(#pcb6a85f874)" style="fill: none; stroke: #d94801; stroke-opacity: 0.888889; stroke-width: 1.5"/>
   </g>
   <g id="PathCollection_10"/>
   <g id="patch_3">
    <path d="M 29.25 224.28 
L 29.25 63.504 
" style="fill: none; stroke: #000000; stroke-width: 3; stroke-linejoin: miter; stroke-linecap: square"/>
   </g>
   <g id="patch_4">
    <path d="M 29.25 224.28 
L 179.511429 224.28 
" style="fill: none; stroke: #000000; stroke-width: 3; stroke-linejoin: miter; stroke-linecap: square"/>
   </g>
   <g id="text_1">
    <!-- $\theta^*$ -->
    <g transform="translate(107.697623 201.21401)scale(0.14 -0.14)">
     <defs>
      <path id="DejaVuSerif-Italic-3b8" d="M 2888 2600 
Q 3059 3603 2947 4113 
Q 2822 4678 2359 4678 
Q 1900 4678 1553 4113 
Q 1244 3603 1025 2600 
L 2888 2600 
z
M 2822 2266 
L 959 2266 
Q 791 1269 903 759 
Q 1031 191 1488 191 
Q 1947 191 2294 759 
Q 2603 1269 2822 2266 
z
M 2409 4931 
Q 3138 4931 3444 4248 
Q 3750 3566 3529 2433 
Q 3309 1300 2734 615 
Q 2159 -69 1434 -69 
Q 713 -69 406 615 
Q 100 1300 320 2433 
Q 541 3566 1112 4248 
Q 1684 4931 2409 4931 
z
" transform="scale(0.015625)"/>
      <path id="DejaVuSerif-2a" d="M 3097 3866 
L 1875 3297 
L 3097 2719 
L 2859 2350 
L 1772 3028 
L 1813 1838 
L 1388 1838 
L 1428 3028 
L 341 2350 
L 103 2719 
L 1325 3291 
L 103 3866 
L 341 4238 
L 1428 3559 
L 1388 4750 
L 1813 4750 
L 1772 3559 
L 2859 4238 
L 3097 3866 
z
" transform="scale(0.015625)"/>
     </defs>
     <use xlink:href="#DejaVuSerif-Italic-3b8" transform="translate(0 0.7125)"/>
     <use xlink:href="#DejaVuSerif-2a" transform="translate(81.239167 37.046875)scale(0.7)"/>
    </g>
   </g>
  </g>
 </g>
 <defs>
  <clipPath id="pcb6a85f874">
   <rect x="29.25" y="63.504" width="150.261429" height="160.776"/>
  </clipPath>
 </defs>
</svg>
