<?xml version="1.0" encoding="utf-8" standalone="no"?>
<!DOCTYPE svg PUBLIC "-//W3C//DTD SVG 1.1//EN"
  "http://www.w3.org/Graphics/SVG/1.1/DTD/svg11.dtd">
<svg xmlns:xlink="http://www.w3.org/1999/xlink" width="234pt" height="252pt" viewBox="0 0 234 252" xmlns="http://www.w3.org/2000/svg" version="1.1">
 <metadata>
  <rdf:RDF xmlns:dc="http://purl.org/dc/elements/1.1/" xmlns:cc="http://creativecommons.org/ns#" xmlns:rdf="http://www.w3.org/1999/02/22-rdf-syntax-ns#">
   <cc:Work>
    <dc:type rdf:resource="http://purl.org/dc/dcmitype/StillImage"/>
    <dc:date>2023-01-19T22:49:35.970174</dc:date>
    <dc:format>image/svg+xml</dc:format>
    <dc:creator>
     <cc:Agent>
      <dc:title>Matplotlib v3.5.0, https://matplotlib.org/</dc:title>
     </cc:Agent>
    </dc:creator>
   </cc:Work>
  </rdf:RDF>
 </metadata>
 <defs>
  <style type="text/css">*{stroke-linejoin: round; stroke-linecap: butt}</style>
 </defs>
 <g id="figure_1">
  <g id="patch_1">
   <path d="M 0 252 
L 234 252 
L 234 0 
L 0 0 
L 0 252 
z
" style="fill: none"/>
  </g>
  <g id="axes_1">
   <g id="patch_2">
    <path d="M 29.25 224.28 
L 179.511429 224.28 
L 179.511429 63.504 
L 29.25 63.504 
L 29.25 224.28 
z
" style="fill: none"/>
   </g>
   <g id="PathCollection_1">
    <defs>
     <path id="me642919f60" d="M 0 -3.535534 
L -0.793777 -1.09254 
L -3.362493 -1.09254 
L -1.284358 0.417313 
L -2.078135 2.860307 
L -0 1.350454 
L 2.078135 2.860307 
L 1.284358 0.417313 
L 3.362493 -1.09254 
L 0.793777 -1.09254 
z
" style="stroke: #000000"/>
    </defs>
    <g clip-path="url(#pf1443d7383)">
     <use xlink:href="#me642919f60" x="107.697623" y="206.03729" style="stroke: #000000"/>
    </g>
   </g>
   <g id="PathCollection_2">
    <defs>
     <path id="mbd0c35648a" d="M 0 2.236068 
C 0.593012 2.236068 1.161816 2.000462 1.581139 1.581139 
C 2.000462 1.161816 2.236068 0.593012 2.236068 0 
C 2.236068 -0.593012 2.000462 -1.161816 1.581139 -1.581139 
C 1.161816 -2.000462 0.593012 -2.236068 0 -2.236068 
C -0.593012 -2.236068 -1.161816 -2.000462 -1.581139 -1.581139 
C -2.000462 -1.161816 -2.236068 -0.593012 -2.236068 0 
C -2.236068 0.593012 -2.000462 1.161816 -1.581139 1.581139 
C -1.161816 2.000462 -0.593012 2.236068 0 2.236068 
z
" style="stroke: #08519c"/>
    </defs>
    <g clip-path="url(#pf1443d7383)">
     <use xlink:href="#mbd0c35648a" x="113.478861" y="207.869882" style="fill: #08519c; stroke: #08519c"/>
    </g>
   </g>
   <g id="PathCollection_3">
    <g clip-path="url(#pf1443d7383)">
     <use xlink:href="#mbd0c35648a" x="104.52904" y="210.089967" style="fill: #08519c; stroke: #08519c"/>
    </g>
   </g>
   <g id="matplotlib.axis_1"/>
   <g id="matplotlib.axis_2"/>
   <g id="PathCollection_4">
    <path d="M 29.25 65.119843 
L 30.005079 65.119843 
L 30.760158 65.119843 
L 31.515256 65.119843 
L 32.270334 65.119843 
L 33.025413 65.119843 
L 33.780492 65.119843 
L 34.535571 65.119843 
L 35.290669 65.119843 
L 36.045748 65.119843 
L 36.800826 65.119843 
L 37.555924 65.119843 
L 38.311003 65.119843 
L 39.066082 65.119843 
L 39.821161 65.119843 
L 40.576239 65.119843 
L 41.331318 65.119843 
L 42.086397 65.119843 
L 42.841476 65.119843 
L 43.596574 65.119843 
L 44.351653 65.119843 
L 45.106731 65.119843 
L 45.86181 65.119843 
L 46.616889 65.119843 
L 47.371987 65.119843 
L 48.127066 65.119843 
L 48.882145 65.119843 
L 49.637243 65.119843 
L 50.392321 65.119843 
L 51.1474 65.119843 
L 51.902479 65.119843 
L 52.657558 65.119843 
L 53.412637 65.119843 
L 54.167715 65.119843 
L 54.922794 65.119843 
L 55.677892 65.119843 
L 56.432971 65.119843 
L 57.18805 65.119843 
L 57.943129 65.119843 
L 58.698207 65.119843 
L 59.453305 65.119843 
L 60.208384 65.119843 
L 60.963463 65.119843 
L 61.718561 65.119843 
L 62.47364 65.119843 
L 63.228718 64.311916 
L 63.983797 64.311916 
L 64.738876 64.311916 
L 65.493955 64.311916 
L 66.249034 64.311916 
L 67.004113 64.311916 
L 67.75921 64.311916 
L 68.514289 64.311916 
L 69.269368 64.311916 
L 70.024447 63.504 
L 70.779526 63.504 
L 71.534624 63.504 
L 72.289702 63.504 
L 73.044781 63.504 
L 73.799879 63.504 
L 74.554958 63.504 
L 75.310037 63.504 
L 76.065116 63.504 
L 76.820194 63.504 
L 77.575273 63.504 
L 78.330352 63.504 
" clip-path="url(#pf1443d7383)" style="fill: none"/>
    <path d="M 127.410723 63.504 
L 128.165821 63.504 
L 128.9209 63.504 
L 129.675979 63.504 
L 130.431057 63.504 
L 131.186136 63.504 
L 131.941234 63.504 
L 132.696313 63.504 
L 133.451392 63.504 
L 134.20649 63.504 
L 134.961569 63.504 
L 135.716647 63.504 
L 136.471726 64.311916 
L 137.226805 64.311916 
L 137.981884 64.311916 
L 138.736963 64.311916 
L 139.492041 64.311916 
L 140.247139 64.311916 
L 141.002218 64.311916 
L 141.757297 64.311916 
L 142.512376 64.311916 
L 143.267455 64.311916 
L 144.022552 65.119843 
L 144.777631 65.119843 
L 145.53271 65.119843 
L 146.287808 65.119843 
L 147.042887 65.119843 
L 147.797966 65.119843 
L 148.553044 65.119843 
L 149.308123 65.119843 
L 150.063221 65.927759 
L 150.818319 65.927759 
L 151.573379 65.927759 
L 152.328477 65.927759 
L 153.083536 65.927759 
L 153.838634 65.927759 
L 154.593732 66.735675 
L 155.348792 66.735675 
L 156.103852 66.735675 
L 156.85895 66.735675 
L 157.614009 66.735675 
L 158.369107 66.735675 
L 159.124167 66.735675 
L 159.879265 67.543602 
L 160.634363 67.543602 
L 161.389422 67.543602 
L 162.14452 67.543602 
L 162.899618 67.543602 
L 163.654678 68.351518 
L 164.409776 68.351518 
L 165.164836 68.351518 
L 165.919934 68.351518 
L 166.675031 68.351518 
L 167.430091 69.159434 
L 168.185189 69.159434 
L 168.940287 69.159434 
L 169.695347 69.159434 
L 170.450445 69.159434 
L 171.205504 69.967362 
L 171.960602 69.967362 
L 172.7157 69.967362 
L 173.47076 69.967362 
L 174.225858 69.967362 
L 174.980917 70.775277 
L 175.736015 70.775277 
L 176.491113 70.775277 
L 177.246173 70.775277 
L 178.001271 71.583193 
L 178.756331 71.583193 
L 179.511429 71.583193 
" clip-path="url(#pf1443d7383)" style="fill: none"/>
   </g>
   <g id="PathCollection_5">
    <path d="M 65.440422 210.545366 
L 65.493955 210.232259 
L 65.572759 209.737447 
L 65.802634 208.929527 
L 65.971477 208.121608 
L 66.039742 207.313688 
L 66.120248 206.505768 
L 66.249034 206.120829 
L 66.393425 205.697849 
L 66.994776 204.889929 
L 67.004113 204.881032 
L 67.75921 204.194022 
L 67.8873 204.082009 
L 68.514289 203.542532 
L 68.828878 203.27409 
L 69.269368 202.825757 
L 69.627344 202.46617 
L 70.024447 201.992462 
L 70.322707 201.65825 
L 70.779526 201.151835 
L 71.083622 200.850331 
L 71.534624 200.453214 
L 72.055244 200.042411 
L 72.289702 199.868493 
L 73.044781 199.333639 
L 73.188897 199.234491 
L 73.799879 198.787602 
L 74.296102 198.426572 
L 74.554958 198.226924 
L 75.310037 197.656309 
L 75.361343 197.618654 
L 76.065116 197.125648 
L 76.559006 196.810732 
L 76.820194 196.659002 
L 77.575273 196.262175 
L 78.137713 196.002813 
L 78.330352 195.91818 
L 79.085431 195.616321 
L 79.840529 195.344495 
L 80.27953 195.194895 
L 80.595608 195.084783 
L 81.350686 194.823136 
L 82.105765 194.55234 
L 82.531288 194.386976 
L 82.860844 194.259228 
L 83.615942 193.946962 
L 84.371021 193.619238 
L 84.458368 193.579054 
L 85.1261 193.296809 
L 85.881197 192.987106 
L 86.428305 192.771136 
L 86.636276 192.690401 
L 87.391355 192.406058 
L 88.146434 192.141514 
L 88.684314 191.963217 
L 88.901513 191.880949 
L 89.656611 191.604251 
L 90.411689 191.345056 
L 91.002125 191.155298 
L 91.166768 191.089961 
L 91.921866 190.812648 
L 92.676945 190.570318 
L 93.432024 190.362765 
L 93.496108 190.347376 
L 94.187103 190.159633 
L 94.942181 189.9901 
L 95.69726 189.85016 
L 96.452339 189.733467 
L 97.207418 189.634465 
L 97.962516 189.548384 
L 98.049698 189.539458 
L 98.717595 189.463155 
L 99.472673 189.382461 
L 100.227752 189.30466 
L 100.982831 189.228222 
L 101.737929 189.153044 
L 102.493008 189.080675 
L 103.248087 189.014261 
L 104.003184 188.958111 
L 104.758263 188.916878 
L 105.513342 188.894552 
L 106.268421 188.893578 
L 107.0235 188.914389 
L 107.778578 188.955429 
L 108.533657 189.013608 
L 109.288736 189.084935 
L 110.043834 189.165127 
L 110.798913 189.250022 
L 111.553992 189.335823 
L 112.30907 189.419197 
L 113.064149 189.497397 
L 113.516143 189.539458 
L 113.819247 189.563465 
L 114.574326 189.616925 
L 115.329405 189.667356 
L 116.084503 189.719191 
L 116.839582 189.779844 
L 117.59466 189.859537 
L 118.349739 189.96991 
L 119.104818 190.121315 
L 119.859916 190.319517 
L 119.947373 190.347376 
L 120.614995 190.542162 
L 121.370074 190.807809 
L 122.125171 191.110544 
L 122.229984 191.155298 
L 122.88025 191.398476 
L 123.635329 191.701225 
L 124.266518 191.963217 
L 124.390408 192.007634 
L 125.145487 192.278415 
L 125.900565 192.552814 
L 126.508165 192.771136 
L 126.655644 192.817781 
L 127.410723 193.046804 
L 128.165821 193.27241 
L 128.9209 193.496019 
L 129.204058 193.579054 
L 129.675979 193.706322 
L 130.431057 193.916572 
L 131.186136 194.14159 
L 131.941234 194.386221 
L 131.943414 194.386976 
L 132.696313 194.654606 
L 133.451392 194.951414 
L 134.024167 195.194895 
L 134.20649 195.281961 
L 134.961569 195.667653 
L 135.570472 196.002813 
L 135.716647 196.100342 
L 136.471726 196.649033 
L 136.675802 196.810732 
L 137.226805 197.329392 
L 137.505668 197.618654 
L 137.981884 198.074163 
L 138.325554 198.426572 
L 138.736963 198.744408 
L 139.351466 199.234491 
L 139.492041 199.32074 
L 140.247139 199.780895 
L 140.676734 200.042411 
L 141.002218 200.215189 
L 141.757297 200.614625 
L 142.196898 200.850331 
L 142.512376 201.023804 
L 143.267455 201.451421 
L 143.61736 201.65825 
L 144.022552 201.940557 
L 144.741244 202.46617 
L 144.777631 202.499259 
L 145.53271 203.192803 
L 145.621741 203.27409 
L 146.287808 203.982404 
L 146.386017 204.082009 
L 147.042887 204.817861 
L 147.111001 204.889929 
L 147.797966 205.693008 
L 147.802212 205.697849 
L 148.443242 206.505768 
L 148.553044 206.651983 
L 149.030988 207.313688 
L 149.308123 207.716915 
L 149.576694 208.121608 
L 150.05627 208.929527 
L 150.063221 208.94697 
L 150.387516 209.737447 
L 150.427152 210.545366 
L 150.120158 211.353286 
L 150.063221 211.43644 
L 149.577815 212.161206 
L 149.308123 212.489265 
L 148.918699 212.969125 
L 148.553044 213.348534 
L 148.140139 213.777045 
L 147.797966 214.050147 
L 147.126884 214.584965 
L 147.042887 214.635628 
L 146.287808 215.100927 
L 145.808237 215.392884 
L 145.53271 215.526511 
L 144.777631 215.887798 
L 144.082731 216.200804 
L 144.022552 216.223287 
L 143.267455 216.495068 
L 142.512376 216.740955 
L 141.757297 216.960643 
L 141.578092 217.008724 
L 141.002218 217.145729 
L 140.247139 217.309421 
L 139.492041 217.458067 
L 138.736963 217.594501 
L 137.981884 217.721294 
L 137.382297 217.816643 
L 137.226805 217.840698 
L 136.471726 217.955581 
L 135.716647 218.066276 
L 134.961569 218.172715 
L 134.20649 218.274332 
L 133.451392 218.370318 
L 132.696313 218.45987 
L 131.941234 218.542413 
L 131.186136 218.617724 
L 131.112741 218.624562 
L 130.431057 218.691832 
L 129.675979 218.760069 
L 128.9209 218.822539 
L 128.165821 218.880255 
L 127.410723 218.934426 
L 126.655644 218.986334 
L 125.900565 219.037218 
L 125.145487 219.088131 
L 124.390408 219.139842 
L 123.635329 219.192751 
L 122.88025 219.246852 
L 122.125171 219.301739 
L 121.370074 219.356663 
L 120.614995 219.410625 
L 120.3015 219.432482 
L 119.859916 219.468073 
L 119.104818 219.525768 
L 118.349739 219.578657 
L 117.59466 219.626057 
L 116.839582 219.66761 
L 116.084503 219.703285 
L 115.329405 219.733348 
L 114.574326 219.758298 
L 113.819247 219.778798 
L 113.064149 219.79558 
L 112.30907 219.809354 
L 111.553992 219.820719 
L 110.798913 219.83009 
L 110.043834 219.837659 
L 109.288736 219.843396 
L 108.533657 219.847092 
L 107.778578 219.848433 
L 107.0235 219.847091 
L 106.268421 219.842806 
L 105.513342 219.835452 
L 104.758263 219.825067 
L 104.003184 219.81186 
L 103.248087 219.796181 
L 102.493008 219.77849 
L 101.737929 219.759304 
L 100.982831 219.739143 
L 100.227752 219.718468 
L 99.472673 219.69761 
L 98.717595 219.676698 
L 97.962516 219.655594 
L 97.207418 219.633849 
L 96.452339 219.610697 
L 95.69726 219.585085 
L 94.942181 219.555758 
L 94.187103 219.521364 
L 93.432024 219.480585 
L 92.680358 219.432482 
L 92.676945 219.432295 
L 91.921866 219.384526 
L 91.166768 219.329059 
L 90.411689 219.265981 
L 89.656611 219.195849 
L 88.901513 219.119663 
L 88.146434 219.038746 
L 87.391355 218.954539 
L 86.636276 218.868338 
L 85.881197 218.781015 
L 85.1261 218.692793 
L 84.546639 218.624562 
L 84.371021 218.605412 
L 83.615942 218.523277 
L 82.860844 218.437898 
L 82.105765 218.347581 
L 81.350686 218.250759 
L 80.595608 218.146148 
L 79.840529 218.032737 
L 79.085431 217.909657 
L 78.554006 217.816643 
L 78.330352 217.779193 
L 77.575273 217.645167 
L 76.820194 217.49828 
L 76.065116 217.335986 
L 75.310037 217.155343 
L 74.753941 217.008724 
L 74.554958 216.955891 
L 73.799879 216.740048 
L 73.044781 216.498805 
L 72.289702 216.23132 
L 72.205958 216.200804 
L 71.534624 215.938461 
L 70.779526 215.621601 
L 70.25691 215.392884 
L 70.024447 215.274356 
L 69.269368 214.886922 
L 68.702428 214.584965 
L 68.514289 214.458054 
L 67.75921 213.947064 
L 67.513105 213.777045 
L 67.004113 213.316688 
L 66.629342 212.969125 
L 66.249034 212.500308 
L 65.976744 212.161206 
L 65.56469 211.353286 
L 65.493955 210.887804 
L 65.440422 210.545366 
z
" clip-path="url(#pf1443d7383)" style="fill: none; stroke: #08519c; stroke-opacity: 0.111111; stroke-width: 1.5"/>
   </g>
   <g id="PathCollection_6">
    <path d="M 74.977021 212.161206 
L 74.723652 211.353286 
L 74.657638 210.545366 
L 74.723152 209.737447 
L 74.89259 208.929527 
L 75.179618 208.121608 
L 75.310037 207.877949 
L 75.626843 207.313688 
L 76.065116 206.761977 
L 76.287556 206.505768 
L 76.820194 205.973557 
L 77.125182 205.697849 
L 77.575273 205.277837 
L 78.031444 204.889929 
L 78.330352 204.623076 
L 78.992141 204.082009 
L 79.085431 204.011257 
L 79.840529 203.471673 
L 80.139111 203.27409 
L 80.595608 203.001304 
L 81.350686 202.570557 
L 81.540655 202.46617 
L 82.105765 202.171913 
L 82.860844 201.7932 
L 83.138775 201.65825 
L 83.615942 201.438359 
L 84.371021 201.104034 
L 84.970907 200.850331 
L 85.1261 200.788704 
L 85.881197 200.489322 
L 86.636276 200.196451 
L 87.032699 200.042411 
L 87.391355 199.90323 
L 88.146434 199.602755 
L 88.901513 199.300694 
L 89.065589 199.234491 
L 89.656611 198.971068 
L 90.411689 198.634786 
L 90.890501 198.426572 
L 91.166768 198.284007 
L 91.921866 197.909025 
L 92.547808 197.618654 
L 92.676945 197.547747 
L 93.432024 197.172003 
L 94.187103 196.845651 
L 94.281342 196.810732 
L 94.942181 196.553888 
L 95.69726 196.319821 
L 96.452339 196.142582 
L 97.207418 196.016786 
L 97.332274 196.002813 
L 97.962516 195.93318 
L 98.717595 195.884074 
L 99.472673 195.862866 
L 100.227752 195.862833 
L 100.982831 195.877546 
L 101.737929 195.901074 
L 102.493008 195.928148 
L 103.248087 195.954331 
L 104.003184 195.976173 
L 104.758263 195.991354 
L 105.513342 195.998802 
L 106.268421 195.998734 
L 107.0235 195.992601 
L 107.778578 195.982913 
L 108.533657 195.972904 
L 109.288736 195.966095 
L 110.043834 195.965831 
L 110.798913 195.974907 
L 111.553992 195.995366 
L 111.724546 196.002813 
L 112.30907 196.026406 
L 113.064149 196.069575 
L 113.819247 196.125698 
L 114.574326 196.194544 
L 115.329405 196.275693 
L 116.084503 196.368652 
L 116.839582 196.472923 
L 117.59466 196.588072 
L 118.349739 196.713828 
L 118.885282 196.810732 
L 119.104818 196.847065 
L 119.859916 196.982484 
L 120.614995 197.129144 
L 121.370074 197.289289 
L 122.125171 197.466019 
L 122.709193 197.618654 
L 122.88025 197.663043 
L 123.635329 197.885112 
L 124.390408 198.139362 
L 125.132081 198.426572 
L 125.145487 198.432318 
L 125.900565 198.789108 
L 126.655644 199.187454 
L 126.739236 199.234491 
L 127.410723 199.637007 
L 128.066181 200.042411 
L 128.165821 200.104319 
L 128.9209 200.572855 
L 129.368227 200.850331 
L 129.675979 201.045051 
L 130.431057 201.528319 
L 130.632588 201.65825 
L 131.186136 202.050452 
L 131.763409 202.46617 
L 131.941234 202.607524 
L 132.696313 203.198251 
L 132.79631 203.27409 
L 133.451392 203.789388 
L 133.841753 204.082009 
L 134.20649 204.364239 
L 134.920301 204.889929 
L 134.961569 204.922256 
L 135.716647 205.491338 
L 135.994247 205.697849 
L 136.471726 206.073051 
L 137.012762 206.505768 
L 137.226805 206.683835 
L 137.941316 207.313688 
L 137.981884 207.353147 
L 138.709706 208.121608 
L 138.736963 208.158818 
L 139.26493 208.929527 
L 139.492041 209.480458 
L 139.594907 209.737447 
L 139.701986 210.545366 
L 139.592507 211.353286 
L 139.492041 211.592665 
L 139.262007 212.161206 
L 138.736963 212.881301 
L 138.674139 212.969125 
L 137.981884 213.56605 
L 137.729798 213.777045 
L 137.226805 214.062193 
L 136.471726 214.459582 
L 136.220547 214.584965 
L 135.716647 214.777028 
L 134.961569 215.045215 
L 134.20649 215.292235 
L 133.880786 215.392884 
L 133.451392 215.508289 
L 132.696313 215.698031 
L 131.941234 215.871917 
L 131.186136 216.031084 
L 130.431057 216.176786 
L 130.297768 216.200804 
L 129.675979 216.307233 
L 128.9209 216.425926 
L 128.165821 216.535486 
L 127.410723 216.638049 
L 126.655644 216.735778 
L 125.900565 216.830789 
L 125.145487 216.92502 
L 124.481556 217.008724 
L 124.390408 217.019731 
L 123.635329 217.11308 
L 122.88025 217.207815 
L 122.125171 217.303885 
L 121.370074 217.400537 
L 120.614995 217.496367 
L 119.859916 217.589504 
L 119.104818 217.677849 
L 118.349739 217.759351 
L 117.760204 217.816643 
L 117.59466 217.832262 
L 116.839582 217.895778 
L 116.084503 217.949905 
L 115.329405 217.994748 
L 114.574326 218.030865 
L 113.819247 218.059172 
L 113.064149 218.080812 
L 112.30907 218.097027 
L 111.553992 218.109029 
L 110.798913 218.117899 
L 110.043834 218.124509 
L 109.288736 218.12947 
L 108.533657 218.133122 
L 107.778578 218.135554 
L 107.0235 218.136652 
L 106.268421 218.136154 
L 105.513342 218.133722 
L 104.758263 218.128997 
L 104.003184 218.121651 
L 103.248087 218.111425 
L 102.493008 218.098147 
L 101.737929 218.081734 
L 100.982831 218.062173 
L 100.227752 218.039477 
L 99.472673 218.01362 
L 98.717595 217.984457 
L 97.962516 217.951654 
L 97.207418 217.914624 
L 96.452339 217.872516 
L 95.69726 217.824223 
L 95.592564 217.816643 
L 94.942181 217.771362 
L 94.187103 217.7101 
L 93.432024 217.638421 
L 92.676945 217.555053 
L 91.921866 217.459252 
L 91.166768 217.351057 
L 90.411689 217.231479 
L 89.656611 217.10249 
L 89.129574 217.008724 
L 88.901513 216.966945 
L 88.146434 216.828424 
L 87.391355 216.689639 
L 86.636276 216.552469 
L 85.881197 216.417423 
L 85.1261 216.283672 
L 84.656328 216.200804 
L 84.371021 216.148587 
L 83.615942 216.008913 
L 82.860844 215.863272 
L 82.105765 215.709473 
L 81.350686 215.545696 
L 80.690398 215.392884 
L 80.595608 215.367977 
L 79.840529 215.15889 
L 79.085431 214.931726 
L 78.330352 214.683595 
L 78.051061 214.584965 
L 77.575273 214.36611 
L 76.820194 213.985311 
L 76.440916 213.777045 
L 76.065116 213.467219 
L 75.500931 212.969125 
L 75.310037 212.679787 
L 74.977021 212.161206 
z
" clip-path="url(#pf1443d7383)" style="fill: none; stroke: #08519c; stroke-opacity: 0.333333; stroke-width: 1.5"/>
   </g>
   <g id="PathCollection_7">
    <path d="M 82.058062 211.353286 
L 81.727936 210.545366 
L 81.596628 209.737447 
L 81.727757 208.929527 
L 82.105765 208.337699 
L 82.254418 208.121608 
L 82.860844 207.633116 
L 83.279203 207.313688 
L 83.615942 207.113159 
L 84.371021 206.667293 
L 84.639262 206.505768 
L 85.1261 206.222217 
L 85.881197 205.761261 
L 85.980297 205.697849 
L 86.636276 205.273269 
L 87.210493 204.889929 
L 87.391355 204.774532 
L 88.146434 204.294473 
L 88.483533 204.082009 
L 88.901513 203.841762 
L 89.656611 203.419897 
L 89.923842 203.27409 
L 90.411689 203.026037 
L 91.166768 202.65809 
L 91.57849 202.46617 
L 91.921866 202.314941 
L 92.676945 202.00419 
L 93.432024 201.722151 
L 93.619388 201.65825 
L 94.187103 201.474146 
L 94.942181 201.259597 
L 95.69726 201.07521 
L 96.452339 200.917795 
L 96.828975 200.850331 
L 97.207418 200.780013 
L 97.962516 200.658987 
L 98.717595 200.554266 
L 99.472673 200.461902 
L 100.227752 200.378272 
L 100.982831 200.300275 
L 101.737929 200.225597 
L 102.493008 200.153019 
L 103.248087 200.08265 
L 103.705437 200.042411 
L 104.003184 200.013577 
L 104.758263 199.949066 
L 105.513342 199.896648 
L 106.268421 199.859448 
L 107.0235 199.839885 
L 107.778578 199.839322 
L 108.533657 199.85796 
L 109.288736 199.894935 
L 110.043834 199.9486 
L 110.798913 200.016915 
L 111.038529 200.042411 
L 111.553992 200.097732 
L 112.30907 200.190358 
L 113.064149 200.294805 
L 113.819247 200.41194 
L 114.574326 200.543425 
L 115.329405 200.691316 
L 116.05292 200.850331 
L 116.084503 200.85792 
L 116.839582 201.05287 
L 117.59466 201.267626 
L 118.349739 201.500731 
L 118.832762 201.65825 
L 119.104818 201.74383 
L 119.859916 201.985856 
L 120.614995 202.237284 
L 121.271815 202.46617 
L 121.370074 202.496908 
L 122.125171 202.747705 
L 122.88025 203.027048 
L 123.474595 203.27409 
L 123.635329 203.341938 
L 124.390408 203.706443 
L 125.05015 204.082009 
L 125.145487 204.143666 
L 125.900565 204.693611 
L 126.142762 204.889929 
L 126.655644 205.358395 
L 127.005434 205.697849 
L 127.410723 206.105338 
L 127.798191 206.505768 
L 128.165821 206.86876 
L 128.610232 207.313688 
L 128.9209 207.603188 
L 129.474929 208.121608 
L 129.675979 208.307838 
L 130.348419 208.929527 
L 130.431057 209.01963 
L 131.087661 209.737447 
L 131.186136 209.914837 
L 131.534207 210.545366 
L 131.625716 211.353286 
L 131.338711 212.161206 
L 131.186136 212.32861 
L 130.544659 212.969125 
L 130.431057 213.033585 
L 129.675979 213.425499 
L 128.9209 213.763578 
L 128.887735 213.777045 
L 128.165821 213.988228 
L 127.410723 214.186291 
L 126.655644 214.364952 
L 125.900565 214.528539 
L 125.627521 214.584965 
L 125.145487 214.671521 
L 124.390408 214.805505 
L 123.635329 214.939768 
L 122.88025 215.076604 
L 122.125171 215.217636 
L 121.370074 215.363665 
L 121.225336 215.392884 
L 120.614995 215.50888 
L 119.859916 215.655093 
L 119.104818 215.800894 
L 118.349739 215.943079 
L 117.59466 216.078292 
L 116.855465 216.200804 
L 116.839582 216.203181 
L 116.084503 216.306595 
L 115.329405 216.395763 
L 114.574326 216.47025 
L 113.819247 216.530474 
L 113.064149 216.577531 
L 112.30907 216.61298 
L 111.553992 216.63864 
L 110.798913 216.656407 
L 110.043834 216.668103 
L 109.288736 216.675377 
L 108.533657 216.679626 
L 107.778578 216.681952 
L 107.0235 216.683126 
L 106.268421 216.683565 
L 105.513342 216.683335 
L 104.758263 216.682163 
L 104.003184 216.679496 
L 103.248087 216.674583 
L 102.493008 216.666572 
L 101.737929 216.654597 
L 100.982831 216.637827 
L 100.227752 216.615468 
L 99.472673 216.586708 
L 98.717595 216.550635 
L 97.962516 216.506153 
L 97.207418 216.45192 
L 96.452339 216.386344 
L 95.69726 216.307639 
L 94.942181 216.213963 
L 94.849555 216.200804 
L 94.187103 216.098938 
L 93.432024 215.965893 
L 92.676945 215.815421 
L 91.921866 215.648544 
L 91.166768 215.467609 
L 90.865997 215.392884 
L 90.411689 215.267631 
L 89.656611 215.057545 
L 88.901513 214.846876 
L 88.146434 214.638022 
L 87.948535 214.584965 
L 87.391355 214.406686 
L 86.636276 214.167846 
L 85.881197 213.926499 
L 85.421004 213.777045 
L 85.1261 213.646633 
L 84.371021 213.302787 
L 83.683382 212.969125 
L 83.615942 212.918954 
L 82.860844 212.333566 
L 82.651068 212.161206 
L 82.105765 211.420925 
L 82.058062 211.353286 
z
" clip-path="url(#pf1443d7383)" style="fill: none; stroke: #08519c; stroke-opacity: 0.555556; stroke-width: 1.5"/>
   </g>
   <g id="PathCollection_8">
    <path d="M 90.233884 212.161206 
L 89.821291 211.353286 
L 89.792811 210.545366 
L 90.010218 209.737447 
L 90.411689 208.958038 
L 90.426433 208.929527 
L 91.048628 208.121608 
L 91.166768 208.006399 
L 91.881465 207.313688 
L 91.921866 207.280167 
L 92.676945 206.66574 
L 92.883733 206.505768 
L 93.432024 206.119742 
L 94.0878 205.697849 
L 94.187103 205.639659 
L 94.942181 205.235723 
L 95.69726 204.890219 
L 95.698007 204.889929 
L 96.452339 204.613014 
L 97.207418 204.383254 
L 97.962516 204.20026 
L 98.59585 204.082009 
L 98.717595 204.060163 
L 99.472673 203.954621 
L 100.227752 203.871466 
L 100.982831 203.803098 
L 101.737929 203.742397 
L 102.493008 203.684111 
L 103.248087 203.626019 
L 104.003184 203.569478 
L 104.758263 203.519047 
L 105.513342 203.48116 
L 106.268421 203.462376 
L 107.0235 203.467817 
L 107.778578 203.500339 
L 108.533657 203.560487 
L 109.288736 203.646996 
L 110.043834 203.757455 
L 110.798913 203.888836 
L 111.553992 204.03782 
L 111.757962 204.082009 
L 112.30907 204.197696 
L 113.064149 204.36723 
L 113.819247 204.544417 
L 114.574326 204.726259 
L 115.243404 204.889929 
L 115.329405 204.91175 
L 116.084503 205.110757 
L 116.839582 205.31998 
L 117.59466 205.5431 
L 118.076974 205.697849 
L 118.349739 205.805038 
L 119.104818 206.138245 
L 119.832191 206.505768 
L 119.859916 206.524118 
L 120.614995 207.074943 
L 120.916492 207.313688 
L 121.370074 207.73102 
L 121.784688 208.121608 
L 122.125171 208.452082 
L 122.619709 208.929527 
L 122.88025 209.211427 
L 123.368389 209.737447 
L 123.635329 210.220731 
L 123.813966 210.545366 
L 123.720021 211.353286 
L 123.635329 211.436339 
L 122.88025 212.14363 
L 122.860944 212.161206 
L 122.125171 212.495078 
L 121.370074 212.827841 
L 121.046943 212.969125 
L 120.614995 213.100341 
L 119.859916 213.330732 
L 119.104818 213.56148 
L 118.399634 213.777045 
L 118.349739 213.789724 
L 117.59466 213.979755 
L 116.839582 214.165339 
L 116.084503 214.343942 
L 115.329405 214.512805 
L 114.978831 214.584965 
L 114.574326 214.65476 
L 113.819247 214.768034 
L 113.064149 214.863008 
L 112.30907 214.939954 
L 111.553992 215.000038 
L 110.798913 215.045127 
L 110.043834 215.077547 
L 109.288736 215.099827 
L 108.533657 215.114452 
L 107.778578 215.123667 
L 107.0235 215.129324 
L 106.268421 215.132775 
L 105.513342 215.134817 
L 104.758263 215.135672 
L 104.003184 215.135015 
L 103.248087 215.132037 
L 102.493008 215.125532 
L 101.737929 215.114002 
L 100.982831 215.095736 
L 100.227752 215.068881 
L 99.472673 215.031459 
L 98.717595 214.981377 
L 97.962516 214.916437 
L 97.207418 214.834376 
L 96.452339 214.732983 
L 95.69726 214.610255 
L 95.564897 214.584965 
L 94.942181 214.432716 
L 94.187103 214.223339 
L 93.432024 213.990696 
L 92.794649 213.777045 
L 92.676945 213.721455 
L 91.921866 213.347636 
L 91.178274 212.969125 
L 91.166768 212.959212 
L 90.411689 212.310574 
L 90.233884 212.161206 
z
" clip-path="url(#pf1443d7383)" style="fill: none; stroke: #08519c; stroke-opacity: 0.666667; stroke-width: 1.5"/>
   </g>
   <g id="PathCollection_9">
    <path d="M 97.384429 210.545366 
L 97.370389 209.737447 
L 97.847482 208.929527 
L 97.962516 208.83637 
L 98.717595 208.296129 
L 99.002962 208.121608 
L 99.472673 207.941921 
L 100.227752 207.714679 
L 100.982831 207.542923 
L 101.737929 207.4151 
L 102.493008 207.320324 
L 102.562588 207.313688 
L 103.248087 207.260878 
L 104.003184 207.2164 
L 104.758263 207.182903 
L 105.513342 207.16022 
L 106.268421 207.150614 
L 107.0235 207.158275 
L 107.778578 207.188567 
L 108.533657 207.247161 
L 109.082258 207.313688 
L 109.288736 207.343471 
L 110.043834 207.492616 
L 110.798913 207.684467 
L 111.553992 207.91956 
L 112.105345 208.121608 
L 112.30907 208.219124 
L 113.064149 208.610768 
L 113.63628 208.929527 
L 113.819247 209.086869 
L 114.574326 209.727692 
L 114.58572 209.737447 
L 114.89616 210.545366 
L 114.574326 210.974436 
L 114.189734 211.353286 
L 113.819247 211.498838 
L 113.064149 211.73337 
L 112.30907 211.909398 
L 111.553992 212.039122 
L 110.798913 212.134583 
L 110.522714 212.161206 
L 110.043834 212.200436 
L 109.288736 212.251034 
L 108.533657 212.293621 
L 107.778578 212.329832 
L 107.0235 212.359762 
L 106.268421 212.382287 
L 105.513342 212.395595 
L 104.758263 212.397728 
L 104.003184 212.386964 
L 103.248087 212.361965 
L 102.493008 212.321631 
L 101.737929 212.264708 
L 100.982831 212.189184 
L 100.76144 212.161206 
L 100.227752 212.07153 
L 99.472673 211.898437 
L 98.717595 211.653556 
L 98.061799 211.353286 
L 97.962516 211.268193 
L 97.384429 210.545366 
z
" clip-path="url(#pf1443d7383)" style="fill: none; stroke: #08519c; stroke-opacity: 0.888889; stroke-width: 1.5"/>
   </g>
   <g id="PathCollection_10"/>
   <g id="patch_3">
    <path d="M 29.25 224.28 
L 29.25 63.504 
" style="fill: none; stroke: #000000; stroke-width: 3; stroke-linejoin: miter; stroke-linecap: square"/>
   </g>
   <g id="patch_4">
    <path d="M 29.25 224.28 
L 179.511429 224.28 
" style="fill: none; stroke: #000000; stroke-width: 3; stroke-linejoin: miter; stroke-linecap: square"/>
   </g>
   <g id="text_1">
    <!-- $\theta^*$ -->
    <g transform="translate(107.697623 201.21401)scale(0.14 -0.14)">
     <defs>
      <path id="DejaVuSerif-Italic-3b8" d="M 2888 2600 
Q 3059 3603 2947 4113 
Q 2822 4678 2359 4678 
Q 1900 4678 1553 4113 
Q 1244 3603 1025 2600 
L 2888 2600 
z
M 2822 2266 
L 959 2266 
Q 791 1269 903 759 
Q 1031 191 1488 191 
Q 1947 191 2294 759 
Q 2603 1269 2822 2266 
z
M 2409 4931 
Q 3138 4931 3444 4248 
Q 3750 3566 3529 2433 
Q 3309 1300 2734 615 
Q 2159 -69 1434 -69 
Q 713 -69 406 615 
Q 100 1300 320 2433 
Q 541 3566 1112 4248 
Q 1684 4931 2409 4931 
z
" transform="scale(0.015625)"/>
      <path id="DejaVuSerif-2a" d="M 3097 3866 
L 1875 3297 
L 3097 2719 
L 2859 2350 
L 1772 3028 
L 1813 1838 
L 1388 1838 
L 1428 3028 
L 341 2350 
L 103 2719 
L 1325 3291 
L 103 3866 
L 341 4238 
L 1428 3559 
L 1388 4750 
L 1813 4750 
L 1772 3559 
L 2859 4238 
L 3097 3866 
z
" transform="scale(0.015625)"/>
     </defs>
     <use xlink:href="#DejaVuSerif-Italic-3b8" transform="translate(0 0.7125)"/>
     <use xlink:href="#DejaVuSerif-2a" transform="translate(81.239167 37.046875)scale(0.7)"/>
    </g>
   </g>
  </g>
 </g>
 <defs>
  <clipPath id="pf1443d7383">
   <rect x="29.25" y="63.504" width="150.261429" height="160.776"/>
  </clipPath>
 </defs>
</svg>
