<?xml version="1.0" encoding="utf-8" standalone="no"?>
<!DOCTYPE svg PUBLIC "-//W3C//DTD SVG 1.1//EN"
  "http://www.w3.org/Graphics/SVG/1.1/DTD/svg11.dtd">
<svg xmlns:xlink="http://www.w3.org/1999/xlink" width="234pt" height="252pt" viewBox="0 0 234 252" xmlns="http://www.w3.org/2000/svg" version="1.1">
 <metadata>
  <rdf:RDF xmlns:dc="http://purl.org/dc/elements/1.1/" xmlns:cc="http://creativecommons.org/ns#" xmlns:rdf="http://www.w3.org/1999/02/22-rdf-syntax-ns#">
   <cc:Work>
    <dc:type rdf:resource="http://purl.org/dc/dcmitype/StillImage"/>
    <dc:date>2023-05-19T12:04:04.572975</dc:date>
    <dc:format>image/svg+xml</dc:format>
    <dc:creator>
     <cc:Agent>
      <dc:title>Matplotlib v3.5.0, https://matplotlib.org/</dc:title>
     </cc:Agent>
    </dc:creator>
   </cc:Work>
  </rdf:RDF>
 </metadata>
 <defs>
  <style type="text/css">*{stroke-linejoin: round; stroke-linecap: butt}</style>
 </defs>
 <g id="figure_1">
  <g id="patch_1">
   <path d="M 0 252 
L 234 252 
L 234 0 
L 0 0 
L 0 252 
z
" style="fill: none"/>
  </g>
  <g id="axes_1">
   <g id="patch_2">
    <path d="M 29.25 224.28 
L 179.511429 224.28 
L 179.511429 63.504 
L 29.25 63.504 
L 29.25 224.28 
z
" style="fill: none"/>
   </g>
   <g id="PathCollection_1">
    <defs>
     <path id="mdc6cb9df2b" d="M 0 -3.535534 
L -0.793777 -1.09254 
L -3.362493 -1.09254 
L -1.284358 0.417313 
L -2.078135 2.860307 
L -0 1.350454 
L 2.078135 2.860307 
L 1.284358 0.417313 
L 3.362493 -1.09254 
L 0.793777 -1.09254 
z
" style="stroke: #000000"/>
    </defs>
    <g clip-path="url(#p7b727370f9)">
     <use xlink:href="#mdc6cb9df2b" x="107.697623" y="206.03729" style="stroke: #000000"/>
    </g>
   </g>
   <g id="PathCollection_2">
    <defs>
     <path id="ma3e3ce60f6" d="M 0 2.236068 
C 0.593012 2.236068 1.161816 2.000462 1.581139 1.581139 
C 2.000462 1.161816 2.236068 0.593012 2.236068 0 
C 2.236068 -0.593012 2.000462 -1.161816 1.581139 -1.581139 
C 1.161816 -2.000462 0.593012 -2.236068 0 -2.236068 
C -0.593012 -2.236068 -1.161816 -2.000462 -1.581139 -1.581139 
C -2.000462 -1.161816 -2.236068 -0.593012 -2.236068 0 
C -2.236068 0.593012 -2.000462 1.161816 -1.581139 1.581139 
C -1.161816 2.000462 -0.593012 2.236068 0 2.236068 
z
" style="stroke: #d94801"/>
    </defs>
    <g clip-path="url(#p7b727370f9)">
     <use xlink:href="#ma3e3ce60f6" x="120.35564" y="207.044079" style="fill: #d94801; stroke: #d94801"/>
    </g>
   </g>
   <g id="PathCollection_3">
    <g clip-path="url(#p7b727370f9)">
     <use xlink:href="#ma3e3ce60f6" x="153.846621" y="205.851409" style="fill: #d94801; stroke: #d94801"/>
    </g>
   </g>
   <g id="matplotlib.axis_1"/>
   <g id="matplotlib.axis_2"/>
   <g id="PathCollection_4"/>
   <g id="PathCollection_5">
    <path d="M 108.246979 210.852376 
L 108.1729 210.721492 
L 108.120073 210.59061 
L 108.08811 210.459726 
L 108.076586 210.328844 
L 108.084895 210.197962 
L 108.112151 210.067079 
L 108.157185 209.936196 
L 108.218603 209.805313 
L 108.292053 209.679298 
L 108.294839 209.67443 
L 108.381843 209.543547 
L 108.481565 209.412663 
L 108.593584 209.281781 
L 108.717886 209.150897 
L 108.810533 209.061972 
L 108.85338 209.020015 
L 108.999019 208.889131 
L 109.157963 208.758249 
L 109.329032 208.627768 
L 109.329544 208.627365 
L 109.505713 208.496483 
L 109.689822 208.365599 
L 109.847512 208.255945 
L 109.876495 208.234717 
L 110.05498 208.103833 
L 110.227561 207.972951 
L 110.366012 207.861642 
L 110.388664 207.842067 
L 110.52916 207.711185 
L 110.654591 207.580301 
L 110.764129 207.449419 
L 110.857942 207.318535 
L 110.884492 207.274867 
L 110.934167 207.187653 
L 110.99671 207.05677 
L 111.049021 206.925888 
L 111.093442 206.795004 
L 111.132622 206.664122 
L 111.169478 206.533238 
L 111.207166 206.402356 
L 111.249023 206.271472 
L 111.298501 206.14059 
L 111.359083 206.009706 
L 111.402991 205.932349 
L 111.433603 205.878824 
L 111.525077 205.74794 
L 111.637504 205.617058 
L 111.773591 205.486174 
L 111.921471 205.366308 
L 111.935512 205.355292 
L 112.124464 205.224408 
L 112.341696 205.093526 
L 112.439971 205.039912 
L 112.586408 204.962642 
L 112.856231 204.83176 
L 112.958451 204.785023 
L 113.146173 204.700876 
L 113.451112 204.569994 
L 113.47695 204.559088 
L 113.761259 204.43911 
L 113.99543 204.341167 
L 114.073263 204.308228 
L 114.379721 204.177344 
L 114.51393 204.119403 
L 114.679533 204.046461 
L 114.973931 203.915581 
L 115.03241 203.889383 
L 115.262295 203.784698 
L 115.550909 203.654721 
L 115.552904 203.653815 
L 115.845614 203.522932 
L 116.069389 203.426736 
L 116.150582 203.392049 
L 116.471268 203.261166 
L 116.587889 203.216065 
L 116.814187 203.130283 
L 117.106369 203.026468 
L 117.184528 202.9994 
L 117.585714 202.868516 
L 117.624868 202.856407 
L 118.01903 202.737634 
L 118.143348 202.702068 
L 118.48302 202.60675 
L 118.661848 202.558713 
L 118.972795 202.475868 
L 119.180328 202.422586 
L 119.481092 202.344984 
L 119.698827 202.290637 
L 120.000187 202.214102 
L 120.217307 202.160699 
L 120.524007 202.083218 
L 120.735807 202.031424 
L 121.04897 201.952336 
L 121.254287 201.902154 
L 121.573459 201.821452 
L 121.772786 201.772586 
L 122.096504 201.69057 
L 122.291266 201.642489 
L 122.616755 201.559686 
L 122.809766 201.511458 
L 123.132112 201.428804 
L 123.328246 201.378909 
L 123.640212 201.29792 
L 123.846745 201.244172 
L 124.139263 201.167038 
L 124.365225 201.106776 
L 124.628932 201.036154 
L 124.883724 200.966729 
L 125.110754 200.905272 
L 125.402224 200.8248 
L 125.588185 200.774388 
L 125.920723 200.682524 
L 126.066246 200.643506 
L 126.439203 200.541905 
L 126.551067 200.512622 
L 126.957703 200.404864 
L 127.049173 200.38174 
L 127.476183 200.272805 
L 127.566729 200.250856 
L 127.994682 200.146413 
L 128.108819 200.119974 
L 128.513162 200.025845 
L 128.679457 199.98909 
L 129.031662 199.911005 
L 129.2825 199.858208 
L 129.550142 199.801836 
L 129.923437 199.727324 
L 130.068641 199.698403 
L 130.587121 199.600842 
L 130.6118 199.596441 
L 131.105621 199.508928 
L 131.367238 199.465558 
L 131.624101 199.423278 
L 132.1426 199.343846 
L 132.206814 199.334675 
L 132.66108 199.270116 
L 133.170453 199.203792 
L 133.179579 199.202605 
L 133.69806 199.140511 
L 134.216559 199.084483 
L 134.336121 199.072909 
L 134.735039 199.033964 
L 135.253538 198.989262 
L 135.772019 198.950301 
L 135.900773 198.942026 
L 136.290518 198.916523 
L 136.808998 198.887689 
L 137.327497 198.863171 
L 137.845978 198.842095 
L 138.364477 198.823462 
L 138.737115 198.811143 
L 138.882957 198.806193 
L 139.401456 198.789243 
L 139.919937 198.771998 
L 140.438436 198.754004 
L 140.956916 198.735153 
L 141.475415 198.71566 
L 141.993896 198.696005 
L 142.419344 198.680261 
L 142.512395 198.676756 
L 143.030875 198.658381 
L 143.549374 198.641718 
L 144.067855 198.627256 
L 144.586354 198.615362 
L 145.104834 198.606323 
L 145.623333 198.600403 
L 146.141814 198.597922 
L 146.660313 198.599316 
L 147.178793 198.605173 
L 147.697292 198.616243 
L 148.215772 198.633407 
L 148.734272 198.657626 
L 149.100079 198.680261 
L 149.252752 198.689489 
L 149.771232 198.728931 
L 150.289751 198.777373 
L 150.594864 198.811143 
L 150.808231 198.834158 
L 151.326749 198.898389 
L 151.639842 198.942026 
L 151.845229 198.969949 
L 152.36371 199.047129 
L 152.525292 199.072909 
L 152.88219 199.128615 
L 153.339037 199.203792 
L 153.400708 199.213779 
L 153.919188 199.300084 
L 154.12361 199.334675 
L 154.437669 199.387211 
L 154.905033 199.465558 
L 154.956149 199.474082 
L 155.474667 199.559357 
L 155.704526 199.596441 
L 155.993147 199.642946 
L 156.511627 199.724433 
L 156.53057 199.727324 
L 157.030108 199.803723 
L 157.395315 199.858208 
L 157.548626 199.881165 
L 158.067106 199.957208 
L 158.287161 199.98909 
L 158.585586 200.032462 
L 159.104067 200.107769 
L 159.187382 200.119974 
L 159.622585 200.183678 
L 160.071659 200.250856 
L 160.141065 200.261157 
L 160.659545 200.340232 
L 160.92215 200.38174 
L 161.178026 200.421433 
L 161.696544 200.504922 
L 161.742507 200.512622 
L 162.215024 200.589348 
L 162.536312 200.643506 
L 162.733504 200.675474 
L 163.251985 200.762512 
L 163.320202 200.774388 
L 163.770503 200.849365 
L 164.094794 200.905272 
L 164.288983 200.93733 
L 164.807463 201.026204 
L 164.863236 201.036154 
L 165.325944 201.115819 
L 165.610064 201.167038 
L 165.844462 201.20823 
L 166.328267 201.29792 
L 166.362942 201.304264 
L 166.881422 201.404612 
L 166.999339 201.428804 
L 167.399903 201.511463 
L 167.619602 201.559686 
L 167.918421 201.626517 
L 168.188117 201.69057 
L 168.436901 201.751423 
L 168.708101 201.821452 
L 168.955381 201.887675 
L 169.186372 201.952336 
L 169.473862 202.035974 
L 169.63128 202.083218 
L 169.99238 202.195473 
L 170.051363 202.214102 
L 170.456108 202.344984 
L 170.51086 202.363002 
L 170.855425 202.475868 
L 171.02934 202.533402 
L 171.255421 202.60675 
L 171.54782 202.701607 
L 171.662388 202.737634 
L 172.066339 202.86385 
L 172.081853 202.868516 
L 172.520752 202.9994 
L 172.584819 203.018394 
L 172.976148 203.130283 
L 173.103299 203.166667 
L 173.44271 203.261166 
L 173.621779 203.311596 
L 173.911151 203.392049 
L 174.140298 203.457374 
L 174.369199 203.522932 
L 174.658778 203.609288 
L 174.804928 203.653815 
L 175.177258 203.773794 
L 175.209966 203.784698 
L 175.580084 203.915581 
L 175.695738 203.959468 
L 175.915568 204.046461 
L 176.214257 204.174975 
L 176.21955 204.177344 
L 176.495579 204.308228 
L 176.732737 204.430685 
L 176.74861 204.43911 
L 176.98335 204.569994 
L 177.202479 204.700876 
L 177.251217 204.731321 
L 177.411403 204.83176 
L 177.611124 204.962642 
L 177.769697 205.070567 
L 177.804019 205.093526 
L 177.995084 205.224408 
L 178.181691 205.355292 
L 178.288216 205.431422 
L 178.367661 205.486174 
L 178.554558 205.617058 
L 178.739296 205.74794 
L 178.806696 205.796326 
L 178.926068 205.878824 
L 179.112543 206.009706 
L 179.296191 206.14059 
L 179.325176 206.161566 
L 179.480643 206.271472 
L 179.661176 206.402356 
L 179.836293 206.533238 
L 179.843656 206.538864 
L 180.008725 206.664122 
L 180.173632 206.795004 
L 180.329771 206.925888 
L 180.362175 206.954355 
L 180.478822 207.05677 
L 180.617734 207.187653 
L 180.744887 207.318535 
L 180.859823 207.449419 
L 180.880655 207.475375 
L 180.965491 207.580301 
L 181.060424 207.711185 
L 181.145155 207.842067 
L 181.221405 207.972951 
L 181.291236 208.103833 
L 181.35687 208.234717 
L 181.399135 208.321249 
L 181.421477 208.365599 
L 181.48801 208.496483 
L 181.55609 208.627365 
L 181.626793 208.758249 
L 181.700645 208.889131 
L 181.777609 209.020015 
L 181.857112 209.150897 
L 181.917615 209.248912 
L 181.939034 209.281781 
L 182.023506 209.412663 
L 182.10577 209.543547 
L 182.183761 209.67443 
L 182.255346 209.805313 
L 182.318437 209.936196 
L 182.37112 210.067079 
L 182.411778 210.197962 
L 182.436134 210.314397 
L 182.439292 210.328844 
L 182.45312 210.459726 
L 182.452908 210.59061 
L 182.439474 210.721492 
L 182.436134 210.738894 
L 182.414231 210.852376 
L 182.378548 210.983258 
L 182.333842 211.114142 
L 182.281189 211.245024 
L 182.221032 211.375908 
L 182.153071 211.50679 
L 182.076272 211.637673 
L 181.989011 211.768556 
L 181.917615 211.861889 
L 181.889251 211.89944 
L 181.774676 212.030323 
L 181.642812 212.161206 
L 181.491139 212.292089 
L 181.399135 212.361414 
L 181.317407 212.422972 
L 181.119021 212.553855 
L 180.892692 212.684738 
L 180.880655 212.690993 
L 180.637602 212.815621 
L 180.362175 212.940802 
L 180.349433 212.946504 
L 180.028855 213.077387 
L 179.843656 213.146222 
L 179.673207 213.20827 
L 179.325176 213.32522 
L 179.28278 213.339153 
L 178.859685 213.470037 
L 178.806696 213.485617 
L 178.405741 213.600919 
L 178.288216 213.633322 
L 177.923298 213.731802 
L 177.769697 213.771907 
L 177.414901 213.862685 
L 177.251217 213.903411 
L 176.881789 213.993568 
L 176.732737 214.028963 
L 176.322789 214.124451 
L 176.214257 214.148962 
L 175.733366 214.255334 
L 175.695738 214.263351 
L 175.177258 214.371632 
L 175.105879 214.386217 
L 174.658778 214.47342 
L 174.428509 214.517099 
L 174.140298 214.568937 
L 173.686869 214.647982 
L 173.621779 214.6587 
L 173.103299 214.742482 
L 172.872355 214.778865 
L 172.584819 214.821687 
L 172.066339 214.897249 
L 171.980163 214.909748 
L 171.54782 214.96937 
L 171.02934 215.039665 
L 171.02228 215.040631 
L 170.51086 215.107744 
L 170.018446 215.171515 
L 169.99238 215.174775 
L 169.473862 215.240235 
L 168.971075 215.302398 
L 168.955381 215.304288 
L 168.436901 215.366426 
L 167.918421 215.426038 
L 167.853364 215.433281 
L 167.399903 215.482882 
L 166.881422 215.536133 
L 166.590005 215.564164 
L 166.362942 215.585772 
L 165.844462 215.631918 
L 165.325944 215.674473 
L 165.059852 215.695046 
L 164.807463 215.714507 
L 164.288983 215.752895 
L 163.770503 215.790133 
L 163.269903 215.825929 
L 163.251985 215.827217 
L 162.733504 215.866071 
L 162.215024 215.90621 
L 161.696544 215.947897 
L 161.59158 215.956812 
L 161.178026 215.992314 
L 160.659545 216.038141 
L 160.141065 216.084321 
L 160.10369 216.087695 
L 159.622585 216.131732 
L 159.104067 216.177759 
L 158.619481 216.218578 
L 158.585586 216.221486 
L 158.067106 216.263782 
L 157.548626 216.302262 
L 157.030108 216.336646 
L 156.812674 216.349461 
L 156.511627 216.367716 
L 155.993147 216.395179 
L 155.474667 216.418678 
L 154.956149 216.438569 
L 154.437669 216.455251 
L 153.919188 216.469143 
L 153.414731 216.480344 
L 153.400708 216.48067 
L 152.88219 216.490685 
L 152.36371 216.498986 
L 151.845229 216.505929 
L 151.326749 216.511843 
L 150.808231 216.517033 
L 150.289751 216.52177 
L 149.771232 216.526292 
L 149.252752 216.530799 
L 148.734272 216.535442 
L 148.215772 216.540326 
L 147.697292 216.545503 
L 147.178793 216.550976 
L 146.660313 216.556701 
L 146.141814 216.562582 
L 145.623333 216.568473 
L 145.104834 216.574167 
L 144.586354 216.579389 
L 144.067855 216.583796 
L 143.549374 216.586962 
L 143.030875 216.588395 
L 142.512395 216.587542 
L 141.993896 216.583822 
L 141.475415 216.576658 
L 140.956916 216.565526 
L 140.438436 216.550007 
L 139.919937 216.529836 
L 139.401456 216.504953 
L 138.966202 216.480344 
L 138.882957 216.475749 
L 138.364477 216.443782 
L 137.845978 216.408564 
L 137.327497 216.370883 
L 137.042135 216.349461 
L 136.808998 216.332481 
L 136.290518 216.294499 
L 135.772019 216.256582 
L 135.253538 216.219221 
L 135.244275 216.218578 
L 134.735039 216.184571 
L 134.216559 216.150846 
L 133.69806 216.117875 
L 133.215382 216.087695 
L 133.179579 216.085533 
L 132.66108 216.05491 
L 132.1426 216.024161 
L 131.624101 215.992977 
L 131.105621 215.961083 
L 131.036656 215.956812 
L 130.587121 215.929478 
L 130.068641 215.89682 
L 129.550142 215.862652 
L 129.031662 215.826713 
L 129.020652 215.825929 
L 128.513162 215.790122 
L 127.994682 215.751292 
L 127.476183 215.710019 
L 127.295998 215.695046 
L 126.957703 215.667197 
L 126.439203 215.62244 
L 125.920723 215.575432 
L 125.799821 215.564164 
L 125.402224 215.527638 
L 124.883724 215.478644 
L 124.413862 215.433281 
L 124.365225 215.428662 
L 123.846745 215.379247 
L 123.328246 215.329392 
L 123.047428 215.302398 
L 122.809766 215.279882 
L 122.291266 215.230782 
L 121.772786 215.181327 
L 121.670144 215.171515 
L 121.254287 215.131872 
L 120.735807 215.081312 
L 120.331973 215.040631 
L 120.217307 215.028931 
L 119.698827 214.973924 
L 119.180328 214.915032 
L 119.136235 214.909748 
L 118.661848 214.850606 
L 118.143348 214.779623 
L 118.138162 214.778865 
L 117.624868 214.698931 
L 117.326989 214.647982 
L 117.106369 214.607037 
L 116.661782 214.517099 
L 116.587889 214.50058 
L 116.112856 214.386217 
L 116.069389 214.374457 
L 115.654222 214.255334 
L 115.550909 214.221601 
L 115.265476 214.124451 
L 115.03241 214.033767 
L 114.931468 213.993568 
L 114.637706 213.862685 
L 114.51393 213.801611 
L 114.371876 213.731802 
L 114.122949 213.600919 
L 113.99543 213.531373 
L 113.879613 213.470037 
L 113.630944 213.339153 
L 113.47695 213.26072 
L 113.368914 213.20827 
L 113.082925 213.077387 
L 112.958451 213.024141 
L 112.766818 212.946504 
L 112.439971 212.822525 
L 112.420838 212.815621 
L 112.037793 212.684738 
L 111.921471 212.646477 
L 111.630949 212.553855 
L 111.402991 212.482012 
L 111.213009 212.422972 
L 110.884492 212.319046 
L 110.799498 212.292089 
L 110.40481 212.161206 
L 110.366012 212.147538 
L 110.039468 212.030323 
L 109.847512 211.954378 
L 109.711677 211.89944 
L 109.421757 211.768556 
L 109.329032 211.721248 
L 109.167626 211.637673 
L 108.947453 211.50679 
L 108.810533 211.412113 
L 108.758087 211.375908 
L 108.593792 211.245024 
L 108.455473 211.114142 
L 108.340968 210.983258 
L 108.292053 210.913981 
L 108.246979 210.852376 
z
" clip-path="url(#p7b727370f9)" style="fill: none; stroke: #d94801; stroke-opacity: 0.111111; stroke-width: 1.5"/>
   </g>
   <g id="PathCollection_6">
    <path d="M 117.093291 210.459726 
L 117.045546 210.328844 
L 117.024932 210.197962 
L 117.030394 210.067079 
L 117.060485 209.936196 
L 117.106369 209.822349 
L 117.113066 209.805313 
L 117.184447 209.67443 
L 117.27219 209.543547 
L 117.372178 209.412663 
L 117.479845 209.281781 
L 117.590568 209.150897 
L 117.624868 209.110187 
L 117.698831 209.020015 
L 117.801937 208.889131 
L 117.898174 208.758249 
L 117.986545 208.627365 
L 118.067334 208.496483 
L 118.141996 208.365599 
L 118.143348 208.363104 
L 118.212212 208.234717 
L 118.282025 208.103833 
L 118.354999 207.972951 
L 118.434865 207.842067 
L 118.525263 207.711185 
L 118.629491 207.580301 
L 118.661848 207.54471 
L 118.750092 207.449419 
L 118.888926 207.318535 
L 119.046833 207.187653 
L 119.180328 207.08832 
L 119.223551 207.05677 
L 119.417272 206.925888 
L 119.626296 206.795004 
L 119.698827 206.751831 
L 119.8476 206.664122 
L 120.078891 206.533238 
L 120.217307 206.457507 
L 120.318368 206.402356 
L 120.56428 206.271472 
L 120.735807 206.18277 
L 120.817208 206.14059 
L 121.076363 206.009706 
L 121.254287 205.922771 
L 121.343938 205.878824 
L 121.619732 205.74794 
L 121.772786 205.67793 
L 121.905614 205.617058 
L 122.201793 205.486174 
L 122.291266 205.447873 
L 122.507605 205.355292 
L 122.809766 205.230275 
L 122.82396 205.224408 
L 123.14628 205.093526 
L 123.328246 205.021033 
L 123.474764 204.962642 
L 123.805948 204.83176 
L 123.846745 204.815586 
L 124.134729 204.700876 
L 124.365225 204.608629 
L 124.461092 204.569994 
L 124.781307 204.43911 
L 124.883724 204.396686 
L 125.095503 204.308228 
L 125.402224 204.179117 
L 125.406426 204.177344 
L 125.715167 204.046461 
L 125.920723 203.960379 
L 126.029008 203.915581 
L 126.353566 203.784698 
L 126.439203 203.751363 
L 126.699144 203.653815 
L 126.957703 203.561892 
L 127.074148 203.522932 
L 127.476183 203.39652 
L 127.49169 203.392049 
L 127.97399 203.261166 
L 127.994682 203.255858 
L 128.513162 203.137007 
L 128.546698 203.130283 
L 129.031662 203.036857 
L 129.258337 202.9994 
L 129.550142 202.952264 
L 130.068641 202.881068 
L 130.177198 202.868516 
L 130.587121 202.820964 
L 131.105621 202.770551 
L 131.510995 202.737634 
L 131.624101 202.728219 
L 132.1426 202.691636 
L 132.66108 202.65985 
L 133.179579 202.631013 
L 133.632484 202.60675 
L 133.69806 202.603088 
L 134.216559 202.573262 
L 134.735039 202.541026 
L 135.253538 202.50539 
L 135.64117 202.475868 
L 135.772019 202.465527 
L 136.290518 202.420605 
L 136.808998 202.373084 
L 137.10696 202.344984 
L 137.327497 202.323578 
L 137.845978 202.273602 
L 138.364477 202.226357 
L 138.511907 202.214102 
L 138.882957 202.182486 
L 139.401456 202.144384 
L 139.919937 202.113609 
L 140.438436 202.090838 
L 140.712055 202.083218 
L 140.956916 202.076184 
L 141.475415 202.069755 
L 141.993896 202.071287 
L 142.512395 202.079991 
L 142.62762 202.083218 
L 143.030875 202.094484 
L 143.549374 202.113466 
L 144.067855 202.135464 
L 144.586354 202.15885 
L 145.104834 202.182091 
L 145.623333 202.203936 
L 145.892721 202.214102 
L 146.141814 202.223265 
L 146.660313 202.239948 
L 147.178793 202.254629 
L 147.697292 202.268005 
L 148.215772 202.281042 
L 148.734272 202.294815 
L 149.252752 202.310374 
L 149.771232 202.328655 
L 150.158239 202.344984 
L 150.289751 202.35037 
L 150.808231 202.376044 
L 151.326749 202.406457 
L 151.845229 202.442009 
L 152.272076 202.475868 
L 152.36371 202.483002 
L 152.88219 202.529626 
L 153.400708 202.582308 
L 153.615317 202.60675 
L 153.919188 202.640994 
L 154.437669 202.705596 
L 154.673663 202.737634 
L 154.956149 202.775623 
L 155.474667 202.850279 
L 155.594844 202.868516 
L 155.993147 202.928147 
L 156.454591 202.9994 
L 156.511627 203.008047 
L 157.030108 203.087914 
L 157.305102 203.130283 
L 157.548626 203.16689 
L 158.067106 203.244083 
L 158.183177 203.261166 
L 158.585586 203.318899 
L 159.099867 203.392049 
L 159.104067 203.392632 
L 159.622585 203.464936 
L 160.029829 203.522932 
L 160.141065 203.538557 
L 160.659545 203.61412 
L 160.916917 203.653815 
L 161.178026 203.69403 
L 161.696544 203.780203 
L 161.721776 203.784698 
L 162.215024 203.873471 
L 162.429571 203.915581 
L 162.733504 203.976168 
L 163.058372 204.046461 
L 163.251985 204.089214 
L 163.623383 204.177344 
L 163.770503 204.213118 
L 164.139344 204.308228 
L 164.288983 204.347898 
L 164.618248 204.43911 
L 164.807463 204.493128 
L 165.069004 204.569994 
L 165.325944 204.647949 
L 165.497751 204.700876 
L 165.844462 204.811313 
L 165.908406 204.83176 
L 166.304493 204.962642 
L 166.362942 204.982705 
L 166.687549 205.093526 
L 166.881422 205.162853 
L 167.054806 205.224408 
L 167.399903 205.353784 
L 167.403943 205.355292 
L 167.736208 205.486174 
L 167.918421 205.563173 
L 168.045413 205.617058 
L 168.331922 205.74794 
L 168.436901 205.79952 
L 168.596317 205.878824 
L 168.839795 206.009706 
L 168.955381 206.076126 
L 169.066019 206.14059 
L 169.278738 206.271472 
L 169.473862 206.397639 
L 169.48111 206.402356 
L 169.679793 206.533238 
L 169.875625 206.664122 
L 169.99238 206.741842 
L 170.073176 206.795004 
L 170.275678 206.925888 
L 170.481531 207.05677 
L 170.51086 207.075082 
L 170.696388 207.187653 
L 170.914895 207.318535 
L 171.02934 207.386884 
L 171.13766 207.449419 
L 171.36221 207.580301 
L 171.54782 207.691142 
L 171.582415 207.711185 
L 171.79922 207.842067 
L 172.00387 207.972951 
L 172.066339 208.015776 
L 172.196982 208.103833 
L 172.375117 208.234717 
L 172.53657 208.365599 
L 172.584819 208.408881 
L 172.682621 208.496483 
L 172.813001 208.627365 
L 172.928155 208.758249 
L 173.028958 208.889131 
L 173.103299 209.000667 
L 173.116038 209.020015 
L 173.189574 209.150897 
L 173.249722 209.281781 
L 173.296501 209.412663 
L 173.329873 209.543547 
L 173.349838 209.67443 
L 173.356494 209.805313 
L 173.35006 209.936196 
L 173.330861 210.067079 
L 173.299283 210.197962 
L 173.255713 210.328844 
L 173.200481 210.459726 
L 173.133791 210.59061 
L 173.103299 210.641798 
L 173.055287 210.721492 
L 172.964893 210.852376 
L 172.862463 210.983258 
L 172.747279 211.114142 
L 172.618272 211.245024 
L 172.584819 211.275797 
L 172.473126 211.375908 
L 172.310988 211.50679 
L 172.130076 211.637673 
L 172.066339 211.679542 
L 171.927442 211.768556 
L 171.701639 211.89944 
L 171.54782 211.980183 
L 171.450458 212.030323 
L 171.172502 212.161206 
L 171.02934 212.222859 
L 170.866604 212.292089 
L 170.53232 212.422972 
L 170.51086 212.430775 
L 170.170084 212.553855 
L 169.99238 212.613621 
L 169.779864 212.684738 
L 169.473862 212.780767 
L 169.362318 212.815621 
L 168.955381 212.935523 
L 168.917943 212.946504 
L 168.446834 213.077387 
L 168.436901 213.080015 
L 167.948245 213.20827 
L 167.918421 213.215744 
L 167.420113 213.339153 
L 167.399903 213.343944 
L 166.881422 213.46491 
L 166.859061 213.470037 
L 166.362942 213.578822 
L 166.259671 213.600919 
L 165.844462 213.686046 
L 165.614331 213.731802 
L 165.325944 213.786848 
L 164.914204 213.862685 
L 164.807463 213.881598 
L 164.288983 213.970683 
L 164.152039 213.993568 
L 163.770503 214.055069 
L 163.327945 214.124451 
L 163.251985 214.135974 
L 162.733504 214.214191 
L 162.45973 214.255334 
L 162.215024 214.291079 
L 161.696544 214.367509 
L 161.572098 214.386217 
L 161.178026 214.443951 
L 160.686204 214.517099 
L 160.659545 214.520959 
L 160.141065 214.597642 
L 159.802082 214.647982 
L 159.622585 214.673842 
L 159.104067 214.748047 
L 158.883467 214.778865 
L 158.585586 214.81906 
L 158.067106 214.885679 
L 157.866843 214.909748 
L 157.548626 214.946651 
L 157.030108 215.001321 
L 156.609252 215.040631 
L 156.511627 215.049475 
L 155.993147 215.090507 
L 155.474667 215.125108 
L 154.956149 215.153641 
L 154.554052 215.171515 
L 154.437669 215.176608 
L 153.919188 215.194632 
L 153.400708 215.208599 
L 152.88219 215.219289 
L 152.36371 215.227472 
L 151.845229 215.233883 
L 151.326749 215.239188 
L 150.808231 215.243963 
L 150.289751 215.248672 
L 149.771232 215.253657 
L 149.252752 215.259131 
L 148.734272 215.265185 
L 148.215772 215.271795 
L 147.697292 215.278835 
L 147.178793 215.286097 
L 146.660313 215.293303 
L 146.141814 215.300114 
L 145.944942 215.302398 
L 145.623333 215.306156 
L 145.104834 215.31097 
L 144.586354 215.314057 
L 144.067855 215.314894 
L 143.549374 215.312938 
L 143.030875 215.307644 
L 142.732572 215.302398 
L 142.512395 215.298528 
L 141.993896 215.285212 
L 141.475415 215.267413 
L 140.956916 215.245049 
L 140.438436 215.218245 
L 139.919937 215.187338 
L 139.681517 215.171515 
L 139.401456 215.153125 
L 138.882957 215.116377 
L 138.364477 215.077624 
L 137.885621 215.040631 
L 137.845978 215.037605 
L 137.327497 214.997458 
L 136.808998 214.95698 
L 136.290518 214.916316 
L 136.206529 214.909748 
L 135.772019 214.875738 
L 135.253538 214.834599 
L 134.735039 214.792397 
L 134.572715 214.778865 
L 134.216559 214.748688 
L 133.69806 214.70285 
L 133.179579 214.654446 
L 133.112945 214.647982 
L 132.66108 214.603108 
L 132.1426 214.548883 
L 131.850658 214.517099 
L 131.624101 214.491952 
L 131.105621 214.432787 
L 130.707679 214.386217 
L 130.587121 214.371989 
L 130.068641 214.310435 
L 129.608221 214.255334 
L 129.550142 214.248404 
L 129.031662 214.18698 
L 128.513162 214.125535 
L 128.503926 214.124451 
L 127.994682 214.065134 
L 127.476183 214.004421 
L 127.383402 213.993568 
L 126.957703 213.943796 
L 126.439203 213.881943 
L 126.280511 213.862685 
L 125.920723 213.818362 
L 125.402224 213.751766 
L 125.252592 213.731802 
L 124.883724 213.680749 
L 124.365225 213.603833 
L 124.346535 213.600919 
L 123.846745 213.518084 
L 123.57963 213.470037 
L 123.328246 213.421189 
L 122.939068 213.339153 
L 122.809766 213.309322 
L 122.403615 213.20827 
L 122.291266 213.177448 
L 121.949747 213.077387 
L 121.772786 213.020238 
L 121.556375 212.946504 
L 121.254287 212.834108 
L 121.206561 212.815621 
L 120.88689 212.684738 
L 120.735807 212.619529 
L 120.586603 212.553855 
L 120.298153 212.422972 
L 120.217307 212.385669 
L 120.015113 212.292089 
L 119.736091 212.161206 
L 119.698827 212.143603 
L 119.456889 212.030323 
L 119.182423 211.89944 
L 119.180328 211.898419 
L 118.908876 211.768556 
L 118.661848 211.645379 
L 118.646018 211.637673 
L 118.390157 211.50679 
L 118.152771 211.375908 
L 118.143348 211.370241 
L 117.928454 211.245024 
L 117.727878 211.114142 
L 117.624868 211.03735 
L 117.549672 210.983258 
L 117.394466 210.852376 
L 117.26688 210.721492 
L 117.166749 210.59061 
L 117.106369 210.48246 
L 117.093291 210.459726 
z
" clip-path="url(#p7b727370f9)" style="fill: none; stroke: #d94801; stroke-opacity: 0.333333; stroke-width: 1.5"/>
   </g>
   <g id="PathCollection_7">
    <path d="M 123.734941 210.721492 
L 123.640366 210.59061 
L 123.572173 210.459726 
L 123.529373 210.328844 
L 123.510019 210.197962 
L 123.511458 210.067079 
L 123.530645 209.936196 
L 123.564458 209.805313 
L 123.60999 209.67443 
L 123.664772 209.543547 
L 123.726951 209.412663 
L 123.795404 209.281781 
L 123.846745 209.191443 
L 123.869943 209.150897 
L 123.951386 209.020015 
L 124.040867 208.889131 
L 124.140481 208.758249 
L 124.25289 208.627365 
L 124.365225 208.51239 
L 124.381434 208.496483 
L 124.531794 208.365599 
L 124.704443 208.234717 
L 124.883724 208.115109 
L 124.90161 208.103833 
L 125.128595 207.972951 
L 125.377677 207.842067 
L 125.402224 207.829793 
L 125.650145 207.711185 
L 125.920723 207.585414 
L 125.932068 207.580301 
L 126.218109 207.449419 
L 126.439203 207.34447 
L 126.494016 207.318535 
L 126.754228 207.187653 
L 126.957703 207.076901 
L 126.994143 207.05677 
L 127.215021 206.925888 
L 127.42078 206.795004 
L 127.476183 206.75856 
L 127.6182 206.664122 
L 127.814445 206.533238 
L 127.994682 206.416645 
L 128.01696 206.402356 
L 128.235495 206.271472 
L 128.473448 206.14059 
L 128.513162 206.120615 
L 128.741816 206.009706 
L 129.031662 205.88177 
L 129.038689 205.878824 
L 129.376416 205.74794 
L 129.550142 205.685018 
L 129.75002 205.617058 
L 130.068641 205.51389 
L 130.160569 205.486174 
L 130.587121 205.361569 
L 130.61034 205.355292 
L 131.104268 205.224408 
L 131.105621 205.224055 
L 131.624101 205.099673 
L 131.652071 205.093526 
L 132.1426 204.988118 
L 132.27265 204.962642 
L 132.66108 204.889145 
L 132.994874 204.83176 
L 133.179579 204.80152 
L 133.69806 204.723967 
L 133.864 204.700876 
L 134.216559 204.654762 
L 134.735039 204.590672 
L 134.906706 204.569994 
L 135.253538 204.530803 
L 135.772019 204.472566 
L 136.066253 204.43911 
L 136.290518 204.415035 
L 136.808998 204.35822 
L 137.258844 204.308228 
L 137.327497 204.300961 
L 137.845978 204.245992 
L 138.364477 204.19258 
L 138.521638 204.177344 
L 138.882957 204.143823 
L 139.401456 204.100888 
L 139.919937 204.065059 
L 140.271825 204.046461 
L 140.438436 204.038001 
L 140.956916 204.02059 
L 141.475415 204.012601 
L 141.993896 204.013748 
L 142.512395 204.023319 
L 143.030875 204.040335 
L 143.16607 204.046461 
L 143.549374 204.063915 
L 144.067855 204.092758 
L 144.586354 204.125755 
L 145.104834 204.162085 
L 145.308209 204.177344 
L 145.623333 204.201314 
L 146.141814 204.242768 
L 146.660313 204.286102 
L 146.916486 204.308228 
L 147.178793 204.331348 
L 147.697292 204.378328 
L 148.215772 204.427057 
L 148.341545 204.43911 
L 148.734272 204.477564 
L 149.252752 204.529664 
L 149.644542 204.569994 
L 149.771232 204.583264 
L 150.289751 204.637714 
L 150.808231 204.692853 
L 150.884437 204.700876 
L 151.326749 204.747546 
L 151.845229 204.801586 
L 152.140805 204.83176 
L 152.36371 204.854334 
L 152.88219 204.905255 
L 153.400708 204.954944 
L 153.483081 204.962642 
L 153.919188 205.002925 
L 154.437669 205.05034 
L 154.906718 205.093526 
L 154.956149 205.098081 
L 155.474667 205.146795 
L 155.993147 205.19817 
L 156.242046 205.224408 
L 156.511627 205.253698 
L 157.030108 205.315213 
L 157.335056 205.355292 
L 157.548626 205.384974 
L 158.067106 205.465671 
L 158.18548 205.486174 
L 158.585586 205.560927 
L 158.853814 205.617058 
L 159.104067 205.673866 
L 159.400142 205.74794 
L 159.622585 205.808129 
L 159.864156 205.878824 
L 160.141065 205.96543 
L 160.274456 206.009706 
L 160.650653 206.14059 
L 160.659545 206.143766 
L 161.005039 206.271472 
L 161.178026 206.336424 
L 161.349615 206.402356 
L 161.690136 206.533238 
L 161.696544 206.53568 
L 162.028911 206.664122 
L 162.215024 206.73555 
L 162.367606 206.795004 
L 162.704902 206.925888 
L 162.733504 206.936972 
L 163.035771 207.05677 
L 163.251985 207.143501 
L 163.358693 207.187653 
L 163.668219 207.318535 
L 163.770503 207.363129 
L 163.960471 207.449419 
L 164.234969 207.580301 
L 164.288983 207.60749 
L 164.485845 207.711185 
L 164.715566 207.842067 
L 164.807463 207.899393 
L 164.92062 207.972951 
L 165.100575 208.103833 
L 165.256535 208.234717 
L 165.325944 208.303718 
L 165.386702 208.365599 
L 165.491544 208.496483 
L 165.572569 208.627365 
L 165.630896 208.758249 
L 165.668342 208.889131 
L 165.687316 209.020015 
L 165.690645 209.150897 
L 165.681344 209.281781 
L 165.662348 209.412663 
L 165.63623 209.543547 
L 165.604927 209.67443 
L 165.569497 209.805313 
L 165.529972 209.936196 
L 165.485303 210.067079 
L 165.433472 210.197962 
L 165.371713 210.328844 
L 165.325944 210.409275 
L 165.298154 210.459726 
L 165.211082 210.59061 
L 165.105755 210.721492 
L 164.980104 210.852376 
L 164.832915 210.983258 
L 164.807463 211.003151 
L 164.670178 211.114142 
L 164.488137 211.245024 
L 164.288983 211.374402 
L 164.28674 211.375908 
L 164.076452 211.50679 
L 163.849507 211.637673 
L 163.770503 211.680501 
L 163.612596 211.768556 
L 163.361851 211.89944 
L 163.251985 211.953191 
L 163.097116 212.030323 
L 162.813252 212.161206 
L 162.733504 212.195229 
L 162.506838 212.292089 
L 162.215024 212.405229 
L 162.168648 212.422972 
L 161.792774 212.553855 
L 161.696544 212.584257 
L 161.368117 212.684738 
L 161.178026 212.737619 
L 160.884792 212.815621 
L 160.659545 212.870758 
L 160.333048 212.946504 
L 160.141065 212.988169 
L 159.705623 213.077387 
L 159.622585 213.093605 
L 159.104067 213.189593 
L 158.996998 213.20827 
L 158.585586 213.278547 
L 158.210346 213.339153 
L 158.067106 213.362151 
L 157.548626 213.441154 
L 157.347811 213.470037 
L 157.030108 213.516013 
L 156.511627 213.586616 
L 156.398859 213.600919 
L 155.993147 213.652523 
L 155.474667 213.713206 
L 155.300168 213.731802 
L 154.956149 213.767973 
L 154.437669 213.816762 
L 153.919188 213.859776 
L 153.879909 213.862685 
L 153.400708 213.896899 
L 152.88219 213.929344 
L 152.36371 213.957848 
L 151.845229 213.983111 
L 151.609141 213.993568 
L 151.326749 214.005542 
L 150.808231 214.025746 
L 150.289751 214.044224 
L 149.771232 214.061152 
L 149.252752 214.076588 
L 148.734272 214.090511 
L 148.215772 214.102848 
L 147.697292 214.113504 
L 147.178793 214.122388 
L 147.027254 214.124451 
L 146.660313 214.129379 
L 146.141814 214.134488 
L 145.623333 214.137717 
L 145.104834 214.139049 
L 144.586354 214.138457 
L 144.067855 214.135869 
L 143.549374 214.131159 
L 143.054802 214.124451 
L 143.030875 214.124124 
L 142.512395 214.114426 
L 141.993896 214.101822 
L 141.475415 214.086004 
L 140.956916 214.066689 
L 140.438436 214.043658 
L 139.919937 214.016756 
L 139.53059 213.993568 
L 139.401456 213.985789 
L 138.882957 213.950433 
L 138.364477 213.911056 
L 137.845978 213.867704 
L 137.790661 213.862685 
L 137.327497 213.81976 
L 136.808998 213.76802 
L 136.46814 213.731802 
L 136.290518 213.712539 
L 135.772019 213.653603 
L 135.326485 213.600919 
L 135.253538 213.592194 
L 134.735039 213.528901 
L 134.258915 213.470037 
L 134.216559 213.464803 
L 133.69806 213.400809 
L 133.194591 213.339153 
L 133.179579 213.337327 
L 132.66108 213.27494 
L 132.1426 213.213259 
L 132.100417 213.20827 
L 131.624101 213.151936 
L 131.105621 213.090266 
L 130.998806 213.077387 
L 130.587121 213.026816 
L 130.068641 212.960853 
L 129.960209 212.946504 
L 129.550142 212.889844 
L 129.046607 212.815621 
L 129.031662 212.813273 
L 128.513162 212.726715 
L 128.279839 212.684738 
L 127.994682 212.628797 
L 127.639568 212.553855 
L 127.476183 212.515721 
L 127.103693 212.422972 
L 126.957703 212.382429 
L 126.649082 212.292089 
L 126.439203 212.223489 
L 126.255915 212.161206 
L 125.920723 212.034868 
L 125.908964 212.030323 
L 125.598737 211.89944 
L 125.402224 211.809161 
L 125.314495 211.768556 
L 125.051902 211.637673 
L 124.883724 211.547823 
L 124.806781 211.50679 
L 124.578652 211.375908 
L 124.366828 211.245024 
L 124.365225 211.243932 
L 124.175004 211.114142 
L 124.003872 210.983258 
L 123.855939 210.852376 
L 123.846745 210.842561 
L 123.734941 210.721492 
z
" clip-path="url(#p7b727370f9)" style="fill: none; stroke: #d94801; stroke-opacity: 0.555556; stroke-width: 1.5"/>
   </g>
   <g id="PathCollection_8">
    <path d="M 130.460778 210.721492 
L 130.351292 210.59061 
L 130.264459 210.459726 
L 130.201075 210.328844 
L 130.162644 210.197962 
L 130.151186 210.067079 
L 130.169056 209.936196 
L 130.218757 209.805313 
L 130.302758 209.67443 
L 130.423271 209.543547 
L 130.581998 209.412663 
L 130.587121 209.409174 
L 130.775663 209.281781 
L 131.005789 209.150897 
L 131.105621 209.10071 
L 131.26402 209.020015 
L 131.546275 208.889131 
L 131.624101 208.855244 
L 131.840151 208.758249 
L 132.1426 208.62841 
L 132.144955 208.627365 
L 132.444863 208.496483 
L 132.66108 208.403117 
L 132.746023 208.365599 
L 133.041318 208.234717 
L 133.179579 208.17285 
L 133.333766 208.103833 
L 133.624171 207.972951 
L 133.69806 207.939175 
L 133.916425 207.842067 
L 134.213585 207.711185 
L 134.216559 207.709869 
L 134.525876 207.580301 
L 134.735039 207.495717 
L 134.858078 207.449419 
L 135.222146 207.318535 
L 135.253538 207.307781 
L 135.636212 207.187653 
L 135.772019 207.147895 
L 136.113263 207.05677 
L 136.290518 207.012584 
L 136.671113 206.925888 
L 136.808998 206.896352 
L 137.322549 206.795004 
L 137.327497 206.794075 
L 137.845978 206.702312 
L 138.075705 206.664122 
L 138.364477 206.61732 
L 138.882957 206.537205 
L 138.909748 206.533238 
L 139.401456 206.46078 
L 139.814955 206.402356 
L 139.919937 206.38743 
L 140.438436 206.317406 
L 140.803054 206.271472 
L 140.956916 206.251863 
L 141.475415 206.192366 
L 141.993896 206.141123 
L 142.00062 206.14059 
L 142.512395 206.100038 
L 143.030875 206.070968 
L 143.549374 206.055014 
L 144.067855 206.052819 
L 144.586354 206.064556 
L 145.104834 206.089928 
L 145.623333 206.128187 
L 145.752074 206.14059 
L 146.141814 206.179309 
L 146.660313 206.241381 
L 146.881748 206.271472 
L 147.178793 206.313148 
L 147.697292 206.392134 
L 147.761516 206.402356 
L 148.215772 206.476652 
L 148.556941 206.533238 
L 148.734272 206.563276 
L 149.252752 206.650253 
L 149.337911 206.664122 
L 149.771232 206.736053 
L 150.13862 206.795004 
L 150.289751 206.819664 
L 150.808231 206.901568 
L 150.966529 206.925888 
L 151.326749 206.982557 
L 151.797416 207.05677 
L 151.845229 207.064491 
L 152.36371 207.149521 
L 152.585471 207.187653 
L 152.88219 207.240201 
L 153.293665 207.318535 
L 153.400708 207.339423 
L 153.919188 207.449415 
L 153.919204 207.449419 
L 154.437669 207.570859 
L 154.474648 207.580301 
L 154.956149 207.703908 
L 154.982382 207.711185 
L 155.45807 207.842067 
L 155.474667 207.846569 
L 155.912912 207.972951 
L 155.993147 207.99569 
L 156.355322 208.103833 
L 156.511627 208.149748 
L 156.787838 208.234717 
L 157.030108 208.308703 
L 157.208369 208.365599 
L 157.548626 208.47539 
L 157.611016 208.496483 
L 157.986067 208.627365 
L 158.067106 208.657367 
L 158.324367 208.758249 
L 158.585586 208.87256 
L 158.621063 208.889131 
L 158.867851 209.020015 
L 159.069386 209.150897 
L 159.104067 209.17888 
L 159.222902 209.281781 
L 159.334866 209.412663 
L 159.4101 209.543547 
L 159.452587 209.67443 
L 159.466068 209.805313 
L 159.453779 209.936196 
L 159.418336 210.067079 
L 159.361721 210.197962 
L 159.285335 210.328844 
L 159.19009 210.459726 
L 159.104067 210.558862 
L 159.075601 210.59061 
L 158.939626 210.721492 
L 158.784758 210.852376 
L 158.610268 210.983258 
L 158.585586 210.999881 
L 158.408197 211.114142 
L 158.180941 211.245024 
L 158.067106 211.303869 
L 157.919637 211.375908 
L 157.619012 211.50679 
L 157.548626 211.534234 
L 157.264377 211.637673 
L 157.030108 211.713386 
L 156.846453 211.768556 
L 156.511627 211.858272 
L 156.346474 211.89944 
L 155.993147 211.978659 
L 155.746872 212.030323 
L 155.474667 212.082272 
L 155.036492 212.161206 
L 154.956149 212.174546 
L 154.437669 212.257366 
L 154.212026 212.292089 
L 153.919188 212.334246 
L 153.400708 212.406275 
L 153.276756 212.422972 
L 152.88219 212.473348 
L 152.36371 212.536422 
L 152.212973 212.553855 
L 151.845229 212.594663 
L 151.326749 212.648162 
L 150.939114 212.684738 
L 150.808231 212.69674 
L 150.289751 212.739658 
L 149.771232 212.777235 
L 149.252752 212.80936 
L 149.130969 212.815621 
L 148.734272 212.835777 
L 148.215772 212.856702 
L 147.697292 212.872354 
L 147.178793 212.882968 
L 146.660313 212.88885 
L 146.141814 212.890386 
L 145.623333 212.888024 
L 145.104834 212.882248 
L 144.586354 212.873544 
L 144.067855 212.862349 
L 143.549374 212.848999 
L 143.030875 212.833688 
L 142.512395 212.816438 
L 142.490248 212.815621 
L 141.993896 212.796571 
L 141.475415 212.774208 
L 140.956916 212.748998 
L 140.438436 212.720573 
L 139.919937 212.688641 
L 139.863251 212.684738 
L 139.401456 212.652198 
L 138.882957 212.612014 
L 138.364477 212.568434 
L 138.203809 212.553855 
L 137.845978 212.52099 
L 137.327497 212.470441 
L 136.863451 212.422972 
L 136.808998 212.417315 
L 136.290518 212.360374 
L 135.772019 212.300957 
L 135.698246 212.292089 
L 135.253538 212.236517 
L 134.735039 212.168098 
L 134.685519 212.161206 
L 134.216559 212.091412 
L 133.833573 212.030323 
L 133.69806 212.006701 
L 133.179579 211.909249 
L 133.130872 211.89944 
L 132.66108 211.792827 
L 132.561887 211.768556 
L 132.1426 211.650793 
L 132.099041 211.637673 
L 131.722493 211.50679 
L 131.624101 211.466859 
L 131.412119 211.375908 
L 131.152478 211.245024 
L 131.105621 211.217618 
L 130.935024 211.114142 
L 130.750259 210.983258 
L 130.593054 210.852376 
L 130.587121 210.846563 
L 130.460778 210.721492 
z
" clip-path="url(#p7b727370f9)" style="fill: none; stroke: #d94801; stroke-opacity: 0.666667; stroke-width: 1.5"/>
   </g>
   <g id="PathCollection_9">
    <path d="M 137.808902 210.067079 
L 137.783823 209.936196 
L 137.840946 209.805313 
L 137.845978 209.800481 
L 138.003628 209.67443 
L 138.255466 209.543547 
L 138.364477 209.500846 
L 138.647154 209.412663 
L 138.882957 209.352197 
L 139.243185 209.281781 
L 139.401456 209.254814 
L 139.919937 209.191213 
L 140.415369 209.150897 
L 140.438436 209.149174 
L 140.956916 209.128705 
L 141.475415 209.123826 
L 141.993896 209.133288 
L 142.398381 209.150897 
L 142.512395 209.156729 
L 143.030875 209.196464 
L 143.549374 209.249869 
L 143.804219 209.281781 
L 144.067855 209.322276 
L 144.572416 209.412663 
L 144.586354 209.415855 
L 145.094086 209.543547 
L 145.104834 209.547149 
L 145.467882 209.67443 
L 145.623333 209.749408 
L 145.738939 209.805313 
L 145.929795 209.936196 
L 146.050856 210.067079 
L 146.100238 210.197962 
L 146.057008 210.328844 
L 145.862351 210.459726 
L 145.623333 210.530437 
L 145.345563 210.59061 
L 145.104834 210.621013 
L 144.586354 210.668602 
L 144.067855 210.700743 
L 143.586403 210.721492 
L 143.549374 210.722665 
L 143.030875 210.73522 
L 142.512395 210.742628 
L 141.993896 210.744631 
L 141.475415 210.740363 
L 140.956916 210.728478 
L 140.79016 210.721492 
L 140.438436 210.704935 
L 139.919937 210.667002 
L 139.401456 210.612924 
L 139.244176 210.59061 
L 138.882957 210.528727 
L 138.576649 210.459726 
L 138.364477 210.397737 
L 138.178744 210.328844 
L 137.935763 210.197962 
L 137.845978 210.11108 
L 137.808902 210.067079 
z
" clip-path="url(#p7b727370f9)" style="fill: none; stroke: #d94801; stroke-opacity: 0.888889; stroke-width: 1.5"/>
   </g>
   <g id="PathCollection_10"/>
   <g id="patch_3">
    <path d="M 29.25 224.28 
L 29.25 63.504 
" style="fill: none; stroke: #000000; stroke-width: 3; stroke-linejoin: miter; stroke-linecap: square"/>
   </g>
   <g id="patch_4">
    <path d="M 29.25 224.28 
L 179.511429 224.28 
" style="fill: none; stroke: #000000; stroke-width: 3; stroke-linejoin: miter; stroke-linecap: square"/>
   </g>
   <g id="text_1">
    <!-- $\theta^*$ -->
    <g transform="translate(107.697623 201.21401)scale(0.14 -0.14)">
     <defs>
      <path id="DejaVuSerif-Italic-3b8" d="M 2888 2600 
Q 3059 3603 2947 4113 
Q 2822 4678 2359 4678 
Q 1900 4678 1553 4113 
Q 1244 3603 1025 2600 
L 2888 2600 
z
M 2822 2266 
L 959 2266 
Q 791 1269 903 759 
Q 1031 191 1488 191 
Q 1947 191 2294 759 
Q 2603 1269 2822 2266 
z
M 2409 4931 
Q 3138 4931 3444 4248 
Q 3750 3566 3529 2433 
Q 3309 1300 2734 615 
Q 2159 -69 1434 -69 
Q 713 -69 406 615 
Q 100 1300 320 2433 
Q 541 3566 1112 4248 
Q 1684 4931 2409 4931 
z
" transform="scale(0.015625)"/>
      <path id="DejaVuSerif-2a" d="M 3097 3866 
L 1875 3297 
L 3097 2719 
L 2859 2350 
L 1772 3028 
L 1813 1838 
L 1388 1838 
L 1428 3028 
L 341 2350 
L 103 2719 
L 1325 3291 
L 103 3866 
L 341 4238 
L 1428 3559 
L 1388 4750 
L 1813 4750 
L 1772 3559 
L 2859 4238 
L 3097 3866 
z
" transform="scale(0.015625)"/>
     </defs>
     <use xlink:href="#DejaVuSerif-Italic-3b8" transform="translate(0 0.7125)"/>
     <use xlink:href="#DejaVuSerif-2a" transform="translate(81.239167 37.046875)scale(0.7)"/>
    </g>
   </g>
  </g>
 </g>
 <defs>
  <clipPath id="p7b727370f9">
   <rect x="29.25" y="63.504" width="150.261429" height="160.776"/>
  </clipPath>
 </defs>
</svg>
