<?xml version="1.0" encoding="utf-8" standalone="no"?>
<!DOCTYPE svg PUBLIC "-//W3C//DTD SVG 1.1//EN"
  "http://www.w3.org/Graphics/SVG/1.1/DTD/svg11.dtd">
<svg xmlns:xlink="http://www.w3.org/1999/xlink" width="288pt" height="172.8pt" viewBox="0 0 288 172.8" xmlns="http://www.w3.org/2000/svg" version="1.1">
 <metadata>
  <rdf:RDF xmlns:dc="http://purl.org/dc/elements/1.1/" xmlns:cc="http://creativecommons.org/ns#" xmlns:rdf="http://www.w3.org/1999/02/22-rdf-syntax-ns#">
   <cc:Work>
    <dc:type rdf:resource="http://purl.org/dc/dcmitype/StillImage"/>
    <dc:date>2023-05-19T11:58:49.135291</dc:date>
    <dc:format>image/svg+xml</dc:format>
    <dc:creator>
     <cc:Agent>
      <dc:title>Matplotlib v3.5.0, https://matplotlib.org/</dc:title>
     </cc:Agent>
    </dc:creator>
   </cc:Work>
  </rdf:RDF>
 </metadata>
 <defs>
  <style type="text/css">*{stroke-linejoin: round; stroke-linecap: butt}</style>
 </defs>
 <g id="figure_1">
  <g id="patch_1">
   <path d="M 0 172.8 
L 288 172.8 
L 288 0 
L 0 0 
L 0 172.8 
z
" style="fill: none"/>
  </g>
  <g id="axes_1">
   <path d="M 36 118.434964 
L 36.4464 118.64951 
L 36.8928 118.426379 
L 37.3392 118.510128 
L 37.7856 118.128802 
L 38.232 118.387188 
L 38.6784 118.112513 
L 39.5712 118.275655 
L 40.0176 118.080647 
L 40.464 118.333349 
L 40.9104 118.097438 
L 41.3568 118.002177 
L 41.8032 118.731472 
L 42.2496 118.876139 
L 42.696 118.331735 
L 43.1424 118.755852 
L 43.5888 118.815011 
L 44.4816 118.489098 
L 44.928 118.835263 
L 45.3744 118.618585 
L 45.8208 119.002913 
L 47.16 118.817241 
L 47.6064 118.359478 
L 48.0528 118.434599 
L 48.4992 119.258013 
L 48.9456 118.28961 
L 49.392 118.735637 
L 49.8384 118.686021 
L 50.2848 118.825876 
L 50.7312 118.659634 
L 51.1776 118.729898 
L 51.624 118.649466 
L 52.0704 118.716272 
L 52.5168 119.0658 
L 52.9632 119.267234 
L 53.4096 118.800068 
L 53.856 118.642191 
L 54.3024 119.211087 
L 54.7488 118.82325 
L 55.1952 119.177334 
L 55.6416 118.847191 
L 56.088 119.006418 
L 56.5344 118.650494 
L 56.9808 118.990308 
L 57.4272 118.978627 
L 57.8736 119.212748 
L 58.32 118.703694 
L 58.7664 119.106423 
L 59.2128 118.715044 
L 59.6592 119.247442 
L 60.1056 119.463135 
L 60.552 118.801161 
L 61.4448 119.071384 
L 61.8912 118.860729 
L 62.3376 119.153454 
L 62.784 118.965715 
L 63.6768 119.262575 
L 64.1232 118.936134 
L 64.5696 119.064633 
L 65.016 119.040991 
L 65.4624 119.445705 
L 65.9088 118.838701 
L 66.3552 118.959624 
L 66.8016 119.269972 
L 67.6944 119.367232 
L 68.5872 118.903118 
L 69.0336 119.257891 
L 69.48 119.174065 
L 69.9264 119.377414 
L 70.3728 119.448622 
L 70.8192 118.693012 
L 71.2656 119.10307 
L 72.1584 118.673426 
L 72.6048 119.473341 
L 73.0512 118.796749 
L 73.4976 119.064041 
L 73.944 119.087971 
L 74.8368 118.706787 
L 75.2832 118.100686 
L 75.7296 118.084975 
L 76.176 117.528393 
L 76.6224 118.112736 
L 77.0688 117.701142 
L 77.5152 118.039064 
L 77.9616 117.539065 
L 78.8544 117.62609 
L 79.3008 116.825218 
L 79.7472 116.780623 
L 80.1936 117.106299 
L 80.64 116.545754 
L 81.0864 116.184112 
L 82.4256 116.497461 
L 82.872 116.04093 
L 83.3184 116.014425 
L 84.2112 115.093445 
L 84.6576 115.702487 
L 85.104 115.714408 
L 85.5504 115.392241 
L 85.9968 114.924408 
L 86.4432 115.218928 
L 86.8896 115.162141 
L 87.336 114.719212 
L 87.7824 115.069348 
L 88.2288 114.638544 
L 88.6752 114.549202 
L 89.1216 114.74557 
L 89.568 114.040324 
L 90.0144 114.12602 
L 90.4608 113.672577 
L 90.9072 114.43271 
L 91.3536 113.903796 
L 92.2464 113.525971 
L 92.6928 113.739647 
L 93.1392 113.503315 
L 93.5856 113.647589 
L 94.032 113.150555 
L 94.4784 113.025561 
L 94.9248 113.289777 
L 95.3712 113.240386 
L 95.8176 113.404354 
L 96.264 112.778269 
L 96.7104 112.604124 
L 97.6032 112.757721 
L 98.496 112.411818 
L 98.9424 112.525506 
L 100.728 112.361814 
L 101.6208 111.571684 
L 102.0672 112.039508 
L 102.5136 111.78132 
L 102.96 111.874636 
L 103.4064 111.794408 
L 103.8528 111.408255 
L 105.6384 111.625061 
L 106.0848 110.990087 
L 106.5312 111.252684 
L 106.9776 111.242703 
L 107.424 110.920237 
L 107.8704 110.823049 
L 108.3168 111.097376 
L 108.7632 110.510345 
L 109.656 110.68862 
L 110.1024 109.848625 
L 110.5488 110.260809 
L 110.9952 110.467777 
L 111.888 109.697956 
L 112.3344 109.618087 
L 112.7808 109.81487 
L 113.2272 110.268585 
L 113.6736 109.475044 
L 114.12 109.320388 
L 114.5664 109.38435 
L 115.0128 109.64557 
L 115.4592 109.007361 
L 116.352 108.707844 
L 117.2448 107.784041 
L 117.6912 107.614561 
L 118.1376 107.179783 
L 118.584 106.282478 
L 119.0304 104.641593 
L 119.4768 100.43013 
L 120.3696 69.870081 
L 120.816 71.389605 
L 121.2624 78.854856 
L 122.1552 98.805952 
L 123.048 114.21646 
L 123.4944 118.637524 
L 123.9408 121.440144 
L 124.3872 122.395828 
L 124.8336 122.524165 
L 125.28 123.269603 
L 126.1728 123.689417 
L 126.6192 123.548742 
L 127.0656 122.785407 
L 127.512 122.6329 
L 127.9584 122.741573 
L 128.4048 122.347098 
L 129.2976 122.340242 
L 129.744 122.207459 
L 130.1904 121.587515 
L 131.5296 121.720715 
L 131.976 121.441447 
L 132.4224 121.453189 
L 133.3152 120.901926 
L 133.7616 120.323633 
L 135.1008 120.462209 
L 135.5472 119.983531 
L 135.9936 119.803994 
L 136.44 119.851773 
L 136.8864 119.542749 
L 137.3328 119.852768 
L 137.7792 118.922744 
L 138.2256 119.301255 
L 138.672 119.187143 
L 139.1184 118.785027 
L 139.5648 118.642996 
L 140.0112 118.341802 
L 140.904 118.635004 
L 141.3504 118.1792 
L 141.7968 118.326216 
L 142.6896 118.145657 
L 143.136 118.169435 
L 143.5824 117.521473 
L 144.0288 117.116775 
L 144.4752 117.65071 
L 144.9216 117.654967 
L 145.368 117.126142 
L 145.8144 117.343137 
L 146.7072 117.403731 
L 148.0464 116.481611 
L 148.9392 116.560917 
L 149.3856 116.303793 
L 149.832 116.75695 
L 150.2784 116.46166 
L 150.7248 116.638957 
L 151.1712 116.384818 
L 151.6176 115.914302 
L 152.064 115.936902 
L 152.5104 116.274648 
L 152.9568 115.882091 
L 153.8496 115.772724 
L 154.296 115.333342 
L 154.7424 115.676574 
L 155.1888 115.236931 
L 156.0816 114.934566 
L 156.528 115.0791 
L 156.9744 114.781893 
L 157.4208 114.990262 
L 157.8672 114.991219 
L 158.76 114.72512 
L 159.2064 115.002176 
L 159.6528 114.672087 
L 160.0992 114.822497 
L 160.992 114.46751 
L 161.4384 114.899146 
L 161.8848 114.308772 
L 162.3312 114.276111 
L 163.224 114.576776 
L 164.1168 114.23693 
L 164.5632 113.997436 
L 165.456 113.943069 
L 165.9024 114.245075 
L 166.3488 113.938137 
L 166.7952 113.42206 
L 167.2416 113.901908 
L 167.688 113.459207 
L 168.5808 113.959981 
L 169.0272 113.555823 
L 169.4736 113.42017 
L 169.92 113.711196 
L 170.3664 113.232965 
L 170.8128 113.151018 
L 171.2592 113.523025 
L 172.5984 112.804928 
L 173.0448 112.895023 
L 173.4912 112.846877 
L 173.9376 113.188184 
L 174.384 112.979141 
L 174.8304 113.06173 
L 175.7232 112.989654 
L 176.1696 113.45786 
L 176.616 112.571913 
L 177.0624 112.569602 
L 177.5088 112.155217 
L 178.4016 112.976403 
L 179.2944 112.450337 
L 179.7408 112.387884 
L 180.1872 112.759343 
L 181.08 112.714207 
L 181.5264 112.767677 
L 181.9728 112.40713 
L 182.4192 112.773712 
L 182.8656 112.935884 
L 183.312 112.202889 
L 184.2048 112.335672 
L 184.6512 111.990604 
L 185.0976 112.052551 
L 185.544 111.930882 
L 185.9904 112.546496 
L 186.8832 112.083653 
L 187.3296 112.059642 
L 187.776 112.250843 
L 188.2224 111.898544 
L 188.6688 111.910202 
L 189.1152 112.131561 
L 190.008 111.781159 
L 190.9008 111.807355 
L 191.7936 112.191689 
L 192.24 112.202184 
L 193.5792 111.63169 
L 194.9184 111.923574 
L 196.2576 111.823915 
L 196.704 111.382978 
L 197.1504 111.305984 
L 197.5968 111.62354 
L 198.0432 111.374045 
L 198.4896 111.488791 
L 198.936 110.991486 
L 199.3824 111.209165 
L 199.8288 111.576027 
L 200.2752 111.121009 
L 200.7216 111.325527 
L 201.168 111.148297 
L 201.6144 111.195028 
L 202.0608 111.1097 
L 202.5072 111.488101 
L 203.8464 110.863677 
L 204.7392 111.280037 
L 205.1856 111.268148 
L 205.632 110.792768 
L 206.9712 111.37747 
L 207.4176 110.855014 
L 207.864 110.842577 
L 208.7568 111.214061 
L 209.2032 110.470694 
L 209.6496 110.997534 
L 210.096 111.218091 
L 210.5424 110.561433 
L 210.9888 110.685757 
L 211.4352 111.168351 
L 211.8816 110.325331 
L 212.328 110.472812 
L 212.7744 110.746716 
L 213.6672 110.055442 
L 214.1136 110.630094 
L 215.0064 110.749251 
L 215.4528 110.379083 
L 215.8992 110.40794 
L 216.3456 110.258246 
L 216.792 110.385544 
L 217.2384 110.754079 
L 218.1312 110.249105 
L 218.5776 110.38 
L 219.024 110.098842 
L 219.9168 110.081549 
L 220.3632 109.91361 
L 222.1488 110.211541 
L 222.5952 109.980625 
L 223.0416 110.604758 
L 223.488 110.61295 
L 223.9344 110.894625 
L 224.3808 110.744958 
L 224.8272 111.218662 
L 225.2736 111.31928 
L 225.72 111.034367 
L 226.1664 111.508444 
L 226.6128 111.801814 
L 227.0592 111.534696 
L 227.952 112.119501 
L 228.8448 112.068803 
L 229.2912 113.04291 
L 229.7376 112.57192 
L 230.6304 112.700575 
L 231.0768 113.005255 
L 231.5232 113.0675 
L 231.9696 113.37389 
L 232.416 113.500141 
L 232.8624 113.828549 
L 233.3088 113.876423 
L 233.7552 114.257639 
L 234.2016 113.796806 
L 234.648 113.796371 
L 235.0944 114.020275 
L 235.5408 114.405518 
L 235.9872 114.386086 
L 236.4336 114.664455 
L 236.88 114.785783 
L 237.3264 115.23816 
L 237.7728 114.744172 
L 239.112 115.136105 
L 239.5584 115.687923 
L 240.0048 115.44697 
L 241.344 115.753061 
L 241.7904 116.283389 
L 242.2368 115.415499 
L 242.6832 116.183722 
L 243.1296 115.891617 
L 243.576 116.076395 
L 244.0224 116.449052 
L 244.4688 116.264328 
L 244.9152 116.373387 
L 245.3616 116.611829 
L 245.808 116.529265 
L 246.2544 116.746423 
L 247.1472 116.698793 
L 247.5936 116.937901 
L 248.04 117.363257 
L 248.9328 117.118328 
L 249.3792 117.401704 
L 249.8256 117.460903 
L 250.272 117.201032 
L 250.7184 117.733599 
L 251.1648 117.229597 
L 251.6112 117.244777 
L 252.0576 117.539069 
L 252.504 117.54427 
L 252.9504 118.010156 
L 253.3968 118.088508 
L 253.8432 117.715601 
L 254.2896 117.800896 
L 254.736 118.061867 
L 255.1824 117.577671 
L 255.6288 117.722829 
L 256.5216 118.373271 
L 256.968 118.055181 
L 257.4144 118.394785 
L 257.8608 118.464701 
L 258.3072 118.293133 
L 258.7536 119.131558 
L 258.7536 119.131558 
" clip-path="url(#pca55e15134)" style="fill: none; stroke: #000000; stroke-width: 3.5; stroke-linecap: square"/>
   <path d="M 36 118.434964 
L 36.4464 118.64951 
L 36.8928 118.426379 
L 37.3392 118.510128 
L 37.7856 118.128802 
L 38.232 118.387188 
L 38.6784 118.112513 
L 39.5712 118.275655 
L 40.0176 118.080647 
L 40.464 118.333349 
L 40.9104 118.097438 
L 41.3568 118.002177 
L 41.8032 118.731472 
L 42.2496 118.876139 
L 42.696 118.331735 
L 43.1424 118.755852 
L 43.5888 118.815011 
L 44.4816 118.489098 
L 44.928 118.835263 
L 45.3744 118.618585 
L 45.8208 119.002913 
L 47.16 118.817241 
L 47.6064 118.359478 
L 48.0528 118.434599 
L 48.4992 119.258013 
L 48.9456 118.28961 
L 49.392 118.735637 
L 49.8384 118.686021 
L 50.2848 118.825876 
L 50.7312 118.659634 
L 51.1776 118.729898 
L 51.624 118.649466 
L 52.0704 118.716272 
L 52.5168 119.0658 
L 52.9632 119.267234 
L 53.4096 118.800068 
L 53.856 118.642191 
L 54.3024 119.211087 
L 54.7488 118.82325 
L 55.1952 119.177334 
L 55.6416 118.847191 
L 56.088 119.006418 
L 56.5344 118.650494 
L 56.9808 118.990308 
L 57.4272 118.978627 
L 57.8736 119.212748 
L 58.32 118.703694 
L 58.7664 119.106423 
L 59.2128 118.715044 
L 59.6592 119.247442 
L 60.1056 119.463135 
L 60.552 118.801161 
L 61.4448 119.071384 
L 61.8912 118.860729 
L 62.3376 119.153454 
L 62.784 118.965715 
L 63.6768 119.262575 
L 64.1232 118.936134 
L 64.5696 119.064633 
L 65.016 119.040991 
L 65.4624 119.445705 
L 65.9088 118.838701 
L 66.3552 118.959624 
L 66.8016 119.269972 
L 67.6944 119.367232 
L 68.5872 118.903118 
L 69.0336 119.257891 
L 69.48 119.174065 
L 69.9264 119.377414 
L 70.3728 119.448622 
L 70.8192 118.693012 
L 71.2656 119.10307 
L 72.1584 118.673426 
L 72.6048 119.473341 
L 73.0512 118.796749 
L 73.4976 119.064041 
L 73.944 119.087971 
L 74.8368 118.706787 
L 75.2832 118.100686 
L 75.7296 118.084975 
L 76.176 117.528393 
L 76.6224 118.112736 
L 77.0688 117.701142 
L 77.5152 118.039064 
L 77.9616 117.539065 
L 78.8544 117.62609 
L 79.3008 116.825218 
L 79.7472 116.780623 
L 80.1936 117.106299 
L 80.64 116.545754 
L 81.0864 116.184112 
L 82.4256 116.497461 
L 82.872 116.04093 
L 83.3184 116.014425 
L 84.2112 115.093445 
L 84.6576 115.702487 
L 85.104 115.714408 
L 85.5504 115.392241 
L 85.9968 114.924408 
L 86.4432 115.218928 
L 86.8896 115.162141 
L 87.336 114.719212 
L 87.7824 115.069348 
L 88.2288 114.638544 
L 88.6752 114.549202 
L 89.1216 114.74557 
L 89.568 114.040324 
L 90.0144 114.12602 
L 90.4608 113.672577 
L 90.9072 114.43271 
L 91.3536 113.903796 
L 92.2464 113.525971 
L 92.6928 113.739647 
L 93.1392 113.503315 
L 93.5856 113.647589 
L 94.032 113.150555 
L 94.4784 113.025561 
L 94.9248 113.289777 
L 95.3712 113.240386 
L 95.8176 113.404354 
L 96.264 112.778269 
L 96.7104 112.604124 
L 97.6032 112.757721 
L 98.496 112.411818 
L 98.9424 112.525506 
L 100.728 112.361814 
L 101.6208 111.571684 
L 102.0672 112.039508 
L 102.5136 111.78132 
L 102.96 111.874636 
L 103.4064 111.794408 
L 103.8528 111.408255 
L 105.6384 111.625061 
L 106.0848 110.990087 
L 106.5312 111.252684 
L 106.9776 111.242703 
L 107.424 110.920237 
L 107.8704 110.823049 
L 108.3168 111.097376 
L 108.7632 110.510345 
L 109.656 110.68862 
L 110.1024 109.848625 
L 110.5488 110.260809 
L 110.9952 110.467777 
L 111.888 109.697956 
L 112.3344 109.618087 
L 112.7808 109.81487 
L 113.2272 110.268585 
L 113.6736 109.475044 
L 114.12 109.320388 
L 114.5664 109.38435 
L 115.0128 109.64557 
L 115.4592 109.007361 
L 116.352 108.707844 
L 117.2448 107.784041 
L 117.6912 107.614561 
L 118.1376 107.179783 
L 118.584 106.282478 
L 119.0304 104.641593 
L 119.4768 100.43013 
L 120.3696 69.870081 
L 120.816 71.389605 
L 121.2624 78.854856 
L 122.1552 98.805952 
L 123.048 114.21646 
L 123.4944 118.637524 
L 123.9408 121.440144 
L 124.3872 122.395828 
L 124.8336 122.524165 
L 125.28 123.269603 
L 126.1728 123.689417 
L 126.6192 123.548742 
L 127.0656 122.785407 
L 127.512 122.6329 
L 127.9584 122.741573 
L 128.4048 122.347098 
L 129.2976 122.340242 
L 129.744 122.207459 
L 130.1904 121.587515 
L 131.5296 121.720715 
L 131.976 121.441447 
L 132.4224 121.453189 
L 133.3152 120.901926 
L 133.7616 120.323633 
L 135.1008 120.462209 
L 135.5472 119.983531 
L 135.9936 119.803994 
L 136.44 119.851773 
L 136.8864 119.542749 
L 137.3328 119.852768 
L 137.7792 118.922744 
L 138.2256 119.301255 
L 138.672 119.187143 
L 139.1184 118.785027 
L 139.5648 118.642996 
L 140.0112 118.341802 
L 140.904 118.635004 
L 141.3504 118.1792 
L 141.7968 118.326216 
L 142.6896 118.145657 
L 143.136 118.169435 
L 143.5824 117.521473 
L 144.0288 117.116775 
L 144.4752 117.65071 
L 144.9216 117.654967 
L 145.368 117.126142 
L 145.8144 117.343137 
L 146.7072 117.403731 
L 148.0464 116.481611 
L 148.9392 116.560917 
L 149.3856 116.303793 
L 149.832 116.75695 
L 150.2784 116.46166 
L 150.7248 116.638957 
L 151.1712 116.384818 
L 151.6176 115.914302 
L 152.064 115.936902 
L 152.5104 116.274648 
L 152.9568 115.882091 
L 153.8496 115.772724 
L 154.296 115.333342 
L 154.7424 115.676574 
L 155.1888 115.236931 
L 156.0816 114.934566 
L 156.528 115.0791 
L 156.9744 114.781893 
L 157.4208 114.990262 
L 157.8672 114.991219 
L 158.76 114.72512 
L 159.2064 115.002176 
L 159.6528 114.672087 
L 160.0992 114.822497 
L 160.992 114.46751 
L 161.4384 114.899146 
L 161.8848 114.308772 
L 162.3312 114.276111 
L 163.224 114.576776 
L 164.1168 114.23693 
L 164.5632 113.997436 
L 165.456 113.943069 
L 165.9024 114.245075 
L 166.3488 113.938137 
L 166.7952 113.42206 
L 167.2416 113.901908 
L 167.688 113.459207 
L 168.5808 113.959981 
L 169.0272 113.555823 
L 169.4736 113.42017 
L 169.92 113.711196 
L 170.3664 113.232965 
L 170.8128 113.151018 
L 171.2592 113.523025 
L 172.5984 112.804928 
L 173.0448 112.895023 
L 173.4912 112.846877 
L 173.9376 113.188184 
L 174.384 112.979141 
L 174.8304 113.06173 
L 175.7232 112.989654 
L 176.1696 113.45786 
L 176.616 112.571913 
L 177.0624 112.569602 
L 177.5088 112.155217 
L 178.4016 112.976403 
L 179.2944 112.450337 
L 179.7408 112.387884 
L 180.1872 112.759343 
L 181.08 112.714207 
L 181.5264 112.767677 
L 181.9728 112.40713 
L 182.4192 112.773712 
L 182.8656 112.935884 
L 183.312 112.202889 
L 184.2048 112.335672 
L 184.6512 111.990604 
L 185.0976 112.052551 
L 185.544 111.930882 
L 185.9904 112.546496 
L 186.8832 112.083653 
L 187.3296 112.059642 
L 187.776 112.250843 
L 188.2224 111.898544 
L 188.6688 111.910202 
L 189.1152 112.131561 
L 190.008 111.781159 
L 190.9008 111.807355 
L 191.7936 112.191689 
L 192.24 112.202184 
L 193.5792 111.63169 
L 194.9184 111.923574 
L 196.2576 111.823915 
L 196.704 111.382978 
L 197.1504 111.305984 
L 197.5968 111.62354 
L 198.0432 111.374045 
L 198.4896 111.488791 
L 198.936 110.991486 
L 199.3824 111.209165 
L 199.8288 111.576027 
L 200.2752 111.121009 
L 200.7216 111.325527 
L 201.168 111.148297 
L 201.6144 111.195028 
L 202.0608 111.1097 
L 202.5072 111.488101 
L 203.8464 110.863677 
L 204.7392 111.280037 
L 205.1856 111.268148 
L 205.632 110.792768 
L 206.9712 111.37747 
L 207.4176 110.855014 
L 207.864 110.842577 
L 208.7568 111.214061 
L 209.2032 110.470694 
L 209.6496 110.997534 
L 210.096 111.218091 
L 210.5424 110.561433 
L 210.9888 110.685757 
L 211.4352 111.168351 
L 211.8816 110.325331 
L 212.328 110.472812 
L 212.7744 110.746716 
L 213.6672 110.055442 
L 214.1136 110.630094 
L 215.0064 110.749251 
L 215.4528 110.379083 
L 215.8992 110.40794 
L 216.3456 110.258246 
L 216.792 110.385544 
L 217.2384 110.754079 
L 218.1312 110.249105 
L 218.5776 110.38 
L 219.024 110.098842 
L 219.9168 110.081549 
L 220.3632 109.91361 
L 222.1488 110.211541 
L 222.5952 109.980625 
L 223.0416 110.604758 
L 223.488 110.61295 
L 223.9344 110.894625 
L 224.3808 110.744958 
L 224.8272 111.218662 
L 225.2736 111.31928 
L 225.72 111.034367 
L 226.1664 111.508444 
L 226.6128 111.801814 
L 227.0592 111.534696 
L 227.952 112.119501 
L 228.8448 112.068803 
L 229.2912 113.04291 
L 229.7376 112.57192 
L 230.6304 112.700575 
L 231.0768 113.005255 
L 231.5232 113.0675 
L 231.9696 113.37389 
L 232.416 113.500141 
L 232.8624 113.828549 
L 233.3088 113.876423 
L 233.7552 114.257639 
L 234.2016 113.796806 
L 234.648 113.796371 
L 235.0944 114.020275 
L 235.5408 114.405518 
L 235.9872 114.386086 
L 236.4336 114.664455 
L 236.88 114.785783 
L 237.3264 115.23816 
L 237.7728 114.744172 
L 239.112 115.136105 
L 239.5584 115.687923 
L 240.0048 115.44697 
L 241.344 115.753061 
L 241.7904 116.283389 
L 242.2368 115.415499 
L 242.6832 116.183722 
L 243.1296 115.891617 
L 243.576 116.076395 
L 244.0224 116.449052 
L 244.4688 116.264328 
L 244.9152 116.373387 
L 245.3616 116.611829 
L 245.808 116.529265 
L 246.2544 116.746423 
L 247.1472 116.698793 
L 247.5936 116.937901 
L 248.04 117.363257 
L 248.9328 117.118328 
L 249.3792 117.401704 
L 249.8256 117.460903 
L 250.272 117.201032 
L 250.7184 117.733599 
L 251.1648 117.229597 
L 251.6112 117.244777 
L 252.0576 117.539069 
L 252.504 117.54427 
L 252.9504 118.010156 
L 253.3968 118.088508 
L 253.8432 117.715601 
L 254.2896 117.800896 
L 254.736 118.061867 
L 255.1824 117.577671 
L 255.6288 117.722829 
L 256.5216 118.373271 
L 256.968 118.055181 
L 257.4144 118.394785 
L 257.8608 118.464701 
L 258.3072 118.293133 
L 258.7536 119.131558 
L 258.7536 119.131558 
" clip-path="url(#pca55e15134)" style="fill: none; stroke: #08519c; stroke-width: 1.8; stroke-linecap: square"/>
  </g>
 </g>
 <defs>
  <clipPath id="pca55e15134">
   <rect x="36" y="20.736" width="223.2" height="133.056"/>
  </clipPath>
 </defs>
</svg>
