<?xml version="1.0" encoding="utf-8" standalone="no"?>
<!DOCTYPE svg PUBLIC "-//W3C//DTD SVG 1.1//EN"
  "http://www.w3.org/Graphics/SVG/1.1/DTD/svg11.dtd">
<svg xmlns:xlink="http://www.w3.org/1999/xlink" width="180pt" height="108pt" viewBox="0 0 180 108" xmlns="http://www.w3.org/2000/svg" version="1.1">
 <metadata>
  <rdf:RDF xmlns:dc="http://purl.org/dc/elements/1.1/" xmlns:cc="http://creativecommons.org/ns#" xmlns:rdf="http://www.w3.org/1999/02/22-rdf-syntax-ns#">
   <cc:Work>
    <dc:type rdf:resource="http://purl.org/dc/dcmitype/StillImage"/>
    <dc:date>2023-05-19T11:59:24.014692</dc:date>
    <dc:format>image/svg+xml</dc:format>
    <dc:creator>
     <cc:Agent>
      <dc:title>Matplotlib v3.5.0, https://matplotlib.org/</dc:title>
     </cc:Agent>
    </dc:creator>
   </cc:Work>
  </rdf:RDF>
 </metadata>
 <defs>
  <style type="text/css">*{stroke-linejoin: round; stroke-linecap: butt}</style>
 </defs>
 <g id="figure_1">
  <g id="patch_1">
   <path d="M 0 108 
L 180 108 
L 180 0 
L 0 0 
L 0 108 
z
" style="fill: none"/>
  </g>
  <g id="axes_1">
   <path d="M 22.5 73.814788 
L 23.058 73.988087 
L 23.337 73.878433 
L 23.616 74.043953 
L 24.174 74.068686 
L 24.453 73.864993 
L 25.011 74.367185 
L 25.29 74.060785 
L 25.569 74.096575 
L 26.685 73.876047 
L 26.964 74.005475 
L 27.243 73.959942 
L 27.801 74.329473 
L 28.359 74.142205 
L 28.638 74.405316 
L 29.196 74.091267 
L 29.475 74.541954 
L 29.754 74.291325 
L 30.033 74.398409 
L 30.312 74.12598 
L 30.87 74.371876 
L 31.149 74.141641 
L 31.428 74.283542 
L 31.707 74.223101 
L 32.544 74.389679 
L 33.102 74.172406 
L 33.381 74.322225 
L 33.66 73.942213 
L 33.939 74.202058 
L 34.218 74.287493 
L 34.776 74.106811 
L 35.055 74.26642 
L 35.334 74.240109 
L 35.613 74.524352 
L 35.892 74.235716 
L 36.729 74.631859 
L 37.008 74.176198 
L 37.287 74.453362 
L 37.566 74.499785 
L 38.124 74.19049 
L 38.403 74.487959 
L 39.798 74.289015 
L 40.356 74.709144 
L 40.635 74.521454 
L 40.914 74.490368 
L 41.193 74.597748 
L 42.03 74.32791 
L 42.309 74.508655 
L 42.588 74.865499 
L 42.867 74.238451 
L 43.704 74.505265 
L 43.983 74.299245 
L 44.262 74.403286 
L 44.541 74.321773 
L 44.82 74.442842 
L 45.099 74.386904 
L 45.378 74.661357 
L 45.657 74.464145 
L 45.936 74.42247 
L 46.215 74.226271 
L 46.494 74.313886 
L 46.773 74.217419 
L 47.052 73.708309 
L 47.61 74.004978 
L 47.889 73.584202 
L 48.726 73.660394 
L 49.005 73.343358 
L 49.563 73.198809 
L 49.842 72.990029 
L 50.121 73.167596 
L 50.679 72.519655 
L 50.958 72.870334 
L 51.795 72.144596 
L 52.074 72.359888 
L 52.911 72.023388 
L 53.19 72.091591 
L 53.469 71.862402 
L 53.748 71.943134 
L 54.027 71.743683 
L 54.585 71.994029 
L 55.143 71.47472 
L 55.422 71.708598 
L 55.701 71.349395 
L 55.98 71.459914 
L 56.259 71.175716 
L 56.817 71.29516 
L 57.096 71.022008 
L 57.375 70.927211 
L 57.654 71.226871 
L 58.491 70.865418 
L 58.77 70.610207 
L 59.049 70.893026 
L 59.328 70.712874 
L 59.607 70.790718 
L 59.886 70.419405 
L 60.165 70.51312 
L 61.002 70.226608 
L 61.281 70.439141 
L 61.56 70.433265 
L 62.118 70.205036 
L 62.397 70.358713 
L 62.676 70.047999 
L 63.234 69.73905 
L 63.513 69.989558 
L 63.792 69.855473 
L 64.071 69.918921 
L 64.35 69.693839 
L 64.629 69.732363 
L 64.908 69.637583 
L 65.466 69.66844 
L 66.024 69.52461 
L 66.303 69.650658 
L 66.582 69.498033 
L 66.861 69.2086 
L 67.419 69.469914 
L 67.698 69.206377 
L 67.977 69.246982 
L 68.535 69.018326 
L 69.093 69.211463 
L 69.93 68.766588 
L 70.209 69.04229 
L 71.046 68.226176 
L 71.883 68.613016 
L 72.441 67.957317 
L 72.72 68.019361 
L 72.999 67.783914 
L 73.278 67.820889 
L 74.394 65.901881 
L 74.673 64.167728 
L 74.952 57.824943 
L 75.231 45.862956 
L 75.51 43.422738 
L 75.789 46.615513 
L 77.184 71.672766 
L 77.463 74.040442 
L 78.021 76.114864 
L 78.3 76.591329 
L 78.579 76.137084 
L 78.858 76.717174 
L 79.137 76.523458 
L 79.416 76.500482 
L 79.695 76.221944 
L 80.253 76.288194 
L 80.811 75.792765 
L 81.09 75.731508 
L 81.369 75.853229 
L 81.648 75.647442 
L 81.927 75.733974 
L 82.206 75.688878 
L 82.485 75.255722 
L 82.764 75.349142 
L 83.043 75.643999 
L 83.601 75.072616 
L 83.88 75.073111 
L 84.438 74.916947 
L 84.996 74.80374 
L 85.275 74.352557 
L 85.554 74.501206 
L 85.833 74.492244 
L 86.112 74.19344 
L 86.391 74.433725 
L 86.67 73.969529 
L 86.949 74.172795 
L 87.228 73.938074 
L 87.507 74.011304 
L 87.786 73.748992 
L 88.344 74.131561 
L 88.623 73.57523 
L 89.181 73.862669 
L 89.46 73.586264 
L 89.739 73.675627 
L 90.018 73.535069 
L 90.297 73.221992 
L 91.413 73.229699 
L 91.692 72.948783 
L 91.971 73.224484 
L 92.25 72.816079 
L 92.529 73.020522 
L 92.808 72.72776 
L 93.087 72.651242 
L 93.366 72.397304 
L 94.203 72.639816 
L 94.482 72.417562 
L 95.04 72.533341 
L 95.598 72.159547 
L 95.877 72.39521 
L 96.156 72.09145 
L 96.435 72.128483 
L 96.714 71.962257 
L 96.993 72.102826 
L 97.272 71.884631 
L 97.551 72.142423 
L 97.83 72.065321 
L 98.109 71.610687 
L 98.388 71.905223 
L 99.225 71.67051 
L 99.783 71.705128 
L 100.062 71.281219 
L 100.341 71.413971 
L 100.62 71.722334 
L 100.899 71.175509 
L 101.178 71.575754 
L 101.457 71.254243 
L 101.736 71.227128 
L 102.015 71.425462 
L 102.294 71.313306 
L 102.852 71.324214 
L 103.131 71.198513 
L 103.41 71.459301 
L 103.689 71.184659 
L 103.968 71.322716 
L 104.247 71.041349 
L 104.805 71.115509 
L 105.084 71.315152 
L 105.363 71.002787 
L 105.921 71.182524 
L 106.479 70.904444 
L 106.758 70.591985 
L 107.037 71.13199 
L 107.595 70.620368 
L 107.874 71.064287 
L 108.432 70.707082 
L 108.711 70.554821 
L 109.548 70.748155 
L 109.827 70.495168 
L 110.385 70.610218 
L 111.222 70.378609 
L 112.617 70.523079 
L 113.175 70.27618 
L 113.454 70.335465 
L 113.733 70.23808 
L 114.291 70.33894 
L 114.849 70.160338 
L 115.407 70.344741 
L 117.36 69.960579 
L 117.639 70.427728 
L 117.918 70.184028 
L 118.755 70.13911 
L 119.034 69.755801 
L 119.313 69.974103 
L 119.871 70.158532 
L 120.15 69.843918 
L 120.429 70.04 
L 121.266 70.075621 
L 121.545 69.947716 
L 121.824 69.95801 
L 122.103 69.84663 
L 122.661 69.942313 
L 123.219 69.511248 
L 123.498 69.932881 
L 123.777 69.594231 
L 124.056 69.778871 
L 124.335 69.563836 
L 124.893 70.034037 
L 125.172 69.561837 
L 125.451 69.727715 
L 125.73 69.612449 
L 126.009 69.64078 
L 126.288 69.391858 
L 126.567 69.560124 
L 126.846 69.50496 
L 127.125 69.787985 
L 127.404 69.537914 
L 127.683 69.569471 
L 127.962 69.847506 
L 128.241 69.623522 
L 128.799 69.758977 
L 129.357 69.227799 
L 129.636 69.417448 
L 129.915 69.208828 
L 130.194 69.574228 
L 131.031 69.486873 
L 131.31 69.178307 
L 131.868 69.60854 
L 132.426 69.312307 
L 132.705 69.410915 
L 132.984 69.335208 
L 133.263 69.505349 
L 133.542 69.310655 
L 134.1 69.367777 
L 134.379 69.321982 
L 134.658 69.019323 
L 134.937 69.153278 
L 135.216 69.468294 
L 135.495 69.233811 
L 136.053 69.312686 
L 136.611 69.223984 
L 137.448 68.95823 
L 138.006 69.468338 
L 138.285 69.194057 
L 139.122 69.615548 
L 139.401 69.328304 
L 139.68 69.382464 
L 139.959 69.75677 
L 140.517 69.606787 
L 140.796 69.678159 
L 141.075 70.204849 
L 141.633 70.133347 
L 141.912 70.424101 
L 142.191 70.231753 
L 142.47 70.552185 
L 143.028 70.604599 
L 143.586 70.813109 
L 143.865 71.129665 
L 144.144 71.201595 
L 144.423 71.059247 
L 144.981 71.273646 
L 145.26 71.36323 
L 145.539 71.610871 
L 145.818 71.347138 
L 146.097 71.71034 
L 146.376 71.847912 
L 146.934 71.596376 
L 147.213 72.038142 
L 147.771 71.956019 
L 148.05 71.827926 
L 149.445 72.47688 
L 149.724 72.176353 
L 150.003 72.404526 
L 150.282 72.485399 
L 150.561 72.774294 
L 150.84 72.333672 
L 151.398 72.883269 
L 151.956 72.855602 
L 152.235 73.058331 
L 152.793 72.941483 
L 153.072 72.961206 
L 153.351 73.124256 
L 153.63 73.096742 
L 153.909 73.412407 
L 154.188 73.001126 
L 154.467 73.76191 
L 154.746 73.200901 
L 155.583 73.560238 
L 156.141 73.610424 
L 156.42 73.830131 
L 156.699 73.665341 
L 156.978 73.801781 
L 157.257 73.621857 
L 157.536 73.748288 
L 158.094 73.716557 
L 158.373 74.004942 
L 158.652 73.867245 
L 158.931 73.908847 
L 159.21 74.087509 
L 159.489 74.021603 
L 160.326 74.248577 
L 160.605 74.011807 
L 160.884 74.354462 
L 161.163 74.363205 
L 161.442 74.17919 
L 161.721 74.159313 
L 161.721 74.159313 
" clip-path="url(#pb8559d9152)" style="fill: none; stroke: #000000; stroke-width: 3.2; stroke-linecap: square"/>
   <path d="M 22.5 73.814788 
L 23.058 73.988087 
L 23.337 73.878433 
L 23.616 74.043953 
L 24.174 74.068686 
L 24.453 73.864993 
L 25.011 74.367185 
L 25.29 74.060785 
L 25.569 74.096575 
L 26.685 73.876047 
L 26.964 74.005475 
L 27.243 73.959942 
L 27.801 74.329473 
L 28.359 74.142205 
L 28.638 74.405316 
L 29.196 74.091267 
L 29.475 74.541954 
L 29.754 74.291325 
L 30.033 74.398409 
L 30.312 74.12598 
L 30.87 74.371876 
L 31.149 74.141641 
L 31.428 74.283542 
L 31.707 74.223101 
L 32.544 74.389679 
L 33.102 74.172406 
L 33.381 74.322225 
L 33.66 73.942213 
L 33.939 74.202058 
L 34.218 74.287493 
L 34.776 74.106811 
L 35.055 74.26642 
L 35.334 74.240109 
L 35.613 74.524352 
L 35.892 74.235716 
L 36.729 74.631859 
L 37.008 74.176198 
L 37.287 74.453362 
L 37.566 74.499785 
L 38.124 74.19049 
L 38.403 74.487959 
L 39.798 74.289015 
L 40.356 74.709144 
L 40.635 74.521454 
L 40.914 74.490368 
L 41.193 74.597748 
L 42.03 74.32791 
L 42.309 74.508655 
L 42.588 74.865499 
L 42.867 74.238451 
L 43.704 74.505265 
L 43.983 74.299245 
L 44.262 74.403286 
L 44.541 74.321773 
L 44.82 74.442842 
L 45.099 74.386904 
L 45.378 74.661357 
L 45.657 74.464145 
L 45.936 74.42247 
L 46.215 74.226271 
L 46.494 74.313886 
L 46.773 74.217419 
L 47.052 73.708309 
L 47.61 74.004978 
L 47.889 73.584202 
L 48.726 73.660394 
L 49.005 73.343358 
L 49.563 73.198809 
L 49.842 72.990029 
L 50.121 73.167596 
L 50.679 72.519655 
L 50.958 72.870334 
L 51.795 72.144596 
L 52.074 72.359888 
L 52.911 72.023388 
L 53.19 72.091591 
L 53.469 71.862402 
L 53.748 71.943134 
L 54.027 71.743683 
L 54.585 71.994029 
L 55.143 71.47472 
L 55.422 71.708598 
L 55.701 71.349395 
L 55.98 71.459914 
L 56.259 71.175716 
L 56.817 71.29516 
L 57.096 71.022008 
L 57.375 70.927211 
L 57.654 71.226871 
L 58.491 70.865418 
L 58.77 70.610207 
L 59.049 70.893026 
L 59.328 70.712874 
L 59.607 70.790718 
L 59.886 70.419405 
L 60.165 70.51312 
L 61.002 70.226608 
L 61.281 70.439141 
L 61.56 70.433265 
L 62.118 70.205036 
L 62.397 70.358713 
L 62.676 70.047999 
L 63.234 69.73905 
L 63.513 69.989558 
L 63.792 69.855473 
L 64.071 69.918921 
L 64.35 69.693839 
L 64.629 69.732363 
L 64.908 69.637583 
L 65.466 69.66844 
L 66.024 69.52461 
L 66.303 69.650658 
L 66.582 69.498033 
L 66.861 69.2086 
L 67.419 69.469914 
L 67.698 69.206377 
L 67.977 69.246982 
L 68.535 69.018326 
L 69.093 69.211463 
L 69.93 68.766588 
L 70.209 69.04229 
L 71.046 68.226176 
L 71.883 68.613016 
L 72.441 67.957317 
L 72.72 68.019361 
L 72.999 67.783914 
L 73.278 67.820889 
L 74.394 65.901881 
L 74.673 64.167728 
L 74.952 57.824943 
L 75.231 45.862956 
L 75.51 43.422738 
L 75.789 46.615513 
L 77.184 71.672766 
L 77.463 74.040442 
L 78.021 76.114864 
L 78.3 76.591329 
L 78.579 76.137084 
L 78.858 76.717174 
L 79.137 76.523458 
L 79.416 76.500482 
L 79.695 76.221944 
L 80.253 76.288194 
L 80.811 75.792765 
L 81.09 75.731508 
L 81.369 75.853229 
L 81.648 75.647442 
L 81.927 75.733974 
L 82.206 75.688878 
L 82.485 75.255722 
L 82.764 75.349142 
L 83.043 75.643999 
L 83.601 75.072616 
L 83.88 75.073111 
L 84.438 74.916947 
L 84.996 74.80374 
L 85.275 74.352557 
L 85.554 74.501206 
L 85.833 74.492244 
L 86.112 74.19344 
L 86.391 74.433725 
L 86.67 73.969529 
L 86.949 74.172795 
L 87.228 73.938074 
L 87.507 74.011304 
L 87.786 73.748992 
L 88.344 74.131561 
L 88.623 73.57523 
L 89.181 73.862669 
L 89.46 73.586264 
L 89.739 73.675627 
L 90.018 73.535069 
L 90.297 73.221992 
L 91.413 73.229699 
L 91.692 72.948783 
L 91.971 73.224484 
L 92.25 72.816079 
L 92.529 73.020522 
L 92.808 72.72776 
L 93.087 72.651242 
L 93.366 72.397304 
L 94.203 72.639816 
L 94.482 72.417562 
L 95.04 72.533341 
L 95.598 72.159547 
L 95.877 72.39521 
L 96.156 72.09145 
L 96.435 72.128483 
L 96.714 71.962257 
L 96.993 72.102826 
L 97.272 71.884631 
L 97.551 72.142423 
L 97.83 72.065321 
L 98.109 71.610687 
L 98.388 71.905223 
L 99.225 71.67051 
L 99.783 71.705128 
L 100.062 71.281219 
L 100.341 71.413971 
L 100.62 71.722334 
L 100.899 71.175509 
L 101.178 71.575754 
L 101.457 71.254243 
L 101.736 71.227128 
L 102.015 71.425462 
L 102.294 71.313306 
L 102.852 71.324214 
L 103.131 71.198513 
L 103.41 71.459301 
L 103.689 71.184659 
L 103.968 71.322716 
L 104.247 71.041349 
L 104.805 71.115509 
L 105.084 71.315152 
L 105.363 71.002787 
L 105.921 71.182524 
L 106.479 70.904444 
L 106.758 70.591985 
L 107.037 71.13199 
L 107.595 70.620368 
L 107.874 71.064287 
L 108.432 70.707082 
L 108.711 70.554821 
L 109.548 70.748155 
L 109.827 70.495168 
L 110.385 70.610218 
L 111.222 70.378609 
L 112.617 70.523079 
L 113.175 70.27618 
L 113.454 70.335465 
L 113.733 70.23808 
L 114.291 70.33894 
L 114.849 70.160338 
L 115.407 70.344741 
L 117.36 69.960579 
L 117.639 70.427728 
L 117.918 70.184028 
L 118.755 70.13911 
L 119.034 69.755801 
L 119.313 69.974103 
L 119.871 70.158532 
L 120.15 69.843918 
L 120.429 70.04 
L 121.266 70.075621 
L 121.545 69.947716 
L 121.824 69.95801 
L 122.103 69.84663 
L 122.661 69.942313 
L 123.219 69.511248 
L 123.498 69.932881 
L 123.777 69.594231 
L 124.056 69.778871 
L 124.335 69.563836 
L 124.893 70.034037 
L 125.172 69.561837 
L 125.451 69.727715 
L 125.73 69.612449 
L 126.009 69.64078 
L 126.288 69.391858 
L 126.567 69.560124 
L 126.846 69.50496 
L 127.125 69.787985 
L 127.404 69.537914 
L 127.683 69.569471 
L 127.962 69.847506 
L 128.241 69.623522 
L 128.799 69.758977 
L 129.357 69.227799 
L 129.636 69.417448 
L 129.915 69.208828 
L 130.194 69.574228 
L 131.031 69.486873 
L 131.31 69.178307 
L 131.868 69.60854 
L 132.426 69.312307 
L 132.705 69.410915 
L 132.984 69.335208 
L 133.263 69.505349 
L 133.542 69.310655 
L 134.1 69.367777 
L 134.379 69.321982 
L 134.658 69.019323 
L 134.937 69.153278 
L 135.216 69.468294 
L 135.495 69.233811 
L 136.053 69.312686 
L 136.611 69.223984 
L 137.448 68.95823 
L 138.006 69.468338 
L 138.285 69.194057 
L 139.122 69.615548 
L 139.401 69.328304 
L 139.68 69.382464 
L 139.959 69.75677 
L 140.517 69.606787 
L 140.796 69.678159 
L 141.075 70.204849 
L 141.633 70.133347 
L 141.912 70.424101 
L 142.191 70.231753 
L 142.47 70.552185 
L 143.028 70.604599 
L 143.586 70.813109 
L 143.865 71.129665 
L 144.144 71.201595 
L 144.423 71.059247 
L 144.981 71.273646 
L 145.26 71.36323 
L 145.539 71.610871 
L 145.818 71.347138 
L 146.097 71.71034 
L 146.376 71.847912 
L 146.934 71.596376 
L 147.213 72.038142 
L 147.771 71.956019 
L 148.05 71.827926 
L 149.445 72.47688 
L 149.724 72.176353 
L 150.003 72.404526 
L 150.282 72.485399 
L 150.561 72.774294 
L 150.84 72.333672 
L 151.398 72.883269 
L 151.956 72.855602 
L 152.235 73.058331 
L 152.793 72.941483 
L 153.072 72.961206 
L 153.351 73.124256 
L 153.63 73.096742 
L 153.909 73.412407 
L 154.188 73.001126 
L 154.467 73.76191 
L 154.746 73.200901 
L 155.583 73.560238 
L 156.141 73.610424 
L 156.42 73.830131 
L 156.699 73.665341 
L 156.978 73.801781 
L 157.257 73.621857 
L 157.536 73.748288 
L 158.094 73.716557 
L 158.373 74.004942 
L 158.652 73.867245 
L 158.931 73.908847 
L 159.21 74.087509 
L 159.489 74.021603 
L 160.326 74.248577 
L 160.605 74.011807 
L 160.884 74.354462 
L 161.163 74.363205 
L 161.442 74.17919 
L 161.721 74.159313 
L 161.721 74.159313 
" clip-path="url(#pb8559d9152)" style="fill: none; stroke: #08519c; stroke-width: 1.6; stroke-linecap: square"/>
  </g>
 </g>
 <defs>
  <clipPath id="pb8559d9152">
   <rect x="22.5" y="12.96" width="139.5" height="83.16"/>
  </clipPath>
 </defs>
</svg>
