<?xml version="1.0" encoding="utf-8" standalone="no"?>
<!DOCTYPE svg PUBLIC "-//W3C//DTD SVG 1.1//EN"
  "http://www.w3.org/Graphics/SVG/1.1/DTD/svg11.dtd">
<svg xmlns:xlink="http://www.w3.org/1999/xlink" width="180pt" height="108pt" viewBox="0 0 180 108" xmlns="http://www.w3.org/2000/svg" version="1.1">
 <metadata>
  <rdf:RDF xmlns:dc="http://purl.org/dc/elements/1.1/" xmlns:cc="http://creativecommons.org/ns#" xmlns:rdf="http://www.w3.org/1999/02/22-rdf-syntax-ns#">
   <cc:Work>
    <dc:type rdf:resource="http://purl.org/dc/dcmitype/StillImage"/>
    <dc:date>2023-01-19T22:45:36.144746</dc:date>
    <dc:format>image/svg+xml</dc:format>
    <dc:creator>
     <cc:Agent>
      <dc:title>Matplotlib v3.5.0, https://matplotlib.org/</dc:title>
     </cc:Agent>
    </dc:creator>
   </cc:Work>
  </rdf:RDF>
 </metadata>
 <defs>
  <style type="text/css">*{stroke-linejoin: round; stroke-linecap: butt}</style>
 </defs>
 <g id="figure_1">
  <g id="patch_1">
   <path d="M 0 108 
L 180 108 
L 180 0 
L 0 0 
L 0 108 
z
" style="fill: none"/>
  </g>
  <g id="axes_1">
   <path d="M 22.5 73.932341 
L 22.779 74.258181 
L 23.058 74.093728 
L 23.616 74.12932 
L 23.895 74.033169 
L 24.174 73.775492 
L 24.732 74.094555 
L 25.011 74.020664 
L 25.29 74.324748 
L 25.569 74.145739 
L 25.848 74.210877 
L 26.127 74.073853 
L 26.406 74.252659 
L 26.685 74.119553 
L 26.964 74.259627 
L 27.243 74.064082 
L 27.801 74.220921 
L 28.08 74.212389 
L 28.359 74.012767 
L 28.638 74.173865 
L 28.917 74.019782 
L 29.475 74.247638 
L 29.754 74.09428 
L 30.033 74.348828 
L 30.312 74.107625 
L 30.591 74.325662 
L 30.87 74.235131 
L 31.149 74.564117 
L 31.428 74.187796 
L 31.986 74.343738 
L 32.544 74.122419 
L 33.102 74.367371 
L 33.381 74.153586 
L 33.66 74.146871 
L 34.218 74.568102 
L 34.497 74.373993 
L 35.334 74.366322 
L 35.613 74.378314 
L 35.892 74.571302 
L 36.45 74.289557 
L 36.729 74.199385 
L 37.008 74.245024 
L 37.287 74.548508 
L 37.566 74.187679 
L 37.845 74.373242 
L 38.124 74.028235 
L 38.403 74.469249 
L 38.682 74.26219 
L 39.519 74.493039 
L 40.077 74.532124 
L 40.356 74.659386 
L 40.914 74.31023 
L 41.193 74.430117 
L 41.472 74.310507 
L 41.751 74.559735 
L 42.309 74.42829 
L 42.588 74.424959 
L 42.867 74.25717 
L 43.146 74.311251 
L 43.425 74.51721 
L 43.983 74.474976 
L 44.262 74.600984 
L 44.541 74.440651 
L 44.82 74.490827 
L 45.099 74.337896 
L 45.378 74.610894 
L 46.215 74.421645 
L 46.773 73.858041 
L 47.331 73.996193 
L 48.168 73.577853 
L 48.726 73.314032 
L 49.005 73.506453 
L 49.284 73.277459 
L 49.842 73.103532 
L 50.121 72.775461 
L 50.4 72.981517 
L 50.679 72.943043 
L 50.958 72.523949 
L 51.237 72.730635 
L 51.516 72.680464 
L 51.795 72.825607 
L 52.074 72.327228 
L 52.632 72.459386 
L 52.911 72.153316 
L 53.19 72.181188 
L 53.469 71.953289 
L 53.748 71.941446 
L 54.027 71.551345 
L 54.306 71.792463 
L 54.585 71.82033 
L 55.701 71.518246 
L 56.538 71.467711 
L 56.817 71.219777 
L 57.096 71.160341 
L 57.375 71.306825 
L 57.654 71.064726 
L 58.491 70.973308 
L 58.77 71.090495 
L 59.049 70.694865 
L 59.328 70.776039 
L 59.607 71.031522 
L 59.886 70.40024 
L 60.165 70.671971 
L 61.002 70.277231 
L 61.281 70.562631 
L 61.56 70.259231 
L 61.839 70.295465 
L 62.676 70.111914 
L 62.955 70.124345 
L 63.234 69.932456 
L 63.513 70.148403 
L 64.908 69.558044 
L 65.187 69.788703 
L 65.466 69.722911 
L 65.745 69.350155 
L 66.024 69.221138 
L 66.303 69.514046 
L 66.582 69.381217 
L 66.861 69.587694 
L 67.14 69.332822 
L 67.419 69.306487 
L 67.698 69.152419 
L 67.977 69.286214 
L 68.256 69.029161 
L 69.93 68.972614 
L 70.209 68.806594 
L 70.488 68.381796 
L 70.767 68.389056 
L 71.046 68.640987 
L 71.325 68.376327 
L 71.604 68.441067 
L 73.278 67.438643 
L 73.836 66.397905 
L 74.115 65.34672 
L 74.394 62.319788 
L 74.952 43.162346 
L 75.231 43.444579 
L 75.789 53.294145 
L 76.626 68.156914 
L 76.905 71.719325 
L 77.463 75.122857 
L 78.021 76.0676 
L 78.3 75.93441 
L 78.579 76.377439 
L 79.695 76.157518 
L 80.253 75.682508 
L 80.532 76.070756 
L 81.09 75.444491 
L 81.369 75.670794 
L 81.648 75.349241 
L 81.927 75.243081 
L 82.206 75.306396 
L 82.485 74.898205 
L 82.764 75.21334 
L 83.043 74.879451 
L 83.322 75.075306 
L 85.275 74.365506 
L 85.554 74.434668 
L 85.833 73.938138 
L 86.112 74.416208 
L 86.391 73.970918 
L 86.67 73.819314 
L 86.949 73.830895 
L 87.228 73.978574 
L 87.507 73.693559 
L 87.786 73.838307 
L 88.065 73.573885 
L 88.344 73.472249 
L 88.623 73.738526 
L 89.739 73.148304 
L 90.297 72.967923 
L 90.576 73.104531 
L 90.855 73.052128 
L 91.134 73.114942 
L 91.413 73.048874 
L 91.692 72.851846 
L 91.971 73.133551 
L 92.25 72.833311 
L 92.808 73.018722 
L 93.087 72.890261 
L 93.366 72.535138 
L 93.645 72.437015 
L 93.924 72.717673 
L 94.203 72.533148 
L 94.482 72.658744 
L 94.761 72.243965 
L 95.319 72.300631 
L 96.156 72.347103 
L 96.435 72.152752 
L 96.714 72.313545 
L 96.993 71.986544 
L 97.83 71.761013 
L 98.109 71.991448 
L 98.667 71.678645 
L 99.225 71.909063 
L 99.504 71.564311 
L 100.062 71.613116 
L 100.341 71.473441 
L 100.62 71.757219 
L 101.457 71.275406 
L 101.736 71.514448 
L 102.294 71.509315 
L 102.852 71.225766 
L 103.131 71.477022 
L 103.689 71.193342 
L 103.968 71.236997 
L 104.247 71.103806 
L 104.526 71.191385 
L 104.805 70.868616 
L 105.084 71.248632 
L 106.479 70.936692 
L 106.758 71.03911 
L 107.874 70.691067 
L 108.153 70.989954 
L 108.432 70.79272 
L 108.711 71.018028 
L 109.269 70.610187 
L 109.548 70.504757 
L 110.664 70.852483 
L 110.943 70.681731 
L 111.222 70.282282 
L 111.78 70.649012 
L 112.059 70.778534 
L 112.617 70.624615 
L 112.896 70.589323 
L 113.175 70.709089 
L 113.454 70.372675 
L 113.733 70.91056 
L 114.012 70.604278 
L 114.291 70.567539 
L 114.57 70.165608 
L 114.849 70.485059 
L 115.128 70.518568 
L 115.407 70.416867 
L 115.686 70.611133 
L 115.965 70.422973 
L 116.244 70.048919 
L 116.802 70.374889 
L 117.36 70.231285 
L 117.639 70.145805 
L 118.197 70.461818 
L 118.476 70.276416 
L 118.755 70.275715 
L 119.034 70.114253 
L 119.313 70.232598 
L 120.708 70.131912 
L 120.987 70.251102 
L 121.824 70.050906 
L 122.103 70.416081 
L 122.382 69.96095 
L 122.661 69.923025 
L 123.498 70.294365 
L 123.777 70.041517 
L 124.056 70.132897 
L 124.335 69.789952 
L 124.614 70.071455 
L 124.893 70.159796 
L 125.172 69.905447 
L 125.451 70.0799 
L 126.009 69.895837 
L 126.288 70.034312 
L 127.125 70.007072 
L 127.404 69.8101 
L 127.683 69.984661 
L 128.241 69.901407 
L 128.52 70.025604 
L 128.799 69.930049 
L 129.078 70.040667 
L 129.636 69.54616 
L 129.915 69.882211 
L 130.473 69.659981 
L 131.031 69.661594 
L 131.589 69.75511 
L 131.868 69.519446 
L 132.147 69.621224 
L 132.426 69.910484 
L 132.705 69.568647 
L 132.984 69.792372 
L 133.821 69.711018 
L 134.1 69.234955 
L 134.379 69.599887 
L 134.658 69.473221 
L 135.216 69.657846 
L 135.495 69.353941 
L 135.774 69.674978 
L 136.053 69.699965 
L 136.332 69.512539 
L 136.89 69.811321 
L 137.169 69.773275 
L 137.448 69.477291 
L 138.285 69.485333 
L 138.564 69.482699 
L 138.843 69.344094 
L 139.122 69.941809 
L 139.401 69.628863 
L 139.68 69.724821 
L 140.238 70.15362 
L 140.517 70.176736 
L 140.796 70.507824 
L 141.075 70.457384 
L 141.354 70.721003 
L 141.633 70.44561 
L 141.912 70.801641 
L 142.191 70.737289 
L 142.749 70.94056 
L 143.028 71.311826 
L 143.307 71.27678 
L 143.586 70.957256 
L 143.865 71.242851 
L 144.144 71.29761 
L 144.423 71.67663 
L 144.702 71.298054 
L 144.981 71.542195 
L 145.818 71.740115 
L 146.376 72.106303 
L 146.655 71.905687 
L 147.213 72.301242 
L 147.492 72.273656 
L 147.771 72.508165 
L 148.05 72.419493 
L 148.329 72.06027 
L 148.887 72.791352 
L 149.445 72.479052 
L 150.003 72.795096 
L 150.282 72.944966 
L 150.561 72.668859 
L 150.84 73.246068 
L 151.119 73.085125 
L 151.677 73.230589 
L 151.956 73.419011 
L 152.235 73.031798 
L 152.793 73.39589 
L 153.072 73.269672 
L 153.351 73.543677 
L 153.63 73.516289 
L 153.909 73.260267 
L 154.188 73.498856 
L 155.304 73.827756 
L 155.583 73.644425 
L 155.862 73.635864 
L 156.141 73.90412 
L 156.978 74.027129 
L 157.257 73.769293 
L 157.536 74.020922 
L 158.094 73.796293 
L 158.373 74.236939 
L 158.652 74.182834 
L 158.931 74.355547 
L 159.21 74.392885 
L 159.489 74.082883 
L 159.768 74.299901 
L 160.605 74.291807 
L 160.884 74.466616 
L 161.163 74.429986 
L 161.442 74.26752 
L 161.721 74.337103 
L 161.721 74.337103 
" clip-path="url(#p2ab9b198ab)" style="fill: none; stroke: #000000; stroke-width: 3.2; stroke-linecap: square"/>
   <path d="M 22.5 73.932341 
L 22.779 74.258181 
L 23.058 74.093728 
L 23.616 74.12932 
L 23.895 74.033169 
L 24.174 73.775492 
L 24.732 74.094555 
L 25.011 74.020664 
L 25.29 74.324748 
L 25.569 74.145739 
L 25.848 74.210877 
L 26.127 74.073853 
L 26.406 74.252659 
L 26.685 74.119553 
L 26.964 74.259627 
L 27.243 74.064082 
L 27.801 74.220921 
L 28.08 74.212389 
L 28.359 74.012767 
L 28.638 74.173865 
L 28.917 74.019782 
L 29.475 74.247638 
L 29.754 74.09428 
L 30.033 74.348828 
L 30.312 74.107625 
L 30.591 74.325662 
L 30.87 74.235131 
L 31.149 74.564117 
L 31.428 74.187796 
L 31.986 74.343738 
L 32.544 74.122419 
L 33.102 74.367371 
L 33.381 74.153586 
L 33.66 74.146871 
L 34.218 74.568102 
L 34.497 74.373993 
L 35.334 74.366322 
L 35.613 74.378314 
L 35.892 74.571302 
L 36.45 74.289557 
L 36.729 74.199385 
L 37.008 74.245024 
L 37.287 74.548508 
L 37.566 74.187679 
L 37.845 74.373242 
L 38.124 74.028235 
L 38.403 74.469249 
L 38.682 74.26219 
L 39.519 74.493039 
L 40.077 74.532124 
L 40.356 74.659386 
L 40.914 74.31023 
L 41.193 74.430117 
L 41.472 74.310507 
L 41.751 74.559735 
L 42.309 74.42829 
L 42.588 74.424959 
L 42.867 74.25717 
L 43.146 74.311251 
L 43.425 74.51721 
L 43.983 74.474976 
L 44.262 74.600984 
L 44.541 74.440651 
L 44.82 74.490827 
L 45.099 74.337896 
L 45.378 74.610894 
L 46.215 74.421645 
L 46.773 73.858041 
L 47.331 73.996193 
L 48.168 73.577853 
L 48.726 73.314032 
L 49.005 73.506453 
L 49.284 73.277459 
L 49.842 73.103532 
L 50.121 72.775461 
L 50.4 72.981517 
L 50.679 72.943043 
L 50.958 72.523949 
L 51.237 72.730635 
L 51.516 72.680464 
L 51.795 72.825607 
L 52.074 72.327228 
L 52.632 72.459386 
L 52.911 72.153316 
L 53.19 72.181188 
L 53.469 71.953289 
L 53.748 71.941446 
L 54.027 71.551345 
L 54.306 71.792463 
L 54.585 71.82033 
L 55.701 71.518246 
L 56.538 71.467711 
L 56.817 71.219777 
L 57.096 71.160341 
L 57.375 71.306825 
L 57.654 71.064726 
L 58.491 70.973308 
L 58.77 71.090495 
L 59.049 70.694865 
L 59.328 70.776039 
L 59.607 71.031522 
L 59.886 70.40024 
L 60.165 70.671971 
L 61.002 70.277231 
L 61.281 70.562631 
L 61.56 70.259231 
L 61.839 70.295465 
L 62.676 70.111914 
L 62.955 70.124345 
L 63.234 69.932456 
L 63.513 70.148403 
L 64.908 69.558044 
L 65.187 69.788703 
L 65.466 69.722911 
L 65.745 69.350155 
L 66.024 69.221138 
L 66.303 69.514046 
L 66.582 69.381217 
L 66.861 69.587694 
L 67.14 69.332822 
L 67.419 69.306487 
L 67.698 69.152419 
L 67.977 69.286214 
L 68.256 69.029161 
L 69.93 68.972614 
L 70.209 68.806594 
L 70.488 68.381796 
L 70.767 68.389056 
L 71.046 68.640987 
L 71.325 68.376327 
L 71.604 68.441067 
L 73.278 67.438643 
L 73.836 66.397905 
L 74.115 65.34672 
L 74.394 62.319788 
L 74.952 43.162346 
L 75.231 43.444579 
L 75.789 53.294145 
L 76.626 68.156914 
L 76.905 71.719325 
L 77.463 75.122857 
L 78.021 76.0676 
L 78.3 75.93441 
L 78.579 76.377439 
L 79.695 76.157518 
L 80.253 75.682508 
L 80.532 76.070756 
L 81.09 75.444491 
L 81.369 75.670794 
L 81.648 75.349241 
L 81.927 75.243081 
L 82.206 75.306396 
L 82.485 74.898205 
L 82.764 75.21334 
L 83.043 74.879451 
L 83.322 75.075306 
L 85.275 74.365506 
L 85.554 74.434668 
L 85.833 73.938138 
L 86.112 74.416208 
L 86.391 73.970918 
L 86.67 73.819314 
L 86.949 73.830895 
L 87.228 73.978574 
L 87.507 73.693559 
L 87.786 73.838307 
L 88.065 73.573885 
L 88.344 73.472249 
L 88.623 73.738526 
L 89.739 73.148304 
L 90.297 72.967923 
L 90.576 73.104531 
L 90.855 73.052128 
L 91.134 73.114942 
L 91.413 73.048874 
L 91.692 72.851846 
L 91.971 73.133551 
L 92.25 72.833311 
L 92.808 73.018722 
L 93.087 72.890261 
L 93.366 72.535138 
L 93.645 72.437015 
L 93.924 72.717673 
L 94.203 72.533148 
L 94.482 72.658744 
L 94.761 72.243965 
L 95.319 72.300631 
L 96.156 72.347103 
L 96.435 72.152752 
L 96.714 72.313545 
L 96.993 71.986544 
L 97.83 71.761013 
L 98.109 71.991448 
L 98.667 71.678645 
L 99.225 71.909063 
L 99.504 71.564311 
L 100.062 71.613116 
L 100.341 71.473441 
L 100.62 71.757219 
L 101.457 71.275406 
L 101.736 71.514448 
L 102.294 71.509315 
L 102.852 71.225766 
L 103.131 71.477022 
L 103.689 71.193342 
L 103.968 71.236997 
L 104.247 71.103806 
L 104.526 71.191385 
L 104.805 70.868616 
L 105.084 71.248632 
L 106.479 70.936692 
L 106.758 71.03911 
L 107.874 70.691067 
L 108.153 70.989954 
L 108.432 70.79272 
L 108.711 71.018028 
L 109.269 70.610187 
L 109.548 70.504757 
L 110.664 70.852483 
L 110.943 70.681731 
L 111.222 70.282282 
L 111.78 70.649012 
L 112.059 70.778534 
L 112.617 70.624615 
L 112.896 70.589323 
L 113.175 70.709089 
L 113.454 70.372675 
L 113.733 70.91056 
L 114.012 70.604278 
L 114.291 70.567539 
L 114.57 70.165608 
L 114.849 70.485059 
L 115.128 70.518568 
L 115.407 70.416867 
L 115.686 70.611133 
L 115.965 70.422973 
L 116.244 70.048919 
L 116.802 70.374889 
L 117.36 70.231285 
L 117.639 70.145805 
L 118.197 70.461818 
L 118.476 70.276416 
L 118.755 70.275715 
L 119.034 70.114253 
L 119.313 70.232598 
L 120.708 70.131912 
L 120.987 70.251102 
L 121.824 70.050906 
L 122.103 70.416081 
L 122.382 69.96095 
L 122.661 69.923025 
L 123.498 70.294365 
L 123.777 70.041517 
L 124.056 70.132897 
L 124.335 69.789952 
L 124.614 70.071455 
L 124.893 70.159796 
L 125.172 69.905447 
L 125.451 70.0799 
L 126.009 69.895837 
L 126.288 70.034312 
L 127.125 70.007072 
L 127.404 69.8101 
L 127.683 69.984661 
L 128.241 69.901407 
L 128.52 70.025604 
L 128.799 69.930049 
L 129.078 70.040667 
L 129.636 69.54616 
L 129.915 69.882211 
L 130.473 69.659981 
L 131.031 69.661594 
L 131.589 69.75511 
L 131.868 69.519446 
L 132.147 69.621224 
L 132.426 69.910484 
L 132.705 69.568647 
L 132.984 69.792372 
L 133.821 69.711018 
L 134.1 69.234955 
L 134.379 69.599887 
L 134.658 69.473221 
L 135.216 69.657846 
L 135.495 69.353941 
L 135.774 69.674978 
L 136.053 69.699965 
L 136.332 69.512539 
L 136.89 69.811321 
L 137.169 69.773275 
L 137.448 69.477291 
L 138.285 69.485333 
L 138.564 69.482699 
L 138.843 69.344094 
L 139.122 69.941809 
L 139.401 69.628863 
L 139.68 69.724821 
L 140.238 70.15362 
L 140.517 70.176736 
L 140.796 70.507824 
L 141.075 70.457384 
L 141.354 70.721003 
L 141.633 70.44561 
L 141.912 70.801641 
L 142.191 70.737289 
L 142.749 70.94056 
L 143.028 71.311826 
L 143.307 71.27678 
L 143.586 70.957256 
L 143.865 71.242851 
L 144.144 71.29761 
L 144.423 71.67663 
L 144.702 71.298054 
L 144.981 71.542195 
L 145.818 71.740115 
L 146.376 72.106303 
L 146.655 71.905687 
L 147.213 72.301242 
L 147.492 72.273656 
L 147.771 72.508165 
L 148.05 72.419493 
L 148.329 72.06027 
L 148.887 72.791352 
L 149.445 72.479052 
L 150.003 72.795096 
L 150.282 72.944966 
L 150.561 72.668859 
L 150.84 73.246068 
L 151.119 73.085125 
L 151.677 73.230589 
L 151.956 73.419011 
L 152.235 73.031798 
L 152.793 73.39589 
L 153.072 73.269672 
L 153.351 73.543677 
L 153.63 73.516289 
L 153.909 73.260267 
L 154.188 73.498856 
L 155.304 73.827756 
L 155.583 73.644425 
L 155.862 73.635864 
L 156.141 73.90412 
L 156.978 74.027129 
L 157.257 73.769293 
L 157.536 74.020922 
L 158.094 73.796293 
L 158.373 74.236939 
L 158.652 74.182834 
L 158.931 74.355547 
L 159.21 74.392885 
L 159.489 74.082883 
L 159.768 74.299901 
L 160.605 74.291807 
L 160.884 74.466616 
L 161.163 74.429986 
L 161.442 74.26752 
L 161.721 74.337103 
L 161.721 74.337103 
" clip-path="url(#p2ab9b198ab)" style="fill: none; stroke: #08519c; stroke-width: 1.6; stroke-linecap: square"/>
  </g>
 </g>
 <defs>
  <clipPath id="p2ab9b198ab">
   <rect x="22.5" y="12.96" width="139.5" height="83.16"/>
  </clipPath>
 </defs>
</svg>
