<?xml version="1.0" encoding="utf-8" standalone="no"?>
<!DOCTYPE svg PUBLIC "-//W3C//DTD SVG 1.1//EN"
  "http://www.w3.org/Graphics/SVG/1.1/DTD/svg11.dtd">
<svg xmlns:xlink="http://www.w3.org/1999/xlink" width="180pt" height="108pt" viewBox="0 0 180 108" xmlns="http://www.w3.org/2000/svg" version="1.1">
 <metadata>
  <rdf:RDF xmlns:dc="http://purl.org/dc/elements/1.1/" xmlns:cc="http://creativecommons.org/ns#" xmlns:rdf="http://www.w3.org/1999/02/22-rdf-syntax-ns#">
   <cc:Work>
    <dc:type rdf:resource="http://purl.org/dc/dcmitype/StillImage"/>
    <dc:date>2023-01-19T22:46:08.905347</dc:date>
    <dc:format>image/svg+xml</dc:format>
    <dc:creator>
     <cc:Agent>
      <dc:title>Matplotlib v3.5.0, https://matplotlib.org/</dc:title>
     </cc:Agent>
    </dc:creator>
   </cc:Work>
  </rdf:RDF>
 </metadata>
 <defs>
  <style type="text/css">*{stroke-linejoin: round; stroke-linecap: butt}</style>
 </defs>
 <g id="figure_1">
  <g id="patch_1">
   <path d="M 0 108 
L 180 108 
L 180 0 
L 0 0 
L 0 108 
z
" style="fill: none"/>
  </g>
  <g id="axes_1">
   <path d="M 22.5 73.882597 
L 22.779 73.956831 
L 23.058 74.269159 
L 23.337 73.872869 
L 24.732 74.197852 
L 25.011 73.965449 
L 25.29 73.984248 
L 25.569 73.87272 
L 26.127 74.077983 
L 26.406 74.077292 
L 26.685 74.250434 
L 26.964 73.855983 
L 27.243 74.16121 
L 27.522 74.164363 
L 27.801 73.975613 
L 28.08 74.321301 
L 28.359 74.118895 
L 28.638 74.095014 
L 28.917 74.262089 
L 29.754 74.058524 
L 30.033 74.236524 
L 30.312 74.132443 
L 30.591 74.354678 
L 31.149 74.155085 
L 31.428 74.085345 
L 31.986 74.426505 
L 32.265 74.166216 
L 32.544 74.226128 
L 32.823 73.917752 
L 33.102 74.400934 
L 33.381 74.512572 
L 33.66 74.05336 
L 33.939 74.519267 
L 34.218 74.342851 
L 34.497 74.336634 
L 34.776 74.528987 
L 35.334 74.237658 
L 35.892 74.476797 
L 36.171 74.187859 
L 36.45 74.385202 
L 36.729 74.265866 
L 37.008 74.417549 
L 37.566 74.344173 
L 37.845 74.474496 
L 38.403 74.370933 
L 38.961 74.393361 
L 39.24 74.281309 
L 40.077 74.425653 
L 40.356 74.601614 
L 40.635 74.352992 
L 40.914 74.501204 
L 42.03 74.392045 
L 42.309 74.638292 
L 43.425 74.355395 
L 43.983 74.563525 
L 44.262 74.342617 
L 44.541 74.387562 
L 44.82 74.29852 
L 45.099 74.545221 
L 45.936 74.366557 
L 46.215 74.585947 
L 46.494 74.349021 
L 46.773 73.884682 
L 47.052 74.034713 
L 47.331 73.637103 
L 47.61 73.685956 
L 47.889 74.039332 
L 48.168 73.55777 
L 48.447 73.565453 
L 48.726 73.450419 
L 49.005 73.133576 
L 49.842 73.260788 
L 50.679 72.807404 
L 50.958 72.538594 
L 51.237 72.616341 
L 51.795 72.351853 
L 52.074 72.479335 
L 52.353 72.258786 
L 53.19 72.202162 
L 53.748 71.991291 
L 54.027 72.170825 
L 54.306 71.942107 
L 54.585 71.952196 
L 54.864 71.773956 
L 55.701 71.709321 
L 55.98 71.260912 
L 56.538 71.192626 
L 56.817 71.45271 
L 57.096 70.973027 
L 57.375 71.055121 
L 57.933 71.004096 
L 58.212 71.104891 
L 58.491 70.811914 
L 58.77 71.006295 
L 59.049 70.746962 
L 59.328 70.796774 
L 59.607 70.402638 
L 59.886 70.65836 
L 60.165 70.642415 
L 60.723 70.330959 
L 61.002 70.416324 
L 61.56 70.381906 
L 61.839 70.086509 
L 62.397 70.011346 
L 62.676 70.062723 
L 63.234 69.793478 
L 63.513 70.024467 
L 63.792 70.038064 
L 64.35 69.744192 
L 64.629 69.777663 
L 64.908 69.984721 
L 65.187 69.631863 
L 65.466 69.518368 
L 65.745 69.665512 
L 66.024 69.449054 
L 66.582 69.582962 
L 66.861 69.393608 
L 67.14 69.459976 
L 67.419 69.052824 
L 67.977 69.274701 
L 68.535 69.087186 
L 69.093 68.985774 
L 69.372 68.902521 
L 69.651 69.026623 
L 69.93 68.683811 
L 70.209 69.116858 
L 71.325 68.351621 
L 71.604 68.786032 
L 71.883 68.268208 
L 72.162 68.415038 
L 72.72 68.05282 
L 72.999 68.053602 
L 73.278 67.841402 
L 73.557 68.073877 
L 73.836 67.517529 
L 74.115 67.605126 
L 74.673 67.20508 
L 75.231 65.807543 
L 75.51 63.875004 
L 75.789 56.948954 
L 76.068 46.235633 
L 76.347 47.2444 
L 77.463 75.476818 
L 77.742 77.641629 
L 78.3 79.102206 
L 78.579 79.242024 
L 79.416 78.856433 
L 79.695 78.857439 
L 80.253 78.488103 
L 80.532 78.447808 
L 80.811 78.566856 
L 81.09 78.066779 
L 81.369 78.133108 
L 81.927 77.524062 
L 82.206 77.591488 
L 82.485 77.501786 
L 83.043 76.837042 
L 83.322 76.922195 
L 83.601 77.130178 
L 83.88 76.63716 
L 84.159 76.432845 
L 84.438 76.6009 
L 84.717 76.221487 
L 84.996 76.481662 
L 85.554 76.375479 
L 85.833 76.048455 
L 86.112 76.032403 
L 86.67 75.336165 
L 86.949 75.747801 
L 87.228 75.403655 
L 87.507 75.25576 
L 87.786 75.41148 
L 88.065 74.734299 
L 88.344 74.832431 
L 88.623 75.058684 
L 88.902 74.647291 
L 89.181 74.901101 
L 89.46 74.636298 
L 89.739 74.758309 
L 90.018 74.116582 
L 90.297 74.474018 
L 90.855 74.075475 
L 91.134 74.165727 
L 91.692 73.808113 
L 92.25 73.693889 
L 92.529 73.346452 
L 92.808 73.561721 
L 93.645 73.340789 
L 93.924 73.405189 
L 94.203 73.285049 
L 94.482 72.905249 
L 94.761 73.204439 
L 95.04 73.046105 
L 95.319 72.68919 
L 95.598 72.902023 
L 95.877 72.815963 
L 96.156 72.524471 
L 96.435 72.549737 
L 96.714 72.917559 
L 96.993 72.39473 
L 97.272 72.465881 
L 97.551 72.096062 
L 97.83 72.508948 
L 98.388 72.184443 
L 98.946 72.192847 
L 99.225 71.983161 
L 99.504 72.122369 
L 99.783 71.676816 
L 100.341 72.121997 
L 100.62 71.639514 
L 101.457 71.393948 
L 101.736 71.650343 
L 102.015 71.323892 
L 102.294 71.199679 
L 102.573 71.525514 
L 102.852 71.280669 
L 103.131 71.321086 
L 103.41 71.075809 
L 103.968 71.387553 
L 104.526 71.126329 
L 104.805 71.264684 
L 105.363 70.951598 
L 105.642 71.039889 
L 105.921 70.72975 
L 106.479 70.824422 
L 106.758 70.639875 
L 107.037 70.750469 
L 107.316 70.687138 
L 107.595 70.773695 
L 107.874 70.47221 
L 108.432 70.402726 
L 108.711 70.736765 
L 108.99 70.318615 
L 109.548 70.31165 
L 109.827 70.511076 
L 110.943 70.067553 
L 111.222 70.250061 
L 111.501 70.159552 
L 112.059 70.289 
L 112.338 70.014414 
L 112.896 70.032903 
L 113.175 70.041526 
L 113.454 69.729576 
L 114.291 69.974929 
L 114.57 69.743087 
L 114.849 69.775707 
L 115.128 69.998369 
L 115.407 69.650536 
L 115.686 69.695687 
L 116.244 69.488975 
L 116.523 69.626283 
L 116.802 69.460561 
L 117.36 69.686981 
L 117.639 69.508175 
L 117.918 69.786777 
L 118.476 69.191739 
L 119.313 69.375919 
L 119.592 69.269341 
L 119.871 69.427975 
L 120.708 68.989693 
L 120.987 69.551897 
L 121.266 69.1435 
L 121.545 68.986338 
L 122.103 69.228643 
L 122.382 69.078649 
L 122.661 69.088349 
L 122.94 68.868789 
L 124.056 68.901149 
L 124.614 69.091068 
L 124.893 68.718728 
L 125.172 68.662048 
L 125.451 68.729805 
L 125.73 68.673193 
L 126.009 68.736235 
L 126.288 68.490568 
L 126.567 68.817807 
L 127.683 68.15477 
L 127.962 68.31999 
L 128.799 68.135598 
L 129.078 68.227268 
L 129.357 68.145751 
L 129.636 67.599599 
L 130.194 67.553619 
L 130.752 67.117866 
L 131.31 66.166635 
L 131.589 64.956031 
L 131.868 61.881598 
L 132.147 50.921568 
L 132.426 45.340697 
L 132.705 50.820033 
L 133.542 73.09576 
L 133.821 76.42252 
L 134.1 78.40417 
L 134.379 78.693689 
L 134.658 79.243523 
L 134.937 79.403786 
L 135.216 79.123308 
L 135.495 79.093748 
L 136.053 78.656853 
L 136.611 78.744093 
L 136.89 78.294491 
L 137.169 78.357971 
L 137.448 78.147089 
L 137.727 77.777351 
L 138.285 77.789367 
L 138.564 77.695969 
L 138.843 77.355936 
L 139.68 77.564113 
L 139.959 77.379369 
L 140.238 77.640811 
L 140.517 77.361278 
L 140.796 77.280361 
L 141.075 77.542524 
L 141.633 77.35671 
L 142.47 77.394646 
L 142.749 76.999551 
L 143.028 77.282235 
L 143.586 77.175449 
L 143.865 77.387617 
L 144.423 77.490613 
L 144.981 77.166382 
L 145.26 77.270698 
L 145.539 77.094145 
L 146.934 77.284297 
L 147.213 76.990091 
L 147.492 77.143834 
L 147.771 76.861738 
L 149.166 77.089792 
L 149.724 76.767969 
L 150.282 77.08103 
L 150.84 76.874262 
L 151.119 77.286327 
L 151.398 76.755271 
L 152.235 76.971958 
L 152.514 76.824981 
L 152.793 77.086024 
L 153.63 76.672093 
L 154.188 76.82802 
L 154.467 76.448611 
L 154.746 76.981858 
L 155.025 76.737982 
L 155.304 76.789445 
L 155.862 76.307959 
L 156.141 76.74539 
L 156.42 76.818783 
L 156.699 76.750777 
L 156.978 76.457472 
L 157.257 76.769796 
L 157.536 76.67991 
L 158.094 76.76365 
L 158.373 76.754484 
L 158.652 76.576161 
L 159.489 76.701251 
L 159.768 76.547635 
L 160.047 76.597233 
L 160.326 76.461328 
L 160.884 76.586464 
L 161.163 76.383126 
L 161.442 76.795318 
L 161.721 76.630248 
L 161.721 76.630248 
" clip-path="url(#pbd93130eb9)" style="fill: none; stroke: #000000; stroke-width: 3.2; stroke-linecap: square"/>
   <path d="M 22.5 73.882597 
L 22.779 73.956831 
L 23.058 74.269159 
L 23.337 73.872869 
L 24.732 74.197852 
L 25.011 73.965449 
L 25.29 73.984248 
L 25.569 73.87272 
L 26.127 74.077983 
L 26.406 74.077292 
L 26.685 74.250434 
L 26.964 73.855983 
L 27.243 74.16121 
L 27.522 74.164363 
L 27.801 73.975613 
L 28.08 74.321301 
L 28.359 74.118895 
L 28.638 74.095014 
L 28.917 74.262089 
L 29.754 74.058524 
L 30.033 74.236524 
L 30.312 74.132443 
L 30.591 74.354678 
L 31.149 74.155085 
L 31.428 74.085345 
L 31.986 74.426505 
L 32.265 74.166216 
L 32.544 74.226128 
L 32.823 73.917752 
L 33.102 74.400934 
L 33.381 74.512572 
L 33.66 74.05336 
L 33.939 74.519267 
L 34.218 74.342851 
L 34.497 74.336634 
L 34.776 74.528987 
L 35.334 74.237658 
L 35.892 74.476797 
L 36.171 74.187859 
L 36.45 74.385202 
L 36.729 74.265866 
L 37.008 74.417549 
L 37.566 74.344173 
L 37.845 74.474496 
L 38.403 74.370933 
L 38.961 74.393361 
L 39.24 74.281309 
L 40.077 74.425653 
L 40.356 74.601614 
L 40.635 74.352992 
L 40.914 74.501204 
L 42.03 74.392045 
L 42.309 74.638292 
L 43.425 74.355395 
L 43.983 74.563525 
L 44.262 74.342617 
L 44.541 74.387562 
L 44.82 74.29852 
L 45.099 74.545221 
L 45.936 74.366557 
L 46.215 74.585947 
L 46.494 74.349021 
L 46.773 73.884682 
L 47.052 74.034713 
L 47.331 73.637103 
L 47.61 73.685956 
L 47.889 74.039332 
L 48.168 73.55777 
L 48.447 73.565453 
L 48.726 73.450419 
L 49.005 73.133576 
L 49.842 73.260788 
L 50.679 72.807404 
L 50.958 72.538594 
L 51.237 72.616341 
L 51.795 72.351853 
L 52.074 72.479335 
L 52.353 72.258786 
L 53.19 72.202162 
L 53.748 71.991291 
L 54.027 72.170825 
L 54.306 71.942107 
L 54.585 71.952196 
L 54.864 71.773956 
L 55.701 71.709321 
L 55.98 71.260912 
L 56.538 71.192626 
L 56.817 71.45271 
L 57.096 70.973027 
L 57.375 71.055121 
L 57.933 71.004096 
L 58.212 71.104891 
L 58.491 70.811914 
L 58.77 71.006295 
L 59.049 70.746962 
L 59.328 70.796774 
L 59.607 70.402638 
L 59.886 70.65836 
L 60.165 70.642415 
L 60.723 70.330959 
L 61.002 70.416324 
L 61.56 70.381906 
L 61.839 70.086509 
L 62.397 70.011346 
L 62.676 70.062723 
L 63.234 69.793478 
L 63.513 70.024467 
L 63.792 70.038064 
L 64.35 69.744192 
L 64.629 69.777663 
L 64.908 69.984721 
L 65.187 69.631863 
L 65.466 69.518368 
L 65.745 69.665512 
L 66.024 69.449054 
L 66.582 69.582962 
L 66.861 69.393608 
L 67.14 69.459976 
L 67.419 69.052824 
L 67.977 69.274701 
L 68.535 69.087186 
L 69.093 68.985774 
L 69.372 68.902521 
L 69.651 69.026623 
L 69.93 68.683811 
L 70.209 69.116858 
L 71.325 68.351621 
L 71.604 68.786032 
L 71.883 68.268208 
L 72.162 68.415038 
L 72.72 68.05282 
L 72.999 68.053602 
L 73.278 67.841402 
L 73.557 68.073877 
L 73.836 67.517529 
L 74.115 67.605126 
L 74.673 67.20508 
L 75.231 65.807543 
L 75.51 63.875004 
L 75.789 56.948954 
L 76.068 46.235633 
L 76.347 47.2444 
L 77.463 75.476818 
L 77.742 77.641629 
L 78.3 79.102206 
L 78.579 79.242024 
L 79.416 78.856433 
L 79.695 78.857439 
L 80.253 78.488103 
L 80.532 78.447808 
L 80.811 78.566856 
L 81.09 78.066779 
L 81.369 78.133108 
L 81.927 77.524062 
L 82.206 77.591488 
L 82.485 77.501786 
L 83.043 76.837042 
L 83.322 76.922195 
L 83.601 77.130178 
L 83.88 76.63716 
L 84.159 76.432845 
L 84.438 76.6009 
L 84.717 76.221487 
L 84.996 76.481662 
L 85.554 76.375479 
L 85.833 76.048455 
L 86.112 76.032403 
L 86.67 75.336165 
L 86.949 75.747801 
L 87.228 75.403655 
L 87.507 75.25576 
L 87.786 75.41148 
L 88.065 74.734299 
L 88.344 74.832431 
L 88.623 75.058684 
L 88.902 74.647291 
L 89.181 74.901101 
L 89.46 74.636298 
L 89.739 74.758309 
L 90.018 74.116582 
L 90.297 74.474018 
L 90.855 74.075475 
L 91.134 74.165727 
L 91.692 73.808113 
L 92.25 73.693889 
L 92.529 73.346452 
L 92.808 73.561721 
L 93.645 73.340789 
L 93.924 73.405189 
L 94.203 73.285049 
L 94.482 72.905249 
L 94.761 73.204439 
L 95.04 73.046105 
L 95.319 72.68919 
L 95.598 72.902023 
L 95.877 72.815963 
L 96.156 72.524471 
L 96.435 72.549737 
L 96.714 72.917559 
L 96.993 72.39473 
L 97.272 72.465881 
L 97.551 72.096062 
L 97.83 72.508948 
L 98.388 72.184443 
L 98.946 72.192847 
L 99.225 71.983161 
L 99.504 72.122369 
L 99.783 71.676816 
L 100.341 72.121997 
L 100.62 71.639514 
L 101.457 71.393948 
L 101.736 71.650343 
L 102.015 71.323892 
L 102.294 71.199679 
L 102.573 71.525514 
L 102.852 71.280669 
L 103.131 71.321086 
L 103.41 71.075809 
L 103.968 71.387553 
L 104.526 71.126329 
L 104.805 71.264684 
L 105.363 70.951598 
L 105.642 71.039889 
L 105.921 70.72975 
L 106.479 70.824422 
L 106.758 70.639875 
L 107.037 70.750469 
L 107.316 70.687138 
L 107.595 70.773695 
L 107.874 70.47221 
L 108.432 70.402726 
L 108.711 70.736765 
L 108.99 70.318615 
L 109.548 70.31165 
L 109.827 70.511076 
L 110.943 70.067553 
L 111.222 70.250061 
L 111.501 70.159552 
L 112.059 70.289 
L 112.338 70.014414 
L 112.896 70.032903 
L 113.175 70.041526 
L 113.454 69.729576 
L 114.291 69.974929 
L 114.57 69.743087 
L 114.849 69.775707 
L 115.128 69.998369 
L 115.407 69.650536 
L 115.686 69.695687 
L 116.244 69.488975 
L 116.523 69.626283 
L 116.802 69.460561 
L 117.36 69.686981 
L 117.639 69.508175 
L 117.918 69.786777 
L 118.476 69.191739 
L 119.313 69.375919 
L 119.592 69.269341 
L 119.871 69.427975 
L 120.708 68.989693 
L 120.987 69.551897 
L 121.266 69.1435 
L 121.545 68.986338 
L 122.103 69.228643 
L 122.382 69.078649 
L 122.661 69.088349 
L 122.94 68.868789 
L 124.056 68.901149 
L 124.614 69.091068 
L 124.893 68.718728 
L 125.172 68.662048 
L 125.451 68.729805 
L 125.73 68.673193 
L 126.009 68.736235 
L 126.288 68.490568 
L 126.567 68.817807 
L 127.683 68.15477 
L 127.962 68.31999 
L 128.799 68.135598 
L 129.078 68.227268 
L 129.357 68.145751 
L 129.636 67.599599 
L 130.194 67.553619 
L 130.752 67.117866 
L 131.31 66.166635 
L 131.589 64.956031 
L 131.868 61.881598 
L 132.147 50.921568 
L 132.426 45.340697 
L 132.705 50.820033 
L 133.542 73.09576 
L 133.821 76.42252 
L 134.1 78.40417 
L 134.379 78.693689 
L 134.658 79.243523 
L 134.937 79.403786 
L 135.216 79.123308 
L 135.495 79.093748 
L 136.053 78.656853 
L 136.611 78.744093 
L 136.89 78.294491 
L 137.169 78.357971 
L 137.448 78.147089 
L 137.727 77.777351 
L 138.285 77.789367 
L 138.564 77.695969 
L 138.843 77.355936 
L 139.68 77.564113 
L 139.959 77.379369 
L 140.238 77.640811 
L 140.517 77.361278 
L 140.796 77.280361 
L 141.075 77.542524 
L 141.633 77.35671 
L 142.47 77.394646 
L 142.749 76.999551 
L 143.028 77.282235 
L 143.586 77.175449 
L 143.865 77.387617 
L 144.423 77.490613 
L 144.981 77.166382 
L 145.26 77.270698 
L 145.539 77.094145 
L 146.934 77.284297 
L 147.213 76.990091 
L 147.492 77.143834 
L 147.771 76.861738 
L 149.166 77.089792 
L 149.724 76.767969 
L 150.282 77.08103 
L 150.84 76.874262 
L 151.119 77.286327 
L 151.398 76.755271 
L 152.235 76.971958 
L 152.514 76.824981 
L 152.793 77.086024 
L 153.63 76.672093 
L 154.188 76.82802 
L 154.467 76.448611 
L 154.746 76.981858 
L 155.025 76.737982 
L 155.304 76.789445 
L 155.862 76.307959 
L 156.141 76.74539 
L 156.42 76.818783 
L 156.699 76.750777 
L 156.978 76.457472 
L 157.257 76.769796 
L 157.536 76.67991 
L 158.094 76.76365 
L 158.373 76.754484 
L 158.652 76.576161 
L 159.489 76.701251 
L 159.768 76.547635 
L 160.047 76.597233 
L 160.326 76.461328 
L 160.884 76.586464 
L 161.163 76.383126 
L 161.442 76.795318 
L 161.721 76.630248 
L 161.721 76.630248 
" clip-path="url(#pbd93130eb9)" style="fill: none; stroke: #d94801; stroke-width: 1.6; stroke-linecap: square"/>
  </g>
 </g>
 <defs>
  <clipPath id="pbd93130eb9">
   <rect x="22.5" y="12.96" width="139.5" height="83.16"/>
  </clipPath>
 </defs>
</svg>
