<?xml version="1.0" encoding="utf-8" standalone="no"?>
<!DOCTYPE svg PUBLIC "-//W3C//DTD SVG 1.1//EN"
  "http://www.w3.org/Graphics/SVG/1.1/DTD/svg11.dtd">
<svg xmlns:xlink="http://www.w3.org/1999/xlink" width="288pt" height="172.8pt" viewBox="0 0 288 172.8" xmlns="http://www.w3.org/2000/svg" version="1.1">
 <metadata>
  <rdf:RDF xmlns:dc="http://purl.org/dc/elements/1.1/" xmlns:cc="http://creativecommons.org/ns#" xmlns:rdf="http://www.w3.org/1999/02/22-rdf-syntax-ns#">
   <cc:Work>
    <dc:type rdf:resource="http://purl.org/dc/dcmitype/StillImage"/>
    <dc:date>2023-05-19T11:58:49.424997</dc:date>
    <dc:format>image/svg+xml</dc:format>
    <dc:creator>
     <cc:Agent>
      <dc:title>Matplotlib v3.5.0, https://matplotlib.org/</dc:title>
     </cc:Agent>
    </dc:creator>
   </cc:Work>
  </rdf:RDF>
 </metadata>
 <defs>
  <style type="text/css">*{stroke-linejoin: round; stroke-linecap: butt}</style>
 </defs>
 <g id="figure_1">
  <g id="patch_1">
   <path d="M 0 172.8 
L 288 172.8 
L 288 0 
L 0 0 
L 0 172.8 
z
" style="fill: none"/>
  </g>
  <g id="axes_1">
   <path d="M 36 119.613379 
L 36.4464 119.951835 
L 36.8928 119.578174 
L 37.3392 119.674872 
L 37.7856 116.976003 
L 38.232 117.366695 
L 38.6784 119.27102 
L 39.1248 117.145527 
L 39.5712 117.172398 
L 40.0176 119.258209 
L 40.464 119.486091 
L 40.9104 119.235366 
L 41.3568 116.85642 
L 41.8032 117.554089 
L 42.2496 117.673639 
L 42.696 117.168107 
L 43.1424 120.01181 
L 43.5888 117.568961 
L 44.0352 117.496152 
L 44.4816 119.596747 
L 44.928 117.695319 
L 45.3744 117.461725 
L 45.8208 117.873333 
L 46.7136 117.630759 
L 47.16 119.952654 
L 47.6064 117.22082 
L 48.0528 117.31469 
L 48.4992 120.493655 
L 48.9456 117.168608 
L 49.392 117.613884 
L 50.2848 119.968227 
L 50.7312 117.495695 
L 51.1776 119.926592 
L 51.624 119.815259 
L 52.0704 117.770236 
L 52.5168 117.927524 
L 52.9632 120.442942 
L 53.4096 117.681655 
L 53.856 117.524938 
L 54.3024 118.11415 
L 54.7488 117.684636 
L 55.1952 118.798397 
L 55.6416 117.712765 
L 56.088 117.921535 
L 56.5344 117.47052 
L 56.9808 120.180031 
L 57.4272 117.841864 
L 57.8736 118.07212 
L 58.32 117.561182 
L 58.7664 117.976701 
L 59.2128 117.586357 
L 59.6592 118.0985 
L 60.1056 118.323637 
L 60.552 119.984249 
L 60.9984 119.975647 
L 61.4448 117.907242 
L 61.8912 119.969228 
L 62.3376 118.022338 
L 62.784 117.817209 
L 63.2304 120.239721 
L 63.6768 118.071122 
L 64.1232 117.751936 
L 64.5696 117.945232 
L 65.016 117.903577 
L 65.4624 118.274014 
L 65.9088 117.716146 
L 66.3552 117.804436 
L 66.8016 120.516377 
L 67.248 118.126813 
L 67.6944 118.293863 
L 68.1408 117.891088 
L 68.5872 117.765217 
L 69.0336 118.104232 
L 69.48 117.947621 
L 69.9264 118.232437 
L 70.3728 118.285505 
L 70.8192 117.44842 
L 71.2656 120.269996 
L 71.712 117.776262 
L 72.1584 119.840905 
L 72.6048 118.32897 
L 73.0512 119.957124 
L 73.4976 120.165681 
L 73.944 117.870413 
L 74.8368 117.552631 
L 75.2832 119.293025 
L 75.7296 116.924975 
L 76.176 116.444088 
L 76.6224 116.956015 
L 77.0688 118.833957 
L 77.5152 119.292809 
L 77.9616 116.411056 
L 78.408 118.718901 
L 78.8544 116.369472 
L 79.3008 115.686322 
L 79.7472 115.650386 
L 80.1936 118.192928 
L 80.64 115.912549 
L 81.0864 114.948902 
L 81.9792 115.350128 
L 82.4256 115.929187 
L 82.872 115.154369 
L 83.3184 114.897397 
L 83.7648 116.689707 
L 84.2112 116.377783 
L 84.6576 116.345339 
L 85.104 114.53736 
L 85.5504 116.598226 
L 85.9968 113.781163 
L 86.4432 114.143797 
L 86.8896 114.036182 
L 87.336 113.622059 
L 87.7824 116.147644 
L 88.2288 113.539464 
L 88.6752 115.769482 
L 89.1216 113.617694 
L 89.568 115.203017 
L 90.0144 115.351617 
L 90.4608 112.523158 
L 90.9072 115.596584 
L 91.3536 115.09479 
L 91.8 112.540146 
L 92.6928 112.60344 
L 93.1392 112.358425 
L 93.5856 112.491899 
L 94.032 111.874695 
L 94.4784 114.176339 
L 94.9248 112.143548 
L 95.3712 112.114146 
L 95.8176 114.614159 
L 96.264 113.896954 
L 96.7104 111.454943 
L 97.1568 113.907953 
L 97.6032 111.491842 
L 98.0496 111.473321 
L 98.496 111.21285 
L 98.9424 111.372328 
L 100.2816 111.309351 
L 100.728 113.47893 
L 101.1744 110.7441 
L 101.6208 110.32447 
L 102.0672 110.848964 
L 102.5136 110.65786 
L 102.96 110.725315 
L 103.4064 110.638536 
L 103.8528 110.225337 
L 104.7456 110.405517 
L 105.192 112.7066 
L 105.6384 112.800187 
L 106.0848 109.851739 
L 106.5312 110.13031 
L 106.9776 110.101571 
L 107.424 109.767539 
L 107.8704 109.693955 
L 108.3168 109.883809 
L 108.7632 111.693407 
L 109.2096 109.503564 
L 109.656 109.5094 
L 110.1024 108.74422 
L 110.5488 109.05439 
L 110.9952 111.515818 
L 111.4416 108.839646 
L 111.888 108.497097 
L 112.3344 108.425347 
L 112.7808 108.617773 
L 113.2272 109.110153 
L 113.6736 108.321133 
L 114.12 109.766072 
L 114.5664 110.555598 
L 115.0128 110.814402 
L 115.4592 110.1661 
L 116.352 109.86092 
L 117.2448 108.935541 
L 117.6912 108.762838 
L 118.1376 108.326909 
L 118.584 107.432701 
L 119.0304 105.795544 
L 119.4768 101.585197 
L 120.3696 71.023795 
L 120.816 72.539039 
L 121.2624 80.010409 
L 122.1552 99.962391 
L 123.048 115.368833 
L 123.4944 119.791799 
L 123.9408 122.652163 
L 124.3872 123.574726 
L 124.8336 123.675472 
L 125.28 124.452363 
L 125.7264 122.29379 
L 126.1728 124.722494 
L 126.6192 124.676143 
L 127.0656 123.943593 
L 127.512 123.769112 
L 127.9584 123.860325 
L 128.4048 123.473148 
L 128.8512 123.563919 
L 129.2976 123.499177 
L 129.744 121.095201 
L 130.1904 122.702856 
L 130.6368 122.726055 
L 131.0832 120.496598 
L 131.5296 120.562247 
L 131.976 122.596047 
L 132.4224 122.533524 
L 133.3152 122.022697 
L 133.7616 121.362916 
L 134.208 121.481278 
L 134.6544 119.307237 
L 135.1008 121.613025 
L 135.5472 121.083523 
L 135.9936 118.635968 
L 136.44 121.021735 
L 136.8864 118.370056 
L 137.3328 120.992134 
L 137.7792 120.064346 
L 138.2256 120.491039 
L 138.672 120.311827 
L 139.1184 117.577025 
L 139.5648 119.779123 
L 140.0112 119.438447 
L 140.4576 118.778134 
L 140.904 117.358439 
L 141.3504 116.84864 
L 141.7968 119.402806 
L 142.2432 119.311396 
L 142.6896 116.863492 
L 143.136 117.118542 
L 144.0288 115.919404 
L 144.4752 116.48335 
L 145.368 118.264276 
L 145.8144 118.54333 
L 146.2608 118.450472 
L 146.7072 118.545655 
L 147.1536 116.013711 
L 147.6 115.601876 
L 148.0464 117.609387 
L 148.4928 117.516705 
L 148.9392 115.458101 
L 149.3856 117.468391 
L 149.832 117.906135 
L 150.2784 117.218082 
L 150.7248 117.579617 
L 151.1712 117.570724 
L 151.6176 116.943278 
L 152.064 114.765741 
L 152.5104 115.479762 
L 152.9568 117.058188 
L 153.4032 114.694258 
L 153.8496 114.606215 
L 154.296 114.157711 
L 154.7424 116.832212 
L 155.1888 116.392171 
L 155.6352 113.995536 
L 156.0816 113.813525 
L 156.528 115.197962 
L 156.9744 113.606595 
L 157.4208 113.806501 
L 157.8672 113.832052 
L 158.3136 115.971484 
L 158.76 115.862892 
L 159.2064 114.834885 
L 159.6528 113.473487 
L 160.0992 113.624504 
L 160.5456 115.870509 
L 160.992 115.613503 
L 161.4384 113.729893 
L 161.8848 115.566788 
L 162.3312 113.107449 
L 162.7776 115.463339 
L 163.224 113.34852 
L 164.1168 113.085573 
L 164.5632 112.799522 
L 165.0096 115.230039 
L 165.456 112.795605 
L 165.9024 115.409461 
L 166.3488 112.764217 
L 166.7952 114.511807 
L 167.2416 112.754085 
L 167.688 112.301538 
L 168.5808 112.81874 
L 169.0272 112.363978 
L 169.4736 112.271176 
L 169.92 114.838133 
L 170.3664 114.385966 
L 171.2592 114.427776 
L 171.7056 112.157973 
L 172.152 112.006685 
L 172.5984 111.62518 
L 173.0448 111.765103 
L 173.4912 111.694495 
L 173.9376 112.017985 
L 174.384 111.825458 
L 174.8304 111.903033 
L 175.2768 111.754415 
L 175.7232 111.768663 
L 176.1696 112.307037 
L 176.616 111.434536 
L 177.0624 111.429685 
L 177.5088 113.311468 
L 177.9552 112.087485 
L 178.4016 111.802722 
L 178.848 113.822552 
L 179.2944 111.27648 
L 179.7408 111.220719 
L 180.1872 113.87205 
L 180.6336 113.809512 
L 181.08 111.518915 
L 181.5264 111.600483 
L 181.9728 111.256278 
L 182.4192 113.92608 
L 182.8656 114.083817 
L 183.312 113.38789 
L 183.7584 113.504645 
L 184.2048 111.180501 
L 184.6512 110.869184 
L 185.0976 110.809453 
L 185.544 113.199066 
L 185.9904 111.384713 
L 186.4368 113.544771 
L 186.8832 113.306989 
L 187.3296 110.926468 
L 187.776 111.132593 
L 188.2224 110.747958 
L 188.6688 113.072926 
L 189.1152 113.261389 
L 189.5616 110.802684 
L 190.008 110.661634 
L 190.4544 112.96622 
L 190.9008 110.732582 
L 191.3472 113.109706 
L 191.7936 110.981509 
L 192.24 111.080522 
L 193.5792 110.578183 
L 194.9184 110.875386 
L 195.3648 113.099554 
L 196.2576 110.708841 
L 196.704 110.260197 
L 197.1504 110.215436 
L 197.5968 110.475008 
L 198.0432 110.231394 
L 198.4896 110.339063 
L 198.936 109.852565 
L 199.3824 110.056467 
L 199.8288 110.412934 
L 200.2752 109.972365 
L 200.7216 110.182166 
L 201.168 109.983953 
L 202.0608 109.928907 
L 202.5072 112.628265 
L 203.8464 112.013414 
L 204.7392 112.430523 
L 205.1856 112.412963 
L 205.632 111.935653 
L 206.9712 112.55905 
L 207.4176 112.003452 
L 207.864 111.991592 
L 208.7568 112.389668 
L 209.2032 111.621417 
L 209.6496 112.150544 
L 210.096 112.345177 
L 210.5424 111.702462 
L 210.9888 111.836447 
L 211.4352 112.29952 
L 211.8816 111.456973 
L 212.328 111.596179 
L 212.7744 111.893594 
L 213.6672 111.186321 
L 214.1136 111.760667 
L 215.0064 111.843918 
L 215.4528 111.539963 
L 215.8992 111.54357 
L 216.3456 111.39111 
L 216.792 111.518616 
L 217.2384 111.880373 
L 217.6848 109.300219 
L 218.1312 111.39993 
L 218.5776 111.530977 
L 219.024 111.236787 
L 219.4704 108.98998 
L 219.9168 111.249077 
L 220.3632 108.784352 
L 220.8096 111.151368 
L 221.7024 111.412284 
L 222.1488 111.322339 
L 222.5952 108.75507 
L 223.0416 111.746079 
L 223.488 109.799377 
L 223.9344 109.757139 
L 224.3808 111.918884 
L 224.8272 110.056575 
L 225.2736 109.998626 
L 225.72 112.237405 
L 226.1664 110.321007 
L 226.6128 112.92342 
L 227.0592 112.735572 
L 227.5056 110.974797 
L 227.952 113.27405 
L 228.3984 110.965761 
L 228.8448 113.221596 
L 229.2912 114.220247 
L 229.7376 111.440477 
L 230.184 113.814351 
L 230.6304 111.396409 
L 231.0768 114.166683 
L 231.5232 111.891369 
L 231.9696 112.434836 
L 232.416 112.388664 
L 232.8624 114.903065 
L 233.3088 115.052019 
L 233.7552 115.477908 
L 234.2016 112.634569 
L 234.648 114.982335 
L 235.0944 115.135093 
L 235.5408 113.242646 
L 235.9872 115.126703 
L 236.4336 113.395766 
L 236.88 113.597831 
L 237.3264 114.111162 
L 237.7728 116.066515 
L 238.2192 113.717177 
L 238.6656 113.77091 
L 239.112 113.973181 
L 239.5584 114.546728 
L 240.0048 114.303378 
L 240.4512 116.697514 
L 241.344 116.926728 
L 241.7904 115.12149 
L 242.2368 114.50294 
L 242.6832 115.017841 
L 243.1296 114.720731 
L 243.576 117.344677 
L 244.0224 115.297224 
L 244.4688 117.562671 
L 244.9152 115.33093 
L 245.3616 117.779873 
L 245.808 115.378709 
L 246.2544 115.562647 
L 246.7008 117.83489 
L 247.1472 117.83556 
L 247.5936 118.087381 
L 248.04 116.225526 
L 248.4864 116.109022 
L 248.9328 118.262266 
L 249.3792 118.562425 
L 249.8256 116.355467 
L 250.272 116.11854 
L 250.7184 118.966781 
L 251.1648 116.064941 
L 251.6112 116.098129 
L 252.0576 116.384977 
L 252.504 116.432299 
L 252.9504 116.865177 
L 253.3968 116.89512 
L 253.8432 116.648598 
L 254.2896 119.03626 
L 254.736 117.040718 
L 255.1824 118.422102 
L 255.6288 116.558663 
L 256.0752 116.906632 
L 256.5216 119.538025 
L 256.968 119.190226 
L 257.4144 117.526132 
L 258.3072 117.088257 
L 258.7536 117.996987 
L 258.7536 117.996987 
" clip-path="url(#p82d0f015d6)" style="fill: none; stroke: #000000; stroke-width: 3.2; stroke-linecap: square"/>
   <path d="M 36 119.613379 
L 36.4464 119.951835 
L 36.8928 119.578174 
L 37.3392 119.674872 
L 37.7856 116.976003 
L 38.232 117.366695 
L 38.6784 119.27102 
L 39.1248 117.145527 
L 39.5712 117.172398 
L 40.0176 119.258209 
L 40.464 119.486091 
L 40.9104 119.235366 
L 41.3568 116.85642 
L 41.8032 117.554089 
L 42.2496 117.673639 
L 42.696 117.168107 
L 43.1424 120.01181 
L 43.5888 117.568961 
L 44.0352 117.496152 
L 44.4816 119.596747 
L 44.928 117.695319 
L 45.3744 117.461725 
L 45.8208 117.873333 
L 46.7136 117.630759 
L 47.16 119.952654 
L 47.6064 117.22082 
L 48.0528 117.31469 
L 48.4992 120.493655 
L 48.9456 117.168608 
L 49.392 117.613884 
L 50.2848 119.968227 
L 50.7312 117.495695 
L 51.1776 119.926592 
L 51.624 119.815259 
L 52.0704 117.770236 
L 52.5168 117.927524 
L 52.9632 120.442942 
L 53.4096 117.681655 
L 53.856 117.524938 
L 54.3024 118.11415 
L 54.7488 117.684636 
L 55.1952 118.798397 
L 55.6416 117.712765 
L 56.088 117.921535 
L 56.5344 117.47052 
L 56.9808 120.180031 
L 57.4272 117.841864 
L 57.8736 118.07212 
L 58.32 117.561182 
L 58.7664 117.976701 
L 59.2128 117.586357 
L 59.6592 118.0985 
L 60.1056 118.323637 
L 60.552 119.984249 
L 60.9984 119.975647 
L 61.4448 117.907242 
L 61.8912 119.969228 
L 62.3376 118.022338 
L 62.784 117.817209 
L 63.2304 120.239721 
L 63.6768 118.071122 
L 64.1232 117.751936 
L 64.5696 117.945232 
L 65.016 117.903577 
L 65.4624 118.274014 
L 65.9088 117.716146 
L 66.3552 117.804436 
L 66.8016 120.516377 
L 67.248 118.126813 
L 67.6944 118.293863 
L 68.1408 117.891088 
L 68.5872 117.765217 
L 69.0336 118.104232 
L 69.48 117.947621 
L 69.9264 118.232437 
L 70.3728 118.285505 
L 70.8192 117.44842 
L 71.2656 120.269996 
L 71.712 117.776262 
L 72.1584 119.840905 
L 72.6048 118.32897 
L 73.0512 119.957124 
L 73.4976 120.165681 
L 73.944 117.870413 
L 74.8368 117.552631 
L 75.2832 119.293025 
L 75.7296 116.924975 
L 76.176 116.444088 
L 76.6224 116.956015 
L 77.0688 118.833957 
L 77.5152 119.292809 
L 77.9616 116.411056 
L 78.408 118.718901 
L 78.8544 116.369472 
L 79.3008 115.686322 
L 79.7472 115.650386 
L 80.1936 118.192928 
L 80.64 115.912549 
L 81.0864 114.948902 
L 81.9792 115.350128 
L 82.4256 115.929187 
L 82.872 115.154369 
L 83.3184 114.897397 
L 83.7648 116.689707 
L 84.2112 116.377783 
L 84.6576 116.345339 
L 85.104 114.53736 
L 85.5504 116.598226 
L 85.9968 113.781163 
L 86.4432 114.143797 
L 86.8896 114.036182 
L 87.336 113.622059 
L 87.7824 116.147644 
L 88.2288 113.539464 
L 88.6752 115.769482 
L 89.1216 113.617694 
L 89.568 115.203017 
L 90.0144 115.351617 
L 90.4608 112.523158 
L 90.9072 115.596584 
L 91.3536 115.09479 
L 91.8 112.540146 
L 92.6928 112.60344 
L 93.1392 112.358425 
L 93.5856 112.491899 
L 94.032 111.874695 
L 94.4784 114.176339 
L 94.9248 112.143548 
L 95.3712 112.114146 
L 95.8176 114.614159 
L 96.264 113.896954 
L 96.7104 111.454943 
L 97.1568 113.907953 
L 97.6032 111.491842 
L 98.0496 111.473321 
L 98.496 111.21285 
L 98.9424 111.372328 
L 100.2816 111.309351 
L 100.728 113.47893 
L 101.1744 110.7441 
L 101.6208 110.32447 
L 102.0672 110.848964 
L 102.5136 110.65786 
L 102.96 110.725315 
L 103.4064 110.638536 
L 103.8528 110.225337 
L 104.7456 110.405517 
L 105.192 112.7066 
L 105.6384 112.800187 
L 106.0848 109.851739 
L 106.5312 110.13031 
L 106.9776 110.101571 
L 107.424 109.767539 
L 107.8704 109.693955 
L 108.3168 109.883809 
L 108.7632 111.693407 
L 109.2096 109.503564 
L 109.656 109.5094 
L 110.1024 108.74422 
L 110.5488 109.05439 
L 110.9952 111.515818 
L 111.4416 108.839646 
L 111.888 108.497097 
L 112.3344 108.425347 
L 112.7808 108.617773 
L 113.2272 109.110153 
L 113.6736 108.321133 
L 114.12 109.766072 
L 114.5664 110.555598 
L 115.0128 110.814402 
L 115.4592 110.1661 
L 116.352 109.86092 
L 117.2448 108.935541 
L 117.6912 108.762838 
L 118.1376 108.326909 
L 118.584 107.432701 
L 119.0304 105.795544 
L 119.4768 101.585197 
L 120.3696 71.023795 
L 120.816 72.539039 
L 121.2624 80.010409 
L 122.1552 99.962391 
L 123.048 115.368833 
L 123.4944 119.791799 
L 123.9408 122.652163 
L 124.3872 123.574726 
L 124.8336 123.675472 
L 125.28 124.452363 
L 125.7264 122.29379 
L 126.1728 124.722494 
L 126.6192 124.676143 
L 127.0656 123.943593 
L 127.512 123.769112 
L 127.9584 123.860325 
L 128.4048 123.473148 
L 128.8512 123.563919 
L 129.2976 123.499177 
L 129.744 121.095201 
L 130.1904 122.702856 
L 130.6368 122.726055 
L 131.0832 120.496598 
L 131.5296 120.562247 
L 131.976 122.596047 
L 132.4224 122.533524 
L 133.3152 122.022697 
L 133.7616 121.362916 
L 134.208 121.481278 
L 134.6544 119.307237 
L 135.1008 121.613025 
L 135.5472 121.083523 
L 135.9936 118.635968 
L 136.44 121.021735 
L 136.8864 118.370056 
L 137.3328 120.992134 
L 137.7792 120.064346 
L 138.2256 120.491039 
L 138.672 120.311827 
L 139.1184 117.577025 
L 139.5648 119.779123 
L 140.0112 119.438447 
L 140.4576 118.778134 
L 140.904 117.358439 
L 141.3504 116.84864 
L 141.7968 119.402806 
L 142.2432 119.311396 
L 142.6896 116.863492 
L 143.136 117.118542 
L 144.0288 115.919404 
L 144.4752 116.48335 
L 145.368 118.264276 
L 145.8144 118.54333 
L 146.2608 118.450472 
L 146.7072 118.545655 
L 147.1536 116.013711 
L 147.6 115.601876 
L 148.0464 117.609387 
L 148.4928 117.516705 
L 148.9392 115.458101 
L 149.3856 117.468391 
L 149.832 117.906135 
L 150.2784 117.218082 
L 150.7248 117.579617 
L 151.1712 117.570724 
L 151.6176 116.943278 
L 152.064 114.765741 
L 152.5104 115.479762 
L 152.9568 117.058188 
L 153.4032 114.694258 
L 153.8496 114.606215 
L 154.296 114.157711 
L 154.7424 116.832212 
L 155.1888 116.392171 
L 155.6352 113.995536 
L 156.0816 113.813525 
L 156.528 115.197962 
L 156.9744 113.606595 
L 157.4208 113.806501 
L 157.8672 113.832052 
L 158.3136 115.971484 
L 158.76 115.862892 
L 159.2064 114.834885 
L 159.6528 113.473487 
L 160.0992 113.624504 
L 160.5456 115.870509 
L 160.992 115.613503 
L 161.4384 113.729893 
L 161.8848 115.566788 
L 162.3312 113.107449 
L 162.7776 115.463339 
L 163.224 113.34852 
L 164.1168 113.085573 
L 164.5632 112.799522 
L 165.0096 115.230039 
L 165.456 112.795605 
L 165.9024 115.409461 
L 166.3488 112.764217 
L 166.7952 114.511807 
L 167.2416 112.754085 
L 167.688 112.301538 
L 168.5808 112.81874 
L 169.0272 112.363978 
L 169.4736 112.271176 
L 169.92 114.838133 
L 170.3664 114.385966 
L 171.2592 114.427776 
L 171.7056 112.157973 
L 172.152 112.006685 
L 172.5984 111.62518 
L 173.0448 111.765103 
L 173.4912 111.694495 
L 173.9376 112.017985 
L 174.384 111.825458 
L 174.8304 111.903033 
L 175.2768 111.754415 
L 175.7232 111.768663 
L 176.1696 112.307037 
L 176.616 111.434536 
L 177.0624 111.429685 
L 177.5088 113.311468 
L 177.9552 112.087485 
L 178.4016 111.802722 
L 178.848 113.822552 
L 179.2944 111.27648 
L 179.7408 111.220719 
L 180.1872 113.87205 
L 180.6336 113.809512 
L 181.08 111.518915 
L 181.5264 111.600483 
L 181.9728 111.256278 
L 182.4192 113.92608 
L 182.8656 114.083817 
L 183.312 113.38789 
L 183.7584 113.504645 
L 184.2048 111.180501 
L 184.6512 110.869184 
L 185.0976 110.809453 
L 185.544 113.199066 
L 185.9904 111.384713 
L 186.4368 113.544771 
L 186.8832 113.306989 
L 187.3296 110.926468 
L 187.776 111.132593 
L 188.2224 110.747958 
L 188.6688 113.072926 
L 189.1152 113.261389 
L 189.5616 110.802684 
L 190.008 110.661634 
L 190.4544 112.96622 
L 190.9008 110.732582 
L 191.3472 113.109706 
L 191.7936 110.981509 
L 192.24 111.080522 
L 193.5792 110.578183 
L 194.9184 110.875386 
L 195.3648 113.099554 
L 196.2576 110.708841 
L 196.704 110.260197 
L 197.1504 110.215436 
L 197.5968 110.475008 
L 198.0432 110.231394 
L 198.4896 110.339063 
L 198.936 109.852565 
L 199.3824 110.056467 
L 199.8288 110.412934 
L 200.2752 109.972365 
L 200.7216 110.182166 
L 201.168 109.983953 
L 202.0608 109.928907 
L 202.5072 112.628265 
L 203.8464 112.013414 
L 204.7392 112.430523 
L 205.1856 112.412963 
L 205.632 111.935653 
L 206.9712 112.55905 
L 207.4176 112.003452 
L 207.864 111.991592 
L 208.7568 112.389668 
L 209.2032 111.621417 
L 209.6496 112.150544 
L 210.096 112.345177 
L 210.5424 111.702462 
L 210.9888 111.836447 
L 211.4352 112.29952 
L 211.8816 111.456973 
L 212.328 111.596179 
L 212.7744 111.893594 
L 213.6672 111.186321 
L 214.1136 111.760667 
L 215.0064 111.843918 
L 215.4528 111.539963 
L 215.8992 111.54357 
L 216.3456 111.39111 
L 216.792 111.518616 
L 217.2384 111.880373 
L 217.6848 109.300219 
L 218.1312 111.39993 
L 218.5776 111.530977 
L 219.024 111.236787 
L 219.4704 108.98998 
L 219.9168 111.249077 
L 220.3632 108.784352 
L 220.8096 111.151368 
L 221.7024 111.412284 
L 222.1488 111.322339 
L 222.5952 108.75507 
L 223.0416 111.746079 
L 223.488 109.799377 
L 223.9344 109.757139 
L 224.3808 111.918884 
L 224.8272 110.056575 
L 225.2736 109.998626 
L 225.72 112.237405 
L 226.1664 110.321007 
L 226.6128 112.92342 
L 227.0592 112.735572 
L 227.5056 110.974797 
L 227.952 113.27405 
L 228.3984 110.965761 
L 228.8448 113.221596 
L 229.2912 114.220247 
L 229.7376 111.440477 
L 230.184 113.814351 
L 230.6304 111.396409 
L 231.0768 114.166683 
L 231.5232 111.891369 
L 231.9696 112.434836 
L 232.416 112.388664 
L 232.8624 114.903065 
L 233.3088 115.052019 
L 233.7552 115.477908 
L 234.2016 112.634569 
L 234.648 114.982335 
L 235.0944 115.135093 
L 235.5408 113.242646 
L 235.9872 115.126703 
L 236.4336 113.395766 
L 236.88 113.597831 
L 237.3264 114.111162 
L 237.7728 116.066515 
L 238.2192 113.717177 
L 238.6656 113.77091 
L 239.112 113.973181 
L 239.5584 114.546728 
L 240.0048 114.303378 
L 240.4512 116.697514 
L 241.344 116.926728 
L 241.7904 115.12149 
L 242.2368 114.50294 
L 242.6832 115.017841 
L 243.1296 114.720731 
L 243.576 117.344677 
L 244.0224 115.297224 
L 244.4688 117.562671 
L 244.9152 115.33093 
L 245.3616 117.779873 
L 245.808 115.378709 
L 246.2544 115.562647 
L 246.7008 117.83489 
L 247.1472 117.83556 
L 247.5936 118.087381 
L 248.04 116.225526 
L 248.4864 116.109022 
L 248.9328 118.262266 
L 249.3792 118.562425 
L 249.8256 116.355467 
L 250.272 116.11854 
L 250.7184 118.966781 
L 251.1648 116.064941 
L 251.6112 116.098129 
L 252.0576 116.384977 
L 252.504 116.432299 
L 252.9504 116.865177 
L 253.3968 116.89512 
L 253.8432 116.648598 
L 254.2896 119.03626 
L 254.736 117.040718 
L 255.1824 118.422102 
L 255.6288 116.558663 
L 256.0752 116.906632 
L 256.5216 119.538025 
L 256.968 119.190226 
L 257.4144 117.526132 
L 258.3072 117.088257 
L 258.7536 117.996987 
L 258.7536 117.996987 
" clip-path="url(#p82d0f015d6)" style="fill: none; stroke: #d94801; stroke-width: 1.6; stroke-linecap: square"/>
  </g>
 </g>
 <defs>
  <clipPath id="p82d0f015d6">
   <rect x="36" y="20.736" width="223.2" height="133.056"/>
  </clipPath>
 </defs>
</svg>
