<?xml version="1.0" encoding="utf-8" standalone="no"?>
<!DOCTYPE svg PUBLIC "-//W3C//DTD SVG 1.1//EN"
  "http://www.w3.org/Graphics/SVG/1.1/DTD/svg11.dtd">
<svg xmlns:xlink="http://www.w3.org/1999/xlink" width="180pt" height="108pt" viewBox="0 0 180 108" xmlns="http://www.w3.org/2000/svg" version="1.1">
 <metadata>
  <rdf:RDF xmlns:dc="http://purl.org/dc/elements/1.1/" xmlns:cc="http://creativecommons.org/ns#" xmlns:rdf="http://www.w3.org/1999/02/22-rdf-syntax-ns#">
   <cc:Work>
    <dc:type rdf:resource="http://purl.org/dc/dcmitype/StillImage"/>
    <dc:date>2023-05-19T11:59:50.070112</dc:date>
    <dc:format>image/svg+xml</dc:format>
    <dc:creator>
     <cc:Agent>
      <dc:title>Matplotlib v3.5.0, https://matplotlib.org/</dc:title>
     </cc:Agent>
    </dc:creator>
   </cc:Work>
  </rdf:RDF>
 </metadata>
 <defs>
  <style type="text/css">*{stroke-linejoin: round; stroke-linecap: butt}</style>
 </defs>
 <g id="figure_1">
  <g id="patch_1">
   <path d="M 0 108 
L 180 108 
L 180 0 
L 0 0 
L 0 108 
z
" style="fill: none"/>
  </g>
  <g id="axes_1">
   <path d="M 22.5 73.845549 
L 23.058 74.091798 
L 23.337 73.921845 
L 23.895 73.868996 
L 24.174 73.789522 
L 24.453 73.933233 
L 24.732 73.85047 
L 25.011 73.9043 
L 25.29 74.098072 
L 25.569 74.155415 
L 25.848 74.067904 
L 26.127 74.263019 
L 26.406 74.089188 
L 26.685 74.107276 
L 26.964 74.28226 
L 27.243 73.783097 
L 27.522 74.179981 
L 27.801 74.146065 
L 28.08 73.941991 
L 28.638 74.134696 
L 28.917 73.996339 
L 29.475 74.126894 
L 29.754 74.419695 
L 30.033 74.294518 
L 30.312 74.005134 
L 30.591 74.439503 
L 30.87 74.18216 
L 31.149 74.377924 
L 31.707 74.043524 
L 32.265 74.368746 
L 32.544 74.214451 
L 33.102 74.190101 
L 33.381 74.610431 
L 33.939 74.095469 
L 34.218 74.014332 
L 34.497 74.451947 
L 34.776 74.412352 
L 35.055 74.500589 
L 35.334 74.377514 
L 35.892 74.423428 
L 36.171 73.928836 
L 36.45 74.345017 
L 37.566 74.28906 
L 37.845 74.156993 
L 38.124 74.434609 
L 38.961 74.254619 
L 39.24 74.564809 
L 39.519 74.588111 
L 39.798 74.28557 
L 40.077 74.443185 
L 40.356 74.233574 
L 40.914 74.217791 
L 41.193 74.388562 
L 41.751 74.442227 
L 42.03 74.555537 
L 42.309 74.235114 
L 42.588 74.503154 
L 42.867 74.229247 
L 43.425 74.485578 
L 43.704 74.19955 
L 43.983 74.713541 
L 44.541 74.279558 
L 45.657 74.515146 
L 45.936 74.398494 
L 46.215 74.44003 
L 46.494 74.309805 
L 46.773 73.80949 
L 47.052 74.041935 
L 47.331 73.807934 
L 47.889 73.745898 
L 48.168 73.496695 
L 48.447 73.749138 
L 48.726 73.519954 
L 49.005 73.057193 
L 49.284 73.435641 
L 49.842 73.073827 
L 50.4 72.834329 
L 50.958 72.84364 
L 51.237 72.66029 
L 51.795 72.698393 
L 52.074 72.190322 
L 52.353 72.423452 
L 52.632 72.234109 
L 52.911 71.905615 
L 53.19 72.28743 
L 53.469 72.032303 
L 54.027 72.006234 
L 54.306 71.680299 
L 54.585 72.031415 
L 54.864 71.587849 
L 55.701 71.305673 
L 55.98 71.425656 
L 56.259 71.264991 
L 56.817 71.283594 
L 57.375 70.921833 
L 57.654 71.060289 
L 57.933 70.708095 
L 58.212 70.765632 
L 58.491 71.232365 
L 58.77 70.787256 
L 59.328 70.499233 
L 60.165 70.462713 
L 60.444 70.655612 
L 60.723 70.467934 
L 61.002 70.573142 
L 61.56 70.217345 
L 61.839 70.311755 
L 62.118 70.028653 
L 62.955 70.163607 
L 63.234 69.996062 
L 63.513 69.967639 
L 63.792 70.056065 
L 64.071 69.915931 
L 64.35 69.931183 
L 64.629 69.636106 
L 64.908 69.5996 
L 65.187 69.71643 
L 65.466 69.628583 
L 65.745 69.661002 
L 66.024 69.363866 
L 66.303 69.231172 
L 66.582 69.446881 
L 66.861 69.417178 
L 67.14 69.174855 
L 67.419 69.316328 
L 67.698 69.270878 
L 67.977 69.381854 
L 68.256 69.252407 
L 68.535 69.254985 
L 68.814 69.081322 
L 69.093 69.222195 
L 69.651 69.046682 
L 69.93 69.214685 
L 70.209 68.991372 
L 71.604 68.699374 
L 71.883 68.72067 
L 72.162 68.50132 
L 72.441 68.479205 
L 72.72 68.151211 
L 73.278 68.706348 
L 73.836 68.223521 
L 74.952 67.943038 
L 75.231 67.587358 
L 75.51 67.463269 
L 75.789 67.581112 
L 76.347 67.119921 
L 76.626 66.631121 
L 76.905 66.445876 
L 77.184 65.582553 
L 77.463 63.904114 
L 77.742 57.290816 
L 78.021 47.975303 
L 78.3 52.895441 
L 78.858 72.070988 
L 79.137 77.754195 
L 79.416 79.960055 
L 79.974 80.688507 
L 80.253 80.687714 
L 80.532 80.393523 
L 80.811 80.573699 
L 81.648 79.799271 
L 81.927 79.910003 
L 82.206 79.351043 
L 82.485 79.440193 
L 83.043 79.080898 
L 83.322 78.729302 
L 83.88 78.444351 
L 84.159 78.561766 
L 84.438 78.337256 
L 84.996 78.169566 
L 85.275 77.969645 
L 85.554 77.610796 
L 85.833 77.591932 
L 86.112 77.380058 
L 86.391 77.344807 
L 86.949 76.975888 
L 87.507 76.797255 
L 87.786 76.485744 
L 88.065 76.803454 
L 88.902 76.108102 
L 89.181 75.948982 
L 89.46 75.925741 
L 89.739 75.600191 
L 90.018 75.804098 
L 90.297 75.419825 
L 90.576 75.582549 
L 90.855 75.242988 
L 91.413 75.250219 
L 91.692 75.018768 
L 91.971 75.06683 
L 92.529 74.56902 
L 92.808 74.531876 
L 93.087 74.812718 
L 93.924 74.210167 
L 94.761 73.981763 
L 95.04 73.82642 
L 95.319 73.980577 
L 95.877 73.547655 
L 96.993 73.265459 
L 97.272 73.130161 
L 97.551 73.122439 
L 97.83 72.809593 
L 98.109 72.898454 
L 98.388 72.773877 
L 98.667 72.972965 
L 98.946 72.936879 
L 99.225 72.732259 
L 99.504 72.842852 
L 100.341 72.081758 
L 100.62 72.298611 
L 100.899 72.309687 
L 101.178 72.098965 
L 101.457 72.181141 
L 102.015 71.829207 
L 102.294 72.129318 
L 102.852 71.774329 
L 103.131 71.939973 
L 103.41 71.55275 
L 103.689 71.728256 
L 103.968 71.314824 
L 104.247 71.725355 
L 104.805 71.441203 
L 105.084 71.394674 
L 105.363 71.156413 
L 105.642 71.417568 
L 106.2 71.188345 
L 106.479 71.241355 
L 106.758 70.91385 
L 107.037 71.065921 
L 107.316 71.088012 
L 107.595 70.839457 
L 107.874 70.990538 
L 108.99 70.643915 
L 109.269 70.547655 
L 109.548 70.625536 
L 109.827 70.41351 
L 110.106 70.597135 
L 110.385 70.213081 
L 110.664 70.40776 
L 110.943 70.19806 
L 111.222 70.42051 
L 111.501 70.354649 
L 111.78 70.435129 
L 112.617 69.966363 
L 112.896 70.190582 
L 113.175 70.05398 
L 113.454 70.352186 
L 113.733 69.852485 
L 114.012 69.982719 
L 114.291 69.635825 
L 114.57 69.949635 
L 114.849 69.633044 
L 115.128 69.863771 
L 115.407 69.626766 
L 115.686 69.975696 
L 115.965 69.589158 
L 116.244 69.744275 
L 116.523 69.443645 
L 116.802 69.595704 
L 117.36 69.609755 
L 117.918 69.278955 
L 118.197 69.464066 
L 118.476 69.30403 
L 118.755 69.483648 
L 119.034 69.299281 
L 119.313 69.302702 
L 119.592 69.118321 
L 119.871 69.451942 
L 120.708 68.885411 
L 120.987 69.244142 
L 121.266 69.042503 
L 121.545 69.002532 
L 121.824 69.120349 
L 122.103 69.018156 
L 122.382 68.776747 
L 122.661 68.824926 
L 122.94 69.127827 
L 123.219 68.9038 
L 123.498 68.823238 
L 123.777 68.626735 
L 124.335 68.949171 
L 124.614 68.528267 
L 124.893 68.702915 
L 125.172 68.576909 
L 125.451 68.638223 
L 125.73 68.287122 
L 126.009 68.361909 
L 126.288 68.62957 
L 126.567 68.645322 
L 126.846 68.497485 
L 127.125 68.003202 
L 127.404 68.470572 
L 127.683 68.453157 
L 127.962 68.319254 
L 128.52 68.371386 
L 128.799 68.22681 
L 130.194 68.292507 
L 131.031 67.696444 
L 131.31 67.788912 
L 131.868 67.69732 
L 132.705 67.185345 
L 132.984 67.309008 
L 133.263 66.603827 
L 133.542 66.249471 
L 133.821 65.121102 
L 134.1 62.914081 
L 134.379 53.955715 
L 134.658 48.884177 
L 135.774 78.703401 
L 136.053 80.070225 
L 136.332 80.722216 
L 136.611 80.519618 
L 136.89 80.675761 
L 137.448 80.13417 
L 137.727 80.37454 
L 138.006 79.852432 
L 138.285 79.687462 
L 138.564 79.670581 
L 138.843 79.540512 
L 139.401 79.513759 
L 139.959 79.286252 
L 140.238 79.610927 
L 140.517 79.309325 
L 141.075 79.088402 
L 141.354 79.343942 
L 141.633 79.09959 
L 141.912 79.269729 
L 142.191 78.792828 
L 142.47 79.082252 
L 143.028 78.782916 
L 143.586 78.678037 
L 143.865 78.783466 
L 144.144 78.609672 
L 144.702 78.681742 
L 144.981 78.290936 
L 145.539 78.692209 
L 145.818 78.444917 
L 146.097 78.75486 
L 146.934 78.333058 
L 147.213 78.314117 
L 147.492 78.160476 
L 147.771 78.179468 
L 148.05 78.055553 
L 148.329 78.470806 
L 148.608 78.201991 
L 148.887 78.194371 
L 149.166 77.91151 
L 149.445 77.934959 
L 149.724 77.8041 
L 150.003 77.945993 
L 150.282 77.891372 
L 150.561 77.970849 
L 151.119 77.874787 
L 151.398 78.00505 
L 151.677 77.489147 
L 152.793 77.492704 
L 153.072 77.611437 
L 153.63 77.465596 
L 153.909 77.641191 
L 154.188 77.345423 
L 154.746 77.512808 
L 155.025 77.199552 
L 155.304 77.4745 
L 155.583 77.497731 
L 155.862 77.206328 
L 156.141 77.310813 
L 156.42 77.0977 
L 156.978 77.105626 
L 157.257 77.313321 
L 157.815 77.082386 
L 158.094 77.156091 
L 158.931 76.904502 
L 160.605 77.012445 
L 161.163 76.855581 
L 161.442 77.014791 
L 161.721 76.825861 
L 161.721 76.825861 
" clip-path="url(#p03b2059120)" style="fill: none; stroke: #000000; stroke-width: 3.2; stroke-linecap: square"/>
   <path d="M 22.5 73.845549 
L 23.058 74.091798 
L 23.337 73.921845 
L 23.895 73.868996 
L 24.174 73.789522 
L 24.453 73.933233 
L 24.732 73.85047 
L 25.011 73.9043 
L 25.29 74.098072 
L 25.569 74.155415 
L 25.848 74.067904 
L 26.127 74.263019 
L 26.406 74.089188 
L 26.685 74.107276 
L 26.964 74.28226 
L 27.243 73.783097 
L 27.522 74.179981 
L 27.801 74.146065 
L 28.08 73.941991 
L 28.638 74.134696 
L 28.917 73.996339 
L 29.475 74.126894 
L 29.754 74.419695 
L 30.033 74.294518 
L 30.312 74.005134 
L 30.591 74.439503 
L 30.87 74.18216 
L 31.149 74.377924 
L 31.707 74.043524 
L 32.265 74.368746 
L 32.544 74.214451 
L 33.102 74.190101 
L 33.381 74.610431 
L 33.939 74.095469 
L 34.218 74.014332 
L 34.497 74.451947 
L 34.776 74.412352 
L 35.055 74.500589 
L 35.334 74.377514 
L 35.892 74.423428 
L 36.171 73.928836 
L 36.45 74.345017 
L 37.566 74.28906 
L 37.845 74.156993 
L 38.124 74.434609 
L 38.961 74.254619 
L 39.24 74.564809 
L 39.519 74.588111 
L 39.798 74.28557 
L 40.077 74.443185 
L 40.356 74.233574 
L 40.914 74.217791 
L 41.193 74.388562 
L 41.751 74.442227 
L 42.03 74.555537 
L 42.309 74.235114 
L 42.588 74.503154 
L 42.867 74.229247 
L 43.425 74.485578 
L 43.704 74.19955 
L 43.983 74.713541 
L 44.541 74.279558 
L 45.657 74.515146 
L 45.936 74.398494 
L 46.215 74.44003 
L 46.494 74.309805 
L 46.773 73.80949 
L 47.052 74.041935 
L 47.331 73.807934 
L 47.889 73.745898 
L 48.168 73.496695 
L 48.447 73.749138 
L 48.726 73.519954 
L 49.005 73.057193 
L 49.284 73.435641 
L 49.842 73.073827 
L 50.4 72.834329 
L 50.958 72.84364 
L 51.237 72.66029 
L 51.795 72.698393 
L 52.074 72.190322 
L 52.353 72.423452 
L 52.632 72.234109 
L 52.911 71.905615 
L 53.19 72.28743 
L 53.469 72.032303 
L 54.027 72.006234 
L 54.306 71.680299 
L 54.585 72.031415 
L 54.864 71.587849 
L 55.701 71.305673 
L 55.98 71.425656 
L 56.259 71.264991 
L 56.817 71.283594 
L 57.375 70.921833 
L 57.654 71.060289 
L 57.933 70.708095 
L 58.212 70.765632 
L 58.491 71.232365 
L 58.77 70.787256 
L 59.328 70.499233 
L 60.165 70.462713 
L 60.444 70.655612 
L 60.723 70.467934 
L 61.002 70.573142 
L 61.56 70.217345 
L 61.839 70.311755 
L 62.118 70.028653 
L 62.955 70.163607 
L 63.234 69.996062 
L 63.513 69.967639 
L 63.792 70.056065 
L 64.071 69.915931 
L 64.35 69.931183 
L 64.629 69.636106 
L 64.908 69.5996 
L 65.187 69.71643 
L 65.466 69.628583 
L 65.745 69.661002 
L 66.024 69.363866 
L 66.303 69.231172 
L 66.582 69.446881 
L 66.861 69.417178 
L 67.14 69.174855 
L 67.419 69.316328 
L 67.698 69.270878 
L 67.977 69.381854 
L 68.256 69.252407 
L 68.535 69.254985 
L 68.814 69.081322 
L 69.093 69.222195 
L 69.651 69.046682 
L 69.93 69.214685 
L 70.209 68.991372 
L 71.604 68.699374 
L 71.883 68.72067 
L 72.162 68.50132 
L 72.441 68.479205 
L 72.72 68.151211 
L 73.278 68.706348 
L 73.836 68.223521 
L 74.952 67.943038 
L 75.231 67.587358 
L 75.51 67.463269 
L 75.789 67.581112 
L 76.347 67.119921 
L 76.626 66.631121 
L 76.905 66.445876 
L 77.184 65.582553 
L 77.463 63.904114 
L 77.742 57.290816 
L 78.021 47.975303 
L 78.3 52.895441 
L 78.858 72.070988 
L 79.137 77.754195 
L 79.416 79.960055 
L 79.974 80.688507 
L 80.253 80.687714 
L 80.532 80.393523 
L 80.811 80.573699 
L 81.648 79.799271 
L 81.927 79.910003 
L 82.206 79.351043 
L 82.485 79.440193 
L 83.043 79.080898 
L 83.322 78.729302 
L 83.88 78.444351 
L 84.159 78.561766 
L 84.438 78.337256 
L 84.996 78.169566 
L 85.275 77.969645 
L 85.554 77.610796 
L 85.833 77.591932 
L 86.112 77.380058 
L 86.391 77.344807 
L 86.949 76.975888 
L 87.507 76.797255 
L 87.786 76.485744 
L 88.065 76.803454 
L 88.902 76.108102 
L 89.181 75.948982 
L 89.46 75.925741 
L 89.739 75.600191 
L 90.018 75.804098 
L 90.297 75.419825 
L 90.576 75.582549 
L 90.855 75.242988 
L 91.413 75.250219 
L 91.692 75.018768 
L 91.971 75.06683 
L 92.529 74.56902 
L 92.808 74.531876 
L 93.087 74.812718 
L 93.924 74.210167 
L 94.761 73.981763 
L 95.04 73.82642 
L 95.319 73.980577 
L 95.877 73.547655 
L 96.993 73.265459 
L 97.272 73.130161 
L 97.551 73.122439 
L 97.83 72.809593 
L 98.109 72.898454 
L 98.388 72.773877 
L 98.667 72.972965 
L 98.946 72.936879 
L 99.225 72.732259 
L 99.504 72.842852 
L 100.341 72.081758 
L 100.62 72.298611 
L 100.899 72.309687 
L 101.178 72.098965 
L 101.457 72.181141 
L 102.015 71.829207 
L 102.294 72.129318 
L 102.852 71.774329 
L 103.131 71.939973 
L 103.41 71.55275 
L 103.689 71.728256 
L 103.968 71.314824 
L 104.247 71.725355 
L 104.805 71.441203 
L 105.084 71.394674 
L 105.363 71.156413 
L 105.642 71.417568 
L 106.2 71.188345 
L 106.479 71.241355 
L 106.758 70.91385 
L 107.037 71.065921 
L 107.316 71.088012 
L 107.595 70.839457 
L 107.874 70.990538 
L 108.99 70.643915 
L 109.269 70.547655 
L 109.548 70.625536 
L 109.827 70.41351 
L 110.106 70.597135 
L 110.385 70.213081 
L 110.664 70.40776 
L 110.943 70.19806 
L 111.222 70.42051 
L 111.501 70.354649 
L 111.78 70.435129 
L 112.617 69.966363 
L 112.896 70.190582 
L 113.175 70.05398 
L 113.454 70.352186 
L 113.733 69.852485 
L 114.012 69.982719 
L 114.291 69.635825 
L 114.57 69.949635 
L 114.849 69.633044 
L 115.128 69.863771 
L 115.407 69.626766 
L 115.686 69.975696 
L 115.965 69.589158 
L 116.244 69.744275 
L 116.523 69.443645 
L 116.802 69.595704 
L 117.36 69.609755 
L 117.918 69.278955 
L 118.197 69.464066 
L 118.476 69.30403 
L 118.755 69.483648 
L 119.034 69.299281 
L 119.313 69.302702 
L 119.592 69.118321 
L 119.871 69.451942 
L 120.708 68.885411 
L 120.987 69.244142 
L 121.266 69.042503 
L 121.545 69.002532 
L 121.824 69.120349 
L 122.103 69.018156 
L 122.382 68.776747 
L 122.661 68.824926 
L 122.94 69.127827 
L 123.219 68.9038 
L 123.498 68.823238 
L 123.777 68.626735 
L 124.335 68.949171 
L 124.614 68.528267 
L 124.893 68.702915 
L 125.172 68.576909 
L 125.451 68.638223 
L 125.73 68.287122 
L 126.009 68.361909 
L 126.288 68.62957 
L 126.567 68.645322 
L 126.846 68.497485 
L 127.125 68.003202 
L 127.404 68.470572 
L 127.683 68.453157 
L 127.962 68.319254 
L 128.52 68.371386 
L 128.799 68.22681 
L 130.194 68.292507 
L 131.031 67.696444 
L 131.31 67.788912 
L 131.868 67.69732 
L 132.705 67.185345 
L 132.984 67.309008 
L 133.263 66.603827 
L 133.542 66.249471 
L 133.821 65.121102 
L 134.1 62.914081 
L 134.379 53.955715 
L 134.658 48.884177 
L 135.774 78.703401 
L 136.053 80.070225 
L 136.332 80.722216 
L 136.611 80.519618 
L 136.89 80.675761 
L 137.448 80.13417 
L 137.727 80.37454 
L 138.006 79.852432 
L 138.285 79.687462 
L 138.564 79.670581 
L 138.843 79.540512 
L 139.401 79.513759 
L 139.959 79.286252 
L 140.238 79.610927 
L 140.517 79.309325 
L 141.075 79.088402 
L 141.354 79.343942 
L 141.633 79.09959 
L 141.912 79.269729 
L 142.191 78.792828 
L 142.47 79.082252 
L 143.028 78.782916 
L 143.586 78.678037 
L 143.865 78.783466 
L 144.144 78.609672 
L 144.702 78.681742 
L 144.981 78.290936 
L 145.539 78.692209 
L 145.818 78.444917 
L 146.097 78.75486 
L 146.934 78.333058 
L 147.213 78.314117 
L 147.492 78.160476 
L 147.771 78.179468 
L 148.05 78.055553 
L 148.329 78.470806 
L 148.608 78.201991 
L 148.887 78.194371 
L 149.166 77.91151 
L 149.445 77.934959 
L 149.724 77.8041 
L 150.003 77.945993 
L 150.282 77.891372 
L 150.561 77.970849 
L 151.119 77.874787 
L 151.398 78.00505 
L 151.677 77.489147 
L 152.793 77.492704 
L 153.072 77.611437 
L 153.63 77.465596 
L 153.909 77.641191 
L 154.188 77.345423 
L 154.746 77.512808 
L 155.025 77.199552 
L 155.304 77.4745 
L 155.583 77.497731 
L 155.862 77.206328 
L 156.141 77.310813 
L 156.42 77.0977 
L 156.978 77.105626 
L 157.257 77.313321 
L 157.815 77.082386 
L 158.094 77.156091 
L 158.931 76.904502 
L 160.605 77.012445 
L 161.163 76.855581 
L 161.442 77.014791 
L 161.721 76.825861 
L 161.721 76.825861 
" clip-path="url(#p03b2059120)" style="fill: none; stroke: #d94801; stroke-width: 1.6; stroke-linecap: square"/>
  </g>
 </g>
 <defs>
  <clipPath id="p03b2059120">
   <rect x="22.5" y="12.96" width="139.5" height="83.16"/>
  </clipPath>
 </defs>
</svg>
