<?xml version="1.0" encoding="utf-8" standalone="no"?>
<!DOCTYPE svg PUBLIC "-//W3C//DTD SVG 1.1//EN"
  "http://www.w3.org/Graphics/SVG/1.1/DTD/svg11.dtd">
<svg xmlns:xlink="http://www.w3.org/1999/xlink" width="155.091406pt" height="139.920781pt" viewBox="0 0 155.091406 139.920781" xmlns="http://www.w3.org/2000/svg" version="1.1">
 <metadata>
  <rdf:RDF xmlns:dc="http://purl.org/dc/elements/1.1/" xmlns:cc="http://creativecommons.org/ns#" xmlns:rdf="http://www.w3.org/1999/02/22-rdf-syntax-ns#">
   <cc:Work>
    <dc:type rdf:resource="http://purl.org/dc/dcmitype/StillImage"/>
    <dc:date>2023-05-16T16:11:09.095792</dc:date>
    <dc:format>image/svg+xml</dc:format>
    <dc:creator>
     <cc:Agent>
      <dc:title>Matplotlib v3.5.0, https://matplotlib.org/</dc:title>
     </cc:Agent>
    </dc:creator>
   </cc:Work>
  </rdf:RDF>
 </metadata>
 <defs>
  <style type="text/css">*{stroke-linejoin: round; stroke-linecap: butt}</style>
 </defs>
 <g id="figure_1">
  <g id="patch_1">
   <path d="M 0 139.920781 
L 155.091406 139.920781 
L 155.091406 0 
L 0 0 
L 0 139.920781 
z
" style="fill: none"/>
  </g>
  <g id="axes_1">
   <g id="patch_2">
    <path d="M 50.241406 104.22 
L 131.151406 104.22 
L 131.151406 23.832 
L 50.241406 23.832 
L 50.241406 104.22 
z
" style="fill: none"/>
   </g>
   <g id="PathCollection_1">
    <defs>
     <path id="m4d95aef03b" d="M 0 1.5 
C 0.397805 1.5 0.77937 1.341951 1.06066 1.06066 
C 1.341951 0.77937 1.5 0.397805 1.5 0 
C 1.5 -0.397805 1.341951 -0.77937 1.06066 -1.06066 
C 0.77937 -1.341951 0.397805 -1.5 0 -1.5 
C -0.397805 -1.5 -0.77937 -1.341951 -1.06066 -1.06066 
C -1.341951 -0.77937 -1.5 -0.397805 -1.5 0 
C -1.5 0.397805 -1.341951 0.77937 -1.06066 1.06066 
C -0.77937 1.341951 -0.397805 1.5 0 1.5 
z
" style="stroke: #08519c"/>
    </defs>
    <g clip-path="url(#p82ebf6c39c)">
     <use xlink:href="#m4d95aef03b" x="85.936234" y="68.630348" style="fill: #08519c; stroke: #08519c"/>
    </g>
   </g>
   <g id="matplotlib.axis_1">
    <g id="xtick_1">
     <g id="line2d_1">
      <defs>
       <path id="mdd790f3d52" d="M 0 0 
L 0 3.5 
" style="stroke: #000000; stroke-width: 1.5"/>
      </defs>
      <g>
       <use xlink:href="#mdd790f3d52" x="68.22141" y="104.22" style="stroke: #000000; stroke-width: 1.5"/>
      </g>
     </g>
     <g id="text_1">
      <text style="font: 9px 'Arial'; text-anchor: middle" x="68.22141" y="117.662031" transform="rotate(-0, 68.22141, 117.662031)">−1.0</text>
     </g>
    </g>
    <g id="xtick_2">
     <g id="line2d_2">
      <g>
       <use xlink:href="#mdd790f3d52" x="113.171408" y="104.22" style="stroke: #000000; stroke-width: 1.5"/>
      </g>
     </g>
     <g id="text_2">
      <text style="font: 9px 'Arial'; text-anchor: middle" x="113.171408" y="117.662031" transform="rotate(-0, 113.171408, 117.662031)">−0.5</text>
     </g>
    </g>
    <g id="text_3">
     <!-- $\theta_1$ -->
     <g transform="translate(86.106406 130.020781)">
      <text>
       <tspan style="font: 9px 'Arial'" x="0" y="-0.453125">θ</tspan>
       <tspan style="font: 6.3px 'Arial'" x="5.162182" y="2.2350624999999997">1</tspan>
      </text>
     </g>
    </g>
   </g>
   <g id="matplotlib.axis_2">
    <g id="ytick_1">
     <g id="line2d_3">
      <defs>
       <path id="m34b3eb2dc8" d="M 0 0 
L -3.5 0 
" style="stroke: #000000; stroke-width: 1.5"/>
      </defs>
      <g>
       <use xlink:href="#m34b3eb2dc8" x="50.241406" y="104.22" style="stroke: #000000; stroke-width: 1.5"/>
      </g>
     </g>
     <g id="text_4">
      <text style="font: 9px 'Arial'; text-anchor: end" x="43.241406" y="107.441016" transform="rotate(-0, 43.241406, 107.441016)">−2.50</text>
     </g>
    </g>
    <g id="ytick_2">
     <g id="line2d_4">
      <g>
       <use xlink:href="#m34b3eb2dc8" x="50.241406" y="81.889999" style="stroke: #000000; stroke-width: 1.5"/>
      </g>
     </g>
     <g id="text_5">
      <text style="font: 9px 'Arial'; text-anchor: end" x="43.241406" y="85.111015" transform="rotate(-0, 43.241406, 85.111015)">−2.25</text>
     </g>
    </g>
    <g id="ytick_3">
     <g id="line2d_5">
      <g>
       <use xlink:href="#m34b3eb2dc8" x="50.241406" y="59.559999" style="stroke: #000000; stroke-width: 1.5"/>
      </g>
     </g>
     <g id="text_6">
      <text style="font: 9px 'Arial'; text-anchor: end" x="43.241406" y="62.781014" transform="rotate(-0, 43.241406, 62.781014)">−2.00</text>
     </g>
    </g>
    <g id="ytick_4">
     <g id="line2d_6">
      <g>
       <use xlink:href="#m34b3eb2dc8" x="50.241406" y="37.229998" style="stroke: #000000; stroke-width: 1.5"/>
      </g>
     </g>
     <g id="text_7">
      <text style="font: 9px 'Arial'; text-anchor: end" x="43.241406" y="40.451014" transform="rotate(-0, 43.241406, 40.451014)">−1.75</text>
     </g>
    </g>
    <g id="text_8">
     <!-- $\theta_2$ -->
     <g transform="translate(13.77 68.616)rotate(-90)">
      <text>
       <tspan style="font: 9px 'Arial'" x="0" y="-0.453125">θ</tspan>
       <tspan style="font: 6.3px 'Arial'" x="5.162182" y="2.2350624999999997">2</tspan>
      </text>
     </g>
    </g>
   </g>
   <g id="PathCollection_2"/>
   <g id="PathCollection_3">
    <path d="M 75.419218 73.115105 
L 75.413637 72.71115 
L 75.447071 72.307194 
L 75.449545 72.289942 
L 75.500914 71.903218 
L 75.553561 71.499263 
L 75.580633 71.095307 
L 75.560956 70.691331 
L 75.486695 70.287376 
L 75.449545 70.14864 
L 75.373536 69.88342 
L 75.27597 69.479465 
L 75.23462 69.07551 
L 75.257468 68.671533 
L 75.334821 68.267578 
L 75.449545 67.878567 
L 75.453717 67.863623 
L 75.59866 67.459646 
L 75.760435 67.055691 
L 75.856129 66.835268 
L 75.932185 66.651736 
L 76.108013 66.24778 
L 76.262713 65.910677 
L 76.292846 65.843825 
L 76.478743 65.43987 
L 76.669296 65.048771 
L 76.675572 65.035915 
L 76.871684 64.631959 
L 77.07588 64.232024 
L 77.077933 64.227983 
L 77.282367 63.824028 
L 77.482464 63.448628 
L 77.497326 63.420072 
L 77.711608 63.016117 
L 77.889042 62.695179 
L 77.933514 62.612162 
L 78.150274 62.208185 
L 78.295626 61.931659 
L 78.361286 61.80423 
L 78.55466 61.400275 
L 78.702209 61.058747 
L 78.72932 60.996298 
L 78.881943 60.592343 
L 79.026224 60.188388 
L 79.108793 59.966719 
L 79.178529 59.784433 
L 79.362188 59.380467 
L 79.515377 59.109236 
L 79.591607 58.976501 
L 79.873126 58.572546 
L 79.92196 58.511631 
L 80.195946 58.16858 
L 80.328544 58.016959 
L 80.544634 57.764624 
L 80.735128 57.553038 
L 80.904325 57.360659 
L 81.141706 57.097793 
L 81.267743 56.956703 
L 81.54829 56.647966 
L 81.635667 56.552737 
L 81.954873 56.209223 
L 82.012687 56.148782 
L 82.361457 55.785345 
L 82.40196 55.744827 
L 82.768041 55.373384 
L 82.801641 55.340872 
L 83.174624 54.967566 
L 83.207139 54.936906 
L 83.581208 54.567618 
L 83.619588 54.53295 
L 83.987792 54.185539 
L 84.056711 54.128985 
L 84.39437 53.843772 
L 84.567039 53.725029 
L 84.800954 53.562234 
L 85.207537 53.344697 
L 85.261917 53.321063 
L 85.614121 53.168546 
L 86.020705 53.017268 
L 86.2918 52.917108 
L 86.427288 52.866733 
L 86.833872 52.699047 
L 87.240456 52.523899 
L 87.262993 52.513142 
L 87.647034 52.32578 
L 88.053618 52.135506 
L 88.110012 52.109187 
L 88.460201 51.936899 
L 88.866785 51.758067 
L 88.999153 51.705221 
L 89.273363 51.586617 
L 89.679947 51.43796 
L 90.086531 51.319141 
L 90.163758 51.301266 
L 90.493114 51.218714 
L 90.899693 51.14392 
L 91.306276 51.087548 
L 91.71286 51.039907 
L 92.119444 50.994437 
L 92.526027 50.949789 
L 92.932611 50.909148 
L 93.083838 50.8973 
L 93.339195 50.876116 
L 93.745778 50.854763 
L 94.152357 50.843814 
L 94.55894 50.837524 
L 94.965524 50.830994 
L 95.372108 50.825507 
L 95.778691 50.831345 
L 96.185275 50.867129 
L 96.33175 50.8973 
L 96.591859 50.955114 
L 96.998442 51.102951 
L 97.405021 51.28897 
L 97.43176 51.301266 
L 97.811604 51.451665 
L 98.218188 51.577165 
L 98.624772 51.664528 
L 98.897957 51.705221 
L 99.031355 51.723519 
L 99.437939 51.771226 
L 99.844523 51.828502 
L 100.251106 51.916512 
L 100.657685 52.059844 
L 100.756622 52.109187 
L 101.064268 52.280828 
L 101.383801 52.513142 
L 101.470852 52.578069 
L 101.877436 52.910043 
L 101.885835 52.917108 
L 102.284019 53.232251 
L 102.393203 53.321063 
L 102.690603 53.562959 
L 102.876717 53.725029 
L 103.097187 53.934039 
L 103.292628 54.128985 
L 103.50377 54.357682 
L 103.672698 54.53295 
L 103.910349 54.77712 
L 104.084093 54.936906 
L 104.316932 55.14548 
L 104.543454 55.340872 
L 104.723516 55.511956 
L 104.945689 55.744827 
L 105.1301 55.995378 
L 105.230892 56.148782 
L 105.430883 56.552737 
L 105.536683 56.827204 
L 105.587032 56.956703 
L 105.727225 57.360659 
L 105.85518 57.764624 
L 105.943267 58.095236 
L 105.962969 58.16858 
L 106.038001 58.572546 
L 106.074825 58.976501 
L 106.077894 59.380467 
L 106.056231 59.784433 
L 106.018067 60.188388 
L 105.967629 60.592343 
L 105.943267 60.745801 
L 105.904687 60.996298 
L 105.829139 61.400275 
L 105.741152 61.80423 
L 105.640772 62.208185 
L 105.536683 62.582473 
L 105.528721 62.612162 
L 105.412376 63.016117 
L 105.289009 63.420072 
L 105.157618 63.824028 
L 105.1301 63.904116 
L 105.025443 64.227983 
L 104.885342 64.631959 
L 104.732873 65.035915 
L 104.723516 65.059565 
L 104.581965 65.43987 
L 104.42073 65.843825 
L 104.316932 66.093674 
L 104.255475 66.24778 
L 104.090572 66.651736 
L 103.91786 67.055691 
L 103.910349 67.072835 
L 103.747855 67.459646 
L 103.567923 67.863623 
L 103.50377 67.997587 
L 103.38033 68.267578 
L 103.178621 68.671533 
L 103.097187 68.819354 
L 102.959816 69.07551 
L 102.719045 69.479465 
L 102.690603 69.522889 
L 102.451939 69.88342 
L 102.284019 70.113823 
L 102.152961 70.287376 
L 101.877436 70.620845 
L 101.815974 70.691331 
L 101.470852 71.057106 
L 101.432626 71.095307 
L 101.064268 71.439903 
L 100.99778 71.499263 
L 100.657685 71.787583 
L 100.51813 71.903218 
L 100.251106 72.116965 
L 100.013464 72.307194 
L 99.844523 72.440638 
L 99.505432 72.71115 
L 99.437939 72.765598 
L 99.031355 73.095792 
L 99.007482 73.115105 
L 98.624772 73.434536 
L 98.518757 73.51906 
L 98.218188 73.771855 
L 98.023517 73.923015 
L 97.811604 74.098928 
L 97.505316 74.326992 
L 97.405021 74.407074 
L 96.998442 74.697291 
L 96.946933 74.730947 
L 96.591859 74.980174 
L 96.354374 75.134902 
L 96.185275 75.253254 
L 95.778691 75.528683 
L 95.763546 75.538858 
L 95.372108 75.819525 
L 95.192532 75.942813 
L 94.965524 76.102422 
L 94.583413 76.346768 
L 94.55894 76.361902 
L 94.152357 76.582253 
L 93.757293 76.750724 
L 93.745778 76.755316 
L 93.339195 76.883394 
L 92.932611 76.978219 
L 92.526027 77.050959 
L 92.119444 77.114031 
L 91.867151 77.154679 
L 91.71286 77.179369 
L 91.306276 77.256015 
L 90.899693 77.343638 
L 90.493114 77.438186 
L 90.086531 77.534551 
L 89.985561 77.558655 
L 89.679947 77.633346 
L 89.273363 77.729731 
L 88.866785 77.822482 
L 88.460201 77.912126 
L 88.220821 77.962611 
L 88.053618 77.9996 
L 87.647034 78.081851 
L 87.240456 78.151061 
L 86.833872 78.201646 
L 86.427288 78.229459 
L 86.020705 78.233967 
L 85.614121 78.219254 
L 85.207537 78.193134 
L 84.800954 78.164827 
L 84.39437 78.142275 
L 83.987792 78.129962 
L 83.581208 78.127756 
L 83.174624 78.131165 
L 82.768041 78.132726 
L 82.361457 78.123555 
L 81.954873 78.094315 
L 81.54829 78.035897 
L 81.230999 77.962611 
L 81.141706 77.941685 
L 80.735128 77.813297 
L 80.328544 77.655192 
L 80.098361 77.558655 
L 79.92196 77.488097 
L 79.515377 77.330866 
L 79.108793 77.182157 
L 79.029667 77.154679 
L 78.702209 77.04243 
L 78.295626 76.889697 
L 77.982117 76.750724 
L 77.889042 76.704954 
L 77.482464 76.471372 
L 77.293719 76.346768 
L 77.07588 76.186655 
L 76.768508 75.942813 
L 76.669296 75.857119 
L 76.337864 75.538858 
L 76.262713 75.455142 
L 76.024695 75.134902 
L 75.856129 74.833621 
L 75.808319 74.730947 
L 75.658988 74.326992 
L 75.546864 73.923015 
L 75.465884 73.51906 
L 75.449545 73.378312 
L 75.419218 73.115105 
z
" clip-path="url(#p82ebf6c39c)" style="fill: none; stroke: #08519c; stroke-opacity: 0.111111; stroke-width: 1.5"/>
   </g>
   <g id="PathCollection_4">
    <path d="M 79.10176 69.479465 
L 79.108793 69.225906 
L 79.112863 69.07551 
L 79.150655 68.671533 
L 79.207496 68.267578 
L 79.27656 67.863623 
L 79.352736 67.459646 
L 79.433458 67.055691 
L 79.515377 66.67019 
L 79.519159 66.651736 
L 79.610166 66.24778 
L 79.714331 65.843825 
L 79.833872 65.43987 
L 79.92196 65.181544 
L 79.968606 65.035915 
L 80.117934 64.631959 
L 80.284497 64.227983 
L 80.328544 64.132466 
L 80.46707 63.824028 
L 80.668265 63.420072 
L 80.735128 63.29736 
L 80.887169 63.016117 
L 81.124319 62.612162 
L 81.141706 62.584061 
L 81.374047 62.208185 
L 81.54829 61.939128 
L 81.635924 61.80423 
L 81.905791 61.400275 
L 81.954873 61.327294 
L 82.183073 60.996298 
L 82.361457 60.743896 
L 82.473453 60.592343 
L 82.768041 60.20743 
L 82.783542 60.188388 
L 83.120569 59.784433 
L 83.174624 59.721615 
L 83.489516 59.380467 
L 83.581208 59.283544 
L 83.887051 58.976501 
L 83.987792 58.876846 
L 84.304086 58.572546 
L 84.39437 58.487125 
L 84.735349 58.16858 
L 84.800954 58.109182 
L 85.186097 57.764624 
L 85.207537 57.746342 
L 85.614121 57.402971 
L 85.665338 57.360659 
L 86.020705 57.081732 
L 86.186203 56.956703 
L 86.427288 56.780979 
L 86.753285 56.552737 
L 86.833872 56.496819 
L 87.240456 56.220081 
L 87.349624 56.148782 
L 87.647034 55.94732 
L 87.96521 55.744827 
L 88.053618 55.685204 
L 88.460201 55.432832 
L 88.631604 55.340872 
L 88.866785 55.206131 
L 89.273363 55.018027 
L 89.507557 54.936906 
L 89.679947 54.873869 
L 90.086531 54.767433 
L 90.493114 54.693613 
L 90.899693 54.638413 
L 91.306276 54.590527 
L 91.71286 54.54376 
L 91.805237 54.53295 
L 92.119444 54.492408 
L 92.526027 54.443082 
L 92.932611 54.402339 
L 93.339195 54.375304 
L 93.745778 54.366271 
L 94.152357 54.37806 
L 94.55894 54.410854 
L 94.965524 54.460865 
L 95.372108 54.520499 
L 95.454672 54.53295 
L 95.778691 54.57733 
L 96.185275 54.63014 
L 96.591859 54.682104 
L 96.998442 54.740298 
L 97.405021 54.814632 
L 97.811604 54.915216 
L 97.880906 54.936906 
L 98.218188 55.048784 
L 98.624772 55.219181 
L 98.869474 55.340872 
L 99.031355 55.426605 
L 99.437939 55.675317 
L 99.5368 55.744827 
L 99.844523 55.984591 
L 100.024903 56.148782 
L 100.251106 56.378645 
L 100.404851 56.552737 
L 100.657685 56.849595 
L 100.745716 56.956703 
L 101.064268 57.330466 
L 101.089966 57.360659 
L 101.427735 57.764624 
L 101.470852 57.823773 
L 101.702719 58.16858 
L 101.877436 58.551212 
L 101.886271 58.572546 
L 101.98803 58.976501 
L 102.035399 59.380467 
L 102.051894 59.784433 
L 102.056734 60.188388 
L 102.063601 60.592343 
L 102.079385 60.996298 
L 102.103064 61.400275 
L 102.125949 61.80423 
L 102.135032 62.208185 
L 102.119128 62.612162 
L 102.073552 63.016117 
L 101.999648 63.420072 
L 101.900805 63.824028 
L 101.877436 63.902615 
L 101.783405 64.227983 
L 101.646476 64.631959 
L 101.484397 65.035915 
L 101.470852 65.065743 
L 101.301385 65.43987 
L 101.088844 65.843825 
L 101.064268 65.887166 
L 100.858457 66.24778 
L 100.657685 66.576891 
L 100.611318 66.651736 
L 100.360056 67.055691 
L 100.251106 67.231157 
L 100.104652 67.459646 
L 99.844523 67.857891 
L 99.84061 67.863623 
L 99.560927 68.267578 
L 99.437939 68.433143 
L 99.252083 68.671533 
L 99.031355 68.934555 
L 98.908124 69.07551 
L 98.624772 69.381841 
L 98.531031 69.479465 
L 98.218188 69.794011 
L 98.125113 69.88342 
L 97.811604 70.17784 
L 97.687417 70.287376 
L 97.405021 70.531147 
L 97.20482 70.691331 
L 96.998442 70.852411 
L 96.664583 71.095307 
L 96.591859 71.146977 
L 96.185275 71.429934 
L 96.085855 71.499263 
L 95.778691 71.711223 
L 95.502028 71.903218 
L 95.372108 71.992886 
L 94.965524 72.27657 
L 94.921661 72.307194 
L 94.55894 72.558929 
L 94.328053 72.71115 
L 94.152357 72.825314 
L 93.745778 73.073259 
L 93.673004 73.115105 
L 93.339195 73.304918 
L 92.932611 73.516406 
L 92.92732 73.51906 
L 92.526027 73.719217 
L 92.119444 73.909008 
L 92.088796 73.923015 
L 91.71286 74.093383 
L 91.306276 74.267861 
L 91.162652 74.326992 
L 90.899693 74.434058 
L 90.493114 74.587538 
L 90.086531 74.72681 
L 90.072977 74.730947 
L 89.679947 74.851139 
L 89.273363 74.956615 
L 88.866785 75.04193 
L 88.460201 75.104139 
L 88.089314 75.134902 
L 88.053618 75.137974 
L 87.647034 75.136664 
L 87.628759 75.134902 
L 87.240456 75.094708 
L 86.833872 75.013377 
L 86.427288 74.905139 
L 86.020705 74.790979 
L 85.779117 74.730947 
L 85.614121 74.693614 
L 85.207537 74.622605 
L 84.800954 74.570111 
L 84.39437 74.526826 
L 83.987792 74.481802 
L 83.581208 74.424931 
L 83.174624 74.348593 
L 83.083163 74.326992 
L 82.768041 74.251387 
L 82.361457 74.127698 
L 81.954873 73.971107 
L 81.849998 73.923015 
L 81.54829 73.768259 
L 81.169225 73.51906 
L 81.141706 73.49808 
L 80.735128 73.130328 
L 80.720365 73.115105 
L 80.371373 72.71115 
L 80.328544 72.655452 
L 80.076269 72.307194 
L 79.92196 72.064418 
L 79.825752 71.903218 
L 79.614033 71.499263 
L 79.515377 71.281211 
L 79.436544 71.095307 
L 79.293352 70.691331 
L 79.188621 70.287376 
L 79.125272 69.88342 
L 79.108793 69.601294 
L 79.10176 69.479465 
z
" clip-path="url(#p82ebf6c39c)" style="fill: none; stroke: #08519c; stroke-opacity: 0.333333; stroke-width: 1.5"/>
   </g>
   <g id="PathCollection_5">
    <path d="M 81.950208 69.07551 
L 81.929347 68.671533 
L 81.954873 68.377463 
L 81.964165 68.267578 
L 82.037987 67.863623 
L 82.132096 67.459646 
L 82.229682 67.055691 
L 82.317024 66.651736 
L 82.361457 66.395581 
L 82.386734 66.24778 
L 82.440826 65.843825 
L 82.490736 65.43987 
L 82.55224 65.035915 
L 82.639884 64.631959 
L 82.763196 64.227983 
L 82.768041 64.215849 
L 82.924812 63.824028 
L 83.12205 63.420072 
L 83.174624 63.325907 
L 83.35167 63.016117 
L 83.581208 62.650501 
L 83.606116 62.612162 
L 83.885865 62.208185 
L 83.987792 62.070365 
L 84.190861 61.80423 
L 84.39437 61.555403 
L 84.524207 61.400275 
L 84.800954 61.091851 
L 84.887307 60.996298 
L 85.207537 60.661798 
L 85.273342 60.592343 
L 85.614121 60.245421 
L 85.668987 60.188388 
L 86.020705 59.829101 
L 86.063669 59.784433 
L 86.427288 59.411971 
L 86.458065 59.380467 
L 86.833872 59.007619 
L 86.866182 58.976501 
L 87.240456 58.634918 
L 87.313198 58.572546 
L 87.647034 58.304083 
L 87.831751 58.16858 
L 88.053618 58.014509 
L 88.457127 57.764624 
L 88.460201 57.76278 
L 88.866785 57.545734 
L 89.267568 57.360659 
L 89.273363 57.358001 
L 89.679947 57.198395 
L 90.086531 57.065078 
L 90.486747 56.956703 
L 90.493114 56.954989 
L 90.899693 56.871663 
L 91.306276 56.813073 
L 91.71286 56.778694 
L 92.119444 56.766806 
L 92.526027 56.772359 
L 92.932611 56.786953 
L 93.339195 56.802034 
L 93.745778 56.812997 
L 94.152357 56.820931 
L 94.55894 56.83155 
L 94.965524 56.853235 
L 95.372108 56.895686 
L 95.711654 56.956703 
L 95.778691 56.970053 
L 96.185275 57.092883 
L 96.591859 57.267851 
L 96.76312 57.360659 
L 96.998442 57.505052 
L 97.362903 57.764624 
L 97.405021 57.797803 
L 97.811604 58.144722 
L 97.837872 58.16858 
L 98.218188 58.546886 
L 98.242571 58.572546 
L 98.579662 58.976501 
L 98.624772 59.042173 
L 98.842048 59.380467 
L 99.031355 59.78188 
L 99.032482 59.784433 
L 99.165759 60.188388 
L 99.261008 60.592343 
L 99.331385 60.996298 
L 99.383274 61.400275 
L 99.41921 61.80423 
L 99.437939 62.14958 
L 99.441135 62.208185 
L 99.451054 62.612162 
L 99.448445 63.016117 
L 99.437939 63.232123 
L 99.428778 63.420072 
L 99.382611 63.824028 
L 99.298098 64.227983 
L 99.167109 64.631959 
L 99.031355 64.937651 
L 98.986854 65.035915 
L 98.754419 65.43987 
L 98.624772 65.63162 
L 98.478641 65.843825 
L 98.218188 66.182078 
L 98.167369 66.24778 
L 97.831585 66.651736 
L 97.811604 66.674986 
L 97.483756 67.055691 
L 97.405021 67.144937 
L 97.129742 67.459646 
L 96.998442 67.606218 
L 96.77176 67.863623 
L 96.591859 68.061742 
L 96.409367 68.267578 
L 96.185275 68.510188 
L 96.040226 68.671533 
L 95.778691 68.947475 
L 95.660011 69.07551 
L 95.372108 69.366772 
L 95.261366 69.479465 
L 94.965524 69.75991 
L 94.832335 69.88342 
L 94.55894 70.120409 
L 94.354937 70.287376 
L 94.152357 70.444833 
L 93.803928 70.691331 
L 93.745778 70.731397 
L 93.339195 70.978637 
L 93.11544 71.095307 
L 92.932611 71.191543 
L 92.526027 71.373899 
L 92.204056 71.499263 
L 92.119444 71.533586 
L 91.71286 71.682123 
L 91.306276 71.82618 
L 91.08772 71.903218 
L 90.899693 71.973141 
L 90.493114 72.12349 
L 90.086531 72.265683 
L 89.948989 72.307194 
L 89.679947 72.390605 
L 89.273363 72.484957 
L 88.866785 72.540095 
L 88.460201 72.555862 
L 88.053618 72.538386 
L 87.647034 72.497444 
L 87.240456 72.443213 
L 86.833872 72.383654 
L 86.427288 72.323127 
L 86.319808 72.307194 
L 86.020705 72.260983 
L 85.614121 72.192937 
L 85.207537 72.113209 
L 84.800954 72.014399 
L 84.439212 71.903218 
L 84.39437 71.887496 
L 83.987792 71.712154 
L 83.599668 71.499263 
L 83.581208 71.487578 
L 83.174624 71.173883 
L 83.090591 71.095307 
L 82.768041 70.748769 
L 82.721832 70.691331 
L 82.433764 70.287376 
L 82.361457 70.16856 
L 82.205278 69.88342 
L 82.041597 69.479465 
L 81.954873 69.097962 
L 81.950208 69.07551 
z
" clip-path="url(#p82ebf6c39c)" style="fill: none; stroke: #08519c; stroke-opacity: 0.555556; stroke-width: 1.5"/>
   </g>
   <g id="PathCollection_6">
    <path d="M 85.121659 67.863623 
L 85.025123 67.459646 
L 85.03003 67.055691 
L 85.090449 66.651736 
L 85.170962 66.24778 
L 85.207537 66.058044 
L 85.251378 65.843825 
L 85.317752 65.43987 
L 85.373493 65.035915 
L 85.43849 64.631959 
L 85.535385 64.227983 
L 85.614121 64.007619 
L 85.676228 63.824028 
L 85.860802 63.420072 
L 86.020705 63.131058 
L 86.081268 63.016117 
L 86.32979 62.612162 
L 86.427288 62.469383 
L 86.603685 62.208185 
L 86.833872 61.895917 
L 86.902287 61.80423 
L 87.22735 61.400275 
L 87.240456 61.384998 
L 87.585018 60.996298 
L 87.647034 60.9297 
L 87.981322 60.592343 
L 88.053618 60.522492 
L 88.438713 60.188388 
L 88.460201 60.170573 
L 88.866785 59.885477 
L 89.049631 59.784433 
L 89.273363 59.6663 
L 89.679947 59.508036 
L 90.086531 59.401036 
L 90.202881 59.380467 
L 90.493114 59.32963 
L 90.899693 59.277217 
L 91.306276 59.23296 
L 91.71286 59.191588 
L 92.119444 59.153507 
L 92.526027 59.122838 
L 92.932611 59.10579 
L 93.339195 59.110005 
L 93.745778 59.144334 
L 94.152357 59.218276 
L 94.55894 59.340853 
L 94.654194 59.380467 
L 94.965524 59.521216 
L 95.372108 59.762368 
L 95.403226 59.784433 
L 95.778691 60.075593 
L 95.902338 60.188388 
L 96.185275 60.48531 
L 96.274208 60.592343 
L 96.548669 60.996298 
L 96.591859 61.078317 
L 96.742649 61.400275 
L 96.875286 61.80423 
L 96.956509 62.208185 
L 96.992553 62.612162 
L 96.988226 63.016117 
L 96.946252 63.420072 
L 96.866957 63.824028 
L 96.748725 64.227983 
L 96.591859 64.624872 
L 96.588958 64.631959 
L 96.381536 65.035915 
L 96.185275 65.355994 
L 96.131437 65.43987 
L 95.837621 65.843825 
L 95.778691 65.918527 
L 95.505389 66.24778 
L 95.372108 66.402861 
L 95.14641 66.651736 
L 94.965524 66.852314 
L 94.771813 67.055691 
L 94.55894 67.286517 
L 94.389231 67.459646 
L 94.152357 67.710001 
L 93.99526 67.863623 
L 93.745778 68.109813 
L 93.568479 68.267578 
L 93.339195 68.463794 
L 93.062421 68.671533 
L 92.932611 68.760896 
L 92.526027 69.001203 
L 92.380916 69.07551 
L 92.119444 69.194737 
L 91.71286 69.360104 
L 91.398644 69.479465 
L 91.306276 69.511022 
L 90.899693 69.644839 
L 90.493114 69.777518 
L 90.161273 69.88342 
L 90.086531 69.905555 
L 89.679947 70.015128 
L 89.273363 70.106864 
L 88.866785 70.169779 
L 88.460201 70.19272 
L 88.053618 70.165316 
L 87.647034 70.07842 
L 87.240456 69.925443 
L 87.158132 69.88342 
L 86.833872 69.666714 
L 86.596339 69.479465 
L 86.427288 69.315019 
L 86.176823 69.07551 
L 86.020705 68.913601 
L 85.764747 68.671533 
L 85.614121 68.516856 
L 85.376409 68.267578 
L 85.207537 68.020463 
L 85.121659 67.863623 
z
" clip-path="url(#p82ebf6c39c)" style="fill: none; stroke: #08519c; stroke-opacity: 0.666667; stroke-width: 1.5"/>
   </g>
   <g id="PathCollection_7">
    <path d="M 89.48186 65.43987 
L 89.379475 65.035915 
L 89.339989 64.631959 
L 89.347439 64.227983 
L 89.402294 63.824028 
L 89.516932 63.420072 
L 89.679947 63.068181 
L 89.708417 63.016117 
L 90.036011 62.612162 
L 90.086531 62.566895 
L 90.493114 62.25313 
L 90.562281 62.208185 
L 90.899693 62.050579 
L 91.306276 61.899912 
L 91.695095 61.80423 
L 91.71286 61.801004 
L 92.119444 61.77634 
L 92.491789 61.80423 
L 92.526027 61.807713 
L 92.932611 61.928228 
L 93.339195 62.134895 
L 93.434858 62.208185 
L 93.745778 62.545697 
L 93.788488 62.612162 
L 93.944322 63.016117 
L 94.003875 63.420072 
L 93.982684 63.824028 
L 93.890852 64.227983 
L 93.745778 64.593491 
L 93.72912 64.631959 
L 93.469822 65.035915 
L 93.339195 65.191942 
L 93.107266 65.43987 
L 92.932611 65.5918 
L 92.593819 65.843825 
L 92.526027 65.88766 
L 92.119444 66.092946 
L 91.722799 66.24778 
L 91.71286 66.251372 
L 91.306276 66.338414 
L 90.899693 66.370641 
L 90.493114 66.335083 
L 90.201104 66.24778 
L 90.086531 66.191494 
L 89.683486 65.843825 
L 89.679947 65.838065 
L 89.48186 65.43987 
z
" clip-path="url(#p82ebf6c39c)" style="fill: none; stroke: #08519c; stroke-opacity: 0.888889; stroke-width: 1.5"/>
   </g>
   <g id="PathCollection_8"/>
   <g id="PathCollection_9"/>
   <g id="PathCollection_10">
    <path d="M 76.991505 73.51906 
L 76.84915 73.115105 
L 76.757159 72.71115 
L 76.709917 72.307194 
L 76.697409 71.903218 
L 76.706895 71.499263 
L 76.72523 71.095307 
L 76.741783 70.691331 
L 76.75093 70.287376 
L 76.752584 69.88342 
L 76.750922 69.479465 
L 76.75282 69.07551 
L 76.766568 68.671533 
L 76.800269 68.267578 
L 76.859825 67.863623 
L 76.947535 67.459646 
L 77.06215 67.055691 
L 77.07588 67.014823 
L 77.192841 66.651736 
L 77.340691 66.24778 
L 77.482464 65.893288 
L 77.501885 65.843825 
L 77.66784 65.43987 
L 77.843463 65.035915 
L 77.889042 64.93385 
L 78.021446 64.631959 
L 78.202891 64.227983 
L 78.295626 64.022638 
L 78.382478 63.824028 
L 78.556217 63.420072 
L 78.702209 63.074714 
L 78.725889 63.016117 
L 78.882321 62.612162 
L 79.038621 62.208185 
L 79.108793 62.030562 
L 79.193568 61.80423 
L 79.355281 61.400275 
L 79.515377 61.040204 
L 79.534073 60.996298 
L 79.725499 60.592343 
L 79.92196 60.232098 
L 79.945239 60.188388 
L 80.1863 59.784433 
L 80.328544 59.575757 
L 80.460789 59.380467 
L 80.735128 59.021481 
L 80.769546 58.976501 
L 81.104425 58.572546 
L 81.141706 58.529798 
L 81.458371 58.16858 
L 81.54829 58.067588 
L 81.819724 57.764624 
L 81.954873 57.609565 
L 82.172017 57.360659 
L 82.361457 57.129596 
L 82.501701 56.956703 
L 82.768041 56.601119 
L 82.803474 56.552737 
L 83.077862 56.148782 
L 83.174624 56.002908 
L 83.339844 55.744827 
L 83.581208 55.374837 
L 83.60295 55.340872 
L 83.876119 54.936906 
L 83.987792 54.783555 
L 84.17249 54.53295 
L 84.39437 54.254777 
L 84.498199 54.128985 
L 84.800954 53.785988 
L 84.857501 53.725029 
L 85.207537 53.364494 
L 85.252572 53.321063 
L 85.614121 52.980424 
L 85.687966 52.917108 
L 86.020705 52.633797 
L 86.184107 52.513142 
L 86.427288 52.333248 
L 86.800727 52.109187 
L 86.833872 52.089164 
L 87.240456 51.892021 
L 87.647034 51.746281 
L 87.794504 51.705221 
L 88.053618 51.630489 
L 88.460201 51.53134 
L 88.866785 51.436637 
L 89.273363 51.336462 
L 89.400517 51.301266 
L 89.679947 51.217689 
L 90.086531 51.085759 
L 90.493114 50.951765 
L 90.661377 50.8973 
L 90.899693 50.813558 
L 91.306276 50.683046 
L 91.71286 50.571968 
L 92.068443 50.493345 
L 92.119444 50.481472 
L 92.526027 50.409916 
L 92.932611 50.361605 
L 93.339195 50.332272 
L 93.745778 50.316472 
L 94.152357 50.308445 
L 94.55894 50.303877 
L 94.965524 50.301418 
L 95.372108 50.302508 
L 95.778691 50.309601 
L 96.185275 50.324354 
L 96.591859 50.347029 
L 96.998442 50.377123 
L 97.405021 50.414461 
L 97.811604 50.459948 
L 98.057482 50.493345 
L 98.218188 50.51502 
L 98.624772 50.582806 
L 99.031355 50.667827 
L 99.437939 50.772987 
L 99.834198 50.8973 
L 99.844523 50.900607 
L 100.251106 51.048129 
L 100.657685 51.216505 
L 100.848122 51.301266 
L 101.064268 51.397807 
L 101.470852 51.584138 
L 101.734299 51.705221 
L 101.877436 51.771235 
L 102.284019 51.960487 
L 102.581251 52.109187 
L 102.690603 52.166346 
L 103.097187 52.407968 
L 103.248748 52.513142 
L 103.50377 52.705175 
L 103.752273 52.917108 
L 103.910349 53.063805 
L 104.174999 53.321063 
L 104.316932 53.470324 
L 104.565399 53.725029 
L 104.723516 53.898465 
L 104.950041 54.128985 
L 105.1301 54.323271 
L 105.341652 54.53295 
L 105.536683 54.744109 
L 105.720305 54.936906 
L 105.943267 55.218244 
L 106.035868 55.340872 
L 106.274 55.744827 
L 106.349851 55.902206 
L 106.465743 56.148782 
L 106.65587 56.552737 
L 106.756434 56.740118 
L 106.872111 56.956703 
L 107.107772 57.360659 
L 107.163013 57.456229 
L 107.324252 57.764624 
L 107.492814 58.16858 
L 107.569596 58.442899 
L 107.603076 58.572546 
L 107.65788 58.976501 
L 107.661546 59.380467 
L 107.618219 59.784433 
L 107.569596 60.019089 
L 107.536365 60.188388 
L 107.429371 60.592343 
L 107.302286 60.996298 
L 107.165218 61.400275 
L 107.163013 61.406986 
L 107.042036 61.80423 
L 106.91832 62.208185 
L 106.790832 62.612162 
L 106.756434 62.714291 
L 106.666557 63.016117 
L 106.531997 63.420072 
L 106.381677 63.824028 
L 106.349851 63.902772 
L 106.234672 64.227983 
L 106.082271 64.631959 
L 105.943267 64.99223 
L 105.928072 65.035915 
L 105.787454 65.43987 
L 105.644755 65.843825 
L 105.536683 66.141448 
L 105.499494 66.24778 
L 105.346291 66.651736 
L 105.170388 67.055691 
L 105.1301 67.136699 
L 104.964501 67.459646 
L 104.723516 67.858091 
L 104.719937 67.863623 
L 104.425244 68.267578 
L 104.316932 68.400559 
L 104.075609 68.671533 
L 103.910349 68.844084 
L 103.670453 69.07551 
L 103.50377 69.230077 
L 103.222024 69.479465 
L 103.097187 69.587881 
L 102.754735 69.88342 
L 102.690603 69.93803 
L 102.290141 70.287376 
L 102.284019 70.292626 
L 101.877436 70.6557 
L 101.83942 70.691331 
L 101.470852 71.025543 
L 101.396441 71.095307 
L 101.064268 71.398538 
L 100.95522 71.499263 
L 100.657685 71.770785 
L 100.510974 71.903218 
L 100.251106 72.138472 
L 100.059307 72.307194 
L 99.844523 72.498677 
L 99.597431 72.71115 
L 99.437939 72.851176 
L 99.12769 73.115105 
L 99.031355 73.199533 
L 98.659026 73.51906 
L 98.624772 73.549695 
L 98.218188 73.908309 
L 98.20123 73.923015 
L 97.811604 74.275449 
L 97.752181 74.326992 
L 97.405021 74.637021 
L 97.291793 74.730947 
L 96.998442 74.974562 
L 96.782885 75.134902 
L 96.591859 75.272695 
L 96.185275 75.527856 
L 96.165878 75.538858 
L 95.778691 75.749688 
L 95.372108 75.936527 
L 95.357004 75.942813 
L 94.965524 76.103328 
L 94.55894 76.246939 
L 94.236476 76.346768 
L 94.152357 76.373579 
L 93.745778 76.492873 
L 93.339195 76.602851 
L 92.932611 76.708556 
L 92.770309 76.750724 
L 92.526027 76.819826 
L 92.119444 76.937433 
L 91.71286 77.058674 
L 91.39632 77.154679 
L 91.306276 77.184072 
L 90.899693 77.312872 
L 90.493114 77.431321 
L 90.086531 77.533883 
L 89.965866 77.558655 
L 89.679947 77.619362 
L 89.273363 77.684088 
L 88.866785 77.728769 
L 88.460201 77.756291 
L 88.053618 77.769414 
L 87.647034 77.770066 
L 87.240456 77.759597 
L 86.833872 77.739981 
L 86.427288 77.714876 
L 86.020705 77.689013 
L 85.614121 77.665624 
L 85.207537 77.643591 
L 84.800954 77.616151 
L 84.39437 77.571347 
L 84.325364 77.558655 
L 83.987792 77.494256 
L 83.581208 77.367954 
L 83.174624 77.185352 
L 83.116803 77.154679 
L 82.768041 76.968354 
L 82.361457 76.754621 
L 82.352611 76.750724 
L 81.954873 76.591551 
L 81.54829 76.47423 
L 81.141706 76.390176 
L 80.894049 76.346768 
L 80.735128 76.318179 
L 80.328544 76.234971 
L 79.92196 76.12544 
L 79.515377 75.983745 
L 79.412826 75.942813 
L 79.108793 75.801722 
L 78.702209 75.583018 
L 78.629651 75.538858 
L 78.295626 75.31102 
L 78.088355 75.134902 
L 77.889042 74.946013 
L 77.704425 74.730947 
L 77.482464 74.433872 
L 77.412666 74.326992 
L 77.178561 73.923015 
L 77.07588 73.704198 
L 76.991505 73.51906 
z
" clip-path="url(#p82ebf6c39c)" style="fill: none; stroke: #d94801; stroke-opacity: 0.111111; stroke-width: 1.5"/>
   </g>
   <g id="PathCollection_11">
    <path d="M 80.275056 70.691331 
L 80.167141 70.287376 
L 80.099814 69.88342 
L 80.064752 69.479465 
L 80.065071 69.07551 
L 80.10619 68.671533 
L 80.190824 68.267578 
L 80.318891 67.863623 
L 80.328544 67.839996 
L 80.481842 67.459646 
L 80.671027 67.055691 
L 80.735128 66.9269 
L 80.864956 66.651736 
L 81.049857 66.24778 
L 81.141706 66.02363 
L 81.209498 65.843825 
L 81.336207 65.43987 
L 81.441638 65.035915 
L 81.53757 64.631959 
L 81.54829 64.589934 
L 81.635036 64.227983 
L 81.753571 63.824028 
L 81.901598 63.420072 
L 81.954873 63.296368 
L 82.074199 63.016117 
L 82.268696 62.612162 
L 82.361457 62.429675 
L 82.47448 62.208185 
L 82.685979 61.80423 
L 82.768041 61.649214 
L 82.900503 61.400275 
L 83.128959 60.996298 
L 83.174624 60.922221 
L 83.380119 60.592343 
L 83.581208 60.316341 
L 83.675242 60.188388 
L 83.987792 59.824315 
L 84.021924 59.784433 
L 84.39437 59.399738 
L 84.412637 59.380467 
L 84.800954 59.000923 
L 84.825142 58.976501 
L 85.207537 58.601713 
L 85.236548 58.572546 
L 85.614121 58.190013 
L 85.635281 58.16858 
L 86.020705 57.764784 
L 86.020863 57.764624 
L 86.397366 57.360659 
L 86.427288 57.326241 
L 86.771385 56.956703 
L 86.833872 56.884569 
L 87.144758 56.552737 
L 87.240456 56.444044 
L 87.51936 56.148782 
L 87.647034 56.009697 
L 87.903951 55.744827 
L 88.053618 55.59478 
L 88.319196 55.340872 
L 88.460201 55.217269 
L 88.798611 54.936906 
L 88.866785 54.886911 
L 89.273363 54.60746 
L 89.395339 54.53295 
L 89.679947 54.376588 
L 90.086531 54.187913 
L 90.245541 54.128985 
L 90.493114 54.042733 
L 90.899693 53.935212 
L 91.306276 53.858543 
L 91.71286 53.803889 
L 92.119444 53.759795 
L 92.437935 53.725029 
L 92.526027 53.715233 
L 92.932611 53.661922 
L 93.339195 53.600611 
L 93.745778 53.534368 
L 94.152357 53.468863 
L 94.55894 53.41174 
L 94.965524 53.372361 
L 95.372108 53.360874 
L 95.778691 53.385451 
L 96.185275 53.448105 
L 96.591859 53.542567 
L 96.998442 53.657906 
L 97.212762 53.725029 
L 97.405021 53.783807 
L 97.811604 53.91758 
L 98.218188 54.065624 
L 98.374074 54.128985 
L 98.624772 54.229432 
L 99.031355 54.411728 
L 99.275504 54.53295 
L 99.437939 54.613827 
L 99.844523 54.836668 
L 100.010425 54.936906 
L 100.251106 55.090842 
L 100.596218 55.340872 
L 100.657685 55.389955 
L 101.049542 55.744827 
L 101.064268 55.759794 
L 101.407005 56.148782 
L 101.470852 56.2297 
L 101.707172 56.552737 
L 101.877436 56.806607 
L 101.97509 56.956703 
L 102.225044 57.360659 
L 102.284019 57.460539 
L 102.464667 57.764624 
L 102.6845 58.16858 
L 102.690603 58.181061 
L 102.884614 58.572546 
L 103.049364 58.976501 
L 103.097187 59.12514 
L 103.185056 59.380467 
L 103.292916 59.784433 
L 103.377745 60.188388 
L 103.448011 60.592343 
L 103.50377 60.969092 
L 103.507982 60.996298 
L 103.556039 61.400275 
L 103.583603 61.80423 
L 103.587586 62.208185 
L 103.566219 62.612162 
L 103.5181 63.016117 
L 103.50377 63.089941 
L 103.437531 63.420072 
L 103.323151 63.824028 
L 103.172314 64.227983 
L 103.097187 64.388994 
L 102.976871 64.631959 
L 102.737729 65.035915 
L 102.690603 65.106878 
L 102.458973 65.43987 
L 102.284019 65.672919 
L 102.154679 65.843825 
L 101.877436 66.19795 
L 101.839667 66.24778 
L 101.5309 66.651736 
L 101.470852 66.728469 
L 101.230298 67.055691 
L 101.064268 67.269623 
L 100.926124 67.459646 
L 100.657685 67.799905 
L 100.60996 67.863623 
L 100.278937 68.267578 
L 100.251106 68.299165 
L 99.929918 68.671533 
L 99.844523 68.76446 
L 99.558269 69.07551 
L 99.437939 69.200469 
L 99.163488 69.479465 
L 99.031355 69.60986 
L 98.743842 69.88342 
L 98.624772 69.994883 
L 98.298016 70.287376 
L 98.218188 70.358587 
L 97.82834 70.691331 
L 97.811604 70.705747 
L 97.405021 71.045657 
L 97.343301 71.095307 
L 96.998442 71.381742 
L 96.852402 71.499263 
L 96.591859 71.715659 
L 96.35832 71.903218 
L 96.185275 72.045038 
L 95.849048 72.307194 
L 95.778691 72.362167 
L 95.372108 72.656594 
L 95.28855 72.71115 
L 94.965524 72.918465 
L 94.613164 73.115105 
L 94.55894 73.144674 
L 94.152357 73.334239 
L 93.745778 73.4914 
L 93.659896 73.51906 
L 93.339195 73.620633 
L 92.932611 73.727491 
L 92.526027 73.816518 
L 92.119444 73.892752 
L 91.943511 73.923015 
L 91.71286 73.963822 
L 91.306276 74.034379 
L 90.899693 74.105582 
L 90.493114 74.177815 
L 90.086531 74.248745 
L 89.679947 74.313728 
L 89.577774 74.326992 
L 89.273363 74.369486 
L 88.866785 74.408171 
L 88.460201 74.427243 
L 88.053618 74.429345 
L 87.647034 74.420697 
L 87.240456 74.407841 
L 86.833872 74.393426 
L 86.427288 74.373947 
L 86.020705 74.340379 
L 85.928173 74.326992 
L 85.614121 74.281284 
L 85.207537 74.18189 
L 84.800954 74.029432 
L 84.589119 73.923015 
L 84.39437 73.81356 
L 83.987792 73.538459 
L 83.960837 73.51906 
L 83.581208 73.218631 
L 83.447022 73.115105 
L 83.174624 72.897323 
L 82.92108 72.71115 
L 82.768041 72.600092 
L 82.361457 72.333944 
L 82.315692 72.307194 
L 81.954873 72.097906 
L 81.578787 71.903218 
L 81.54829 71.886374 
L 81.141706 71.668281 
L 80.870671 71.499263 
L 80.735128 71.387954 
L 80.477759 71.095307 
L 80.328544 70.823415 
L 80.275056 70.691331 
z
" clip-path="url(#p82ebf6c39c)" style="fill: none; stroke: #d94801; stroke-opacity: 0.333333; stroke-width: 1.5"/>
   </g>
   <g id="PathCollection_12">
    <path d="M 83.482878 68.267578 
L 83.329239 67.863623 
L 83.25079 67.459646 
L 83.241908 67.055691 
L 83.287165 66.651736 
L 83.369479 66.24778 
L 83.474804 65.843825 
L 83.581208 65.480466 
L 83.593106 65.43987 
L 83.717073 65.035915 
L 83.844656 64.631959 
L 83.980179 64.227983 
L 83.987792 64.207173 
L 84.131254 63.824028 
L 84.305917 63.420072 
L 84.39437 63.241983 
L 84.506987 63.016117 
L 84.730499 62.612162 
L 84.800954 62.493189 
L 84.968048 62.208185 
L 85.207537 61.813886 
L 85.213309 61.80423 
L 85.459965 61.400275 
L 85.614121 61.157067 
L 85.714427 60.996298 
L 85.983537 60.592343 
L 86.020705 60.541532 
L 86.278902 60.188388 
L 86.427288 60.006481 
L 86.613164 59.784433 
L 86.833872 59.546297 
L 86.995628 59.380467 
L 87.240456 59.148154 
L 87.433153 58.976501 
L 87.647034 58.794182 
L 87.922181 58.572546 
L 88.053618 58.46769 
L 88.443725 58.16858 
L 88.460201 58.155696 
L 88.866785 57.847622 
L 88.980912 57.764624 
L 89.273363 57.54376 
L 89.533442 57.360659 
L 89.679947 57.253241 
L 90.086531 56.987685 
L 90.141715 56.956703 
L 90.493114 56.755037 
L 90.899693 56.561111 
L 90.920968 56.552737 
L 91.306276 56.402104 
L 91.71286 56.270922 
L 92.119444 56.159904 
L 92.168932 56.148782 
L 92.526027 56.071266 
L 92.932611 56.004323 
L 93.339195 55.964467 
L 93.745778 55.95997 
L 94.152357 55.997575 
L 94.55894 56.077264 
L 94.822388 56.148782 
L 94.965524 56.190826 
L 95.372108 56.321866 
L 95.778691 56.452795 
L 96.099489 56.552737 
L 96.185275 56.580417 
L 96.591859 56.711757 
L 96.998442 56.853206 
L 97.266672 56.956703 
L 97.405021 57.011228 
L 97.811604 57.187558 
L 98.176991 57.360659 
L 98.218188 57.379079 
L 98.624772 57.579786 
L 98.950161 57.764624 
L 99.031355 57.808906 
L 99.437939 58.090486 
L 99.525948 58.16858 
L 99.844523 58.487218 
L 99.912578 58.572546 
L 100.173465 58.976501 
L 100.251106 59.140736 
L 100.35443 59.380467 
L 100.474828 59.784433 
L 100.547331 60.188388 
L 100.582084 60.592343 
L 100.589275 60.996298 
L 100.57738 61.400275 
L 100.552067 61.80423 
L 100.516533 62.208185 
L 100.472552 62.612162 
L 100.420517 63.016117 
L 100.357757 63.420072 
L 100.277192 63.824028 
L 100.251106 63.919726 
L 100.169794 64.227983 
L 100.027436 64.631959 
L 99.849373 65.035915 
L 99.844523 65.045063 
L 99.639496 65.43987 
L 99.437939 65.793649 
L 99.409226 65.843825 
L 99.161881 66.24778 
L 99.031355 66.454436 
L 98.902548 66.651736 
L 98.629523 67.055691 
L 98.624772 67.062357 
L 98.328074 67.459646 
L 98.218188 67.596597 
L 97.99462 67.863623 
L 97.811604 68.063692 
L 97.619618 68.267578 
L 97.405021 68.474471 
L 97.197534 68.671533 
L 96.998442 68.843662 
L 96.72771 69.07551 
L 96.591859 69.183063 
L 96.211297 69.479465 
L 96.185275 69.498713 
L 95.778691 69.79353 
L 95.648812 69.88342 
L 95.372108 70.071072 
L 95.027731 70.287376 
L 94.965524 70.326992 
L 94.55894 70.566065 
L 94.322053 70.691331 
L 94.152357 70.784566 
L 93.745778 70.984796 
L 93.494927 71.095307 
L 93.339195 71.166693 
L 92.932611 71.331531 
L 92.526027 71.476576 
L 92.453355 71.499263 
L 92.119444 71.604371 
L 91.71286 71.714588 
L 91.306276 71.810156 
L 90.899693 71.89292 
L 90.838357 71.903218 
L 90.493114 71.960223 
L 90.086531 72.009502 
L 89.679947 72.036135 
L 89.273363 72.036022 
L 88.866785 72.008564 
L 88.460201 71.958071 
L 88.121031 71.903218 
L 88.053618 71.890921 
L 87.647034 71.808005 
L 87.240456 71.710214 
L 86.833872 71.58319 
L 86.635793 71.499263 
L 86.427288 71.40552 
L 86.020705 71.162408 
L 85.929755 71.095307 
L 85.614121 70.865154 
L 85.404774 70.691331 
L 85.207537 70.526663 
L 84.945543 70.287376 
L 84.800954 70.145882 
L 84.553656 69.88342 
L 84.39437 69.692345 
L 84.226662 69.479465 
L 83.987792 69.134836 
L 83.947118 69.07551 
L 83.696135 68.671533 
L 83.581208 68.455947 
L 83.482878 68.267578 
z
" clip-path="url(#p82ebf6c39c)" style="fill: none; stroke: #d94801; stroke-opacity: 0.555556; stroke-width: 1.5"/>
   </g>
   <g id="PathCollection_13">
    <path d="M 85.997078 67.055691 
L 85.826787 66.651736 
L 85.748791 66.24778 
L 85.75597 65.843825 
L 85.830358 65.43987 
L 85.950678 65.035915 
L 86.020705 64.84757 
L 86.100183 64.631959 
L 86.264832 64.227983 
L 86.427288 63.847619 
L 86.437222 63.824028 
L 86.617146 63.420072 
L 86.806856 63.016117 
L 86.833872 62.962532 
L 87.010619 62.612162 
L 87.229441 62.208185 
L 87.240456 62.189182 
L 87.472187 61.80423 
L 87.647034 61.53531 
L 87.741639 61.400275 
L 88.050434 60.996298 
L 88.053618 60.992495 
L 88.424339 60.592343 
L 88.460201 60.557055 
L 88.866785 60.197463 
L 88.878381 60.188388 
L 89.273363 59.897871 
L 89.448552 59.784433 
L 89.679947 59.640854 
L 90.086531 59.424713 
L 90.189565 59.380467 
L 90.493114 59.252771 
L 90.899693 59.122088 
L 91.306276 59.030324 
L 91.701646 58.976501 
L 91.71286 58.974942 
L 92.119444 58.952162 
L 92.526027 58.958109 
L 92.779249 58.976501 
L 92.932611 58.98757 
L 93.339195 59.033997 
L 93.745778 59.094163 
L 94.152357 59.168447 
L 94.55894 59.260633 
L 94.965524 59.374669 
L 94.983084 59.380467 
L 95.372108 59.516005 
L 95.778691 59.674547 
L 96.055232 59.784433 
L 96.185275 59.842274 
L 96.591859 60.016696 
L 96.996563 60.188388 
L 96.998442 60.189419 
L 97.405021 60.448783 
L 97.564075 60.592343 
L 97.802225 60.996298 
L 97.811604 61.035893 
L 97.87282 61.400275 
L 97.878339 61.80423 
L 97.852405 62.208185 
L 97.811604 62.604623 
L 97.810803 62.612162 
L 97.754423 63.016117 
L 97.686265 63.420072 
L 97.598562 63.824028 
L 97.481876 64.227983 
L 97.405021 64.43136 
L 97.32946 64.631959 
L 97.141722 65.035915 
L 96.998442 65.297487 
L 96.921067 65.43987 
L 96.678703 65.843825 
L 96.591859 65.979757 
L 96.422676 66.24778 
L 96.185275 66.609421 
L 96.157357 66.651736 
L 95.882099 67.055691 
L 95.778691 67.198095 
L 95.582584 67.459646 
L 95.372108 67.714653 
L 95.239022 67.863623 
L 94.965524 68.134501 
L 94.812648 68.267578 
L 94.55894 68.462345 
L 94.236111 68.671533 
L 94.152357 68.720456 
L 93.745778 68.913213 
L 93.339195 69.068392 
L 93.314729 69.07551 
L 92.932611 69.180896 
L 92.526027 69.269766 
L 92.119444 69.342254 
L 91.71286 69.40335 
L 91.306276 69.454436 
L 91.038935 69.479465 
L 90.899693 69.49213 
L 90.493114 69.511543 
L 90.086531 69.507576 
L 89.713 69.479465 
L 89.679947 69.477042 
L 89.273363 69.419931 
L 88.866785 69.334237 
L 88.460201 69.214617 
L 88.109926 69.07551 
L 88.053618 69.049132 
L 87.647034 68.807334 
L 87.45896 68.671533 
L 87.240456 68.483723 
L 87.007565 68.267578 
L 86.833872 68.092435 
L 86.615575 67.863623 
L 86.427288 67.653004 
L 86.269152 67.459646 
L 86.020705 67.095277 
L 85.997078 67.055691 
z
" clip-path="url(#p82ebf6c39c)" style="fill: none; stroke: #d94801; stroke-opacity: 0.666667; stroke-width: 1.5"/>
   </g>
   <g id="PathCollection_14">
    <path d="M 89.12996 65.43987 
L 88.965815 65.035915 
L 88.946136 64.631959 
L 89.046572 64.227983 
L 89.235553 63.824028 
L 89.273363 63.765493 
L 89.581288 63.420072 
L 89.679947 63.328527 
L 90.086531 63.073704 
L 90.223165 63.016117 
L 90.493114 62.913096 
L 90.899693 62.79244 
L 91.306276 62.67853 
L 91.536094 62.612162 
L 91.71286 62.56534 
L 92.119444 62.465442 
L 92.526027 62.394715 
L 92.932611 62.375713 
L 93.339195 62.434771 
L 93.745778 62.605252 
L 93.755194 62.612162 
L 94.152357 63.006346 
L 94.159351 63.016117 
L 94.363449 63.420072 
L 94.479913 63.824028 
L 94.495072 64.227983 
L 94.392272 64.631959 
L 94.173787 65.035915 
L 94.152357 65.062831 
L 93.791841 65.43987 
L 93.745778 65.478427 
L 93.339195 65.759772 
L 93.198272 65.843825 
L 92.932611 65.977666 
L 92.526027 66.155891 
L 92.289825 66.24778 
L 92.119444 66.305624 
L 91.71286 66.418125 
L 91.306276 66.497819 
L 90.899693 66.526981 
L 90.493114 66.479 
L 90.086531 66.329695 
L 89.949881 66.24778 
L 89.679947 66.048317 
L 89.454498 65.843825 
L 89.273363 65.636594 
L 89.12996 65.43987 
z
" clip-path="url(#p82ebf6c39c)" style="fill: none; stroke: #d94801; stroke-opacity: 0.888889; stroke-width: 1.5"/>
   </g>
   <g id="PathCollection_15"/>
   <g id="patch_3">
    <path d="M 50.241406 104.22 
L 50.241406 23.832 
" style="fill: none; stroke: #000000; stroke-width: 1.5; stroke-linejoin: miter; stroke-linecap: square"/>
   </g>
   <g id="patch_4">
    <path d="M 50.241406 104.22 
L 131.151406 104.22 
" style="fill: none; stroke: #000000; stroke-width: 1.5; stroke-linejoin: miter; stroke-linecap: square"/>
   </g>
  </g>
  <g id="axes_2">
   <g id="patch_5">
    <path d="M 50.241406 21.06 
L 131.151406 21.06 
L 131.151406 7.2 
L 50.241406 7.2 
L 50.241406 21.06 
z
" style="fill: none"/>
   </g>
   <g id="PolyCollection_1">
    <defs>
     <path id="ma90ff8439c" d="M 50.241406 -118.864743 
L 50.241406 -118.860781 
L 50.647985 -118.860781 
L 51.054574 -118.860781 
L 51.461152 -118.860781 
L 51.867741 -118.860781 
L 52.274319 -118.860781 
L 52.680908 -118.860781 
L 53.087487 -118.860781 
L 53.494065 -118.860781 
L 53.900643 -118.860781 
L 54.307232 -118.860781 
L 54.713811 -118.860781 
L 55.1204 -118.860781 
L 55.526978 -118.860781 
L 55.933567 -118.860781 
L 56.340145 -118.860781 
L 56.746734 -118.860781 
L 57.153313 -118.860781 
L 57.559902 -118.860781 
L 57.96648 -118.860781 
L 58.373069 -118.860781 
L 58.779647 -118.860781 
L 59.186236 -118.860781 
L 59.592815 -118.860781 
L 59.999393 -118.860781 
L 60.405971 -118.860781 
L 60.81256 -118.860781 
L 61.219139 -118.860781 
L 61.625728 -118.860781 
L 62.032306 -118.860781 
L 62.438895 -118.860781 
L 62.845473 -118.860781 
L 63.252062 -118.860781 
L 63.658641 -118.860781 
L 64.06523 -118.860781 
L 64.471808 -118.860781 
L 64.878397 -118.860781 
L 65.284975 -118.860781 
L 65.691564 -118.860781 
L 66.098143 -118.860781 
L 66.504721 -118.860781 
L 66.911299 -118.860781 
L 67.317888 -118.860781 
L 67.724466 -118.860781 
L 68.131056 -118.860781 
L 68.537634 -118.860781 
L 68.944217 -118.860781 
L 69.350801 -118.860781 
L 69.757385 -118.860781 
L 70.163968 -118.860781 
L 70.570552 -118.860781 
L 70.977136 -118.860781 
L 71.383714 -118.860781 
L 71.790298 -118.860781 
L 72.196881 -118.860781 
L 72.603465 -118.860781 
L 73.010049 -118.860781 
L 73.416632 -118.860781 
L 73.823216 -118.860781 
L 74.2298 -118.860781 
L 74.636378 -118.860781 
L 75.042962 -118.860781 
L 75.449545 -118.860781 
L 75.856129 -118.860781 
L 76.262713 -118.860781 
L 76.669296 -118.860781 
L 77.07588 -118.860781 
L 77.482464 -118.860781 
L 77.889042 -118.860781 
L 78.295626 -118.860781 
L 78.702209 -118.860781 
L 79.108793 -118.860781 
L 79.515377 -118.860781 
L 79.92196 -118.860781 
L 80.328544 -118.860781 
L 80.735128 -118.860781 
L 81.141706 -118.860781 
L 81.54829 -118.860781 
L 81.954873 -118.860781 
L 82.361457 -118.860781 
L 82.768041 -118.860781 
L 83.174624 -118.860781 
L 83.581208 -118.860781 
L 83.987792 -118.860781 
L 84.39437 -118.860781 
L 84.800954 -118.860781 
L 85.207537 -118.860781 
L 85.614121 -118.860781 
L 86.020705 -118.860781 
L 86.427288 -118.860781 
L 86.833872 -118.860781 
L 87.240456 -118.860781 
L 87.647034 -118.860781 
L 88.053618 -118.860781 
L 88.460201 -118.860781 
L 88.866785 -118.860781 
L 89.273363 -118.860781 
L 89.679947 -118.860781 
L 90.086531 -118.860781 
L 90.493114 -118.860781 
L 90.899693 -118.860781 
L 91.306276 -118.860781 
L 91.71286 -118.860781 
L 92.119444 -118.860781 
L 92.526027 -118.860781 
L 92.932611 -118.860781 
L 93.339195 -118.860781 
L 93.745778 -118.860781 
L 94.152357 -118.860781 
L 94.55894 -118.860781 
L 94.965524 -118.860781 
L 95.372108 -118.860781 
L 95.778691 -118.860781 
L 96.185275 -118.860781 
L 96.591859 -118.860781 
L 96.998442 -118.860781 
L 97.405021 -118.860781 
L 97.811604 -118.860781 
L 98.218188 -118.860781 
L 98.624772 -118.860781 
L 99.031355 -118.860781 
L 99.437939 -118.860781 
L 99.844523 -118.860781 
L 100.251106 -118.860781 
L 100.657685 -118.860781 
L 101.064268 -118.860781 
L 101.470852 -118.860781 
L 101.877436 -118.860781 
L 102.284019 -118.860781 
L 102.690603 -118.860781 
L 103.097187 -118.860781 
L 103.50377 -118.860781 
L 103.910349 -118.860781 
L 104.316932 -118.860781 
L 104.723516 -118.860781 
L 105.1301 -118.860781 
L 105.536683 -118.860781 
L 105.943267 -118.860781 
L 106.349851 -118.860781 
L 106.756434 -118.860781 
L 107.163013 -118.860781 
L 107.569596 -118.860781 
L 107.97618 -118.860781 
L 108.382764 -118.860781 
L 108.789347 -118.860781 
L 109.195931 -118.860781 
L 109.602515 -118.860781 
L 110.009098 -118.860781 
L 110.415677 -118.860781 
L 110.82226 -118.860781 
L 111.228844 -118.860781 
L 111.635428 -118.860781 
L 112.042011 -118.860781 
L 112.448595 -118.860781 
L 112.855179 -118.860781 
L 113.26176 -118.860781 
L 113.668343 -118.860781 
L 114.074927 -118.860781 
L 114.481508 -118.860781 
L 114.888092 -118.860781 
L 115.294673 -118.860781 
L 115.701256 -118.860781 
L 116.107837 -118.860781 
L 116.514421 -118.860781 
L 116.921005 -118.860781 
L 117.327588 -118.860781 
L 117.734169 -118.860781 
L 118.140753 -118.860781 
L 118.547337 -118.860781 
L 118.95392 -118.860781 
L 119.360501 -118.860781 
L 119.767085 -118.860781 
L 120.173669 -118.860781 
L 120.580252 -118.860781 
L 120.986833 -118.860781 
L 121.393417 -118.860781 
L 121.799998 -118.860781 
L 122.206582 -118.860781 
L 122.613163 -118.860781 
L 123.019746 -118.860781 
L 123.42633 -118.860781 
L 123.832914 -118.860781 
L 124.239495 -118.860781 
L 124.646078 -118.860781 
L 125.052662 -118.860781 
L 125.459246 -118.860781 
L 125.865827 -118.860781 
L 126.27241 -118.860781 
L 126.678994 -118.860781 
L 127.085578 -118.860781 
L 127.492159 -118.860781 
L 127.898742 -118.860781 
L 128.305326 -118.860781 
L 128.71191 -118.860781 
L 129.118491 -118.860781 
L 129.525074 -118.860781 
L 129.931658 -118.860781 
L 130.338242 -118.860781 
L 130.744823 -118.860781 
L 131.151406 -118.860781 
L 131.151406 -118.862103 
L 131.151406 -118.862103 
L 130.744823 -118.861858 
L 130.338242 -118.861931 
L 129.931658 -118.862324 
L 129.525074 -118.862908 
L 129.118491 -118.863492 
L 128.71191 -118.86392 
L 128.305326 -118.864118 
L 127.898742 -118.864081 
L 127.492159 -118.86385 
L 127.085578 -118.863528 
L 126.678994 -118.863298 
L 126.27241 -118.863369 
L 125.865827 -118.863881 
L 125.459246 -118.864872 
L 125.052662 -118.866365 
L 124.646078 -118.868459 
L 124.239495 -118.871278 
L 123.832914 -118.874788 
L 123.42633 -118.878671 
L 123.019746 -118.882492 
L 122.613163 -118.886028 
L 122.206582 -118.889427 
L 121.799998 -118.893001 
L 121.393417 -118.896869 
L 120.986833 -118.900854 
L 120.580252 -118.904773 
L 120.173669 -118.908863 
L 119.767085 -118.913964 
L 119.360501 -118.921181 
L 118.95392 -118.931199 
L 118.547337 -118.943741 
L 118.140753 -118.957666 
L 117.734169 -118.971714 
L 117.327588 -118.985409 
L 116.921005 -118.999538 
L 116.514421 -119.016014 
L 116.107837 -119.037238 
L 115.701256 -119.065165 
L 115.294673 -119.100331 
L 114.888092 -119.141276 
L 114.481508 -119.184916 
L 114.074927 -119.227966 
L 113.668343 -119.268723 
L 113.26176 -119.308044 
L 112.855179 -119.348802 
L 112.448595 -119.394182 
L 112.042011 -119.445935 
L 111.635428 -119.503736 
L 111.228844 -119.566144 
L 110.82226 -119.63243 
L 110.415677 -119.703754 
L 110.009098 -119.782895 
L 109.602515 -119.873166 
L 109.195931 -119.977494 
L 108.789347 -120.097822 
L 108.382764 -120.234506 
L 107.97618 -120.385821 
L 107.569596 -120.548085 
L 107.163013 -120.716717 
L 106.756434 -120.887805 
L 106.349851 -121.059239 
L 105.943267 -121.230888 
L 105.536683 -121.404611 
L 105.1301 -121.584875 
L 104.723516 -121.779262 
L 104.316932 -121.99723 
L 103.910349 -122.246852 
L 103.50377 -122.531315 
L 103.097187 -122.847475 
L 102.690603 -123.187236 
L 102.284019 -123.541127 
L 101.877436 -123.902172 
L 101.470852 -124.267573 
L 101.064268 -124.636629 
L 100.657685 -125.006872 
L 100.251106 -125.373039 
L 99.844523 -125.73081 
L 99.437939 -126.0815 
L 99.031355 -126.432332 
L 98.624772 -126.791185 
L 98.218188 -127.160296 
L 97.811604 -127.534324 
L 97.405021 -127.904093 
L 96.998442 -128.262411 
L 96.591859 -128.607451 
L 96.185275 -128.942372 
L 95.778691 -129.272935 
L 95.372108 -129.604337 
L 94.965524 -129.937482 
L 94.55894 -130.266079 
L 94.152357 -130.57713 
L 93.745778 -130.85501 
L 93.339195 -131.086243 
L 92.932611 -131.262882 
L 92.526027 -131.385385 
L 92.119444 -131.4648 
L 91.71286 -131.520607 
L 91.306276 -131.571922 
L 90.899693 -131.626793 
L 90.493114 -131.677855 
L 90.086531 -131.707275 
L 89.679947 -131.696026 
L 89.273363 -131.630504 
L 88.866785 -131.503968 
L 88.460201 -131.315905 
L 88.053618 -131.07307 
L 87.647034 -130.790747 
L 87.240456 -130.489153 
L 86.833872 -130.184997 
L 86.427288 -129.885932 
L 86.020705 -129.593223 
L 85.614121 -129.307668 
L 85.207537 -129.030013 
L 84.800954 -128.755571 
L 84.39437 -128.471611 
L 83.987792 -128.163255 
L 83.581208 -127.822905 
L 83.174624 -127.453562 
L 82.768041 -127.063625 
L 82.361457 -126.660721 
L 81.954873 -126.251697 
L 81.54829 -125.846402 
L 81.141706 -125.457401 
L 80.735128 -125.093315 
L 80.328544 -124.752356 
L 79.92196 -124.423891 
L 79.515377 -124.097709 
L 79.108793 -123.772668 
L 78.702209 -123.456823 
L 78.295626 -123.159651 
L 77.889042 -122.884174 
L 77.482464 -122.625673 
L 77.07588 -122.376569 
L 76.669296 -122.132212 
L 76.262713 -121.893188 
L 75.856129 -121.663867 
L 75.449545 -121.448848 
L 75.042962 -121.249378 
L 74.636378 -121.062152 
L 74.2298 -120.882138 
L 73.823216 -120.707473 
L 73.416632 -120.541586 
L 73.010049 -120.390097 
L 72.603465 -120.255904 
L 72.196881 -120.137542 
L 71.790298 -120.031479 
L 71.383714 -119.934676 
L 70.977136 -119.844898 
L 70.570552 -119.760035 
L 70.163968 -119.678448 
L 69.757385 -119.599929 
L 69.350801 -119.525827 
L 68.944217 -119.458266 
L 68.537634 -119.399303 
L 68.131056 -119.350077 
L 67.724466 -119.309647 
L 67.317888 -119.274436 
L 66.911299 -119.239572 
L 66.504721 -119.201691 
L 66.098143 -119.16098 
L 65.691564 -119.120773 
L 65.284975 -119.085179 
L 64.878397 -119.056716 
L 64.471808 -119.035606 
L 64.06523 -119.020687 
L 63.658641 -119.010551 
L 63.252062 -119.003782 
L 62.845473 -118.998514 
L 62.438895 -118.992412 
L 62.032306 -118.983537 
L 61.625728 -118.971388 
L 61.219139 -118.957061 
L 60.81256 -118.942323 
L 60.405971 -118.928449 
L 59.999393 -118.915777 
L 59.592815 -118.904185 
L 59.186236 -118.893837 
L 58.779647 -118.885424 
L 58.373069 -118.879714 
L 57.96648 -118.876938 
L 57.559902 -118.876579 
L 57.153313 -118.877665 
L 56.746734 -118.87917 
L 56.340145 -118.880217 
L 55.933567 -118.880186 
L 55.526978 -118.878853 
L 55.1204 -118.876509 
L 54.713811 -118.873812 
L 54.307232 -118.871394 
L 53.900643 -118.869519 
L 53.494065 -118.868061 
L 53.087487 -118.866758 
L 52.680908 -118.865492 
L 52.274319 -118.864382 
L 51.867741 -118.863663 
L 51.461152 -118.863494 
L 51.054574 -118.863818 
L 50.647985 -118.864355 
L 50.241406 -118.864743 
z
" style="stroke: #08519c; stroke-opacity: 0.1"/>
    </defs>
    <g clip-path="url(#pf8ebbdcf39)">
     <use xlink:href="#ma90ff8439c" x="0" y="139.920781" style="fill: #08519c; fill-opacity: 0.1; stroke: #08519c; stroke-opacity: 0.1"/>
    </g>
   </g>
   <g id="PolyCollection_2">
    <defs>
     <path id="mefacb9c3c3" d="M 50.241406 -118.863225 
L 50.241406 -118.860781 
L 50.647985 -118.860781 
L 51.054574 -118.860781 
L 51.461152 -118.860781 
L 51.867741 -118.860781 
L 52.274319 -118.860781 
L 52.680908 -118.860781 
L 53.087487 -118.860781 
L 53.494065 -118.860781 
L 53.900643 -118.860781 
L 54.307232 -118.860781 
L 54.713811 -118.860781 
L 55.1204 -118.860781 
L 55.526978 -118.860781 
L 55.933567 -118.860781 
L 56.340145 -118.860781 
L 56.746734 -118.860781 
L 57.153313 -118.860781 
L 57.559902 -118.860781 
L 57.96648 -118.860781 
L 58.373069 -118.860781 
L 58.779647 -118.860781 
L 59.186236 -118.860781 
L 59.592815 -118.860781 
L 59.999393 -118.860781 
L 60.405971 -118.860781 
L 60.81256 -118.860781 
L 61.219139 -118.860781 
L 61.625728 -118.860781 
L 62.032306 -118.860781 
L 62.438895 -118.860781 
L 62.845473 -118.860781 
L 63.252062 -118.860781 
L 63.658641 -118.860781 
L 64.06523 -118.860781 
L 64.471808 -118.860781 
L 64.878397 -118.860781 
L 65.284975 -118.860781 
L 65.691564 -118.860781 
L 66.098143 -118.860781 
L 66.504721 -118.860781 
L 66.911299 -118.860781 
L 67.317888 -118.860781 
L 67.724466 -118.860781 
L 68.131056 -118.860781 
L 68.537634 -118.860781 
L 68.944217 -118.860781 
L 69.350801 -118.860781 
L 69.757385 -118.860781 
L 70.163968 -118.860781 
L 70.570552 -118.860781 
L 70.977136 -118.860781 
L 71.383714 -118.860781 
L 71.790298 -118.860781 
L 72.196881 -118.860781 
L 72.603465 -118.860781 
L 73.010049 -118.860781 
L 73.416632 -118.860781 
L 73.823216 -118.860781 
L 74.2298 -118.860781 
L 74.636378 -118.860781 
L 75.042962 -118.860781 
L 75.449545 -118.860781 
L 75.856129 -118.860781 
L 76.262713 -118.860781 
L 76.669296 -118.860781 
L 77.07588 -118.860781 
L 77.482464 -118.860781 
L 77.889042 -118.860781 
L 78.295626 -118.860781 
L 78.702209 -118.860781 
L 79.108793 -118.860781 
L 79.515377 -118.860781 
L 79.92196 -118.860781 
L 80.328544 -118.860781 
L 80.735128 -118.860781 
L 81.141706 -118.860781 
L 81.54829 -118.860781 
L 81.954873 -118.860781 
L 82.361457 -118.860781 
L 82.768041 -118.860781 
L 83.174624 -118.860781 
L 83.581208 -118.860781 
L 83.987792 -118.860781 
L 84.39437 -118.860781 
L 84.800954 -118.860781 
L 85.207537 -118.860781 
L 85.614121 -118.860781 
L 86.020705 -118.860781 
L 86.427288 -118.860781 
L 86.833872 -118.860781 
L 87.240456 -118.860781 
L 87.647034 -118.860781 
L 88.053618 -118.860781 
L 88.460201 -118.860781 
L 88.866785 -118.860781 
L 89.273363 -118.860781 
L 89.679947 -118.860781 
L 90.086531 -118.860781 
L 90.493114 -118.860781 
L 90.899693 -118.860781 
L 91.306276 -118.860781 
L 91.71286 -118.860781 
L 92.119444 -118.860781 
L 92.526027 -118.860781 
L 92.932611 -118.860781 
L 93.339195 -118.860781 
L 93.745778 -118.860781 
L 94.152357 -118.860781 
L 94.55894 -118.860781 
L 94.965524 -118.860781 
L 95.372108 -118.860781 
L 95.778691 -118.860781 
L 96.185275 -118.860781 
L 96.591859 -118.860781 
L 96.998442 -118.860781 
L 97.405021 -118.860781 
L 97.811604 -118.860781 
L 98.218188 -118.860781 
L 98.624772 -118.860781 
L 99.031355 -118.860781 
L 99.437939 -118.860781 
L 99.844523 -118.860781 
L 100.251106 -118.860781 
L 100.657685 -118.860781 
L 101.064268 -118.860781 
L 101.470852 -118.860781 
L 101.877436 -118.860781 
L 102.284019 -118.860781 
L 102.690603 -118.860781 
L 103.097187 -118.860781 
L 103.50377 -118.860781 
L 103.910349 -118.860781 
L 104.316932 -118.860781 
L 104.723516 -118.860781 
L 105.1301 -118.860781 
L 105.536683 -118.860781 
L 105.943267 -118.860781 
L 106.349851 -118.860781 
L 106.756434 -118.860781 
L 107.163013 -118.860781 
L 107.569596 -118.860781 
L 107.97618 -118.860781 
L 108.382764 -118.860781 
L 108.789347 -118.860781 
L 109.195931 -118.860781 
L 109.602515 -118.860781 
L 110.009098 -118.860781 
L 110.415677 -118.860781 
L 110.82226 -118.860781 
L 111.228844 -118.860781 
L 111.635428 -118.860781 
L 112.042011 -118.860781 
L 112.448595 -118.860781 
L 112.855179 -118.860781 
L 113.26176 -118.860781 
L 113.668343 -118.860781 
L 114.074927 -118.860781 
L 114.481508 -118.860781 
L 114.888092 -118.860781 
L 115.294673 -118.860781 
L 115.701256 -118.860781 
L 116.107837 -118.860781 
L 116.514421 -118.860781 
L 116.921005 -118.860781 
L 117.327588 -118.860781 
L 117.734169 -118.860781 
L 118.140753 -118.860781 
L 118.547337 -118.860781 
L 118.95392 -118.860781 
L 119.360501 -118.860781 
L 119.767085 -118.860781 
L 120.173669 -118.860781 
L 120.580252 -118.860781 
L 120.986833 -118.860781 
L 121.393417 -118.860781 
L 121.799998 -118.860781 
L 122.206582 -118.860781 
L 122.613163 -118.860781 
L 123.019746 -118.860781 
L 123.42633 -118.860781 
L 123.832914 -118.860781 
L 124.239495 -118.860781 
L 124.646078 -118.860781 
L 125.052662 -118.860781 
L 125.459246 -118.860781 
L 125.865827 -118.860781 
L 126.27241 -118.860781 
L 126.678994 -118.860781 
L 127.085578 -118.860781 
L 127.492159 -118.860781 
L 127.898742 -118.860781 
L 128.305326 -118.860781 
L 128.71191 -118.860781 
L 129.118491 -118.860781 
L 129.525074 -118.860781 
L 129.931658 -118.860781 
L 130.338242 -118.860781 
L 130.744823 -118.860781 
L 131.151406 -118.860781 
L 131.151406 -118.863033 
L 131.151406 -118.863033 
L 130.744823 -118.863276 
L 130.338242 -118.863333 
L 129.931658 -118.863339 
L 129.525074 -118.86341 
L 129.118491 -118.863564 
L 128.71191 -118.863799 
L 128.305326 -118.86423 
L 127.898742 -118.865098 
L 127.492159 -118.866576 
L 127.085578 -118.868565 
L 126.678994 -118.870652 
L 126.27241 -118.872336 
L 125.865827 -118.873365 
L 125.459246 -118.873998 
L 125.052662 -118.874989 
L 124.646078 -118.877239 
L 124.239495 -118.88126 
L 123.832914 -118.88672 
L 123.42633 -118.892445 
L 123.019746 -118.896967 
L 122.613163 -118.899379 
L 122.206582 -118.899948 
L 121.799998 -118.900086 
L 121.393417 -118.901657 
L 120.986833 -118.90602 
L 120.580252 -118.913369 
L 120.173669 -118.922734 
L 119.767085 -118.932611 
L 119.360501 -118.941871 
L 118.95392 -118.950512 
L 118.547337 -118.959929 
L 118.140753 -118.972428 
L 117.734169 -118.990078 
L 117.327588 -119.013526 
L 116.921005 -119.041686 
L 116.514421 -119.072658 
L 116.107837 -119.105266 
L 115.701256 -119.140089 
L 115.294673 -119.179314 
L 114.888092 -119.225475 
L 114.481508 -119.279673 
L 114.074927 -119.340325 
L 113.668343 -119.403562 
L 113.26176 -119.465421 
L 112.855179 -119.524363 
L 112.448595 -119.582256 
L 112.042011 -119.643428 
L 111.635428 -119.712923 
L 111.228844 -119.795 
L 110.82226 -119.892103 
L 110.415677 -120.004544 
L 110.009098 -120.131281 
L 109.602515 -120.271333 
L 109.195931 -120.424272 
L 108.789347 -120.589058 
L 108.382764 -120.762443 
L 107.97618 -120.938949 
L 107.569596 -121.113079 
L 107.163013 -121.282904 
L 106.756434 -121.453271 
L 106.349851 -121.635903 
L 105.943267 -121.844016 
L 105.536683 -122.083799 
L 105.1301 -122.350095 
L 104.723516 -122.631259 
L 104.316932 -122.918653 
L 103.910349 -123.211116 
L 103.50377 -123.51094 
L 103.097187 -123.817747 
L 102.690603 -124.127987 
L 102.284019 -124.440196 
L 101.877436 -124.759277 
L 101.470852 -125.094594 
L 101.064268 -125.453426 
L 100.657685 -125.835867 
L 100.251106 -126.23532 
L 99.844523 -126.643135 
L 99.437939 -127.052508 
L 99.031355 -127.458642 
L 98.624772 -127.856057 
L 98.218188 -128.236611 
L 97.811604 -128.591216 
L 97.405021 -128.915389 
L 96.998442 -129.215324 
L 96.591859 -129.5089 
L 96.185275 -129.817442 
L 95.778691 -130.150984 
L 95.372108 -130.497388 
L 94.965524 -130.825495 
L 94.55894 -131.101991 
L 94.152357 -131.310169 
L 93.745778 -131.456965 
L 93.339195 -131.563657 
L 92.932611 -131.648602 
L 92.526027 -131.717088 
L 92.119444 -131.766267 
L 91.71286 -131.79684 
L 91.306276 -131.815408 
L 90.899693 -131.823257 
L 90.493114 -131.805368 
L 90.086531 -131.734657 
L 89.679947 -131.589744 
L 89.273363 -131.370706 
L 88.866785 -131.100232 
L 88.460201 -130.810214 
L 88.053618 -130.523328 
L 87.647034 -130.241349 
L 87.240456 -129.94821 
L 86.833872 -129.625597 
L 86.427288 -129.268241 
L 86.020705 -128.885921 
L 85.614121 -128.492469 
L 85.207537 -128.094278 
L 84.800954 -127.688816 
L 84.39437 -127.271814 
L 83.987792 -126.844705 
L 83.581208 -126.41639 
L 83.174624 -125.999548 
L 82.768041 -125.604848 
L 82.361457 -125.236872 
L 81.954873 -124.894167 
L 81.54829 -124.57288 
L 81.141706 -124.270194 
L 80.735128 -123.98412 
L 80.328544 -123.710722 
L 79.92196 -123.442877 
L 79.515377 -123.172435 
L 79.108793 -122.894246 
L 78.702209 -122.609356 
L 78.295626 -122.325339 
L 77.889042 -122.053166 
L 77.482464 -121.802471 
L 77.07588 -121.578463 
L 76.669296 -121.381722 
L 76.262713 -121.209041 
L 75.856129 -121.054018 
L 75.449545 -120.908429 
L 75.042962 -120.765311 
L 74.636378 -120.621963 
L 74.2298 -120.480104 
L 73.823216 -120.343179 
L 73.416632 -120.213632 
L 73.010049 -120.092274 
L 72.603465 -119.979025 
L 72.196881 -119.87318 
L 71.790298 -119.773137 
L 71.383714 -119.677077 
L 70.977136 -119.585012 
L 70.570552 -119.50034 
L 70.163968 -119.428735 
L 69.757385 -119.37431 
L 69.350801 -119.335772 
L 68.944217 -119.305843 
L 68.537634 -119.274938 
L 68.131056 -119.236712 
L 67.724466 -119.191469 
L 67.317888 -119.145163 
L 66.911299 -119.105068 
L 66.504721 -119.075382 
L 66.098143 -119.055463 
L 65.691564 -119.041295 
L 65.284975 -119.028523 
L 64.878397 -119.014646 
L 64.471808 -118.999221 
L 64.06523 -118.982885 
L 63.658641 -118.966643 
L 63.252062 -118.95177 
L 62.845473 -118.939639 
L 62.438895 -118.931118 
L 62.032306 -118.926009 
L 61.625728 -118.923137 
L 61.219139 -118.921055 
L 60.81256 -118.918741 
L 60.405971 -118.915776 
L 59.999393 -118.912057 
L 59.592815 -118.907535 
L 59.186236 -118.902236 
L 58.779647 -118.896375 
L 58.373069 -118.89027 
L 57.96648 -118.88418 
L 57.559902 -118.878336 
L 57.153313 -118.873107 
L 56.746734 -118.868992 
L 56.340145 -118.866331 
L 55.933567 -118.865057 
L 55.526978 -118.864716 
L 55.1204 -118.864731 
L 54.713811 -118.864668 
L 54.307232 -118.864362 
L 53.900643 -118.863899 
L 53.494065 -118.863494 
L 53.087487 -118.863325 
L 52.680908 -118.86342 
L 52.274319 -118.863653 
L 51.867741 -118.863868 
L 51.461152 -118.863967 
L 51.054574 -118.863911 
L 50.647985 -118.863671 
L 50.241406 -118.863225 
z
" style="stroke: #d94801; stroke-opacity: 0.1"/>
    </defs>
    <g clip-path="url(#pf8ebbdcf39)">
     <use xlink:href="#mefacb9c3c3" x="0" y="139.920781" style="fill: #d94801; fill-opacity: 0.1; stroke: #d94801; stroke-opacity: 0.1"/>
    </g>
   </g>
   <g id="matplotlib.axis_3">
    <g id="xtick_3">
     <g id="line2d_7">
      <g>
       <use xlink:href="#mdd790f3d52" x="68.22141" y="21.06" style="stroke: #000000; stroke-width: 1.5"/>
      </g>
     </g>
    </g>
    <g id="xtick_4">
     <g id="line2d_8">
      <g>
       <use xlink:href="#mdd790f3d52" x="113.171408" y="21.06" style="stroke: #000000; stroke-width: 1.5"/>
      </g>
     </g>
    </g>
   </g>
   <g id="matplotlib.axis_4">
    <g id="ytick_5">
     <g id="line2d_9">
      <g>
       <use xlink:href="#m34b3eb2dc8" x="50.241406" y="21.06" style="stroke: #000000; stroke-width: 1.5"/>
      </g>
     </g>
    </g>
    <g id="ytick_6">
     <g id="line2d_10">
      <g>
       <use xlink:href="#m34b3eb2dc8" x="50.241406" y="13.58063" style="stroke: #000000; stroke-width: 1.5"/>
      </g>
     </g>
    </g>
   </g>
   <g id="line2d_11">
    <path d="M 50.241406 21.056039 
L 61.219139 20.96372 
L 67.317888 20.646345 
L 69.350801 20.394954 
L 72.196881 19.783239 
L 73.823216 19.213308 
L 75.856129 18.256914 
L 78.295626 16.761131 
L 80.328544 15.168425 
L 81.954873 13.669084 
L 83.987792 11.757526 
L 86.833872 9.735784 
L 88.460201 8.604876 
L 89.273363 8.290277 
L 90.086531 8.213506 
L 92.119444 8.455981 
L 92.932611 8.657899 
L 93.745778 9.065771 
L 94.965524 9.983299 
L 98.218188 12.760485 
L 103.097187 17.073306 
L 104.316932 17.923551 
L 105.943267 18.689893 
L 109.195931 19.943287 
L 111.228844 20.354637 
L 114.074927 20.692816 
L 117.327588 20.935372 
L 123.832914 21.045994 
L 131.151406 21.058678 
L 131.151406 21.058678 
" clip-path="url(#pf8ebbdcf39)" style="fill: none; stroke: #08519c; stroke-width: 1.5; stroke-linecap: square"/>
   </g>
   <g id="line2d_12">
    <path d="M 50.241406 21.057556 
L 64.06523 20.937896 
L 68.131056 20.684069 
L 70.977136 20.335769 
L 73.823216 19.577602 
L 76.669296 18.539059 
L 77.889042 17.867615 
L 81.954873 15.026614 
L 83.174624 13.921234 
L 86.833872 10.295184 
L 88.866785 8.82055 
L 89.679947 8.331037 
L 90.493114 8.115413 
L 92.119444 8.154514 
L 93.339195 8.357124 
L 94.152357 8.610612 
L 94.965524 9.095286 
L 99.031355 12.462139 
L 101.877436 15.161504 
L 104.723516 17.289522 
L 106.349851 18.284878 
L 109.602515 19.649448 
L 111.228844 20.125781 
L 113.668343 20.517219 
L 116.514421 20.848123 
L 119.767085 20.98817 
L 126.678994 21.050129 
L 131.151406 21.057749 
L 131.151406 21.057749 
" clip-path="url(#pf8ebbdcf39)" style="fill: none; stroke: #d94801; stroke-width: 1.5; stroke-linecap: square"/>
   </g>
   <g id="patch_6">
    <path d="M 50.241406 21.06 
L 50.241406 7.2 
" style="fill: none; stroke: #000000; stroke-width: 1.5; stroke-linejoin: miter; stroke-linecap: square"/>
   </g>
   <g id="patch_7">
    <path d="M 50.241406 21.06 
L 131.151406 21.06 
" style="fill: none; stroke: #000000; stroke-width: 1.5; stroke-linejoin: miter; stroke-linecap: square"/>
   </g>
  </g>
  <g id="axes_3">
   <g id="patch_8">
    <path d="M 133.941406 104.22 
L 147.891406 104.22 
L 147.891406 23.832 
L 133.941406 23.832 
L 133.941406 104.22 
z
" style="fill: none"/>
   </g>
   <g id="PolyCollection_3">
    <path d="M 133.941407 104.22 
L 133.941407 -119.080032 
L 133.941411 -119.080142 
L 133.941425 -119.080595 
L 133.941473 -119.082103 
L 133.941603 -119.086143 
L 133.941879 -119.094769 
L 133.942341 -119.10921 
L 133.942928 -119.12753 
L 133.943446 -119.143732 
L 133.943675 -119.150862 
L 133.943547 -119.146871 
L 133.943259 -119.137891 
L 133.943176 -119.135279 
L 133.943602 -119.148605 
L 133.944601 -119.179811 
L 133.945952 -119.221997 
L 133.947269 -119.263152 
L 133.948211 -119.292564 
L 133.948647 -119.306201 
L 133.948724 -119.308578 
L 133.948815 -119.311422 
L 133.949425 -119.330501 
L 133.951036 -119.380801 
L 133.95389 -119.469957 
L 133.957798 -119.592052 
L 133.962128 -119.727296 
L 133.966139 -119.852579 
L 133.969529 -119.95848 
L 133.972706 -120.057719 
L 133.97644 -120.174357 
L 133.981224 -120.323793 
L 133.987077 -120.506645 
L 133.994018 -120.723444 
L 134.002541 -120.989681 
L 134.013451 -121.330502 
L 134.027237 -121.761128 
L 134.04367 -122.274454 
L 134.061907 -122.844117 
L 134.08085 -123.43586 
L 134.099615 -124.022035 
L 134.117983 -124.595798 
L 134.136694 -125.180265 
L 134.157631 -125.834292 
L 134.183854 -126.653434 
L 134.218841 -127.746332 
L 134.264645 -129.177124 
L 134.320472 -130.921015 
L 134.38375 -132.897659 
L 134.452914 -135.058143 
L 134.528485 -137.418795 
L 134.610906 -139.9934 
L 134.697973 -142.713156 
L 134.785689 -145.453161 
L 134.87247 -148.163971 
L 134.962415 -150.973623 
L 135.063917 -154.144262 
L 135.18422 -157.902208 
L 135.324429 -162.281965 
L 135.479426 -167.12369 
L 135.6429 -172.230183 
L 135.81324 -177.551148 
L 135.995338 -183.239403 
L 136.197333 -189.549185 
L 136.426177 -196.697689 
L 136.685 -204.782632 
L 136.971386 -213.728552 
L 137.275876 -223.240032 
L 137.583437 -232.847425 
L 137.881423 -242.155714 
L 138.170248 -251.177846 
L 138.465408 -260.397869 
L 138.786119 -270.416013 
L 139.140908 -281.498684 
L 139.524478 -293.480412 
L 139.925664 -306.012401 
L 140.334519 -318.78394 
L 140.74298 -331.543176 
L 141.144815 -344.095437 
L 141.537701 -356.368161 
L 141.924201 -368.441393 
L 142.310311 -380.502451 
L 142.704876 -392.82763 
L 143.118721 -405.755066 
L 143.556691 -419.436089 
L 144.005748 -433.463422 
L 144.43448 -446.855879 
L 144.810093 -458.589054 
L 145.117762 -468.199813 
L 145.363545 -475.877433 
L 145.563026 -482.108689 
L 145.732564 -487.40461 
L 145.889773 -492.315379 
L 146.054306 -497.454958 
L 146.240422 -503.268751 
L 146.44573 -509.682017 
L 146.647937 -515.998415 
L 146.81494 -521.215163 
L 146.921901 -524.556352 
L 146.962966 -525.839114 
L 146.949998 -525.434013 
L 146.90117 -523.908771 
L 146.828539 -521.639948 
L 146.732198 -518.63052 
L 146.603104 -514.597968 
L 146.430807 -509.215866 
L 146.209897 -502.315221 
L 145.942145 -493.951354 
L 145.636489 -484.403467 
L 145.308546 -474.159382 
L 144.97734 -463.813386 
L 144.657006 -453.807015 
L 144.346247 -444.099727 
L 144.025499 -434.080395 
L 143.669476 -422.959185 
L 143.267752 -410.410387 
L 142.832979 -396.829239 
L 142.386415 -382.879738 
L 141.937695 -368.86293 
L 141.482804 -354.653338 
L 141.020758 -340.220233 
L 140.565474 -325.998379 
L 140.137946 -312.643527 
L 139.74869 -300.484196 
L 139.390428 -289.293043 
L 139.047152 -278.570006 
L 138.708956 -268.005652 
L 138.378293 -257.676609 
L 138.064355 -247.870025 
L 137.77301 -238.76918 
L 137.502063 -230.305502 
L 137.244381 -222.256202 
L 136.994759 -214.458672 
L 136.753631 -206.926477 
L 136.524694 -199.77508 
L 136.309768 -193.061358 
L 136.107478 -186.742363 
L 135.91653 -180.777645 
L 135.73815 -175.20552 
L 135.573865 -170.073694 
L 135.42214 -165.334209 
L 135.279022 -160.86358 
L 135.14242 -156.596494 
L 135.014704 -152.60699 
L 134.900667 -149.044772 
L 134.802941 -145.992086 
L 134.719373 -143.381624 
L 134.644459 -141.041518 
L 134.573434 -138.822875 
L 134.50523 -136.69237 
L 134.441902 -134.71418 
L 134.385565 -132.954358 
L 134.336252 -131.413957 
L 134.292405 -130.044279 
L 134.252593 -128.80066 
L 134.216118 -127.661281 
L 134.182254 -126.603459 
L 134.149831 -125.590644 
L 134.118252 -124.604201 
L 134.088795 -123.684055 
L 134.064368 -122.921017 
L 134.047487 -122.393675 
L 134.038251 -122.105183 
L 134.034068 -121.974512 
L 134.03124 -121.886181 
L 134.027089 -121.756507 
L 134.02105 -121.567854 
L 134.014147 -121.352243 
L 134.007602 -121.147786 
L 134.001849 -120.968085 
L 133.996576 -120.80335 
L 133.991346 -120.640002 
L 133.986113 -120.476512 
L 133.981253 -120.324713 
L 133.977257 -120.199891 
L 133.974332 -120.108522 
L 133.972193 -120.041693 
L 133.970154 -119.978023 
L 133.967513 -119.895498 
L 133.963997 -119.785685 
L 133.959986 -119.660391 
L 133.956328 -119.54613 
L 133.953913 -119.470676 
L 133.953188 -119.448032 
L 133.953817 -119.467688 
L 133.954737 -119.496435 
L 133.954767 -119.497355 
L 133.953405 -119.454824 
L 133.951142 -119.384128 
L 133.948976 -119.316471 
L 133.947598 -119.273427 
L 133.946963 -119.253594 
L 133.946556 -119.240861 
L 133.945985 -119.223032 
L 133.945305 -119.201791 
L 133.944828 -119.186883 
L 133.944758 -119.184717 
L 133.945066 -119.194342 
L 133.945602 -119.211062 
L 133.946174 -119.228923 
L 133.946513 -119.239516 
L 133.946513 23.832 
L 133.946513 23.832 
L 133.946174 24.235955 
L 133.945602 24.639921 
L 133.945066 25.043876 
L 133.944758 25.447842 
L 133.944828 25.851798 
L 133.945305 26.255763 
L 133.945985 26.659719 
L 133.946556 27.063674 
L 133.946963 27.467629 
L 133.947598 27.871595 
L 133.948976 28.27555 
L 133.951142 28.679516 
L 133.953405 29.083472 
L 133.954767 29.487437 
L 133.954737 29.891393 
L 133.953817 30.295359 
L 133.953188 30.699314 
L 133.953913 31.10328 
L 133.956328 31.507235 
L 133.959986 31.911201 
L 133.963997 32.315156 
L 133.967513 32.719122 
L 133.970154 33.123077 
L 133.972193 33.527033 
L 133.974332 33.930988 
L 133.977257 34.334954 
L 133.981253 34.738909 
L 133.986113 35.142875 
L 133.991346 35.54683 
L 133.996576 35.950796 
L 134.001849 36.354751 
L 134.007602 36.758717 
L 134.014147 37.162672 
L 134.02105 37.566638 
L 134.027089 37.970593 
L 134.03124 38.374559 
L 134.034068 38.778515 
L 134.038251 39.182481 
L 134.047487 39.586436 
L 134.064368 39.990391 
L 134.088795 40.394346 
L 134.118252 40.798312 
L 134.149831 41.202267 
L 134.182254 41.606233 
L 134.216118 42.010189 
L 134.252593 42.414154 
L 134.292405 42.81811 
L 134.336252 43.222065 
L 134.385565 43.62602 
L 134.441902 44.029986 
L 134.50523 44.433941 
L 134.573434 44.837907 
L 134.644459 45.241863 
L 134.719373 45.645828 
L 134.802941 46.049784 
L 134.900667 46.45375 
L 135.014704 46.857705 
L 135.14242 47.261671 
L 135.279022 47.665626 
L 135.42214 48.069592 
L 135.573865 48.473547 
L 135.73815 48.877513 
L 135.91653 49.281468 
L 136.107478 49.685424 
L 136.309768 50.089379 
L 136.524694 50.493345 
L 136.753631 50.8973 
L 136.994759 51.301266 
L 137.244381 51.705221 
L 137.502063 52.109187 
L 137.77301 52.513142 
L 138.064355 52.917108 
L 138.378293 53.321063 
L 138.708956 53.725029 
L 139.047152 54.128985 
L 139.390428 54.53295 
L 139.74869 54.936906 
L 140.137946 55.340872 
L 140.565474 55.744827 
L 141.020758 56.148782 
L 141.482804 56.552737 
L 141.937695 56.956703 
L 142.386415 57.360659 
L 142.832979 57.764624 
L 143.267752 58.16858 
L 143.669476 58.572546 
L 144.025499 58.976501 
L 144.346247 59.380467 
L 144.657006 59.784433 
L 144.97734 60.188388 
L 145.308546 60.592343 
L 145.636489 60.996298 
L 145.942145 61.400275 
L 146.209897 61.80423 
L 146.430807 62.208185 
L 146.603104 62.612162 
L 146.732198 63.016117 
L 146.828539 63.420072 
L 146.90117 63.824028 
L 146.949998 64.227983 
L 146.962966 64.631959 
L 146.921901 65.035915 
L 146.81494 65.43987 
L 146.647937 65.843825 
L 146.44573 66.24778 
L 146.240422 66.651736 
L 146.054306 67.055691 
L 145.889773 67.459646 
L 145.732564 67.863623 
L 145.563026 68.267578 
L 145.363545 68.671533 
L 145.117762 69.07551 
L 144.810093 69.479465 
L 144.43448 69.88342 
L 144.005748 70.287376 
L 143.556691 70.691331 
L 143.118721 71.095307 
L 142.704876 71.499263 
L 142.310311 71.903218 
L 141.924201 72.307194 
L 141.537701 72.71115 
L 141.144815 73.115105 
L 140.74298 73.51906 
L 140.334519 73.923015 
L 139.925664 74.326992 
L 139.524478 74.730947 
L 139.140908 75.134902 
L 138.786119 75.538858 
L 138.465408 75.942813 
L 138.170248 76.346768 
L 137.881423 76.750724 
L 137.583437 77.154679 
L 137.275876 77.558655 
L 136.971386 77.962611 
L 136.685 78.366566 
L 136.426177 78.770542 
L 136.197333 79.174498 
L 135.995338 79.578453 
L 135.81324 79.982408 
L 135.6429 80.386363 
L 135.479426 80.79034 
L 135.324429 81.194295 
L 135.18422 81.59825 
L 135.063917 82.002227 
L 134.962415 82.406182 
L 134.87247 82.810137 
L 134.785689 83.214093 
L 134.697973 83.618048 
L 134.610906 84.022024 
L 134.528485 84.42598 
L 134.452914 84.829935 
L 134.38375 85.23389 
L 134.320472 85.637846 
L 134.264645 86.041801 
L 134.218841 86.445756 
L 134.183854 86.849711 
L 134.157631 87.253688 
L 134.136694 87.657643 
L 134.117983 88.061598 
L 134.099615 88.465575 
L 134.08085 88.86953 
L 134.061907 89.273485 
L 134.04367 89.677441 
L 134.027237 90.081396 
L 134.013451 90.485372 
L 134.002541 90.889328 
L 133.994018 91.293283 
L 133.987077 91.697259 
L 133.981224 92.101215 
L 133.97644 92.50517 
L 133.972706 92.909125 
L 133.969529 93.31308 
L 133.966139 93.717057 
L 133.962128 94.121012 
L 133.957798 94.524967 
L 133.95389 94.928944 
L 133.951036 95.332899 
L 133.949425 95.736855 
L 133.948815 96.14081 
L 133.948724 96.544765 
L 133.948647 96.948742 
L 133.948211 97.352697 
L 133.947269 97.756652 
L 133.945952 98.160607 
L 133.944601 98.564563 
L 133.943602 98.968518 
L 133.943176 99.372473 
L 133.943259 99.776428 
L 133.943547 100.180405 
L 133.943675 100.58436 
L 133.943446 100.988315 
L 133.942928 101.392292 
L 133.942341 101.796247 
L 133.941879 102.200202 
L 133.941603 102.604158 
L 133.941473 103.008113 
L 133.941425 103.412089 
L 133.941411 103.816045 
L 133.941407 104.22 
z
" clip-path="url(#p61c5d4702e)" style="fill: #08519c; fill-opacity: 0.1; stroke: #08519c; stroke-opacity: 0.1"/>
   </g>
   <g id="PolyCollection_4">
    <path d="M 133.941406 104.22 
L 133.941406 -119.080006 
L 133.941406 -119.080006 
L 133.941406 -119.080006 
L 133.941406 -119.080006 
L 133.941406 -119.080006 
L 133.941406 -119.080006 
L 133.941406 -119.080006 
L 133.941406 -119.080006 
L 133.941406 -119.080008 
L 133.941407 -119.080023 
L 133.941409 -119.080098 
L 133.94142 -119.080424 
L 133.941457 -119.081581 
L 133.941564 -119.084937 
L 133.94182 -119.092941 
L 133.942331 -119.108905 
L 133.943216 -119.136532 
L 133.944629 -119.180669 
L 133.94684 -119.249747 
L 133.950237 -119.355849 
L 133.955061 -119.506555 
L 133.960992 -119.691805 
L 133.967026 -119.880315 
L 133.971983 -120.035154 
L 133.975246 -120.137072 
L 133.977067 -120.193948 
L 133.978184 -120.228847 
L 133.979129 -120.258352 
L 133.979772 -120.278453 
L 133.979486 -120.26952 
L 133.977949 -120.221505 
L 133.976098 -120.163688 
L 133.976274 -120.169182 
L 133.980985 -120.316328 
L 133.991005 -120.629335 
L 134.004491 -121.050621 
L 134.018151 -121.477306 
L 134.029684 -121.83756 
L 134.039536 -122.145332 
L 134.050697 -122.493971 
L 134.066932 -123.001084 
L 134.090834 -123.747741 
L 134.122768 -124.745275 
L 134.160856 -125.935031 
L 134.201813 -127.21441 
L 134.242407 -128.482486 
L 134.280863 -129.683742 
L 134.317247 -130.820264 
L 134.352745 -131.929148 
L 134.389033 -133.062672 
L 134.428608 -134.298892 
L 134.475492 -135.763436 
L 134.535153 -137.627095 
L 134.613281 -140.067606 
L 134.71362 -143.201913 
L 134.835784 -147.017993 
L 134.974709 -151.357644 
L 135.122787 -155.983211 
L 135.27372 -160.697952 
L 135.425484 -165.43868 
L 135.581062 -170.298503 
L 135.747218 -175.488775 
L 135.931767 -181.253604 
L 136.140359 -187.769463 
L 136.374657 -195.088322 
L 136.633009 -203.158567 
L 136.912107 -211.87683 
L 137.206761 -221.081052 
L 137.508427 -230.50431 
L 137.806493 -239.815084 
L 138.094024 -248.796791 
L 138.374205 -257.548924 
L 138.660912 -266.504883 
L 138.971953 -276.220971 
L 139.319749 -287.085221 
L 139.705092 -299.122307 
L 140.116945 -311.987501 
L 140.538708 -325.162283 
L 140.956318 -338.207315 
L 141.362108 -350.883099 
L 141.753094 -363.096469 
L 142.129448 -374.85277 
L 142.49759 -386.352559 
L 142.872672 -398.069129 
L 143.272969 -410.573359 
L 143.707198 -424.137507 
L 144.164331 -438.417133 
L 144.615259 -452.502958 
L 145.026417 -465.346441 
L 145.376689 -476.287998 
L 145.666148 -485.329929 
L 145.910146 -492.951795 
L 146.12529 -499.672324 
L 146.320555 -505.771889 
L 146.49897 -511.345109 
L 146.662449 -516.451755 
L 146.810215 -521.067573 
L 146.932905 -524.900091 
L 147.012769 -527.39482 
L 147.033587 -528.045121 
L 146.991458 -526.729103 
L 146.89588 -523.7435 
L 146.761175 -519.53569 
L 146.598626 -514.458079 
L 146.417605 -508.803462 
L 146.230996 -502.974281 
L 146.052234 -497.390252 
L 145.881854 -492.068031 
L 145.697426 -486.306979 
L 145.460902 -478.918609 
L 145.141029 -468.926607 
L 144.734384 -456.224082 
L 144.26951 -441.702658 
L 143.790762 -426.747851 
L 143.33479 -412.504479 
L 142.91868 -399.506289 
L 142.544416 -387.815275 
L 142.207062 -377.277249 
L 141.895424 -367.542475 
L 141.59057 -358.019654 
L 141.271144 -348.041634 
L 140.923759 -337.190231 
L 140.548972 -325.482899 
L 140.158393 -313.282231 
L 139.766602 -301.043725 
L 139.384722 -289.114796 
L 139.018094 -277.662321 
L 138.667155 -266.699898 
L 138.330084 -256.17069 
L 138.006803 -246.072249 
L 137.700567 -236.506253 
L 137.414496 -227.57016 
L 137.14666 -219.203671 
L 136.890759 -211.209977 
L 136.64154 -203.425039 
L 136.398143 -195.821967 
L 136.162745 -188.468762 
L 135.939136 -181.483813 
L 135.73344 -175.058413 
L 135.553897 -169.449943 
L 135.407326 -164.871474 
L 135.294502 -161.347154 
L 135.207516 -158.62993 
L 135.131323 -156.249865 
L 135.050005 -153.709706 
L 134.954922 -150.739546 
L 134.848377 -147.411385 
L 134.739653 -144.015126 
L 134.637698 -140.830321 
L 134.54726 -138.005273 
L 134.469728 -135.58338 
L 134.405252 -133.56933 
L 134.353339 -131.947698 
L 134.312324 -130.666503 
L 134.279076 -129.627922 
L 134.249595 -128.707017 
L 134.220416 -127.795517 
L 134.190203 -126.851765 
L 134.160353 -125.919318 
L 134.133804 -125.089991 
L 134.112831 -124.434853 
L 134.097609 -123.959364 
L 134.086407 -123.609432 
L 134.076733 -123.30726 
L 134.066372 -122.983602 
L 134.053967 -122.596092 
L 134.039365 -122.139984 
L 134.023737 -121.651812 
L 134.009141 -121.19586 
L 133.997518 -120.832791 
L 133.989652 -120.587062 
L 133.984797 -120.435412 
L 133.981262 -120.324982 
L 133.977545 -120.208897 
L 133.9732 -120.073163 
L 133.968823 -119.936447 
L 133.965317 -119.826918 
L 133.963096 -119.757547 
L 133.96186 -119.718942 
L 133.960975 -119.691286 
L 133.95997 -119.659885 
L 133.958702 -119.62027 
L 133.957243 -119.574705 
L 133.955776 -119.528879 
L 133.954505 -119.489187 
L 133.953478 -119.457103 
L 133.952456 -119.425183 
L 133.951079 -119.382162 
L 133.949209 -119.323746 
L 133.947099 -119.257819 
L 133.945235 -119.199611 
L 133.94406 -119.162916 
L 133.943781 -119.154184 
L 133.944317 -119.170936 
L 133.945345 -119.203047 
L 133.946402 -119.23606 
L 133.947039 -119.25597 
L 133.94698 -119.2541 
L 133.946215 -119.230219 
L 133.944999 -119.192239 
L 133.944999 23.832 
L 133.944999 23.832 
L 133.946215 24.235955 
L 133.94698 24.639921 
L 133.947039 25.043876 
L 133.946402 25.447842 
L 133.945345 25.851798 
L 133.944317 26.255763 
L 133.943781 26.659719 
L 133.94406 27.063674 
L 133.945235 27.467629 
L 133.947099 27.871595 
L 133.949209 28.27555 
L 133.951079 28.679516 
L 133.952456 29.083472 
L 133.953478 29.487437 
L 133.954505 29.891393 
L 133.955776 30.295359 
L 133.957243 30.699314 
L 133.958702 31.10328 
L 133.95997 31.507235 
L 133.960975 31.911201 
L 133.96186 32.315156 
L 133.963096 32.719122 
L 133.965317 33.123077 
L 133.968823 33.527033 
L 133.9732 33.930988 
L 133.977545 34.334954 
L 133.981262 34.738909 
L 133.984797 35.142875 
L 133.989652 35.54683 
L 133.997518 35.950796 
L 134.009141 36.354751 
L 134.023737 36.758717 
L 134.039365 37.162672 
L 134.053967 37.566638 
L 134.066372 37.970593 
L 134.076733 38.374559 
L 134.086407 38.778515 
L 134.097609 39.182481 
L 134.112831 39.586436 
L 134.133804 39.990391 
L 134.160353 40.394346 
L 134.190203 40.798312 
L 134.220416 41.202267 
L 134.249595 41.606233 
L 134.279076 42.010189 
L 134.312324 42.414154 
L 134.353339 42.81811 
L 134.405252 43.222065 
L 134.469728 43.62602 
L 134.54726 44.029986 
L 134.637698 44.433941 
L 134.739653 44.837907 
L 134.848377 45.241863 
L 134.954922 45.645828 
L 135.050005 46.049784 
L 135.131323 46.45375 
L 135.207516 46.857705 
L 135.294502 47.261671 
L 135.407326 47.665626 
L 135.553897 48.069592 
L 135.73344 48.473547 
L 135.939136 48.877513 
L 136.162745 49.281468 
L 136.398143 49.685424 
L 136.64154 50.089379 
L 136.890759 50.493345 
L 137.14666 50.8973 
L 137.414496 51.301266 
L 137.700567 51.705221 
L 138.006803 52.109187 
L 138.330084 52.513142 
L 138.667155 52.917108 
L 139.018094 53.321063 
L 139.384722 53.725029 
L 139.766602 54.128985 
L 140.158393 54.53295 
L 140.548972 54.936906 
L 140.923759 55.340872 
L 141.271144 55.744827 
L 141.59057 56.148782 
L 141.895424 56.552737 
L 142.207062 56.956703 
L 142.544416 57.360659 
L 142.91868 57.764624 
L 143.33479 58.16858 
L 143.790762 58.572546 
L 144.26951 58.976501 
L 144.734384 59.380467 
L 145.141029 59.784433 
L 145.460902 60.188388 
L 145.697426 60.592343 
L 145.881854 60.996298 
L 146.052234 61.400275 
L 146.230996 61.80423 
L 146.417605 62.208185 
L 146.598626 62.612162 
L 146.761175 63.016117 
L 146.89588 63.420072 
L 146.991458 63.824028 
L 147.033587 64.227983 
L 147.012769 64.631959 
L 146.932905 65.035915 
L 146.810215 65.43987 
L 146.662449 65.843825 
L 146.49897 66.24778 
L 146.320555 66.651736 
L 146.12529 67.055691 
L 145.910146 67.459646 
L 145.666148 67.863623 
L 145.376689 68.267578 
L 145.026417 68.671533 
L 144.615259 69.07551 
L 144.164331 69.479465 
L 143.707198 69.88342 
L 143.272969 70.287376 
L 142.872672 70.691331 
L 142.49759 71.095307 
L 142.129448 71.499263 
L 141.753094 71.903218 
L 141.362108 72.307194 
L 140.956318 72.71115 
L 140.538708 73.115105 
L 140.116945 73.51906 
L 139.705092 73.923015 
L 139.319749 74.326992 
L 138.971953 74.730947 
L 138.660912 75.134902 
L 138.374205 75.538858 
L 138.094024 75.942813 
L 137.806493 76.346768 
L 137.508427 76.750724 
L 137.206761 77.154679 
L 136.912107 77.558655 
L 136.633009 77.962611 
L 136.374657 78.366566 
L 136.140359 78.770542 
L 135.931767 79.174498 
L 135.747218 79.578453 
L 135.581062 79.982408 
L 135.425484 80.386363 
L 135.27372 80.79034 
L 135.122787 81.194295 
L 134.974709 81.59825 
L 134.835784 82.002227 
L 134.71362 82.406182 
L 134.613281 82.810137 
L 134.535153 83.214093 
L 134.475492 83.618048 
L 134.428608 84.022024 
L 134.389033 84.42598 
L 134.352745 84.829935 
L 134.317247 85.23389 
L 134.280863 85.637846 
L 134.242407 86.041801 
L 134.201813 86.445756 
L 134.160856 86.849711 
L 134.122768 87.253688 
L 134.090834 87.657643 
L 134.066932 88.061598 
L 134.050697 88.465575 
L 134.039536 88.86953 
L 134.029684 89.273485 
L 134.018151 89.677441 
L 134.004491 90.081396 
L 133.991005 90.485372 
L 133.980985 90.889328 
L 133.976274 91.293283 
L 133.976098 91.697259 
L 133.977949 92.101215 
L 133.979486 92.50517 
L 133.979772 92.909125 
L 133.979129 93.31308 
L 133.978184 93.717057 
L 133.977067 94.121012 
L 133.975246 94.524967 
L 133.971983 94.928944 
L 133.967026 95.332899 
L 133.960992 95.736855 
L 133.955061 96.14081 
L 133.950237 96.544765 
L 133.94684 96.948742 
L 133.944629 97.352697 
L 133.943216 97.756652 
L 133.942331 98.160607 
L 133.94182 98.564563 
L 133.941564 98.968518 
L 133.941457 99.372473 
L 133.94142 99.776428 
L 133.941409 100.180405 
L 133.941407 100.58436 
L 133.941406 100.988315 
L 133.941406 101.392292 
L 133.941406 101.796247 
L 133.941406 102.200202 
L 133.941406 102.604158 
L 133.941406 103.008113 
L 133.941406 103.412089 
L 133.941406 103.816045 
L 133.941406 104.22 
z
" clip-path="url(#p61c5d4702e)" style="fill: #d94801; fill-opacity: 0.1; stroke: #d94801; stroke-opacity: 0.1"/>
   </g>
   <g id="matplotlib.axis_5">
    <g id="xtick_5">
     <g id="line2d_13">
      <g>
       <use xlink:href="#mdd790f3d52" x="133.941406" y="104.22" style="stroke: #000000; stroke-width: 1.5"/>
      </g>
     </g>
    </g>
    <g id="xtick_6">
     <g id="line2d_14">
      <g>
       <use xlink:href="#mdd790f3d52" x="141.089899" y="104.22" style="stroke: #000000; stroke-width: 1.5"/>
      </g>
     </g>
    </g>
   </g>
   <g id="matplotlib.axis_6">
    <g id="ytick_7">
     <g id="line2d_15">
      <g>
       <use xlink:href="#m34b3eb2dc8" x="133.941406" y="104.22" style="stroke: #000000; stroke-width: 1.5"/>
      </g>
     </g>
    </g>
    <g id="ytick_8">
     <g id="line2d_16">
      <g>
       <use xlink:href="#m34b3eb2dc8" x="133.941406" y="81.889999" style="stroke: #000000; stroke-width: 1.5"/>
      </g>
     </g>
    </g>
    <g id="ytick_9">
     <g id="line2d_17">
      <g>
       <use xlink:href="#m34b3eb2dc8" x="133.941406" y="59.559999" style="stroke: #000000; stroke-width: 1.5"/>
      </g>
     </g>
    </g>
    <g id="ytick_10">
     <g id="line2d_18">
      <g>
       <use xlink:href="#m34b3eb2dc8" x="133.941406" y="37.229998" style="stroke: #000000; stroke-width: 1.5"/>
      </g>
     </g>
    </g>
   </g>
   <g id="line2d_19">
    <path d="M 133.941407 104.22 
L 134.04367 89.677441 
L 134.320472 85.637846 
L 134.87247 82.810137 
L 135.324429 81.194295 
L 136.197333 79.174498 
L 136.971386 77.962611 
L 139.524478 74.730947 
L 145.117762 69.07551 
L 145.732564 67.863623 
L 146.44573 66.24778 
L 146.81494 65.43987 
L 146.962966 64.631959 
L 146.828539 63.420072 
L 146.430807 62.208185 
L 145.942145 61.400275 
L 143.669476 58.572546 
L 141.937695 56.956703 
L 139.74869 54.936906 
L 138.064355 52.917108 
L 136.994759 51.301266 
L 135.91653 49.281468 
L 135.14242 47.261671 
L 134.719373 45.645828 
L 134.292405 42.81811 
L 134.038251 39.182481 
L 133.946513 23.832 
L 133.946513 23.832 
" clip-path="url(#p61c5d4702e)" style="fill: none; stroke: #08519c; stroke-width: 1.5; stroke-linecap: square"/>
   </g>
   <g id="line2d_20">
    <path d="M 133.941406 104.22 
L 134.050697 88.465575 
L 134.242407 86.041801 
L 134.613281 82.810137 
L 135.122787 81.194295 
L 136.140359 78.770542 
L 136.912107 77.558655 
L 139.319749 74.326992 
L 143.707198 69.88342 
L 145.376689 68.267578 
L 146.12529 67.055691 
L 146.810215 65.43987 
L 147.012769 64.631959 
L 146.991458 63.824028 
L 146.598626 62.612162 
L 145.460902 60.188388 
L 144.734384 59.380467 
L 142.544416 57.360659 
L 139.384722 53.725029 
L 137.700567 51.705221 
L 136.398143 49.685424 
L 135.553897 48.069592 
L 135.207516 46.857705 
L 134.637698 44.433941 
L 134.353339 42.81811 
L 134.112831 39.586436 
L 133.963096 32.719122 
L 133.944999 23.832 
L 133.944999 23.832 
" clip-path="url(#p61c5d4702e)" style="fill: none; stroke: #d94801; stroke-width: 1.5; stroke-linecap: square"/>
   </g>
   <g id="patch_9">
    <path d="M 133.941406 104.22 
L 133.941406 23.832 
" style="fill: none; stroke: #000000; stroke-width: 1.5; stroke-linejoin: miter; stroke-linecap: square"/>
   </g>
   <g id="patch_10">
    <path d="M 133.941406 104.22 
L 147.891406 104.22 
" style="fill: none; stroke: #000000; stroke-width: 1.5; stroke-linejoin: miter; stroke-linecap: square"/>
   </g>
  </g>
 </g>
 <defs>
  <clipPath id="p82ebf6c39c">
   <rect x="50.241406" y="23.832" width="80.91" height="80.388"/>
  </clipPath>
  <clipPath id="pf8ebbdcf39">
   <rect x="50.241406" y="7.2" width="80.91" height="13.86"/>
  </clipPath>
  <clipPath id="p61c5d4702e">
   <rect x="133.941406" y="23.832" width="13.95" height="80.388"/>
  </clipPath>
 </defs>
</svg>
