<?xml version="1.0" encoding="utf-8" standalone="no"?>
<!DOCTYPE svg PUBLIC "-//W3C//DTD SVG 1.1//EN"
  "http://www.w3.org/Graphics/SVG/1.1/DTD/svg11.dtd">
<svg xmlns:xlink="http://www.w3.org/1999/xlink" width="150.086563pt" height="139.920781pt" viewBox="0 0 150.086563 139.920781" xmlns="http://www.w3.org/2000/svg" version="1.1">
 <metadata>
  <rdf:RDF xmlns:dc="http://purl.org/dc/elements/1.1/" xmlns:cc="http://creativecommons.org/ns#" xmlns:rdf="http://www.w3.org/1999/02/22-rdf-syntax-ns#">
   <cc:Work>
    <dc:type rdf:resource="http://purl.org/dc/dcmitype/StillImage"/>
    <dc:date>2023-01-20T17:45:39.210949</dc:date>
    <dc:format>image/svg+xml</dc:format>
    <dc:creator>
     <cc:Agent>
      <dc:title>Matplotlib v3.5.3, https://matplotlib.org/</dc:title>
     </cc:Agent>
    </dc:creator>
   </cc:Work>
  </rdf:RDF>
 </metadata>
 <defs>
  <style type="text/css">*{stroke-linejoin: round; stroke-linecap: butt}</style>
 </defs>
 <g id="figure_1">
  <g id="patch_1">
   <path d="M 0 139.920781 
L 150.086563 139.920781 
L 150.086563 0 
L 0 0 
L 0 139.920781 
z
" style="fill: none"/>
  </g>
  <g id="axes_1">
   <g id="patch_2">
    <path d="M 45.236562 104.22 
L 126.146563 104.22 
L 126.146563 23.832 
L 45.236562 23.832 
L 45.236562 104.22 
z
" style="fill: none"/>
   </g>
   <g id="PathCollection_1">
    <defs>
     <path id="m2ce8a0cce7" d="M 0 1.5 
C 0.397805 1.5 0.77937 1.341951 1.06066 1.06066 
C 1.341951 0.77937 1.5 0.397805 1.5 0 
C 1.5 -0.397805 1.341951 -0.77937 1.06066 -1.06066 
C 0.77937 -1.341951 0.397805 -1.5 0 -1.5 
C -0.397805 -1.5 -0.77937 -1.341951 -1.06066 -1.06066 
C -1.341951 -0.77937 -1.5 -0.397805 -1.5 0 
C -1.5 0.397805 -1.341951 0.77937 -1.06066 1.06066 
C -0.77937 1.341951 -0.397805 1.5 0 1.5 
z
" style="stroke: #08519c"/>
    </defs>
    <g clip-path="url(#p8f18cd961a)">
     <use xlink:href="#m2ce8a0cce7" x="86.380057" y="61.948268" style="fill: #08519c; stroke: #08519c"/>
    </g>
   </g>
   <g id="matplotlib.axis_1">
    <g id="xtick_1">
     <g id="line2d_1">
      <defs>
       <path id="mf08dc2a8cb" d="M 0 0 
L 0 3.5 
" style="stroke: #000000; stroke-width: 1.5"/>
      </defs>
      <g>
       <use xlink:href="#mf08dc2a8cb" x="57.684255" y="104.22" style="stroke: #000000; stroke-width: 1.5"/>
      </g>
     </g>
     <g id="text_1">
      <text style="font: 9px 'Arial'; text-anchor: middle" x="57.684255" y="117.662031" transform="rotate(-0, 57.684255, 117.662031)">0</text>
     </g>
    </g>
    <g id="xtick_2">
     <g id="line2d_2">
      <g>
       <use xlink:href="#mf08dc2a8cb" x="99.176563" y="104.22" style="stroke: #000000; stroke-width: 1.5"/>
      </g>
     </g>
     <g id="text_2">
      <text style="font: 9px 'Arial'; text-anchor: middle" x="99.176563" y="117.662031" transform="rotate(-0, 99.176563, 117.662031)">2</text>
     </g>
    </g>
    <g id="text_3">
     <!-- $\theta_1$ -->
     <g transform="translate(81.101562 130.020781)">
      <text>
       <tspan style="font: 9px 'Arial'" x="0" y="-0.453125">θ</tspan>
       <tspan style="font: 6.3px 'Arial'" x="5.162182" y="2.2350624999999997">1</tspan>
      </text>
     </g>
    </g>
   </g>
   <g id="matplotlib.axis_2">
    <g id="ytick_1">
     <g id="line2d_3">
      <defs>
       <path id="me2a55f076e" d="M 0 0 
L -3.5 0 
" style="stroke: #000000; stroke-width: 1.5"/>
      </defs>
      <g>
       <use xlink:href="#me2a55f076e" x="45.236562" y="93.501598" style="stroke: #000000; stroke-width: 1.5"/>
      </g>
     </g>
     <g id="text_4">
      <text style="font: 9px 'Arial'; text-anchor: end" x="38.236562" y="96.722613" transform="rotate(-0, 38.236562, 96.722613)">−2.0</text>
     </g>
    </g>
    <g id="ytick_2">
     <g id="line2d_4">
      <g>
       <use xlink:href="#me2a55f076e" x="45.236562" y="66.705599" style="stroke: #000000; stroke-width: 1.5"/>
      </g>
     </g>
     <g id="text_5">
      <text style="font: 9px 'Arial'; text-anchor: end" x="38.236562" y="69.926615" transform="rotate(-0, 38.236562, 69.926615)">−1.5</text>
     </g>
    </g>
    <g id="ytick_3">
     <g id="line2d_5">
      <g>
       <use xlink:href="#me2a55f076e" x="45.236562" y="39.9096" style="stroke: #000000; stroke-width: 1.5"/>
      </g>
     </g>
     <g id="text_6">
      <text style="font: 9px 'Arial'; text-anchor: end" x="38.236562" y="43.130616" transform="rotate(-0, 38.236562, 43.130616)">−1.0</text>
     </g>
    </g>
    <g id="text_7">
     <!-- $\theta_2$ -->
     <g transform="translate(13.77 68.616)rotate(-90)">
      <text>
       <tspan style="font: 9px 'Arial'" x="0" y="-0.453125">θ</tspan>
       <tspan style="font: 6.3px 'Arial'" x="5.162182" y="2.2350624999999997">2</tspan>
      </text>
     </g>
    </g>
   </g>
   <g id="PathCollection_2"/>
   <g id="PathCollection_3">
    <path d="M 68.791554 70.287378 
L 68.720239 69.883416 
L 68.661651 69.479461 
L 68.622914 69.075499 
L 68.610075 68.671538 
L 68.626138 68.267576 
L 68.669175 67.863621 
L 68.732053 67.459659 
L 68.805013 67.055698 
L 68.818371 66.982606 
L 68.877539 66.651736 
L 68.951878 66.247781 
L 69.035564 65.843819 
L 69.14023 65.439858 
L 69.224955 65.189134 
L 69.275132 65.035896 
L 69.442672 64.631941 
L 69.631538 64.251344 
L 69.64249 64.227979 
L 69.855911 63.824018 
L 70.038121 63.500432 
L 70.080705 63.420056 
L 70.303219 63.016101 
L 70.444703 62.764893 
L 70.527546 62.612139 
L 70.753643 62.208178 
L 70.851287 62.041153 
L 70.988377 61.804216 
L 71.24 61.400261 
L 71.25787 61.373214 
L 71.509401 60.996299 
L 71.664453 60.780396 
L 71.80206 60.592337 
L 72.071035 60.242979 
L 72.114129 60.188376 
L 72.438554 59.784421 
L 72.477618 59.735657 
L 72.770728 59.380459 
L 72.884202 59.241868 
L 73.109167 58.976504 
L 73.290785 58.758285 
L 73.452266 58.572542 
L 73.697367 58.281968 
L 73.798579 58.168587 
L 74.10395 57.812495 
L 74.148088 57.764625 
L 74.505652 57.360664 
L 74.510534 57.354968 
L 74.884504 56.956702 
L 74.917117 56.922168 
L 75.302805 56.552747 
L 75.323699 56.533543 
L 75.730282 56.194671 
L 75.791315 56.148785 
L 76.136865 55.906156 
L 76.394679 55.744824 
L 76.543449 55.659541 
L 76.950031 55.449699 
L 77.185929 55.340862 
L 77.356614 55.267881 
L 77.763197 55.108157 
L 78.169781 54.961706 
L 78.241134 54.936907 
L 78.576364 54.823052 
L 78.982947 54.687272 
L 79.389528 54.55181 
L 79.445319 54.532945 
L 79.796111 54.413469 
L 80.202694 54.27709 
L 80.609278 54.147328 
L 80.671898 54.128984 
L 81.015861 54.031307 
L 81.422444 53.935698 
L 81.829028 53.865057 
L 82.235611 53.822903 
L 82.642192 53.811318 
L 83.048775 53.830741 
L 83.455358 53.879893 
L 83.861941 53.955888 
L 84.268525 54.054596 
L 84.52692 54.128984 
L 84.675108 54.169921 
L 85.081691 54.293993 
L 85.488275 54.425216 
L 85.806922 54.532945 
L 85.894855 54.560815 
L 86.301439 54.696208 
L 86.708022 54.837468 
L 86.980507 54.936907 
L 87.114605 54.98363 
L 87.521184 55.131594 
L 87.927767 55.282647 
L 88.083662 55.340862 
L 88.33435 55.430244 
L 88.740933 55.570822 
L 89.147514 55.703319 
L 89.283009 55.744824 
L 89.554097 55.823929 
L 89.960681 55.935304 
L 90.367264 56.041315 
L 90.773847 56.145297 
L 90.787388 56.148785 
L 91.180431 56.246965 
L 91.587014 56.35185 
L 91.993597 56.460869 
L 92.326259 56.552747 
L 92.400178 56.571773 
L 92.806761 56.675702 
L 93.213344 56.775767 
L 93.619928 56.869481 
L 94.026511 56.955245 
L 94.034124 56.956702 
L 94.433094 57.024434 
L 94.839678 57.086231 
L 95.246261 57.142127 
L 95.652842 57.193848 
L 96.059425 57.243386 
L 96.466008 57.292964 
L 96.872591 57.345044 
L 96.985933 57.360664 
L 97.279175 57.399465 
L 97.685758 57.460545 
L 98.092341 57.532107 
L 98.498925 57.61668 
L 98.905505 57.716319 
L 99.079478 57.764625 
L 99.312091 57.827307 
L 99.718674 57.949004 
L 100.125258 58.083917 
L 100.363442 58.168587 
L 100.531836 58.225276 
L 100.938419 58.368171 
L 101.345003 58.519828 
L 101.481567 58.572542 
L 101.751586 58.671618 
L 102.158169 58.828356 
L 102.519268 58.976504 
L 102.564752 58.994562 
L 102.971336 59.160156 
L 103.377914 59.334783 
L 103.482748 59.380459 
L 103.784502 59.506995 
L 104.191085 59.678967 
L 104.441496 59.784421 
L 104.597669 59.847868 
L 105.004252 60.010619 
L 105.410835 60.175212 
L 105.443588 60.188376 
L 105.817419 60.339921 
L 106.224002 60.513324 
L 106.401342 60.592337 
L 106.63058 60.701046 
L 107.037163 60.905915 
L 107.206922 60.996299 
L 107.443747 61.133873 
L 107.85033 61.381981 
L 107.879442 61.400261 
L 108.256913 61.656935 
L 108.466913 61.804216 
L 108.663497 61.954112 
L 108.988069 62.208178 
L 109.07008 62.279442 
L 109.440414 62.612139 
L 109.476663 62.649971 
L 109.813522 63.016101 
L 109.883246 63.110561 
L 110.103476 63.420056 
L 110.28983 63.777542 
L 110.313684 63.824018 
L 110.452418 64.227979 
L 110.530462 64.631941 
L 110.558795 65.035896 
L 110.546125 65.439858 
L 110.49703 65.843819 
L 110.411949 66.247781 
L 110.28983 66.647419 
L 110.28855 66.651736 
L 110.129799 67.055698 
L 109.926009 67.459659 
L 109.883246 67.528051 
L 109.682356 67.863621 
L 109.476663 68.148925 
L 109.395017 68.267576 
L 109.07008 68.668537 
L 109.067748 68.671538 
L 108.702897 69.075499 
L 108.663497 69.113671 
L 108.290858 69.479461 
L 108.256913 69.508767 
L 107.85033 69.855318 
L 107.816593 69.883416 
L 107.443747 70.156011 
L 107.253092 70.287378 
L 107.037163 70.421292 
L 106.63058 70.654141 
L 106.561384 70.691339 
L 106.224002 70.861072 
L 105.817419 71.048501 
L 105.710583 71.095301 
L 105.410835 71.225037 
L 105.004252 71.392833 
L 104.739061 71.499256 
L 104.597669 71.558046 
L 104.191085 71.726428 
L 103.784502 71.891828 
L 103.756733 71.903218 
L 103.377914 72.065699 
L 102.971336 72.233804 
L 102.788328 72.30718 
L 102.564752 72.398791 
L 102.158169 72.556726 
L 101.751586 72.702816 
L 101.727437 72.711141 
L 101.345003 72.844165 
L 100.938419 72.977013 
L 100.531836 73.103487 
L 100.4939 73.115096 
L 100.125258 73.231543 
L 99.718674 73.358344 
L 99.312091 73.484218 
L 99.199302 73.519058 
L 98.905505 73.612967 
L 98.498925 73.740367 
L 98.092341 73.86289 
L 97.882744 73.92302 
L 97.685758 73.979646 
L 97.279175 74.088282 
L 96.872591 74.186519 
L 96.466008 74.274306 
L 96.193443 74.326981 
L 96.059425 74.35292 
L 95.652842 74.424277 
L 95.246261 74.488359 
L 94.839678 74.546675 
L 94.433094 74.600802 
L 94.026511 74.652326 
L 93.619928 74.702734 
L 93.394628 74.730936 
L 93.213344 74.755328 
L 92.806761 74.811915 
L 92.400178 74.870333 
L 91.993597 74.930281 
L 91.587014 74.990989 
L 91.180431 75.051438 
L 90.773847 75.110629 
L 90.603577 75.134898 
L 90.367264 75.171707 
L 89.960681 75.232875 
L 89.554097 75.291222 
L 89.147514 75.347055 
L 88.740933 75.400797 
L 88.33435 75.452783 
L 87.927767 75.503079 
L 87.627128 75.538853 
L 87.521184 75.552991 
L 87.114605 75.604277 
L 86.708022 75.650981 
L 86.301439 75.691634 
L 85.894855 75.724756 
L 85.488275 75.749079 
L 85.081691 75.763737 
L 84.675108 75.768422 
L 84.268525 75.763458 
L 83.861941 75.749807 
L 83.455358 75.72901 
L 83.048775 75.703065 
L 82.642192 75.674262 
L 82.235611 75.64498 
L 81.829028 75.617458 
L 81.422444 75.593554 
L 81.015861 75.574552 
L 80.609278 75.561034 
L 80.202694 75.552884 
L 79.796111 75.549379 
L 79.389528 75.549359 
L 78.982947 75.551398 
L 78.576364 75.55394 
L 78.169781 75.555404 
L 77.763197 75.554239 
L 77.356614 75.548985 
L 76.969233 75.538853 
L 76.950031 75.538355 
L 76.543449 75.521816 
L 76.136865 75.498298 
L 75.730282 75.467393 
L 75.323699 75.428945 
L 74.917117 75.382898 
L 74.510534 75.329085 
L 74.10395 75.267009 
L 73.697367 75.195663 
L 73.393665 75.134898 
L 73.290785 75.113513 
L 72.884202 75.017943 
L 72.477618 74.905531 
L 72.071035 74.77324 
L 71.95472 74.730936 
L 71.664453 74.612934 
L 71.25787 74.424376 
L 71.06758 74.326981 
L 70.851287 74.198429 
L 70.444703 73.933745 
L 70.429029 73.92302 
L 70.038121 73.596877 
L 69.951016 73.519058 
L 69.631538 73.145323 
L 69.60736 73.115096 
L 69.371306 72.711141 
L 69.224955 72.332629 
L 69.215737 72.30718 
L 69.106695 71.903218 
L 69.02148 71.499256 
L 68.943924 71.095301 
L 68.86738 70.691339 
L 68.818371 70.432964 
L 68.791554 70.287378 
z
" clip-path="url(#p8f18cd961a)" style="fill: none; stroke: #08519c; stroke-opacity: 0.111111; stroke-width: 1.5"/>
   </g>
   <g id="PathCollection_4">
    <path d="M 73.616518 69.075499 
L 73.558903 68.671538 
L 73.571831 68.267576 
L 73.643198 67.863621 
L 73.697367 67.672947 
L 73.756261 67.459659 
L 73.892928 67.055698 
L 74.036459 66.651736 
L 74.10395 66.447252 
L 74.167806 66.247781 
L 74.276098 65.843819 
L 74.363406 65.439858 
L 74.440864 65.035896 
L 74.510534 64.707242 
L 74.526099 64.631941 
L 74.636062 64.227979 
L 74.788082 63.824018 
L 74.917117 63.56285 
L 74.988893 63.420056 
L 75.236248 63.016101 
L 75.323699 62.890164 
L 75.522941 62.612139 
L 75.730282 62.34473 
L 75.839977 62.208178 
L 76.136865 61.857992 
L 76.184264 61.804216 
L 76.543449 61.420636 
L 76.563385 61.400261 
L 76.950031 61.034311 
L 76.992152 60.996299 
L 77.356614 60.692234 
L 77.481879 60.592337 
L 77.763197 60.381 
L 78.028929 60.188376 
L 78.169781 60.089616 
L 78.576364 59.811475 
L 78.616571 59.784421 
L 78.982947 59.542417 
L 79.238791 59.380459 
L 79.389528 59.287164 
L 79.796111 59.050792 
L 79.935083 58.976504 
L 80.202694 58.838327 
L 80.609278 58.654035 
L 80.818518 58.572542 
L 81.015861 58.497091 
L 81.422444 58.366295 
L 81.829028 58.262373 
L 82.235611 58.183137 
L 82.336297 58.168587 
L 82.642192 58.122312 
L 83.048775 58.081009 
L 83.455358 58.058161 
L 83.861941 58.051456 
L 84.268525 58.058637 
L 84.675108 58.077628 
L 85.081691 58.106652 
L 85.488275 58.144293 
L 85.706142 58.168587 
L 85.894855 58.187449 
L 86.301439 58.234521 
L 86.708022 58.287484 
L 87.114605 58.345893 
L 87.521184 58.409182 
L 87.927767 58.476599 
L 88.33435 58.547204 
L 88.476788 58.572542 
L 88.740933 58.616654 
L 89.147514 58.684626 
L 89.554097 58.751669 
L 89.960681 58.816929 
L 90.367264 58.879811 
L 90.773847 58.939972 
L 91.032272 58.976504 
L 91.180431 58.995572 
L 91.587014 59.045698 
L 91.993597 59.094065 
L 92.400178 59.141613 
L 92.806761 59.189506 
L 93.213344 59.239085 
L 93.619928 59.291776 
L 94.026511 59.348977 
L 94.232262 59.380459 
L 94.433094 59.410688 
L 94.839678 59.477832 
L 95.246261 59.552188 
L 95.652842 59.633862 
L 96.059425 59.722744 
L 96.323324 59.784421 
L 96.466008 59.817751 
L 96.872591 59.917899 
L 97.279175 60.025225 
L 97.685758 60.140378 
L 97.845613 60.188376 
L 98.092341 60.262717 
L 98.498925 60.393482 
L 98.905505 60.534216 
L 99.064115 60.592337 
L 99.312091 60.68403 
L 99.718674 60.842871 
L 100.089964 60.996299 
L 100.125258 61.011046 
L 100.531836 61.186366 
L 100.938419 61.369933 
L 101.00384 61.400261 
L 101.345003 61.563892 
L 101.751586 61.768273 
L 101.820958 61.804216 
L 102.158169 61.995706 
L 102.509997 62.208178 
L 102.564752 62.24651 
L 102.971336 62.545776 
L 103.056893 62.612139 
L 103.377914 62.911385 
L 103.485411 63.016101 
L 103.784502 63.362683 
L 103.83267 63.420056 
L 104.127445 63.824018 
L 104.191085 63.924055 
L 104.38141 64.227979 
L 104.589591 64.631941 
L 104.597669 64.652465 
L 104.748131 65.035896 
L 104.845478 65.439858 
L 104.878807 65.843819 
L 104.84782 66.247781 
L 104.753003 66.651736 
L 104.597669 67.049615 
L 104.595272 67.055698 
L 104.381038 67.459659 
L 104.191085 67.742924 
L 104.107014 67.863621 
L 103.784502 68.250726 
L 103.769715 68.267576 
L 103.377914 68.649441 
L 103.3538 68.671538 
L 102.971336 68.974585 
L 102.835788 69.075499 
L 102.564752 69.252829 
L 102.199765 69.479461 
L 102.158169 69.502725 
L 101.751586 69.725032 
L 101.449443 69.883416 
L 101.345003 69.93435 
L 100.938419 70.126386 
L 100.577853 70.287378 
L 100.531836 70.306789 
L 100.125258 70.469862 
L 99.718674 70.621072 
L 99.516827 70.691339 
L 99.312091 70.75981 
L 98.905505 70.889027 
L 98.498925 71.012782 
L 98.223246 71.095301 
L 98.092341 71.134174 
L 97.685758 71.256757 
L 97.279175 71.381205 
L 96.899374 71.499256 
L 96.872591 71.507685 
L 96.466008 71.639016 
L 96.059425 71.768924 
L 95.652842 71.894699 
L 95.624835 71.903218 
L 95.246261 72.019195 
L 94.839678 72.135908 
L 94.433094 72.243935 
L 94.17905 72.30718 
L 94.026511 72.345557 
L 93.619928 72.442697 
L 93.213344 72.533506 
L 92.806761 72.619471 
L 92.400178 72.702019 
L 92.354678 72.711141 
L 91.993597 72.785245 
L 91.587014 72.866596 
L 91.180431 72.946061 
L 90.773847 73.023702 
L 90.367264 73.099249 
L 90.279348 73.115096 
L 89.960681 73.173448 
L 89.554097 73.243815 
L 89.147514 73.309218 
L 88.740933 73.368985 
L 88.33435 73.422454 
L 87.927767 73.468939 
L 87.521184 73.507692 
L 87.367465 73.519058 
L 87.114605 73.538357 
L 86.708022 73.559571 
L 86.301439 73.570106 
L 85.894855 73.569087 
L 85.488275 73.555855 
L 85.081691 73.530165 
L 84.960292 73.519058 
L 84.675108 73.493373 
L 84.268525 73.446849 
L 83.861941 73.392373 
L 83.455358 73.332677 
L 83.048775 73.270728 
L 82.642192 73.209302 
L 82.235611 73.150576 
L 81.971091 73.115096 
L 81.829028 73.097118 
L 81.422444 73.050056 
L 81.015861 73.006277 
L 80.609278 72.964239 
L 80.202694 72.921873 
L 79.796111 72.876776 
L 79.389528 72.826387 
L 78.982947 72.768119 
L 78.643263 72.711141 
L 78.576364 72.699798 
L 78.169781 72.620631 
L 77.763197 72.526091 
L 77.356614 72.413208 
L 77.032454 72.30718 
L 76.950031 72.278375 
L 76.543449 72.11701 
L 76.136865 71.923974 
L 76.097539 71.903218 
L 75.730282 71.687329 
L 75.451231 71.499256 
L 75.323699 71.401509 
L 74.959105 71.095301 
L 74.917117 71.054784 
L 74.560685 70.691339 
L 74.510534 70.631997 
L 74.228345 70.287378 
L 74.10395 70.104809 
L 73.956221 69.883416 
L 73.750037 69.479461 
L 73.697367 69.321504 
L 73.616518 69.075499 
z
" clip-path="url(#p8f18cd961a)" style="fill: none; stroke: #08519c; stroke-opacity: 0.333333; stroke-width: 1.5"/>
   </g>
   <g id="PathCollection_5">
    <path d="M 77.595378 68.671538 
L 77.474207 68.267576 
L 77.441583 67.863621 
L 77.483665 67.459659 
L 77.579174 67.055698 
L 77.703377 66.651736 
L 77.763197 66.464556 
L 77.833506 66.247781 
L 77.954769 65.843819 
L 78.066918 65.439858 
L 78.169781 65.087236 
L 78.185107 65.035896 
L 78.333163 64.631941 
L 78.533715 64.227979 
L 78.576364 64.161353 
L 78.793089 63.824018 
L 78.982947 63.579696 
L 79.106428 63.420056 
L 79.389528 63.096534 
L 79.45986 63.016101 
L 79.796111 62.663043 
L 79.845235 62.612139 
L 80.202694 62.268123 
L 80.267006 62.208178 
L 80.609278 61.912075 
L 80.740562 61.804216 
L 81.015861 61.593911 
L 81.288408 61.400261 
L 81.422444 61.311128 
L 81.829028 61.064126 
L 81.954553 60.996299 
L 82.235611 60.85377 
L 82.642192 60.678082 
L 82.883479 60.592337 
L 83.048775 60.53766 
L 83.455358 60.431343 
L 83.861941 60.353708 
L 84.268525 60.302269 
L 84.675108 60.27423 
L 85.081691 60.266525 
L 85.488275 60.275828 
L 85.894855 60.298579 
L 86.301439 60.331109 
L 86.708022 60.369843 
L 87.114605 60.411564 
L 87.521184 60.453652 
L 87.927767 60.49424 
L 88.33435 60.532266 
L 88.740933 60.56743 
L 89.049618 60.592337 
L 89.147514 60.599853 
L 89.554097 60.630131 
L 89.960681 60.660295 
L 90.367264 60.691733 
L 90.773847 60.7259 
L 91.180431 60.76424 
L 91.587014 60.808137 
L 91.993597 60.858877 
L 92.400178 60.917599 
L 92.806761 60.985234 
L 92.866 60.996299 
L 93.213344 61.064302 
L 93.619928 61.153503 
L 94.026511 61.25205 
L 94.433094 61.359175 
L 94.580239 61.400261 
L 94.839678 61.475775 
L 95.246261 61.600051 
L 95.652842 61.730575 
L 95.873419 61.804216 
L 96.059425 61.869398 
L 96.466008 62.017791 
L 96.872591 62.174319 
L 96.957524 62.208178 
L 97.279175 62.346538 
L 97.685758 62.530906 
L 97.858088 62.612139 
L 98.092341 62.735023 
L 98.498925 62.958563 
L 98.59984 63.016101 
L 98.905505 63.216354 
L 99.20019 63.420056 
L 99.312091 63.510659 
L 99.679934 63.824018 
L 99.718674 63.862901 
L 100.067856 64.227979 
L 100.125258 64.298844 
L 100.38778 64.631941 
L 100.531836 64.855217 
L 100.64608 65.035896 
L 100.829276 65.439858 
L 100.915776 65.843819 
L 100.884729 66.247781 
L 100.726288 66.651736 
L 100.531836 66.929409 
L 100.439019 67.055698 
L 100.125258 67.362982 
L 100.021203 67.459659 
L 99.718674 67.68941 
L 99.477241 67.863621 
L 99.312091 67.968416 
L 98.905505 68.215697 
L 98.818032 68.267576 
L 98.498925 68.440321 
L 98.092341 68.6547 
L 98.060527 68.671538 
L 97.685758 68.855281 
L 97.279175 69.053705 
L 97.235616 69.075499 
L 96.872591 69.245086 
L 96.466008 69.437515 
L 96.37993 69.479461 
L 96.059425 69.626212 
L 95.652842 69.814121 
L 95.504194 69.883416 
L 95.246261 69.996806 
L 94.839678 70.172189 
L 94.562926 70.287378 
L 94.433094 70.338611 
L 94.026511 70.490785 
L 93.619928 70.630678 
L 93.427502 70.691339 
L 93.213344 70.756351 
L 92.806761 70.867891 
L 92.400178 70.967665 
L 91.993597 71.057257 
L 91.80296 71.095301 
L 91.587014 71.13836 
L 91.180431 71.213039 
L 90.773847 71.283407 
L 90.367264 71.351128 
L 89.960681 71.417316 
L 89.554097 71.482345 
L 89.444818 71.499256 
L 89.147514 71.54574 
L 88.740933 71.605993 
L 88.33435 71.661124 
L 87.927767 71.708861 
L 87.521184 71.746973 
L 87.114605 71.773608 
L 86.708022 71.78756 
L 86.301439 71.788393 
L 85.894855 71.776448 
L 85.488275 71.752725 
L 85.081691 71.718684 
L 84.675108 71.676022 
L 84.268525 71.626438 
L 83.861941 71.571441 
L 83.455358 71.512193 
L 83.371026 71.499256 
L 83.048775 71.449215 
L 82.642192 71.381971 
L 82.235611 71.309786 
L 81.829028 71.231545 
L 81.422444 71.145731 
L 81.203038 71.095301 
L 81.015861 71.047065 
L 80.609278 70.930686 
L 80.202694 70.79741 
L 79.915485 70.691339 
L 79.796111 70.639024 
L 79.389528 70.441837 
L 79.106828 70.287378 
L 78.982947 70.205616 
L 78.576364 69.91068 
L 78.541631 69.883416 
L 78.169781 69.528196 
L 78.122596 69.479461 
L 77.810494 69.075499 
L 77.763197 68.991354 
L 77.595378 68.671538 
z
" clip-path="url(#p8f18cd961a)" style="fill: none; stroke: #08519c; stroke-opacity: 0.555556; stroke-width: 1.5"/>
   </g>
   <g id="PathCollection_6">
    <path d="M 81.403164 67.863621 
L 81.30102 67.459659 
L 81.27401 67.055698 
L 81.300813 66.651736 
L 81.360982 66.247781 
L 81.422444 65.943624 
L 81.441947 65.843819 
L 81.542644 65.439858 
L 81.673288 65.035896 
L 81.829028 64.682176 
L 81.851733 64.631941 
L 82.10002 64.227979 
L 82.235611 64.059269 
L 82.43826 63.824018 
L 82.642192 63.632407 
L 82.893062 63.420056 
L 83.048775 63.307338 
L 83.455358 63.051977 
L 83.521714 63.016101 
L 83.861941 62.852049 
L 84.268525 62.69346 
L 84.528002 62.612139 
L 84.675108 62.569282 
L 85.081691 62.474566 
L 85.488275 62.402386 
L 85.894855 62.348082 
L 86.301439 62.307924 
L 86.708022 62.279152 
L 87.114605 62.259904 
L 87.521184 62.249072 
L 87.927767 62.246136 
L 88.33435 62.250992 
L 88.740933 62.263813 
L 89.147514 62.284929 
L 89.554097 62.314758 
L 89.960681 62.353751 
L 90.367264 62.402376 
L 90.773847 62.461096 
L 91.180431 62.530354 
L 91.587014 62.610524 
L 91.594351 62.612139 
L 91.993597 62.705177 
L 92.400178 62.811149 
L 92.806761 62.928276 
L 93.087451 63.016101 
L 93.213344 63.058504 
L 93.619928 63.20474 
L 94.026511 63.36205 
L 94.167861 63.420056 
L 94.433094 63.541797 
L 94.839678 63.742114 
L 94.994827 63.824018 
L 95.246261 63.980963 
L 95.611547 64.227979 
L 95.652842 64.263409 
L 96.054639 64.631941 
L 96.059425 64.638143 
L 96.352866 65.035896 
L 96.466008 65.304779 
L 96.521848 65.439858 
L 96.560765 65.843819 
L 96.466008 66.244745 
L 96.46528 66.247781 
L 96.23244 66.651736 
L 96.059425 66.845426 
L 95.867517 67.055698 
L 95.652842 67.237661 
L 95.385025 67.459659 
L 95.246261 67.558046 
L 94.839678 67.840948 
L 94.806215 67.863621 
L 94.433094 68.09373 
L 94.144858 68.267576 
L 94.026511 68.333806 
L 93.619928 68.552608 
L 93.387133 68.671538 
L 93.213344 68.752817 
L 92.806761 68.92832 
L 92.429009 69.075499 
L 92.400178 69.085564 
L 91.993597 69.211013 
L 91.587014 69.319851 
L 91.180431 69.413526 
L 90.849205 69.479461 
L 90.773847 69.493063 
L 90.367264 69.558046 
L 89.960681 69.6168 
L 89.554097 69.671328 
L 89.147514 69.723109 
L 88.740933 69.772972 
L 88.33435 69.821024 
L 87.927767 69.866625 
L 87.763345 69.883416 
L 87.521184 69.906762 
L 87.114605 69.940065 
L 86.708022 69.965355 
L 86.301439 69.980378 
L 85.894855 69.983064 
L 85.488275 69.971635 
L 85.081691 69.9446 
L 84.675108 69.900642 
L 84.561615 69.883416 
L 84.268525 69.8322 
L 83.861941 69.737986 
L 83.455358 69.618117 
L 83.073087 69.479461 
L 83.048775 69.46839 
L 82.642192 69.252131 
L 82.357403 69.075499 
L 82.235611 68.975262 
L 81.902163 68.671538 
L 81.829028 68.578864 
L 81.597791 68.267576 
L 81.422444 67.905124 
L 81.403164 67.863621 
z
" clip-path="url(#p8f18cd961a)" style="fill: none; stroke: #08519c; stroke-opacity: 0.666667; stroke-width: 1.5"/>
   </g>
   <g id="PathCollection_7">
    <path d="M 85.707758 66.247781 
L 85.706201 65.843819 
L 85.870159 65.439858 
L 85.894855 65.409508 
L 86.261447 65.035896 
L 86.301439 65.01011 
L 86.708022 64.798654 
L 87.114605 64.637612 
L 87.134165 64.631941 
L 87.521184 64.554258 
L 87.927767 64.50176 
L 88.33435 64.47648 
L 88.740933 64.476695 
L 89.147514 64.50112 
L 89.554097 64.549103 
L 89.960681 64.620713 
L 90.007536 64.631941 
L 90.367264 64.746524 
L 90.773847 64.912108 
L 91.02125 65.035896 
L 91.180431 65.167307 
L 91.45368 65.439858 
L 91.568366 65.843819 
L 91.407766 66.247781 
L 91.180431 66.46971 
L 90.97158 66.651736 
L 90.773847 66.761532 
L 90.367264 66.953415 
L 90.103186 67.055698 
L 89.960681 67.097746 
L 89.554097 67.189977 
L 89.147514 67.256481 
L 88.740933 67.298782 
L 88.33435 67.317682 
L 87.927767 67.312888 
L 87.521184 67.282578 
L 87.114605 67.222836 
L 86.708022 67.126881 
L 86.497328 67.055698 
L 86.301439 66.949815 
L 85.904085 66.651736 
L 85.894855 66.636398 
L 85.707758 66.247781 
z
" clip-path="url(#p8f18cd961a)" style="fill: none; stroke: #08519c; stroke-opacity: 0.888889; stroke-width: 1.5"/>
   </g>
   <g id="PathCollection_8"/>
   <g id="PathCollection_9"/>
   <g id="PathCollection_10">
    <path d="M 67.968654 71.095301 
L 67.918375 70.691339 
L 67.878554 70.287378 
L 67.863476 69.883416 
L 67.8834 69.479461 
L 67.941908 69.075499 
L 68.005206 68.804248 
L 68.035993 68.671538 
L 68.159678 68.267576 
L 68.315385 67.863621 
L 68.411789 67.65249 
L 68.501962 67.459659 
L 68.719893 67.055698 
L 68.818371 66.889055 
L 68.960404 66.651736 
L 69.206451 66.247781 
L 69.224955 66.215155 
L 69.425143 65.843819 
L 69.611833 65.439858 
L 69.631538 65.389471 
L 69.75689 65.035896 
L 69.88337 64.631941 
L 70.010398 64.227979 
L 70.038121 64.149872 
L 70.147632 63.824018 
L 70.313523 63.420056 
L 70.444703 63.153902 
L 70.512242 63.016101 
L 70.736318 62.612139 
L 70.851287 62.416542 
L 70.974666 62.208178 
L 71.211705 61.804216 
L 71.25787 61.720082 
L 71.433498 61.400261 
L 71.642335 60.996299 
L 71.664453 60.950316 
L 71.839013 60.592337 
L 72.040604 60.188376 
L 72.071035 60.130442 
L 72.263031 59.784421 
L 72.477618 59.460553 
L 72.535482 59.380459 
L 72.884202 58.982746 
L 72.890318 58.976504 
L 73.290785 58.625573 
L 73.35852 58.572542 
L 73.697367 58.327776 
L 73.936227 58.168587 
L 74.10395 58.057395 
L 74.510534 57.793607 
L 74.554774 57.764625 
L 74.917117 57.509076 
L 75.119717 57.360664 
L 75.323699 57.194821 
L 75.601371 56.956702 
L 75.730282 56.832896 
L 76.008655 56.552747 
L 76.136865 56.410096 
L 76.366301 56.148785 
L 76.543449 55.935806 
L 76.704954 55.744824 
L 76.950031 55.463431 
L 77.065092 55.340862 
L 77.356614 55.064209 
L 77.51308 54.936907 
L 77.763197 54.762466 
L 78.169781 54.542321 
L 78.191885 54.532945 
L 78.576364 54.389372 
L 78.982947 54.283019 
L 79.389528 54.212021 
L 79.796111 54.167777 
L 80.202694 54.14368 
L 80.609278 54.134905 
L 81.015861 54.138224 
L 81.422444 54.151828 
L 81.829028 54.17516 
L 82.235611 54.208759 
L 82.642192 54.254129 
L 83.048775 54.313603 
L 83.455358 54.390129 
L 83.861941 54.486929 
L 84.020942 54.532945 
L 84.268525 54.604124 
L 84.675108 54.744293 
L 85.081691 54.909114 
L 85.143786 54.936907 
L 85.488275 55.087215 
L 85.894855 55.276615 
L 86.028816 55.340862 
L 86.301439 55.459486 
L 86.708022 55.634893 
L 86.96641 55.744824 
L 87.114605 55.799056 
L 87.521184 55.945865 
L 87.927767 56.090796 
L 88.090706 56.148785 
L 88.33435 56.223271 
L 88.740933 56.347445 
L 89.147514 56.4703 
L 89.426639 56.552747 
L 89.554097 56.586128 
L 89.960681 56.689123 
L 90.367264 56.787328 
L 90.773847 56.879742 
L 91.136951 56.956702 
L 91.180431 56.965249 
L 91.587014 57.039566 
L 91.993597 57.109905 
L 92.400178 57.177693 
L 92.806761 57.244741 
L 93.213344 57.313041 
L 93.486095 57.360664 
L 93.619928 57.383136 
L 94.026511 57.455022 
L 94.433094 57.532688 
L 94.839678 57.61687 
L 95.246261 57.707835 
L 95.485843 57.764625 
L 95.652842 57.802785 
L 96.059425 57.899268 
L 96.466008 57.999682 
L 96.872591 58.102832 
L 97.129699 58.168587 
L 97.279175 58.20507 
L 97.685758 58.303981 
L 98.092341 58.404151 
L 98.498925 58.506685 
L 98.752146 58.572542 
L 98.905505 58.611487 
L 99.312091 58.71989 
L 99.718674 58.838022 
L 100.125258 58.968456 
L 100.148865 58.976504 
L 100.531836 59.107662 
L 100.938419 59.260305 
L 101.236842 59.380459 
L 101.345003 59.424193 
L 101.751586 59.592793 
L 102.158169 59.768033 
L 102.196681 59.784421 
L 102.564752 59.939859 
L 102.971336 60.111761 
L 103.15594 60.188376 
L 103.377914 60.280202 
L 103.784502 60.446079 
L 104.139877 60.592337 
L 104.191085 60.613629 
L 104.597669 60.782509 
L 105.004252 60.959746 
L 105.085163 60.996299 
L 105.410835 61.146388 
L 105.817419 61.346438 
L 105.921373 61.400261 
L 106.224002 61.559024 
L 106.63058 61.786098 
L 106.661781 61.804216 
L 107.037163 62.023382 
L 107.336008 62.208178 
L 107.443747 62.275908 
L 107.85033 62.545674 
L 107.945432 62.612139 
L 108.256913 62.844528 
L 108.472376 63.016101 
L 108.663497 63.187963 
L 108.908565 63.420056 
L 109.07008 63.603106 
L 109.260173 63.824018 
L 109.476663 64.141085 
L 109.536109 64.227979 
L 109.742114 64.631941 
L 109.873755 65.035896 
L 109.883246 65.10675 
L 109.928134 65.439858 
L 109.904527 65.843819 
L 109.883246 65.934196 
L 109.809571 66.247781 
L 109.655826 66.651736 
L 109.476663 67.019989 
L 109.459761 67.055698 
L 109.239295 67.459659 
L 109.07008 67.749687 
L 109.007235 67.863621 
L 108.768926 68.267576 
L 108.663497 68.430687 
L 108.514252 68.671538 
L 108.256913 69.025555 
L 108.221122 69.075499 
L 107.863687 69.479461 
L 107.85033 69.491892 
L 107.443747 69.854285 
L 107.409083 69.883416 
L 107.037163 70.149117 
L 106.826139 70.287378 
L 106.63058 70.403863 
L 106.224002 70.627076 
L 106.097911 70.691339 
L 105.817419 70.831627 
L 105.410835 71.020361 
L 105.239914 71.095301 
L 105.004252 71.202454 
L 104.597669 71.378667 
L 104.308436 71.499256 
L 104.191085 71.551067 
L 103.784502 71.727347 
L 103.377914 71.897972 
L 103.365564 71.903218 
L 102.971336 72.078009 
L 102.564752 72.252658 
L 102.437823 72.30718 
L 102.158169 72.431612 
L 101.751586 72.609142 
L 101.514678 72.711141 
L 101.345003 72.787065 
L 100.938419 72.968273 
L 100.601153 73.115096 
L 100.531836 73.146468 
L 100.125258 73.330164 
L 99.718674 73.506297 
L 99.688694 73.519058 
L 99.312091 73.682074 
L 98.905505 73.846404 
L 98.703995 73.92302 
L 98.498925 74.000266 
L 98.092341 74.143079 
L 97.685758 74.273133 
L 97.506527 74.326981 
L 97.279175 74.394751 
L 96.872591 74.509501 
L 96.466008 74.616903 
L 96.059425 74.717926 
L 96.005702 74.730936 
L 95.652842 74.819129 
L 95.246261 74.915548 
L 94.839678 75.005965 
L 94.433094 75.090232 
L 94.204088 75.134898 
L 94.026511 75.172365 
L 93.619928 75.253765 
L 93.213344 75.330276 
L 92.806761 75.402908 
L 92.400178 75.472691 
L 92.003764 75.538853 
L 91.993597 75.540764 
L 91.587014 75.616356 
L 91.180431 75.690542 
L 90.773847 75.763391 
L 90.367264 75.834766 
L 89.960681 75.904363 
L 89.729256 75.942815 
L 89.554097 75.974828 
L 89.147514 76.045528 
L 88.740933 76.111493 
L 88.33435 76.172247 
L 87.927767 76.227393 
L 87.521184 76.276641 
L 87.114605 76.319822 
L 86.819737 76.34677 
L 86.708022 76.357652 
L 86.301439 76.391037 
L 85.894855 76.418098 
L 85.488275 76.438901 
L 85.081691 76.45341 
L 84.675108 76.461505 
L 84.268525 76.463048 
L 83.861941 76.458012 
L 83.455358 76.446617 
L 83.048775 76.429459 
L 82.642192 76.407554 
L 82.235611 76.382275 
L 81.829028 76.355161 
L 81.704709 76.34677 
L 81.422444 76.329198 
L 81.015861 76.30454 
L 80.609278 76.280896 
L 80.202694 76.25797 
L 79.796111 76.234819 
L 79.389528 76.209987 
L 78.982947 76.181717 
L 78.576364 76.148223 
L 78.169781 76.107998 
L 77.763197 76.06015 
L 77.356614 76.004711 
L 76.950031 75.942863 
L 76.949726 75.942815 
L 76.543449 75.880676 
L 76.136865 75.817499 
L 75.730282 75.756499 
L 75.323699 75.700323 
L 74.917117 75.650417 
L 74.510534 75.606589 
L 74.10395 75.566888 
L 73.807972 75.538853 
L 73.697367 75.527823 
L 73.290785 75.48442 
L 72.884202 75.431773 
L 72.477618 75.365941 
L 72.071035 75.284518 
L 71.664453 75.186815 
L 71.475356 75.134898 
L 71.25787 75.073735 
L 70.851287 74.946452 
L 70.444703 74.802652 
L 70.265895 74.730936 
L 70.038121 74.637848 
L 69.631538 74.441364 
L 69.434199 74.326981 
L 69.224955 74.192029 
L 68.888046 73.92302 
L 68.818371 73.853972 
L 68.538459 73.519058 
L 68.411789 73.300548 
L 68.31823 73.115096 
L 68.187479 72.711141 
L 68.110939 72.30718 
L 68.061063 71.903218 
L 68.017197 71.499256 
L 68.005206 71.398987 
L 67.968654 71.095301 
z
" clip-path="url(#p8f18cd961a)" style="fill: none; stroke: #d94801; stroke-opacity: 0.111111; stroke-width: 1.5"/>
   </g>
   <g id="PathCollection_11">
    <path d="M 73.203408 69.479461 
L 73.092409 69.075499 
L 73.050837 68.671538 
L 73.07363 68.267576 
L 73.150503 67.863621 
L 73.269008 67.459659 
L 73.290785 67.401395 
L 73.411232 67.055698 
L 73.567337 66.651736 
L 73.697367 66.320446 
L 73.725298 66.247781 
L 73.872945 65.843819 
L 74.011528 65.439858 
L 74.10395 65.162766 
L 74.147345 65.035896 
L 74.297116 64.631941 
L 74.484301 64.227979 
L 74.510534 64.182303 
L 74.720758 63.824018 
L 74.917117 63.545199 
L 75.0061 63.420056 
L 75.321112 63.016101 
L 75.323699 63.012848 
L 75.640517 62.612139 
L 75.730282 62.496925 
L 75.954328 62.208178 
L 76.136865 61.972294 
L 76.268006 61.804216 
L 76.543449 61.46901 
L 76.601647 61.400261 
L 76.950031 61.03104 
L 76.984681 60.996299 
L 77.356614 60.669054 
L 77.450891 60.592337 
L 77.763197 60.365455 
L 78.03019 60.188376 
L 78.169781 60.102277 
L 78.576364 59.869972 
L 78.738026 59.784421 
L 78.982947 59.65683 
L 79.389528 59.458941 
L 79.560302 59.380459 
L 79.796111 59.268733 
L 80.202694 59.08714 
L 80.467966 58.976504 
L 80.609278 58.914085 
L 81.015861 58.749778 
L 81.422444 58.606829 
L 81.537431 58.572542 
L 81.829028 58.480949 
L 82.235611 58.38219 
L 82.642192 58.313088 
L 83.048775 58.271052 
L 83.455358 58.252213 
L 83.861941 58.252171 
L 84.268525 58.266684 
L 84.675108 58.292169 
L 85.081691 58.325963 
L 85.488275 58.366383 
L 85.894855 58.412622 
L 86.301439 58.464543 
L 86.708022 58.522396 
L 87.02569 58.572542 
L 87.114605 58.586236 
L 87.521184 58.655395 
L 87.927767 58.730774 
L 88.33435 58.811597 
L 88.740933 58.896512 
L 89.113709 58.976504 
L 89.147514 58.983653 
L 89.554097 59.069813 
L 89.960681 59.154415 
L 90.367264 59.236462 
L 90.773847 59.315849 
L 91.11285 59.380459 
L 91.180431 59.393021 
L 91.587014 59.46785 
L 91.993597 59.543311 
L 92.400178 59.621074 
L 92.806761 59.702608 
L 93.191825 59.784421 
L 93.213344 59.788902 
L 93.619928 59.87773 
L 94.026511 59.97146 
L 94.433094 60.07029 
L 94.839678 60.174422 
L 94.892042 60.188376 
L 95.246261 60.280441 
L 95.652842 60.391127 
L 96.059425 60.507901 
L 96.33823 60.592337 
L 96.466008 60.630665 
L 96.872591 60.75899 
L 97.279175 60.897575 
L 97.548466 60.996299 
L 97.685758 61.047228 
L 98.092341 61.208246 
L 98.498925 61.385049 
L 98.532276 61.400261 
L 98.905505 61.573585 
L 99.312091 61.777098 
L 99.364577 61.804216 
L 99.718674 61.989631 
L 100.116161 62.208178 
L 100.125258 62.213282 
L 100.531836 62.44332 
L 100.820836 62.612139 
L 100.938419 62.68338 
L 101.345003 62.932451 
L 101.48043 63.016101 
L 101.751586 63.192612 
L 102.101252 63.420056 
L 102.158169 63.4596 
L 102.564752 63.734011 
L 102.701804 63.824018 
L 102.971336 64.016054 
L 103.273115 64.227979 
L 103.377914 64.311999 
L 103.766265 64.631941 
L 103.784502 64.650754 
L 104.130038 65.035896 
L 104.191085 65.134752 
L 104.36147 65.439858 
L 104.490009 65.843819 
L 104.541621 66.247781 
L 104.529416 66.651736 
L 104.454156 67.055698 
L 104.306102 67.459659 
L 104.191085 67.659903 
L 104.063504 67.863621 
L 103.784502 68.178321 
L 103.696982 68.267576 
L 103.377914 68.524764 
L 103.18014 68.671538 
L 102.971336 68.804971 
L 102.564752 69.055103 
L 102.531582 69.075499 
L 102.158169 69.28804 
L 101.827551 69.479461 
L 101.751586 69.52132 
L 101.345003 69.752578 
L 101.120556 69.883416 
L 100.938419 69.984855 
L 100.531836 70.213527 
L 100.401182 70.287378 
L 100.125258 70.435733 
L 99.718674 70.649785 
L 99.638973 70.691339 
L 99.312091 70.855102 
L 98.905505 71.051535 
L 98.813301 71.095301 
L 98.498925 71.242325 
L 98.092341 71.425752 
L 97.925213 71.499256 
L 97.685758 71.605832 
L 97.279175 71.781446 
L 96.987711 71.903218 
L 96.872591 71.952559 
L 96.466008 72.122674 
L 96.059425 72.285772 
L 96.004782 72.30718 
L 95.652842 72.447087 
L 95.246261 72.600444 
L 94.935811 72.711141 
L 94.839678 72.745247 
L 94.433094 72.881224 
L 94.026511 73.005495 
L 93.630633 73.115096 
L 93.619928 73.118013 
L 93.213344 73.219795 
L 92.806761 73.310748 
L 92.400178 73.392026 
L 91.993597 73.464821 
L 91.657606 73.519058 
L 91.587014 73.530549 
L 91.180431 73.591482 
L 90.773847 73.647312 
L 90.367264 73.698807 
L 89.960681 73.746676 
L 89.554097 73.791617 
L 89.147514 73.834312 
L 88.740933 73.875371 
L 88.33435 73.915226 
L 88.252683 73.92302 
L 87.927767 73.956472 
L 87.521184 73.996935 
L 87.114605 74.035184 
L 86.708022 74.070062 
L 86.301439 74.100234 
L 85.894855 74.124393 
L 85.488275 74.141455 
L 85.081691 74.150715 
L 84.675108 74.151964 
L 84.268525 74.145541 
L 83.861941 74.132322 
L 83.455358 74.113617 
L 83.048775 74.090956 
L 82.642192 74.065788 
L 82.235611 74.039144 
L 81.829028 74.011349 
L 81.422444 73.981881 
L 81.015861 73.949372 
L 80.72969 73.92302 
L 80.609278 73.912072 
L 80.202694 73.867831 
L 79.796111 73.812925 
L 79.389528 73.744459 
L 78.982947 73.659786 
L 78.576364 73.5568 
L 78.447039 73.519058 
L 78.169781 73.432436 
L 77.763197 73.286587 
L 77.356614 73.121174 
L 77.342405 73.115096 
L 76.950031 72.930978 
L 76.543449 72.725815 
L 76.514698 72.711141 
L 76.136865 72.498238 
L 75.808661 72.30718 
L 75.730282 72.256172 
L 75.323699 71.989376 
L 75.193953 71.903218 
L 74.917117 71.690669 
L 74.673323 71.499256 
L 74.510534 71.3474 
L 74.245772 71.095301 
L 74.10395 70.932861 
L 73.896948 70.691339 
L 73.697367 70.410813 
L 73.611559 70.287378 
L 73.378714 69.883416 
L 73.290785 69.685108 
L 73.203408 69.479461 
z
" clip-path="url(#p8f18cd961a)" style="fill: none; stroke: #d94801; stroke-opacity: 0.333333; stroke-width: 1.5"/>
   </g>
   <g id="PathCollection_12">
    <path d="M 76.507545 67.863621 
L 76.491863 67.459659 
L 76.543449 67.109261 
L 76.551232 67.055698 
L 76.676442 66.651736 
L 76.851701 66.247781 
L 76.950031 66.055507 
L 77.058195 65.843819 
L 77.281897 65.439858 
L 77.356614 65.310787 
L 77.515763 65.035896 
L 77.763197 64.634218 
L 77.764601 64.631941 
L 78.030812 64.227979 
L 78.169781 64.035071 
L 78.323656 63.824018 
L 78.576364 63.504936 
L 78.645579 63.420056 
L 78.982947 63.036039 
L 79.001459 63.016101 
L 79.389528 62.628102 
L 79.406942 62.612139 
L 79.796111 62.282651 
L 79.895036 62.208178 
L 80.202694 61.99394 
L 80.515763 61.804216 
L 80.609278 61.751039 
L 81.015861 61.545118 
L 81.347056 61.400261 
L 81.422444 61.368187 
L 81.829028 61.214742 
L 82.235611 61.083279 
L 82.553171 60.996299 
L 82.642192 60.971827 
L 83.048775 60.877757 
L 83.455358 60.80179 
L 83.861941 60.742635 
L 84.268525 60.699038 
L 84.675108 60.670062 
L 85.081691 60.655235 
L 85.488275 60.654523 
L 85.894855 60.668089 
L 86.301439 60.695946 
L 86.708022 60.737581 
L 87.114605 60.791702 
L 87.521184 60.856189 
L 87.927767 60.928284 
L 88.28822 60.996299 
L 88.33435 61.004893 
L 88.740933 61.082593 
L 89.147514 61.159598 
L 89.554097 61.234779 
L 89.960681 61.307828 
L 90.367264 61.379087 
L 90.490067 61.400261 
L 90.773847 61.449106 
L 91.180431 61.519342 
L 91.587014 61.590681 
L 91.993597 61.663515 
L 92.400178 61.737944 
L 92.754246 61.804216 
L 92.806761 61.813903 
L 93.213344 61.89112 
L 93.619928 61.970688 
L 94.026511 62.053856 
L 94.433094 62.142554 
L 94.708579 62.208178 
L 94.839678 62.239185 
L 95.246261 62.347024 
L 95.652842 62.469635 
L 96.059425 62.609878 
L 96.065293 62.612139 
L 96.466008 62.776381 
L 96.872591 62.965787 
L 96.971592 63.016101 
L 97.279175 63.190749 
L 97.654162 63.420056 
L 97.685758 63.442497 
L 98.092341 63.738985 
L 98.207301 63.824018 
L 98.498925 64.078425 
L 98.671949 64.227979 
L 98.905505 64.470047 
L 99.065044 64.631941 
L 99.312091 64.936026 
L 99.395375 65.035896 
L 99.665762 65.439858 
L 99.718674 65.547027 
L 99.869532 65.843819 
L 99.988206 66.247781 
L 100.001391 66.651736 
L 99.899061 67.055698 
L 99.718674 67.398142 
L 99.687994 67.459659 
L 99.392868 67.863621 
L 99.312091 67.950632 
L 99.031551 68.267576 
L 98.905505 68.386472 
L 98.610548 68.671538 
L 98.498925 68.763718 
L 98.120185 69.075499 
L 98.092341 69.095362 
L 97.685758 69.378128 
L 97.53457 69.479461 
L 97.279175 69.630021 
L 96.872591 69.858315 
L 96.825919 69.883416 
L 96.466008 70.058835 
L 96.059425 70.248753 
L 95.974488 70.287378 
L 95.652842 70.424578 
L 95.246261 70.594332 
L 95.011024 70.691339 
L 94.839678 70.759546 
L 94.433094 70.919015 
L 94.026511 71.073706 
L 93.968208 71.095301 
L 93.619928 71.221526 
L 93.213344 71.360018 
L 92.806761 71.487628 
L 92.767029 71.499256 
L 92.400178 71.605744 
L 91.993597 71.712472 
L 91.587014 71.808391 
L 91.180431 71.894633 
L 91.136121 71.903218 
L 90.773847 71.973718 
L 90.367264 72.044704 
L 89.960681 72.108163 
L 89.554097 72.164793 
L 89.147514 72.215281 
L 88.740933 72.26033 
L 88.33435 72.300639 
L 88.260607 72.30718 
L 87.927767 72.336719 
L 87.521184 72.368779 
L 87.114605 72.396801 
L 86.708022 72.420277 
L 86.301439 72.438238 
L 85.894855 72.449427 
L 85.488275 72.452568 
L 85.081691 72.446673 
L 84.675108 72.431294 
L 84.268525 72.406663 
L 83.861941 72.373639 
L 83.455358 72.33347 
L 83.221313 72.30718 
L 83.048775 72.287061 
L 82.642192 72.234793 
L 82.235611 72.176785 
L 81.829028 72.111574 
L 81.422444 72.036464 
L 81.015861 71.947686 
L 80.84263 71.903218 
L 80.609278 71.838301 
L 80.202694 71.70265 
L 79.796111 71.537918 
L 79.7131 71.499256 
L 79.389528 71.335231 
L 78.982947 71.096116 
L 78.981679 71.095301 
L 78.576364 70.811833 
L 78.4189 70.691339 
L 78.169781 70.481261 
L 77.955168 70.287378 
L 77.763197 70.09249 
L 77.568177 69.883416 
L 77.356614 69.623574 
L 77.244031 69.479461 
L 76.974358 69.075499 
L 76.950031 69.031244 
L 76.756803 68.671538 
L 76.598302 68.267576 
L 76.543449 68.02485 
L 76.507545 67.863621 
z
" clip-path="url(#p8f18cd961a)" style="fill: none; stroke: #d94801; stroke-opacity: 0.555556; stroke-width: 1.5"/>
   </g>
   <g id="PathCollection_13">
    <path d="M 79.776416 68.267576 
L 79.600506 67.863621 
L 79.51514 67.459659 
L 79.517933 67.055698 
L 79.598482 66.651736 
L 79.742174 66.247781 
L 79.796111 66.135184 
L 79.937255 65.843819 
L 80.175944 65.439858 
L 80.202694 65.400428 
L 80.465186 65.035896 
L 80.609278 64.86026 
L 80.814814 64.631941 
L 81.015861 64.432378 
L 81.248348 64.227979 
L 81.422444 64.08868 
L 81.805001 63.824018 
L 81.829028 63.808685 
L 82.235611 63.584149 
L 82.59324 63.420056 
L 82.642192 63.399089 
L 83.048775 63.253039 
L 83.455358 63.136016 
L 83.861941 63.044839 
L 84.03149 63.016101 
L 84.268525 62.97748 
L 84.675108 62.930483 
L 85.081691 62.901105 
L 85.488275 62.887359 
L 85.894855 62.887325 
L 86.301439 62.899164 
L 86.708022 62.921201 
L 87.114605 62.95204 
L 87.521184 62.990674 
L 87.746027 63.016101 
L 87.927767 63.03641 
L 88.33435 63.089176 
L 88.740933 63.149184 
L 89.147514 63.216292 
L 89.554097 63.289952 
L 89.960681 63.36903 
L 90.21231 63.420056 
L 90.367264 63.452902 
L 90.773847 63.540397 
L 91.180431 63.627145 
L 91.587014 63.710795 
L 91.993597 63.790013 
L 92.178277 63.824018 
L 92.400178 63.869192 
L 92.806761 63.950876 
L 93.213344 64.036751 
L 93.619928 64.133543 
L 93.952848 64.227979 
L 94.026511 64.25426 
L 94.433094 64.43405 
L 94.782907 64.631941 
L 94.839678 64.677622 
L 95.205231 65.035896 
L 95.246261 65.098859 
L 95.443181 65.439858 
L 95.581533 65.843819 
L 95.648016 66.247781 
L 95.648895 66.651736 
L 95.576152 67.055698 
L 95.414519 67.459659 
L 95.246261 67.718335 
L 95.150909 67.863621 
L 94.839678 68.204127 
L 94.782221 68.267576 
L 94.433094 68.570017 
L 94.318725 68.671538 
L 94.026511 68.884257 
L 93.769988 69.075499 
L 93.619928 69.169075 
L 93.213344 69.423838 
L 93.12322 69.479461 
L 92.806761 69.644191 
L 92.400178 69.844244 
L 92.314345 69.883416 
L 91.993597 70.009958 
L 91.587014 70.153457 
L 91.180431 70.278915 
L 91.148692 70.287378 
L 90.773847 70.378237 
L 90.367264 70.461888 
L 89.960681 70.53203 
L 89.554097 70.590173 
L 89.147514 70.637853 
L 88.740933 70.676605 
L 88.548073 70.691339 
L 88.33435 70.706979 
L 87.927767 70.730775 
L 87.521184 70.749797 
L 87.114605 70.764454 
L 86.708022 70.774444 
L 86.301439 70.778766 
L 85.894855 70.77592 
L 85.488275 70.764237 
L 85.081691 70.742212 
L 84.675108 70.708717 
L 84.520242 70.691339 
L 84.268525 70.662429 
L 83.861941 70.602935 
L 83.455358 70.529746 
L 83.048775 70.441332 
L 82.642192 70.335275 
L 82.48539 70.287378 
L 82.235611 70.20406 
L 81.829028 70.042996 
L 81.491043 69.883416 
L 81.422444 69.845986 
L 81.015861 69.593079 
L 80.85485 69.479461 
L 80.609278 69.273568 
L 80.393446 69.075499 
L 80.202694 68.863143 
L 80.040857 68.671538 
L 79.796111 68.299037 
L 79.776416 68.267576 
z
" clip-path="url(#p8f18cd961a)" style="fill: none; stroke: #d94801; stroke-opacity: 0.666667; stroke-width: 1.5"/>
   </g>
   <g id="PathCollection_14">
    <path d="M 82.952682 67.459659 
L 82.877984 67.055698 
L 82.970882 66.651736 
L 83.048775 66.529818 
L 83.263792 66.247781 
L 83.455358 66.08837 
L 83.810167 65.843819 
L 83.861941 65.816092 
L 84.268525 65.633655 
L 84.675108 65.482579 
L 84.814646 65.439858 
L 85.081691 65.370697 
L 85.488275 65.28779 
L 85.894855 65.227044 
L 86.301439 65.188113 
L 86.708022 65.170897 
L 87.114605 65.175565 
L 87.521184 65.202604 
L 87.927767 65.252735 
L 88.33435 65.326651 
L 88.740933 65.424669 
L 88.791995 65.439858 
L 89.147514 65.568198 
L 89.554097 65.73868 
L 89.778082 65.843819 
L 89.960681 65.955565 
L 90.367264 66.22376 
L 90.401363 66.247781 
L 90.773847 66.649984 
L 90.775352 66.651736 
L 90.914439 67.055698 
L 90.838097 67.459659 
L 90.773847 67.55127 
L 90.517116 67.863621 
L 90.367264 67.970325 
L 89.960681 68.200973 
L 89.806901 68.267576 
L 89.554097 68.347574 
L 89.147514 68.444115 
L 88.740933 68.515302 
L 88.33435 68.568959 
L 87.927767 68.611425 
L 87.521184 68.646951 
L 87.194512 68.671538 
L 87.114605 68.676608 
L 86.708022 68.697978 
L 86.301439 68.712543 
L 85.894855 68.716873 
L 85.488275 68.706493 
L 85.081691 68.676178 
L 85.047401 68.671538 
L 84.675108 68.607981 
L 84.268525 68.498476 
L 83.861941 68.341673 
L 83.715442 68.267576 
L 83.455358 68.080793 
L 83.209536 67.863621 
L 83.048775 67.624514 
L 82.952682 67.459659 
z
" clip-path="url(#p8f18cd961a)" style="fill: none; stroke: #d94801; stroke-opacity: 0.888889; stroke-width: 1.5"/>
   </g>
   <g id="PathCollection_15"/>
   <g id="patch_3">
    <path d="M 45.236562 104.22 
L 45.236562 23.832 
" style="fill: none; stroke: #000000; stroke-width: 1.5; stroke-linejoin: miter; stroke-linecap: square"/>
   </g>
   <g id="patch_4">
    <path d="M 45.236563 104.22 
L 126.146563 104.22 
" style="fill: none; stroke: #000000; stroke-width: 1.5; stroke-linejoin: miter; stroke-linecap: square"/>
   </g>
  </g>
  <g id="axes_2">
   <g id="patch_5">
    <path d="M 45.236562 21.06 
L 126.146563 21.06 
L 126.146563 7.2 
L 45.236562 7.2 
L 45.236562 21.06 
z
" style="fill: none"/>
   </g>
   <g id="PolyCollection_1">
    <defs>
     <path id="ma74a87fc3e" d="M 45.236563 -118.965077 
L 45.236563 -118.860781 
L 45.643146 -118.860781 
L 46.049728 -118.860781 
L 46.456311 -118.860781 
L 46.862894 -118.860781 
L 47.269478 -118.860781 
L 47.67606 -118.860781 
L 48.082643 -118.860781 
L 48.489226 -118.860781 
L 48.895809 -118.860781 
L 49.302392 -118.860781 
L 49.708975 -118.860781 
L 50.115558 -118.860781 
L 50.522141 -118.860781 
L 50.928723 -118.860781 
L 51.335307 -118.860781 
L 51.741889 -118.860781 
L 52.148472 -118.860781 
L 52.555055 -118.860781 
L 52.961638 -118.860781 
L 53.368221 -118.860781 
L 53.774804 -118.860781 
L 54.181387 -118.860781 
L 54.58797 -118.860781 
L 54.994553 -118.860781 
L 55.401136 -118.860781 
L 55.807719 -118.860781 
L 56.214301 -118.860781 
L 56.620884 -118.860781 
L 57.027467 -118.860781 
L 57.43405 -118.860781 
L 57.840633 -118.860781 
L 58.247216 -118.860781 
L 58.653799 -118.860781 
L 59.060382 -118.860781 
L 59.466965 -118.860781 
L 59.873548 -118.860781 
L 60.280131 -118.860781 
L 60.686714 -118.860781 
L 61.093297 -118.860781 
L 61.49988 -118.860781 
L 61.906463 -118.860781 
L 62.313046 -118.860781 
L 62.719628 -118.860781 
L 63.126211 -118.860781 
L 63.532794 -118.860781 
L 63.939377 -118.860781 
L 64.34596 -118.860781 
L 64.752543 -118.860781 
L 65.159126 -118.860781 
L 65.565709 -118.860781 
L 65.972292 -118.860781 
L 66.378875 -118.860781 
L 66.785458 -118.860781 
L 67.192041 -118.860781 
L 67.598623 -118.860781 
L 68.005206 -118.860781 
L 68.411789 -118.860781 
L 68.818371 -118.860781 
L 69.224955 -118.860781 
L 69.631538 -118.860781 
L 70.038121 -118.860781 
L 70.444703 -118.860781 
L 70.851287 -118.860781 
L 71.25787 -118.860781 
L 71.664453 -118.860781 
L 72.071035 -118.860781 
L 72.477618 -118.860781 
L 72.884202 -118.860781 
L 73.290785 -118.860781 
L 73.697367 -118.860781 
L 74.10395 -118.860781 
L 74.510534 -118.860781 
L 74.917117 -118.860781 
L 75.323699 -118.860781 
L 75.730282 -118.860781 
L 76.136865 -118.860781 
L 76.543449 -118.860781 
L 76.950031 -118.860781 
L 77.356614 -118.860781 
L 77.763197 -118.860781 
L 78.169781 -118.860781 
L 78.576364 -118.860781 
L 78.982947 -118.860781 
L 79.389528 -118.860781 
L 79.796111 -118.860781 
L 80.202694 -118.860781 
L 80.609278 -118.860781 
L 81.015861 -118.860781 
L 81.422444 -118.860781 
L 81.829028 -118.860781 
L 82.235611 -118.860781 
L 82.642192 -118.860781 
L 83.048775 -118.860781 
L 83.455358 -118.860781 
L 83.861941 -118.860781 
L 84.268525 -118.860781 
L 84.675108 -118.860781 
L 85.081691 -118.860781 
L 85.488275 -118.860781 
L 85.894855 -118.860781 
L 86.301439 -118.860781 
L 86.708022 -118.860781 
L 87.114605 -118.860781 
L 87.521184 -118.860781 
L 87.927767 -118.860781 
L 88.33435 -118.860781 
L 88.740933 -118.860781 
L 89.147514 -118.860781 
L 89.554097 -118.860781 
L 89.960681 -118.860781 
L 90.367264 -118.860781 
L 90.773847 -118.860781 
L 91.180431 -118.860781 
L 91.587014 -118.860781 
L 91.993597 -118.860781 
L 92.400178 -118.860781 
L 92.806761 -118.860781 
L 93.213344 -118.860781 
L 93.619928 -118.860781 
L 94.026511 -118.860781 
L 94.433094 -118.860781 
L 94.839678 -118.860781 
L 95.246261 -118.860781 
L 95.652842 -118.860781 
L 96.059425 -118.860781 
L 96.466008 -118.860781 
L 96.872591 -118.860781 
L 97.279175 -118.860781 
L 97.685758 -118.860781 
L 98.092341 -118.860781 
L 98.498925 -118.860781 
L 98.905505 -118.860781 
L 99.312091 -118.860781 
L 99.718674 -118.860781 
L 100.125258 -118.860781 
L 100.531836 -118.860781 
L 100.938419 -118.860781 
L 101.345003 -118.860781 
L 101.751586 -118.860781 
L 102.158169 -118.860781 
L 102.564752 -118.860781 
L 102.971336 -118.860781 
L 103.377914 -118.860781 
L 103.784502 -118.860781 
L 104.191085 -118.860781 
L 104.597669 -118.860781 
L 105.004252 -118.860781 
L 105.410835 -118.860781 
L 105.817419 -118.860781 
L 106.224002 -118.860781 
L 106.63058 -118.860781 
L 107.037163 -118.860781 
L 107.443747 -118.860781 
L 107.85033 -118.860781 
L 108.256913 -118.860781 
L 108.663497 -118.860781 
L 109.07008 -118.860781 
L 109.476663 -118.860781 
L 109.883246 -118.860781 
L 110.28983 -118.860781 
L 110.696413 -118.860781 
L 111.102996 -118.860781 
L 111.509579 -118.860781 
L 111.916163 -118.860781 
L 112.322746 -118.860781 
L 112.729329 -118.860781 
L 113.135913 -118.860781 
L 113.542491 -118.860781 
L 113.949074 -118.860781 
L 114.355657 -118.860781 
L 114.762241 -118.860781 
L 115.168824 -118.860781 
L 115.575407 -118.860781 
L 115.981991 -118.860781 
L 116.388569 -118.860781 
L 116.795157 -118.860781 
L 117.20174 -118.860781 
L 117.608324 -118.860781 
L 118.014907 -118.860781 
L 118.42149 -118.860781 
L 118.828073 -118.860781 
L 119.234657 -118.860781 
L 119.641235 -118.860781 
L 120.047818 -118.860781 
L 120.454402 -118.860781 
L 120.860985 -118.860781 
L 121.267568 -118.860781 
L 121.674151 -118.860781 
L 122.080735 -118.860781 
L 122.487318 -118.860781 
L 122.893901 -118.860781 
L 123.30048 -118.860781 
L 123.707063 -118.860781 
L 124.113646 -118.860781 
L 124.520229 -118.860781 
L 124.926813 -118.860781 
L 125.333396 -118.860781 
L 125.739979 -118.860781 
L 126.146563 -118.860781 
L 126.146563 -118.935262 
L 126.146563 -118.935262 
L 125.739979 -118.940707 
L 125.333396 -118.946517 
L 124.926813 -118.95305 
L 124.520229 -118.96075 
L 124.113646 -118.970077 
L 123.707063 -118.981402 
L 123.30048 -118.994905 
L 122.893901 -119.010533 
L 122.487318 -119.028026 
L 122.080735 -119.04701 
L 121.674151 -119.067102 
L 121.267568 -119.087998 
L 120.860985 -119.109495 
L 120.454402 -119.1315 
L 120.047818 -119.154013 
L 119.641235 -119.177147 
L 119.234657 -119.201151 
L 118.828073 -119.22645 
L 118.42149 -119.253637 
L 118.014907 -119.283393 
L 117.608324 -119.316315 
L 117.20174 -119.352689 
L 116.795157 -119.392329 
L 116.388569 -119.43461 
L 115.981991 -119.478731 
L 115.575407 -119.524117 
L 115.168824 -119.570714 
L 114.762241 -119.61901 
L 114.355657 -119.669738 
L 113.949074 -119.723468 
L 113.542491 -119.780376 
L 113.135913 -119.840362 
L 112.729329 -119.903449 
L 112.322746 -119.970189 
L 111.916163 -120.041766 
L 111.509579 -120.119674 
L 111.102996 -120.205094 
L 110.696413 -120.298281 
L 110.28983 -120.398265 
L 109.883246 -120.503004 
L 109.476663 -120.609916 
L 109.07008 -120.71659 
L 108.663497 -120.821428 
L 108.256913 -120.92406 
L 107.85033 -121.025458 
L 107.443747 -121.127728 
L 107.037163 -121.233633 
L 106.63058 -121.345945 
L 106.224002 -121.466809 
L 105.817419 -121.597282 
L 105.410835 -121.737139 
L 105.004252 -121.884978 
L 104.597669 -122.038588 
L 104.191085 -122.195467 
L 103.784502 -122.353442 
L 103.377914 -122.511207 
L 102.971336 -122.668626 
L 102.564752 -122.826652 
L 102.158169 -122.98676 
L 101.751586 -123.15015 
L 101.345003 -123.316972 
L 100.938419 -123.485959 
L 100.531836 -123.654588 
L 100.125258 -123.819719 
L 99.718674 -123.978467 
L 99.312091 -124.129061 
L 98.905505 -124.27156 
L 98.498925 -124.40821 
L 98.092341 -124.543288 
L 97.685758 -124.68217 
L 97.279175 -124.829756 
L 96.872591 -124.98868 
L 96.466008 -125.158143 
L 96.059425 -125.33404 
L 95.652842 -125.510501 
L 95.246261 -125.682224 
L 94.839678 -125.84646 
L 94.433094 -126.003699 
L 94.026511 -126.156765 
L 93.619928 -126.308918 
L 93.213344 -126.461975 
L 92.806761 -126.615399 
L 92.400178 -126.766625 
L 91.993597 -126.912259 
L 91.587014 -127.049444 
L 91.180431 -127.176761 
L 90.773847 -127.294437 
L 90.367264 -127.403959 
L 89.960681 -127.507419 
L 89.554097 -127.606885 
L 89.147514 -127.703951 
L 88.740933 -127.799477 
L 88.33435 -127.893421 
L 87.927767 -127.984746 
L 87.521184 -128.071483 
L 87.114605 -128.15105 
L 86.708022 -128.220773 
L 86.301439 -128.278315 
L 85.894855 -128.321709 
L 85.488275 -128.348845 
L 85.081691 -128.356771 
L 84.675108 -128.341416 
L 84.268525 -128.298256 
L 83.861941 -128.22388 
L 83.455358 -128.117748 
L 83.048775 -127.983178 
L 82.642192 -127.826878 
L 82.235611 -127.657143 
L 81.829028 -127.481512 
L 81.422444 -127.305024 
L 81.015861 -127.129764 
L 80.609278 -126.95572 
L 80.202694 -126.782299 
L 79.796111 -126.609587 
L 79.389528 -126.438702 
L 78.982947 -126.271127 
L 78.576364 -126.107458 
L 78.169781 -125.946324 
L 77.763197 -125.784128 
L 77.356614 -125.615922 
L 76.950031 -125.437095 
L 76.543449 -125.245138 
L 76.136865 -125.040622 
L 75.730282 -124.826927 
L 75.323699 -124.608848 
L 74.917117 -124.390782 
L 74.510534 -124.175351 
L 74.10395 -123.963084 
L 73.697367 -123.75315 
L 73.290785 -123.54468 
L 72.884202 -123.337929 
L 72.477618 -123.134708 
L 72.071035 -122.937886 
L 71.664453 -122.750269 
L 71.25787 -122.573451 
L 70.851287 -122.407226 
L 70.444703 -122.249849 
L 70.038121 -122.09896 
L 69.631538 -121.952661 
L 69.224955 -121.810175 
L 68.818371 -121.671747 
L 68.411789 -121.537946 
L 68.005206 -121.408847 
L 67.598623 -121.283633 
L 67.192041 -121.160908 
L 66.785458 -121.039528 
L 66.378875 -120.919463 
L 65.972292 -120.802145 
L 65.565709 -120.690079 
L 65.159126 -120.585847 
L 64.752543 -120.491012 
L 64.34596 -120.405417 
L 63.939377 -120.327201 
L 63.532794 -120.253514 
L 63.126211 -120.181591 
L 62.719628 -120.109714 
L 62.313046 -120.03767 
L 61.906463 -119.966554 
L 61.49988 -119.898091 
L 61.093297 -119.833852 
L 60.686714 -119.774724 
L 60.280131 -119.720809 
L 59.873548 -119.671663 
L 59.466965 -119.62663 
L 59.060382 -119.585067 
L 58.653799 -119.546381 
L 58.247216 -119.509984 
L 57.840633 -119.475284 
L 57.43405 -119.441787 
L 57.027467 -119.409239 
L 56.620884 -119.377689 
L 56.214301 -119.347422 
L 55.807719 -119.318786 
L 55.401136 -119.292023 
L 54.994553 -119.267209 
L 54.58797 -119.244287 
L 54.181387 -119.223134 
L 53.774804 -119.203593 
L 53.368221 -119.185436 
L 52.961638 -119.168341 
L 52.555055 -119.151917 
L 52.148472 -119.135795 
L 51.741889 -119.119748 
L 51.335307 -119.103768 
L 50.928723 -119.088063 
L 50.522141 -119.07299 
L 50.115558 -119.058937 
L 49.708975 -119.046195 
L 49.302392 -119.034866 
L 48.895809 -119.02483 
L 48.489226 -119.015797 
L 48.082643 -119.007438 
L 47.67606 -118.999518 
L 47.269478 -118.991988 
L 46.862894 -118.984972 
L 46.456311 -118.978674 
L 46.049728 -118.973261 
L 45.643146 -118.96877 
L 45.236563 -118.965077 
z
" style="stroke: #08519c; stroke-opacity: 0.1"/>
    </defs>
    <g clip-path="url(#p87279a14f8)">
     <use xlink:href="#ma74a87fc3e" x="0" y="139.920781" style="fill: #08519c; fill-opacity: 0.1; stroke: #08519c; stroke-opacity: 0.1"/>
    </g>
   </g>
   <g id="PolyCollection_2">
    <defs>
     <path id="m44c38e13e3" d="M 45.236563 -118.94587 
L 45.236563 -118.860781 
L 45.643146 -118.860781 
L 46.049728 -118.860781 
L 46.456311 -118.860781 
L 46.862894 -118.860781 
L 47.269478 -118.860781 
L 47.67606 -118.860781 
L 48.082643 -118.860781 
L 48.489226 -118.860781 
L 48.895809 -118.860781 
L 49.302392 -118.860781 
L 49.708975 -118.860781 
L 50.115558 -118.860781 
L 50.522141 -118.860781 
L 50.928723 -118.860781 
L 51.335307 -118.860781 
L 51.741889 -118.860781 
L 52.148472 -118.860781 
L 52.555055 -118.860781 
L 52.961638 -118.860781 
L 53.368221 -118.860781 
L 53.774804 -118.860781 
L 54.181387 -118.860781 
L 54.58797 -118.860781 
L 54.994553 -118.860781 
L 55.401136 -118.860781 
L 55.807719 -118.860781 
L 56.214301 -118.860781 
L 56.620884 -118.860781 
L 57.027467 -118.860781 
L 57.43405 -118.860781 
L 57.840633 -118.860781 
L 58.247216 -118.860781 
L 58.653799 -118.860781 
L 59.060382 -118.860781 
L 59.466965 -118.860781 
L 59.873548 -118.860781 
L 60.280131 -118.860781 
L 60.686714 -118.860781 
L 61.093297 -118.860781 
L 61.49988 -118.860781 
L 61.906463 -118.860781 
L 62.313046 -118.860781 
L 62.719628 -118.860781 
L 63.126211 -118.860781 
L 63.532794 -118.860781 
L 63.939377 -118.860781 
L 64.34596 -118.860781 
L 64.752543 -118.860781 
L 65.159126 -118.860781 
L 65.565709 -118.860781 
L 65.972292 -118.860781 
L 66.378875 -118.860781 
L 66.785458 -118.860781 
L 67.192041 -118.860781 
L 67.598623 -118.860781 
L 68.005206 -118.860781 
L 68.411789 -118.860781 
L 68.818371 -118.860781 
L 69.224955 -118.860781 
L 69.631538 -118.860781 
L 70.038121 -118.860781 
L 70.444703 -118.860781 
L 70.851287 -118.860781 
L 71.25787 -118.860781 
L 71.664453 -118.860781 
L 72.071035 -118.860781 
L 72.477618 -118.860781 
L 72.884202 -118.860781 
L 73.290785 -118.860781 
L 73.697367 -118.860781 
L 74.10395 -118.860781 
L 74.510534 -118.860781 
L 74.917117 -118.860781 
L 75.323699 -118.860781 
L 75.730282 -118.860781 
L 76.136865 -118.860781 
L 76.543449 -118.860781 
L 76.950031 -118.860781 
L 77.356614 -118.860781 
L 77.763197 -118.860781 
L 78.169781 -118.860781 
L 78.576364 -118.860781 
L 78.982947 -118.860781 
L 79.389528 -118.860781 
L 79.796111 -118.860781 
L 80.202694 -118.860781 
L 80.609278 -118.860781 
L 81.015861 -118.860781 
L 81.422444 -118.860781 
L 81.829028 -118.860781 
L 82.235611 -118.860781 
L 82.642192 -118.860781 
L 83.048775 -118.860781 
L 83.455358 -118.860781 
L 83.861941 -118.860781 
L 84.268525 -118.860781 
L 84.675108 -118.860781 
L 85.081691 -118.860781 
L 85.488275 -118.860781 
L 85.894855 -118.860781 
L 86.301439 -118.860781 
L 86.708022 -118.860781 
L 87.114605 -118.860781 
L 87.521184 -118.860781 
L 87.927767 -118.860781 
L 88.33435 -118.860781 
L 88.740933 -118.860781 
L 89.147514 -118.860781 
L 89.554097 -118.860781 
L 89.960681 -118.860781 
L 90.367264 -118.860781 
L 90.773847 -118.860781 
L 91.180431 -118.860781 
L 91.587014 -118.860781 
L 91.993597 -118.860781 
L 92.400178 -118.860781 
L 92.806761 -118.860781 
L 93.213344 -118.860781 
L 93.619928 -118.860781 
L 94.026511 -118.860781 
L 94.433094 -118.860781 
L 94.839678 -118.860781 
L 95.246261 -118.860781 
L 95.652842 -118.860781 
L 96.059425 -118.860781 
L 96.466008 -118.860781 
L 96.872591 -118.860781 
L 97.279175 -118.860781 
L 97.685758 -118.860781 
L 98.092341 -118.860781 
L 98.498925 -118.860781 
L 98.905505 -118.860781 
L 99.312091 -118.860781 
L 99.718674 -118.860781 
L 100.125258 -118.860781 
L 100.531836 -118.860781 
L 100.938419 -118.860781 
L 101.345003 -118.860781 
L 101.751586 -118.860781 
L 102.158169 -118.860781 
L 102.564752 -118.860781 
L 102.971336 -118.860781 
L 103.377914 -118.860781 
L 103.784502 -118.860781 
L 104.191085 -118.860781 
L 104.597669 -118.860781 
L 105.004252 -118.860781 
L 105.410835 -118.860781 
L 105.817419 -118.860781 
L 106.224002 -118.860781 
L 106.63058 -118.860781 
L 107.037163 -118.860781 
L 107.443747 -118.860781 
L 107.85033 -118.860781 
L 108.256913 -118.860781 
L 108.663497 -118.860781 
L 109.07008 -118.860781 
L 109.476663 -118.860781 
L 109.883246 -118.860781 
L 110.28983 -118.860781 
L 110.696413 -118.860781 
L 111.102996 -118.860781 
L 111.509579 -118.860781 
L 111.916163 -118.860781 
L 112.322746 -118.860781 
L 112.729329 -118.860781 
L 113.135913 -118.860781 
L 113.542491 -118.860781 
L 113.949074 -118.860781 
L 114.355657 -118.860781 
L 114.762241 -118.860781 
L 115.168824 -118.860781 
L 115.575407 -118.860781 
L 115.981991 -118.860781 
L 116.388569 -118.860781 
L 116.795157 -118.860781 
L 117.20174 -118.860781 
L 117.608324 -118.860781 
L 118.014907 -118.860781 
L 118.42149 -118.860781 
L 118.828073 -118.860781 
L 119.234657 -118.860781 
L 119.641235 -118.860781 
L 120.047818 -118.860781 
L 120.454402 -118.860781 
L 120.860985 -118.860781 
L 121.267568 -118.860781 
L 121.674151 -118.860781 
L 122.080735 -118.860781 
L 122.487318 -118.860781 
L 122.893901 -118.860781 
L 123.30048 -118.860781 
L 123.707063 -118.860781 
L 124.113646 -118.860781 
L 124.520229 -118.860781 
L 124.926813 -118.860781 
L 125.333396 -118.860781 
L 125.739979 -118.860781 
L 126.146563 -118.860781 
L 126.146563 -118.908515 
L 126.146563 -118.908515 
L 125.739979 -118.915175 
L 125.333396 -118.921075 
L 124.926813 -118.926089 
L 124.520229 -118.930403 
L 124.113646 -118.934514 
L 123.707063 -118.939157 
L 123.30048 -118.945144 
L 122.893901 -118.953162 
L 122.487318 -118.963583 
L 122.080735 -118.976379 
L 121.674151 -118.99119 
L 121.267568 -119.007551 
L 120.860985 -119.025175 
L 120.454402 -119.044174 
L 120.047818 -119.065066 
L 119.641235 -119.088546 
L 119.234657 -119.115094 
L 118.828073 -119.144607 
L 118.42149 -119.176245 
L 118.014907 -119.208595 
L 117.608324 -119.240112 
L 117.20174 -119.269658 
L 116.795157 -119.296921 
L 116.388569 -119.322543 
L 115.981991 -119.34791 
L 115.575407 -119.374721 
L 115.168824 -119.4045 
L 114.762241 -119.438301 
L 114.355657 -119.476679 
L 113.949074 -119.519915 
L 113.542491 -119.568319 
L 113.135913 -119.622425 
L 112.729329 -119.682964 
L 112.322746 -119.750595 
L 111.916163 -119.82555 
L 111.509579 -119.907319 
L 111.102996 -119.994539 
L 110.696413 -120.08516 
L 110.28983 -120.1769 
L 109.883246 -120.267899 
L 109.476663 -120.35741 
L 109.07008 -120.446299 
L 108.663497 -120.537112 
L 108.256913 -120.633562 
L 107.85033 -120.739441 
L 107.443747 -120.857247 
L 107.037163 -120.987014 
L 106.63058 -121.125888 
L 106.224002 -121.268746 
L 105.817419 -121.409732 
L 105.410835 -121.544091 
L 105.004252 -121.669577 
L 104.597669 -121.786871 
L 104.191085 -121.898979 
L 103.784502 -122.010047 
L 103.377914 -122.124178 
L 102.971336 -122.244645 
L 102.564752 -122.373562 
L 102.158169 -122.511819 
L 101.751586 -122.659198 
L 101.345003 -122.814638 
L 100.938419 -122.97667 
L 100.531836 -123.143934 
L 100.125258 -123.315516 
L 99.718674 -123.490974 
L 99.312091 -123.670056 
L 98.905505 -123.852371 
L 98.498925 -124.037231 
L 98.092341 -124.223725 
L 97.685758 -124.410924 
L 97.279175 -124.59807 
L 96.872591 -124.784636 
L 96.466008 -124.97021 
L 96.059425 -125.154216 
L 95.652842 -125.335579 
L 95.246261 -125.512599 
L 94.839678 -125.683277 
L 94.433094 -125.846118 
L 94.026511 -126.001058 
L 93.619928 -126.149894 
L 93.213344 -126.29583 
L 92.806761 -126.442235 
L 92.400178 -126.5913 
L 91.993597 -126.743324 
L 91.587014 -126.89699 
L 91.180431 -127.050293 
L 90.773847 -127.201449 
L 90.367264 -127.349194 
L 89.960681 -127.492407 
L 89.554097 -127.629552 
L 89.147514 -127.758614 
L 88.740933 -127.877832 
L 88.33435 -127.986871 
L 87.927767 -128.087531 
L 87.521184 -128.183223 
L 87.114605 -128.277186 
L 86.708022 -128.370381 
L 86.301439 -128.460345 
L 85.894855 -128.541816 
L 85.488275 -128.608782 
L 85.081691 -128.656714 
L 84.675108 -128.683674 
L 84.268525 -128.689807 
L 83.861941 -128.675747 
L 83.455358 -128.641068 
L 83.048775 -128.583723 
L 82.642192 -128.500743 
L 82.235611 -128.389702 
L 81.829028 -128.25019 
L 81.422444 -128.084669 
L 81.015861 -127.898401 
L 80.609278 -127.698502 
L 80.202694 -127.492313 
L 79.796111 -127.285496 
L 79.389528 -127.080478 
L 78.982947 -126.875935 
L 78.576364 -126.667715 
L 78.169781 -126.450979 
L 77.763197 -126.222631 
L 77.356614 -125.982919 
L 76.950031 -125.735492 
L 76.543449 -125.486021 
L 76.136865 -125.240183 
L 75.730282 -125.001987 
L 75.323699 -124.77305 
L 74.917117 -124.552862 
L 74.510534 -124.339645 
L 74.10395 -124.131362 
L 73.697367 -123.926486 
L 73.290785 -123.724423 
L 72.884202 -123.525532 
L 72.477618 -123.330835 
L 72.071035 -123.141533 
L 71.664453 -122.958511 
L 71.25787 -122.781979 
L 70.851287 -122.611354 
L 70.444703 -122.445423 
L 70.038121 -122.282714 
L 69.631538 -122.121993 
L 69.224955 -121.962711 
L 68.818371 -121.805228 
L 68.411789 -121.650722 
L 68.005206 -121.50078 
L 67.598623 -121.356826 
L 67.192041 -121.21966 
L 66.785458 -121.089356 
L 66.378875 -120.965601 
L 65.972292 -120.848288 
L 65.565709 -120.737964 
L 65.159126 -120.635758 
L 64.752543 -120.542745 
L 64.34596 -120.459098 
L 63.939377 -120.383554 
L 63.532794 -120.31357 
L 63.126211 -120.246131 
L 62.719628 -120.178804 
L 62.313046 -120.110507 
L 61.906463 -120.041675 
L 61.49988 -119.9738 
L 61.093297 -119.908633 
L 60.686714 -119.847437 
L 60.280131 -119.790603 
L 59.873548 -119.737707 
L 59.466965 -119.687871 
L 59.060382 -119.640158 
L 58.653799 -119.593838 
L 58.247216 -119.548478 
L 57.840633 -119.503961 
L 57.43405 -119.460504 
L 57.027467 -119.41868 
L 56.620884 -119.379374 
L 56.214301 -119.3436 
L 55.807719 -119.312217 
L 55.401136 -119.285631 
L 54.994553 -119.263587 
L 54.58797 -119.245176 
L 54.181387 -119.229042 
L 53.774804 -119.213762 
L 53.368221 -119.198221 
L 52.961638 -119.181857 
L 52.555055 -119.164662 
L 52.148472 -119.146974 
L 51.741889 -119.129198 
L 51.335307 -119.111616 
L 50.928723 -119.094365 
L 50.522141 -119.077533 
L 50.115558 -119.061268 
L 49.708975 -119.045785 
L 49.302392 -119.031297 
L 48.895809 -119.017921 
L 48.489226 -119.00566 
L 48.082643 -118.994466 
L 47.67606 -118.984317 
L 47.269478 -118.975263 
L 46.862894 -118.96738 
L 46.456311 -118.960688 
L 46.049728 -118.955069 
L 45.643146 -118.950252 
L 45.236563 -118.94587 
z
" style="stroke: #d94801; stroke-opacity: 0.1"/>
    </defs>
    <g clip-path="url(#p87279a14f8)">
     <use xlink:href="#m44c38e13e3" x="0" y="139.920781" style="fill: #d94801; fill-opacity: 0.1; stroke: #d94801; stroke-opacity: 0.1"/>
    </g>
   </g>
   <g id="matplotlib.axis_3">
    <g id="xtick_3">
     <g id="line2d_6">
      <g>
       <use xlink:href="#mf08dc2a8cb" x="57.684255" y="21.06" style="stroke: #000000; stroke-width: 1.5"/>
      </g>
     </g>
    </g>
    <g id="xtick_4">
     <g id="line2d_7">
      <g>
       <use xlink:href="#mf08dc2a8cb" x="99.176563" y="21.06" style="stroke: #000000; stroke-width: 1.5"/>
      </g>
     </g>
    </g>
   </g>
   <g id="matplotlib.axis_4">
    <g id="ytick_4">
     <g id="line2d_8">
      <g>
       <use xlink:href="#me2a55f076e" x="45.236562" y="21.06" style="stroke: #000000; stroke-width: 1.5"/>
      </g>
     </g>
    </g>
    <g id="ytick_5">
     <g id="line2d_9">
      <g>
       <use xlink:href="#me2a55f076e" x="45.236562" y="7.623418" style="stroke: #000000; stroke-width: 1.5"/>
      </g>
     </g>
    </g>
   </g>
   <g id="line2d_10">
    <path d="M 45.236563 20.955704 
L 52.148472 20.784986 
L 57.43405 20.478994 
L 61.093297 20.08693 
L 65.159126 19.334934 
L 68.005206 18.511935 
L 70.851287 17.513555 
L 72.884202 16.582852 
L 78.169781 13.974458 
L 84.268525 11.622525 
L 85.488275 11.571936 
L 87.114605 11.769731 
L 90.367264 12.516822 
L 92.400178 13.154156 
L 96.872591 14.932102 
L 105.817419 18.323499 
L 108.256913 18.996721 
L 112.729329 20.017332 
L 116.388569 20.486171 
L 120.047818 20.766768 
L 125.739979 20.980074 
L 126.146563 20.985519 
L 126.146563 20.985519 
" clip-path="url(#p87279a14f8)" style="fill: none; stroke: #08519c; stroke-width: 1.5; stroke-linecap: square"/>
   </g>
   <g id="line2d_11">
    <path d="M 45.236563 20.974911 
L 51.335307 20.809165 
L 57.840633 20.41682 
L 61.906463 19.879106 
L 65.565709 19.182817 
L 68.005206 18.420002 
L 71.664453 16.96227 
L 74.510534 15.581136 
L 76.950031 14.185289 
L 78.982947 13.044846 
L 82.235611 11.53108 
L 83.455358 11.279714 
L 84.675108 11.237108 
L 85.894855 11.378965 
L 88.740933 12.042949 
L 91.180431 12.870488 
L 96.466008 14.950571 
L 101.751586 17.261583 
L 103.784502 17.910734 
L 106.63058 18.794893 
L 108.663497 19.383669 
L 113.135913 20.298356 
L 115.981991 20.572871 
L 124.113646 20.986267 
L 126.146563 21.012266 
L 126.146563 21.012266 
" clip-path="url(#p87279a14f8)" style="fill: none; stroke: #d94801; stroke-width: 1.5; stroke-linecap: square"/>
   </g>
   <g id="patch_6">
    <path d="M 45.236562 21.06 
L 45.236562 7.2 
" style="fill: none; stroke: #000000; stroke-width: 1.5; stroke-linejoin: miter; stroke-linecap: square"/>
   </g>
   <g id="patch_7">
    <path d="M 45.236563 21.06 
L 126.146563 21.06 
" style="fill: none; stroke: #000000; stroke-width: 1.5; stroke-linejoin: miter; stroke-linecap: square"/>
   </g>
  </g>
  <g id="axes_3">
   <g id="patch_8">
    <path d="M 128.936563 104.22 
L 142.886563 104.22 
L 142.886563 23.832 
L 128.936563 23.832 
L 128.936563 104.22 
z
" style="fill: none"/>
   </g>
   <g id="PolyCollection_3">
    <path d="M 128.943187 104.22 
L 128.943187 -13.782521 
L 128.944881 -13.808117 
L 128.946915 -13.838863 
L 128.948694 -13.865754 
L 128.949506 -13.878024 
L 128.949068 -13.871406 
L 128.947872 -13.853332 
L 128.946989 -13.839989 
L 128.947484 -13.847464 
L 128.949821 -13.882781 
L 128.953553 -13.939186 
L 128.957436 -13.997871 
L 128.960064 -14.037589 
L 128.96089 -14.050072 
L 128.960879 -14.049913 
L 128.961903 -14.065396 
L 128.965199 -14.115201 
L 128.970461 -14.194737 
L 128.976389 -14.284324 
L 128.981723 -14.364947 
L 128.985635 -14.424069 
L 128.987551 -14.453026 
L 128.987239 -14.448317 
L 128.985323 -14.419353 
L 128.983466 -14.391282 
L 128.983569 -14.392846 
L 128.986402 -14.435663 
L 128.990916 -14.503888 
L 128.995023 -14.565953 
L 128.997183 -14.598598 
L 128.997361 -14.601295 
L 128.996684 -14.591061 
L 128.996494 -14.588185 
L 128.997719 -14.606699 
L 129.000685 -14.651528 
L 129.005114 -14.718468 
L 129.010334 -14.797365 
L 129.015726 -14.878855 
L 129.021016 -14.958808 
L 129.026196 -15.0371 
L 129.031554 -15.118086 
L 129.038016 -15.215746 
L 129.046799 -15.348498 
L 129.05796 -15.517181 
L 129.069669 -15.694144 
L 129.079941 -15.84939 
L 129.089107 -15.987926 
L 129.099907 -16.151161 
L 129.115319 -16.384087 
L 129.13694 -16.710859 
L 129.164809 -17.132068 
L 129.197283 -17.622877 
L 129.231077 -18.133633 
L 129.262998 -18.616087 
L 129.292552 -19.06275 
L 129.322608 -19.517008 
L 129.357588 -20.045702 
L 129.401539 -20.709962 
L 129.457547 -21.556464 
L 129.52775 -22.61749 
L 129.613511 -23.913663 
L 129.716495 -25.470149 
L 129.839656 -27.331572 
L 129.985805 -29.540447 
L 130.15448 -32.089767 
L 130.341123 -34.910646 
L 130.540087 -37.917757 
L 130.748982 -41.074962 
L 130.971979 -44.445284 
L 131.220794 -48.205833 
L 131.510843 -52.589571 
L 131.852461 -57.752717 
L 132.243643 -63.664979 
L 132.671752 -70.135336 
L 133.122391 -76.946197 
L 133.587111 -83.969887 
L 134.065161 -91.195039 
L 134.561107 -98.690681 
L 135.080026 -106.53352 
L 135.622323 -114.72969 
L 136.182987 -123.203452 
L 136.756687 -131.874253 
L 137.341496 -140.712932 
L 137.93536 -149.688483 
L 138.527846 -158.6432 
L 139.094753 -167.211326 
L 139.603221 -174.896204 
L 140.029071 -181.332423 
L 140.374072 -186.546704 
L 140.66522 -190.947065 
L 140.932278 -194.983328 
L 141.18154 -198.750627 
L 141.389591 -201.895065 
L 141.523613 -203.920643 
L 141.569537 -204.614736 
L 141.541664 -204.193466 
L 141.465547 -203.043051 
L 141.352266 -201.330941 
L 141.18952 -198.871223 
L 140.955622 -195.336145 
L 140.639104 -190.552345 
L 140.245743 -184.607169 
L 139.792839 -177.762069 
L 139.301178 -170.33119 
L 138.789766 -162.601814 
L 138.271296 -154.765752 
L 137.74931 -146.876561 
L 137.221424 -138.898193 
L 136.687443 -130.827713 
L 136.153552 -122.75858 
L 135.627988 -114.815306 
L 135.114839 -107.059671 
L 134.615374 -99.51086 
L 134.135448 -92.257349 
L 133.688668 -85.504799 
L 133.288994 -79.464208 
L 132.939976 -74.189216 
L 132.632649 -69.544328 
L 132.354104 -65.334454 
L 132.096034 -61.434043 
L 131.855284 -57.795395 
L 131.630165 -54.392988 
L 131.419031 -51.201942 
L 131.220775 -48.205547 
L 131.034691 -45.3931 
L 130.85992 -42.751655 
L 130.695544 -40.26731 
L 130.541444 -37.938265 
L 130.399786 -35.797281 
L 130.274811 -33.908427 
L 130.168803 -32.306249 
L 130.078109 -30.935515 
L 129.995679 -29.689675 
L 129.918306 -28.520287 
L 129.849275 -27.476958 
L 129.792885 -26.624693 
L 129.748268 -25.950362 
L 129.70992 -25.370778 
L 129.672875 -24.810889 
L 129.635517 -24.246263 
L 129.598019 -23.679522 
L 129.559998 -23.104889 
L 129.520356 -22.505733 
L 129.478786 -21.87746 
L 129.437027 -21.246323 
L 129.3985 -20.664025 
L 129.366511 -20.180558 
L 129.342556 -19.818505 
L 129.326011 -19.568445 
L 129.314755 -19.398333 
L 129.305635 -19.26049 
L 129.294782 -19.096457 
L 129.278494 -18.850291 
L 129.254846 -18.492875 
L 129.225264 -18.045776 
L 129.194533 -17.581313 
L 129.168349 -17.185581 
L 129.149956 -16.907581 
L 129.138786 -16.738758 
L 129.132076 -16.637354 
L 129.127402 -16.566704 
L 129.123744 -16.511422 
L 129.120761 -16.466334 
L 129.117594 -16.418474 
L 129.112709 -16.344644 
L 129.104987 -16.227938 
L 129.09462 -16.071244 
L 129.082494 -15.887978 
L 129.06905 -15.684781 
L 129.054592 -15.466272 
L 129.040673 -15.255897 
L 129.029908 -15.093202 
L 129.023665 -14.998855 
L 129.020558 -14.951889 
L 129.017835 -14.91073 
L 129.013836 -14.850288 
L 129.008755 -14.773496 
L 129.003635 -14.696123 
L 128.999264 -14.630051 
L 128.995868 -14.578726 
L 128.993362 -14.540852 
L 128.991598 -14.514189 
L 128.990355 -14.495405 
L 128.989245 -14.478631 
L 128.987943 -14.458954 
L 128.986676 -14.4398 
L 128.98616 -14.432008 
L 128.986637 -14.439216 
L 128.987085 -14.445989 
L 128.985812 -14.426752 
L 128.981917 -14.367874 
L 128.976089 -14.279787 
L 128.970114 -14.189487 
L 128.965649 -14.122013 
L 128.963171 -14.084547 
L 128.961817 -14.064094 
L 128.960285 -14.04093 
L 128.957984 -14.006163 
L 128.955421 -13.96742 
L 128.953579 -13.939585 
L 128.953579 23.832 
L 128.953579 23.832 
L 128.955421 24.235958 
L 128.957984 24.63992 
L 128.960285 25.043878 
L 128.961817 25.44784 
L 128.963171 25.851798 
L 128.965649 26.25576 
L 128.970114 26.659719 
L 128.976089 27.063677 
L 128.981917 27.467635 
L 128.985812 27.871597 
L 128.987085 28.275555 
L 128.986637 28.679517 
L 128.98616 29.083475 
L 128.986676 29.487437 
L 128.987943 29.891395 
L 128.989245 30.295357 
L 128.990355 30.699315 
L 128.991598 31.103277 
L 128.993362 31.507236 
L 128.995868 31.911197 
L 128.999264 32.315156 
L 129.003635 32.719117 
L 129.008755 33.123076 
L 129.013836 33.527034 
L 129.017835 33.930992 
L 129.020558 34.334954 
L 129.023665 34.738912 
L 129.029908 35.142874 
L 129.040673 35.546832 
L 129.054592 35.950794 
L 129.06905 36.354753 
L 129.082494 36.758714 
L 129.09462 37.162673 
L 129.104987 37.566634 
L 129.112709 37.970593 
L 129.117594 38.374554 
L 129.120761 38.778513 
L 129.123744 39.182474 
L 129.127402 39.586433 
L 129.132076 39.990391 
L 129.138786 40.394353 
L 129.149956 40.798308 
L 129.168349 41.202269 
L 129.194533 41.606231 
L 129.225264 42.010193 
L 129.254846 42.414148 
L 129.278494 42.81811 
L 129.294782 43.222071 
L 129.305635 43.626033 
L 129.314755 44.029988 
L 129.326011 44.43395 
L 129.342556 44.837911 
L 129.366511 45.241873 
L 129.3985 45.645828 
L 129.437027 46.04979 
L 129.478786 46.453751 
L 129.520356 46.857713 
L 129.559998 47.261668 
L 129.598019 47.66563 
L 129.635517 48.069591 
L 129.672875 48.473553 
L 129.70992 48.877508 
L 129.748268 49.28147 
L 129.792885 49.685425 
L 129.849275 50.089387 
L 129.918306 50.493342 
L 129.995679 50.897303 
L 130.078109 51.301265 
L 130.168803 51.705227 
L 130.274811 52.109182 
L 130.399786 52.513144 
L 130.541444 52.917105 
L 130.695544 53.321067 
L 130.85992 53.725022 
L 131.034691 54.128984 
L 131.220775 54.532945 
L 131.419031 54.936907 
L 131.630165 55.340862 
L 131.855284 55.744824 
L 132.096034 56.148785 
L 132.354104 56.552747 
L 132.632649 56.956702 
L 132.939976 57.360664 
L 133.288994 57.764625 
L 133.688668 58.168587 
L 134.135448 58.572542 
L 134.615374 58.976504 
L 135.114839 59.380459 
L 135.627988 59.784421 
L 136.153552 60.188376 
L 136.687443 60.592337 
L 137.221424 60.996299 
L 137.74931 61.400261 
L 138.271296 61.804216 
L 138.789766 62.208178 
L 139.301178 62.612139 
L 139.792839 63.016101 
L 140.245743 63.420056 
L 140.639104 63.824018 
L 140.955622 64.227979 
L 141.18952 64.631941 
L 141.352266 65.035896 
L 141.465547 65.439858 
L 141.541664 65.843819 
L 141.569537 66.247781 
L 141.523613 66.651736 
L 141.389591 67.055698 
L 141.18154 67.459659 
L 140.932278 67.863621 
L 140.66522 68.267576 
L 140.374072 68.671538 
L 140.029071 69.075499 
L 139.603221 69.479461 
L 139.094753 69.883416 
L 138.527846 70.287378 
L 137.93536 70.691339 
L 137.341496 71.095301 
L 136.756687 71.499256 
L 136.182987 71.903218 
L 135.622323 72.30718 
L 135.080026 72.711141 
L 134.561107 73.115096 
L 134.065161 73.519058 
L 133.587111 73.92302 
L 133.122391 74.326981 
L 132.671752 74.730936 
L 132.243643 75.134898 
L 131.852461 75.538853 
L 131.510843 75.942815 
L 131.220794 76.34677 
L 130.971979 76.750732 
L 130.748982 77.154693 
L 130.540087 77.558655 
L 130.341123 77.96261 
L 130.15448 78.366572 
L 129.985805 78.770533 
L 129.839656 79.174495 
L 129.716495 79.57845 
L 129.613511 79.982412 
L 129.52775 80.386373 
L 129.457547 80.790335 
L 129.401539 81.19429 
L 129.357588 81.598252 
L 129.322608 82.002214 
L 129.292552 82.406175 
L 129.262998 82.81013 
L 129.231077 83.214092 
L 129.197283 83.618054 
L 129.164809 84.022015 
L 129.13694 84.42597 
L 129.115319 84.829932 
L 129.099907 85.233887 
L 129.089107 85.637849 
L 129.079941 86.041804 
L 129.069669 86.445766 
L 129.05796 86.849727 
L 129.046799 87.253689 
L 129.038016 87.657644 
L 129.031554 88.061606 
L 129.026196 88.465567 
L 129.021016 88.869529 
L 129.015726 89.273484 
L 129.010334 89.677446 
L 129.005114 90.081407 
L 129.000685 90.485369 
L 128.997719 90.889324 
L 128.996494 91.293286 
L 128.996684 91.697241 
L 128.997361 92.101203 
L 128.997183 92.505158 
L 128.995023 92.90912 
L 128.990916 93.313081 
L 128.986402 93.717036 
L 128.983569 94.121004 
L 128.983466 94.52496 
L 128.985323 94.928928 
L 128.987239 95.332883 
L 128.987551 95.736838 
L 128.985635 96.140806 
L 128.981723 96.544761 
L 128.976389 96.948717 
L 128.970461 97.352685 
L 128.965199 97.75664 
L 128.961903 98.160595 
L 128.960879 98.564563 
L 128.96089 98.968518 
L 128.960064 99.372486 
L 128.957436 99.776441 
L 128.953553 100.180397 
L 128.949821 100.584365 
L 128.947484 100.98832 
L 128.946989 101.392288 
L 128.947872 101.796243 
L 128.949068 102.200198 
L 128.949506 102.604166 
L 128.948694 103.008122 
L 128.946915 103.412077 
L 128.944881 103.816045 
L 128.943187 104.22 
z
" clip-path="url(#pe692130bfd)" style="fill: #08519c; fill-opacity: 0.1; stroke: #08519c; stroke-opacity: 0.1"/>
   </g>
   <g id="PolyCollection_4">
    <path d="M 128.951421 104.22 
L 128.951421 -13.90697 
L 128.949856 -13.883318 
L 128.948293 -13.859686 
L 128.947375 -13.84581 
L 128.947475 -13.847322 
L 128.948625 -13.864708 
L 128.950439 -13.892117 
L 128.952266 -13.919741 
L 128.953634 -13.940409 
L 128.954506 -13.953597 
L 128.955061 -13.961982 
L 128.955356 -13.966436 
L 128.955453 -13.967913 
L 128.955817 -13.973411 
L 128.957272 -13.995391 
L 128.96035 -14.041921 
L 128.964655 -14.10699 
L 128.968937 -14.171697 
L 128.971916 -14.21672 
L 128.973142 -14.235256 
L 128.973144 -14.235279 
L 128.972925 -14.231967 
L 128.973432 -14.239636 
L 128.975214 -14.266575 
L 128.978123 -14.310529 
L 128.981244 -14.357703 
L 128.983403 -14.390338 
L 128.984024 -14.399724 
L 128.983695 -14.39475 
L 128.983925 -14.398232 
L 128.98615 -14.431851 
L 128.990689 -14.500454 
L 128.996532 -14.588765 
L 129.002197 -14.674388 
L 129.007032 -14.747466 
L 129.011803 -14.81957 
L 129.017904 -14.91178 
L 129.025907 -15.032741 
L 129.034903 -15.168692 
L 129.043318 -15.295884 
L 129.050582 -15.405664 
L 129.058137 -15.519852 
L 129.068554 -15.67729 
L 129.083196 -15.898586 
L 129.100697 -16.163091 
L 129.1179 -16.423102 
L 129.132414 -16.642458 
L 129.144587 -16.82644 
L 129.157472 -17.021188 
L 129.174926 -17.284983 
L 129.199337 -17.653917 
L 129.230641 -18.127048 
L 129.26706 -18.677479 
L 129.306895 -19.279537 
L 129.350318 -19.935815 
L 129.39971 -20.68232 
L 129.457757 -21.559626 
L 129.525029 -22.576361 
L 129.600209 -23.712621 
L 129.68343 -24.970414 
L 129.778942 -26.413957 
L 129.893409 -28.143996 
L 130.031249 -30.227279 
L 130.192315 -32.661596 
L 130.374245 -35.411249 
L 130.575896 -38.458962 
L 130.797915 -41.814525 
L 131.041692 -45.498923 
L 131.309748 -49.550258 
L 131.607487 -54.050235 
L 131.943607 -59.13029 
L 132.32711 -64.926474 
L 132.761029 -71.484642 
L 133.237525 -78.68631 
L 133.741249 -86.299497 
L 134.260972 -94.154489 
L 134.796232 -102.244316 
L 135.348587 -110.59249 
L 135.908346 -119.05259 
L 136.457974 -127.359559 
L 136.991264 -135.419602 
L 137.52393 -143.470211 
L 138.079867 -151.872527 
L 138.665683 -160.726451 
L 139.257672 -169.673657 
L 139.813008 -178.066884 
L 140.296207 -185.369872 
L 140.700037 -191.473281 
L 141.043283 -196.661037 
L 141.345701 -201.231718 
L 141.600639 -205.084808 
L 141.772034 -207.675225 
L 141.822793 -208.442401 
L 141.749051 -207.327866 
L 141.585152 -204.85073 
L 141.376025 -201.690035 
L 141.14804 -198.244305 
L 140.901727 -194.521575 
L 140.619144 -190.250682 
L 140.273333 -185.024149 
L 139.843596 -178.529197 
L 139.336514 -170.865248 
L 138.791856 -162.633398 
L 138.258915 -154.578623 
L 137.764107 -147.100198 
L 137.30197 -140.115543 
L 136.852196 -133.31775 
L 136.398934 -126.467245 
L 135.937103 -119.487208 
L 135.469706 -112.423059 
L 135.00375 -105.38069 
L 134.546537 -98.470463 
L 134.103624 -91.776367 
L 133.679526 -85.366625 
L 133.279378 -79.31887 
L 132.908781 -73.717745 
L 132.572522 -68.635594 
L 132.272754 -64.104951 
L 132.006221 -60.076628 
L 131.763317 -56.405418 
L 131.533661 -52.93444 
L 131.314207 -49.617661 
L 131.109315 -46.520962 
L 130.922392 -43.695841 
L 130.75138 -41.111205 
L 130.593601 -38.726555 
L 130.451302 -36.575873 
L 130.329937 -34.741588 
L 130.232074 -33.262502 
L 130.153423 -32.073792 
L 130.083903 -31.023075 
L 130.013185 -29.954267 
L 129.937179 -28.805522 
L 129.8597 -27.634519 
L 129.787456 -26.542632 
L 129.723747 -25.57975 
L 129.667255 -24.725936 
L 129.615644 -23.945897 
L 129.568998 -23.240909 
L 129.529673 -22.646555 
L 129.499249 -22.186732 
L 129.475735 -21.831348 
L 129.453894 -21.501251 
L 129.428625 -21.119339 
L 129.398425 -20.662903 
L 129.366213 -20.176055 
L 129.337376 -19.740212 
L 129.316437 -19.423741 
L 129.30391 -19.234422 
L 129.295385 -19.105576 
L 129.284397 -18.939505 
L 129.267334 -18.681621 
L 129.24594 -18.358271 
L 129.225126 -18.043685 
L 129.208482 -17.792139 
L 129.195792 -17.600347 
L 129.18437 -17.427719 
L 129.172047 -17.241471 
L 129.158594 -17.038132 
L 129.145085 -16.833965 
L 129.132866 -16.649287 
L 129.122845 -16.497841 
L 129.114809 -16.376379 
L 129.107251 -16.262145 
L 129.09854 -16.130497 
L 129.088469 -15.978281 
L 129.078289 -15.824423 
L 129.069313 -15.688757 
L 129.062019 -15.578523 
L 129.056519 -15.495391 
L 129.053142 -15.444353 
L 129.052102 -15.428636 
L 129.052822 -15.439515 
L 129.05389 -15.45566 
L 129.053635 -15.451809 
L 129.050741 -15.408064 
L 129.044592 -15.315129 
L 129.035366 -15.175692 
L 129.023937 -15.002963 
L 129.011667 -14.817514 
L 129.000145 -14.643369 
L 128.990823 -14.502484 
L 128.984511 -14.407077 
L 128.981061 -14.354946 
L 128.979669 -14.333902 
L 128.979445 -14.33051 
L 128.979533 -14.331853 
L 128.978933 -14.322771 
L 128.976954 -14.292871 
L 128.974179 -14.25092 
L 128.972394 -14.223944 
L 128.973025 -14.233492 
L 128.975637 -14.272967 
L 128.978141 -14.310804 
L 128.97844 -14.315332 
L 128.975869 -14.276465 
L 128.971254 -14.206718 
L 128.965942 -14.126437 
L 128.960901 -14.050239 
L 128.956535 -13.984257 
L 128.956535 23.832 
L 128.956535 23.832 
L 128.960901 24.235958 
L 128.965942 24.63992 
L 128.971254 25.043878 
L 128.975869 25.44784 
L 128.97844 25.851798 
L 128.978141 26.25576 
L 128.975637 26.659719 
L 128.973025 27.063677 
L 128.972394 27.467635 
L 128.974179 27.871597 
L 128.976954 28.275555 
L 128.978933 28.679517 
L 128.979533 29.083475 
L 128.979445 29.487437 
L 128.979669 29.891395 
L 128.981061 30.295357 
L 128.984511 30.699315 
L 128.990823 31.103277 
L 129.000145 31.507236 
L 129.011667 31.911197 
L 129.023937 32.315156 
L 129.035366 32.719117 
L 129.044592 33.123076 
L 129.050741 33.527034 
L 129.053635 33.930992 
L 129.05389 34.334954 
L 129.052822 34.738912 
L 129.052102 35.142874 
L 129.053142 35.546832 
L 129.056519 35.950794 
L 129.062019 36.354753 
L 129.069313 36.758714 
L 129.078289 37.162673 
L 129.088469 37.566634 
L 129.09854 37.970593 
L 129.107251 38.374554 
L 129.114809 38.778513 
L 129.122845 39.182474 
L 129.132866 39.586433 
L 129.145085 39.990391 
L 129.158594 40.394353 
L 129.172047 40.798308 
L 129.18437 41.202269 
L 129.195792 41.606231 
L 129.208482 42.010193 
L 129.225126 42.414148 
L 129.24594 42.81811 
L 129.267334 43.222071 
L 129.284397 43.626033 
L 129.295385 44.029988 
L 129.30391 44.43395 
L 129.316437 44.837911 
L 129.337376 45.241873 
L 129.366213 45.645828 
L 129.398425 46.04979 
L 129.428625 46.453751 
L 129.453894 46.857713 
L 129.475735 47.261668 
L 129.499249 47.66563 
L 129.529673 48.069591 
L 129.568998 48.473553 
L 129.615644 48.877508 
L 129.667255 49.28147 
L 129.723747 49.685425 
L 129.787456 50.089387 
L 129.8597 50.493342 
L 129.937179 50.897303 
L 130.013185 51.301265 
L 130.083903 51.705227 
L 130.153423 52.109182 
L 130.232074 52.513144 
L 130.329937 52.917105 
L 130.451302 53.321067 
L 130.593601 53.725022 
L 130.75138 54.128984 
L 130.922392 54.532945 
L 131.109315 54.936907 
L 131.314207 55.340862 
L 131.533661 55.744824 
L 131.763317 56.148785 
L 132.006221 56.552747 
L 132.272754 56.956702 
L 132.572522 57.360664 
L 132.908781 57.764625 
L 133.279378 58.168587 
L 133.679526 58.572542 
L 134.103624 58.976504 
L 134.546537 59.380459 
L 135.00375 59.784421 
L 135.469706 60.188376 
L 135.937103 60.592337 
L 136.398934 60.996299 
L 136.852196 61.400261 
L 137.30197 61.804216 
L 137.764107 62.208178 
L 138.258915 62.612139 
L 138.791856 63.016101 
L 139.336514 63.420056 
L 139.843596 63.824018 
L 140.273333 64.227979 
L 140.619144 64.631941 
L 140.901727 65.035896 
L 141.14804 65.439858 
L 141.376025 65.843819 
L 141.585152 66.247781 
L 141.749051 66.651736 
L 141.822793 67.055698 
L 141.772034 67.459659 
L 141.600639 67.863621 
L 141.345701 68.267576 
L 141.043283 68.671538 
L 140.700037 69.075499 
L 140.296207 69.479461 
L 139.813008 69.883416 
L 139.257672 70.287378 
L 138.665683 70.691339 
L 138.079867 71.095301 
L 137.52393 71.499256 
L 136.991264 71.903218 
L 136.457974 72.30718 
L 135.908346 72.711141 
L 135.348587 73.115096 
L 134.796232 73.519058 
L 134.260972 73.92302 
L 133.741249 74.326981 
L 133.237525 74.730936 
L 132.761029 75.134898 
L 132.32711 75.538853 
L 131.943607 75.942815 
L 131.607487 76.34677 
L 131.309748 76.750732 
L 131.041692 77.154693 
L 130.797915 77.558655 
L 130.575896 77.96261 
L 130.374245 78.366572 
L 130.192315 78.770533 
L 130.031249 79.174495 
L 129.893409 79.57845 
L 129.778942 79.982412 
L 129.68343 80.386373 
L 129.600209 80.790335 
L 129.525029 81.19429 
L 129.457757 81.598252 
L 129.39971 82.002214 
L 129.350318 82.406175 
L 129.306895 82.81013 
L 129.26706 83.214092 
L 129.230641 83.618054 
L 129.199337 84.022015 
L 129.174926 84.42597 
L 129.157472 84.829932 
L 129.144587 85.233887 
L 129.132414 85.637849 
L 129.1179 86.041804 
L 129.100697 86.445766 
L 129.083196 86.849727 
L 129.068554 87.253689 
L 129.058137 87.657644 
L 129.050582 88.061606 
L 129.043318 88.465567 
L 129.034903 88.869529 
L 129.025907 89.273484 
L 129.017904 89.677446 
L 129.011803 90.081407 
L 129.007032 90.485369 
L 129.002197 90.889324 
L 128.996532 91.293286 
L 128.990689 91.697241 
L 128.98615 92.101203 
L 128.983925 92.505158 
L 128.983695 92.90912 
L 128.984024 93.313081 
L 128.983403 93.717036 
L 128.981244 94.121004 
L 128.978123 94.52496 
L 128.975214 94.928928 
L 128.973432 95.332883 
L 128.972925 95.736838 
L 128.973144 96.140806 
L 128.973142 96.544761 
L 128.971916 96.948717 
L 128.968937 97.352685 
L 128.964655 97.75664 
L 128.96035 98.160595 
L 128.957272 98.564563 
L 128.955817 98.968518 
L 128.955453 99.372486 
L 128.955356 99.776441 
L 128.955061 100.180397 
L 128.954506 100.584365 
L 128.953634 100.98832 
L 128.952266 101.392288 
L 128.950439 101.796243 
L 128.948625 102.200198 
L 128.947475 102.604166 
L 128.947375 103.008122 
L 128.948293 103.412077 
L 128.949856 103.816045 
L 128.951421 104.22 
z
" clip-path="url(#pe692130bfd)" style="fill: #d94801; fill-opacity: 0.1; stroke: #d94801; stroke-opacity: 0.1"/>
   </g>
   <g id="matplotlib.axis_5">
    <g id="xtick_5">
     <g id="line2d_12">
      <g>
       <use xlink:href="#mf08dc2a8cb" x="128.936563" y="104.22" style="stroke: #000000; stroke-width: 1.5"/>
      </g>
     </g>
    </g>
    <g id="xtick_6">
     <g id="line2d_13">
      <g>
       <use xlink:href="#mf08dc2a8cb" x="137.801304" y="104.22" style="stroke: #000000; stroke-width: 1.5"/>
      </g>
     </g>
    </g>
   </g>
   <g id="matplotlib.axis_6">
    <g id="ytick_6">
     <g id="line2d_14">
      <g>
       <use xlink:href="#me2a55f076e" x="128.936563" y="93.501598" style="stroke: #000000; stroke-width: 1.5"/>
      </g>
     </g>
    </g>
    <g id="ytick_7">
     <g id="line2d_15">
      <g>
       <use xlink:href="#me2a55f076e" x="128.936563" y="66.705599" style="stroke: #000000; stroke-width: 1.5"/>
      </g>
     </g>
    </g>
    <g id="ytick_8">
     <g id="line2d_16">
      <g>
       <use xlink:href="#me2a55f076e" x="128.936563" y="39.9096" style="stroke: #000000; stroke-width: 1.5"/>
      </g>
     </g>
    </g>
   </g>
   <g id="line2d_17">
    <path d="M 128.943187 104.22 
L 129.13694 84.42597 
L 129.457547 80.790335 
L 129.839656 79.174495 
L 130.540087 77.558655 
L 131.220794 76.34677 
L 131.852461 75.538853 
L 133.122391 74.326981 
L 135.080026 72.711141 
L 137.93536 70.691339 
L 139.603221 69.479461 
L 140.374072 68.671538 
L 141.18154 67.459659 
L 141.523613 66.651736 
L 141.541664 65.843819 
L 141.352266 65.035896 
L 140.955622 64.227979 
L 140.245743 63.420056 
L 138.271296 61.804216 
L 133.688668 58.168587 
L 132.632649 56.956702 
L 131.630165 55.340862 
L 130.695544 53.321067 
L 130.168803 51.705227 
L 129.792885 49.685425 
L 129.342556 44.837911 
L 129.020558 34.334954 
L 128.953579 23.832 
L 128.953579 23.832 
" clip-path="url(#pe692130bfd)" style="fill: none; stroke: #08519c; stroke-width: 1.5; stroke-linecap: square"/>
   </g>
   <g id="line2d_18">
    <path d="M 128.951421 104.22 
L 129.007032 90.485369 
L 129.174926 84.42597 
L 129.39971 82.002214 
L 129.778942 79.982412 
L 130.192315 78.770533 
L 131.041692 77.154693 
L 131.943607 75.942815 
L 133.237525 74.730936 
L 135.908346 72.711141 
L 140.700037 69.075499 
L 141.600639 67.863621 
L 141.822793 67.055698 
L 141.585152 66.247781 
L 140.901727 65.035896 
L 140.273333 64.227979 
L 139.336514 63.420056 
L 137.30197 61.804216 
L 132.908781 57.764625 
L 132.006221 56.552747 
L 131.109315 54.936907 
L 130.451302 53.321067 
L 130.153423 52.109182 
L 129.499249 47.66563 
L 129.132866 39.586433 
L 128.979533 29.083475 
L 128.956535 23.832 
L 128.956535 23.832 
" clip-path="url(#pe692130bfd)" style="fill: none; stroke: #d94801; stroke-width: 1.5; stroke-linecap: square"/>
   </g>
   <g id="patch_9">
    <path d="M 128.936563 104.22 
L 128.936563 23.832 
" style="fill: none; stroke: #000000; stroke-width: 1.5; stroke-linejoin: miter; stroke-linecap: square"/>
   </g>
   <g id="patch_10">
    <path d="M 128.936563 104.22 
L 142.886563 104.22 
" style="fill: none; stroke: #000000; stroke-width: 1.5; stroke-linejoin: miter; stroke-linecap: square"/>
   </g>
  </g>
 </g>
 <defs>
  <clipPath id="p8f18cd961a">
   <rect x="45.236562" y="23.832" width="80.91" height="80.388"/>
  </clipPath>
  <clipPath id="p87279a14f8">
   <rect x="45.236562" y="7.2" width="80.91" height="13.86"/>
  </clipPath>
  <clipPath id="pe692130bfd">
   <rect x="128.936563" y="23.832" width="13.95" height="80.388"/>
  </clipPath>
 </defs>
</svg>
