<?xml version="1.0" encoding="utf-8" standalone="no"?>
<!DOCTYPE svg PUBLIC "-//W3C//DTD SVG 1.1//EN"
  "http://www.w3.org/Graphics/SVG/1.1/DTD/svg11.dtd">
<svg xmlns:xlink="http://www.w3.org/1999/xlink" width="117.794844pt" height="139.920781pt" viewBox="0 0 117.794844 139.920781" xmlns="http://www.w3.org/2000/svg" version="1.1">
 <metadata>
  <rdf:RDF xmlns:dc="http://purl.org/dc/elements/1.1/" xmlns:cc="http://creativecommons.org/ns#" xmlns:rdf="http://www.w3.org/1999/02/22-rdf-syntax-ns#">
   <cc:Work>
    <dc:type rdf:resource="http://purl.org/dc/dcmitype/StillImage"/>
    <dc:date>2023-01-24T09:47:27.600465</dc:date>
    <dc:format>image/svg+xml</dc:format>
    <dc:creator>
     <cc:Agent>
      <dc:title>Matplotlib v3.5.3, https://matplotlib.org/</dc:title>
     </cc:Agent>
    </dc:creator>
   </cc:Work>
  </rdf:RDF>
 </metadata>
 <defs>
  <style type="text/css">*{stroke-linejoin: round; stroke-linecap: butt}</style>
 </defs>
 <g id="figure_1">
  <g id="patch_1">
   <path d="M 0 139.920781 
L 117.794844 139.920781 
L 117.794844 0 
L 0 0 
L 0 139.920781 
z
" style="fill: none"/>
  </g>
  <g id="axes_1">
   <g id="patch_2">
    <path d="M 32.474844 104.22 
L 97.202844 104.22 
L 97.202844 23.832 
L 32.474844 23.832 
L 32.474844 104.22 
z
" style="fill: none"/>
   </g>
   <g id="PathCollection_1">
    <defs>
     <path id="m4893d3672f" d="M 0 1.5 
C 0.397805 1.5 0.77937 1.341951 1.06066 1.06066 
C 1.341951 0.77937 1.5 0.397805 1.5 0 
C 1.5 -0.397805 1.341951 -0.77937 1.06066 -1.06066 
C 0.77937 -1.341951 0.397805 -1.5 0 -1.5 
C -0.397805 -1.5 -0.77937 -1.341951 -1.06066 -1.06066 
C -1.341951 -0.77937 -1.5 -0.397805 -1.5 0 
C -1.5 0.397805 -1.341951 0.77937 -1.06066 1.06066 
C -0.77937 1.341951 -0.397805 1.5 0 1.5 
z
" style="stroke: #08519c"/>
    </defs>
    <g clip-path="url(#p2b335f8ee2)">
     <use xlink:href="#m4893d3672f" x="44.689778" y="67.59882" style="fill: #08519c; stroke: #08519c"/>
    </g>
   </g>
   <g id="matplotlib.axis_1">
    <g id="xtick_1">
     <g id="line2d_1">
      <defs>
       <path id="m5276ecb0e3" d="M 0 0 
L 0 3.5 
" style="stroke: #000000; stroke-width: 1.5"/>
      </defs>
      <g>
       <use xlink:href="#m5276ecb0e3" x="54.050844" y="104.22" style="stroke: #000000; stroke-width: 1.5"/>
      </g>
     </g>
     <g id="text_1">
      <text style="font: 9px 'Arial'; text-anchor: middle" x="54.050844" y="117.662031" transform="rotate(-0, 54.050844, 117.662031)">2</text>
     </g>
    </g>
    <g id="xtick_2">
     <g id="line2d_2">
      <g>
       <use xlink:href="#m5276ecb0e3" x="87.244691" y="104.22" style="stroke: #000000; stroke-width: 1.5"/>
      </g>
     </g>
     <g id="text_2">
      <text style="font: 9px 'Arial'; text-anchor: middle" x="87.244691" y="117.662031" transform="rotate(-0, 87.244691, 117.662031)">4</text>
     </g>
    </g>
    <g id="text_3">
     <!-- $\theta_1$ -->
     <g transform="translate(60.248844 130.020781)">
      <text>
       <tspan style="font: 9px 'Arial'" x="0" y="-0.453125">θ</tspan>
       <tspan style="font: 6.3px 'Arial'" x="5.162182" y="2.2350624999999997">1</tspan>
      </text>
     </g>
    </g>
   </g>
   <g id="matplotlib.axis_2">
    <g id="ytick_1">
     <g id="line2d_3">
      <defs>
       <path id="me00c5fa6f1" d="M 0 0 
L -3.5 0 
" style="stroke: #000000; stroke-width: 1.5"/>
      </defs>
      <g>
       <use xlink:href="#me00c5fa6f1" x="32.474844" y="86.1327" style="stroke: #000000; stroke-width: 1.5"/>
      </g>
     </g>
     <g id="text_4">
      <text style="font: 9px 'Arial'; text-anchor: end" x="25.474844" y="89.353715" transform="rotate(-0, 25.474844, 89.353715)">1</text>
     </g>
    </g>
    <g id="ytick_2">
     <g id="line2d_4">
      <g>
       <use xlink:href="#me00c5fa6f1" x="32.474844" y="66.035699" style="stroke: #000000; stroke-width: 1.5"/>
      </g>
     </g>
     <g id="text_5">
      <text style="font: 9px 'Arial'; text-anchor: end" x="25.474844" y="69.256715" transform="rotate(-0, 25.474844, 69.256715)">2</text>
     </g>
    </g>
    <g id="ytick_3">
     <g id="line2d_5">
      <g>
       <use xlink:href="#me00c5fa6f1" x="32.474844" y="45.938699" style="stroke: #000000; stroke-width: 1.5"/>
      </g>
     </g>
     <g id="text_6">
      <text style="font: 9px 'Arial'; text-anchor: end" x="25.474844" y="49.159714" transform="rotate(-0, 25.474844, 49.159714)">3</text>
     </g>
    </g>
    <g id="ytick_4">
     <g id="line2d_6">
      <g>
       <use xlink:href="#me00c5fa6f1" x="32.474844" y="25.841698" style="stroke: #000000; stroke-width: 1.5"/>
      </g>
     </g>
     <g id="text_7">
      <text style="font: 9px 'Arial'; text-anchor: end" x="25.474844" y="29.062714" transform="rotate(-0, 25.474844, 29.062714)">4</text>
     </g>
    </g>
    <g id="text_8">
     <!-- $\theta_2$ -->
     <g transform="translate(13.77 68.616)rotate(-90)">
      <text>
       <tspan style="font: 9px 'Arial'" x="0" y="-0.453125">θ</tspan>
       <tspan style="font: 6.3px 'Arial'" x="5.162182" y="2.2350624999999997">2</tspan>
      </text>
     </g>
    </g>
   </g>
   <g id="PathCollection_2">
    <path d="M 60.773009 23.832 
L 60.773009 28.679516 
L 61.09828 29.083477 
L 61.09828 46.857708 
L 61.423547 47.26167 
L 61.423547 55.340864 
L 61.09828 55.744826 
L 61.09828 74.326975 
L 60.773009 74.730934 
L 60.773009 83.618049 
L 60.447747 84.022011 
L 60.447747 90.485366 
L 60.12248 90.889327 
L 60.12248 98.564563 
L 59.797214 98.968522 
L 59.797214 104.22 
L 59.797214 104.22 
" clip-path="url(#p2b335f8ee2)" style="fill: none"/>
   </g>
   <g id="PathCollection_3">
    <path d="M 39.926567 89.273487 
L 39.878613 88.869527 
L 39.8387 88.465568 
L 39.805902 88.061608 
L 39.779347 87.657649 
L 39.758246 87.253689 
L 39.741905 86.849729 
L 39.729728 86.445769 
L 39.721206 86.04181 
L 39.715901 85.63785 
L 39.713418 85.233889 
L 39.713383 84.82993 
L 39.715431 84.42597 
L 39.719185 84.022011 
L 39.724261 83.618049 
L 39.730272 83.21409 
L 39.736852 82.810131 
L 39.743683 82.406172 
L 39.750522 82.00221 
L 39.757237 81.598251 
L 39.763814 81.194292 
L 39.770358 80.790332 
L 39.777069 80.386371 
L 39.784196 79.982411 
L 39.791991 79.578452 
L 39.800653 79.174493 
L 39.810296 78.770531 
L 39.820927 78.366572 
L 39.832452 77.962613 
L 39.844694 77.558654 
L 39.857435 77.154692 
L 39.87045 76.750733 
L 39.883556 76.346773 
L 39.896635 75.942814 
L 39.909663 75.538853 
L 39.92271 75.134893 
L 39.93594 74.730934 
L 39.949596 74.326975 
L 39.955969 74.145899 
L 39.962448 73.923013 
L 39.975061 73.519054 
L 39.988922 73.115095 
L 40.004202 72.711135 
L 40.020985 72.307174 
L 40.03925 71.903215 
L 40.05887 71.499255 
L 40.079643 71.095296 
L 40.10133 70.691334 
L 40.123713 70.287375 
L 40.146636 69.883416 
L 40.170038 69.479457 
L 40.193957 69.075495 
L 40.218519 68.671538 
L 40.243921 68.267579 
L 40.270401 67.86362 
L 40.281236 67.70432 
L 40.296014 67.459658 
L 40.320905 67.055699 
L 40.346198 66.65174 
L 40.371772 66.24778 
L 40.397575 65.843819 
L 40.423638 65.439857 
L 40.450094 65.035895 
L 40.477179 64.631939 
L 40.505238 64.227977 
L 40.534723 63.82402 
L 40.566197 63.420059 
L 40.600329 63.016097 
L 40.606502 62.946864 
L 40.645646 62.61214 
L 40.695693 62.208183 
L 40.749094 61.804222 
L 40.806099 61.400265 
L 40.866867 60.996303 
L 40.93144 60.592346 
L 40.931769 60.590309 
L 41.029525 60.188385 
L 41.116639 59.784423 
L 41.192803 59.380466 
L 41.257036 58.990973 
L 41.261136 58.976504 
L 41.379452 58.572543 
L 41.509052 58.168586 
L 41.5823 57.944075 
L 41.660901 57.764624 
L 41.907567 57.37993 
L 41.91405 57.360667 
L 42.045449 56.956706 
L 42.189048 56.552744 
L 42.232834 56.434655 
L 42.409899 56.148787 
L 42.5581 55.895569 
L 42.851074 56.148787 
L 42.883365 56.180669 
L 43.02886 56.552744 
L 43.195277 56.956706 
L 43.208631 56.987645 
L 43.305653 57.360667 
L 43.425416 57.764624 
L 43.533898 58.078105 
L 43.552413 58.168586 
L 43.635942 58.572543 
L 43.718463 58.976504 
L 43.799782 59.380466 
L 43.859165 59.679895 
L 43.881647 59.784423 
L 43.965468 60.188385 
L 44.044648 60.592346 
L 44.120658 60.996303 
L 44.184429 61.342294 
L 44.203445 61.400265 
L 44.33284 61.804222 
L 44.45565 62.208183 
L 44.509696 62.394852 
L 44.55508 62.61214 
L 44.635563 63.016097 
L 44.709374 63.420059 
L 44.774569 63.82402 
L 44.830079 64.227977 
L 44.834963 64.269735 
L 44.861087 64.631939 
L 44.88562 65.035895 
L 44.906655 65.439857 
L 44.925347 65.843819 
L 44.942754 66.24778 
L 44.959776 66.65174 
L 44.977085 67.055699 
L 44.995075 67.459658 
L 45.01383 67.86362 
L 45.033149 68.267579 
L 45.052614 68.671538 
L 45.071717 69.075495 
L 45.08999 69.479457 
L 45.107112 69.883416 
L 45.122964 70.287375 
L 45.137625 70.691334 
L 45.151328 71.095296 
L 45.160229 71.368139 
L 45.164451 71.499255 
L 45.17781 71.903215 
L 45.19173 72.307174 
L 45.206337 72.711135 
L 45.221619 73.115095 
L 45.237428 73.519054 
L 45.253488 73.923013 
L 45.26943 74.326975 
L 45.284834 74.730934 
L 45.299278 75.134893 
L 45.312385 75.538853 
L 45.323859 75.942814 
L 45.333516 76.346773 
L 45.341287 76.750733 
L 45.34722 77.154692 
L 45.351451 77.558654 
L 45.354178 77.962613 
L 45.355624 78.366572 
L 45.356006 78.770531 
L 45.35551 79.174493 
L 45.354272 79.578452 
L 45.352376 79.982411 
L 45.34985 80.386371 
L 45.346673 80.790332 
L 45.342778 81.194292 
L 45.338053 81.598251 
L 45.332345 82.00221 
L 45.325454 82.406172 
L 45.317127 82.810131 
L 45.307056 83.21409 
L 45.294867 83.618049 
L 45.280116 84.022011 
L 45.262286 84.42597 
L 45.240789 84.82993 
L 45.214964 85.233889 
L 45.184087 85.63785 
L 45.160229 85.904653 
L 45.148063 86.04181 
L 45.107541 86.445769 
L 45.060654 86.849729 
L 45.006422 87.253689 
L 44.943769 87.657649 
L 44.871546 88.061608 
L 44.834963 88.246388 
L 44.773499 88.465568 
L 44.644868 88.869527 
L 44.509696 89.236058 
L 44.499868 89.273487 
L 44.385456 89.677446 
L 44.250333 90.081407 
L 44.184429 90.257692 
L 44.137022 90.485366 
L 44.041822 90.889327 
L 43.926841 91.293286 
L 43.859165 91.500098 
L 43.799819 91.697246 
L 43.662599 92.101205 
L 43.533898 92.422952 
L 43.500823 92.505166 
L 43.326623 92.909125 
L 43.208631 93.152549 
L 43.11642 93.313086 
L 42.883365 93.688802 
L 42.856292 93.717045 
L 42.5581 94.036798 
L 42.457696 94.121005 
L 42.232834 94.322546 
L 41.921919 94.524965 
L 41.907567 94.535124 
L 41.877003 94.524965 
L 41.5823 94.428625 
L 41.355711 94.121005 
L 41.257036 93.981068 
L 41.046142 93.717045 
L 40.931769 93.56461 
L 40.73323 93.313086 
L 40.606502 93.120806 
L 40.534175 92.909125 
L 40.419482 92.505166 
L 40.330175 92.101205 
L 40.281236 91.826412 
L 40.255382 91.697246 
L 40.183122 91.293286 
L 40.120475 90.889327 
L 40.065589 90.485366 
L 40.017131 90.081407 
L 39.974176 89.677446 
L 39.955969 89.488638 
L 39.926567 89.273487 
z
" clip-path="url(#p2b335f8ee2)" style="fill: none; stroke: #08519c; stroke-opacity: 0.111111; stroke-width: 1.5"/>
   </g>
   <g id="PathCollection_4">
    <path d="M 40.575002 88.465568 
L 40.534353 88.061608 
L 40.498278 87.657649 
L 40.466204 87.253689 
L 40.437756 86.849729 
L 40.412704 86.445769 
L 40.390916 86.04181 
L 40.372316 85.63785 
L 40.356839 85.233889 
L 40.344398 84.82993 
L 40.33485 84.42597 
L 40.327988 84.022011 
L 40.323534 83.618049 
L 40.321158 83.21409 
L 40.320499 82.810131 
L 40.321203 82.406172 
L 40.322948 82.00221 
L 40.325472 81.598251 
L 40.32859 81.194292 
L 40.332198 80.790332 
L 40.336273 80.386371 
L 40.340858 79.982411 
L 40.346051 79.578452 
L 40.35198 79.174493 
L 40.358791 78.770531 
L 40.366624 78.366572 
L 40.375605 77.962613 
L 40.385837 77.558654 
L 40.397396 77.154692 
L 40.410341 76.750733 
L 40.424714 76.346773 
L 40.440551 75.942814 
L 40.457888 75.538853 
L 40.476758 75.134893 
L 40.497194 74.730934 
L 40.519215 74.326975 
L 40.542826 73.923013 
L 40.568004 73.519054 
L 40.59469 73.115095 
L 40.606502 72.942941 
L 40.622988 72.711135 
L 40.65215 72.307174 
L 40.681726 71.903215 
L 40.711681 71.499255 
L 40.742123 71.095296 
L 40.773289 70.691334 
L 40.805521 70.287375 
L 40.839229 69.883416 
L 40.874847 69.479457 
L 40.912773 69.075495 
L 40.931769 68.882317 
L 40.953963 68.671538 
L 40.999025 68.267579 
L 41.048463 67.86362 
L 41.103558 67.459658 
L 41.16582 67.055699 
L 41.236994 66.65174 
L 41.257036 66.546646 
L 41.316321 66.24778 
L 41.402488 65.843819 
L 41.496183 65.439857 
L 41.5823 65.093826 
L 41.593852 65.035895 
L 41.670424 64.631939 
L 41.743239 64.227977 
L 41.813454 63.82402 
L 41.882511 63.420059 
L 41.907567 63.273484 
L 41.975468 63.016097 
L 42.08709 62.61214 
L 42.206873 62.208183 
L 42.232834 62.125117 
L 42.2853 62.208183 
L 42.529954 62.61214 
L 42.5581 62.659098 
L 42.654787 63.016097 
L 42.759319 63.420059 
L 42.861129 63.82402 
L 42.883365 63.910938 
L 42.986277 64.227977 
L 43.102655 64.631939 
L 43.207162 65.035895 
L 43.208631 65.041585 
L 43.34385 65.439857 
L 43.473827 65.843819 
L 43.533898 66.034884 
L 43.589855 66.24778 
L 43.693126 66.65174 
L 43.787313 67.055699 
L 43.859165 67.40041 
L 43.867988 67.459658 
L 43.924284 67.86362 
L 43.974568 68.267579 
L 44.020228 68.671538 
L 44.062427 69.075495 
L 44.102055 69.479457 
L 44.139725 69.883416 
L 44.175797 70.287375 
L 44.184429 70.38656 
L 44.216166 70.691334 
L 44.255821 71.095296 
L 44.292812 71.499255 
L 44.327261 71.903215 
L 44.359322 72.307174 
L 44.389166 72.711135 
L 44.416942 73.115095 
L 44.442751 73.519054 
L 44.466624 73.923013 
L 44.488522 74.326975 
L 44.508348 74.730934 
L 44.509696 74.761073 
L 44.5283 75.134893 
L 44.546117 75.538853 
L 44.561645 75.942814 
L 44.574938 76.346773 
L 44.586088 76.750733 
L 44.595225 77.154692 
L 44.602514 77.558654 
L 44.60813 77.962613 
L 44.612243 78.366572 
L 44.614995 78.770531 
L 44.616477 79.174493 
L 44.616717 79.578452 
L 44.615667 79.982411 
L 44.613194 80.386371 
L 44.609078 80.790332 
L 44.603005 81.194292 
L 44.594569 81.598251 
L 44.583266 82.00221 
L 44.568481 82.406172 
L 44.549482 82.810131 
L 44.525399 83.21409 
L 44.509696 83.428283 
L 44.499624 83.618049 
L 44.473732 84.022011 
L 44.442119 84.42597 
L 44.403822 84.82993 
L 44.357796 85.233889 
L 44.302934 85.63785 
L 44.238078 86.04181 
L 44.184429 86.331961 
L 44.169354 86.445769 
L 44.112882 86.849729 
L 44.052289 87.253689 
L 43.986855 87.657649 
L 43.915458 88.061608 
L 43.859165 88.353396 
L 43.83759 88.465568 
L 43.755115 88.869527 
L 43.664174 89.273487 
L 43.562111 89.677446 
L 43.533898 89.780292 
L 43.447606 90.081407 
L 43.317557 90.485366 
L 43.208631 90.786472 
L 43.165267 90.889327 
L 42.979736 91.293286 
L 42.883365 91.483961 
L 42.683024 91.697246 
L 42.5581 91.828843 
L 42.232834 92.027968 
L 41.907567 92.095963 
L 41.5823 91.833144 
L 41.500186 91.697246 
L 41.270106 91.293286 
L 41.257036 91.269296 
L 41.070122 90.889327 
L 40.931769 90.554894 
L 40.911586 90.485366 
L 40.810769 90.081407 
L 40.732305 89.677446 
L 40.670123 89.273487 
L 40.619851 88.869527 
L 40.606502 88.746088 
L 40.575002 88.465568 
z
" clip-path="url(#p2b335f8ee2)" style="fill: none; stroke: #08519c; stroke-opacity: 0.333333; stroke-width: 1.5"/>
   </g>
   <g id="PathCollection_5">
    <path d="M 40.91346 87.253689 
L 40.875231 86.849729 
L 40.843107 86.445769 
L 40.816135 86.04181 
L 40.793588 85.63785 
L 40.774903 85.233889 
L 40.759634 84.82993 
L 40.747411 84.42597 
L 40.73792 84.022011 
L 40.730883 83.618049 
L 40.726049 83.21409 
L 40.723199 82.810131 
L 40.722141 82.406172 
L 40.722726 82.00221 
L 40.724845 81.598251 
L 40.72844 81.194292 
L 40.7335 80.790332 
L 40.740058 80.386371 
L 40.748187 79.982411 
L 40.757988 79.578452 
L 40.769576 79.174493 
L 40.783078 78.770531 
L 40.798612 78.366572 
L 40.816285 77.962613 
L 40.836179 77.558654 
L 40.858338 77.154692 
L 40.882758 76.750733 
L 40.909378 76.346773 
L 40.931769 76.029644 
L 40.938391 75.942814 
L 40.97058 75.538853 
L 41.004679 75.134893 
L 41.040527 74.730934 
L 41.077844 74.326975 
L 41.116258 73.923013 
L 41.155347 73.519054 
L 41.194719 73.115095 
L 41.234094 72.711135 
L 41.257036 72.474106 
L 41.272313 72.307174 
L 41.309881 71.903215 
L 41.349289 71.499255 
L 41.391387 71.095296 
L 41.437073 70.691334 
L 41.487245 70.287375 
L 41.542765 69.883416 
L 41.5823 69.621021 
L 41.611178 69.479457 
L 41.699655 69.075495 
L 41.794217 68.671538 
L 41.892218 68.267579 
L 41.907567 68.204426 
L 42.035779 67.86362 
L 42.179767 67.459658 
L 42.232834 67.301773 
L 42.5581 67.394932 
L 42.583694 67.459658 
L 42.758663 67.86362 
L 42.883365 68.121636 
L 42.924564 68.267579 
L 43.036087 68.671538 
L 43.143437 69.075495 
L 43.208631 69.329396 
L 43.247375 69.479457 
L 43.343029 69.883416 
L 43.427408 70.287375 
L 43.501737 70.691334 
L 43.533898 70.885054 
L 43.562854 71.095296 
L 43.613245 71.499255 
L 43.657899 71.903215 
L 43.697578 72.307174 
L 43.733047 72.711135 
L 43.765093 73.115095 
L 43.794522 73.519054 
L 43.822127 73.923013 
L 43.848647 74.326975 
L 43.859165 74.488551 
L 43.876765 74.730934 
L 43.90593 75.134893 
L 43.934553 75.538853 
L 43.96229 75.942814 
L 43.988701 76.346773 
L 44.013329 76.750733 
L 44.035765 77.154692 
L 44.055696 77.558654 
L 44.072922 77.962613 
L 44.087346 78.366572 
L 44.098947 78.770531 
L 44.107742 79.174493 
L 44.113744 79.578452 
L 44.116931 79.982411 
L 44.117224 80.386371 
L 44.114476 80.790332 
L 44.108474 81.194292 
L 44.098952 81.598251 
L 44.085616 82.00221 
L 44.068173 82.406172 
L 44.046362 82.810131 
L 44.019984 83.21409 
L 43.988924 83.618049 
L 43.953155 84.022011 
L 43.91273 84.42597 
L 43.867747 84.82993 
L 43.859165 84.900967 
L 43.815036 85.233889 
L 43.7581 85.63785 
L 43.698003 86.04181 
L 43.634749 86.445769 
L 43.56799 86.849729 
L 43.533898 87.044725 
L 43.498678 87.253689 
L 43.424894 87.657649 
L 43.343006 88.061608 
L 43.251013 88.465568 
L 43.208631 88.633894 
L 43.143059 88.869527 
L 43.01603 89.273487 
L 42.883365 89.640595 
L 42.856378 89.677446 
L 42.5581 90.05641 
L 42.508636 90.081407 
L 42.232834 90.221395 
L 41.907567 90.134422 
L 41.868516 90.081407 
L 41.604461 89.677446 
L 41.5823 89.639269 
L 41.412732 89.273487 
L 41.257036 88.90515 
L 41.24608 88.869527 
L 41.135254 88.465568 
L 41.043794 88.061608 
L 40.96868 87.657649 
L 40.931769 87.420207 
L 40.91346 87.253689 
z
" clip-path="url(#p2b335f8ee2)" style="fill: none; stroke: #08519c; stroke-opacity: 0.555556; stroke-width: 1.5"/>
   </g>
   <g id="PathCollection_6">
    <path d="M 41.237337 85.63785 
L 41.2043 85.233889 
L 41.17895 84.82993 
L 41.160171 84.42597 
L 41.147002 84.022011 
L 41.138616 83.618049 
L 41.134303 83.21409 
L 41.133454 82.810131 
L 41.135548 82.406172 
L 41.140148 82.00221 
L 41.146902 81.598251 
L 41.155541 81.194292 
L 41.16589 80.790332 
L 41.177872 80.386371 
L 41.191511 79.982411 
L 41.206927 79.578452 
L 41.224327 79.174493 
L 41.243983 78.770531 
L 41.257036 78.532682 
L 41.267015 78.366572 
L 41.293836 77.962613 
L 41.323263 77.558654 
L 41.355352 77.154692 
L 41.390068 76.750733 
L 41.427275 76.346773 
L 41.466738 75.942814 
L 41.50814 75.538853 
L 41.551106 75.134893 
L 41.5823 74.848356 
L 41.596811 74.730934 
L 41.647062 74.326975 
L 41.698298 73.923013 
L 41.751193 73.519054 
L 41.806649 73.115095 
L 41.865769 72.711135 
L 41.907567 72.443774 
L 41.940294 72.307174 
L 42.046738 71.903215 
L 42.169399 71.499255 
L 42.232834 71.310154 
L 42.5581 71.111803 
L 42.760761 71.499255 
L 42.883365 71.755789 
L 42.916325 71.903215 
L 43.001508 72.307174 
L 43.079089 72.711135 
L 43.148776 73.115095 
L 43.208631 73.505403 
L 43.210343 73.519054 
L 43.256677 73.923013 
L 43.297765 74.326975 
L 43.334578 74.730934 
L 43.368058 75.134893 
L 43.399079 75.538853 
L 43.428423 75.942814 
L 43.456752 76.346773 
L 43.48459 76.750733 
L 43.512286 77.154692 
L 43.533898 77.471808 
L 43.539299 77.558654 
L 43.562932 77.962613 
L 43.584577 78.366572 
L 43.60365 78.770531 
L 43.619567 79.174493 
L 43.631789 79.578452 
L 43.639847 79.982411 
L 43.643346 80.386371 
L 43.641961 80.790332 
L 43.63542 81.194292 
L 43.623495 81.598251 
L 43.606006 82.00221 
L 43.582838 82.406172 
L 43.55397 82.810131 
L 43.533898 83.046157 
L 43.517759 83.21409 
L 43.475439 83.618049 
L 43.430955 84.022011 
L 43.384589 84.42597 
L 43.336317 84.82993 
L 43.285805 85.233889 
L 43.232432 85.63785 
L 43.208631 85.805907 
L 43.173045 86.04181 
L 43.107866 86.445769 
L 43.036715 86.849729 
L 42.957226 87.253689 
L 42.883365 87.58528 
L 42.851382 87.657649 
L 42.649048 88.061608 
L 42.5581 88.222235 
L 42.232834 88.394559 
L 41.907567 88.097494 
L 41.891475 88.061608 
L 41.727067 87.657649 
L 41.5823 87.256658 
L 41.581359 87.253689 
L 41.466632 86.849729 
L 41.370008 86.445769 
L 41.290704 86.04181 
L 41.257036 85.830737 
L 41.237337 85.63785 
z
" clip-path="url(#p2b335f8ee2)" style="fill: none; stroke: #08519c; stroke-opacity: 0.666667; stroke-width: 1.5"/>
   </g>
   <g id="PathCollection_7">
    <path d="M 41.882954 84.82993 
L 41.824091 84.42597 
L 41.777815 84.022011 
L 41.743597 83.618049 
L 41.720403 83.21409 
L 41.706761 82.810131 
L 41.700958 82.406172 
L 41.701286 82.00221 
L 41.706241 81.598251 
L 41.714638 81.194292 
L 41.725658 80.790332 
L 41.738832 80.386371 
L 41.75399 79.982411 
L 41.771196 79.578452 
L 41.790668 79.174493 
L 41.812697 78.770531 
L 41.837575 78.366572 
L 41.865523 77.962613 
L 41.896667 77.558654 
L 41.907567 77.431546 
L 41.941772 77.154692 
L 41.994987 76.750733 
L 42.051076 76.346773 
L 42.110249 75.942814 
L 42.172975 75.538853 
L 42.232834 75.1787 
L 42.261941 75.134893 
L 42.543379 74.730934 
L 42.5581 74.711186 
L 42.563428 74.730934 
L 42.658487 75.134893 
L 42.736974 75.538853 
L 42.800314 75.942814 
L 42.849894 76.346773 
L 42.883365 76.708868 
L 42.885749 76.750733 
L 42.903265 77.154692 
L 42.916168 77.558654 
L 42.92502 77.962613 
L 42.93034 78.366572 
L 42.932621 78.770531 
L 42.932337 79.174493 
L 42.929955 79.578452 
L 42.925923 79.982411 
L 42.92064 80.386371 
L 42.914404 80.790332 
L 42.907349 81.194292 
L 42.899403 81.598251 
L 42.890301 82.00221 
L 42.883365 82.260634 
L 42.878861 82.406172 
L 42.862174 82.810131 
L 42.839813 83.21409 
L 42.810417 83.618049 
L 42.772684 84.022011 
L 42.725305 84.42597 
L 42.666832 84.82993 
L 42.595545 85.233889 
L 42.5581 85.409222 
L 42.382098 85.63785 
L 42.232834 85.794358 
L 42.160949 85.63785 
L 41.999607 85.233889 
L 41.907567 84.969472 
L 41.882954 84.82993 
z
" clip-path="url(#p2b335f8ee2)" style="fill: none; stroke: #08519c; stroke-opacity: 0.888889; stroke-width: 1.5"/>
   </g>
   <g id="PathCollection_8"/>
   <g id="PathCollection_9"/>
   <g id="PathCollection_10">
    <path d="M 48.40349 87.657649 
L 48.33832 87.253689 
L 48.285021 86.849729 
L 48.241867 86.445769 
L 48.207336 86.04181 
L 48.18014 85.63785 
L 48.159246 85.233889 
L 48.143902 84.82993 
L 48.133654 84.42597 
L 48.12834 84.022011 
L 48.128087 83.618049 
L 48.133277 83.21409 
L 48.144513 82.810131 
L 48.162566 82.406172 
L 48.188317 82.00221 
L 48.222688 81.598251 
L 48.266563 81.194292 
L 48.320708 80.790332 
L 48.385672 80.386371 
L 48.412894 80.238794 
L 48.458573 79.982411 
L 48.539664 79.578452 
L 48.629952 79.174493 
L 48.728289 78.770531 
L 48.73816 78.731464 
L 48.826072 78.366572 
L 48.926891 77.962613 
L 49.029548 77.558654 
L 49.063427 77.423435 
L 49.126607 77.154692 
L 49.219205 76.750733 
L 49.308902 76.346773 
L 49.388691 75.971696 
L 49.394418 75.942814 
L 49.469952 75.538853 
L 49.5421 75.134893 
L 49.611309 74.730934 
L 49.678325 74.326975 
L 49.713958 74.107183 
L 49.742155 73.923013 
L 49.803979 73.519054 
L 49.867633 73.115095 
L 49.934618 72.711135 
L 50.006523 72.307174 
L 50.039225 72.136876 
L 50.082693 71.903215 
L 50.165179 71.499255 
L 50.256944 71.095296 
L 50.358987 70.691334 
L 50.364491 70.671185 
L 50.467592 70.287375 
L 50.586701 69.883416 
L 50.689758 69.560286 
L 50.715221 69.479457 
L 50.849078 69.075495 
L 50.990874 68.671538 
L 51.015025 68.604517 
L 51.134858 68.267579 
L 51.282783 67.86362 
L 51.340291 67.7084 
L 51.431295 67.459658 
L 51.580565 67.055699 
L 51.665558 66.82737 
L 51.730341 66.65174 
L 51.880161 66.24778 
L 51.990822 65.954103 
L 52.032334 65.843819 
L 52.186164 65.439857 
L 52.316089 65.109308 
L 52.345283 65.035895 
L 52.509367 64.631939 
L 52.641356 64.320875 
L 52.681904 64.227977 
L 52.863701 63.82402 
L 52.966622 63.604641 
L 53.057452 63.420059 
L 53.264869 63.016097 
L 53.291889 62.964487 
L 53.489467 62.61214 
L 53.617156 62.39229 
L 53.733343 62.208183 
L 53.942422 61.884966 
L 53.999927 61.804222 
L 54.267689 61.432572 
L 54.293604 61.400265 
L 54.592955 61.025628 
L 54.619268 60.996303 
L 54.918222 60.656092 
L 54.981484 60.592346 
L 55.243489 60.317954 
L 55.383658 60.188385 
L 55.568751 60.007496 
L 55.827788 59.784423 
L 55.894018 59.723218 
L 56.219285 59.454458 
L 56.319882 59.380466 
L 56.544551 59.200884 
L 56.864457 58.976504 
L 56.869818 58.972398 
L 57.195084 58.744704 
L 57.473734 58.572543 
L 57.520351 58.541074 
L 57.845618 58.337 
L 58.139213 58.168586 
L 58.17088 58.148741 
L 58.496147 57.949999 
L 58.809601 57.764624 
L 58.821414 57.756968 
L 59.14668 57.539453 
L 59.406225 57.360667 
L 59.471947 57.310847 
L 59.797214 57.048164 
L 59.903548 56.956706 
L 60.12248 56.750233 
L 60.319311 56.552744 
L 60.447747 56.414489 
L 60.682682 56.148787 
L 60.773009 56.042815 
L 61.020384 55.744826 
L 61.09828 55.651373 
L 61.357804 55.340864 
L 61.423547 55.265501 
L 61.720167 54.936907 
L 61.748813 54.90734 
L 62.07408 54.591611 
L 62.140329 54.532946 
L 62.399347 54.32117 
L 62.664525 54.128989 
L 62.724613 54.088658 
L 63.04988 53.899096 
L 63.375142 53.741384 
L 63.418497 53.725027 
L 63.700409 53.623696 
L 64.025676 53.541063 
L 64.350942 53.49568 
L 64.676209 53.490239 
L 65.001476 53.525921 
L 65.326742 53.601382 
L 65.652009 53.712244 
L 65.68197 53.725027 
L 65.977271 53.8532 
L 66.302542 54.012655 
L 66.524793 54.128989 
L 66.627809 54.182005 
L 66.953075 54.354416 
L 67.278342 54.527914 
L 67.287523 54.532946 
L 67.603609 54.701216 
L 67.928875 54.879356 
L 68.028098 54.936907 
L 68.254142 55.065315 
L 68.579404 55.263255 
L 68.697429 55.340864 
L 68.904675 55.475591 
L 69.229942 55.701929 
L 69.287918 55.744826 
L 69.555208 55.941199 
L 69.828118 56.148787 
L 69.880475 56.188586 
L 70.205742 56.44237 
L 70.345457 56.552744 
L 70.531008 56.700147 
L 70.850793 56.956706 
L 70.856275 56.961174 
L 71.181537 57.234648 
L 71.325728 57.360667 
L 71.506804 57.523672 
L 71.758571 57.764624 
L 71.832071 57.837486 
L 72.141385 58.168586 
L 72.157337 58.186238 
L 72.479616 58.572543 
L 72.482604 58.576207 
L 72.786681 58.976504 
L 72.807871 59.00457 
L 73.076963 59.380466 
L 73.133137 59.457982 
L 73.362432 59.784423 
L 73.458404 59.917394 
L 73.652279 60.188385 
L 73.783667 60.365605 
L 73.953591 60.592346 
L 74.108937 60.792056 
L 74.271767 60.996303 
L 74.434204 61.193355 
L 74.609918 61.400265 
L 74.75947 61.571854 
L 74.966857 61.804222 
L 75.084737 61.934209 
L 75.334547 62.208183 
L 75.410004 62.290633 
L 75.697598 62.61214 
L 75.73527 62.65472 
L 76.037976 63.016097 
L 76.060537 63.043807 
L 76.342898 63.420059 
L 76.3858 63.480055 
L 76.609145 63.82402 
L 76.711066 63.992293 
L 76.8406 64.227977 
L 77.036333 64.617688 
L 77.042906 64.631939 
L 77.217025 65.035895 
L 77.361599 65.412622 
L 77.371489 65.439857 
L 77.507246 65.843819 
L 77.628451 66.24778 
L 77.686866 66.462863 
L 77.737881 66.65174 
L 77.838514 67.055699 
L 77.931684 67.459658 
L 78.012133 67.828292 
L 78.020193 67.86362 
L 78.110752 68.267579 
L 78.202397 68.671538 
L 78.297859 69.075495 
L 78.337399 69.233405 
L 78.404171 69.479457 
L 78.522369 69.883416 
L 78.650694 70.287375 
L 78.662666 70.322541 
L 78.797623 70.691334 
L 78.953647 71.095296 
L 78.987929 71.180777 
L 79.121559 71.499255 
L 79.291661 71.903215 
L 79.313195 71.954677 
L 79.462783 72.307174 
L 79.626318 72.711135 
L 79.638462 72.742541 
L 79.781668 73.115095 
L 79.924513 73.519054 
L 79.963728 73.639495 
L 80.055282 73.923013 
L 80.173233 74.326975 
L 80.277907 74.730934 
L 80.288995 74.779254 
L 80.371586 75.134893 
L 80.453187 75.538853 
L 80.522732 75.942814 
L 80.580629 76.346773 
L 80.614262 76.63648 
L 80.628239 76.750733 
L 80.667335 77.154692 
L 80.697158 77.558654 
L 80.718811 77.962613 
L 80.733507 78.366572 
L 80.742457 78.770531 
L 80.746746 79.174493 
L 80.747214 79.578452 
L 80.744354 79.982411 
L 80.738265 80.386371 
L 80.728641 80.790332 
L 80.714812 81.194292 
L 80.695826 81.598251 
L 80.670536 82.00221 
L 80.637691 82.406172 
L 80.614262 82.631508 
L 80.59722 82.810131 
L 80.548579 83.21409 
L 80.488831 83.618049 
L 80.416728 84.022011 
L 80.331055 84.42597 
L 80.288995 84.595234 
L 80.233148 84.82993 
L 80.121419 85.233889 
L 79.992815 85.63785 
L 79.963728 85.719011 
L 79.849836 86.04181 
L 79.688977 86.445769 
L 79.638462 86.560628 
L 79.51099 86.849729 
L 79.313296 87.253689 
L 79.313195 87.25388 
L 79.096128 87.657649 
L 78.987929 87.842312 
L 78.855503 88.061608 
L 78.662666 88.35637 
L 78.588172 88.465568 
L 78.337399 88.806102 
L 78.288114 88.869527 
L 78.012133 89.199084 
L 77.945597 89.273487 
L 77.686866 89.542179 
L 77.546169 89.677446 
L 77.361599 89.84247 
L 77.06998 90.081407 
L 77.036333 90.107128 
L 76.711066 90.339761 
L 76.489299 90.485366 
L 76.3858 90.549264 
L 76.060537 90.738628 
L 75.78317 90.889327 
L 75.73527 90.914075 
L 75.410004 91.077233 
L 75.084737 91.232325 
L 74.953983 91.293286 
L 74.75947 91.380804 
L 74.434204 91.523963 
L 74.108937 91.662687 
L 74.027393 91.697246 
L 73.783667 91.798327 
L 73.458404 91.930666 
L 73.133137 92.059715 
L 73.028125 92.101205 
L 72.807871 92.187436 
L 72.482604 92.313168 
L 72.157337 92.436231 
L 71.973309 92.505166 
L 71.832071 92.558196 
L 71.506804 92.679315 
L 71.181537 92.797046 
L 70.861299 92.909125 
L 70.856275 92.910909 
L 70.531008 93.024864 
L 70.205742 93.133717 
L 69.880475 93.237214 
L 69.630577 93.313086 
L 69.555208 93.336627 
L 69.229942 93.435031 
L 68.904675 93.529111 
L 68.579404 93.619885 
L 68.254142 93.708503 
L 68.22299 93.717045 
L 67.928875 93.801058 
L 67.603609 93.893969 
L 67.278342 93.987361 
L 66.953075 94.081491 
L 66.818968 94.121005 
L 66.627809 94.179858 
L 66.302542 94.280588 
L 65.977271 94.379944 
L 65.652009 94.476636 
L 65.484154 94.524965 
L 65.326742 94.57237 
L 65.001476 94.665517 
L 64.676209 94.751334 
L 64.350942 94.828756 
L 64.025676 94.897014 
L 63.85025 94.928925 
L 63.700409 94.957687 
L 63.375142 95.010341 
L 63.04988 95.052891 
L 62.724613 95.086021 
L 62.399347 95.110736 
L 62.07408 95.128305 
L 61.748813 95.140201 
L 61.423547 95.148011 
L 61.09828 95.153353 
L 60.773009 95.157771 
L 60.447747 95.162635 
L 60.12248 95.169051 
L 59.797214 95.177773 
L 59.471947 95.189149 
L 59.14668 95.203083 
L 58.821414 95.219036 
L 58.496147 95.236062 
L 58.17088 95.25286 
L 57.845618 95.267851 
L 57.520351 95.279259 
L 57.195084 95.285189 
L 56.869818 95.283702 
L 56.544551 95.272888 
L 56.219285 95.25093 
L 55.894018 95.216176 
L 55.568751 95.167195 
L 55.243489 95.10284 
L 54.918222 95.022276 
L 54.605764 94.928925 
L 54.592955 94.925198 
L 54.267689 94.81693 
L 53.942422 94.692451 
L 53.617156 94.551825 
L 53.559732 94.524965 
L 53.291889 94.400541 
L 52.966622 94.234464 
L 52.761584 94.121005 
L 52.641356 94.053894 
L 52.316089 93.859299 
L 52.096931 93.717045 
L 51.990822 93.646335 
L 51.665558 93.413915 
L 51.534456 93.313086 
L 51.340291 93.15684 
L 51.05697 92.909125 
L 51.015025 92.870187 
L 50.689758 92.54792 
L 50.649124 92.505166 
L 50.364491 92.181441 
L 50.297722 92.101205 
L 50.039225 91.761096 
L 49.992628 91.697246 
L 49.725862 91.293286 
L 49.713958 91.273341 
L 49.489403 90.889327 
L 49.388691 90.694363 
L 49.281559 90.485366 
L 49.099354 90.081407 
L 49.063427 89.991515 
L 48.937022 89.677446 
L 48.796825 89.273487 
L 48.73816 89.078408 
L 48.674179 88.869527 
L 48.567728 88.465568 
L 48.478408 88.061608 
L 48.412894 87.707019 
L 48.40349 87.657649 
z
" clip-path="url(#p2b335f8ee2)" style="fill: none; stroke: #d94801; stroke-opacity: 0.111111; stroke-width: 1.5"/>
   </g>
   <g id="PathCollection_11">
    <path d="M 50.977657 85.233889 
L 50.943174 84.82993 
L 50.918923 84.42597 
L 50.904649 84.022011 
L 50.90027 83.618049 
L 50.905809 83.21409 
L 50.921321 82.810131 
L 50.946822 82.406172 
L 50.982218 82.00221 
L 51.015025 81.708325 
L 51.026903 81.598251 
L 51.079348 81.194292 
L 51.139724 80.790332 
L 51.207231 80.386371 
L 51.28101 79.982411 
L 51.340291 79.680107 
L 51.359379 79.578452 
L 51.439484 79.174493 
L 51.522896 78.770531 
L 51.609034 78.366572 
L 51.665558 78.107587 
L 51.696208 77.962613 
L 51.783027 77.558654 
L 51.871484 77.154692 
L 51.961537 76.750733 
L 51.990822 76.62002 
L 52.051596 76.346773 
L 52.142858 75.942814 
L 52.236468 75.538853 
L 52.316089 75.203656 
L 52.332682 75.134893 
L 52.431496 74.730934 
L 52.534665 74.326975 
L 52.641356 73.928948 
L 52.643004 73.923013 
L 52.757884 73.519054 
L 52.879935 73.115095 
L 52.966622 72.842768 
L 53.010575 72.711135 
L 53.151141 72.307174 
L 53.291889 71.925848 
L 53.30069 71.903215 
L 53.461857 71.499255 
L 53.617156 71.126556 
L 53.630831 71.095296 
L 53.809526 70.691334 
L 53.942422 70.395959 
L 53.993248 70.287375 
L 54.181708 69.883416 
L 54.267689 69.698133 
L 54.372236 69.479457 
L 54.563234 69.075495 
L 54.592955 69.011885 
L 54.756093 68.671538 
L 54.918222 68.332128 
L 54.949918 68.267579 
L 55.149199 67.86362 
L 55.243489 67.676132 
L 55.356575 67.459658 
L 55.568751 67.068982 
L 55.576331 67.055699 
L 55.818252 66.65174 
L 55.894018 66.532931 
L 56.089046 66.24778 
L 56.219285 66.070467 
L 56.400682 65.843819 
L 56.544551 65.676648 
L 56.770232 65.439857 
L 56.869818 65.342245 
L 57.195084 65.058085 
L 57.223691 65.035895 
L 57.520351 64.817998 
L 57.812778 64.631939 
L 57.845618 64.611892 
L 58.17088 64.437679 
L 58.496147 64.288965 
L 58.65302 64.227977 
L 58.821414 64.163428 
L 59.14668 64.058291 
L 59.471947 63.971209 
L 59.797214 63.900324 
L 60.12248 63.843836 
L 60.270423 63.82402 
L 60.447747 63.799652 
L 60.773009 63.76599 
L 61.09828 63.741182 
L 61.423547 63.72333 
L 61.748813 63.710585 
L 62.07408 63.701284 
L 62.399347 63.694135 
L 62.724613 63.688408 
L 63.04988 63.684075 
L 63.375142 63.681844 
L 63.700409 63.683072 
L 64.025676 63.689585 
L 64.350942 63.703489 
L 64.676209 63.727024 
L 65.001476 63.762496 
L 65.326742 63.812273 
L 65.384175 63.82402 
L 65.652009 63.875545 
L 65.977271 63.956444 
L 66.302542 64.058358 
L 66.627809 64.183963 
L 66.724207 64.227977 
L 66.953075 64.33077 
L 67.278342 64.502616 
L 67.491951 64.631939 
L 67.603609 64.699862 
L 67.928875 64.918776 
L 68.089389 65.035895 
L 68.254142 65.15778 
L 68.579404 65.41187 
L 68.614708 65.439857 
L 68.904675 65.672397 
L 69.116925 65.843819 
L 69.229942 65.935983 
L 69.555208 66.195919 
L 69.622217 66.24778 
L 69.880475 66.448384 
L 70.149536 66.65174 
L 70.205742 66.694448 
L 70.531008 66.933136 
L 70.700944 67.055699 
L 70.856275 67.168865 
L 71.181537 67.404749 
L 71.256863 67.459658 
L 71.506804 67.646045 
L 71.78903 67.86362 
L 71.832071 67.89811 
L 72.157337 68.17009 
L 72.266638 68.267579 
L 72.482604 68.473276 
L 72.67339 68.671538 
L 72.807871 68.824302 
L 73.00774 69.075495 
L 73.133137 69.251727 
L 73.278714 69.479457 
L 73.458404 69.799457 
L 73.50089 69.883416 
L 73.683382 70.287375 
L 73.783667 70.537191 
L 73.840541 70.691334 
L 73.978095 71.095296 
L 74.106429 71.499255 
L 74.108937 71.507346 
L 74.225639 71.903215 
L 74.343822 72.307174 
L 74.434204 72.612256 
L 74.4627 72.711135 
L 74.58223 73.115095 
L 74.704921 73.519054 
L 74.75947 73.695047 
L 74.829302 73.923013 
L 74.954097 74.326975 
L 75.077989 74.730934 
L 75.084737 74.753471 
L 75.197976 75.134893 
L 75.311971 75.538853 
L 75.410004 75.913215 
L 75.417715 75.942814 
L 75.513312 76.346773 
L 75.597061 76.750733 
L 75.668012 77.154692 
L 75.725696 77.558654 
L 75.73527 77.645283 
L 75.770574 77.962613 
L 75.802636 78.366572 
L 75.822402 78.770531 
L 75.830672 79.174493 
L 75.828312 79.578452 
L 75.816149 79.982411 
L 75.794862 80.386371 
L 75.764872 80.790332 
L 75.73527 81.101308 
L 75.726554 81.194292 
L 75.680639 81.598251 
L 75.625225 82.00221 
L 75.558811 82.406172 
L 75.479348 82.810131 
L 75.410004 83.107365 
L 75.385372 83.21409 
L 75.276424 83.618049 
L 75.146399 84.022011 
L 75.084737 84.186897 
L 74.995974 84.42597 
L 74.821323 84.82993 
L 74.75947 84.955331 
L 74.622782 85.233889 
L 74.434204 85.570015 
L 74.396328 85.63785 
L 74.143812 86.04181 
L 74.108937 86.092171 
L 73.864295 86.445769 
L 73.783667 86.551327 
L 73.55541 86.849729 
L 73.458404 86.965476 
L 73.215734 87.253689 
L 73.133137 87.343738 
L 72.842734 87.657649 
L 72.807871 87.692402 
L 72.482604 88.014723 
L 72.434827 88.061608 
L 72.157337 88.314263 
L 71.987753 88.465568 
L 71.832071 88.59504 
L 71.506804 88.858838 
L 71.49347 88.869527 
L 71.181537 89.104368 
L 70.947354 89.273487 
L 70.856275 89.33562 
L 70.531008 89.550985 
L 70.330028 89.677446 
L 70.205742 89.751997 
L 69.880475 89.93819 
L 69.612617 90.081407 
L 69.555208 90.110974 
L 69.229942 90.270568 
L 68.904675 90.418868 
L 68.750589 90.485366 
L 68.579404 90.557569 
L 68.254142 90.688646 
L 67.928875 90.814002 
L 67.728902 90.889327 
L 67.603609 90.936074 
L 67.278342 91.056905 
L 66.953075 91.177126 
L 66.63944 91.293286 
L 66.627809 91.29759 
L 66.302542 91.420043 
L 65.977271 91.542199 
L 65.652009 91.663037 
L 65.558771 91.697246 
L 65.326742 91.78259 
L 65.001476 91.898054 
L 64.676209 92.007168 
L 64.374508 92.101205 
L 64.350942 92.108592 
L 64.025676 92.202393 
L 63.700409 92.285814 
L 63.375142 92.358435 
L 63.04988 92.420249 
L 62.724613 92.471647 
L 62.463696 92.505166 
L 62.399347 92.513513 
L 62.07408 92.547146 
L 61.748813 92.573291 
L 61.423547 92.593437 
L 61.09828 92.609095 
L 60.773009 92.621685 
L 60.447747 92.632425 
L 60.12248 92.642232 
L 59.797214 92.651646 
L 59.471947 92.660776 
L 59.14668 92.669282 
L 58.821414 92.676373 
L 58.496147 92.680847 
L 58.17088 92.681138 
L 57.845618 92.675387 
L 57.520351 92.661522 
L 57.195084 92.637344 
L 56.869818 92.600612 
L 56.544551 92.549132 
L 56.333353 92.505166 
L 56.219285 92.481134 
L 55.894018 92.395085 
L 55.568751 92.288694 
L 55.243489 92.160535 
L 55.112949 92.101205 
L 54.918222 92.009282 
L 54.592955 91.833613 
L 54.369292 91.697246 
L 54.267689 91.631775 
L 53.942422 91.401046 
L 53.803474 91.293286 
L 53.617156 91.138051 
L 53.34271 90.889327 
L 53.291889 90.839226 
L 52.966622 90.495968 
L 52.957133 90.485366 
L 52.641356 90.096159 
L 52.63003 90.081407 
L 52.350337 89.677446 
L 52.316089 89.621907 
L 52.110081 89.273487 
L 51.990822 89.044101 
L 51.903227 88.869527 
L 51.724945 88.465568 
L 51.665558 88.311903 
L 51.57119 88.061608 
L 51.438962 87.657649 
L 51.340291 87.306113 
L 51.325791 87.253689 
L 51.228824 86.849729 
L 51.146986 86.445769 
L 51.078718 86.04181 
L 51.022753 85.63785 
L 51.015025 85.568507 
L 50.977657 85.233889 
z
" clip-path="url(#p2b335f8ee2)" style="fill: none; stroke: #d94801; stroke-opacity: 0.333333; stroke-width: 1.5"/>
   </g>
   <g id="PathCollection_12">
    <path d="M 53.271845 84.022011 
L 53.245409 83.618049 
L 53.227651 83.21409 
L 53.217981 82.810131 
L 53.216067 82.406172 
L 53.221797 82.00221 
L 53.235233 81.598251 
L 53.256563 81.194292 
L 53.286053 80.790332 
L 53.291889 80.728794 
L 53.324213 80.386371 
L 53.371362 79.982411 
L 53.427805 79.578452 
L 53.493859 79.174493 
L 53.569827 78.770531 
L 53.617156 78.548178 
L 53.656908 78.366572 
L 53.755919 77.962613 
L 53.866044 77.558654 
L 53.942422 77.302958 
L 53.989166 77.154692 
L 54.127085 76.750733 
L 54.267689 76.37172 
L 54.277628 76.346773 
L 54.447458 75.942814 
L 54.592955 75.618777 
L 54.631918 75.538853 
L 54.836846 75.134893 
L 54.918222 74.980393 
L 55.061166 74.730934 
L 55.243489 74.421711 
L 55.303986 74.326975 
L 55.565356 73.923013 
L 55.568751 73.917766 
L 55.844268 73.519054 
L 55.894018 73.446554 
L 56.133763 73.115095 
L 56.219285 72.994553 
L 56.428659 72.711135 
L 56.544551 72.549617 
L 56.724234 72.307174 
L 56.869818 72.103662 
L 57.0177 71.903215 
L 57.195084 71.65377 
L 57.309087 71.499255 
L 57.520351 71.203484 
L 57.601629 71.095296 
L 57.845618 70.763216 
L 57.902334 70.691334 
L 58.17088 70.348382 
L 58.223618 70.287375 
L 58.496147 69.974932 
L 58.587365 69.883416 
L 58.821414 69.654248 
L 59.034195 69.479457 
L 59.14668 69.390308 
L 59.471947 69.18088 
L 59.683368 69.075495 
L 59.797214 69.020944 
L 60.12248 68.902952 
L 60.447747 68.818566 
L 60.773009 68.7593 
L 61.09828 68.716606 
L 61.423547 68.682426 
L 61.530062 68.671538 
L 61.748813 68.649454 
L 62.07408 68.612101 
L 62.399347 68.566698 
L 62.724613 68.511574 
L 63.04988 68.447308 
L 63.375142 68.376722 
L 63.700409 68.304725 
L 63.881533 68.267579 
L 64.025676 68.238269 
L 64.350942 68.185747 
L 64.676209 68.155344 
L 65.001476 68.155213 
L 65.326742 68.192745 
L 65.62653 68.267579 
L 65.652009 68.274219 
L 65.977271 68.407806 
L 66.302542 68.593335 
L 66.411539 68.671538 
L 66.627809 68.83613 
L 66.893175 69.075495 
L 66.953075 69.133124 
L 67.274606 69.479457 
L 67.278342 69.483768 
L 67.601733 69.883416 
L 67.603609 69.885912 
L 67.895381 70.287375 
L 67.928875 70.337256 
L 68.164924 70.691334 
L 68.254142 70.836884 
L 68.414391 71.095296 
L 68.579404 71.385503 
L 68.645659 71.499255 
L 68.862255 71.903215 
L 68.904675 71.988261 
L 69.068695 72.307174 
L 69.229942 72.640758 
L 69.265095 72.711135 
L 69.459437 73.115095 
L 69.555208 73.318319 
L 69.652605 73.519054 
L 69.847588 73.923013 
L 69.880475 73.990327 
L 70.04821 74.326975 
L 70.205742 74.641397 
L 70.251065 74.730934 
L 70.457211 75.134893 
L 70.531008 75.279718 
L 70.662766 75.538853 
L 70.856275 75.92736 
L 70.863895 75.942814 
L 71.05963 76.346773 
L 71.181537 76.610726 
L 71.245103 76.750733 
L 71.419121 77.154692 
L 71.506804 77.373847 
L 71.579021 77.558654 
L 71.723311 77.962613 
L 71.832071 78.307774 
L 71.850017 78.366572 
L 71.957948 78.770531 
L 72.046062 79.174493 
L 72.113785 79.578452 
L 72.157337 79.951402 
L 72.160821 79.982411 
L 72.187037 80.386371 
L 72.192808 80.790332 
L 72.178286 81.194292 
L 72.157337 81.435633 
L 72.143494 81.598251 
L 72.088388 82.00221 
L 72.012786 82.406172 
L 71.91613 82.810131 
L 71.832071 83.096263 
L 71.797654 83.21409 
L 71.656981 83.618049 
L 71.506804 83.98732 
L 71.49265 84.022011 
L 71.304177 84.42597 
L 71.181537 84.658172 
L 71.08964 84.82993 
L 70.856275 85.219716 
L 70.847611 85.233889 
L 70.575253 85.63785 
L 70.531008 85.697783 
L 70.268592 86.04181 
L 70.205742 86.117631 
L 69.92192 86.445769 
L 69.880475 86.490177 
L 69.555208 86.821528 
L 69.525952 86.849729 
L 69.229942 87.115938 
L 69.066119 87.253689 
L 68.904675 87.381142 
L 68.579404 87.620671 
L 68.526067 87.657649 
L 68.254142 87.835991 
L 67.928875 88.035507 
L 67.884367 88.061608 
L 67.603609 88.218676 
L 67.278342 88.392824 
L 67.138962 88.465568 
L 66.953075 88.558892 
L 66.627809 88.719471 
L 66.31992 88.869527 
L 66.302542 88.877731 
L 65.977271 89.030542 
L 65.652009 89.181098 
L 65.448305 89.273487 
L 65.326742 89.327164 
L 65.001476 89.466065 
L 64.676209 89.598135 
L 64.467372 89.677446 
L 64.350942 89.720614 
L 64.025676 89.831063 
L 63.700409 89.930183 
L 63.375142 90.017451 
L 63.099339 90.081407 
L 63.04988 90.09261 
L 62.724613 90.155141 
L 62.399347 90.207594 
L 62.07408 90.251384 
L 61.748813 90.288088 
L 61.423547 90.31927 
L 61.09828 90.346317 
L 60.773009 90.370301 
L 60.447747 90.391876 
L 60.12248 90.411225 
L 59.797214 90.42804 
L 59.471947 90.441522 
L 59.14668 90.450406 
L 58.821414 90.452989 
L 58.496147 90.447169 
L 58.17088 90.430484 
L 57.845618 90.400169 
L 57.520351 90.353218 
L 57.195084 90.286453 
L 56.869818 90.196599 
L 56.547379 90.081407 
L 56.544551 90.080326 
L 56.219285 89.928308 
L 55.894018 89.741892 
L 55.797799 89.677446 
L 55.568751 89.509384 
L 55.291761 89.273487 
L 55.243489 89.227818 
L 54.918222 88.882273 
L 54.907279 88.869527 
L 54.599718 88.465568 
L 54.592955 88.455462 
L 54.34672 88.061608 
L 54.267689 87.915796 
L 54.134527 87.657649 
L 53.955706 87.253689 
L 53.942422 87.21901 
L 53.805253 86.849729 
L 53.678657 86.445769 
L 53.617156 86.213013 
L 53.5727 86.04181 
L 53.484698 85.63785 
L 53.41249 85.233889 
L 53.354075 84.82993 
L 53.30772 84.42597 
L 53.291889 84.248217 
L 53.271845 84.022011 
z
" clip-path="url(#p2b335f8ee2)" style="fill: none; stroke: #d94801; stroke-opacity: 0.555556; stroke-width: 1.5"/>
   </g>
   <g id="PathCollection_13">
    <path d="M 55.54709 83.21409 
L 55.523738 82.810131 
L 55.510618 82.406172 
L 55.50737 82.00221 
L 55.514183 81.598251 
L 55.531773 81.194292 
L 55.561316 80.790332 
L 55.568751 80.720152 
L 55.607229 80.386371 
L 55.670385 79.982411 
L 55.752096 79.578452 
L 55.854048 79.174493 
L 55.894018 79.043301 
L 55.984924 78.770531 
L 56.143388 78.366572 
L 56.219285 78.198241 
L 56.334498 77.962613 
L 56.544551 77.579573 
L 56.556823 77.558654 
L 56.816658 77.154692 
L 56.869818 77.078041 
L 57.107795 76.750733 
L 57.195084 76.637405 
L 57.42637 76.346773 
L 57.520351 76.233717 
L 57.767933 75.942814 
L 57.845618 75.854463 
L 58.129186 75.538853 
L 58.17088 75.493548 
L 58.496147 75.14944 
L 58.510358 75.134893 
L 58.821414 74.823178 
L 58.917921 74.730934 
L 59.14668 74.515782 
L 59.360976 74.326975 
L 59.471947 74.230382 
L 59.797214 73.970114 
L 59.862107 73.923013 
L 60.12248 73.736435 
L 60.447747 73.530803 
L 60.468976 73.519054 
L 60.773009 73.352897 
L 61.09828 73.20215 
L 61.323295 73.115095 
L 61.423547 73.076667 
L 61.748813 72.975216 
L 62.07408 72.895863 
L 62.399347 72.83745 
L 62.724613 72.799873 
L 63.04988 72.784369 
L 63.375142 72.793825 
L 63.700409 72.833097 
L 64.025676 72.909257 
L 64.350942 73.031675 
L 64.507004 73.115095 
L 64.676209 73.213591 
L 65.001476 73.467779 
L 65.05391 73.519054 
L 65.326742 73.805561 
L 65.42035 73.923013 
L 65.652009 74.227963 
L 65.718307 74.326975 
L 65.977271 74.721764 
L 65.98278 74.730934 
L 66.227755 75.134893 
L 66.302542 75.2569 
L 66.466405 75.538853 
L 66.627809 75.81175 
L 66.702554 75.942814 
L 66.936234 76.346773 
L 66.953075 76.375765 
L 67.165472 76.750733 
L 67.278342 76.953066 
L 67.388744 77.154692 
L 67.602158 77.558654 
L 67.603609 77.561543 
L 67.802118 77.962613 
L 67.928875 78.239219 
L 67.986708 78.366572 
L 68.15374 78.770531 
L 68.254142 79.043256 
L 68.302308 79.174493 
L 68.431301 79.578452 
L 68.539933 79.982411 
L 68.579404 80.165781 
L 68.626928 80.386371 
L 68.69043 80.790332 
L 68.728525 81.194292 
L 68.738757 81.598251 
L 68.7184 82.00221 
L 68.664734 82.406172 
L 68.579404 82.791824 
L 68.575183 82.810131 
L 68.443116 83.21409 
L 68.269341 83.618049 
L 68.254142 83.646638 
L 68.04327 84.022011 
L 67.928875 84.192248 
L 67.762313 84.42597 
L 67.603609 84.617998 
L 67.417984 84.82993 
L 67.278342 84.97082 
L 67.003442 85.233889 
L 66.953075 85.277328 
L 66.627809 85.545804 
L 66.511779 85.63785 
L 66.302542 85.790292 
L 65.977271 86.01975 
L 65.944904 86.04181 
L 65.652009 86.227688 
L 65.326742 86.427443 
L 65.295482 86.445769 
L 65.001476 86.607686 
L 64.676209 86.777511 
L 64.527531 86.849729 
L 64.350942 86.930732 
L 64.025676 87.067249 
L 63.700409 87.190205 
L 63.510672 87.253689 
L 63.375142 87.29664 
L 63.04988 87.386879 
L 62.724613 87.465489 
L 62.399347 87.534034 
L 62.07408 87.594305 
L 61.748813 87.648006 
L 61.684214 87.657649 
L 61.423547 87.694652 
L 61.09828 87.736586 
L 60.773009 87.774378 
L 60.447747 87.807515 
L 60.12248 87.83486 
L 59.797214 87.854649 
L 59.471947 87.864496 
L 59.14668 87.861374 
L 58.821414 87.841597 
L 58.496147 87.800815 
L 58.17088 87.734034 
L 57.916866 87.657649 
L 57.845618 87.633706 
L 57.520351 87.484911 
L 57.195084 87.286967 
L 57.151214 87.253689 
L 56.869818 87.007888 
L 56.721627 86.849729 
L 56.544551 86.62815 
L 56.420352 86.445769 
L 56.219285 86.09359 
L 56.193242 86.04181 
L 56.022681 85.63785 
L 55.894018 85.263913 
L 55.884603 85.233889 
L 55.780585 84.82993 
L 55.697503 84.42597 
L 55.632286 84.022011 
L 55.582372 83.618049 
L 55.568751 83.467771 
L 55.54709 83.21409 
z
" clip-path="url(#p2b335f8ee2)" style="fill: none; stroke: #d94801; stroke-opacity: 0.666667; stroke-width: 1.5"/>
   </g>
   <g id="PathCollection_14">
    <path d="M 59.749332 82.406172 
L 59.687123 82.00221 
L 59.683046 81.598251 
L 59.723749 81.194292 
L 59.797214 80.809846 
L 59.801248 80.790332 
L 59.921941 80.386371 
L 60.073194 79.982411 
L 60.12248 79.873799 
L 60.272176 79.578452 
L 60.447747 79.282398 
L 60.522067 79.174493 
L 60.773009 78.859437 
L 60.859825 78.770531 
L 61.09828 78.556856 
L 61.380792 78.366572 
L 61.423547 78.341047 
L 61.748813 78.216072 
L 62.07408 78.161757 
L 62.399347 78.178362 
L 62.724613 78.263899 
L 62.945685 78.366572 
L 63.04988 78.42106 
L 63.375142 78.660223 
L 63.493332 78.770531 
L 63.700409 78.995901 
L 63.83683 79.174493 
L 64.025676 79.48198 
L 64.076541 79.578452 
L 64.22926 79.982411 
L 64.316041 80.386371 
L 64.332416 80.790332 
L 64.276626 81.194292 
L 64.148968 81.598251 
L 64.025676 81.849725 
L 63.940809 82.00221 
L 63.700409 82.326242 
L 63.632749 82.406172 
L 63.375142 82.652966 
L 63.186951 82.810131 
L 63.04988 82.907354 
L 62.724613 83.10483 
L 62.509398 83.21409 
L 62.399347 83.262963 
L 62.07408 83.376259 
L 61.748813 83.458097 
L 61.423547 83.504106 
L 61.09828 83.507169 
L 60.773009 83.456536 
L 60.447747 83.336554 
L 60.25225 83.21409 
L 60.12248 83.096487 
L 59.909037 82.810131 
L 59.797214 82.550936 
L 59.749332 82.406172 
z
" clip-path="url(#p2b335f8ee2)" style="fill: none; stroke: #d94801; stroke-opacity: 0.888889; stroke-width: 1.5"/>
   </g>
   <g id="PathCollection_15"/>
   <g id="patch_3">
    <path d="M 32.474844 104.22 
L 32.474844 23.832 
" style="fill: none; stroke: #000000; stroke-width: 1.5; stroke-linejoin: miter; stroke-linecap: square"/>
   </g>
   <g id="patch_4">
    <path d="M 32.474844 104.22 
L 97.202844 104.22 
" style="fill: none; stroke: #000000; stroke-width: 1.5; stroke-linejoin: miter; stroke-linecap: square"/>
   </g>
  </g>
  <g id="axes_2">
   <g id="patch_5">
    <path d="M 32.474844 21.06 
L 97.202844 21.06 
L 97.202844 7.2 
L 32.474844 7.2 
L 32.474844 21.06 
z
" style="fill: none"/>
   </g>
   <g id="PolyCollection_1">
    <defs>
     <path id="mc801b0bec4" d="M 32.474844 -118.860781 
L 32.474844 -118.860781 
L 32.80011 -118.860781 
L 33.125376 -118.860781 
L 33.450643 -118.860781 
L 33.775909 -118.860781 
L 34.101176 -118.860781 
L 34.426442 -118.860781 
L 34.751708 -118.860781 
L 35.076974 -118.860781 
L 35.40224 -118.860781 
L 35.727506 -118.860781 
L 36.052773 -118.860781 
L 36.378039 -118.860781 
L 36.703305 -118.860781 
L 37.028572 -118.860781 
L 37.353838 -118.860781 
L 37.679105 -118.860781 
L 38.004371 -118.860781 
L 38.329638 -118.860781 
L 38.654905 -118.860781 
L 38.980169 -118.860781 
L 39.305436 -118.860781 
L 39.630703 -118.860781 
L 39.955969 -118.860781 
L 40.281236 -118.860781 
L 40.606502 -118.860781 
L 40.931769 -118.860781 
L 41.257036 -118.860781 
L 41.5823 -118.860781 
L 41.907567 -118.860781 
L 42.232834 -118.860781 
L 42.5581 -118.860781 
L 42.883365 -118.860781 
L 43.208631 -118.860781 
L 43.533898 -118.860781 
L 43.859165 -118.860781 
L 44.184429 -118.860781 
L 44.509696 -118.860781 
L 44.834963 -118.860781 
L 45.160229 -118.860781 
L 45.485496 -118.860781 
L 45.810763 -118.860781 
L 46.136029 -118.860781 
L 46.461296 -118.860781 
L 46.78656 -118.860781 
L 47.111827 -118.860781 
L 47.437094 -118.860781 
L 47.76236 -118.860781 
L 48.087627 -118.860781 
L 48.412894 -118.860781 
L 48.73816 -118.860781 
L 49.063427 -118.860781 
L 49.388691 -118.860781 
L 49.713958 -118.860781 
L 50.039225 -118.860781 
L 50.364491 -118.860781 
L 50.689758 -118.860781 
L 51.015025 -118.860781 
L 51.340291 -118.860781 
L 51.665558 -118.860781 
L 51.990822 -118.860781 
L 52.316089 -118.860781 
L 52.641356 -118.860781 
L 52.966622 -118.860781 
L 53.291889 -118.860781 
L 53.617156 -118.860781 
L 53.942422 -118.860781 
L 54.267689 -118.860781 
L 54.592955 -118.860781 
L 54.918222 -118.860781 
L 55.243489 -118.860781 
L 55.568751 -118.860781 
L 55.894018 -118.860781 
L 56.219285 -118.860781 
L 56.544551 -118.860781 
L 56.869818 -118.860781 
L 57.195084 -118.860781 
L 57.520351 -118.860781 
L 57.845618 -118.860781 
L 58.17088 -118.860781 
L 58.496147 -118.860781 
L 58.821414 -118.860781 
L 59.14668 -118.860781 
L 59.471947 -118.860781 
L 59.797214 -118.860781 
L 60.12248 -118.860781 
L 60.447747 -118.860781 
L 60.773009 -118.860781 
L 61.09828 -118.860781 
L 61.423547 -118.860781 
L 61.748813 -118.860781 
L 62.07408 -118.860781 
L 62.399347 -118.860781 
L 62.724613 -118.860781 
L 63.04988 -118.860781 
L 63.375142 -118.860781 
L 63.700409 -118.860781 
L 64.025676 -118.860781 
L 64.350942 -118.860781 
L 64.676209 -118.860781 
L 65.001476 -118.860781 
L 65.326742 -118.860781 
L 65.652009 -118.860781 
L 65.977271 -118.860781 
L 66.302542 -118.860781 
L 66.627809 -118.860781 
L 66.953075 -118.860781 
L 67.278342 -118.860781 
L 67.603609 -118.860781 
L 67.928875 -118.860781 
L 68.254142 -118.860781 
L 68.579404 -118.860781 
L 68.904675 -118.860781 
L 69.229942 -118.860781 
L 69.555208 -118.860781 
L 69.880475 -118.860781 
L 70.205742 -118.860781 
L 70.531008 -118.860781 
L 70.856275 -118.860781 
L 71.181537 -118.860781 
L 71.506804 -118.860781 
L 71.832071 -118.860781 
L 72.157337 -118.860781 
L 72.482604 -118.860781 
L 72.807871 -118.860781 
L 73.133137 -118.860781 
L 73.458404 -118.860781 
L 73.783667 -118.860781 
L 74.108937 -118.860781 
L 74.434204 -118.860781 
L 74.75947 -118.860781 
L 75.084737 -118.860781 
L 75.410004 -118.860781 
L 75.73527 -118.860781 
L 76.060537 -118.860781 
L 76.3858 -118.860781 
L 76.711066 -118.860781 
L 77.036333 -118.860781 
L 77.361599 -118.860781 
L 77.686866 -118.860781 
L 78.012133 -118.860781 
L 78.337399 -118.860781 
L 78.662666 -118.860781 
L 78.987929 -118.860781 
L 79.313195 -118.860781 
L 79.638462 -118.860781 
L 79.963728 -118.860781 
L 80.288995 -118.860781 
L 80.614262 -118.860781 
L 80.939528 -118.860781 
L 81.264795 -118.860781 
L 81.590058 -118.860781 
L 81.915328 -118.860781 
L 82.240595 -118.860781 
L 82.565861 -118.860781 
L 82.891128 -118.860781 
L 83.216395 -118.860781 
L 83.541661 -118.860781 
L 83.866928 -118.860781 
L 84.192191 -118.860781 
L 84.517457 -118.860781 
L 84.842724 -118.860781 
L 85.16799 -118.860781 
L 85.493257 -118.860781 
L 85.818524 -118.860781 
L 86.14379 -118.860781 
L 86.469057 -118.860781 
L 86.79432 -118.860781 
L 87.119586 -118.860781 
L 87.444853 -118.860781 
L 87.77012 -118.860781 
L 88.095386 -118.860781 
L 88.420653 -118.860781 
L 88.745919 -118.860781 
L 89.071186 -118.860781 
L 89.396453 -118.860781 
L 89.721719 -118.860781 
L 90.046986 -118.860781 
L 90.372253 -118.860781 
L 90.697519 -118.860781 
L 91.022786 -118.860781 
L 91.348052 -118.860781 
L 91.673319 -118.860781 
L 91.998586 -118.860781 
L 92.323852 -118.860781 
L 92.649119 -118.860781 
L 92.974386 -118.860781 
L 93.299652 -118.860781 
L 93.624919 -118.860781 
L 93.950185 -118.860781 
L 94.275452 -118.860781 
L 94.600719 -118.860781 
L 94.925977 -118.860781 
L 95.251244 -118.860781 
L 95.576511 -118.860781 
L 95.901777 -118.860781 
L 96.227044 -118.860781 
L 96.552311 -118.860781 
L 96.877577 -118.860781 
L 97.202844 -118.860781 
L 97.202844 -118.860781 
L 97.202844 -118.860781 
L 96.877577 -118.860781 
L 96.552311 -118.860781 
L 96.227044 -118.860781 
L 95.901777 -118.860781 
L 95.576511 -118.860781 
L 95.251244 -118.860781 
L 94.925977 -118.860781 
L 94.600719 -118.860781 
L 94.275452 -118.860781 
L 93.950185 -118.860781 
L 93.624919 -118.860781 
L 93.299652 -118.860781 
L 92.974386 -118.860781 
L 92.649119 -118.860781 
L 92.323852 -118.860781 
L 91.998586 -118.860781 
L 91.673319 -118.860781 
L 91.348052 -118.860781 
L 91.022786 -118.860781 
L 90.697519 -118.860781 
L 90.372253 -118.860781 
L 90.046986 -118.860781 
L 89.721719 -118.860781 
L 89.396453 -118.860781 
L 89.071186 -118.860781 
L 88.745919 -118.860781 
L 88.420653 -118.860781 
L 88.095386 -118.860781 
L 87.77012 -118.860781 
L 87.444853 -118.860781 
L 87.119586 -118.860781 
L 86.79432 -118.860781 
L 86.469057 -118.860781 
L 86.14379 -118.860781 
L 85.818524 -118.860781 
L 85.493257 -118.860781 
L 85.16799 -118.860781 
L 84.842724 -118.860781 
L 84.517457 -118.860781 
L 84.192191 -118.860781 
L 83.866928 -118.860781 
L 83.541661 -118.860781 
L 83.216395 -118.860781 
L 82.891128 -118.860781 
L 82.565861 -118.860781 
L 82.240595 -118.860781 
L 81.915328 -118.860781 
L 81.590058 -118.860781 
L 81.264795 -118.860781 
L 80.939528 -118.860781 
L 80.614262 -118.860781 
L 80.288995 -118.860781 
L 79.963728 -118.860781 
L 79.638462 -118.860781 
L 79.313195 -118.860781 
L 78.987929 -118.860781 
L 78.662666 -118.860781 
L 78.337399 -118.860781 
L 78.012133 -118.860781 
L 77.686866 -118.860781 
L 77.361599 -118.860781 
L 77.036333 -118.860781 
L 76.711066 -118.860781 
L 76.3858 -118.860781 
L 76.060537 -118.860781 
L 75.73527 -118.860781 
L 75.410004 -118.860781 
L 75.084737 -118.860781 
L 74.75947 -118.860781 
L 74.434204 -118.860781 
L 74.108937 -118.860781 
L 73.783667 -118.860781 
L 73.458404 -118.860781 
L 73.133137 -118.860781 
L 72.807871 -118.860781 
L 72.482604 -118.860781 
L 72.157337 -118.860781 
L 71.832071 -118.860781 
L 71.506804 -118.860781 
L 71.181537 -118.860781 
L 70.856275 -118.860781 
L 70.531008 -118.860781 
L 70.205742 -118.860781 
L 69.880475 -118.860781 
L 69.555208 -118.860781 
L 69.229942 -118.860781 
L 68.904675 -118.860781 
L 68.579404 -118.860781 
L 68.254142 -118.860781 
L 67.928875 -118.860781 
L 67.603609 -118.860781 
L 67.278342 -118.860781 
L 66.953075 -118.860781 
L 66.627809 -118.860781 
L 66.302542 -118.860781 
L 65.977271 -118.860781 
L 65.652009 -118.860781 
L 65.326742 -118.860781 
L 65.001476 -118.860781 
L 64.676209 -118.860781 
L 64.350942 -118.860781 
L 64.025676 -118.860781 
L 63.700409 -118.860781 
L 63.375142 -118.860781 
L 63.04988 -118.860781 
L 62.724613 -118.860781 
L 62.399347 -118.860781 
L 62.07408 -118.860781 
L 61.748813 -118.860781 
L 61.423547 -118.860781 
L 61.09828 -118.860781 
L 60.773009 -118.860781 
L 60.447747 -118.860781 
L 60.12248 -118.860781 
L 59.797214 -118.860781 
L 59.471947 -118.860781 
L 59.14668 -118.860781 
L 58.821414 -118.860781 
L 58.496147 -118.860781 
L 58.17088 -118.860781 
L 57.845618 -118.860781 
L 57.520351 -118.860781 
L 57.195084 -118.860781 
L 56.869818 -118.860781 
L 56.544551 -118.860781 
L 56.219285 -118.860781 
L 55.894018 -118.860781 
L 55.568751 -118.860781 
L 55.243489 -118.860781 
L 54.918222 -118.860781 
L 54.592955 -118.860781 
L 54.267689 -118.860781 
L 53.942422 -118.860781 
L 53.617156 -118.860781 
L 53.291889 -118.860781 
L 52.966622 -118.860781 
L 52.641356 -118.860781 
L 52.316089 -118.860781 
L 51.990822 -118.860781 
L 51.665558 -118.860781 
L 51.340291 -118.860781 
L 51.015025 -118.860781 
L 50.689758 -118.860781 
L 50.364491 -118.860781 
L 50.039225 -118.860781 
L 49.713958 -118.860798 
L 49.388691 -118.86223 
L 49.063427 -118.879921 
L 48.73816 -118.898585 
L 48.412894 -118.881486 
L 48.087627 -118.960432 
L 47.76236 -119.162925 
L 47.437094 -119.533645 
L 47.111827 -119.959592 
L 46.78656 -120.51505 
L 46.461296 -121.208095 
L 46.136029 -122.278207 
L 45.810763 -124.264621 
L 45.485496 -127.275787 
L 45.160229 -132.680105 
L 44.834963 -138.081743 
L 44.509696 -142.730267 
L 44.184429 -148.590056 
L 43.859165 -156.120461 
L 43.533898 -163.117122 
L 43.208631 -169.148501 
L 42.883365 -175.278991 
L 42.5581 -179.574707 
L 42.232834 -180.603395 
L 41.907567 -176.540727 
L 41.5823 -170.811595 
L 41.257036 -164.080478 
L 40.931769 -156.773451 
L 40.606502 -148.060685 
L 40.281236 -139.06565 
L 39.955969 -132.445803 
L 39.630703 -127.94123 
L 39.305436 -124.328164 
L 38.980169 -121.831987 
L 38.654905 -120.662578 
L 38.329638 -119.856767 
L 38.004371 -119.238231 
L 37.679105 -118.944697 
L 37.353838 -118.90177 
L 37.028572 -118.881503 
L 36.703305 -118.8625 
L 36.378039 -118.860802 
L 36.052773 -118.860781 
L 35.727506 -118.860781 
L 35.40224 -118.860781 
L 35.076974 -118.860781 
L 34.751708 -118.860781 
L 34.426442 -118.860781 
L 34.101176 -118.860781 
L 33.775909 -118.860781 
L 33.450643 -118.860781 
L 33.125376 -118.860781 
L 32.80011 -118.860781 
L 32.474844 -118.860781 
z
" style="stroke: #08519c; stroke-opacity: 0.1"/>
    </defs>
    <g clip-path="url(#pbe59268568)">
     <use xlink:href="#mc801b0bec4" x="0" y="139.920781" style="fill: #08519c; fill-opacity: 0.1; stroke: #08519c; stroke-opacity: 0.1"/>
    </g>
   </g>
   <g id="PolyCollection_2">
    <defs>
     <path id="m3159710b78" d="M 32.474844 -118.860781 
L 32.474844 -118.860781 
L 32.80011 -118.860781 
L 33.125376 -118.860781 
L 33.450643 -118.860781 
L 33.775909 -118.860781 
L 34.101176 -118.860781 
L 34.426442 -118.860781 
L 34.751708 -118.860781 
L 35.076974 -118.860781 
L 35.40224 -118.860781 
L 35.727506 -118.860781 
L 36.052773 -118.860781 
L 36.378039 -118.860781 
L 36.703305 -118.860781 
L 37.028572 -118.860781 
L 37.353838 -118.860781 
L 37.679105 -118.860781 
L 38.004371 -118.860781 
L 38.329638 -118.860781 
L 38.654905 -118.860781 
L 38.980169 -118.860781 
L 39.305436 -118.860781 
L 39.630703 -118.860781 
L 39.955969 -118.860781 
L 40.281236 -118.860781 
L 40.606502 -118.860781 
L 40.931769 -118.860781 
L 41.257036 -118.860781 
L 41.5823 -118.860781 
L 41.907567 -118.860781 
L 42.232834 -118.860781 
L 42.5581 -118.860781 
L 42.883365 -118.860781 
L 43.208631 -118.860781 
L 43.533898 -118.860781 
L 43.859165 -118.860781 
L 44.184429 -118.860781 
L 44.509696 -118.860781 
L 44.834963 -118.860781 
L 45.160229 -118.860781 
L 45.485496 -118.860781 
L 45.810763 -118.860781 
L 46.136029 -118.860781 
L 46.461296 -118.860781 
L 46.78656 -118.860781 
L 47.111827 -118.860781 
L 47.437094 -118.860781 
L 47.76236 -118.860781 
L 48.087627 -118.860781 
L 48.412894 -118.860781 
L 48.73816 -118.860781 
L 49.063427 -118.860781 
L 49.388691 -118.860781 
L 49.713958 -118.860781 
L 50.039225 -118.860781 
L 50.364491 -118.860781 
L 50.689758 -118.860781 
L 51.015025 -118.860781 
L 51.340291 -118.860781 
L 51.665558 -118.860781 
L 51.990822 -118.860781 
L 52.316089 -118.860781 
L 52.641356 -118.860781 
L 52.966622 -118.860781 
L 53.291889 -118.860781 
L 53.617156 -118.860781 
L 53.942422 -118.860781 
L 54.267689 -118.860781 
L 54.592955 -118.860781 
L 54.918222 -118.860781 
L 55.243489 -118.860781 
L 55.568751 -118.860781 
L 55.894018 -118.860781 
L 56.219285 -118.860781 
L 56.544551 -118.860781 
L 56.869818 -118.860781 
L 57.195084 -118.860781 
L 57.520351 -118.860781 
L 57.845618 -118.860781 
L 58.17088 -118.860781 
L 58.496147 -118.860781 
L 58.821414 -118.860781 
L 59.14668 -118.860781 
L 59.471947 -118.860781 
L 59.797214 -118.860781 
L 60.12248 -118.860781 
L 60.447747 -118.860781 
L 60.773009 -118.860781 
L 61.09828 -118.860781 
L 61.423547 -118.860781 
L 61.748813 -118.860781 
L 62.07408 -118.860781 
L 62.399347 -118.860781 
L 62.724613 -118.860781 
L 63.04988 -118.860781 
L 63.375142 -118.860781 
L 63.700409 -118.860781 
L 64.025676 -118.860781 
L 64.350942 -118.860781 
L 64.676209 -118.860781 
L 65.001476 -118.860781 
L 65.326742 -118.860781 
L 65.652009 -118.860781 
L 65.977271 -118.860781 
L 66.302542 -118.860781 
L 66.627809 -118.860781 
L 66.953075 -118.860781 
L 67.278342 -118.860781 
L 67.603609 -118.860781 
L 67.928875 -118.860781 
L 68.254142 -118.860781 
L 68.579404 -118.860781 
L 68.904675 -118.860781 
L 69.229942 -118.860781 
L 69.555208 -118.860781 
L 69.880475 -118.860781 
L 70.205742 -118.860781 
L 70.531008 -118.860781 
L 70.856275 -118.860781 
L 71.181537 -118.860781 
L 71.506804 -118.860781 
L 71.832071 -118.860781 
L 72.157337 -118.860781 
L 72.482604 -118.860781 
L 72.807871 -118.860781 
L 73.133137 -118.860781 
L 73.458404 -118.860781 
L 73.783667 -118.860781 
L 74.108937 -118.860781 
L 74.434204 -118.860781 
L 74.75947 -118.860781 
L 75.084737 -118.860781 
L 75.410004 -118.860781 
L 75.73527 -118.860781 
L 76.060537 -118.860781 
L 76.3858 -118.860781 
L 76.711066 -118.860781 
L 77.036333 -118.860781 
L 77.361599 -118.860781 
L 77.686866 -118.860781 
L 78.012133 -118.860781 
L 78.337399 -118.860781 
L 78.662666 -118.860781 
L 78.987929 -118.860781 
L 79.313195 -118.860781 
L 79.638462 -118.860781 
L 79.963728 -118.860781 
L 80.288995 -118.860781 
L 80.614262 -118.860781 
L 80.939528 -118.860781 
L 81.264795 -118.860781 
L 81.590058 -118.860781 
L 81.915328 -118.860781 
L 82.240595 -118.860781 
L 82.565861 -118.860781 
L 82.891128 -118.860781 
L 83.216395 -118.860781 
L 83.541661 -118.860781 
L 83.866928 -118.860781 
L 84.192191 -118.860781 
L 84.517457 -118.860781 
L 84.842724 -118.860781 
L 85.16799 -118.860781 
L 85.493257 -118.860781 
L 85.818524 -118.860781 
L 86.14379 -118.860781 
L 86.469057 -118.860781 
L 86.79432 -118.860781 
L 87.119586 -118.860781 
L 87.444853 -118.860781 
L 87.77012 -118.860781 
L 88.095386 -118.860781 
L 88.420653 -118.860781 
L 88.745919 -118.860781 
L 89.071186 -118.860781 
L 89.396453 -118.860781 
L 89.721719 -118.860781 
L 90.046986 -118.860781 
L 90.372253 -118.860781 
L 90.697519 -118.860781 
L 91.022786 -118.860781 
L 91.348052 -118.860781 
L 91.673319 -118.860781 
L 91.998586 -118.860781 
L 92.323852 -118.860781 
L 92.649119 -118.860781 
L 92.974386 -118.860781 
L 93.299652 -118.860781 
L 93.624919 -118.860781 
L 93.950185 -118.860781 
L 94.275452 -118.860781 
L 94.600719 -118.860781 
L 94.925977 -118.860781 
L 95.251244 -118.860781 
L 95.576511 -118.860781 
L 95.901777 -118.860781 
L 96.227044 -118.860781 
L 96.552311 -118.860781 
L 96.877577 -118.860781 
L 97.202844 -118.860781 
L 97.202844 -119.019151 
L 97.202844 -119.019151 
L 96.877577 -119.031609 
L 96.552311 -119.044795 
L 96.227044 -119.058528 
L 95.901777 -119.072664 
L 95.576511 -119.087084 
L 95.251244 -119.10168 
L 94.925977 -119.116356 
L 94.600719 -119.131034 
L 94.275452 -119.145687 
L 93.950185 -119.160354 
L 93.624919 -119.175159 
L 93.299652 -119.190319 
L 92.974386 -119.206135 
L 92.649119 -119.222989 
L 92.323852 -119.241342 
L 91.998586 -119.26173 
L 91.673319 -119.284743 
L 91.348052 -119.310994 
L 91.022786 -119.341043 
L 90.697519 -119.375301 
L 90.372253 -119.413917 
L 90.046986 -119.45667 
L 89.721719 -119.502894 
L 89.396453 -119.551466 
L 89.071186 -119.60086 
L 88.745919 -119.649286 
L 88.420653 -119.694902 
L 88.095386 -119.736064 
L 87.77012 -119.771601 
L 87.444853 -119.80104 
L 87.119586 -119.82477 
L 86.79432 -119.844089 
L 86.469057 -119.861121 
L 86.14379 -119.878596 
L 85.818524 -119.899513 
L 85.493257 -119.926708 
L 85.16799 -119.962392 
L 84.842724 -120.007739 
L 84.517457 -120.062615 
L 84.192191 -120.12554 
L 83.866928 -120.19392 
L 83.541661 -120.264562 
L 83.216395 -120.334356 
L 82.891128 -120.400997 
L 82.565861 -120.463569 
L 82.240595 -120.522825 
L 81.915328 -120.581106 
L 81.590058 -120.641904 
L 81.264795 -120.709169 
L 80.939528 -120.786558 
L 80.614262 -120.876764 
L 80.288995 -120.981091 
L 79.963728 -121.099315 
L 79.638462 -121.229824 
L 79.313195 -121.369963 
L 78.987929 -121.516481 
L 78.662666 -121.666007 
L 78.337399 -121.815504 
L 78.012133 -121.962641 
L 77.686866 -122.106084 
L 77.361599 -122.245664 
L 77.036333 -122.382365 
L 76.711066 -122.518118 
L 76.3858 -122.655405 
L 76.060537 -122.796722 
L 75.73527 -122.944048 
L 75.410004 -123.098398 
L 75.084737 -123.25962 
L 74.75947 -123.426447 
L 74.434204 -123.596784 
L 74.108937 -123.768158 
L 73.783667 -123.938201 
L 73.458404 -124.105063 
L 73.133137 -124.267724 
L 72.807871 -124.426087 
L 72.482604 -124.580945 
L 72.157337 -124.733775 
L 71.832071 -124.886427 
L 71.506804 -125.040754 
L 71.181537 -125.198253 
L 70.856275 -125.359777 
L 70.531008 -125.525421 
L 70.205742 -125.694557 
L 69.880475 -125.866065 
L 69.555208 -126.038665 
L 69.229942 -126.211269 
L 68.904675 -126.383263 
L 68.579404 -126.554643 
L 68.254142 -126.725951 
L 67.928875 -126.89807 
L 67.603609 -127.071843 
L 67.278342 -127.247663 
L 66.953075 -127.425066 
L 66.627809 -127.602441 
L 66.302542 -127.776928 
L 65.977271 -127.944563 
L 65.652009 -128.100675 
L 65.326742 -128.240531 
L 65.001476 -128.360041 
L 64.676209 -128.456452 
L 64.350942 -128.528819 
L 64.025676 -128.578149 
L 63.700409 -128.60718 
L 63.375142 -128.619834 
L 63.04988 -128.620476 
L 62.724613 -128.613137 
L 62.399347 -128.600877 
L 62.07408 -128.585403 
L 61.748813 -128.567001 
L 61.423547 -128.544758 
L 61.09828 -128.516986 
L 60.773009 -128.481731 
L 60.447747 -128.437247 
L 60.12248 -128.382346 
L 59.797214 -128.316599 
L 59.471947 -128.240355 
L 59.14668 -128.154625 
L 58.821414 -128.060804 
L 58.496147 -127.960291 
L 58.17088 -127.854025 
L 57.845618 -127.742029 
L 57.520351 -127.623086 
L 57.195084 -127.494678 
L 56.869818 -127.353254 
L 56.544551 -127.194824 
L 56.219285 -127.015745 
L 55.894018 -126.813486 
L 55.568751 -126.587159 
L 55.243489 -126.337675 
L 54.918222 -126.067486 
L 54.592955 -125.780071 
L 54.267689 -125.479293 
L 53.942422 -125.168871 
L 53.617156 -124.852072 
L 53.291889 -124.531643 
L 52.966622 -124.209947 
L 52.641356 -123.88916 
L 52.316089 -123.571466 
L 51.990822 -123.259148 
L 51.665558 -122.95458 
L 51.340291 -122.660099 
L 51.015025 -122.377839 
L 50.689758 -122.109521 
L 50.364491 -121.856277 
L 50.039225 -121.618538 
L 49.713958 -121.396028 
L 49.388691 -121.187876 
L 49.063427 -120.992841 
L 48.73816 -120.809585 
L 48.412894 -120.636952 
L 48.087627 -120.474163 
L 47.76236 -120.320895 
L 47.437094 -120.177226 
L 47.111827 -120.043476 
L 46.78656 -119.919996 
L 46.461296 -119.80697 
L 46.136029 -119.704274 
L 45.810763 -119.611429 
L 45.485496 -119.527645 
L 45.160229 -119.451924 
L 44.834963 -119.383221 
L 44.509696 -119.320587 
L 44.184429 -119.263286 
L 43.859165 -119.210854 
L 43.533898 -119.163084 
L 43.208631 -119.119953 
L 42.883365 -119.08151 
L 42.5581 -119.04776 
L 42.232834 -119.018572 
L 41.907567 -118.99364 
L 41.5823 -118.972496 
L 41.257036 -118.95457 
L 40.931769 -118.939269 
L 40.606502 -118.926058 
L 40.281236 -118.914519 
L 39.955969 -118.90437 
L 39.630703 -118.895458 
L 39.305436 -118.88772 
L 38.980169 -118.881139 
L 38.654905 -118.875698 
L 38.329638 -118.871349 
L 38.004371 -118.868004 
L 37.679105 -118.865535 
L 37.353838 -118.86379 
L 37.028572 -118.86261 
L 36.703305 -118.861848 
L 36.378039 -118.861378 
L 36.052773 -118.861101 
L 35.727506 -118.860945 
L 35.40224 -118.860862 
L 35.076974 -118.860819 
L 34.751708 -118.860798 
L 34.426442 -118.860789 
L 34.101176 -118.860784 
L 33.775909 -118.860782 
L 33.450643 -118.860782 
L 33.125376 -118.860781 
L 32.80011 -118.860781 
L 32.474844 -118.860781 
z
" style="stroke: #d94801; stroke-opacity: 0.1"/>
    </defs>
    <g clip-path="url(#pbe59268568)">
     <use xlink:href="#m3159710b78" x="0" y="139.920781" style="fill: #d94801; fill-opacity: 0.1; stroke: #d94801; stroke-opacity: 0.1"/>
    </g>
   </g>
   <g id="matplotlib.axis_3">
    <g id="xtick_3">
     <g id="line2d_7">
      <g>
       <use xlink:href="#m5276ecb0e3" x="54.050844" y="21.06" style="stroke: #000000; stroke-width: 1.5"/>
      </g>
     </g>
    </g>
    <g id="xtick_4">
     <g id="line2d_8">
      <g>
       <use xlink:href="#m5276ecb0e3" x="87.244691" y="21.06" style="stroke: #000000; stroke-width: 1.5"/>
      </g>
     </g>
    </g>
   </g>
   <g id="matplotlib.axis_4">
    <g id="ytick_5">
     <g id="line2d_9">
      <g>
       <use xlink:href="#me00c5fa6f1" x="32.474844" y="21.06" style="stroke: #000000; stroke-width: 1.5"/>
      </g>
     </g>
    </g>
    <g id="ytick_6">
     <g id="line2d_10">
      <g>
       <use xlink:href="#me00c5fa6f1" x="32.474844" y="7.392316" style="stroke: #000000; stroke-width: 1.5"/>
      </g>
     </g>
    </g>
   </g>
   <g id="line2d_11">
    <path d="M 32.474844 21.06 
L 37.679105 20.976084 
L 38.004371 20.68255 
L 38.654905 19.258204 
L 38.980169 18.088795 
L 39.305436 15.592617 
L 39.955969 7.474978 
L 40.348319 -1 
M 44.636309 -1 
L 45.810763 15.65616 
L 46.136029 17.642574 
L 46.78656 19.405731 
L 47.437094 20.387137 
L 48.087627 20.960349 
L 48.73816 21.022196 
L 51.015025 21.06 
L 97.202844 21.06 
L 97.202844 21.06 
" clip-path="url(#pbe59268568)" style="fill: none; stroke: #08519c; stroke-width: 1.5; stroke-linecap: square"/>
   </g>
   <g id="line2d_12">
    <path d="M 32.474844 21.06 
L 41.257036 20.966211 
L 43.533898 20.757697 
L 45.485496 20.393137 
L 47.111827 19.877305 
L 48.73816 19.111196 
L 50.039225 18.302243 
L 51.340291 17.260682 
L 53.617156 15.06871 
L 55.243489 13.583107 
L 56.219285 12.905036 
L 57.520351 12.297695 
L 59.471947 11.680426 
L 61.09828 11.403795 
L 63.375142 11.300947 
L 64.350942 11.391962 
L 65.326742 11.68025 
L 66.953075 12.495716 
L 71.832071 15.034355 
L 80.614262 19.044017 
L 82.240595 19.397956 
L 86.469057 20.05966 
L 88.745919 20.271495 
L 91.998586 20.659052 
L 97.202844 20.90163 
L 97.202844 20.90163 
" clip-path="url(#pbe59268568)" style="fill: none; stroke: #d94801; stroke-width: 1.5; stroke-linecap: square"/>
   </g>
   <g id="patch_6">
    <path d="M 32.474844 21.06 
L 32.474844 7.2 
" style="fill: none; stroke: #000000; stroke-width: 1.5; stroke-linejoin: miter; stroke-linecap: square"/>
   </g>
   <g id="patch_7">
    <path d="M 32.474844 21.06 
L 97.202844 21.06 
" style="fill: none; stroke: #000000; stroke-width: 1.5; stroke-linejoin: miter; stroke-linecap: square"/>
   </g>
  </g>
  <g id="axes_3">
   <g id="patch_8">
    <path d="M 99.434844 104.22 
L 110.594844 104.22 
L 110.594844 23.832 
L 99.434844 23.832 
L 99.434844 104.22 
z
" style="fill: none"/>
   </g>
   <g id="PolyCollection_3">
    <defs>
     <path id="mdb50f8e0fe" d="M 99.434994 -35.700781 
L 99.434994 -33.691359 
L 99.435142 -33.691632 
L 99.435414 -33.692135 
L 99.435896 -33.693025 
L 99.436719 -33.694546 
L 99.43808 -33.697059 
L 99.440255 -33.701078 
L 99.443628 -33.707307 
L 99.448704 -33.716685 
L 99.456138 -33.730418 
L 99.466744 -33.75001 
L 99.481506 -33.777279 
L 99.501578 -33.814357 
L 99.528273 -33.863669 
L 99.563032 -33.927878 
L 99.607393 -34.009824 
L 99.662938 -34.112431 
L 99.731247 -34.238616 
L 99.813851 -34.391206 
L 99.912187 -34.572859 
L 100.027573 -34.786006 
L 100.161168 -35.032792 
L 100.313941 -35.315003 
L 100.48661 -35.633967 
L 100.679584 -35.99044 
L 100.892888 -36.384468 
L 101.126118 -36.815306 
L 101.37843 -37.281391 
L 101.64859 -37.780448 
L 101.935072 -38.309655 
L 102.236183 -38.865885 
L 102.550147 -39.445858 
L 102.875128 -40.046183 
L 103.209144 -40.663198 
L 103.549915 -41.29269 
L 103.894695 -41.929588 
L 104.240194 -42.567814 
L 104.582641 -43.200404 
L 104.918034 -43.819962 
L 105.242486 -44.419309 
L 105.552601 -44.992173 
L 105.845719 -45.533638 
L 106.119956 -46.040225 
L 106.374036 -46.509577 
L 106.606994 -46.939912 
L 106.817889 -47.32949 
L 107.005669 -47.676368 
L 107.169262 -47.978566 
L 107.307864 -48.234602 
L 107.421334 -48.444209 
L 107.510496 -48.608914 
L 107.577251 -48.732229 
L 107.624415 -48.819354 
L 107.655333 -48.876466 
L 107.673389 -48.90982 
L 107.681574 -48.92494 
L 107.682218 -48.92613 
L 107.676929 -48.91636 
L 107.666688 -48.897442 
L 107.651999 -48.870308 
L 107.632992 -48.835197 
L 107.609423 -48.791659 
L 107.580608 -48.73843 
L 107.545367 -48.673331 
L 107.502084 -48.593376 
L 107.448927 -48.495182 
L 107.384222 -48.375655 
L 107.306856 -48.232739 
L 107.216582 -48.065979 
L 107.114104 -47.876676 
L 107.000907 -47.667571 
L 106.878898 -47.442189 
L 106.750002 -47.204084 
L 106.61583 -46.956234 
L 106.477546 -46.700788 
L 106.335904 -46.439137 
L 106.191402 -46.172205 
L 106.044441 -45.900729 
L 105.895414 -45.625437 
L 105.744706 -45.347041 
L 105.592639 -45.066133 
L 105.439403 -44.783067 
L 105.285061 -44.497957 
L 105.129602 -44.210784 
L 104.973059 -43.921608 
L 104.815612 -43.630763 
L 104.657666 -43.338994 
L 104.499858 -43.047482 
L 104.343015 -42.757753 
L 104.188064 -42.471517 
L 104.035948 -42.19052 
L 103.887563 -41.916414 
L 103.743716 -41.65069 
L 103.605102 -41.394635 
L 103.472289 -41.149294 
L 103.345666 -40.915388 
L 103.225371 -40.693172 
L 103.111181 -40.482234 
L 103.002411 -40.281308 
L 102.897852 -40.088159 
L 102.795808 -39.899659 
L 102.694242 -39.712038 
L 102.59104 -39.521399 
L 102.484359 -39.32433 
L 102.372959 -39.118545 
L 102.256479 -38.903376 
L 102.135559 -38.680006 
L 102.011774 -38.451342 
L 101.887407 -38.221604 
L 101.765083 -37.995641 
L 101.647372 -37.778197 
L 101.536407 -37.573217 
L 101.433625 -37.38335 
L 101.339652 -37.209759 
L 101.254355 -37.052192 
L 101.177006 -36.909309 
L 101.10654 -36.77914 
L 101.041787 -36.659524 
L 100.981656 -36.548446 
L 100.925205 -36.444167 
L 100.871626 -36.345193 
L 100.820168 -36.250136 
L 100.770062 -36.157578 
L 100.720503 -36.066029 
L 100.670715 -35.974058 
L 100.620082 -35.880525 
L 100.568302 -35.784874 
L 100.515505 -35.687344 
L 100.462281 -35.589025 
L 100.409604 -35.491717 
L 100.358675 -35.397637 
L 100.310719 -35.309051 
L 100.266818 -35.227954 
L 100.227782 -35.155845 
L 100.19411 -35.093644 
L 100.165987 -35.041694 
L 100.143316 -34.999815 
L 100.125737 -34.967341 
L 100.112633 -34.943135 
L 100.103131 -34.925581 
L 100.096116 -34.912623 
L 100.090288 -34.901857 
L 100.084266 -34.890733 
L 100.076736 -34.876823 
L 100.066614 -34.858125 
L 100.05319 -34.833327 
L 100.036217 -34.801975 
L 100.015925 -34.764489 
L 99.992942 -34.722035 
L 99.96816 -34.676255 
L 99.942553 -34.628952 
L 99.917007 -34.581762 
L 99.892197 -34.535932 
L 99.868535 -34.492222 
L 99.846193 -34.450951 
L 99.825192 -34.412155 
L 99.805504 -34.375788 
L 99.787148 -34.34188 
L 99.770226 -34.310619 
L 99.754908 -34.282322 
L 99.741373 -34.25732 
L 99.729729 -34.235812 
L 99.719953 -34.217752 
L 99.71186 -34.202803 
L 99.705136 -34.190381 
L 99.699381 -34.179751 
L 99.694186 -34.170153 
L 99.689176 -34.1609 
L 99.684042 -34.151415 
L 99.678525 -34.141224 
L 99.672401 -34.129911 
L 99.665455 -34.11708 
L 99.657485 -34.102358 
L 99.648331 -34.085447 
L 99.637918 -34.066212 
L 99.626309 -34.044768 
L 99.613727 -34.021526 
L 99.600546 -33.997176 
L 99.587239 -33.972594 
L 99.574303 -33.948698 
L 99.562181 -33.926307 
L 99.551199 -33.906019 
L 99.541535 -33.888167 
L 99.533229 -33.872825 
L 99.526213 -33.859863 
L 99.520351 -33.849036 
L 99.515485 -33.840047 
L 99.511456 -33.832604 
L 99.508117 -33.826436 
L 99.505338 -33.821302 
L 99.502996 -33.816976 
L 99.500972 -33.813237 
L 99.499146 -33.809864 
L 99.497397 -33.806634 
L 99.495615 -33.803342 
L 99.49371 -33.799822 
L 99.491625 -33.795971 
L 99.489354 -33.791776 
L 99.486939 -33.787315 
L 99.484469 -33.782752 
L 99.484469 -116.088781 
L 99.484469 -116.088781 
L 99.486939 -115.68482 
L 99.489354 -115.280858 
L 99.491625 -114.876906 
L 99.49371 -114.472944 
L 99.495615 -114.068983 
L 99.497397 -113.665021 
L 99.499146 -113.261064 
L 99.500972 -112.857103 
L 99.502996 -112.453146 
L 99.505338 -112.049184 
L 99.508117 -111.645222 
L 99.511456 -111.241266 
L 99.515485 -110.837304 
L 99.520351 -110.433347 
L 99.526213 -110.029385 
L 99.533229 -109.625424 
L 99.541535 -109.221467 
L 99.551199 -108.817505 
L 99.562181 -108.413544 
L 99.574303 -108.009587 
L 99.587239 -107.605625 
L 99.600546 -107.201668 
L 99.613727 -106.797707 
L 99.626309 -106.393745 
L 99.637918 -105.989788 
L 99.648331 -105.585827 
L 99.657485 -105.181865 
L 99.665455 -104.777908 
L 99.672401 -104.373946 
L 99.678525 -103.96999 
L 99.684042 -103.566028 
L 99.689176 -103.162066 
L 99.694186 -102.758109 
L 99.699381 -102.354148 
L 99.705136 -101.950186 
L 99.71186 -101.546229 
L 99.719953 -101.142268 
L 99.729729 -100.738311 
L 99.741373 -100.334349 
L 99.754908 -99.930388 
L 99.770226 -99.526431 
L 99.787148 -99.122469 
L 99.805504 -98.718507 
L 99.825192 -98.314551 
L 99.846193 -97.910589 
L 99.868535 -97.506632 
L 99.892197 -97.10267 
L 99.917007 -96.698709 
L 99.942553 -96.294752 
L 99.96816 -95.89079 
L 99.992942 -95.486829 
L 100.015925 -95.082872 
L 100.036217 -94.67891 
L 100.05319 -94.274953 
L 100.066614 -93.870992 
L 100.076736 -93.46703 
L 100.084266 -93.063073 
L 100.090288 -92.659112 
L 100.096116 -92.25515 
L 100.103131 -91.851193 
L 100.112633 -91.447231 
L 100.125737 -91.043275 
L 100.143316 -90.639313 
L 100.165987 -90.235351 
L 100.19411 -89.831395 
L 100.227782 -89.427433 
L 100.266818 -89.023471 
L 100.310719 -88.619514 
L 100.358675 -88.215553 
L 100.409604 -87.811596 
L 100.462281 -87.407634 
L 100.515505 -87.003673 
L 100.568302 -86.599716 
L 100.620082 -86.195754 
L 100.670715 -85.791793 
L 100.720503 -85.387836 
L 100.770062 -84.983874 
L 100.820168 -84.579917 
L 100.871626 -84.175956 
L 100.925205 -83.771994 
L 100.981656 -83.368037 
L 101.041787 -82.964075 
L 101.10654 -82.560114 
L 101.177006 -82.156157 
L 101.254355 -81.752195 
L 101.339652 -81.348238 
L 101.433625 -80.944277 
L 101.536407 -80.540315 
L 101.647372 -80.136358 
L 101.765083 -79.732397 
L 101.887407 -79.328435 
L 102.011774 -78.924478 
L 102.135559 -78.520517 
L 102.256479 -78.11656 
L 102.372959 -77.712598 
L 102.484359 -77.308641 
L 102.59104 -76.904684 
L 102.694242 -76.500723 
L 102.795808 -76.096761 
L 102.897852 -75.692804 
L 103.002411 -75.288843 
L 103.111181 -74.884886 
L 103.225371 -74.480924 
L 103.345666 -74.076962 
L 103.472289 -73.673001 
L 103.605102 -73.269042 
L 103.743716 -72.865082 
L 103.887563 -72.461123 
L 104.035948 -72.057161 
L 104.188064 -71.653202 
L 104.343015 -71.249243 
L 104.499858 -70.845286 
L 104.657666 -70.441325 
L 104.815612 -70.037365 
L 104.973059 -69.633406 
L 105.129602 -69.229447 
L 105.285061 -68.825485 
L 105.439403 -68.421526 
L 105.592639 -68.017567 
L 105.744706 -67.613607 
L 105.895414 -67.209646 
L 106.044441 -66.805687 
L 106.191402 -66.401727 
L 106.335904 -65.997768 
L 106.477546 -65.593806 
L 106.61583 -65.189847 
L 106.750002 -64.785888 
L 106.878898 -64.381929 
L 107.000907 -63.977967 
L 107.114104 -63.574008 
L 107.216582 -63.170049 
L 107.306856 -62.766089 
L 107.384222 -62.362128 
L 107.448927 -61.958168 
L 107.502084 -61.554209 
L 107.545367 -61.15025 
L 107.580608 -60.746288 
L 107.609423 -60.342329 
L 107.632992 -59.93837 
L 107.651999 -59.534411 
L 107.666688 -59.130449 
L 107.676929 -58.72649 
L 107.682218 -58.32253 
L 107.681574 -57.918571 
L 107.673389 -57.51461 
L 107.655333 -57.11065 
L 107.624415 -56.706691 
L 107.577251 -56.302732 
L 107.510496 -55.89877 
L 107.421334 -55.494811 
L 107.307864 -55.090852 
L 107.169262 -54.686892 
L 107.005669 -54.282931 
L 106.817889 -53.878972 
L 106.606994 -53.475012 
L 106.374036 -53.071052 
L 106.119956 -52.667093 
L 105.845719 -52.263132 
L 105.552601 -51.859173 
L 105.242486 -51.455214 
L 104.918034 -51.051254 
L 104.582641 -50.647294 
L 104.240194 -50.243335 
L 103.894695 -49.839374 
L 103.549915 -49.435415 
L 103.209144 -49.031455 
L 102.875128 -48.627495 
L 102.550147 -48.223535 
L 102.236183 -47.819576 
L 101.935072 -47.415615 
L 101.64859 -47.011656 
L 101.37843 -46.607696 
L 101.126118 -46.203736 
L 100.892888 -45.799776 
L 100.679584 -45.395817 
L 100.48661 -44.991856 
L 100.313941 -44.587897 
L 100.161168 -44.183937 
L 100.027573 -43.779977 
L 99.912187 -43.376017 
L 99.813851 -42.972058 
L 99.731247 -42.568098 
L 99.662938 -42.164138 
L 99.607393 -41.760179 
L 99.563032 -41.356218 
L 99.528273 -40.952259 
L 99.501578 -40.548299 
L 99.481506 -40.144339 
L 99.466744 -39.74038 
L 99.456138 -39.33642 
L 99.448704 -38.93246 
L 99.443628 -38.5285 
L 99.440255 -38.12454 
L 99.43808 -37.72058 
L 99.436719 -37.31662 
L 99.435896 -36.912661 
L 99.435414 -36.508701 
L 99.435142 -36.104741 
L 99.434994 -35.700781 
z
" style="stroke: #08519c; stroke-opacity: 0.1"/>
    </defs>
    <g clip-path="url(#p4c80a31fe4)">
     <use xlink:href="#mdb50f8e0fe" x="0" y="139.920781" style="fill: #08519c; fill-opacity: 0.1; stroke: #08519c; stroke-opacity: 0.1"/>
    </g>
   </g>
   <g id="PolyCollection_4">
    <defs>
     <path id="m43ee9ab964" d="M 99.437475 -35.700781 
L 99.437475 -33.695942 
L 99.439111 -33.698964 
L 99.441578 -33.70352 
L 99.445193 -33.710198 
L 99.450348 -33.719721 
L 99.457512 -33.732955 
L 99.467227 -33.750901 
L 99.480107 -33.774693 
L 99.496833 -33.805591 
L 99.518155 -33.844979 
L 99.544895 -33.894374 
L 99.577955 -33.955444 
L 99.618332 -34.030031 
L 99.667128 -34.12017 
L 99.725556 -34.228102 
L 99.794931 -34.356256 
L 99.876648 -34.507208 
L 99.972144 -34.683616 
L 100.082845 -34.888109 
L 100.210101 -35.123184 
L 100.35512 -35.391072 
L 100.518898 -35.693611 
L 100.702142 -36.032111 
L 100.905195 -36.407203 
L 101.127951 -36.818691 
L 101.369762 -37.265379 
L 101.629365 -37.744933 
L 101.904822 -38.253775 
L 102.193529 -38.787092 
L 102.492284 -39.338971 
L 102.797454 -39.902699 
L 103.105205 -40.471194 
L 103.411789 -41.037536 
L 103.713822 -41.595469 
L 104.008508 -42.139831 
L 104.293759 -42.666763 
L 104.568203 -43.173734 
L 104.831072 -43.659321 
L 105.082015 -44.122879 
L 105.320888 -44.564138 
L 105.547568 -44.982876 
L 105.761838 -45.378688 
L 105.963343 -45.75092 
L 106.151618 -46.098713 
L 106.326165 -46.421146 
L 106.48653 -46.717382 
L 106.632379 -46.986803 
L 106.76354 -47.229092 
L 106.880016 -47.444255 
L 106.981989 -47.632625 
L 107.069791 -47.794819 
L 107.143882 -47.931683 
L 107.204809 -48.044231 
L 107.253163 -48.133554 
L 107.289525 -48.200723 
L 107.3144 -48.246675 
L 107.328169 -48.272109 
L 107.331038 -48.277409 
L 107.323024 -48.262605 
L 107.303964 -48.227397 
L 107.273555 -48.171223 
L 107.231418 -48.093385 
L 107.177187 -47.993207 
L 107.110607 -47.870216 
L 107.031639 -47.724341 
L 106.940554 -47.556083 
L 106.838015 -47.366667 
L 106.725116 -47.158113 
L 106.603381 -46.933236 
L 106.47469 -46.695512 
L 106.341165 -46.448855 
L 106.204993 -46.19731 
L 106.068253 -45.944717 
L 105.932742 -45.694391 
L 105.799846 -45.448899 
L 105.670485 -45.209936 
L 105.545113 -44.978341 
L 105.423773 -44.754193 
L 105.306185 -44.536977 
L 105.191844 -44.32576 
L 105.080099 -44.119339 
L 104.970207 -43.916339 
L 104.861363 -43.715277 
L 104.752726 -43.514596 
L 104.643448 -43.312731 
L 104.532719 -43.108186 
L 104.419839 -42.899667 
L 104.304292 -42.686221 
L 104.185812 -42.467358 
L 104.064404 -42.243085 
L 103.940323 -42.013875 
L 103.814001 -41.780526 
L 103.685953 -41.543987 
L 103.556675 -41.305177 
L 103.426597 -41.06489 
L 103.296079 -40.823788 
L 103.165459 -40.582499 
L 103.035137 -40.341761 
L 102.905651 -40.102567 
L 102.777711 -39.866228 
L 102.652192 -39.634362 
L 102.530056 -39.408745 
L 102.412252 -39.19113 
L 102.299604 -38.983039 
L 102.192723 -38.785603 
L 102.091977 -38.599499 
L 101.9975 -38.424976 
L 101.909236 -38.261928 
L 101.827008 -38.110032 
L 101.75057 -37.968831 
L 101.679644 -37.837813 
L 101.613925 -37.716411 
L 101.553056 -37.603971 
L 101.496615 -37.499709 
L 101.44408 -37.402664 
L 101.394827 -37.311681 
L 101.348141 -37.22544 
L 101.303246 -37.142507 
L 101.259352 -37.061423 
L 101.215707 -36.9808 
L 101.171648 -36.899412 
L 101.126652 -36.816293 
L 101.08037 -36.730797 
L 101.032646 -36.642639 
L 100.983527 -36.551903 
L 100.933236 -36.459002 
L 100.882137 -36.364609 
L 100.830679 -36.269552 
L 100.779332 -36.1747 
L 100.728534 -36.080864 
L 100.678654 -35.988723 
L 100.629975 -35.898801 
L 100.582709 -35.811488 
L 100.537014 -35.727078 
L 100.493026 -35.64582 
L 100.450871 -35.567948 
L 100.41066 -35.493669 
L 100.372475 -35.42313 
L 100.336332 -35.356365 
L 100.30216 -35.29324 
L 100.269788 -35.233441 
L 100.238962 -35.176496 
L 100.209375 -35.121842 
L 100.180725 -35.068918 
L 100.152766 -35.017271 
L 100.125352 -34.96663 
L 100.09846 -34.916953 
L 100.072181 -34.868409 
L 100.046692 -34.821324 
L 100.022207 -34.776093 
L 99.99892 -34.733077 
L 99.976961 -34.692513 
L 99.956356 -34.654449 
L 99.937021 -34.618733 
L 99.918776 -34.585029 
L 99.901372 -34.552881 
L 99.884543 -34.521793 
L 99.868045 -34.491316 
L 99.851699 -34.461122 
L 99.835419 -34.431049 
L 99.819213 -34.401111 
L 99.803175 -34.371485 
L 99.787464 -34.342463 
L 99.772268 -34.314391 
L 99.757771 -34.287613 
L 99.74413 -34.262414 
L 99.731453 -34.238996 
L 99.719793 -34.217457 
L 99.70915 -34.197797 
L 99.699484 -34.17994 
L 99.690721 -34.163753 
L 99.682772 -34.14907 
L 99.675534 -34.1357 
L 99.668896 -34.123436 
L 99.662731 -34.112047 
L 99.656898 -34.101273 
L 99.651237 -34.090816 
L 99.645576 -34.080358 
L 99.639741 -34.06958 
L 99.633582 -34.058202 
L 99.626992 -34.04603 
L 99.619934 -34.032991 
L 99.612446 -34.019158 
L 99.604642 -34.004743 
L 99.596694 -33.990061 
L 99.588803 -33.975485 
L 99.581165 -33.961375 
L 99.573941 -33.948029 
L 99.567238 -33.935648 
L 99.561103 -33.924314 
L 99.555525 -33.914011 
L 99.550451 -33.904639 
L 99.545801 -33.896049 
L 99.541482 -33.888071 
L 99.537401 -33.880532 
L 99.53347 -33.87327 
L 99.529609 -33.866138 
L 99.525749 -33.859006 
L 99.521831 -33.851768 
L 99.517815 -33.844351 
L 99.517815 -116.088781 
L 99.517815 -116.088781 
L 99.521831 -115.68482 
L 99.525749 -115.280858 
L 99.529609 -114.876906 
L 99.53347 -114.472944 
L 99.537401 -114.068983 
L 99.541482 -113.665021 
L 99.545801 -113.261064 
L 99.550451 -112.857103 
L 99.555525 -112.453146 
L 99.561103 -112.049184 
L 99.567238 -111.645222 
L 99.573941 -111.241266 
L 99.581165 -110.837304 
L 99.588803 -110.433347 
L 99.596694 -110.029385 
L 99.604642 -109.625424 
L 99.612446 -109.221467 
L 99.619934 -108.817505 
L 99.626992 -108.413544 
L 99.633582 -108.009587 
L 99.639741 -107.605625 
L 99.645576 -107.201668 
L 99.651237 -106.797707 
L 99.656898 -106.393745 
L 99.662731 -105.989788 
L 99.668896 -105.585827 
L 99.675534 -105.181865 
L 99.682772 -104.777908 
L 99.690721 -104.373946 
L 99.699484 -103.96999 
L 99.70915 -103.566028 
L 99.719793 -103.162066 
L 99.731453 -102.758109 
L 99.74413 -102.354148 
L 99.757771 -101.950186 
L 99.772268 -101.546229 
L 99.787464 -101.142268 
L 99.803175 -100.738311 
L 99.819213 -100.334349 
L 99.835419 -99.930388 
L 99.851699 -99.526431 
L 99.868045 -99.122469 
L 99.884543 -98.718507 
L 99.901372 -98.314551 
L 99.918776 -97.910589 
L 99.937021 -97.506632 
L 99.956356 -97.10267 
L 99.976961 -96.698709 
L 99.99892 -96.294752 
L 100.022207 -95.89079 
L 100.046692 -95.486829 
L 100.072181 -95.082872 
L 100.09846 -94.67891 
L 100.125352 -94.274953 
L 100.152766 -93.870992 
L 100.180725 -93.46703 
L 100.209375 -93.063073 
L 100.238962 -92.659112 
L 100.269788 -92.25515 
L 100.30216 -91.851193 
L 100.336332 -91.447231 
L 100.372475 -91.043275 
L 100.41066 -90.639313 
L 100.450871 -90.235351 
L 100.493026 -89.831395 
L 100.537014 -89.427433 
L 100.582709 -89.023471 
L 100.629975 -88.619514 
L 100.678654 -88.215553 
L 100.728534 -87.811596 
L 100.779332 -87.407634 
L 100.830679 -87.003673 
L 100.882137 -86.599716 
L 100.933236 -86.195754 
L 100.983527 -85.791793 
L 101.032646 -85.387836 
L 101.08037 -84.983874 
L 101.126652 -84.579917 
L 101.171648 -84.175956 
L 101.215707 -83.771994 
L 101.259352 -83.368037 
L 101.303246 -82.964075 
L 101.348141 -82.560114 
L 101.394827 -82.156157 
L 101.44408 -81.752195 
L 101.496615 -81.348238 
L 101.553056 -80.944277 
L 101.613925 -80.540315 
L 101.679644 -80.136358 
L 101.75057 -79.732397 
L 101.827008 -79.328435 
L 101.909236 -78.924478 
L 101.9975 -78.520517 
L 102.091977 -78.11656 
L 102.192723 -77.712598 
L 102.299604 -77.308641 
L 102.412252 -76.904684 
L 102.530056 -76.500723 
L 102.652192 -76.096761 
L 102.777711 -75.692804 
L 102.905651 -75.288843 
L 103.035137 -74.884886 
L 103.165459 -74.480924 
L 103.296079 -74.076962 
L 103.426597 -73.673001 
L 103.556675 -73.269042 
L 103.685953 -72.865082 
L 103.814001 -72.461123 
L 103.940323 -72.057161 
L 104.064404 -71.653202 
L 104.185812 -71.249243 
L 104.304292 -70.845286 
L 104.419839 -70.441325 
L 104.532719 -70.037365 
L 104.643448 -69.633406 
L 104.752726 -69.229447 
L 104.861363 -68.825485 
L 104.970207 -68.421526 
L 105.080099 -68.017567 
L 105.191844 -67.613607 
L 105.306185 -67.209646 
L 105.423773 -66.805687 
L 105.545113 -66.401727 
L 105.670485 -65.997768 
L 105.799846 -65.593806 
L 105.932742 -65.189847 
L 106.068253 -64.785888 
L 106.204993 -64.381929 
L 106.341165 -63.977967 
L 106.47469 -63.574008 
L 106.603381 -63.170049 
L 106.725116 -62.766089 
L 106.838015 -62.362128 
L 106.940554 -61.958168 
L 107.031639 -61.554209 
L 107.110607 -61.15025 
L 107.177187 -60.746288 
L 107.231418 -60.342329 
L 107.273555 -59.93837 
L 107.303964 -59.534411 
L 107.323024 -59.130449 
L 107.331038 -58.72649 
L 107.328169 -58.32253 
L 107.3144 -57.918571 
L 107.289525 -57.51461 
L 107.253163 -57.11065 
L 107.204809 -56.706691 
L 107.143882 -56.302732 
L 107.069791 -55.89877 
L 106.981989 -55.494811 
L 106.880016 -55.090852 
L 106.76354 -54.686892 
L 106.632379 -54.282931 
L 106.48653 -53.878972 
L 106.326165 -53.475012 
L 106.151618 -53.071052 
L 105.963343 -52.667093 
L 105.761838 -52.263132 
L 105.547568 -51.859173 
L 105.320888 -51.455214 
L 105.082015 -51.051254 
L 104.831072 -50.647294 
L 104.568203 -50.243335 
L 104.293759 -49.839374 
L 104.008508 -49.435415 
L 103.713822 -49.031455 
L 103.411789 -48.627495 
L 103.105205 -48.223535 
L 102.797454 -47.819576 
L 102.492284 -47.415615 
L 102.193529 -47.011656 
L 101.904822 -46.607696 
L 101.629365 -46.203736 
L 101.369762 -45.799776 
L 101.127951 -45.395817 
L 100.905195 -44.991856 
L 100.702142 -44.587897 
L 100.518898 -44.183937 
L 100.35512 -43.779977 
L 100.210101 -43.376017 
L 100.082845 -42.972058 
L 99.972144 -42.568098 
L 99.876648 -42.164138 
L 99.794931 -41.760179 
L 99.725556 -41.356218 
L 99.667128 -40.952259 
L 99.618332 -40.548299 
L 99.577955 -40.144339 
L 99.544895 -39.74038 
L 99.518155 -39.33642 
L 99.496833 -38.93246 
L 99.480107 -38.5285 
L 99.467227 -38.12454 
L 99.457512 -37.72058 
L 99.450348 -37.31662 
L 99.445193 -36.912661 
L 99.441578 -36.508701 
L 99.439111 -36.104741 
L 99.437475 -35.700781 
z
" style="stroke: #d94801; stroke-opacity: 0.1"/>
    </defs>
    <g clip-path="url(#p4c80a31fe4)">
     <use xlink:href="#m43ee9ab964" x="0" y="139.920781" style="fill: #d94801; fill-opacity: 0.1; stroke: #d94801; stroke-opacity: 0.1"/>
    </g>
   </g>
   <g id="matplotlib.axis_5">
    <g id="xtick_5">
     <g id="line2d_13">
      <g>
       <use xlink:href="#m5276ecb0e3" x="99.434844" y="104.22" style="stroke: #000000; stroke-width: 1.5"/>
      </g>
     </g>
    </g>
    <g id="xtick_6">
     <g id="line2d_14">
      <g>
       <use xlink:href="#m5276ecb0e3" x="110.314197" y="104.22" style="stroke: #000000; stroke-width: 1.5"/>
      </g>
     </g>
    </g>
   </g>
   <g id="matplotlib.axis_6">
    <g id="ytick_7">
     <g id="line2d_15">
      <g>
       <use xlink:href="#me00c5fa6f1" x="99.434844" y="86.1327" style="stroke: #000000; stroke-width: 1.5"/>
      </g>
     </g>
    </g>
    <g id="ytick_8">
     <g id="line2d_16">
      <g>
       <use xlink:href="#me00c5fa6f1" x="99.434844" y="66.035699" style="stroke: #000000; stroke-width: 1.5"/>
      </g>
     </g>
    </g>
    <g id="ytick_9">
     <g id="line2d_17">
      <g>
       <use xlink:href="#me00c5fa6f1" x="99.434844" y="45.938699" style="stroke: #000000; stroke-width: 1.5"/>
      </g>
     </g>
    </g>
    <g id="ytick_10">
     <g id="line2d_18">
      <g>
       <use xlink:href="#me00c5fa6f1" x="99.434844" y="25.841698" style="stroke: #000000; stroke-width: 1.5"/>
      </g>
     </g>
    </g>
   </g>
   <g id="line2d_19">
    <path d="M 99.434994 104.22 
L 99.528273 98.968522 
L 99.731247 97.352683 
L 100.161168 95.736845 
L 100.679584 94.524965 
L 101.64859 92.909125 
L 103.209144 90.889327 
L 105.845719 87.657649 
L 106.817889 86.04181 
L 107.307864 84.82993 
L 107.577251 83.618049 
L 107.681574 82.00221 
L 107.580608 79.174493 
L 107.306856 77.154692 
L 106.750002 75.134893 
L 105.439403 71.499255 
L 103.225371 65.439857 
L 101.254355 58.168586 
L 100.820168 55.340864 
L 100.125737 48.877507 
L 99.497397 26.25576 
L 99.484469 23.832 
L 99.484469 23.832 
" clip-path="url(#p4c80a31fe4)" style="fill: none; stroke: #08519c; stroke-width: 1.5; stroke-linecap: square"/>
   </g>
   <g id="line2d_20">
    <path d="M 99.437475 104.22 
L 99.544895 100.180402 
L 99.794931 98.160603 
L 100.210101 96.544764 
L 100.905195 94.928925 
L 101.904822 93.313086 
L 105.547568 88.061608 
L 106.326165 86.445769 
L 106.880016 84.82993 
L 107.204809 83.21409 
L 107.328169 81.598251 
L 107.231418 79.578452 
L 106.940554 77.962613 
L 106.341165 75.942814 
L 105.080099 71.903215 
L 103.426597 66.24778 
L 102.091977 61.804222 
L 101.613925 59.380466 
L 101.171648 55.744826 
L 100.09846 45.241871 
L 99.787464 38.778514 
L 99.633582 31.911194 
L 99.517815 23.832 
L 99.517815 23.832 
" clip-path="url(#p4c80a31fe4)" style="fill: none; stroke: #d94801; stroke-width: 1.5; stroke-linecap: square"/>
   </g>
   <g id="patch_9">
    <path d="M 99.434844 104.22 
L 99.434844 23.832 
" style="fill: none; stroke: #000000; stroke-width: 1.5; stroke-linejoin: miter; stroke-linecap: square"/>
   </g>
   <g id="patch_10">
    <path d="M 99.434844 104.22 
L 110.594844 104.22 
" style="fill: none; stroke: #000000; stroke-width: 1.5; stroke-linejoin: miter; stroke-linecap: square"/>
   </g>
  </g>
 </g>
 <defs>
  <clipPath id="p2b335f8ee2">
   <rect x="32.474844" y="23.832" width="64.728" height="80.388"/>
  </clipPath>
  <clipPath id="pbe59268568">
   <rect x="32.474844" y="7.2" width="64.728" height="13.86"/>
  </clipPath>
  <clipPath id="p4c80a31fe4">
   <rect x="99.434844" y="23.832" width="11.16" height="80.388"/>
  </clipPath>
 </defs>
</svg>
