<?xml version="1.0" encoding="utf-8" standalone="no"?>
<!DOCTYPE svg PUBLIC "-//W3C//DTD SVG 1.1//EN"
  "http://www.w3.org/Graphics/SVG/1.1/DTD/svg11.dtd">
<svg xmlns:xlink="http://www.w3.org/1999/xlink" width="117.794844pt" height="139.920781pt" viewBox="0 0 117.794844 139.920781" xmlns="http://www.w3.org/2000/svg" version="1.1">
 <metadata>
  <rdf:RDF xmlns:dc="http://purl.org/dc/elements/1.1/" xmlns:cc="http://creativecommons.org/ns#" xmlns:rdf="http://www.w3.org/1999/02/22-rdf-syntax-ns#">
   <cc:Work>
    <dc:type rdf:resource="http://purl.org/dc/dcmitype/StillImage"/>
    <dc:date>2023-05-12T09:48:04.588060</dc:date>
    <dc:format>image/svg+xml</dc:format>
    <dc:creator>
     <cc:Agent>
      <dc:title>Matplotlib v3.5.0, https://matplotlib.org/</dc:title>
     </cc:Agent>
    </dc:creator>
   </cc:Work>
  </rdf:RDF>
 </metadata>
 <defs>
  <style type="text/css">*{stroke-linejoin: round; stroke-linecap: butt}</style>
 </defs>
 <g id="figure_1">
  <g id="patch_1">
   <path d="M 0 139.920781 
L 117.794844 139.920781 
L 117.794844 0 
L 0 0 
L 0 139.920781 
z
" style="fill: none"/>
  </g>
  <g id="axes_1">
   <g id="patch_2">
    <path d="M 32.474844 104.22 
L 97.202844 104.22 
L 97.202844 23.832 
L 32.474844 23.832 
L 32.474844 104.22 
z
" style="fill: none"/>
   </g>
   <g id="PathCollection_1">
    <defs>
     <path id="m0fb1cfb69d" d="M 0 1.5 
C 0.397805 1.5 0.77937 1.341951 1.06066 1.06066 
C 1.341951 0.77937 1.5 0.397805 1.5 0 
C 1.5 -0.397805 1.341951 -0.77937 1.06066 -1.06066 
C 0.77937 -1.341951 0.397805 -1.5 0 -1.5 
C -0.397805 -1.5 -0.77937 -1.341951 -1.06066 -1.06066 
C -1.341951 -0.77937 -1.5 -0.397805 -1.5 0 
C -1.5 0.397805 -1.341951 0.77937 -1.06066 1.06066 
C -0.77937 1.341951 -0.397805 1.5 0 1.5 
z
" style="stroke: #08519c"/>
    </defs>
    <g clip-path="url(#pca8e556334)">
     <use xlink:href="#m0fb1cfb69d" x="41.105209" y="77.115423" style="fill: #08519c; stroke: #08519c"/>
    </g>
   </g>
   <g id="matplotlib.axis_1">
    <g id="xtick_1">
     <g id="line2d_1">
      <defs>
       <path id="mf840a9ed06" d="M 0 0 
L 0 3.5 
" style="stroke: #000000; stroke-width: 1.5"/>
      </defs>
      <g>
       <use xlink:href="#mf840a9ed06" x="52.509701" y="104.22" style="stroke: #000000; stroke-width: 1.5"/>
      </g>
     </g>
     <g id="text_1">
      <text style="font: 9px 'Arial'; text-anchor: middle" x="52.509701" y="117.662031" transform="rotate(-0, 52.509701, 117.662031)">2</text>
     </g>
    </g>
    <g id="xtick_2">
     <g id="line2d_2">
      <g>
       <use xlink:href="#mf840a9ed06" x="83.332557" y="104.22" style="stroke: #000000; stroke-width: 1.5"/>
      </g>
     </g>
     <g id="text_2">
      <text style="font: 9px 'Arial'; text-anchor: middle" x="83.332557" y="117.662031" transform="rotate(-0, 83.332557, 117.662031)">4</text>
     </g>
    </g>
    <g id="text_3">
     <!-- $\theta_1$ -->
     <g transform="translate(60.248844 130.020781)">
      <text>
       <tspan style="font: 9px 'Arial'" x="0" y="-0.453125">θ</tspan>
       <tspan style="font: 6.3px 'Arial'" x="5.162182" y="2.2350624999999997">1</tspan>
      </text>
     </g>
    </g>
   </g>
   <g id="matplotlib.axis_2">
    <g id="ytick_1">
     <g id="line2d_3">
      <defs>
       <path id="md25e0bb58a" d="M 0 0 
L -3.5 0 
" style="stroke: #000000; stroke-width: 1.5"/>
      </defs>
      <g>
       <use xlink:href="#md25e0bb58a" x="32.474844" y="68.927709" style="stroke: #000000; stroke-width: 1.5"/>
      </g>
     </g>
     <g id="text_4">
      <text style="font: 9px 'Arial'; text-anchor: end" x="25.474844" y="72.148725" transform="rotate(-0, 25.474844, 72.148725)">2</text>
     </g>
    </g>
    <g id="ytick_2">
     <g id="line2d_4">
      <g>
       <use xlink:href="#md25e0bb58a" x="32.474844" y="29.714052" style="stroke: #000000; stroke-width: 1.5"/>
      </g>
     </g>
     <g id="text_5">
      <text style="font: 9px 'Arial'; text-anchor: end" x="25.474844" y="32.935068" transform="rotate(-0, 25.474844, 32.935068)">4</text>
     </g>
    </g>
    <g id="text_6">
     <!-- $\theta_2$ -->
     <g transform="translate(13.77 68.616)rotate(-90)">
      <text>
       <tspan style="font: 9px 'Arial'" x="0" y="-0.453125">θ</tspan>
       <tspan style="font: 6.3px 'Arial'" x="5.162182" y="2.2350624999999997">2</tspan>
      </text>
     </g>
    </g>
   </g>
   <g id="PathCollection_2">
    <path d="M 57.845618 23.832 
L 57.845618 28.679519 
L 58.170885 29.083482 
L 58.170885 36.354755 
L 58.496151 36.758714 
L 58.496151 48.473547 
L 58.821417 48.87751 
L 58.821417 75.94281 
L 59.146683 76.346771 
L 59.146683 94.121004 
L 59.47195 94.524964 
L 59.47195 104.22 
L 59.47195 104.22 
" clip-path="url(#pca8e556334)" style="fill: none"/>
   </g>
   <g id="PathCollection_3">
    <path d="M 39.62546 84.829929 
L 39.618217 84.425968 
L 39.612401 84.02201 
L 39.607787 83.618049 
L 39.604195 83.214088 
L 39.601498 82.81013 
L 39.59963 82.406169 
L 39.598576 82.002211 
L 39.598367 81.598248 
L 39.599058 81.194287 
L 39.600712 80.790329 
L 39.603378 80.386368 
L 39.607079 79.982408 
L 39.611808 79.578449 
L 39.617525 79.174489 
L 39.624162 78.77053 
L 39.630704 78.417048 
L 39.63134 78.36657 
L 39.636989 77.962609 
L 39.64317 77.558651 
L 39.649852 77.15469 
L 39.657021 76.750729 
L 39.664688 76.346771 
L 39.672885 75.94281 
L 39.681658 75.53885 
L 39.691065 75.134891 
L 39.701168 74.730931 
L 39.712032 74.326972 
L 39.723717 73.923012 
L 39.73628 73.519051 
L 39.749777 73.115093 
L 39.764272 72.711132 
L 39.779836 72.307174 
L 39.796559 71.903213 
L 39.81455 71.499252 
L 39.833937 71.095294 
L 39.854864 70.691333 
L 39.877482 70.287373 
L 39.901943 69.883414 
L 39.928388 69.479453 
L 39.95597 69.088903 
L 39.95671 69.075493 
L 39.980395 68.671534 
L 40.005607 68.267576 
L 40.031951 67.863613 
L 40.058974 67.459655 
L 40.086207 67.055696 
L 40.113227 66.651733 
L 40.139695 66.247775 
L 40.165396 65.843817 
L 40.190256 65.439854 
L 40.214347 65.035895 
L 40.237886 64.631932 
L 40.261214 64.227974 
L 40.281237 63.883649 
L 40.285502 63.824016 
L 40.314704 63.420053 
L 40.34514 63.016094 
L 40.377153 62.612136 
L 40.411041 62.208182 
L 40.447037 61.804224 
L 40.485321 61.400261 
L 40.526055 60.996303 
L 40.569445 60.592344 
L 40.606503 60.267405 
L 40.625861 60.188381 
L 40.718832 59.784423 
L 40.803134 59.380465 
L 40.880977 58.976506 
L 40.931769 58.699319 
L 41.033751 58.572548 
L 41.257035 58.296298 
L 41.321613 58.168585 
L 41.548252 57.764627 
L 41.582302 57.706358 
L 41.708267 57.360668 
L 41.8621 56.956705 
L 41.907568 56.843979 
L 41.979183 56.956705 
L 42.232834 57.345734 
L 42.238446 57.360668 
L 42.405861 57.764627 
L 42.558101 58.076598 
L 42.590782 58.168585 
L 42.753529 58.572548 
L 42.883367 58.844398 
L 42.909022 58.976506 
L 42.984634 59.380465 
L 43.055884 59.784423 
L 43.123829 60.188381 
L 43.189424 60.592344 
L 43.208633 60.712088 
L 43.250852 60.996303 
L 43.306781 61.400261 
L 43.358907 61.804224 
L 43.408415 62.208182 
L 43.456408 62.612136 
L 43.50387 63.016094 
L 43.5339 63.269223 
L 43.569709 63.420053 
L 43.659018 63.824016 
L 43.737663 64.227974 
L 43.806114 64.631932 
L 43.859166 64.993941 
L 43.866051 65.035895 
L 43.927207 65.439854 
L 43.979523 65.843817 
L 44.023654 66.247775 
L 44.060802 66.651733 
L 44.092422 67.055696 
L 44.11999 67.459655 
L 44.144853 67.863613 
L 44.168154 68.267576 
L 44.184432 68.554315 
L 44.190657 68.671534 
L 44.213675 69.075493 
L 44.238165 69.479453 
L 44.263992 69.883414 
L 44.290889 70.287373 
L 44.318533 70.691333 
L 44.346621 71.095294 
L 44.374911 71.499252 
L 44.403244 71.903213 
L 44.431528 72.307174 
L 44.4597 72.711132 
L 44.487681 73.115093 
L 44.509699 73.435124 
L 44.516 73.519051 
L 44.546219 73.923012 
L 44.575224 74.326972 
L 44.602529 74.730931 
L 44.627678 75.134891 
L 44.650288 75.53885 
L 44.670095 75.94281 
L 44.686974 76.346771 
L 44.700943 76.750729 
L 44.712161 77.15469 
L 44.720907 77.558651 
L 44.72755 77.962609 
L 44.732528 78.36657 
L 44.736309 78.77053 
L 44.73936 79.174489 
L 44.742122 79.578449 
L 44.744981 79.982408 
L 44.748247 80.386368 
L 44.752134 80.790329 
L 44.756755 81.194287 
L 44.762106 81.598248 
L 44.768071 82.002211 
L 44.774427 82.406169 
L 44.780852 82.81013 
L 44.786939 83.214088 
L 44.792218 83.618049 
L 44.796167 84.02201 
L 44.79823 84.425968 
L 44.79783 84.829929 
L 44.79438 85.233887 
L 44.78729 85.637848 
L 44.775977 86.041808 
L 44.759871 86.445767 
L 44.738417 86.849727 
L 44.711082 87.253688 
L 44.677349 87.657646 
L 44.636705 88.061607 
L 44.588625 88.465568 
L 44.532549 88.869526 
L 44.509699 89.017188 
L 44.460078 89.273487 
L 44.371479 89.677446 
L 44.269714 90.081406 
L 44.184432 90.382968 
L 44.161291 90.485365 
L 44.062625 90.889326 
L 43.949279 91.293286 
L 43.859166 91.577279 
L 43.832764 91.697245 
L 43.734485 92.101205 
L 43.61728 92.505165 
L 43.5339 92.755413 
L 43.479229 92.909125 
L 43.318513 93.313084 
L 43.208633 93.554381 
L 43.141979 93.717044 
L 42.958737 94.121004 
L 42.883367 94.272 
L 42.748846 94.524964 
L 42.558101 94.861087 
L 42.513535 94.928923 
L 42.260975 95.332883 
L 42.232834 95.380081 
L 41.907568 95.707263 
L 41.582302 95.456762 
L 41.478742 95.332883 
L 41.257035 95.065696 
L 41.142634 94.928923 
L 40.931769 94.65983 
L 40.857846 94.524964 
L 40.65801 94.121004 
L 40.606503 94.004042 
L 40.517002 93.717044 
L 40.412499 93.313084 
L 40.328734 92.909125 
L 40.281237 92.635225 
L 40.254114 92.505165 
L 40.179493 92.101205 
L 40.11677 91.697245 
L 40.062977 91.293286 
L 40.015941 90.889326 
L 39.974099 90.485365 
L 39.95597 90.297108 
L 39.924726 90.081406 
L 39.872615 89.677446 
L 39.828131 89.273487 
L 39.790216 88.869526 
L 39.75799 88.465568 
L 39.73071 88.061607 
L 39.707739 87.657646 
L 39.688521 87.253688 
L 39.672562 86.849727 
L 39.659418 86.445767 
L 39.648686 86.041808 
L 39.639997 85.637848 
L 39.633018 85.233887 
L 39.630704 85.068758 
L 39.62546 84.829929 
z
" clip-path="url(#pca8e556334)" style="fill: none; stroke: #08519c; stroke-opacity: 0.111111; stroke-width: 1.5"/>
   </g>
   <g id="PathCollection_4">
    <path d="M 40.274032 87.253688 
L 40.239271 86.849727 
L 40.208659 86.445767 
L 40.182051 86.041808 
L 40.159256 85.637848 
L 40.140034 85.233887 
L 40.124102 84.829929 
L 40.111146 84.425968 
L 40.100836 84.02201 
L 40.092841 83.618049 
L 40.086843 83.214088 
L 40.082553 82.81013 
L 40.079715 82.406169 
L 40.078122 82.002211 
L 40.077621 81.598248 
L 40.078115 81.194287 
L 40.079571 80.790329 
L 40.082009 80.386368 
L 40.085501 79.982408 
L 40.09016 79.578449 
L 40.096118 79.174489 
L 40.103511 78.77053 
L 40.11246 78.36657 
L 40.123055 77.962609 
L 40.13534 77.558651 
L 40.149313 77.15469 
L 40.16492 76.750729 
L 40.182068 76.346771 
L 40.200632 75.94281 
L 40.220465 75.53885 
L 40.241417 75.134891 
L 40.263343 74.730931 
L 40.281237 74.412508 
L 40.286086 74.326972 
L 40.309048 73.923012 
L 40.331927 73.519051 
L 40.354658 73.115093 
L 40.377312 72.711132 
L 40.400096 72.307174 
L 40.423341 71.903213 
L 40.447477 71.499252 
L 40.473008 71.095294 
L 40.500472 70.691333 
L 40.530397 70.287373 
L 40.563251 69.883414 
L 40.59939 69.479453 
L 40.606503 69.404554 
L 40.647111 69.075493 
L 40.703059 68.671534 
L 40.767153 68.267576 
L 40.841329 67.863613 
L 40.927987 67.459655 
L 40.931769 67.443162 
L 41.076285 67.055696 
L 41.237465 66.651733 
L 41.257035 66.60289 
L 41.350243 66.247775 
L 41.445846 65.843817 
L 41.533116 65.439854 
L 41.582302 65.196189 
L 41.64917 65.035895 
L 41.832547 64.631932 
L 41.907568 64.481634 
L 41.975212 64.631932 
L 42.162972 65.035895 
L 42.232834 65.178951 
L 42.321451 65.439854 
L 42.446376 65.843817 
L 42.558101 66.235629 
L 42.563657 66.247775 
L 42.747274 66.651733 
L 42.883367 66.972055 
L 42.91113 67.055696 
L 43.049452 67.459655 
L 43.180847 67.863613 
L 43.208633 67.952985 
L 43.255043 68.267576 
L 43.3107 68.671534 
L 43.361774 69.075493 
L 43.40862 69.479453 
L 43.45179 69.883414 
L 43.491922 70.287373 
L 43.529652 70.691333 
L 43.5339 70.737987 
L 43.567668 71.095294 
L 43.604263 71.499252 
L 43.639447 71.903213 
L 43.673455 72.307174 
L 43.706477 72.711132 
L 43.738677 73.115093 
L 43.770202 73.519051 
L 43.801183 73.923012 
L 43.831723 74.326972 
L 43.859166 74.694688 
L 43.862483 74.730931 
L 43.898123 75.134891 
L 43.931716 75.53885 
L 43.963066 75.94281 
L 43.991921 76.346771 
L 44.018016 76.750729 
L 44.041133 77.15469 
L 44.061132 77.558651 
L 44.077986 77.962609 
L 44.091782 78.36657 
L 44.102707 78.77053 
L 44.111022 79.174489 
L 44.117031 79.578449 
L 44.121048 79.982408 
L 44.123372 80.386368 
L 44.124258 80.790329 
L 44.123901 81.194287 
L 44.122417 81.598248 
L 44.11983 82.002211 
L 44.116066 82.406169 
L 44.110947 82.81013 
L 44.104181 83.214088 
L 44.095372 83.618049 
L 44.084012 84.02201 
L 44.069496 84.425968 
L 44.051124 84.829929 
L 44.028129 85.233887 
L 43.9997 85.637848 
L 43.965021 86.041808 
L 43.923306 86.445767 
L 43.873836 86.849727 
L 43.859166 86.955488 
L 43.829959 87.253688 
L 43.786214 87.657646 
L 43.737475 88.061607 
L 43.682958 88.465568 
L 43.621655 88.869526 
L 43.552275 89.273487 
L 43.5339 89.371147 
L 43.474317 89.677446 
L 43.38539 90.081406 
L 43.282841 90.485365 
L 43.208633 90.744006 
L 43.169239 90.889326 
L 43.049073 91.293286 
L 42.911518 91.697245 
L 42.883367 91.774023 
L 42.746835 92.101205 
L 42.558101 92.504098 
L 42.557258 92.505165 
L 42.23949 92.909125 
L 42.232834 92.917712 
L 41.907568 93.145472 
L 41.582302 92.93342 
L 41.565058 92.909125 
L 41.295757 92.505165 
L 41.257035 92.441819 
L 41.082607 92.101205 
L 40.931769 91.758653 
L 40.91214 91.697245 
L 40.795828 91.293286 
L 40.698956 90.889326 
L 40.617643 90.485365 
L 40.606503 90.423787 
L 40.557029 90.081406 
L 40.504971 89.677446 
L 40.45828 89.273487 
L 40.415844 88.869526 
L 40.376832 88.465568 
L 40.340645 88.061607 
L 40.306881 87.657646 
L 40.281237 87.330754 
L 40.274032 87.253688 
z
" clip-path="url(#pca8e556334)" style="fill: none; stroke: #08519c; stroke-opacity: 0.333333; stroke-width: 1.5"/>
   </g>
   <g id="PathCollection_5">
    <path d="M 40.605406 86.041808 
L 40.579422 85.637848 
L 40.556686 85.233887 
L 40.537245 84.829929 
L 40.521129 84.425968 
L 40.508335 84.02201 
L 40.498807 83.618049 
L 40.492441 83.214088 
L 40.489077 82.81013 
L 40.488513 82.406169 
L 40.490518 82.002211 
L 40.494844 81.598248 
L 40.501245 81.194287 
L 40.509491 80.790329 
L 40.519385 80.386368 
L 40.530768 79.982408 
L 40.543532 79.578449 
L 40.55761 79.174489 
L 40.572974 78.77053 
L 40.589622 78.36657 
L 40.606503 77.985938 
L 40.607586 77.962609 
L 40.627589 77.558651 
L 40.649411 77.15469 
L 40.673259 76.750729 
L 40.699224 76.346771 
L 40.727245 75.94281 
L 40.757082 75.53885 
L 40.788331 75.134891 
L 40.820481 74.730931 
L 40.853012 74.326972 
L 40.885513 73.923012 
L 40.917798 73.519051 
L 40.931769 73.342873 
L 40.953971 73.115093 
L 40.995882 72.711132 
L 41.042585 72.307174 
L 41.095984 71.903213 
L 41.158219 71.499252 
L 41.231557 71.095294 
L 41.257035 70.971745 
L 41.341762 70.691333 
L 41.478701 70.287373 
L 41.582302 70.002676 
L 41.645261 69.883414 
L 41.847467 69.479453 
L 41.907568 69.351742 
L 42.065215 69.479453 
L 42.232834 69.605316 
L 42.337442 69.883414 
L 42.501746 70.287373 
L 42.558101 70.418658 
L 42.661105 70.691333 
L 42.804308 71.095294 
L 42.883367 71.336238 
L 42.916642 71.499252 
L 42.990772 71.903213 
L 43.055217 72.307174 
L 43.11117 72.711132 
L 43.159692 73.115093 
L 43.201803 73.519051 
L 43.208633 73.59187 
L 43.23325 73.923012 
L 43.261923 74.326972 
L 43.289585 74.730931 
L 43.316537 75.134891 
L 43.343025 75.53885 
L 43.369217 75.94281 
L 43.395184 76.346771 
L 43.420873 76.750729 
L 43.446101 77.15469 
L 43.470562 77.558651 
L 43.493853 77.962609 
L 43.515518 78.36657 
L 43.5339 78.745459 
L 43.535098 78.77053 
L 43.552142 79.174489 
L 43.566503 79.578449 
L 43.578081 79.982408 
L 43.586869 80.386368 
L 43.59292 80.790329 
L 43.596317 81.194287 
L 43.597136 81.598248 
L 43.59543 82.002211 
L 43.591207 82.406169 
L 43.584425 82.81013 
L 43.574991 83.214088 
L 43.562769 83.618049 
L 43.547581 84.02201 
L 43.5339 84.323072 
L 43.529422 84.425968 
L 43.508495 84.829929 
L 43.48381 85.233887 
L 43.455006 85.637848 
L 43.421706 86.041808 
L 43.383493 86.445767 
L 43.339886 86.849727 
L 43.290288 87.253688 
L 43.233945 87.657646 
L 43.208633 87.820094 
L 43.173306 88.061607 
L 43.106889 88.465568 
L 43.031177 88.869526 
L 42.944722 89.273487 
L 42.883367 89.528749 
L 42.842312 89.677446 
L 42.720075 90.081406 
L 42.582147 90.485365 
L 42.558101 90.550397 
L 42.313627 90.889326 
L 42.232834 90.997142 
L 41.907568 91.172215 
L 41.582302 90.894941 
L 41.579508 90.889326 
L 41.395393 90.485365 
L 41.257035 90.133742 
L 41.239478 90.081406 
L 41.116535 89.677446 
L 41.010265 89.273487 
L 40.931769 88.933148 
L 40.920974 88.869526 
L 40.858759 88.465568 
L 40.803994 88.061607 
L 40.75536 87.657646 
L 40.711834 87.253688 
L 40.672648 86.849727 
L 40.637255 86.445767 
L 40.606503 86.057118 
L 40.605406 86.041808 
z
" clip-path="url(#pca8e556334)" style="fill: none; stroke: #08519c; stroke-opacity: 0.555556; stroke-width: 1.5"/>
   </g>
   <g id="PathCollection_6">
    <path d="M 41.254481 87.253688 
L 41.192891 86.849727 
L 41.139497 86.445767 
L 41.093653 86.041808 
L 41.054884 85.637848 
L 41.022826 85.233887 
L 40.997149 84.829929 
L 40.977503 84.425968 
L 40.963475 84.02201 
L 40.954563 83.618049 
L 40.950187 83.214088 
L 40.949713 82.81013 
L 40.952506 82.406169 
L 40.957981 82.002211 
L 40.965661 81.598248 
L 40.975221 81.194287 
L 40.986502 80.790329 
L 40.999524 80.386368 
L 41.014468 79.982408 
L 41.031643 79.578449 
L 41.051448 79.174489 
L 41.074317 78.77053 
L 41.100665 78.36657 
L 41.130832 77.962609 
L 41.165022 77.558651 
L 41.20327 77.15469 
L 41.24542 76.750729 
L 41.257035 76.645899 
L 41.294334 76.346771 
L 41.347699 75.94281 
L 41.404452 75.53885 
L 41.46501 75.134891 
L 41.53022 74.730931 
L 41.582302 74.431385 
L 41.612107 74.326972 
L 41.74007 73.923012 
L 41.893418 73.519051 
L 41.907568 73.485087 
L 42.100938 73.519051 
L 42.232834 73.541089 
L 42.379527 73.923012 
L 42.50823 74.326972 
L 42.558101 74.51398 
L 42.596755 74.730931 
L 42.657891 75.134891 
L 42.708303 75.53885 
L 42.750197 75.94281 
L 42.785555 76.346771 
L 42.816115 76.750729 
L 42.843399 77.15469 
L 42.868742 77.558651 
L 42.883367 77.800549 
L 42.892259 77.962609 
L 42.914182 78.36657 
L 42.936343 78.77053 
L 42.958782 79.174489 
L 42.981258 79.578449 
L 43.003259 79.982408 
L 43.024068 80.386368 
L 43.04287 80.790329 
L 43.058881 81.194287 
L 43.07146 81.598248 
L 43.080158 82.002211 
L 43.084731 82.406169 
L 43.085098 82.81013 
L 43.081278 83.214088 
L 43.073329 83.618049 
L 43.061293 84.02201 
L 43.045156 84.425968 
L 43.024816 84.829929 
L 43.000067 85.233887 
L 42.970583 85.637848 
L 42.935909 86.041808 
L 42.895457 86.445767 
L 42.883367 86.550662 
L 42.838481 86.849727 
L 42.772373 87.253688 
L 42.699944 87.657646 
L 42.619677 88.061607 
L 42.558101 88.339295 
L 42.494829 88.465568 
L 42.275906 88.869526 
L 42.232834 88.943478 
L 41.907568 89.100656 
L 41.740777 88.869526 
L 41.582302 88.624118 
L 41.536867 88.465568 
L 41.432502 88.061607 
L 41.338706 87.657646 
L 41.257035 87.268618 
L 41.254481 87.253688 
z
" clip-path="url(#pca8e556334)" style="fill: none; stroke: #08519c; stroke-opacity: 0.666667; stroke-width: 1.5"/>
   </g>
   <g id="PathCollection_7">
    <path d="M 41.573505 84.02201 
L 41.550693 83.618049 
L 41.533763 83.214088 
L 41.522191 82.81013 
L 41.515465 82.406169 
L 41.513158 82.002211 
L 41.514981 81.598248 
L 41.520802 81.194287 
L 41.530647 80.790329 
L 41.544676 80.386368 
L 41.563148 79.982408 
L 41.582302 79.648711 
L 41.589662 79.578449 
L 41.639267 79.174489 
L 41.695069 78.77053 
L 41.756515 78.36657 
L 41.82316 77.962609 
L 41.894901 77.558651 
L 41.907568 77.49268 
L 41.948839 77.558651 
L 42.124664 77.962609 
L 42.224917 78.36657 
L 42.232834 78.41406 
L 42.250785 78.77053 
L 42.266817 79.174489 
L 42.279564 79.578449 
L 42.289836 79.982408 
L 42.298209 80.386368 
L 42.305065 80.790329 
L 42.310607 81.194287 
L 42.314873 81.598248 
L 42.317715 82.002211 
L 42.318756 82.406169 
L 42.317323 82.81013 
L 42.312352 83.214088 
L 42.302294 83.618049 
L 42.285065 84.02201 
L 42.258108 84.425968 
L 42.232834 84.691111 
L 42.204177 84.829929 
L 42.078417 85.233887 
L 41.907568 85.583138 
L 41.810474 85.233887 
L 41.712098 84.829929 
L 41.629109 84.425968 
L 41.582302 84.146136 
L 41.573505 84.02201 
z
" clip-path="url(#pca8e556334)" style="fill: none; stroke: #08519c; stroke-opacity: 0.888889; stroke-width: 1.5"/>
   </g>
   <g id="PathCollection_8"/>
   <g id="PathCollection_9"/>
   <g id="PathCollection_10">
    <path d="M 46.121736 87.253688 
L 46.083624 86.849727 
L 46.051199 86.445767 
L 46.024551 86.041808 
L 46.003898 85.637848 
L 45.989559 85.233887 
L 45.981929 84.829929 
L 45.981452 84.425968 
L 45.988585 84.02201 
L 46.003774 83.618049 
L 46.027415 83.214088 
L 46.059812 82.81013 
L 46.101149 82.406169 
L 46.13603 82.124348 
L 46.150392 82.002211 
L 46.2054 81.598248 
L 46.268142 81.194287 
L 46.338043 80.790329 
L 46.414339 80.386368 
L 46.461297 80.152551 
L 46.493667 79.982408 
L 46.573744 79.578449 
L 46.656852 79.174489 
L 46.742023 78.77053 
L 46.786563 78.560854 
L 46.82534 78.36657 
L 46.905719 77.962609 
L 46.985722 77.558651 
L 47.064836 77.15469 
L 47.111829 76.909894 
L 47.140492 76.750729 
L 47.211428 76.346771 
L 47.280831 75.94281 
L 47.348695 75.53885 
L 47.415165 75.134891 
L 47.437096 74.998218 
L 47.477836 74.730931 
L 47.538742 74.326972 
L 47.599981 73.923012 
L 47.66246 73.519051 
L 47.727289 73.115093 
L 47.762362 72.905753 
L 47.794048 72.711132 
L 47.863961 72.307174 
L 47.940261 71.903213 
L 48.024267 71.499252 
L 48.087628 71.220919 
L 48.115897 71.095294 
L 48.214318 70.691333 
L 48.322594 70.287373 
L 48.412895 69.975989 
L 48.43963 69.883414 
L 48.562297 69.479453 
L 48.692695 69.075493 
L 48.738161 68.93847 
L 48.82648 68.671534 
L 48.96325 68.267576 
L 49.063427 67.975605 
L 49.101778 67.863613 
L 49.238975 67.459655 
L 49.376901 67.055696 
L 49.388694 67.020483 
L 49.512225 66.651733 
L 49.648203 66.247775 
L 49.71396 66.052453 
L 49.784655 65.843817 
L 49.923142 65.439854 
L 50.039226 65.111506 
L 50.06635 65.035895 
L 50.214679 64.631932 
L 50.364493 64.24641 
L 50.371823 64.227974 
L 50.537589 63.824016 
L 50.689759 63.475968 
L 50.714954 63.420053 
L 50.903471 63.016094 
L 51.015025 62.788146 
L 51.104257 62.612136 
L 51.316766 62.208182 
L 51.340292 62.164113 
L 51.539988 61.804224 
L 51.665558 61.582517 
L 51.773164 61.400261 
L 51.990824 61.034682 
L 52.014734 60.996303 
L 52.263585 60.592344 
L 52.316091 60.505949 
L 52.519052 60.188381 
L 52.641357 59.993692 
L 52.780613 59.784423 
L 52.966623 59.498417 
L 53.048654 59.380465 
L 53.29189 59.021393 
L 53.32479 58.976506 
L 53.612671 58.572548 
L 53.617156 58.566057 
L 53.919293 58.168585 
L 53.942422 58.137456 
L 54.252367 57.764627 
L 54.267689 57.745849 
L 54.592955 57.39443 
L 54.629029 57.360668 
L 54.918221 57.085042 
L 55.076503 56.956705 
L 55.243488 56.819082 
L 55.568754 56.591576 
L 55.633254 56.552747 
L 55.89402 56.392008 
L 56.219287 56.217802 
L 56.361882 56.148789 
L 56.544553 56.057259 
L 56.869819 55.902487 
L 57.195086 55.74989 
L 57.205551 55.744826 
L 57.520352 55.584224 
L 57.845618 55.408368 
L 57.962572 55.340867 
L 58.170885 55.214201 
L 58.496151 55.003158 
L 58.593751 54.936904 
L 58.821417 54.77658 
L 59.146683 54.542348 
L 59.159919 54.532946 
L 59.47195 54.309223 
L 59.736053 54.128988 
L 59.797216 54.087929 
L 60.122482 53.889519 
L 60.433223 53.725025 
L 60.447749 53.71761 
L 60.773015 53.58209 
L 61.098281 53.479851 
L 61.423548 53.412763 
L 61.748814 53.381557 
L 62.07408 53.385823 
L 62.399347 53.423885 
L 62.724613 53.492603 
L 63.049879 53.587223 
L 63.375146 53.701457 
L 63.43518 53.725025 
L 63.700416 53.82652 
L 64.025682 53.954475 
L 64.350948 54.07911 
L 64.48739 54.128988 
L 64.676215 54.193755 
L 65.001481 54.296871 
L 65.326747 54.390037 
L 65.652014 54.475042 
L 65.88571 54.532946 
L 65.97728 54.554544 
L 66.302539 54.632237 
L 66.627805 54.714063 
L 66.953072 54.804794 
L 67.278338 54.909188 
L 67.351849 54.936904 
L 67.603604 55.032255 
L 67.928871 55.178206 
L 68.237238 55.340867 
L 68.254137 55.350023 
L 68.579403 55.553135 
L 68.849226 55.744826 
L 68.90467 55.785726 
L 69.229936 56.051336 
L 69.339579 56.148789 
L 69.555202 56.347667 
L 69.763315 56.552747 
L 69.880469 56.672034 
L 70.145896 56.956705 
L 70.205735 57.02248 
L 70.500083 57.360668 
L 70.531001 57.396708 
L 70.833576 57.764627 
L 70.856268 57.792329 
L 71.15126 58.168585 
L 71.181534 58.206998 
L 71.456757 58.572548 
L 71.5068 58.638198 
L 71.753283 58.976506 
L 71.832067 59.082789 
L 72.043971 59.380465 
L 72.157333 59.536526 
L 72.331906 59.784423 
L 72.482599 59.993797 
L 72.620234 60.188381 
L 72.807866 60.447674 
L 72.912454 60.592344 
L 73.133132 60.890397 
L 73.21285 60.996303 
L 73.458398 61.314328 
L 73.52696 61.400261 
L 73.783665 61.713344 
L 73.861624 61.804224 
L 74.108931 62.084317 
L 74.223965 62.208182 
L 74.434197 62.428077 
L 74.618378 62.612136 
L 74.759464 62.74942 
L 75.04144 63.016094 
L 75.08473 63.056192 
L 75.409996 63.356334 
L 75.477622 63.420053 
L 75.735262 63.662072 
L 75.89822 63.824016 
L 76.060529 63.986998 
L 76.281755 64.227974 
L 76.385795 64.344292 
L 76.620016 64.631932 
L 76.711065 64.748639 
L 76.915124 65.035895 
L 77.036331 65.216947 
L 77.173638 65.439854 
L 77.361598 65.768415 
L 77.401986 65.843817 
L 77.603288 66.247775 
L 77.686864 66.431529 
L 77.78336 66.651733 
L 77.944713 67.055696 
L 78.01213 67.241688 
L 78.09057 67.459655 
L 78.223124 67.863613 
L 78.337397 68.245485 
L 78.344136 68.267576 
L 78.458395 68.671534 
L 78.565685 69.075493 
L 78.662663 69.456871 
L 78.668635 69.479453 
L 78.772697 69.883414 
L 78.876519 70.287373 
L 78.981723 70.691333 
L 78.987929 70.714678 
L 79.092491 71.095294 
L 79.205507 71.499252 
L 79.313196 71.879094 
L 79.320152 71.903213 
L 79.43719 72.307174 
L 79.55221 72.711132 
L 79.638462 73.022677 
L 79.663947 73.115093 
L 79.771392 73.519051 
L 79.872416 73.923012 
L 79.963728 74.314915 
L 79.966512 74.326972 
L 80.054287 74.730931 
L 80.135253 75.134891 
L 80.209927 75.53885 
L 80.278965 75.94281 
L 80.288995 76.005504 
L 80.344291 76.346771 
L 80.405884 76.750729 
L 80.464176 77.15469 
L 80.519643 77.558651 
L 80.572576 77.962609 
L 80.614261 78.296082 
L 80.623496 78.36657 
L 80.673987 78.77053 
L 80.721622 79.174489 
L 80.765704 79.578449 
L 80.805333 79.982408 
L 80.83946 80.386368 
L 80.866939 80.790329 
L 80.886589 81.194287 
L 80.897251 81.598248 
L 80.897847 82.002211 
L 80.887418 82.406169 
L 80.865157 82.81013 
L 80.830405 83.214088 
L 80.782642 83.618049 
L 80.721444 84.02201 
L 80.646438 84.425968 
L 80.614261 84.570931 
L 80.560399 84.829929 
L 80.462277 85.233887 
L 80.349815 85.637848 
L 80.288995 85.830753 
L 80.225243 86.041808 
L 80.088508 86.445767 
L 79.963728 86.777473 
L 79.937233 86.849727 
L 79.774514 87.253688 
L 79.638462 87.562093 
L 79.596764 87.657646 
L 79.405998 88.061607 
L 79.313196 88.243773 
L 79.200004 88.465568 
L 78.987929 88.85212 
L 78.978256 88.869526 
L 78.739507 89.273487 
L 78.662663 89.395511 
L 78.480647 89.677446 
L 78.337397 89.886054 
L 78.198355 90.081406 
L 78.01213 90.327691 
L 77.887211 90.485365 
L 77.686864 90.723531 
L 77.53918 90.889326 
L 77.361598 91.077203 
L 77.143137 91.293286 
L 77.036331 91.392994 
L 76.711065 91.674889 
L 76.683441 91.697245 
L 76.385795 91.925162 
L 76.13569 92.101205 
L 76.060529 92.151531 
L 75.735262 92.354668 
L 75.474544 92.505165 
L 75.409996 92.540873 
L 75.08473 92.710639 
L 74.759464 92.869012 
L 74.673316 92.909125 
L 74.434197 93.016908 
L 74.108931 93.156851 
L 73.783665 93.290923 
L 73.728951 93.313084 
L 73.458398 93.420476 
L 73.133132 93.546751 
L 72.807866 93.670746 
L 72.686269 93.717044 
L 72.482599 93.793952 
L 72.157333 93.916389 
L 71.832067 94.037488 
L 71.605661 94.121004 
L 71.5068 94.157509 
L 71.181534 94.27661 
L 70.856268 94.39181 
L 70.531001 94.501758 
L 70.459343 94.524964 
L 70.205735 94.60786 
L 69.880469 94.707081 
L 69.555202 94.797962 
L 69.229936 94.880292 
L 69.018242 94.928923 
L 68.90467 94.955632 
L 68.579403 95.025797 
L 68.254137 95.089868 
L 67.928871 95.149499 
L 67.603604 95.206504 
L 67.278338 95.262674 
L 66.953072 95.31959 
L 66.880743 95.332883 
L 66.627805 95.381457 
L 66.302539 95.447117 
L 65.97728 95.515869 
L 65.652014 95.587325 
L 65.326747 95.660624 
L 65.001481 95.734577 
L 64.991616 95.736844 
L 64.676215 95.812854 
L 64.350948 95.888978 
L 64.025682 95.961486 
L 63.700416 96.02936 
L 63.375146 96.091937 
L 63.097023 96.140803 
L 63.049879 96.149532 
L 62.724613 96.204794 
L 62.399347 96.254452 
L 62.07408 96.299142 
L 61.748814 96.339656 
L 61.423548 96.376845 
L 61.098281 96.41154 
L 60.773015 96.444487 
L 60.447749 96.476298 
L 60.122482 96.507417 
L 59.797216 96.538115 
L 59.726449 96.544763 
L 59.47195 96.570316 
L 59.146683 96.602573 
L 58.821417 96.634143 
L 58.496151 96.66468 
L 58.170885 96.693739 
L 57.845618 96.720806 
L 57.520352 96.745323 
L 57.195086 96.766708 
L 56.869819 96.784374 
L 56.544553 96.797746 
L 56.219287 96.806275 
L 55.89402 96.809454 
L 55.568754 96.806824 
L 55.243488 96.797985 
L 54.918221 96.782599 
L 54.592955 96.760378 
L 54.267689 96.73107 
L 53.942422 96.694439 
L 53.617156 96.650225 
L 53.29189 96.598108 
L 53.004365 96.544763 
L 52.966623 96.538092 
L 52.641357 96.47285 
L 52.316091 96.398376 
L 51.990824 96.313703 
L 51.665558 96.217605 
L 51.434537 96.140803 
L 51.340292 96.109962 
L 51.015025 95.991269 
L 50.689759 95.855908 
L 50.436906 95.736844 
L 50.364493 95.702233 
L 50.039226 95.529736 
L 49.716104 95.332883 
L 49.71396 95.331523 
L 49.388694 95.106001 
L 49.162843 94.928923 
L 49.063427 94.845815 
L 48.738161 94.545381 
L 48.717654 94.524964 
L 48.412895 94.19464 
L 48.34983 94.121004 
L 48.087628 93.782841 
L 48.039347 93.717044 
L 47.773661 93.313084 
L 47.762362 93.293889 
L 47.54238 92.909125 
L 47.437096 92.699011 
L 47.341295 92.505165 
L 47.165523 92.101205 
L 47.111829 91.961383 
L 47.009943 91.697245 
L 46.873442 91.293286 
L 46.786563 90.999157 
L 46.753535 90.889326 
L 46.645472 90.485365 
L 46.551099 90.081406 
L 46.468385 89.677446 
L 46.461297 89.638875 
L 46.392006 89.273487 
L 46.324189 88.869526 
L 46.264134 88.465568 
L 46.210923 88.061607 
L 46.163886 87.657646 
L 46.13603 87.386573 
L 46.121736 87.253688 
z
" clip-path="url(#pca8e556334)" style="fill: none; stroke: #d94801; stroke-opacity: 0.111111; stroke-width: 1.5"/>
   </g>
   <g id="PathCollection_11">
    <path d="M 49.0394 87.657646 
L 48.968958 87.253688 
L 48.907752 86.849727 
L 48.855978 86.445767 
L 48.813961 86.041808 
L 48.782075 85.637848 
L 48.760675 85.233887 
L 48.75003 84.829929 
L 48.750265 84.425968 
L 48.761317 84.02201 
L 48.782908 83.618049 
L 48.814528 83.214088 
L 48.855445 82.81013 
L 48.904733 82.406169 
L 48.961315 82.002211 
L 49.024028 81.598248 
L 49.063427 81.362749 
L 49.09092 81.194287 
L 49.160222 80.790329 
L 49.2319 80.386368 
L 49.305121 79.982408 
L 49.379251 79.578449 
L 49.388694 79.527107 
L 49.452033 79.174489 
L 49.524681 78.77053 
L 49.59746 78.36657 
L 49.670529 77.962609 
L 49.71396 77.723486 
L 49.74355 77.558651 
L 49.816664 77.15469 
L 49.891288 76.750729 
L 49.968012 76.346771 
L 50.039226 75.984312 
L 50.04743 75.94281 
L 50.129725 75.53885 
L 50.216458 75.134891 
L 50.308564 74.730931 
L 50.364493 74.499346 
L 50.407137 74.326972 
L 50.513309 73.923012 
L 50.628118 73.519051 
L 50.689759 73.316355 
L 50.753261 73.115093 
L 50.889677 72.711132 
L 51.015025 72.367167 
L 51.037879 72.307174 
L 51.199812 71.903213 
L 51.340292 71.574568 
L 51.374048 71.499252 
L 51.561877 71.095294 
L 51.665558 70.880579 
L 51.761276 70.691333 
L 51.970488 70.287373 
L 51.990824 70.24835 
L 52.189349 69.883414 
L 52.316091 69.651319 
L 52.413984 69.479453 
L 52.641357 69.077741 
L 52.642684 69.075493 
L 52.87669 68.671534 
L 52.966623 68.514261 
L 53.114056 68.267576 
L 53.29189 67.966764 
L 53.355955 67.863613 
L 53.605368 67.459655 
L 53.617156 67.440486 
L 53.86832 67.055696 
L 53.942422 66.943422 
L 54.148722 66.651733 
L 54.267689 66.486809 
L 54.454273 66.247775 
L 54.592955 66.074648 
L 54.794852 65.843817 
L 54.918221 65.706763 
L 55.182437 65.439854 
L 55.243488 65.379898 
L 55.568754 65.08915 
L 55.634207 65.035895 
L 55.89402 64.829187 
L 56.168114 64.631932 
L 56.219287 64.595741 
L 56.544553 64.383901 
L 56.807773 64.227974 
L 56.869819 64.19158 
L 57.195086 64.015415 
L 57.520352 63.855684 
L 57.59106 63.824016 
L 57.845618 63.710271 
L 58.170885 63.580434 
L 58.496151 63.466805 
L 58.652192 63.420053 
L 58.821417 63.369128 
L 59.146683 63.288206 
L 59.47195 63.224956 
L 59.797216 63.179396 
L 60.122482 63.151224 
L 60.447749 63.139743 
L 60.773015 63.143847 
L 61.098281 63.162045 
L 61.423548 63.192568 
L 61.748814 63.233515 
L 62.07408 63.283049 
L 62.399347 63.339581 
L 62.724613 63.401935 
L 62.811801 63.420053 
L 63.049879 63.467253 
L 63.375146 63.536182 
L 63.700416 63.60993 
L 64.025682 63.68949 
L 64.350948 63.776328 
L 64.513565 63.824016 
L 64.676215 63.86986 
L 65.001481 63.971515 
L 65.326747 64.086053 
L 65.652014 64.216091 
L 65.678817 64.227974 
L 65.97728 64.357684 
L 66.302539 64.518265 
L 66.507929 64.631932 
L 66.627805 64.697701 
L 66.953072 64.894624 
L 67.164374 65.035895 
L 67.278338 65.112021 
L 67.603604 65.346684 
L 67.724483 65.439854 
L 67.928871 65.597942 
L 68.227827 65.843817 
L 68.254137 65.865614 
L 68.579403 66.143524 
L 68.697517 66.247775 
L 68.90467 66.432429 
L 69.145031 66.651733 
L 69.229936 66.730367 
L 69.555202 67.034925 
L 69.577401 67.055696 
L 69.880469 67.345089 
L 70.000129 67.459655 
L 70.205735 67.662373 
L 70.409961 67.863613 
L 70.531001 67.987846 
L 70.803733 68.267576 
L 70.856268 68.324477 
L 71.175886 68.671534 
L 71.181534 68.678114 
L 71.5068 69.059752 
L 71.520006 69.075493 
L 71.829253 69.479453 
L 71.832067 69.483525 
L 72.101619 69.883414 
L 72.157333 69.976452 
L 72.337838 70.287373 
L 72.482599 70.570427 
L 72.542373 70.691333 
L 72.721051 71.095294 
L 72.807866 71.313476 
L 72.879768 71.499252 
L 73.024239 71.903213 
L 73.133132 72.22687 
L 73.159646 72.307174 
L 73.289764 72.711132 
L 73.418478 73.115093 
L 73.458398 73.239048 
L 73.547612 73.519051 
L 73.678822 73.923012 
L 73.783665 74.238822 
L 73.81257 74.326972 
L 73.947756 74.730931 
L 74.08376 75.134891 
L 74.108931 75.209412 
L 74.217865 75.53885 
L 74.348378 75.94281 
L 74.434197 76.218983 
L 74.472932 76.346771 
L 74.589151 76.750729 
L 74.695488 77.15469 
L 74.759464 77.425245 
L 74.790391 77.558651 
L 74.872929 77.962609 
L 74.941979 78.36657 
L 74.996876 78.77053 
L 75.037248 79.174489 
L 75.06298 79.578449 
L 75.07418 79.982408 
L 75.071134 80.386368 
L 75.054248 80.790329 
L 75.023985 81.194287 
L 74.980803 81.598248 
L 74.925078 82.002211 
L 74.857039 82.406169 
L 74.776696 82.81013 
L 74.759464 82.88708 
L 74.689441 83.214088 
L 74.592034 83.618049 
L 74.482338 84.02201 
L 74.434197 84.183754 
L 74.365067 84.425968 
L 74.238026 84.829929 
L 74.108931 85.196817 
L 74.096357 85.233887 
L 73.94836 85.637848 
L 73.783665 86.03538 
L 73.781079 86.041808 
L 73.605313 86.445767 
L 73.458398 86.745322 
L 73.408269 86.849727 
L 73.194011 87.253688 
L 73.133132 87.35737 
L 72.958941 87.657646 
L 72.807866 87.89066 
L 72.697649 88.061607 
L 72.482599 88.361343 
L 72.407788 88.465568 
L 72.157333 88.780615 
L 72.086218 88.869526 
L 71.832067 89.157968 
L 71.729074 89.273487 
L 71.5068 89.501183 
L 71.331573 89.677446 
L 71.181534 89.816232 
L 70.887259 90.081406 
L 70.856268 90.107276 
L 70.531001 90.374905 
L 70.391183 90.485365 
L 70.205735 90.622582 
L 69.880469 90.850989 
L 69.823382 90.889326 
L 69.555202 91.059824 
L 69.229936 91.250725 
L 69.15264 91.293286 
L 68.90467 91.424012 
L 68.579403 91.581129 
L 68.316151 91.697245 
L 68.254137 91.723757 
L 67.928871 91.854199 
L 67.603604 91.974269 
L 67.278338 92.086324 
L 67.233762 92.101205 
L 66.953072 92.193692 
L 66.627805 92.297554 
L 66.302539 92.399437 
L 65.97728 92.500546 
L 65.962643 92.505165 
L 65.652014 92.603151 
L 65.326747 92.705706 
L 65.001481 92.807731 
L 64.676215 92.908463 
L 64.674059 92.909125 
L 64.350948 93.008936 
L 64.025682 93.105853 
L 63.700416 93.198237 
L 63.375146 93.285345 
L 63.265101 93.313084 
L 63.049879 93.367925 
L 62.724613 93.444902 
L 62.399347 93.515736 
L 62.07408 93.580794 
L 61.748814 93.640607 
L 61.423548 93.695782 
L 61.288809 93.717044 
L 61.098281 93.747537 
L 60.773015 93.796039 
L 60.447749 93.841265 
L 60.122482 93.883501 
L 59.797216 93.92286 
L 59.47195 93.959289 
L 59.146683 93.992594 
L 58.821417 94.022472 
L 58.496151 94.048544 
L 58.170885 94.070396 
L 57.845618 94.087607 
L 57.520352 94.099772 
L 57.195086 94.106518 
L 56.869819 94.107515 
L 56.544553 94.102466 
L 56.219287 94.091106 
L 55.89402 94.07317 
L 55.568754 94.048373 
L 55.243488 94.016365 
L 54.918221 93.97669 
L 54.592955 93.928743 
L 54.267689 93.871723 
L 53.942422 93.804594 
L 53.617156 93.726059 
L 53.584415 93.717044 
L 53.29189 93.633632 
L 52.966623 93.525525 
L 52.641357 93.399429 
L 52.447378 93.313084 
L 52.316091 93.25082 
L 51.990824 93.07449 
L 51.726887 92.909125 
L 51.665558 92.867255 
L 51.340292 92.617203 
L 51.211141 92.505165 
L 51.015025 92.316105 
L 50.815233 92.101205 
L 50.689759 91.949397 
L 50.499541 91.697245 
L 50.364493 91.494036 
L 50.240676 91.293286 
L 50.039226 90.920268 
L 50.023481 90.889326 
L 49.839563 90.485365 
L 49.71396 90.170565 
L 49.679819 90.081406 
L 49.540399 89.677446 
L 49.416728 89.273487 
L 49.388694 89.172648 
L 49.306395 88.869526 
L 49.207481 88.465568 
L 49.118763 88.061607 
L 49.063427 87.780868 
L 49.0394 87.657646 
z
" clip-path="url(#pca8e556334)" style="fill: none; stroke: #d94801; stroke-opacity: 0.333333; stroke-width: 1.5"/>
   </g>
   <g id="PathCollection_12">
    <path d="M 51.288766 86.041808 
L 51.226772 85.637848 
L 51.178718 85.233887 
L 51.144339 84.829929 
L 51.123226 84.425968 
L 51.114792 84.02201 
L 51.11828 83.618049 
L 51.132776 83.214088 
L 51.157263 82.81013 
L 51.190671 82.406169 
L 51.231943 82.002211 
L 51.280099 81.598248 
L 51.334286 81.194287 
L 51.340292 81.153702 
L 51.3945 80.790329 
L 51.459813 80.386368 
L 51.529886 79.982408 
L 51.604632 79.578449 
L 51.665558 79.268486 
L 51.684563 79.174489 
L 51.771164 78.77053 
L 51.863437 78.36657 
L 51.961764 77.962609 
L 51.990824 77.849313 
L 52.069341 77.558651 
L 52.185448 77.15469 
L 52.309474 76.750729 
L 52.316091 76.730117 
L 52.44776 76.346771 
L 52.595794 75.94281 
L 52.641357 75.824215 
L 52.759566 75.53885 
L 52.936531 75.134891 
L 52.966623 75.068954 
L 53.133255 74.730931 
L 53.29189 74.424195 
L 53.346109 74.326972 
L 53.579691 73.923012 
L 53.617156 73.860284 
L 53.835569 73.519051 
L 53.942422 73.356896 
L 54.112379 73.115093 
L 54.267689 72.898945 
L 54.411118 72.711132 
L 54.592955 72.476761 
L 54.732613 72.307174 
L 54.918221 72.084095 
L 55.078191 71.903213 
L 55.243488 71.717304 
L 55.45035 71.499252 
L 55.568754 71.374574 
L 55.853272 71.095294 
L 55.89402 71.055196 
L 56.219287 70.758095 
L 56.298549 70.691333 
L 56.544553 70.482954 
L 56.796421 70.287373 
L 56.869819 70.229999 
L 57.195086 69.997053 
L 57.369174 69.883414 
L 57.520352 69.784144 
L 57.845618 69.589703 
L 58.049038 69.479453 
L 58.170885 69.413257 
L 58.496151 69.252965 
L 58.821417 69.109274 
L 58.90588 69.075493 
L 59.146683 68.9796 
L 59.47195 68.863497 
L 59.797216 68.760106 
L 60.109602 68.671534 
L 60.122482 68.667914 
L 60.447749 68.584112 
L 60.773015 68.508927 
L 61.098281 68.441531 
L 61.423548 68.38155 
L 61.748814 68.329156 
L 62.07408 68.285113 
L 62.23912 68.267576 
L 62.399347 68.250632 
L 62.724613 68.22784 
L 63.049879 68.219225 
L 63.375146 68.227349 
L 63.700416 68.254906 
L 63.783361 68.267576 
L 64.025682 68.304904 
L 64.350948 68.38027 
L 64.676215 68.483454 
L 65.001481 68.616579 
L 65.111023 68.671534 
L 65.326747 68.784173 
L 65.652014 68.987569 
L 65.773488 69.075493 
L 65.97728 69.23203 
L 66.260181 69.479453 
L 66.302539 69.519402 
L 66.627805 69.859443 
L 66.648945 69.883414 
L 66.953072 70.262735 
L 66.971596 70.287373 
L 67.244326 70.691333 
L 67.278338 70.748269 
L 67.477206 71.095294 
L 67.603604 71.347756 
L 67.677673 71.499252 
L 67.851019 71.903213 
L 67.928871 72.109455 
L 68.003253 72.307174 
L 68.139769 72.711132 
L 68.254137 73.079545 
L 68.265318 73.115093 
L 68.387463 73.519051 
L 68.508834 73.923012 
L 68.579403 74.15079 
L 68.635303 74.326972 
L 68.77095 74.730931 
L 68.90467 75.103268 
L 68.916301 75.134891 
L 69.075969 75.53885 
L 69.229936 75.905878 
L 69.245731 75.94281 
L 69.427819 76.346771 
L 69.555202 76.620558 
L 69.61663 76.750729 
L 69.81076 77.15469 
L 69.880469 77.299523 
L 70.006452 77.558651 
L 70.198873 77.962609 
L 70.205735 77.977433 
L 70.386733 78.36657 
L 70.531001 78.696314 
L 70.563388 78.77053 
L 70.726666 79.174489 
L 70.856268 79.535242 
L 70.871528 79.578449 
L 70.995332 79.982408 
L 71.095436 80.386368 
L 71.170641 80.790329 
L 71.181534 80.876882 
L 71.219921 81.194287 
L 71.243992 81.598248 
L 71.243841 82.002211 
L 71.220661 82.406169 
L 71.181534 82.757129 
L 71.175682 82.81013 
L 71.10953 83.214088 
L 71.024052 83.618049 
L 70.920168 84.02201 
L 70.856268 84.232825 
L 70.797881 84.425968 
L 70.65754 84.829929 
L 70.531001 85.152846 
L 70.49914 85.233887 
L 70.321427 85.637848 
L 70.205735 85.874944 
L 70.123303 86.041808 
L 69.902675 86.445767 
L 69.880469 86.482845 
L 69.655208 86.849727 
L 69.555202 86.998061 
L 69.376565 87.253688 
L 69.229936 87.445264 
L 69.059374 87.657646 
L 68.90467 87.834162 
L 68.692863 88.061607 
L 68.579403 88.173779 
L 68.262099 88.465568 
L 68.254137 88.472349 
L 67.928871 88.731038 
L 67.73983 88.869526 
L 67.603604 88.962664 
L 67.278338 89.169299 
L 67.102827 89.273487 
L 66.953072 89.357237 
L 66.627805 89.529548 
L 66.334748 89.677446 
L 66.302539 89.692909 
L 65.97728 89.845482 
L 65.652014 89.994043 
L 65.457766 90.081406 
L 65.326747 90.138002 
L 65.001481 90.27678 
L 64.676215 90.412493 
L 64.497121 90.485365 
L 64.350948 90.542948 
L 64.025682 90.666706 
L 63.700416 90.78431 
L 63.39129 90.889326 
L 63.375146 90.894677 
L 63.049879 90.995283 
L 62.724613 91.087692 
L 62.399347 91.171954 
L 62.07408 91.248458 
L 61.863934 91.293286 
L 61.748814 91.317437 
L 61.423548 91.379371 
L 61.098281 91.435825 
L 60.773015 91.48756 
L 60.447749 91.535158 
L 60.122482 91.578947 
L 59.797216 91.618978 
L 59.47195 91.655023 
L 59.146683 91.686611 
L 59.015647 91.697245 
L 58.821417 91.712746 
L 58.496151 91.73286 
L 58.170885 91.746382 
L 57.845618 91.752513 
L 57.520352 91.750472 
L 57.195086 91.739504 
L 56.869819 91.718867 
L 56.642529 91.697245 
L 56.544553 91.68752 
L 56.219287 91.643866 
L 55.89402 91.587495 
L 55.568754 91.517176 
L 55.243488 91.431415 
L 54.918221 91.328396 
L 54.822949 91.293286 
L 54.592955 91.201735 
L 54.267689 91.049658 
L 53.97564 90.889326 
L 53.942422 90.869259 
L 53.617156 90.645981 
L 53.414153 90.485365 
L 53.29189 90.377229 
L 52.996334 90.081406 
L 52.966623 90.047913 
L 52.670182 89.677446 
L 52.641357 89.636694 
L 52.405388 89.273487 
L 52.316091 89.117692 
L 52.183456 88.869526 
L 51.99306 88.465568 
L 51.990824 88.460293 
L 51.830473 88.061607 
L 51.687598 87.657646 
L 51.665558 87.587819 
L 51.564316 87.253688 
L 51.457237 86.849727 
L 51.365264 86.445767 
L 51.340292 86.316647 
L 51.288766 86.041808 
z
" clip-path="url(#pca8e556334)" style="fill: none; stroke: #d94801; stroke-opacity: 0.555556; stroke-width: 1.5"/>
   </g>
   <g id="PathCollection_13">
    <path d="M 53.612011 83.618049 
L 53.601265 83.214088 
L 53.605796 82.81013 
L 53.617156 82.569594 
L 53.625126 82.406169 
L 53.6593 82.002211 
L 53.707477 81.598248 
L 53.769437 81.194287 
L 53.845192 80.790329 
L 53.934991 80.386368 
L 53.942422 80.3573 
L 54.043256 79.982408 
L 54.167562 79.578449 
L 54.267689 79.289929 
L 54.309976 79.174489 
L 54.474142 78.77053 
L 54.592955 78.506071 
L 54.659057 78.36657 
L 54.867596 77.962609 
L 54.918221 77.871505 
L 55.101049 77.558651 
L 55.243488 77.330995 
L 55.359135 77.15469 
L 55.568754 76.853103 
L 55.643316 76.750729 
L 55.89402 76.423174 
L 55.955489 76.346771 
L 56.219287 76.032708 
L 56.299189 75.94281 
L 56.544553 75.676956 
L 56.680673 75.53885 
L 56.869819 75.353077 
L 57.109421 75.134891 
L 57.195086 75.05895 
L 57.520352 74.792161 
L 57.601251 74.730931 
L 57.845618 74.549316 
L 58.170885 74.328429 
L 58.173193 74.326972 
L 58.496151 74.124626 
L 58.821417 73.937214 
L 58.847833 73.923012 
L 59.146683 73.761846 
L 59.47195 73.59887 
L 59.643241 73.519051 
L 59.797216 73.446594 
L 60.122482 73.305639 
L 60.447749 73.177334 
L 60.626082 73.115093 
L 60.773015 73.063185 
L 61.098281 72.966215 
L 61.423548 72.889173 
L 61.748814 72.835454 
L 62.07408 72.809265 
L 62.399347 72.815732 
L 62.724613 72.861043 
L 63.049879 72.952615 
L 63.375146 73.099259 
L 63.400886 73.115093 
L 63.700416 73.321136 
L 63.916589 73.519051 
L 64.025682 73.63119 
L 64.25668 73.923012 
L 64.350948 74.055415 
L 64.517356 74.326972 
L 64.676215 74.608067 
L 64.738559 74.730931 
L 64.936555 75.134891 
L 65.001481 75.2688 
L 65.12423 75.53885 
L 65.310491 75.94281 
L 65.326747 75.976942 
L 65.496591 76.346771 
L 65.652014 76.674107 
L 65.687582 76.750729 
L 65.88107 77.15469 
L 65.97728 77.352356 
L 66.076391 77.558651 
L 66.270006 77.962609 
L 66.302539 78.032005 
L 66.458066 78.36657 
L 66.627805 78.749358 
L 66.637154 78.77053 
L 66.803906 79.174489 
L 66.953072 79.571105 
L 66.955836 79.578449 
L 67.091508 79.982408 
L 67.209346 80.386368 
L 67.278338 80.667496 
L 67.30876 80.790329 
L 67.389157 81.194287 
L 67.44949 81.598248 
L 67.488853 82.002211 
L 67.506014 82.406169 
L 67.499366 82.81013 
L 67.46695 83.214088 
L 67.40652 83.618049 
L 67.315646 84.02201 
L 67.278338 84.144807 
L 67.18997 84.425968 
L 67.026155 84.829929 
L 66.953072 84.975985 
L 66.818643 85.233887 
L 66.627805 85.537636 
L 66.562252 85.637848 
L 66.302539 85.975912 
L 66.249995 86.041808 
L 65.97728 86.339314 
L 65.876429 86.445767 
L 65.652014 86.655508 
L 65.437984 86.849727 
L 65.326747 86.940443 
L 65.001481 87.199007 
L 64.930773 87.253688 
L 64.676215 87.433241 
L 64.350948 87.653678 
L 64.344842 87.657646 
L 64.025682 87.849236 
L 63.700416 88.032243 
L 63.644293 88.061607 
L 63.375146 88.193194 
L 63.049879 88.338122 
L 62.730325 88.465568 
L 62.724613 88.467721 
L 62.399347 88.576774 
L 62.07408 88.672034 
L 61.748814 88.75444 
L 61.423548 88.825292 
L 61.186572 88.869526 
L 61.098281 88.885402 
L 60.773015 88.935465 
L 60.447749 88.978259 
L 60.122482 89.01447 
L 59.797216 89.044347 
L 59.47195 89.067672 
L 59.146683 89.083773 
L 58.821417 89.091575 
L 58.496151 89.089662 
L 58.170885 89.076337 
L 57.845618 89.049675 
L 57.520352 89.007537 
L 57.195086 88.94757 
L 56.879175 88.869526 
L 56.869819 88.867029 
L 56.544553 88.7571 
L 56.219287 88.618439 
L 55.928417 88.465568 
L 55.89402 88.445644 
L 55.568754 88.221961 
L 55.372647 88.061607 
L 55.243488 87.943361 
L 54.974544 87.657646 
L 54.918221 87.589891 
L 54.671403 87.253688 
L 54.592955 87.131246 
L 54.430177 86.849727 
L 54.267689 86.523423 
L 54.232129 86.445767 
L 54.072111 86.041808 
L 53.942422 85.65022 
L 53.938578 85.637848 
L 53.833321 85.233887 
L 53.74928 84.829929 
L 53.685111 84.425968 
L 53.639646 84.02201 
L 53.617156 83.69595 
L 53.612011 83.618049 
z
" clip-path="url(#pca8e556334)" style="fill: none; stroke: #d94801; stroke-opacity: 0.666667; stroke-width: 1.5"/>
   </g>
   <g id="PathCollection_14">
    <path d="M 57.157815 83.214088 
L 57.106972 82.81013 
L 57.095178 82.406169 
L 57.11835 82.002211 
L 57.173396 81.598248 
L 57.195086 81.496044 
L 57.263142 81.194287 
L 57.384749 80.790329 
L 57.520352 80.426694 
L 57.536563 80.386368 
L 57.731713 79.982408 
L 57.845618 79.779103 
L 57.969403 79.578449 
L 58.170885 79.291939 
L 58.264093 79.174489 
L 58.496151 78.913955 
L 58.644653 78.77053 
L 58.821417 78.615975 
L 59.146683 78.379766 
L 59.169916 78.36657 
L 59.47195 78.208084 
L 59.797216 78.083813 
L 60.122482 78.007509 
L 60.447749 77.980731 
L 60.773015 78.004904 
L 61.098281 78.081323 
L 61.423548 78.211131 
L 61.698749 78.36657 
L 61.748814 78.396558 
L 62.07408 78.64505 
L 62.209195 78.77053 
L 62.399347 78.958267 
L 62.586397 79.174489 
L 62.724613 79.347901 
L 62.885432 79.578449 
L 63.049879 79.843468 
L 63.126731 79.982408 
L 63.316352 80.386368 
L 63.375146 80.54372 
L 63.458741 80.790329 
L 63.557167 81.194287 
L 63.614828 81.598248 
L 63.630867 82.002211 
L 63.604685 82.406169 
L 63.535495 82.81013 
L 63.421951 83.214088 
L 63.375146 83.333284 
L 63.253388 83.618049 
L 63.049879 83.984167 
L 63.026395 84.02201 
L 62.724613 84.4165 
L 62.716292 84.425968 
L 62.399347 84.729991 
L 62.275787 84.829929 
L 62.07408 84.971672 
L 61.748814 85.158687 
L 61.583091 85.233887 
L 61.423548 85.298636 
L 61.098281 85.397819 
L 60.773015 85.466365 
L 60.447749 85.506305 
L 60.122482 85.518945 
L 59.797216 85.504707 
L 59.47195 85.463014 
L 59.146683 85.392202 
L 58.821417 85.289457 
L 58.68797 85.233887 
L 58.496151 85.13907 
L 58.170885 84.932468 
L 58.040507 84.829929 
L 57.845618 84.639574 
L 57.664804 84.425968 
L 57.520352 84.20313 
L 57.420053 84.02201 
L 57.258559 83.618049 
L 57.195086 83.375367 
L 57.157815 83.214088 
z
" clip-path="url(#pca8e556334)" style="fill: none; stroke: #d94801; stroke-opacity: 0.888889; stroke-width: 1.5"/>
   </g>
   <g id="PathCollection_15"/>
   <g id="patch_3">
    <path d="M 32.474844 104.22 
L 32.474844 23.832 
" style="fill: none; stroke: #000000; stroke-width: 1.5; stroke-linejoin: miter; stroke-linecap: square"/>
   </g>
   <g id="patch_4">
    <path d="M 32.474844 104.22 
L 97.202844 104.22 
" style="fill: none; stroke: #000000; stroke-width: 1.5; stroke-linejoin: miter; stroke-linecap: square"/>
   </g>
  </g>
  <g id="axes_2">
   <g id="patch_5">
    <path d="M 32.474844 21.06 
L 97.202844 21.06 
L 97.202844 7.2 
L 32.474844 7.2 
L 32.474844 21.06 
z
" style="fill: none"/>
   </g>
   <g id="PolyCollection_1">
    <defs>
     <path id="m5bb79d4925" d="M 32.474844 -118.860781 
L 32.474844 -118.860781 
L 32.80011 -118.860781 
L 33.125376 -118.860781 
L 33.450643 -118.860781 
L 33.775909 -118.860781 
L 34.101175 -118.860781 
L 34.426442 -118.860781 
L 34.751708 -118.860781 
L 35.076974 -118.860781 
L 35.402241 -118.860781 
L 35.727507 -118.860781 
L 36.052773 -118.860781 
L 36.37804 -118.860781 
L 36.703306 -118.860781 
L 37.028572 -118.860781 
L 37.35384 -118.860781 
L 37.679106 -118.860781 
L 38.004372 -118.860781 
L 38.329639 -118.860781 
L 38.654905 -118.860781 
L 38.980171 -118.860781 
L 39.305438 -118.860781 
L 39.630704 -118.860781 
L 39.95597 -118.860781 
L 40.281237 -118.860781 
L 40.606503 -118.860781 
L 40.931769 -118.860781 
L 41.257035 -118.860781 
L 41.582302 -118.860781 
L 41.907568 -118.860781 
L 42.232834 -118.860781 
L 42.558101 -118.860781 
L 42.883367 -118.860781 
L 43.208633 -118.860781 
L 43.5339 -118.860781 
L 43.859166 -118.860781 
L 44.184432 -118.860781 
L 44.509699 -118.860781 
L 44.834965 -118.860781 
L 45.160231 -118.860781 
L 45.485498 -118.860781 
L 45.810764 -118.860781 
L 46.13603 -118.860781 
L 46.461297 -118.860781 
L 46.786563 -118.860781 
L 47.111829 -118.860781 
L 47.437096 -118.860781 
L 47.762362 -118.860781 
L 48.087628 -118.860781 
L 48.412895 -118.860781 
L 48.738161 -118.860781 
L 49.063427 -118.860781 
L 49.388694 -118.860781 
L 49.71396 -118.860781 
L 50.039226 -118.860781 
L 50.364493 -118.860781 
L 50.689759 -118.860781 
L 51.015025 -118.860781 
L 51.340292 -118.860781 
L 51.665558 -118.860781 
L 51.990824 -118.860781 
L 52.316091 -118.860781 
L 52.641357 -118.860781 
L 52.966623 -118.860781 
L 53.29189 -118.860781 
L 53.617156 -118.860781 
L 53.942422 -118.860781 
L 54.267689 -118.860781 
L 54.592955 -118.860781 
L 54.918221 -118.860781 
L 55.243488 -118.860781 
L 55.568754 -118.860781 
L 55.89402 -118.860781 
L 56.219287 -118.860781 
L 56.544553 -118.860781 
L 56.869819 -118.860781 
L 57.195086 -118.860781 
L 57.520352 -118.860781 
L 57.845618 -118.860781 
L 58.170885 -118.860781 
L 58.496151 -118.860781 
L 58.821417 -118.860781 
L 59.146683 -118.860781 
L 59.47195 -118.860781 
L 59.797216 -118.860781 
L 60.122482 -118.860781 
L 60.447749 -118.860781 
L 60.773015 -118.860781 
L 61.098281 -118.860781 
L 61.423548 -118.860781 
L 61.748814 -118.860781 
L 62.07408 -118.860781 
L 62.399347 -118.860781 
L 62.724613 -118.860781 
L 63.049879 -118.860781 
L 63.375146 -118.860781 
L 63.700416 -118.860781 
L 64.025682 -118.860781 
L 64.350948 -118.860781 
L 64.676215 -118.860781 
L 65.001481 -118.860781 
L 65.326747 -118.860781 
L 65.652014 -118.860781 
L 65.97728 -118.860781 
L 66.302539 -118.860781 
L 66.627805 -118.860781 
L 66.953072 -118.860781 
L 67.278338 -118.860781 
L 67.603604 -118.860781 
L 67.928871 -118.860781 
L 68.254137 -118.860781 
L 68.579403 -118.860781 
L 68.90467 -118.860781 
L 69.229936 -118.860781 
L 69.555202 -118.860781 
L 69.880469 -118.860781 
L 70.205735 -118.860781 
L 70.531001 -118.860781 
L 70.856268 -118.860781 
L 71.181534 -118.860781 
L 71.5068 -118.860781 
L 71.832067 -118.860781 
L 72.157333 -118.860781 
L 72.482599 -118.860781 
L 72.807866 -118.860781 
L 73.133132 -118.860781 
L 73.458398 -118.860781 
L 73.783665 -118.860781 
L 74.108931 -118.860781 
L 74.434197 -118.860781 
L 74.759464 -118.860781 
L 75.08473 -118.860781 
L 75.409996 -118.860781 
L 75.735262 -118.860781 
L 76.060529 -118.860781 
L 76.385795 -118.860781 
L 76.711065 -118.860781 
L 77.036331 -118.860781 
L 77.361598 -118.860781 
L 77.686864 -118.860781 
L 78.01213 -118.860781 
L 78.337397 -118.860781 
L 78.662663 -118.860781 
L 78.987929 -118.860781 
L 79.313196 -118.860781 
L 79.638462 -118.860781 
L 79.963728 -118.860781 
L 80.288995 -118.860781 
L 80.614261 -118.860781 
L 80.939527 -118.860781 
L 81.264794 -118.860781 
L 81.59006 -118.860781 
L 81.915326 -118.860781 
L 82.240593 -118.860781 
L 82.565859 -118.860781 
L 82.891125 -118.860781 
L 83.216392 -118.860781 
L 83.541658 -118.860781 
L 83.866928 -118.860781 
L 84.192191 -118.860781 
L 84.517453 -118.860781 
L 84.842723 -118.860781 
L 85.167986 -118.860781 
L 85.493256 -118.860781 
L 85.818519 -118.860781 
L 86.143789 -118.860781 
L 86.469051 -118.860781 
L 86.794321 -118.860781 
L 87.119584 -118.860781 
L 87.444854 -118.860781 
L 87.770117 -118.860781 
L 88.095387 -118.860781 
L 88.420649 -118.860781 
L 88.745919 -118.860781 
L 89.071182 -118.860781 
L 89.396452 -118.860781 
L 89.721715 -118.860781 
L 90.046985 -118.860781 
L 90.372247 -118.860781 
L 90.697517 -118.860781 
L 91.02278 -118.860781 
L 91.34805 -118.860781 
L 91.673313 -118.860781 
L 91.998583 -118.860781 
L 92.323845 -118.860781 
L 92.649115 -118.860781 
L 92.974378 -118.860781 
L 93.299648 -118.860781 
L 93.62491 -118.860781 
L 93.95018 -118.860781 
L 94.275443 -118.860781 
L 94.600713 -118.860781 
L 94.925976 -118.860781 
L 95.251246 -118.860781 
L 95.576508 -118.860781 
L 95.901778 -118.860781 
L 96.227041 -118.860781 
L 96.552311 -118.860781 
L 96.877574 -118.860781 
L 97.202844 -118.860781 
L 97.202844 -118.860781 
L 97.202844 -118.860781 
L 96.877574 -118.860781 
L 96.552311 -118.860781 
L 96.227041 -118.860781 
L 95.901778 -118.860781 
L 95.576508 -118.860781 
L 95.251246 -118.860781 
L 94.925976 -118.860781 
L 94.600713 -118.860781 
L 94.275443 -118.860781 
L 93.95018 -118.860781 
L 93.62491 -118.860781 
L 93.299648 -118.860781 
L 92.974378 -118.860781 
L 92.649115 -118.860781 
L 92.323845 -118.860781 
L 91.998583 -118.860781 
L 91.673313 -118.860781 
L 91.34805 -118.860781 
L 91.02278 -118.860781 
L 90.697517 -118.860781 
L 90.372247 -118.860781 
L 90.046985 -118.860781 
L 89.721715 -118.860781 
L 89.396452 -118.860781 
L 89.071182 -118.860781 
L 88.745919 -118.860781 
L 88.420649 -118.860781 
L 88.095387 -118.860781 
L 87.770117 -118.860781 
L 87.444854 -118.860781 
L 87.119584 -118.860781 
L 86.794321 -118.860781 
L 86.469051 -118.860781 
L 86.143789 -118.860781 
L 85.818519 -118.860781 
L 85.493256 -118.860781 
L 85.167986 -118.860781 
L 84.842723 -118.860781 
L 84.517453 -118.860781 
L 84.192191 -118.860781 
L 83.866928 -118.860781 
L 83.541658 -118.860781 
L 83.216392 -118.860781 
L 82.891125 -118.860781 
L 82.565859 -118.860781 
L 82.240593 -118.860781 
L 81.915326 -118.860781 
L 81.59006 -118.860781 
L 81.264794 -118.860781 
L 80.939527 -118.860781 
L 80.614261 -118.860781 
L 80.288995 -118.860781 
L 79.963728 -118.860781 
L 79.638462 -118.860781 
L 79.313196 -118.860781 
L 78.987929 -118.860781 
L 78.662663 -118.860781 
L 78.337397 -118.860781 
L 78.01213 -118.860781 
L 77.686864 -118.860781 
L 77.361598 -118.860781 
L 77.036331 -118.860781 
L 76.711065 -118.860781 
L 76.385795 -118.860781 
L 76.060529 -118.860781 
L 75.735262 -118.860781 
L 75.409996 -118.860781 
L 75.08473 -118.860781 
L 74.759464 -118.860781 
L 74.434197 -118.860781 
L 74.108931 -118.860781 
L 73.783665 -118.860781 
L 73.458398 -118.860781 
L 73.133132 -118.860781 
L 72.807866 -118.860781 
L 72.482599 -118.860781 
L 72.157333 -118.860781 
L 71.832067 -118.860781 
L 71.5068 -118.860781 
L 71.181534 -118.860781 
L 70.856268 -118.860781 
L 70.531001 -118.860781 
L 70.205735 -118.860781 
L 69.880469 -118.860781 
L 69.555202 -118.860781 
L 69.229936 -118.860781 
L 68.90467 -118.860781 
L 68.579403 -118.860781 
L 68.254137 -118.860781 
L 67.928871 -118.860781 
L 67.603604 -118.860781 
L 67.278338 -118.860781 
L 66.953072 -118.860781 
L 66.627805 -118.860781 
L 66.302539 -118.860781 
L 65.97728 -118.860781 
L 65.652014 -118.860781 
L 65.326747 -118.860781 
L 65.001481 -118.860781 
L 64.676215 -118.860781 
L 64.350948 -118.860781 
L 64.025682 -118.860781 
L 63.700416 -118.860781 
L 63.375146 -118.860781 
L 63.049879 -118.860781 
L 62.724613 -118.860781 
L 62.399347 -118.860781 
L 62.07408 -118.860781 
L 61.748814 -118.860781 
L 61.423548 -118.860781 
L 61.098281 -118.860781 
L 60.773015 -118.860781 
L 60.447749 -118.860781 
L 60.122482 -118.860781 
L 59.797216 -118.860781 
L 59.47195 -118.860781 
L 59.146683 -118.860781 
L 58.821417 -118.860781 
L 58.496151 -118.860781 
L 58.170885 -118.860781 
L 57.845618 -118.860781 
L 57.520352 -118.860781 
L 57.195086 -118.860781 
L 56.869819 -118.860781 
L 56.544553 -118.860781 
L 56.219287 -118.860781 
L 55.89402 -118.860781 
L 55.568754 -118.860781 
L 55.243488 -118.860781 
L 54.918221 -118.860781 
L 54.592955 -118.860781 
L 54.267689 -118.860781 
L 53.942422 -118.860781 
L 53.617156 -118.860781 
L 53.29189 -118.860781 
L 52.966623 -118.860781 
L 52.641357 -118.860781 
L 52.316091 -118.860781 
L 51.990824 -118.860781 
L 51.665558 -118.860781 
L 51.340292 -118.860781 
L 51.015025 -118.860781 
L 50.689759 -118.860781 
L 50.364493 -118.860781 
L 50.039226 -118.860781 
L 49.71396 -118.860781 
L 49.388694 -118.860781 
L 49.063427 -118.860781 
L 48.738161 -118.860781 
L 48.412895 -118.8608 
L 48.087628 -118.862832 
L 47.762362 -118.89351 
L 47.437096 -119.009349 
L 47.111829 -119.265124 
L 46.786563 -119.7079 
L 46.461297 -120.350159 
L 46.13603 -120.763399 
L 45.810764 -121.491836 
L 45.485498 -123.135019 
L 45.160231 -125.706692 
L 44.834965 -128.9861 
L 44.509699 -134.803571 
L 44.184432 -140.852029 
L 43.859166 -146.958259 
L 43.5339 -155.357908 
L 43.208633 -164.167975 
L 42.883367 -172.226221 
L 42.558101 -177.323542 
L 42.232834 -182.331233 
L 41.907568 -185.476604 
L 41.582302 -181.324911 
L 41.257035 -174.574912 
L 40.931769 -168.254911 
L 40.606503 -159.740035 
L 40.281237 -148.979525 
L 39.95597 -139.07421 
L 39.630704 -131.860281 
L 39.305438 -126.757644 
L 38.980171 -123.355539 
L 38.654905 -121.099974 
L 38.329639 -120.149543 
L 38.004372 -119.501304 
L 37.679106 -119.057583 
L 37.35384 -118.951333 
L 37.028572 -118.883884 
L 36.703306 -118.861669 
L 36.37804 -118.860786 
L 36.052773 -118.860781 
L 35.727507 -118.860781 
L 35.402241 -118.860781 
L 35.076974 -118.860781 
L 34.751708 -118.860781 
L 34.426442 -118.860781 
L 34.101175 -118.860781 
L 33.775909 -118.860781 
L 33.450643 -118.860781 
L 33.125376 -118.860781 
L 32.80011 -118.860781 
L 32.474844 -118.860781 
z
" style="stroke: #08519c; stroke-opacity: 0.1"/>
    </defs>
    <g clip-path="url(#pe37cc1930a)">
     <use xlink:href="#m5bb79d4925" x="0" y="139.920781" style="fill: #08519c; fill-opacity: 0.1; stroke: #08519c; stroke-opacity: 0.1"/>
    </g>
   </g>
   <g id="PolyCollection_2">
    <defs>
     <path id="m4d8c27e172" d="M 32.474844 -118.860816 
L 32.474844 -118.860781 
L 32.80011 -118.860781 
L 33.125376 -118.860781 
L 33.450643 -118.860781 
L 33.775909 -118.860781 
L 34.101175 -118.860781 
L 34.426442 -118.860781 
L 34.751708 -118.860781 
L 35.076974 -118.860781 
L 35.402241 -118.860781 
L 35.727507 -118.860781 
L 36.052773 -118.860781 
L 36.37804 -118.860781 
L 36.703306 -118.860781 
L 37.028572 -118.860781 
L 37.35384 -118.860781 
L 37.679106 -118.860781 
L 38.004372 -118.860781 
L 38.329639 -118.860781 
L 38.654905 -118.860781 
L 38.980171 -118.860781 
L 39.305438 -118.860781 
L 39.630704 -118.860781 
L 39.95597 -118.860781 
L 40.281237 -118.860781 
L 40.606503 -118.860781 
L 40.931769 -118.860781 
L 41.257035 -118.860781 
L 41.582302 -118.860781 
L 41.907568 -118.860781 
L 42.232834 -118.860781 
L 42.558101 -118.860781 
L 42.883367 -118.860781 
L 43.208633 -118.860781 
L 43.5339 -118.860781 
L 43.859166 -118.860781 
L 44.184432 -118.860781 
L 44.509699 -118.860781 
L 44.834965 -118.860781 
L 45.160231 -118.860781 
L 45.485498 -118.860781 
L 45.810764 -118.860781 
L 46.13603 -118.860781 
L 46.461297 -118.860781 
L 46.786563 -118.860781 
L 47.111829 -118.860781 
L 47.437096 -118.860781 
L 47.762362 -118.860781 
L 48.087628 -118.860781 
L 48.412895 -118.860781 
L 48.738161 -118.860781 
L 49.063427 -118.860781 
L 49.388694 -118.860781 
L 49.71396 -118.860781 
L 50.039226 -118.860781 
L 50.364493 -118.860781 
L 50.689759 -118.860781 
L 51.015025 -118.860781 
L 51.340292 -118.860781 
L 51.665558 -118.860781 
L 51.990824 -118.860781 
L 52.316091 -118.860781 
L 52.641357 -118.860781 
L 52.966623 -118.860781 
L 53.29189 -118.860781 
L 53.617156 -118.860781 
L 53.942422 -118.860781 
L 54.267689 -118.860781 
L 54.592955 -118.860781 
L 54.918221 -118.860781 
L 55.243488 -118.860781 
L 55.568754 -118.860781 
L 55.89402 -118.860781 
L 56.219287 -118.860781 
L 56.544553 -118.860781 
L 56.869819 -118.860781 
L 57.195086 -118.860781 
L 57.520352 -118.860781 
L 57.845618 -118.860781 
L 58.170885 -118.860781 
L 58.496151 -118.860781 
L 58.821417 -118.860781 
L 59.146683 -118.860781 
L 59.47195 -118.860781 
L 59.797216 -118.860781 
L 60.122482 -118.860781 
L 60.447749 -118.860781 
L 60.773015 -118.860781 
L 61.098281 -118.860781 
L 61.423548 -118.860781 
L 61.748814 -118.860781 
L 62.07408 -118.860781 
L 62.399347 -118.860781 
L 62.724613 -118.860781 
L 63.049879 -118.860781 
L 63.375146 -118.860781 
L 63.700416 -118.860781 
L 64.025682 -118.860781 
L 64.350948 -118.860781 
L 64.676215 -118.860781 
L 65.001481 -118.860781 
L 65.326747 -118.860781 
L 65.652014 -118.860781 
L 65.97728 -118.860781 
L 66.302539 -118.860781 
L 66.627805 -118.860781 
L 66.953072 -118.860781 
L 67.278338 -118.860781 
L 67.603604 -118.860781 
L 67.928871 -118.860781 
L 68.254137 -118.860781 
L 68.579403 -118.860781 
L 68.90467 -118.860781 
L 69.229936 -118.860781 
L 69.555202 -118.860781 
L 69.880469 -118.860781 
L 70.205735 -118.860781 
L 70.531001 -118.860781 
L 70.856268 -118.860781 
L 71.181534 -118.860781 
L 71.5068 -118.860781 
L 71.832067 -118.860781 
L 72.157333 -118.860781 
L 72.482599 -118.860781 
L 72.807866 -118.860781 
L 73.133132 -118.860781 
L 73.458398 -118.860781 
L 73.783665 -118.860781 
L 74.108931 -118.860781 
L 74.434197 -118.860781 
L 74.759464 -118.860781 
L 75.08473 -118.860781 
L 75.409996 -118.860781 
L 75.735262 -118.860781 
L 76.060529 -118.860781 
L 76.385795 -118.860781 
L 76.711065 -118.860781 
L 77.036331 -118.860781 
L 77.361598 -118.860781 
L 77.686864 -118.860781 
L 78.01213 -118.860781 
L 78.337397 -118.860781 
L 78.662663 -118.860781 
L 78.987929 -118.860781 
L 79.313196 -118.860781 
L 79.638462 -118.860781 
L 79.963728 -118.860781 
L 80.288995 -118.860781 
L 80.614261 -118.860781 
L 80.939527 -118.860781 
L 81.264794 -118.860781 
L 81.59006 -118.860781 
L 81.915326 -118.860781 
L 82.240593 -118.860781 
L 82.565859 -118.860781 
L 82.891125 -118.860781 
L 83.216392 -118.860781 
L 83.541658 -118.860781 
L 83.866928 -118.860781 
L 84.192191 -118.860781 
L 84.517453 -118.860781 
L 84.842723 -118.860781 
L 85.167986 -118.860781 
L 85.493256 -118.860781 
L 85.818519 -118.860781 
L 86.143789 -118.860781 
L 86.469051 -118.860781 
L 86.794321 -118.860781 
L 87.119584 -118.860781 
L 87.444854 -118.860781 
L 87.770117 -118.860781 
L 88.095387 -118.860781 
L 88.420649 -118.860781 
L 88.745919 -118.860781 
L 89.071182 -118.860781 
L 89.396452 -118.860781 
L 89.721715 -118.860781 
L 90.046985 -118.860781 
L 90.372247 -118.860781 
L 90.697517 -118.860781 
L 91.02278 -118.860781 
L 91.34805 -118.860781 
L 91.673313 -118.860781 
L 91.998583 -118.860781 
L 92.323845 -118.860781 
L 92.649115 -118.860781 
L 92.974378 -118.860781 
L 93.299648 -118.860781 
L 93.62491 -118.860781 
L 93.95018 -118.860781 
L 94.275443 -118.860781 
L 94.600713 -118.860781 
L 94.925976 -118.860781 
L 95.251246 -118.860781 
L 95.576508 -118.860781 
L 95.901778 -118.860781 
L 96.227041 -118.860781 
L 96.552311 -118.860781 
L 96.877574 -118.860781 
L 97.202844 -118.860781 
L 97.202844 -119.056802 
L 97.202844 -119.056802 
L 96.877574 -119.060929 
L 96.552311 -119.065734 
L 96.227041 -119.071696 
L 95.901778 -119.07924 
L 95.576508 -119.088734 
L 95.251246 -119.100498 
L 94.925976 -119.11482 
L 94.600713 -119.131972 
L 94.275443 -119.152205 
L 93.95018 -119.175724 
L 93.62491 -119.202655 
L 93.299648 -119.232994 
L 92.974378 -119.266566 
L 92.649115 -119.302996 
L 92.323845 -119.3417 
L 91.998583 -119.381898 
L 91.673313 -119.422654 
L 91.34805 -119.462935 
L 91.02278 -119.501698 
L 90.697517 -119.537982 
L 90.372247 -119.571018 
L 90.046985 -119.600316 
L 89.721715 -119.625744 
L 89.396452 -119.647555 
L 89.071182 -119.666385 
L 88.745919 -119.683193 
L 88.420649 -119.699183 
L 88.095387 -119.715688 
L 87.770117 -119.734062 
L 87.444854 -119.755563 
L 87.119584 -119.781247 
L 86.794321 -119.811876 
L 86.469051 -119.847839 
L 86.143789 -119.889086 
L 85.818519 -119.935095 
L 85.493256 -119.984873 
L 85.167986 -120.037027 
L 84.842723 -120.089883 
L 84.517453 -120.141706 
L 84.192191 -120.190942 
L 83.866928 -120.236497 
L 83.541658 -120.277975 
L 83.216392 -120.315822 
L 82.891125 -120.351354 
L 82.565859 -120.386641 
L 82.240593 -120.424275 
L 81.915326 -120.467063 
L 81.59006 -120.5177 
L 81.264794 -120.578477 
L 80.939527 -120.651057 
L 80.614261 -120.736328 
L 80.288995 -120.834328 
L 79.963728 -120.944227 
L 79.638462 -121.064362 
L 79.313196 -121.192321 
L 78.987929 -121.325108 
L 78.662663 -121.45939 
L 78.337397 -121.591834 
L 78.01213 -121.719509 
L 77.686864 -121.840278 
L 77.361598 -121.953113 
L 77.036331 -122.058249 
L 76.711065 -122.157134 
L 76.385795 -122.252177 
L 76.060529 -122.346341 
L 75.735262 -122.442695 
L 75.409996 -122.543981 
L 75.08473 -122.652302 
L 74.759464 -122.768963 
L 74.434197 -122.894445 
L 74.108931 -123.028492 
L 73.783665 -123.170249 
L 73.458398 -123.318431 
L 73.133132 -123.471483 
L 72.807866 -123.627744 
L 72.482599 -123.785621 
L 72.157333 -123.943759 
L 71.832067 -124.101205 
L 71.5068 -124.257526 
L 71.181534 -124.412844 
L 70.856268 -124.567764 
L 70.531001 -124.72319 
L 70.205735 -124.880066 
L 69.880469 -125.039091 
L 69.555202 -125.200463 
L 69.229936 -125.363747 
L 68.90467 -125.527859 
L 68.579403 -125.691223 
L 68.254137 -125.852037 
L 67.928871 -126.008626 
L 67.603604 -126.159801 
L 67.278338 -126.305142 
L 66.953072 -126.445146 
L 66.627805 -126.58118 
L 66.302539 -126.715222 
L 65.97728 -126.84943 
L 65.652014 -126.985624 
L 65.326747 -127.124758 
L 65.001481 -127.266553 
L 64.676215 -127.409358 
L 64.350948 -127.550285 
L 64.025682 -127.685594 
L 63.700416 -127.811253 
L 63.375146 -127.923543 
L 63.049879 -128.019588 
L 62.724613 -128.097718 
L 62.399347 -128.157601 
L 62.07408 -128.200127 
L 61.748814 -128.227106 
L 61.423548 -128.240833 
L 61.098281 -128.243619 
L 60.773015 -128.237398 
L 60.447749 -128.223481 
L 60.122482 -128.202505 
L 59.797216 -128.17456 
L 59.47195 -128.139432 
L 59.146683 -128.09686 
L 58.821417 -128.046734 
L 58.496151 -127.989157 
L 58.170885 -127.924383 
L 57.845618 -127.852674 
L 57.520352 -127.774147 
L 57.195086 -127.688674 
L 56.869819 -127.595856 
L 56.544553 -127.495075 
L 56.219287 -127.385581 
L 55.89402 -127.266567 
L 55.568754 -127.137233 
L 55.243488 -126.996827 
L 54.918221 -126.844695 
L 54.592955 -126.680345 
L 54.267689 -126.503532 
L 53.942422 -126.314329 
L 53.617156 -126.11315 
L 53.29189 -125.900702 
L 52.966623 -125.677866 
L 52.641357 -125.445539 
L 52.316091 -125.204495 
L 51.990824 -124.955312 
L 51.665558 -124.698394 
L 51.340292 -124.434097 
L 51.015025 -124.162914 
L 50.689759 -123.885682 
L 50.364493 -123.603743 
L 50.039226 -123.319019 
L 49.71396 -123.033986 
L 49.388694 -122.751525 
L 49.063427 -122.474691 
L 48.738161 -122.206424 
L 48.412895 -121.949254 
L 48.087628 -121.705062 
L 47.762362 -121.474927 
L 47.437096 -121.259107 
L 47.111829 -121.057144 
L 46.786563 -120.868079 
L 46.461297 -120.690708 
L 46.13603 -120.523852 
L 45.810764 -120.366556 
L 45.485498 -120.218203 
L 45.160231 -120.078532 
L 44.834965 -119.947567 
L 44.509699 -119.825511 
L 44.184432 -119.712618 
L 43.859166 -119.609084 
L 43.5339 -119.514974 
L 43.208633 -119.430185 
L 42.883367 -119.35444 
L 42.558101 -119.287308 
L 42.232834 -119.228238 
L 41.907568 -119.176604 
L 41.582302 -119.13174 
L 41.257035 -119.092976 
L 40.931769 -119.059654 
L 40.606503 -119.031142 
L 40.281237 -119.006828 
L 39.95597 -118.98612 
L 39.630704 -118.968446 
L 39.305438 -118.953265 
L 38.980171 -118.940085 
L 38.654905 -118.928486 
L 38.329639 -118.91814 
L 38.004372 -118.908824 
L 37.679106 -118.900413 
L 37.35384 -118.892863 
L 37.028572 -118.886181 
L 36.703306 -118.880392 
L 36.37804 -118.875512 
L 36.052773 -118.871524 
L 35.727507 -118.868375 
L 35.402241 -118.865978 
L 35.076974 -118.86422 
L 34.751708 -118.86298 
L 34.426442 -118.862139 
L 34.101175 -118.86159 
L 33.775909 -118.861246 
L 33.450643 -118.861039 
L 33.125376 -118.860919 
L 32.80011 -118.860852 
L 32.474844 -118.860816 
z
" style="stroke: #d94801; stroke-opacity: 0.1"/>
    </defs>
    <g clip-path="url(#pe37cc1930a)">
     <use xlink:href="#m4d8c27e172" x="0" y="139.920781" style="fill: #d94801; fill-opacity: 0.1; stroke: #d94801; stroke-opacity: 0.1"/>
    </g>
   </g>
   <g id="matplotlib.axis_3">
    <g id="xtick_3">
     <g id="line2d_5">
      <g>
       <use xlink:href="#mf840a9ed06" x="52.509701" y="21.06" style="stroke: #000000; stroke-width: 1.5"/>
      </g>
     </g>
    </g>
    <g id="xtick_4">
     <g id="line2d_6">
      <g>
       <use xlink:href="#mf840a9ed06" x="83.332557" y="21.06" style="stroke: #000000; stroke-width: 1.5"/>
      </g>
     </g>
    </g>
   </g>
   <g id="matplotlib.axis_4">
    <g id="ytick_3">
     <g id="line2d_7">
      <g>
       <use xlink:href="#md25e0bb58a" x="32.474844" y="21.06" style="stroke: #000000; stroke-width: 1.5"/>
      </g>
     </g>
    </g>
    <g id="ytick_4">
     <g id="line2d_8">
      <g>
       <use xlink:href="#md25e0bb58a" x="32.474844" y="13.598063" style="stroke: #000000; stroke-width: 1.5"/>
      </g>
     </g>
    </g>
   </g>
   <g id="line2d_9">
    <path d="M 32.474844 21.06 
L 37.35384 20.969448 
L 37.679106 20.863198 
L 38.004372 20.419478 
L 38.329639 19.771238 
L 38.654905 18.820807 
L 38.980171 16.565242 
L 39.305438 13.163138 
L 39.630704 8.0605 
L 40.016607 -1 
M 44.18077 -1 
L 44.834965 10.934681 
L 45.485498 16.785762 
L 45.810764 18.428945 
L 46.13603 19.157383 
L 46.461297 19.570622 
L 47.111829 20.655657 
L 47.762362 21.027271 
L 49.063427 21.06 
L 97.202844 21.06 
L 97.202844 21.06 
" clip-path="url(#pe37cc1930a)" style="fill: none; stroke: #08519c; stroke-width: 1.5; stroke-linecap: square"/>
   </g>
   <g id="line2d_10">
    <path d="M 32.474844 21.059965 
L 39.630704 20.952336 
L 41.907568 20.744177 
L 43.5339 20.405807 
L 45.160231 19.842249 
L 46.786563 19.052703 
L 48.087628 18.215719 
L 49.71396 16.886795 
L 52.316091 14.716286 
L 53.942422 13.606452 
L 55.568754 12.783548 
L 57.195086 12.232107 
L 59.146683 11.823921 
L 61.098281 11.677162 
L 62.399347 11.76318 
L 63.700416 12.109528 
L 66.953072 13.475635 
L 69.229936 14.557035 
L 74.108931 16.89229 
L 75.735262 17.478086 
L 78.337397 18.328947 
L 80.939527 19.269724 
L 82.565859 19.53414 
L 86.143789 20.031695 
L 88.420649 20.221598 
L 91.34805 20.457846 
L 94.925976 20.805961 
L 97.202844 20.86398 
L 97.202844 20.86398 
" clip-path="url(#pe37cc1930a)" style="fill: none; stroke: #d94801; stroke-width: 1.5; stroke-linecap: square"/>
   </g>
   <g id="patch_6">
    <path d="M 32.474844 21.06 
L 32.474844 7.2 
" style="fill: none; stroke: #000000; stroke-width: 1.5; stroke-linejoin: miter; stroke-linecap: square"/>
   </g>
   <g id="patch_7">
    <path d="M 32.474844 21.06 
L 97.202844 21.06 
" style="fill: none; stroke: #000000; stroke-width: 1.5; stroke-linejoin: miter; stroke-linecap: square"/>
   </g>
  </g>
  <g id="axes_3">
   <g id="patch_8">
    <path d="M 99.434844 104.22 
L 110.594844 104.22 
L 110.594844 23.832 
L 99.434844 23.832 
L 99.434844 104.22 
z
" style="fill: none"/>
   </g>
   <g id="PolyCollection_3">
    <defs>
     <path id="m609e89de40" d="M 99.43795 -35.700781 
L 99.43795 -31.784764 
L 99.43965 -31.787691 
L 99.442091 -31.791893 
L 99.445534 -31.79782 
L 99.450324 -31.806067 
L 99.456931 -31.817442 
L 99.465987 -31.833033 
L 99.478324 -31.854273 
L 99.495004 -31.88299 
L 99.517318 -31.921408 
L 99.546753 -31.972084 
L 99.584911 -32.037779 
L 99.633405 -32.121268 
L 99.693737 -32.225138 
L 99.767196 -32.351609 
L 99.854798 -32.502429 
L 99.957286 -32.678878 
L 100.075189 -32.881864 
L 100.208922 -33.112106 
L 100.358898 -33.370311 
L 100.525602 -33.657317 
L 100.709618 -33.974127 
L 100.911586 -34.321846 
L 101.132107 -34.701505 
L 101.371613 -35.113849 
L 101.630234 -35.559104 
L 101.907683 -36.036773 
L 102.203163 -36.545485 
L 102.515317 -37.082905 
L 102.842198 -37.645679 
L 103.181264 -38.229431 
L 103.529413 -38.82882 
L 103.883063 -39.437681 
L 104.238288 -40.049254 
L 104.591008 -40.656513 
L 104.937206 -41.252544 
L 105.273154 -41.830928 
L 105.595571 -42.386017 
L 105.901715 -42.913088 
L 106.18938 -43.408346 
L 106.456852 -43.868839 
L 106.702819 -44.292308 
L 106.926306 -44.677074 
L 107.126635 -45.021969 
L 107.303401 -45.326299 
L 107.456481 -45.589848 
L 107.586044 -45.81291 
L 107.692569 -45.996309 
L 107.776877 -46.141457 
L 107.84016 -46.250408 
L 107.883999 -46.325883 
L 107.91034 -46.371233 
L 107.921427 -46.390322 
L 107.919671 -46.387299 
L 107.907485 -46.366318 
L 107.887103 -46.331228 
L 107.860425 -46.285297 
L 107.828883 -46.230993 
L 107.793369 -46.169851 
L 107.754193 -46.102404 
L 107.711101 -46.028214 
L 107.663337 -45.945982 
L 107.609755 -45.853732 
L 107.548975 -45.749089 
L 107.479548 -45.629562 
L 107.400127 -45.492826 
L 107.309589 -45.336952 
L 107.20713 -45.160553 
L 107.092335 -44.962917 
L 106.965251 -44.744123 
L 106.826472 -44.505195 
L 106.677232 -44.248256 
L 106.51945 -43.976611 
L 106.355667 -43.694635 
L 106.188848 -43.407431 
L 106.022009 -43.120192 
L 105.857769 -42.83743 
L 105.697908 -42.562206 
L 105.543055 -42.295602 
L 105.392625 -42.036615 
L 105.245018 -41.782488 
L 105.098053 -41.529466 
L 104.949507 -41.273722 
L 104.797623 -41.012231 
L 104.641464 -40.743381 
L 104.481029 -40.467169 
L 104.317136 -40.185002 
L 104.151174 -39.899275 
L 103.984806 -39.612848 
L 103.81973 -39.328644 
L 103.657552 -39.049431 
L 103.499769 -38.777785 
L 103.347775 -38.516104 
L 103.202859 -38.26661 
L 103.06614 -38.031229 
L 102.93841 -37.811323 
L 102.819958 -37.607389 
L 102.710423 -37.418809 
L 102.608738 -37.243743 
L 102.513211 -37.079279 
L 102.421738 -36.921795 
L 102.33211 -36.767487 
L 102.242354 -36.612959 
L 102.151024 -36.45572 
L 102.057401 -36.294535 
L 101.961551 -36.129515 
L 101.864252 -35.962 
L 101.766795 -35.794214 
L 101.670715 -35.628798 
L 101.577503 -35.468319 
L 101.488362 -35.31485 
L 101.404048 -35.169692 
L 101.324827 -35.0333 
L 101.250537 -34.905399 
L 101.180725 -34.785208 
L 101.114801 -34.67171 
L 101.052154 -34.563853 
L 100.992205 -34.460643 
L 100.934402 -34.361126 
L 100.878165 -34.264306 
L 100.822862 -34.169094 
L 100.767831 -34.07435 
L 100.71247 -33.979037 
L 100.656383 -33.882476 
L 100.599524 -33.784584 
L 100.542281 -33.686033 
L 100.48548 -33.588241 
L 100.430259 -33.493171 
L 100.377884 -33.402998 
L 100.329515 -33.319723 
L 100.286019 -33.244839 
L 100.247849 -33.179124 
L 100.215018 -33.122601 
L 100.18716 -33.074638 
L 100.163637 -33.034141 
L 100.143663 -32.999753 
L 100.126399 -32.97003 
L 100.111014 -32.943542 
L 100.096715 -32.918925 
L 100.082761 -32.894901 
L 100.068477 -32.870308 
L 100.053291 -32.844164 
L 100.036792 -32.815757 
L 100.018785 -32.784756 
L 99.999343 -32.751284 
L 99.978809 -32.715932 
L 99.957743 -32.679664 
L 99.936815 -32.643632 
L 99.916655 -32.608924 
L 99.897713 -32.576313 
L 99.88016 -32.546094 
L 99.863865 -32.518039 
L 99.848459 -32.491515 
L 99.83347 -32.46571 
L 99.818474 -32.439891 
L 99.803221 -32.413631 
L 99.787701 -32.386911 
L 99.772126 -32.360097 
L 99.756859 -32.333813 
L 99.742305 -32.308755 
L 99.72881 -32.285522 
L 99.7166 -32.2645 
L 99.705746 -32.245815 
L 99.696181 -32.229346 
L 99.687721 -32.214782 
L 99.680109 -32.201676 
L 99.673037 -32.1895 
L 99.666179 -32.177692 
L 99.65921 -32.165696 
L 99.651841 -32.153009 
L 99.643846 -32.139243 
L 99.635099 -32.124185 
L 99.625609 -32.107846 
L 99.615519 -32.090474 
L 99.605093 -32.072525 
L 99.594669 -32.054579 
L 99.584588 -32.037223 
L 99.575126 -32.020933 
L 99.566444 -32.005985 
L 99.558571 -31.992431 
L 99.551425 -31.980127 
L 99.544859 -31.968823 
L 99.538726 -31.958264 
L 99.532919 -31.948267 
L 99.527401 -31.938766 
L 99.522191 -31.929796 
L 99.517341 -31.921447 
L 99.512902 -31.913804 
L 99.508888 -31.906893 
L 99.505263 -31.900653 
L 99.501943 -31.894937 
L 99.498808 -31.88954 
L 99.495726 -31.884234 
L 99.492576 -31.87881 
L 99.489271 -31.87312 
L 99.485774 -31.867099 
L 99.482099 -31.860772 
L 99.478313 -31.854254 
L 99.474517 -31.847719 
L 99.470833 -31.841376 
L 99.470833 -116.088781 
L 99.470833 -116.088781 
L 99.474517 -115.684818 
L 99.478313 -115.280865 
L 99.482099 -114.876902 
L 99.485774 -114.472939 
L 99.489271 -114.068985 
L 99.492576 -113.665022 
L 99.495726 -113.261059 
L 99.498808 -112.857105 
L 99.501943 -112.453142 
L 99.505263 -112.049179 
L 99.508888 -111.645226 
L 99.512902 -111.241262 
L 99.517341 -110.837299 
L 99.522191 -110.433346 
L 99.527401 -110.029383 
L 99.532919 -109.625424 
L 99.538726 -109.221466 
L 99.544859 -108.817508 
L 99.551425 -108.413545 
L 99.558571 -108.009586 
L 99.566444 -107.605628 
L 99.575126 -107.201665 
L 99.584588 -106.797707 
L 99.594669 -106.393744 
L 99.605093 -105.989785 
L 99.615519 -105.585827 
L 99.625609 -105.181864 
L 99.635099 -104.777906 
L 99.643846 -104.373947 
L 99.651841 -103.969984 
L 99.65921 -103.566026 
L 99.666179 -103.162068 
L 99.673037 -102.758109 
L 99.680109 -102.354151 
L 99.687721 -101.950188 
L 99.696181 -101.54623 
L 99.705746 -101.142271 
L 99.7166 -100.738308 
L 99.72881 -100.33435 
L 99.742305 -99.930387 
L 99.756859 -99.526429 
L 99.772126 -99.12247 
L 99.787701 -98.718507 
L 99.803221 -98.314549 
L 99.818474 -97.910591 
L 99.83347 -97.506628 
L 99.848459 -97.102669 
L 99.863865 -96.698706 
L 99.88016 -96.294748 
L 99.897713 -95.89079 
L 99.916655 -95.486827 
L 99.936815 -95.082868 
L 99.957743 -94.67891 
L 99.978809 -94.274947 
L 99.999343 -93.870989 
L 100.018785 -93.46703 
L 100.036792 -93.063072 
L 100.053291 -92.659113 
L 100.068477 -92.25515 
L 100.082761 -91.851192 
L 100.096715 -91.447234 
L 100.111014 -91.043271 
L 100.126399 -90.639312 
L 100.143663 -90.235349 
L 100.163637 -89.831391 
L 100.18716 -89.427433 
L 100.215018 -89.02347 
L 100.247849 -88.619511 
L 100.286019 -88.215553 
L 100.329515 -87.81159 
L 100.377884 -87.407632 
L 100.430259 -87.003673 
L 100.48548 -86.599715 
L 100.542281 -86.195757 
L 100.599524 -85.791794 
L 100.656383 -85.387835 
L 100.71247 -84.983877 
L 100.767831 -84.579914 
L 100.822862 -84.175956 
L 100.878165 -83.771993 
L 100.934402 -83.368034 
L 100.992205 -82.964076 
L 101.052154 -82.560113 
L 101.114801 -82.156155 
L 101.180725 -81.752196 
L 101.250537 -81.348233 
L 101.324827 -80.944275 
L 101.404048 -80.540317 
L 101.488362 -80.136358 
L 101.577503 -79.7324 
L 101.670715 -79.328437 
L 101.766795 -78.924479 
L 101.864252 -78.52052 
L 101.961551 -78.116557 
L 102.057401 -77.712599 
L 102.151024 -77.308645 
L 102.242354 -76.904687 
L 102.33211 -76.500729 
L 102.421738 -76.096766 
L 102.513211 -75.692807 
L 102.608738 -75.288849 
L 102.710423 -74.884886 
L 102.819958 -74.480928 
L 102.93841 -74.076964 
L 103.06614 -73.673006 
L 103.202859 -73.269048 
L 103.347775 -72.865085 
L 103.499769 -72.461126 
L 103.657552 -72.057168 
L 103.81973 -71.653205 
L 103.984806 -71.249247 
L 104.151174 -70.845288 
L 104.317136 -70.441328 
L 104.481029 -70.037367 
L 104.641464 -69.633409 
L 104.797623 -69.229448 
L 104.949507 -68.825487 
L 105.098053 -68.421529 
L 105.245018 -68.017568 
L 105.392625 -67.613608 
L 105.543055 -67.209649 
L 105.697908 -66.805689 
L 105.857769 -66.40173 
L 106.022009 -65.99777 
L 106.188848 -65.593809 
L 106.355667 -65.189851 
L 106.51945 -64.78589 
L 106.677232 -64.381932 
L 106.826472 -63.977971 
L 106.965251 -63.57401 
L 107.092335 -63.170052 
L 107.20713 -62.766091 
L 107.309589 -62.362131 
L 107.400127 -61.958172 
L 107.479548 -61.554212 
L 107.548975 -61.150251 
L 107.609755 -60.746293 
L 107.663337 -60.342332 
L 107.711101 -59.938374 
L 107.754193 -59.534413 
L 107.793369 -59.130452 
L 107.828883 -58.726494 
L 107.860425 -58.322533 
L 107.887103 -57.91857 
L 107.907485 -57.514612 
L 107.919671 -57.110651 
L 107.921427 -56.706693 
L 107.91034 -56.302732 
L 107.883999 -55.898771 
L 107.84016 -55.494813 
L 107.776877 -55.090852 
L 107.692569 -54.686894 
L 107.586044 -54.282933 
L 107.456481 -53.878973 
L 107.303401 -53.475014 
L 107.126635 -53.071054 
L 106.926306 -52.667093 
L 106.702819 -52.263135 
L 106.456852 -51.859174 
L 106.18938 -51.455213 
L 105.901715 -51.051255 
L 105.595571 -50.647294 
L 105.273154 -50.243335 
L 104.937206 -49.839375 
L 104.591008 -49.435416 
L 104.238288 -49.031455 
L 103.883063 -48.627496 
L 103.529413 -48.223536 
L 103.181264 -47.819577 
L 102.842198 -47.415616 
L 102.515317 -47.011656 
L 102.203163 -46.607697 
L 101.907683 -46.203737 
L 101.630234 -45.799777 
L 101.371613 -45.395817 
L 101.132107 -44.991858 
L 100.911586 -44.587898 
L 100.709618 -44.183938 
L 100.525602 -43.779978 
L 100.358898 -43.376019 
L 100.208922 -42.972059 
L 100.075189 -42.568098 
L 99.957286 -42.164139 
L 99.854798 -41.760178 
L 99.767196 -41.356219 
L 99.693737 -40.952259 
L 99.633405 -40.548299 
L 99.584911 -40.14434 
L 99.546753 -39.74038 
L 99.517318 -39.33642 
L 99.495004 -38.93246 
L 99.478324 -38.5285 
L 99.465987 -38.12454 
L 99.456931 -37.72058 
L 99.450324 -37.316621 
L 99.445534 -36.912661 
L 99.442091 -36.508701 
L 99.43965 -36.104741 
L 99.43795 -35.700781 
z
" style="stroke: #08519c; stroke-opacity: 0.1"/>
    </defs>
    <g clip-path="url(#pa0d493e516)">
     <use xlink:href="#m609e89de40" x="0" y="139.920781" style="fill: #08519c; fill-opacity: 0.1; stroke: #08519c; stroke-opacity: 0.1"/>
    </g>
   </g>
   <g id="PolyCollection_4">
    <defs>
     <path id="mb1c46b3666" d="M 99.45286 -35.700781 
L 99.45286 -31.810434 
L 99.460144 -31.822974 
L 99.469782 -31.839567 
L 99.482338 -31.861183 
L 99.498454 -31.88893 
L 99.518859 -31.92406 
L 99.544364 -31.967971 
L 99.575862 -32.022199 
L 99.614321 -32.088413 
L 99.66078 -32.168399 
L 99.716336 -32.264046 
L 99.782127 -32.377316 
L 99.859319 -32.510212 
L 99.949073 -32.664737 
L 100.052525 -32.842845 
L 100.17075 -33.046387 
L 100.304727 -33.277049 
L 100.455297 -33.536277 
L 100.623113 -33.825196 
L 100.808573 -34.144494 
L 101.011752 -34.494295 
L 101.232301 -34.874004 
L 101.469363 -35.282141 
L 101.721479 -35.716196 
L 101.986547 -36.172549 
L 102.261824 -36.64648 
L 102.544018 -37.132317 
L 102.829451 -37.623733 
L 103.114322 -38.11418 
L 103.394992 -38.597396 
L 103.668298 -39.067931 
L 103.931792 -39.521575 
L 104.183915 -39.955642 
L 104.424022 -40.369023 
L 104.652295 -40.762028 
L 104.869533 -41.136034 
L 105.076887 -41.493025 
L 105.275579 -41.835103 
L 105.466652 -42.164063 
L 105.650793 -42.48109 
L 105.828253 -42.786612 
L 105.998825 -43.080279 
L 106.161914 -43.36106 
L 106.31662 -43.62741 
L 106.461841 -43.877428 
L 106.596374 -44.109046 
L 106.719009 -44.320182 
L 106.828607 -44.50887 
L 106.92417 -44.673396 
L 107.004914 -44.812408 
L 107.070313 -44.925004 
L 107.120143 -45.010793 
L 107.154479 -45.069907 
L 107.173677 -45.10296 
L 107.178321 -45.110954 
L 107.169139 -45.095147 
L 107.146923 -45.056898 
L 107.112437 -44.997526 
L 107.066364 -44.918203 
L 107.009265 -44.8199 
L 106.941605 -44.703413 
L 106.8638 -44.569461 
L 106.776314 -44.418841 
L 106.679771 -44.252627 
L 106.575055 -44.072343 
L 106.463392 -43.880099 
L 106.346359 -43.678609 
L 106.225826 -43.471094 
L 106.103825 -43.261051 
L 105.982361 -43.051933 
L 105.8632 -42.84678 
L 105.747679 -42.647894 
L 105.636575 -42.456612 
L 105.530056 -42.273223 
L 105.427732 -42.097056 
L 105.328778 -41.926694 
L 105.232119 -41.760281 
L 105.136608 -41.595844 
L 105.041186 -41.431562 
L 104.944993 -41.26595 
L 104.847398 -41.097927 
L 104.747996 -40.926792 
L 104.646548 -40.752134 
L 104.542921 -40.573725 
L 104.437044 -40.391442 
L 104.328885 -40.205231 
L 104.218457 -40.015113 
L 104.105849 -39.82124 
L 103.991248 -39.623939 
L 103.874955 -39.423722 
L 103.757362 -39.221269 
L 103.638926 -39.017364 
L 103.520104 -38.812794 
L 103.401312 -38.608277 
L 103.282906 -38.404423 
L 103.165179 -38.201738 
L 103.0484 -38.000687 
L 102.932876 -37.801794 
L 102.818982 -37.605708 
L 102.707206 -37.413269 
L 102.598128 -37.225477 
L 102.492384 -37.043422 
L 102.390592 -36.868172 
L 102.293273 -36.700623 
L 102.200782 -36.541386 
L 102.113267 -36.390716 
L 102.030667 -36.248509 
L 101.952751 -36.114365 
L 101.879166 -35.987677 
L 101.809508 -35.867751 
L 101.743385 -35.753911 
L 101.680443 -35.645547 
L 101.620378 -35.542136 
L 101.562918 -35.443209 
L 101.507786 -35.348292 
L 101.45468 -35.256862 
L 101.403244 -35.168307 
L 101.353075 -35.081933 
L 101.303751 -34.997015 
L 101.254866 -34.912853 
L 101.206079 -34.828858 
L 101.157147 -34.744615 
L 101.107949 -34.659913 
L 101.058482 -34.574748 
L 101.008842 -34.489286 
L 100.959186 -34.403796 
L 100.909691 -34.318582 
L 100.86051 -34.233911 
L 100.811748 -34.149959 
L 100.763442 -34.066793 
L 100.715567 -33.984369 
L 100.66806 -33.90258 
L 100.620851 -33.821302 
L 100.573907 -33.740481 
L 100.527275 -33.660197 
L 100.481115 -33.580727 
L 100.435715 -33.502563 
L 100.391482 -33.426409 
L 100.348906 -33.353108 
L 100.308505 -33.283552 
L 100.270751 -33.218552 
L 100.235996 -33.158717 
L 100.204416 -33.104347 
L 100.175969 -33.055372 
L 100.1504 -33.011352 
L 100.127268 -32.971527 
L 100.106009 -32.934925 
L 100.086013 -32.9005 
L 100.066711 -32.867268 
L 100.04764 -32.834435 
L 100.028498 -32.801479 
L 100.009159 -32.768183 
L 99.989664 -32.734621 
L 99.97019 -32.701092 
L 99.950987 -32.668033 
L 99.932335 -32.63592 
L 99.914479 -32.605179 
L 99.897602 -32.576123 
L 99.881801 -32.548919 
L 99.867086 -32.523584 
L 99.853393 -32.500009 
L 99.840607 -32.477997 
L 99.828586 -32.457301 
L 99.817181 -32.437665 
L 99.806254 -32.418853 
L 99.795689 -32.400665 
L 99.785398 -32.382947 
L 99.775319 -32.365593 
L 99.765414 -32.348542 
L 99.755671 -32.331766 
L 99.74609 -32.315272 
L 99.736689 -32.299087 
L 99.727497 -32.283262 
L 99.71855 -32.267858 
L 99.709893 -32.252953 
L 99.701572 -32.238627 
L 99.693631 -32.224956 
L 99.686104 -32.211998 
L 99.679003 -32.199772 
L 99.672308 -32.188245 
L 99.665955 -32.177307 
L 99.659838 -32.166777 
L 99.653811 -32.1564 
L 99.647699 -32.145876 
L 99.64132 -32.134894 
L 99.634514 -32.123178 
L 99.627173 -32.110539 
L 99.619257 -32.096911 
L 99.610818 -32.082381 
L 99.601994 -32.06719 
L 99.593 -32.051706 
L 99.5841 -32.036383 
L 99.575569 -32.021695 
L 99.567654 -32.008068 
L 99.56054 -31.99582 
L 99.554321 -31.985114 
L 99.548995 -31.975943 
L 99.544466 -31.968146 
L 99.540569 -31.961438 
L 99.537104 -31.955472 
L 99.537104 -116.088781 
L 99.537104 -116.088781 
L 99.540569 -115.684818 
L 99.544466 -115.280865 
L 99.548995 -114.876902 
L 99.554321 -114.472939 
L 99.56054 -114.068985 
L 99.567654 -113.665022 
L 99.575569 -113.261059 
L 99.5841 -112.857105 
L 99.593 -112.453142 
L 99.601994 -112.049179 
L 99.610818 -111.645226 
L 99.619257 -111.241262 
L 99.627173 -110.837299 
L 99.634514 -110.433346 
L 99.64132 -110.029383 
L 99.647699 -109.625424 
L 99.653811 -109.221466 
L 99.659838 -108.817508 
L 99.665955 -108.413545 
L 99.672308 -108.009586 
L 99.679003 -107.605628 
L 99.686104 -107.201665 
L 99.693631 -106.797707 
L 99.701572 -106.393744 
L 99.709893 -105.989785 
L 99.71855 -105.585827 
L 99.727497 -105.181864 
L 99.736689 -104.777906 
L 99.74609 -104.373947 
L 99.755671 -103.969984 
L 99.765414 -103.566026 
L 99.775319 -103.162068 
L 99.785398 -102.758109 
L 99.795689 -102.354151 
L 99.806254 -101.950188 
L 99.817181 -101.54623 
L 99.828586 -101.142271 
L 99.840607 -100.738308 
L 99.853393 -100.33435 
L 99.867086 -99.930387 
L 99.881801 -99.526429 
L 99.897602 -99.12247 
L 99.914479 -98.718507 
L 99.932335 -98.314549 
L 99.950987 -97.910591 
L 99.97019 -97.506628 
L 99.989664 -97.102669 
L 100.009159 -96.698706 
L 100.028498 -96.294748 
L 100.04764 -95.89079 
L 100.066711 -95.486827 
L 100.086013 -95.082868 
L 100.106009 -94.67891 
L 100.127268 -94.274947 
L 100.1504 -93.870989 
L 100.175969 -93.46703 
L 100.204416 -93.063072 
L 100.235996 -92.659113 
L 100.270751 -92.25515 
L 100.308505 -91.851192 
L 100.348906 -91.447234 
L 100.391482 -91.043271 
L 100.435715 -90.639312 
L 100.481115 -90.235349 
L 100.527275 -89.831391 
L 100.573907 -89.427433 
L 100.620851 -89.02347 
L 100.66806 -88.619511 
L 100.715567 -88.215553 
L 100.763442 -87.81159 
L 100.811748 -87.407632 
L 100.86051 -87.003673 
L 100.909691 -86.599715 
L 100.959186 -86.195757 
L 101.008842 -85.791794 
L 101.058482 -85.387835 
L 101.107949 -84.983877 
L 101.157147 -84.579914 
L 101.206079 -84.175956 
L 101.254866 -83.771993 
L 101.303751 -83.368034 
L 101.353075 -82.964076 
L 101.403244 -82.560113 
L 101.45468 -82.156155 
L 101.507786 -81.752196 
L 101.562918 -81.348233 
L 101.620378 -80.944275 
L 101.680443 -80.540317 
L 101.743385 -80.136358 
L 101.809508 -79.7324 
L 101.879166 -79.328437 
L 101.952751 -78.924479 
L 102.030667 -78.52052 
L 102.113267 -78.116557 
L 102.200782 -77.712599 
L 102.293273 -77.308645 
L 102.390592 -76.904687 
L 102.492384 -76.500729 
L 102.598128 -76.096766 
L 102.707206 -75.692807 
L 102.818982 -75.288849 
L 102.932876 -74.884886 
L 103.0484 -74.480928 
L 103.165179 -74.076964 
L 103.282906 -73.673006 
L 103.401312 -73.269048 
L 103.520104 -72.865085 
L 103.638926 -72.461126 
L 103.757362 -72.057168 
L 103.874955 -71.653205 
L 103.991248 -71.249247 
L 104.105849 -70.845288 
L 104.218457 -70.441328 
L 104.328885 -70.037367 
L 104.437044 -69.633409 
L 104.542921 -69.229448 
L 104.646548 -68.825487 
L 104.747996 -68.421529 
L 104.847398 -68.017568 
L 104.944993 -67.613608 
L 105.041186 -67.209649 
L 105.136608 -66.805689 
L 105.232119 -66.40173 
L 105.328778 -65.99777 
L 105.427732 -65.593809 
L 105.530056 -65.189851 
L 105.636575 -64.78589 
L 105.747679 -64.381932 
L 105.8632 -63.977971 
L 105.982361 -63.57401 
L 106.103825 -63.170052 
L 106.225826 -62.766091 
L 106.346359 -62.362131 
L 106.463392 -61.958172 
L 106.575055 -61.554212 
L 106.679771 -61.150251 
L 106.776314 -60.746293 
L 106.8638 -60.342332 
L 106.941605 -59.938374 
L 107.009265 -59.534413 
L 107.066364 -59.130452 
L 107.112437 -58.726494 
L 107.146923 -58.322533 
L 107.169139 -57.91857 
L 107.178321 -57.514612 
L 107.173677 -57.110651 
L 107.154479 -56.706693 
L 107.120143 -56.302732 
L 107.070313 -55.898771 
L 107.004914 -55.494813 
L 106.92417 -55.090852 
L 106.828607 -54.686894 
L 106.719009 -54.282933 
L 106.596374 -53.878973 
L 106.461841 -53.475014 
L 106.31662 -53.071054 
L 106.161914 -52.667093 
L 105.998825 -52.263135 
L 105.828253 -51.859174 
L 105.650793 -51.455213 
L 105.466652 -51.051255 
L 105.275579 -50.647294 
L 105.076887 -50.243335 
L 104.869533 -49.839375 
L 104.652295 -49.435416 
L 104.424022 -49.031455 
L 104.183915 -48.627496 
L 103.931792 -48.223536 
L 103.668298 -47.819577 
L 103.394992 -47.415616 
L 103.114322 -47.011656 
L 102.829451 -46.607697 
L 102.544018 -46.203737 
L 102.261824 -45.799777 
L 101.986547 -45.395817 
L 101.721479 -44.991858 
L 101.469363 -44.587898 
L 101.232301 -44.183938 
L 101.011752 -43.779978 
L 100.808573 -43.376019 
L 100.623113 -42.972059 
L 100.455297 -42.568098 
L 100.304727 -42.164139 
L 100.17075 -41.760178 
L 100.052525 -41.356219 
L 99.949073 -40.952259 
L 99.859319 -40.548299 
L 99.782127 -40.14434 
L 99.716336 -39.74038 
L 99.66078 -39.33642 
L 99.614321 -38.93246 
L 99.575862 -38.5285 
L 99.544364 -38.12454 
L 99.518859 -37.72058 
L 99.498454 -37.316621 
L 99.482338 -36.912661 
L 99.469782 -36.508701 
L 99.460144 -36.104741 
L 99.45286 -35.700781 
z
" style="stroke: #d94801; stroke-opacity: 0.1"/>
    </defs>
    <g clip-path="url(#pa0d493e516)">
     <use xlink:href="#mb1c46b3666" x="0" y="139.920781" style="fill: #d94801; fill-opacity: 0.1; stroke: #d94801; stroke-opacity: 0.1"/>
    </g>
   </g>
   <g id="matplotlib.axis_5">
    <g id="xtick_5">
     <g id="line2d_11">
      <g>
       <use xlink:href="#mf840a9ed06" x="99.434844" y="104.22" style="stroke: #000000; stroke-width: 1.5"/>
      </g>
     </g>
    </g>
    <g id="xtick_6">
     <g id="line2d_12">
      <g>
       <use xlink:href="#mf840a9ed06" x="105.129049" y="104.22" style="stroke: #000000; stroke-width: 1.5"/>
      </g>
     </g>
    </g>
   </g>
   <g id="matplotlib.axis_6">
    <g id="ytick_5">
     <g id="line2d_13">
      <g>
       <use xlink:href="#md25e0bb58a" x="99.434844" y="68.927709" style="stroke: #000000; stroke-width: 1.5"/>
      </g>
     </g>
    </g>
    <g id="ytick_6">
     <g id="line2d_14">
      <g>
       <use xlink:href="#md25e0bb58a" x="99.434844" y="29.714052" style="stroke: #000000; stroke-width: 1.5"/>
      </g>
     </g>
    </g>
   </g>
   <g id="line2d_15">
    <path d="M 99.43795 104.22 
L 99.546753 100.180402 
L 99.767196 98.564563 
L 100.208922 96.948722 
L 100.911586 95.332883 
L 101.907683 93.717044 
L 103.181264 92.101205 
L 106.18938 88.465568 
L 107.126635 86.849727 
L 107.586044 85.637848 
L 107.84016 84.425968 
L 107.919671 82.81013 
L 107.754193 80.386368 
L 107.400127 77.962609 
L 106.965251 76.346771 
L 106.022009 73.923012 
L 103.347775 67.055696 
L 102.710423 65.035895 
L 101.488362 59.784423 
L 100.992205 56.956705 
L 100.215018 50.897311 
L 100.018785 46.453751 
L 99.673037 37.162672 
L 99.470833 23.832 
L 99.470833 23.832 
" clip-path="url(#pa0d493e516)" style="fill: none; stroke: #08519c; stroke-width: 1.5; stroke-linecap: square"/>
   </g>
   <g id="line2d_16">
    <path d="M 99.45286 104.22 
L 99.614321 100.988321 
L 99.949073 98.968522 
L 100.455297 97.352683 
L 101.232301 95.736844 
L 102.544018 93.717044 
L 104.424022 90.889326 
L 105.466652 88.869526 
L 106.461841 86.445767 
L 106.92417 84.829929 
L 107.154479 83.214088 
L 107.146923 81.598248 
L 106.8638 79.578449 
L 106.225826 77.15469 
L 105.232119 73.519051 
L 103.991248 68.671534 
L 102.113267 61.804224 
L 101.562918 58.572548 
L 100.620851 50.897311 
L 100.1504 46.049793 
L 99.817181 38.374552 
L 99.540569 24.235963 
L 99.537104 23.832 
L 99.537104 23.832 
" clip-path="url(#pa0d493e516)" style="fill: none; stroke: #d94801; stroke-width: 1.5; stroke-linecap: square"/>
   </g>
   <g id="patch_9">
    <path d="M 99.434844 104.22 
L 99.434844 23.832 
" style="fill: none; stroke: #000000; stroke-width: 1.5; stroke-linejoin: miter; stroke-linecap: square"/>
   </g>
   <g id="patch_10">
    <path d="M 99.434844 104.22 
L 110.594844 104.22 
" style="fill: none; stroke: #000000; stroke-width: 1.5; stroke-linejoin: miter; stroke-linecap: square"/>
   </g>
  </g>
 </g>
 <defs>
  <clipPath id="pca8e556334">
   <rect x="32.474844" y="23.832" width="64.728" height="80.388"/>
  </clipPath>
  <clipPath id="pe37cc1930a">
   <rect x="32.474844" y="7.2" width="64.728" height="13.86"/>
  </clipPath>
  <clipPath id="pa0d493e516">
   <rect x="99.434844" y="23.832" width="11.16" height="80.388"/>
  </clipPath>
 </defs>
</svg>
